<?xml version="1.0" encoding="UTF-8" standalone="no"?>
<!-- Created for MapSVG plugin: http://mapsvg.com -->

<svg
   mapsvg:geoViewBox="-10.617532 55.384216 -5.429631 51.419751"
   width="92.830002"
   height="106.85"
   version="1.1"
   id="svg1"
   xmlns="http://www.w3.org/2000/svg"
   xmlns:svg="http://www.w3.org/2000/svg"
   xmlns:mapsvg="http://mapsvg.com">
  <defs
     id="defs1" />
  <path
     d="m 37.38,0 1.32,1.47 1.27,-0.87 3.75,0.12 0.96,2.56 0.71,-0.08 0.37,0.55 0.06,0.89 0.81,-0.54 2.66,-0.39 0.44,0.31 -0.57,4.12 2.92,2.04 1.62,0.7 2.63,-3.17 0.45,-3.53 -0.21,-1.6 0.95,-0.7 v 0 0 0 h 0.07 v 0 0 0 l 1.22,0.55 1.62,1.98 1.79001,1.13 2.3,0.68 1.27,-0.41 1.31999,-1.25 1.06,0.08 0.27,-1.24 1.61,-0.02 1.37,-0.56 0.32,0.03 0.73001,1.77 1.25999,1.36 0.51,0.33 1.35001,-0.21 1.2,0.72 L 79.31,4.84 80.78001,4.37 v 0 l 0.13,0.43 0.43,-0.04 -0.21,0.39 0.9,1.96 1.23,0.66 0.51,0.7 0.64,2.76 -0.49001,1.59 0.46,2.02 1.43,1.9 v 0.68 l 1.49,2.77 0.9,2.78 0.74,8.95 -1.62,7.26 -0.24,3.33 0.37,4.08 0.95,1.95 0.7,0.02 1.55,1.97 1.26,-0.02 0.92,1.76 -1.69,2.38 -0.08,2.51 -0.93,1.68 0.23,0.73 -1.00999,0.68 -0.89,1.21 -0.2,3.3 -1.23,1.22 -0.83,1.66 -0.73,3.54 0.69999,1.58 -4.91,3.13 -1.9,3.08 -0.54,2.06 -2.04,2.75 -0.03,1.81 -0.85,1.94 0.51,1.23 L 76,91 l 0.92,0.9 -1.08,2.88 0.7,1.48 v 0 l -2,-0.25 -0.84,-0.48 0.1,-0.63 -0.94999,-0.79 -1.42001,-0.04 0.08,-0.32 1.66,-0.04 -0.94,-1.02 0.82,-2.27 -3.19999,-0.46 -1,-1.2 -0.9,-0.42 -0.91,0.89 L 66.31,88.07 64.7,88.3 63.39,86.67 63.2,85.22 l -0.84,-0.23 -2.29,1.14 -1.6,1.31 -1.03,-0.29 -1.76,-2.48 -1.72,0.13 -0.88,1.23 -0.95,-0.19 -0.46,-0.83 H 50.36 L 49.3,85.22 47.41001,86.82 46.8,86.3 l -0.41,0.17 -1.8,1.91 -0.31,0.6 0.27,1.21 -0.33,2.29 -0.99,0.32 -0.8,-0.13 -0.17,3.88 -0.46,-0.08 -0.78,1.25 -1.22,1.06 -0.59,0.12 -0.41,0.84 -1.2,0.73 -0.25,1.08 -2.33,3.24 -0.44,-0.67 -0.54,0.19 -0.3,0.83 -1.73,0.94 -1.31,-0.15 -0.57,0.51 -2.3,-0.38 -0.95,0.79 -0.57,-0.66 -0.11,-3.09 -0.58,-0.71 -1.42,0.73 -0.54,-0.07 -0.49,-0.33 -0.27,-1.29 -0.56,-0.04 -0.8,-0.69 -0.38,0.21 v 0 l -0.43,-0.02 -0.65,-0.94 -0.83,-2.48 -2.67,-3.11 -0.03,-0.36 1.03,-1.1 -0.93,-1.15 -0.26,-1.58 -1.07,-0.46 -0.63,-1.16 -1.06,-0.9 -2.07,1.29 -0.48,-0.69 -0.99,-0.08 0.06,-0.6 0.92,-1.06 -0.21,-1.52 0.55,-0.13 -0.21,-1.85 0.76,-1.15 1.35,-0.77 0.82,-0.1 0.86,-0.77 0.19,-0.96 -0.62,-0.56 0.01,-0.56 0.22001,-0.39 0.83999,0.16 -0.03,-0.68 2.01999,1.53 0.94,-0.12 1.27,1.19 0.06,0.68 1.11,1.94 1.38,-0.36 1.7,1.11 0.75,-0.38 1.33,0.61 1.21,-1.63 -0.45,-0.73 2.01,-1.02 1.37,-0.24 1.42,0.47 0.17,-0.29 -0.57,-0.43 -0.2,-0.71 0.59,-3.27 -0.38,-0.89 0.34,-2.04 -0.46,-1.27 2.24,-0.49 0.08,-2.25 -1.37,-0.93 -0.73,-0.96 -0.96,-0.1 -0.58,0.79 -0.36,1.39 -0.82,0.54 -2.09,-1.12 -2.19,0.41 -0.36,-0.89 0.05,-2.2 -0.38,-0.33 -1.88,-0.61 -0.57999,0.42 -2.82,-1.04 -0.8,0.6 -0.28,0.71 -1.11,-1.76 -0.63,-0.4 -1.19,-0.17 -1.7,1.04 L 11.7,63.55 11.49,62.83 9.71,61.37 8.29,62.1 6.7,61.85 v 0 L 7.27,59.43 6.51,57.81 6.81,57.08 6.64,56.48 2.87,51.9 1.8,49.78 0.98,50.11 0.28,48.46 0.47,47.71 0,47.05 0.67,45.45 3.17,43.65 2.05,42.6 2.38,42.31 2,41.58 3.37,40.53 4.39,40.65 5.17,39.18 6.65,37.67 7.5,35.64 7.63,33.68 7.29,32.73 l 0.87,-0.25 0.68,-0.83 1.39,-0.62 0.31,-0.08 0.19,0.37 2.29,-0.89 0.21,-0.89 1.96,-0.25 0.43,-1.09 3.62,-0.76 0.52,-2.28 1.78,0.5 0.05,-0.58 1.7,-1.86 2.43,-3.63 -0.24,-2.46 0.39,-0.78 1.12,-0.91 0.73,-0.02 0.21,-0.81 1.81,-1.44 -2.16,-1.4 0.2,-1.67 0.74,-0.93 1.38,-0.45 2.06,0.51 2.55,-3.56 -0.95,-0.54 -0.13,-1.26 1.39,-1.25 0.41,0.1 z"
     title="Wicklow"
     id="IE-WW" />
</svg>
