<?xml version="1.0" encoding="utf-8"?>
<!-- Generator: Adobe Illustrator 19.0.1, SVG Export Plug-In . SVG Version: 6.00 Build 0)  -->
<svg version="1.1" id="Layer_1" xmlns="http://www.w3.org/2000/svg" xmlns:xlink="http://www.w3.org/1999/xlink" x="0px" y="0px"
	 viewBox="0 0 100 100" style="enable-background:new 0 0 100 100;" xml:space="preserve">
<style type="text/css">
	.st0{fill:#FFFFFF;}
	.st1{fill:none;stroke:#000000;stroke-width:1.1796;stroke-linecap:round;stroke-linejoin:round;}
	.st2{fill:none;stroke:#000000;stroke-width:1.1796;}
	.st3{fill:none;stroke:#000000;stroke-width:0.983;stroke-linecap:round;stroke-linejoin:round;}
	.st4{fill:#FFD600;}
	.st5{fill:none;stroke:#000000;stroke-width:0.5898;}
	.st6{fill:#573C97;}
	.st7{fill:#FFE3A7;}
	.st8{fill:none;stroke:#000000;stroke-width:0.983;}
	.st9{fill:#FFD000;}
	.st10{fill:none;stroke:#FFD000;stroke-width:0.1966;stroke-linecap:round;stroke-linejoin:round;}
	.st11{fill:none;stroke:#573C97;stroke-width:0.1966;stroke-linecap:round;stroke-linejoin:round;}
	.st12{fill:none;}
	.st13{fill:none;stroke:#000000;stroke-width:7.864321e-02;}
	.st14{fill:#FFFFFF;stroke:#000000;stroke-width:0.7803;}
	.st15{stroke:#000000;stroke-width:0.1672;}
	.st16{fill:none;stroke:#000000;stroke-width:0.6688;}
	.st17{fill:none;stroke:#000000;stroke-width:0.5573;stroke-linecap:round;stroke-linejoin:round;}
	.st18{fill:none;stroke:#0F1636;stroke-width:0.5573;}
</style>
<g>
	<path class="st0" d="M49.7,2C34.1,2,21.1,4.1,12,8.5v3.7c-6.3,1.3-10.6,4.4-11.3,5.2c3.3,0.4,5.8,1.3,5.8,1.3
		c-2.3,2.3-3.3,5.4-3.3,5.4c6.5-2.9,9.8-3.6,17.9-4.4v-3.4c14.9-4.6,23.4-4.6,28.9-4.6c5.5,0,14.1,0,28.9,4.6v3.4
		c8.1,0.8,11.3,1.5,17.9,4.4c0,0-1-3.1-3.3-5.4c0,0,2.5-0.8,5.8-1.3c-0.8-0.8-5-4-11.3-5.2V8.5C78.9,4.1,65.9,2,50.3,2H49.7z"/>
	<path class="st1" d="M49.7,2C34.1,2,21.1,4.1,12,8.5v3.7c-6.3,1.3-10.6,4.4-11.3,5.2c3.3,0.4,5.8,1.3,5.8,1.3
		c-2.3,2.3-3.3,5.4-3.3,5.4c6.5-2.9,9.8-3.6,17.9-4.4v-3.4c14.9-4.6,23.4-4.6,28.9-4.6c5.5,0,14.1,0,28.9,4.6v3.4
		c8.1,0.8,11.3,1.5,17.9,4.4c0,0-1-3.1-3.3-5.4c0,0,2.5-0.8,5.8-1.3c-0.8-0.8-5-4-11.3-5.2V8.5C78.9,4.1,65.9,2,50.3,2H49.7z"/>
	<path class="st1" d="M88,12.3v7.1c-3-1.3-5.8-2.3-9.1-2.9"/>
	<path class="st1" d="M88,19.4c0,0-5.3-0.4-8.8,0"/>
	<path class="st1" d="M12,12.3v7.1c3-1.3,5.8-2.3,9.1-2.9"/>
	<path class="st1" d="M12,19.4c0,0,5.3-0.4,8.8,0"/>
	<path class="st2" d="M13.4,23c1.8,25.2,17.1,70.4,37,70.4c21.6,0,37.8-53.1,37.2-76.3C79,13.8,62.6,12,50.6,12h-0.4
		c-11.5,0-27.1,1.6-35.9,4.7l0,0c-1.5-0.7-3-1.2-3.8-1.8c-0.4,1.9-0.1,3.2,0.9,4.7c0.8,1.2,1.8,1.5,2.1,3.5"/>
	<path class="st0" d="M49.7,2C34.1,2,21.1,4.1,12,8.5v3.7c-6.3,1.3-10.6,4.4-11.3,5.2c3.3,0.4,5.8,1.3,5.8,1.3
		c-2.3,2.3-3.3,5.4-3.3,5.4c6.5-2.9,9.8-3.6,17.9-4.4v-3.4c14.9-4.6,23.4-4.6,28.9-4.6c5.5,0,14.1,0,28.9,4.6v3.4
		c8.1,0.8,11.3,1.5,17.9,4.4c0,0-1-3.1-3.3-5.4c0,0,2.5-0.8,5.8-1.3c-0.8-0.8-5-4-11.3-5.2V8.5C78.9,4.1,65.9,2,50.3,2H49.7z"/>
	<path class="st3" d="M49.7,2C34.1,2,21.1,4.1,12,8.5v3.7c-6.3,1.3-10.6,4.4-11.3,5.2c3.3,0.4,5.8,1.3,5.8,1.3
		c-2.3,2.3-3.3,5.4-3.3,5.4c6.5-2.9,9.8-3.6,17.9-4.4v-3.4c14.9-4.6,23.4-4.6,28.9-4.6c5.5,0,14.1,0,28.9,4.6v3.4
		c8.1,0.8,11.3,1.5,17.9,4.4c0,0-1-3.1-3.3-5.4c0,0,2.5-0.8,5.8-1.3c-0.8-0.8-5-4-11.3-5.2V8.5C78.9,4.1,65.9,2,50.3,2H49.7z"/>
	<path class="st3" d="M88,12.3v7.1c-3-1.3-5.8-2.3-9.1-2.9"/>
	<path class="st3" d="M88,19.4c0,0-5.3-0.4-8.8,0"/>
	<path class="st3" d="M12,12.3v7.1c3-1.3,5.8-2.3,9.1-2.9"/>
	<path class="st3" d="M12,19.4c0,0,5.3-0.4,8.8,0"/>
	<path class="st4" d="M14.2,16.7c0.4,7.1,3.4,36.7,26.4,54c1.8-2.8,3.4-4.2,5.4-4.8c1.2-1.1,3.4-2.4,6.8-2.2
		c1.5-0.5,4.6-0.1,6.7,1.1c1.4,0.3,7,3.6,7.9,9.3c1.1,1.3,1.1,5.6,0.1,6.5c-0.6,1.3-0.6,2.3-1.8,3.7c13.5-16.2,22.3-50,21.9-67.3
		C79,13.8,62.6,12,50.6,12h-0.4C38.7,12,23,13.6,14.2,16.7"/>
	<path class="st5" d="M14.2,16.7c0.4,7.1,3.4,36.7,26.4,54c1.8-2.8,3.4-4.2,5.4-4.8c1.2-1.1,3.4-2.4,6.8-2.2
		c1.5-0.5,4.6-0.1,6.7,1.1c1.4,0.3,7,3.6,7.9,9.3c1.1,1.3,1.1,5.6,0.1,6.5c-0.6,1.3-0.6,2.3-1.8,3.7c13.5-16.2,22.3-50,21.9-67.3
		C79,13.8,62.6,12,50.6,12h-0.4C38.7,12,23,13.6,14.2,16.7z"/>
	<path class="st6" d="M81.3,52.9c-1.9-2.3-2.7-2.3-3.8-3.8c-0.7-0.7-2.1-2.6-6-2.3l-0.8,2c5.6,3.1,5.2,6.2,8.8,9.4
		C80.1,56.5,80.7,54.7,81.3,52.9"/>
	<path class="st6" d="M82.9,47.6c0.1-0.5,0.3-0.9,0.4-1.4c-2.9-2-4.8-4.9-6.4-4.9c-0.1,0.7,0.3,1.3-1.2,1.9
		C78.4,44,80.3,45.1,82.9,47.6"/>
	<path class="st6" d="M68.9,28.1c1.9,0.1,5.2,0.9,3.9,5.1C72.3,31.3,71.2,29.4,68.9,28.1"/>
	<path class="st6" d="M76.4,32.4c0.9,3,0.2,10.7-4.4,8.4c-0.1-1.5,0.9-3.5,0.9-3.5l0.7-0.7l0.3,1c0.5-0.9,2.1-2.2,2.1-3.5
		C76,33.3,75.9,33,76.4,32.4"/>
	<path class="st6" d="M59.5,64.9c1.4,0.3,7,3.6,7.9,9.3c1.1,1.3,1.1,5.6,0.1,6.5c-0.6,1.3-0.6,2.3-1.8,3.7l0.5-0.6
		c4.7-5.9,8.9-13.9,12.3-22.6c-4-5.4-6.3-5.5-7.4-5.5c1,5.2-0.8,11-0.8,15.5c0,2.8-0.1,4.5-1.1,6c-0.6-2-0.2-4.5-0.7-6
		c-0.7-2.7,0.3-2.8-0.2-4.4c-0.5-2.3,0.9-5.5,0.1-6.5c0.4,1.2-2.2,5.7-1.8,6.9c-3.5-4.1,3.5-14.7,2.2-15.5c-0.7-0.4-2.5,4.6-5.5,9.5
		C62.3,62.4,62.1,64.4,59.5,64.9"/>
	<path class="st6" d="M54.8,63.6c-0.8,0-1.4,0-1.9,0.2c-3.3-0.2-5.6,1.1-6.8,2.2c-2,0.6-3.5,2.1-5.4,4.8c-9.1-6.8-15.1-15.6-19-24.1
		c3.5-0.1,4.3,1.8,14.2,1.9c7.1,0.2,10.5,3.9,22,5.3l0.1-1.3l-0.5,0.1c-0.3-0.6-1.7-1.6-2.6-2.3c-0.3-1.4-0.1-3.9,0-5
		c0,0,3,0.6,3.5,0.9c0.5-1,0.3-3.4,0.3-3.4s-1.3-1.2-3.9-2c0.1-1.7,0.8-5.4,1.6-6.8c-0.3-0.7-0.6-2.3-0.9-2.9
		c-2.1,4.7-1.7,9.5-1.7,11.8L53,41.2c0.1,3.2,1.2,8.4,1.8,11.5c0,0-1.2-2.2-1.4-3.1c-1-1.2-4.7-2.2-7.3-5.3c2.4,0.8,4.8,1,6.6,0.9
		c-0.3-0.9-0.8-3.2-0.6-5c-2.4-0.3-10.9-1.4-15.7-2.5c-4.8-0.7-9.6-3.3-12-2.4c3.5,2,4,4.8,10.2,6.8c5.3,1.3,7.3,3.1,9.4,5.5
		c-5.7-2.3-13.9-1.1-23.6-4.2c-1.2-3-2.2-6-3-8.8c0.5-0.9,1-1.9,2.2-3.1l-1.8,0.2l0.5-0.3c1.3-0.9,5.8-1.7,9.4-4.2
		c0.3-2.1,0.5-6.6,0.6-8.1c0,0,1-0.4,1.3-0.7c3.3,3,6.9,2.9,7.7,4.3c-0.4-0.3-0.9-0.3-1.4-0.1c-0.1,3.3,0.4,4.8,1.7,5.6
		c2.2,1-1,0.9-1.8,0.5l0.6,0.8l-0.9,0.1l0.6,0.3c5.8,1.4,6.6-1.2,13,2c1.6,0.6,2.6,0.6,3.8,1c0.6-1.2,0.1-4.3,2.8-5.4
		c2.7-1.2,5.1-0.7,5.7-1.8c0.4-0.7,0.5-1,0.5-1.5c-0.7,0.3-1.6,0.3-2.8-0.1c1-0.4,1.7-1.1,2.2-2c-0.4,0.1-1.8,0.3-1.8,0.3
		c0.5-0.3,2-1.3,2.1-1.7c-0.3,0-1.3-0.5-2-0.4c1.7-1.2,1.1-4.1,5.8-4.2c2.9,0,4.6,3,2.3,3.8c0.4-1.4-1.2-2.8-2.2-2
		c-0.4,0.1,2.5,0.8,1.4,3.2c-0.4,0.7-0.7,1.5-0.5,2.2c-2,1.4-1.4,3.9-2.9,4.1c0.9,0.5,2.8-0.3,4.2,0.1c0.2,0,0.6,1-0.4,0.9
		s-1.5,0-1.5,0c0.6,0.4,2.9,2.8,0.7,6.5c0,0.8,0.6,2.1,0.6,2.1c1.6-0.4,2.2-0.6,2.9-1.1c0.1,4.7-1,8.2-0.8,10
		c-0.4-0.1-1.4-1.2-1.4-1.2c-0.8,0.1-2.1,1.7-4.3,1.7c2.7-2.4,3.6-8.5,1.3-8.4c-0.7,0.2,1,4.4-2.2,8.3c-1.1,1-3.6,3.7-3.8,4.8
		c10-3.4,9.3-1.5,11.1-2.9c-0.2,0.8-0.4,2.1-4.9,2.7c-1.1,0.2-2.7,0.5-2.9,0.7c-2.1,0.8-2.4,3.7,0,2.5c0.9-0.3,2.3-0.7,3.8-1.4
		c0,1.6-0.4,2.5-2.9,3.7c-4.9,1.8-6,3.8-5.2,4c0.8-0.2,0.9,0.3,0.6,0.5C56.6,61.6,55.6,62.8,54.8,63.6 M32.6,33.5
		c2.5-0.7,3.7-0.7,7.9-0.6c6.6,0,6.1,1.6,10.7,2c-3-2.9-5.7-3.9-7.7-3.6c-3.7,0.5-8.6,0-11,0.3c-3.5,0.7-7.5,0.5-10.4,2.4
		C27.3,32.6,30.1,34.3,32.6,33.5 M31.7,24.7l0.8-0.1l-0.2-1.4L31.6,23L31.7,24.7z"/>
	<path class="st7" d="M13.4,23.2c1.8,25.3,17.1,70.2,37,70.2c5.5,0,10.7-3.5,15.3-9c1.1-1.4,1.2-2.4,1.8-3.7c1-0.9,1-5.2-0.1-6.5
		c-0.9-5.7-6.5-9-7.9-9.3c-2.1-1.2-5.2-1.6-6.7-1.1c-3.3-0.2-5.6,1.1-6.8,2.2c-2,0.6-3.5,2.1-5.4,4.8c-23.1-17.3-26.1-46.9-26.4-54
		c-1.5-0.7-3-1.2-3.8-1.8c-0.4,1.9-0.1,3.2,0.9,4.7C12.1,20.8,13.1,21.2,13.4,23.2"/>
	<path class="st8" d="M13.4,23c1.8,25.2,17.1,70.4,37,70.4c21.6,0,37.8-53.1,37.2-76.3C79,13.8,62.6,12,50.6,12h-0.4
		c-11.5,0-27.1,1.6-35.9,4.7l0,0c-1.5-0.7-3-1.2-3.8-1.8c-0.4,1.9-0.1,3.2,0.9,4.7c0.8,1.2,1.8,1.5,2.1,3.5"/>
	<path class="st9" d="M72.4,35.8c0,0.2,1.1-0.3,2.1-1.4c0,0,10.5-12.4,14.5-16.4c0.1,0.5-0.2,4.7-3.1,5.7c1.5,0,6.6-2.9,5.9-8
		c-0.1-0.5-0.6-0.6-1.4,0.3c0,0,1.1-0.5,1.6-1.1c-0.1-0.3-0.2-1,0.3-0.8l3.6-6.8l-4.5,5.1L86,19.8L72.4,35.8z"/>
	<path class="st10" d="M72.4,35.8c0,0.2,1.1-0.3,2.1-1.4c0,0,10.5-12.4,14.5-16.4c0.1,0.5-0.2,4.7-3.1,5.7c1.5,0,6.6-2.9,5.9-8
		c-0.1-0.5-0.6-0.6-1.4,0.3c0,0,1.1-0.5,1.6-1.1c-0.1-0.3-0.2-1,0.3-0.8l3.6-6.8l-4.5,5.1L86,19.8L72.4,35.8z"/>
	<path class="st6" d="M90.8,14.4c-0.3,0.4-0.8,0.9-1.5,1.6c-8.6,10.7-16,19-16,19s-1.8,1.6-0.4-0.2c0,0,10.5-11.5,15.1-18.2"/>
	<path class="st11" d="M90.8,14.4c-0.3,0.4-0.8,0.9-1.5,1.6c-8.6,10.7-16,19-16,19s-1.8,1.6-0.4-0.2c0,0,10.5-11.5,15.1-18.2"/>
	<path class="st6" d="M90.8,14.4c0.5-0.7,0.7-1,0.7-1.5l4.5-5.7c-1.5,1.3-4.7,4.3-5.9,5.4c0.3,0.5,0.1,0.9-0.3,0.9
		c-0.3,0.8-1,1.8-1.8,3C89.2,15.7,89.9,14.9,90.8,14.4"/>
	<path class="st12" d="M90.8,14.4c0.5-0.7,0.7-1,0.7-1.5l4.5-5.7c-1.5,1.3-4.7,4.3-5.9,5.4c0.3,0.5,0.1,0.9-0.3,0.9
		c-0.3,0.8-1,1.8-1.8,3C89.2,15.7,89.9,14.9,90.8,14.4z"/>
	<path class="st6" d="M90.6,15.8c0,0-2.1,1.4-1.7,2.9c0,1.4-0.8,3.7-3.1,5.1c1.5-0.4,4.5-2,5.1-7.3C90.9,16.1,91,15.6,90.6,15.8"/>
	<path d="M56.5,33.7c2.2,3.1,3.8,7,2.3,11.5c-1.2,2.6-1.7,4.6-1.9,6.7l0.6,0.7c0.6-0.3,2-0.7,4-0.8c-0.7-0.2-3.7,0-3.7,0
		c-0.1-3.1,3.1-6.4,3.5-8.1c-0.6,0.6-1.2,1-1.2,1c-0.1-1.3,4.9-8.6,1.7-13.2l-0.7-0.7c0.1,1.2,0.3,2.1,0.3,2.1
		c-2.1-1-0.8-2.4-4.4-3.2c0.7,1,1.8,2.1,0.1,1.5c-0.3,0.7-0.3,1-1,0.6C56.5,32.4,56.2,32.8,56.5,33.7"/>
	<path d="M62.4,25.7c0.7-1.7,1.3-1.7,1.3-3c-2.2,2.1-3.3,1.6-3.7,1.2c1.2-0.4,1.2-0.9,1.6-1.7c-0.3-0.1-0.4-0.2-0.5-0.3
		c0.7-0.3,0.9-1.1,1.1-1.7c-0.8,1-1.7,0.3-2.4,0.2c0,0,0.3-0.2,0.4-0.4c1.9-0.5,1.7-1.1,2.1-1.9c0.7-1.4,2.3-1.3,2.9-1.2l-0.4,0.4
		c0.4-0.1,0.8,0,1.1,0.1c-0.7,0.1-1,0.6-1,1c0.8,0.2,1,0.8,1.2,1.3c-0.6,0.5-1.4,1.4-0.3,3.2c0.2,0.2,0.1,1.3-0.8,0.5
		c-0.5-0.4-0.5-1.3-0.7-1C64.1,23,64,23,64,23.7c-0.7,0.9-2,3.1-1.4,3.8c0.1,0.2,0.5,0.6-0.6,0.4c-1.2-0.3-2.9-0.6-4-0.5
		C59.6,27,61.6,27.3,62.4,25.7"/>
	<path d="M29.8,20.4c-0.1,2.1-1.2,8.2,4.5,8.7c-0.9,0-2.7,0.5-0.1,1.3c-1.6,0.3-3.3,0-4.8,0.1c-3.3,0.3-7.3,2-8.8,3.4
		c-0.4,0.5-0.7,1.1-0.7,1.1c3.5-0.4,4.1,1.8,6.7,3.2c-0.7,0.2-1.5-0.1-2.9-0.7c2.3,1.8,1.5,2.5,6.3,3.8c2.7,0.6,4.2,1,6.3,2.7
		c0,0-1.2-0.1-2.3-0.6c1.6,0.9,3.2,1.8,4.4,2.2c-1.7,0-5.3-0.9-9.6-2.7c1.1,0.8,2.2,1.3,2.9,1.5c-2.9-0.2-3-0.8-5.4-1.5
		c0.8,0.9,0.8,1.1,1.5,1.4c-1.7,0-3.2-1.2-4.8-1.6c-1.1-0.4-2.9-1.4-1.7,1.1l-1-0.2c-1-2.3-2.3-6.4-2.9-8.5c0.6,0.4,1.9,1.2,2.4,2.3
		c-0.5-1.4-1.6-2-0.9-3.3c0.7-0.8,2.9-2.3,3.2-2.9c-0.8,0.1-2.9,1.1-3.7,1.7l1-1.2l-1.6,0.2c2.4-0.9,5.3-1.8,7.2-2.3
		c1.4-0.3,2.3-1,2.8-2c1-3.4,0-4.8,0.6-6.8c0.5-0.2,1.3-0.2,0.9-1.4l0.5,0.1C29.8,19.4,29.8,19.8,29.8,20.4"/>
	<path d="M25.3,34.1c2.4-0.5,4.1,1.4,8.9,0c2.8-0.9,7.3-1.4,13,0.3c2.4,0.8,3.1,0.9,3.7,1.8c-0.8,0-5.8-2.4-6.2-1.5
		c-0.2,0.3,2,1,5.8,3.3c-2.5,0.6-5.2-1-7.3-1c-4.2-0.5-5.2,0.5-8.7-0.9c-3.9-1-4.1-0.4-6.2-1.2c-1-0.4-2.3-0.5-3.3,0L25.3,34.1z
		 M42.8,35.1c-1.5-0.5-5-1.1-8.1,0C37.9,34.8,39.3,36.5,42.8,35.1"/>
	<path d="M32.3,23.3l0.2,1.4l-0.8,0.1l-0.5,0.7c0.6,0,1.5,0.2,2.2,0.8c-0.1-1-0.2-1.1-0.2-2.6L32.3,23.3z"/>
	<path d="M57.9,53.9c-2.3,5.6-4.6,6.2-5.6,9.4c0.6-0.1,1.7-0.1,2.4,0c0.5-0.8,1.4-1.5,1.4-1.5l-0.8,0.1c1.6-5,4.3-3.4,6.9-6.4
		c-1.7,0.5-5.2,2.2-3.6-2C58.9,52.7,58.7,52.6,57.9,53.9"/>
	<path d="M73.1,49c2-0.1,4.7,0.9,5.6,2.6c0.1-0.3,0.1-0.7,0.1-0.7l2.2,2.8c-0.4,1.7-0.8,2.4-1.4,3c-0.5-1.2-0.9-2.3-0.9-2.3v1.3
		c-0.9-2.6-0.7-3.7-4-5.6C73.9,49.7,73.4,49.3,73.1,49"/>
	<path d="M35.9,53.8c-0.5-0.9-1.9-1.6-2.2-1.6c-0.3,2.4,1.6,2.9,3,3.5c-3.4-0.5-3.8-0.9-4.9-1.7c-1.8,1.3,3.2,4.3,6.4,4.9
		c2.8,0.1,4.8,2.6,11.9,2.8c-2.1,1.2-5.9-0.3-5.2,0.9c2.4,2.4-1.5,3.7-2.8,1c-1.1-2.6-2.5-2.4-5.2-3.4c-2.5-1,2.9,2.8,4.7,4.2
		c-1-0.5-1,0.3-0.9,0.7c-0.7-0.4-1.6-0.3-0.9,0.3c1.3,1.9,1,3.3,0.9,5C27.5,60.3,23.2,49,22.3,47.3c0,0,1.3,0.9,2.8,1.4
		c1.5,0,1.4,0.1,0.7-0.9c1.2,0.3,2.7,1.3,5,1.6c3.1,0.1,8.6,1.8,9.9,1.8c0,0-1.4-1.3-3.1-2c4.7,0.9,5.6,2.9,8.5,3.7
		c1.1,0.3,3.4,0.7,3.4,0.7c4.1,0.5,4.6,0.1,7.4,1.6c-1.2,0.1-2.2,0-2.2,0l1.6,0.8c-1.8,0-2.7-0.7-4.8-0.7c2.2,1.7,2.4,1.8,3.3,2.2
		c-2.6-0.1-4.5-0.1-6.2,0.1c0,0-0.9,0.7,1.2,1.7c-3.7-0.3-5-1-5-1c1-0.1,3.7-0.5,0.3-1.5c-3.3-1-5.3-1.3-8.7-4.3
		C36.4,52.5,36.2,53,35.9,53.8 M32.2,58.3c1.6,4.4,2,2.9,3.7,5.9c1.2,1.3,2.4,1.6,2.4,1.6c-0.9-2.2-2-1.8-3.3-4.9
		C34.3,59.6,32.6,58.6,32.2,58.3"/>
	<path d="M72.4,67.6c0.5,0.7,1.1,4.2,1.1,4.2S72,75.3,71,76.6c0.4-3.8-0.3-3.2-0.5-5.7c0-1,0.1-2.4,0.4-3.7c0,0,0.2,2.5,0.9,3.3
		C72.5,69.4,72.6,68.9,72.4,67.6"/>
	<path d="M66.4,57.5c-1.3,2.6-2.1,4.4-2.2,7.1l-0.5-2.2c0,1.2,0.5,4.1,0.5,5.4c1.4,1.9,2.5,3.6,2.6,4.3c0.7-0.5,1.2,1.1,1.2,1.1
		c0.2-1.4-0.4-3.3-0.1-4.8c0.2-1.2-0.3-2.8-0.1-4.3c-0.3,1.3-0.5,2.8-0.3,3.5c0,0.6-0.1,3.1-0.1,3.1c-0.7-1.4-1.4-2.4-1.4-2.4
		C65.4,66,65,60.4,66.4,57.5"/>
	<path d="M72.3,57c1.6,0.6,4.7,2.6,5.8,4.5l-1.8-0.7c0.6,0.7,0.9,1.4,0.9,1.4h-0.7c0.6,1.1,0.3,2.8-1.2,5.4c0.1-2,2.2-5.1-2.4-7.5
		l2-0.3C74,58.9,73.3,57.8,72.3,57"/>
	<path d="M76,33.9c0.4,3-1.2,4.2-1.5,5.7c-0.5,1.2-0.8,0-1,0.8c-0.2,0.7-1.1,1-0.9-1c0.2-1.3,0.5-1.8,1-2.4l0.2,1
		C75,36.2,76.1,35.3,76,33.9"/>
	<path d="M53.2,31.3c-0.3,1.3-1,5.1-1,7.4c0,0,0.6-1.1,0.9-2.2c0,0,0,1.3,0.3,2.1c0.1-2.5,0.3-4.9,1-7.1c0-0.5,0.3-1,0.7-1.1
		c-0.3-0.3-1.6-1.2,0-1.7c0.7-0.5,0.8-0.8,0.8-0.8C54.8,28.4,53.8,28.4,53.2,31.3"/>
	<path d="M19.8,12.5c0,0.2-0.1,0.3-0.1,0.4c0,0.3,0,0.5,0,0.5l-0.8,0.2c-0.7,0.2-1.2,0.3-1.5,0.4c-0.3,0.1-0.6,0.2-1,0.4
		c0-0.2-0.1-0.5-0.2-0.9c-0.1-0.4-0.1-0.9-0.3-1.5c-0.1-0.6-0.2-1.1-0.3-1.3c-0.1-0.3-0.2-0.7-0.4-1.3c-0.1-0.2-0.2-0.5-0.3-0.8
		l1.2-0.3c0,0.3,0.1,0.5,0.1,0.8c0.1,0.7,0.2,1.3,0.4,2l0.7,2.4c0.4-0.1,0.7-0.2,0.9-0.3C19,12.9,19.5,12.7,19.8,12.5"/>
	<path class="st13" d="M19.8,12.5c0,0.2-0.1,0.3-0.1,0.4c0,0.3,0,0.5,0,0.5l-0.8,0.2c-0.7,0.2-1.2,0.3-1.5,0.4
		c-0.3,0.1-0.6,0.2-1,0.4c0-0.2-0.1-0.5-0.2-0.9c-0.1-0.4-0.1-0.9-0.3-1.5c-0.1-0.6-0.2-1.1-0.3-1.3c-0.1-0.3-0.2-0.7-0.4-1.3
		c-0.1-0.2-0.2-0.5-0.3-0.8l1.2-0.3c0,0.3,0.1,0.5,0.1,0.8c0.1,0.7,0.2,1.3,0.4,2l0.7,2.4c0.4-0.1,0.7-0.2,0.9-0.3
		C19,12.9,19.5,12.7,19.8,12.5z"/>
	<path d="M26.6,8.8c0.2,1,0,1.9-0.5,2.6c-0.6,0.7-1.5,1.2-2.8,1.4c-0.8,0.2-1.5,0-2.1-0.5c-0.6-0.5-1-1.1-1.1-1.8
		c-0.2-0.8,0-1.6,0.4-2.4c0.5-0.7,1.1-1.2,1.9-1.3c0.3-0.1,0.7-0.3,1-0.3c0.8-0.2,1.5,0,2.1,0.4C26,7.4,26.4,8,26.6,8.8 M25.4,9.2
		c-0.1-0.7-0.5-1.2-1-1.6c-0.5-0.4-1.1-0.6-1.7-0.5c-0.6,0.1-1,0.5-1.3,1.2c-0.3,0.7-0.4,1.3-0.3,2c0.1,0.7,0.5,1.2,1,1.7
		c0.5,0.4,1.1,0.6,1.7,0.5c0.5-0.1,1-0.5,1.3-1.2C25.4,10.5,25.5,9.8,25.4,9.2"/>
	<path class="st13" d="M26.6,8.8c0.2,1,0,1.9-0.5,2.6c-0.6,0.7-1.5,1.2-2.8,1.4c-0.8,0.2-1.5,0-2.1-0.5c-0.6-0.5-1-1.1-1.1-1.8
		c-0.2-0.8,0-1.6,0.4-2.4c0.5-0.7,1.1-1.2,1.9-1.3c0.3-0.1,0.7-0.3,1-0.3c0.8-0.2,1.5,0,2.1,0.4C26,7.4,26.4,8,26.6,8.8z M25.4,9.2
		c-0.1-0.7-0.5-1.2-1-1.6c-0.5-0.4-1.1-0.6-1.7-0.5c-0.6,0.1-1,0.5-1.3,1.2c-0.3,0.7-0.4,1.3-0.3,2c0.1,0.7,0.5,1.2,1,1.7
		c0.5,0.4,1.1,0.6,1.7,0.5c0.5-0.1,1-0.5,1.3-1.2C25.4,10.5,25.5,9.8,25.4,9.2z"/>
	<path d="M33.2,5.9c0,0-0.1,0-0.2,0c-0.2,0-0.4,0.1-0.7,0.3c-0.1,0.1-0.2,0.2-0.3,0.3c-0.1-0.4-0.3-0.6-0.6-0.7
		c-0.2-0.1-0.5-0.2-0.9-0.1c-0.8,0.1-1.4,0.5-1.8,1.3c-0.4,0.6-0.5,1.3-0.4,2c0.1,0.8,0.4,1.4,0.9,1.8c0.5,0.4,1.1,0.6,1.8,0.5
		c0.2,0,0.6-0.2,1.1-0.6c0.4-0.3,0.9-0.7,1.3-1.1c-0.1,0.2-0.2,0.5-0.2,0.8c0,0.3,0,0.5,0,0.8c-0.3,0.1-0.7,0.2-1.1,0.3
		c-0.4,0.1-0.8,0.2-1.3,0.2c-1.1,0.1-1.9,0-2.6-0.3c-0.7-0.4-1.1-1.1-1.2-2.1c-0.1-0.9,0.1-1.7,0.7-2.4c0.5-0.6,1.2-0.9,2-1.1
		c0.2-0.1,0.4-0.1,0.5-0.1c0.4-0.1,0.7-0.2,0.8-0.2c0.5-0.1,0.9-0.1,1.2,0C32.8,5.4,33.1,5.6,33.2,5.9"/>
	<path class="st13" d="M33.2,5.9c0,0-0.1,0-0.2,0c-0.2,0-0.4,0.1-0.7,0.3c-0.1,0.1-0.2,0.2-0.3,0.3c-0.1-0.4-0.3-0.6-0.6-0.7
		c-0.2-0.1-0.5-0.2-0.9-0.1c-0.8,0.1-1.4,0.5-1.8,1.3c-0.4,0.6-0.5,1.3-0.4,2c0.1,0.8,0.4,1.4,0.9,1.8c0.5,0.4,1.1,0.6,1.8,0.5
		c0.2,0,0.6-0.2,1.1-0.6c0.4-0.3,0.9-0.7,1.3-1.1c-0.1,0.2-0.2,0.5-0.2,0.8c0,0.3,0,0.5,0,0.8c-0.3,0.1-0.7,0.2-1.1,0.3
		c-0.4,0.1-0.8,0.2-1.3,0.2c-1.1,0.1-1.9,0-2.6-0.3c-0.7-0.4-1.1-1.1-1.2-2.1c-0.1-0.9,0.1-1.7,0.7-2.4c0.5-0.6,1.2-0.9,2-1.1
		c0.2-0.1,0.4-0.1,0.5-0.1c0.4-0.1,0.7-0.2,0.8-0.2c0.5-0.1,0.9-0.1,1.2,0C32.8,5.4,33.1,5.6,33.2,5.9z"/>
	<path d="M40,10.5l-1.2,0.2c0-0.2,0-0.8,0-1.6c0-0.3,0-0.6-0.1-1.1l-3.1,0.3c0,0.5,0.1,0.9,0.1,1.4c0.1,0.5,0.1,0.9,0.2,1.2
		l-1.2,0.2c0-0.4,0-0.7,0-1c0-0.8,0-1.5-0.1-2c-0.1-0.9-0.1-1.5-0.2-1.9c-0.1-0.4-0.1-0.7-0.2-1.1L35.4,5c0,0.5,0,0.8,0,1.1
		c0,0.9,0,1.4,0,1.5l3.1-0.3c0-0.5-0.1-1.2-0.3-2c0-0.1-0.1-0.3-0.1-0.6l1.2-0.1c0,0.4,0,0.7,0,1c0,0.8,0,1.5,0.1,2
		c0.1,1,0.2,1.8,0.3,2.3C39.9,10.2,39.9,10.3,40,10.5"/>
	<path class="st13" d="M40,10.5l-1.2,0.2c0-0.2,0-0.8,0-1.6c0-0.3,0-0.6-0.1-1.1l-3.1,0.3c0,0.5,0.1,0.9,0.1,1.4
		c0.1,0.5,0.1,0.9,0.2,1.2l-1.2,0.2c0-0.4,0-0.7,0-1c0-0.8,0-1.5-0.1-2c-0.1-0.9-0.1-1.5-0.2-1.9c-0.1-0.4-0.1-0.7-0.2-1.1L35.4,5
		c0,0.5,0,0.8,0,1.1c0,0.9,0,1.4,0,1.5l3.1-0.3c0-0.5-0.1-1.2-0.3-2c0-0.1-0.1-0.3-0.1-0.6l1.2-0.1c0,0.4,0,0.7,0,1
		c0,0.8,0,1.5,0.1,2c0.1,1,0.2,1.8,0.3,2.3C39.9,10.2,39.9,10.3,40,10.5z"/>
	<path d="M50.9,10.1C50.5,10,50,9.9,49.5,9.9c-0.5,0.1-0.8,0.2-1.1,0.2c-0.8,0.1-1.2,0.2-1.3,0.2c-0.8,0-1.5-0.2-2-0.8
		c-0.5-0.5-0.8-1.2-0.8-2c0-0.8,0.3-1.5,0.8-2.1c0.5-0.6,1.2-0.9,1.9-1c0.3-0.1,0.6-0.1,1-0.2c0.4-0.1,0.7-0.1,1-0.1
		c0.4,0,0.7,0,1,0.2c0.4,0.2,0.6,0.4,0.6,0.8l-0.2,0c-0.2,0-0.5,0.1-0.7,0.2c-0.1,0-0.2,0.1-0.3,0.2c0-0.3-0.1-0.5-0.4-0.7
		c-0.3-0.2-0.6-0.3-0.9-0.3c-0.7,0-1.4,0.3-1.9,0.9c-0.5,0.6-0.8,1.3-0.8,2c0,0.7,0.2,1.3,0.7,1.8c0.4,0.5,0.9,0.8,1.5,0.8
		c0.5,0,0.9-0.2,1.2-0.5c0.4-0.4,0.6-0.8,0.6-1.4c0-0.3-0.1-0.6-0.2-0.9l0.2,0c0.1,0,0.1,0,0.1,0c0.2,0,0.3,0,0.4,0
		c0.1,0,0.3-0.1,0.5-0.1c0,0.2-0.1,0.4-0.1,0.5c0,0.4-0.1,0.7-0.1,0.8c0,0.5,0.1,1,0.3,1.4C50.7,9.9,50.8,10,50.9,10.1"/>
	<path class="st13" d="M50.9,10.1C50.5,10,50,9.9,49.5,9.9c-0.5,0.1-0.8,0.2-1.1,0.2c-0.8,0.1-1.2,0.2-1.3,0.2c-0.8,0-1.5-0.2-2-0.8
		c-0.5-0.5-0.8-1.2-0.8-2c0-0.8,0.3-1.5,0.8-2.1c0.5-0.6,1.2-0.9,1.9-1c0.3-0.1,0.6-0.1,1-0.2c0.4-0.1,0.7-0.1,1-0.1
		c0.4,0,0.7,0,1,0.2c0.4,0.2,0.6,0.4,0.6,0.8l-0.2,0c-0.2,0-0.5,0.1-0.7,0.2c-0.1,0-0.2,0.1-0.3,0.2c0-0.3-0.1-0.5-0.4-0.7
		c-0.3-0.2-0.6-0.3-0.9-0.3c-0.7,0-1.4,0.3-1.9,0.9c-0.5,0.6-0.8,1.3-0.8,2c0,0.7,0.2,1.3,0.7,1.8c0.4,0.5,0.9,0.8,1.5,0.8
		c0.5,0,0.9-0.2,1.2-0.5c0.4-0.4,0.6-0.8,0.6-1.4c0-0.3-0.1-0.6-0.2-0.9l0.2,0c0.1,0,0.1,0,0.1,0c0.2,0,0.3,0,0.4,0
		c0.1,0,0.3-0.1,0.5-0.1c0,0.2-0.1,0.4-0.1,0.5c0,0.4-0.1,0.7-0.1,0.8c0,0.5,0.1,1,0.3,1.4C50.7,9.9,50.8,10,50.9,10.1z"/>
	<path d="M57.1,10.3l-1.5,0.1c0-0.2-0.1-0.6-0.2-1.2c0-0.2-0.1-0.5-0.2-0.8l-1.9,0l-0.6,1.9l-1.1,0.1c0.2-0.1,0.3-0.3,0.4-0.4
		c0.1-0.2,0.2-0.4,0.3-0.6L53.7,5c0.1-0.2,0.1-0.4,0.1-0.6c0-0.1,0-0.2,0-0.2c0.1,0,0.2,0.1,0.3,0.1c0.2,0,0.3,0.1,0.4,0.1
		c0.2,0,0.4,0,0.6-0.1l1.2,4c0.2,0.6,0.3,0.9,0.3,1.1C56.7,9.7,56.9,10,57.1,10.3 M55,7.9l-0.7-2.7l-0.9,2.7L55,7.9z"/>
	<path class="st13" d="M57.1,10.3l-1.5,0.1c0-0.2-0.1-0.6-0.2-1.2c0-0.2-0.1-0.5-0.2-0.8l-1.9,0l-0.6,1.9l-1.1,0.1
		c0.2-0.1,0.3-0.3,0.4-0.4c0.1-0.2,0.2-0.4,0.3-0.6L53.7,5c0.1-0.2,0.1-0.4,0.1-0.6c0-0.1,0-0.2,0-0.2c0.1,0,0.2,0.1,0.3,0.1
		c0.2,0,0.3,0.1,0.4,0.1c0.2,0,0.4,0,0.6-0.1l1.2,4c0.2,0.6,0.3,0.9,0.3,1.1C56.7,9.7,56.9,10,57.1,10.3z M55,7.9l-0.7-2.7l-0.9,2.7
		L55,7.9z"/>
	<path d="M63.2,10.7l-1.4-0.1c-0.1-0.1-0.3-0.2-0.4-0.4c-0.1-0.1-0.2-0.3-0.3-0.5L60.8,9c-0.2-0.5-0.4-0.8-0.7-1
		c-0.3-0.2-0.6-0.3-1-0.3L59,9.3c0,0.3,0,0.7,0,1.1l-1.1,0.1c0-0.1,0-0.3,0.1-0.5c0-0.2,0.1-0.6,0.2-1.2c0.1-0.6,0.1-1.1,0.2-1.7
		c0-0.7,0.1-1.2,0.1-1.7c0-0.5,0-0.8,0-1.1c0.2,0,0.4,0.1,0.7,0.1c0.2,0,0.4,0.1,0.6,0.1c0.2,0,0.4,0,0.7,0c0.3,0,0.6,0,0.9,0
		c0.4,0,0.7,0.2,1,0.4c0.3,0.3,0.4,0.6,0.4,1.1c0,0.5-0.2,0.9-0.6,1.2c-0.3,0.2-0.7,0.4-1.2,0.5c0.3,0.1,0.5,0.2,0.7,0.5
		c0.1,0.2,0.3,0.4,0.5,0.8c0.1,0.2,0.2,0.4,0.3,0.5c0.2,0.4,0.3,0.6,0.4,0.7c0.2,0.3,0.4,0.4,0.7,0.4L63.2,10.7z M61.4,6.2
		c0-0.3-0.1-0.6-0.2-0.9C61,5,60.7,4.9,60.4,4.8c-0.4,0-0.7,0.2-1,0.6c-0.2,0.4-0.3,0.8-0.3,1.3l0,0.6l0.5,0.1
		c0.5,0,0.9-0.1,1.2-0.3C61.1,7,61.3,6.6,61.4,6.2"/>
	<path class="st13" d="M63.2,10.7l-1.4-0.1c-0.1-0.1-0.3-0.2-0.4-0.4c-0.1-0.1-0.2-0.3-0.3-0.5L60.8,9c-0.2-0.5-0.4-0.8-0.7-1
		c-0.3-0.2-0.6-0.3-1-0.3L59,9.3c0,0.3,0,0.7,0,1.1l-1.1,0.1c0-0.1,0-0.3,0.1-0.5c0-0.2,0.1-0.6,0.2-1.2c0.1-0.6,0.1-1.1,0.2-1.7
		c0-0.7,0.1-1.2,0.1-1.7c0-0.5,0-0.8,0-1.1c0.2,0,0.4,0.1,0.7,0.1c0.2,0,0.4,0.1,0.6,0.1c0.2,0,0.4,0,0.7,0c0.3,0,0.6,0,0.9,0
		c0.4,0,0.7,0.2,1,0.4c0.3,0.3,0.4,0.6,0.4,1.1c0,0.5-0.2,0.9-0.6,1.2c-0.3,0.2-0.7,0.4-1.2,0.5c0.3,0.1,0.5,0.2,0.7,0.5
		c0.1,0.2,0.3,0.4,0.5,0.8c0.1,0.2,0.2,0.4,0.3,0.5c0.2,0.4,0.3,0.6,0.4,0.7c0.2,0.3,0.4,0.4,0.7,0.4L63.2,10.7z M61.4,6.2
		c0-0.3-0.1-0.6-0.2-0.9C61,5,60.7,4.9,60.4,4.8c-0.4,0-0.7,0.2-1,0.6c-0.2,0.4-0.3,0.8-0.3,1.3l0,0.6l0.5,0.1
		c0.5,0,0.9-0.1,1.2-0.3C61.1,7,61.3,6.6,61.4,6.2z"/>
	<path d="M70.7,11.5l-1,0l0.5-4.9l-2.3,3.9c0,0.1-0.1,0.1-0.1,0.2c0,0.1,0,0.1-0.1,0.2l0,0.3l-1,0L65,5.9l-0.6,4.9l-1,0
		c0.1-0.1,0.1-0.3,0.2-0.5c0-0.2,0.1-0.4,0.1-0.6l0.5-4.3c0-0.1,0-0.3,0-0.4c0-0.1,0-0.2-0.1-0.3L65.6,5l1.7,5.2l2.8-4.7l1.2,0.1
		c-0.1,0.2-0.1,0.3-0.2,0.5c0,0.2-0.1,0.4-0.1,0.6l-0.4,4c0,0.2,0,0.4,0,0.5C70.6,11.4,70.6,11.4,70.7,11.5"/>
	<path class="st13" d="M70.7,11.5l-1,0l0.5-4.9l-2.3,3.9c0,0.1-0.1,0.1-0.1,0.2c0,0.1,0,0.1-0.1,0.2l0,0.3l-1,0L65,5.9l-0.6,4.9
		l-1,0c0.1-0.1,0.1-0.3,0.2-0.5c0-0.2,0.1-0.4,0.1-0.6l0.5-4.3c0-0.1,0-0.3,0-0.4c0-0.1,0-0.2-0.1-0.3L65.6,5l1.7,5.2l2.8-4.7
		l1.2,0.1c-0.1,0.2-0.1,0.3-0.2,0.5c0,0.2-0.1,0.4-0.1,0.6l-0.4,4c0,0.2,0,0.4,0,0.5C70.6,11.4,70.6,11.4,70.7,11.5z"/>
	<path d="M76.8,12.5l-1.5-0.1c0-0.2,0-0.6,0-1.2c0-0.2-0.1-0.5-0.1-0.9L73.2,10l-0.9,1.8l-1.1-0.1c0.2-0.1,0.3-0.2,0.5-0.4
		c0.1-0.1,0.2-0.3,0.4-0.5l2.1-4c0.1-0.2,0.1-0.4,0.2-0.6c0-0.1,0-0.2,0-0.2c0.1,0.1,0.2,0.1,0.3,0.1C74.8,6.2,75,6.2,75,6.2
		c0.2,0,0.4,0,0.6,0l0.6,4.2c0.1,0.6,0.2,1,0.2,1.1C76.5,11.9,76.6,12.2,76.8,12.5 M75.1,9.8l-0.3-2.8l-1.3,2.5L75.1,9.8z"/>
	<path class="st13" d="M76.8,12.5l-1.5-0.1c0-0.2,0-0.6,0-1.2c0-0.2-0.1-0.5-0.1-0.9L73.2,10l-0.9,1.8l-1.1-0.1
		c0.2-0.1,0.3-0.2,0.5-0.4c0.1-0.1,0.2-0.3,0.4-0.5l2.1-4c0.1-0.2,0.1-0.4,0.2-0.6c0-0.1,0-0.2,0-0.2c0.1,0.1,0.2,0.1,0.3,0.1
		C74.8,6.2,75,6.2,75,6.2c0.2,0,0.4,0,0.6,0l0.6,4.2c0.1,0.6,0.2,1,0.2,1.1C76.5,11.9,76.6,12.2,76.8,12.5z M75.1,9.8l-0.3-2.8
		l-1.3,2.5L75.1,9.8z"/>
	<path d="M83.3,13.9l-1.4-0.2l-2.4-5.4l-0.9,3.9c0,0.2-0.1,0.4-0.1,0.6l-1.1-0.1c0.2-0.4,0.3-0.9,0.5-1.5c0.1-0.5,0.3-1.3,0.5-2.2
		c0.2-0.8,0.3-1.3,0.3-1.5c0-0.2,0-0.5-0.2-0.8L80,7.2l2.4,5.5l0.8-3.8c0-0.1,0-0.2,0.1-0.4c0-0.2,0.1-0.4,0.1-0.5l1,0.2
		c-0.1,0.2-0.1,0.3-0.2,0.5c-0.2,0.5-0.3,1-0.4,1.5L83.4,12l-0.1,0.5c-0.1,0.3-0.1,0.6-0.1,0.8C83.2,13.5,83.2,13.7,83.3,13.9"/>
	<path class="st13" d="M83.3,13.9l-1.4-0.2l-2.4-5.4l-0.9,3.9c0,0.2-0.1,0.4-0.1,0.6l-1.1-0.1c0.2-0.4,0.3-0.9,0.5-1.5
		c0.1-0.5,0.3-1.3,0.5-2.2c0.2-0.8,0.3-1.3,0.3-1.5c0-0.2,0-0.5-0.2-0.8L80,7.2l2.4,5.5l0.8-3.8c0-0.1,0-0.2,0.1-0.4
		c0-0.2,0.1-0.4,0.1-0.5l1,0.2c-0.1,0.2-0.1,0.3-0.2,0.5c-0.2,0.5-0.3,1-0.4,1.5L83.4,12l-0.1,0.5c-0.1,0.3-0.1,0.6-0.1,0.8
		C83.2,13.5,83.2,13.7,83.3,13.9z"/>
	<path class="st0" d="M40.8,71l1.5,0.4l3.5,0.3c0,0,5.2,0,7.3-1c0,0,4.9-0.7,5.8,2.4c0,0,0.9,3.2,1.2,4.2l-0.9,7.2
		c0,0,0,2.2-0.4,3.4c0,0,2.3-2.3,2.5-3c0,0-0.3,3.1-1.5,5c0,0,5-3.7,6.9-6.8c0.5-1.4,2.8-5.4,0.6-8.5c-0.3-2.4-2.8-7.5-7.9-9.8
		c-2.5-1.2-5.1-1.4-6.9-0.5c-1.1-0.5-4.3-0.5-6.1,1.9C45.2,66.4,41.8,68.2,40.8,71z"/>
	<path class="st5" d="M13.4,23.2c1.8,25.3,17.1,70.2,37,70.2c5.5,0,10.7-3.5,15.3-9c1.1-1.4,1.2-2.4,1.8-3.7c1-0.9,1-5.2-0.1-6.5
		c-0.9-5.7-6.5-9-7.9-9.3c-2.1-1.2-5.2-1.6-6.7-1.1c-3.3-0.2-5.6,1.1-6.8,2.2c-2,0.6-3.5,2.1-5.4,4.8c-23.1-17.3-26.1-46.9-26.4-54
		c-1.5-0.7-3-1.2-3.8-1.8c-0.4,1.9-0.1,3.2,0.9,4.7C12.1,20.8,13.1,21.2,13.4,23.2"/>
	<path d="M58.7,83.4c2.4-9.4-3-12.3-10.4-11c-3.3,0.7-5.7,0.3-6.7-1c-0.2-0.2,0.4-0.6,1.4-0.3c3.7,0.3,6.4,0.1,9.7-0.8
		c2.2-0.7,6.4-0.5,7.1,4.4c0.5,1.9,1.9,4-0.7,9.8C58.6,85.2,58.9,84,58.7,83.4"/>
	<path d="M13.4,23.2c1.8,25.3,17.1,70.2,37,70.2c3,0,5.9-1,8.7-2.9c1.5-1.3,4-5,2.3-6.4c-5.8,9.1-14.7,7.7-23.1-0.7
		c-1.4-6-0.6-9.9-0.1-12.3l1.4,0.9l0.1-1c-7-3.8-11.5-12.1-14.1-15.5c-0.9-0.1,4.5,7.8,6.6,10.5c-0.9,3.1-0.9,7.5-0.8,8.4
		C22.2,60.2,19,50.2,18,46.8c-2.4-8.1-3.9-18.6-4.2-22.6c-0.1-4-0.4-3-1.8-5.4c-0.7-1-0.7-2-0.6-3.3c-0.4-0.2-0.7-0.3-0.9-0.5
		c-0.4,1.9-0.1,3.2,0.9,4.7C12.1,20.8,13.1,21.2,13.4,23.2"/>
	<path d="M61.5,87.3c-1.1,0.4-3.4,2.6,0.1-0.1c3.5-2.7,5.8-6,5.1-9.6c-0.8-2-1.6-0.9-3.7,0.3c2.8-2,2.3-3.9,2-4.8
		c-2-3.3-4.5-1-6.2-0.1c0,0,1.2-1.2,2.8-2.2c1.2-0.6-0.7-2.6-2.2-4.7c-1.8-2.5-5.9-2.1-6-1.6c0.2,1.4,1.4,3.3,2.9,5.1
		c-2.1-1.5-2.5-2.8-3.3-4.1c-2.1-2.6-5.2-0.5-6,0.3c-0.7,0.9,1.6,3.2,3.1,4.9c-1.6-1-3.3-2.7-4.2-3.9c-1-0.5-3.9,2-5.3,3.7
		c1.8-2.8,3.4-4.2,5.4-4.8c1.2-1.1,3.4-2.4,6.8-2.2c1.5-0.5,4.6-0.1,6.7,1.1c1.4,0.3,7,3.6,7.9,9.3c1.1,1.3,1.1,5.6,0.1,6.5
		c-0.6,1.3-0.6,2.3-1.8,3.7C64,85.8,62.6,86.9,61.5,87.3 M59.7,65.4c1,1.4,2.5,3.3,3,5.1c0.8,0.3,3.5,1.8,3.5,4.8
		c1,0.9,1.4,2.7,1.4,2.7c0.2-1.4,0-2.7-0.5-3.2C65.8,69.1,61.9,66.6,59.7,65.4"/>
	<path class="st14" d="M87.7,76.2c-1.6-1.9-1.9-4.4-2-5.9l-0.1-0.8c0-0.1-0.1-0.2-0.2-0.2c0-0.2,0-0.5-0.1-0.6
		c-1.6-2.7-7.3-0.2-8.7,0.7c-4.7,3.3-4,6-3.9,6.4c0.1,0.1,0.1,0.2,0.2,0.2c0,0,0,0,0.1,0.1c0.5,0.4,1.7,1.6,2.1,2
		c-4.1,5.6-13.4,12.8-24.4,12.7c-10.9-0.1-20.3-7.2-24.3-12.8c0.4-0.4,1.7-1.6,2.1-2c0,0,0,0,0.1-0.1c0.1-0.1,0.1-0.1,0.2-0.2
		c0.1-0.4,0.9-3-3.9-6.4c-1.4-0.9-7-3.3-8.7-0.7c-0.1,0.1-0.1,0.3-0.1,0.6c-0.1,0-0.2,0.1-0.2,0.2l-0.1,0.8c-0.1,1.5-0.4,4-2,5.9
		c-0.1,0.1-0.1,0.2,0,0.3c0.1,0.3,1.1,2.7,4,1.7c0.1,0,0.2-0.1,0.2-0.2l0.1-0.4c0.2-0.9,0.5-2.4,1-3c1.1,0.1,2.4,0.2,3.3,1.2
		c-0.5,1-1.8,2.5-2.9,3.3c0,0,0,0,0,0l-0.1,0.1c-0.6,0.7-0.7,1.2,1,3.4C23.2,86.2,33.5,98,50.8,98C68,98,78.4,86.2,81.2,82.6
		c1.7-2.2,1.6-2.7,1-3.4l-0.1-0.1c0,0,0,0,0,0c-1.1-0.8-2.3-2.2-2.9-3.3c0.9-1,2.2-1.1,3.3-1.2c0.5,0.5,0.8,2.1,1,3l0.1,0.4
		c0,0.1,0.1,0.2,0.2,0.2c2.9,1,3.9-1.5,4-1.7C87.8,76.3,87.8,76.2,87.7,76.2z"/>
	<path class="st0" d="M18.5,74.4c-0.5,0.7-0.8,2.1-1,3c0,0,0,0.1,0,0.2c-2,0.6-2.8-0.8-3.1-1.3c1.6-2.1,1.9-4.6,2-6.1l0-0.2
		c0.5,0.8,1.5,1.5,3.8,1.7C19.5,72.6,18.7,73.9,18.5,74.4z"/>
	<path class="st0" d="M74,76c0.8-0.2,1.7-1.1,2.1-1.4c0.4-0.5,0.8-0.5,1.2-0.2c-0.1,0-0.3,0.1-0.3,0.2c-0.3,0.8-0.8,1.8-1.5,2.8
		C75.2,77.1,74.6,76.5,74,76z"/>
	<path class="st0" d="M25.5,74.6c0.3,0.3,1.2,1.2,2.1,1.4c-0.5,0.5-1.1,1.1-1.4,1.4c-0.7-1-1.2-2-1.5-2.8c0-0.1-0.2-0.2-0.3-0.2
		C24.7,74.1,25.1,74.1,25.5,74.6z"/>
	<g>
		<path class="st15" d="M24.5,84c0-0.1-0.3-0.3-0.3-0.3c0,0-0.1-0.1-0.2-0.2c-0.2-0.2-0.5-0.6-0.6-0.7c-0.2-0.2-0.4-0.5-0.6-0.7l0,0
			c0.2-0.1,0.3-0.1,0.5-0.3c0.4-0.3,1.8-1.5,1.9-1.6c0.3-0.2,0.7-0.6,0.9-0.9l0,0c0,0.1,0.1,0.1,0.3,0.3c0,0,0.2,0.2,0.4,0.4l0,0
			c-0.6,0.3-1.3,0.9-2.3,1.7c-0.5,0.4-0.6,0.6-0.7,0.7c-0.1,0.1,0,0.2,0.1,0.3c0.6,0.7,1.2,1.1,1.3,1.1l0,0L24.5,84z"/>
		<path class="st15" d="M28.1,86.3l-0.9,0.3c-0.2-0.2-0.2-0.2-0.5-0.5l-0.1-0.1c0,0-0.2-0.2-0.3-0.3l-0.1-0.1
			c-0.5-0.5-0.5-0.5-0.6-0.7c-0.2-0.5,0.2-1,0.4-1.2c0.3-0.3,1.1-0.9,2-0.3c0.1,0.1,0.7,0.6,0.8,0.6c0.6,0.6,0.5,1.2,0.3,1.5
			c-0.1,0.1-0.3,0.2-0.4,0.3l-1.8-1.7c-0.1,0-0.1,0.1-0.2,0.2c-0.1,0.1-0.4,0.5-0.3,0.9c0.1,0.3,0.3,0.5,0.4,0.6
			C26.9,86.1,27.7,86.2,28.1,86.3L28.1,86.3z M28.1,85.1c0.1,0,0.1-0.1,0.2-0.1c0.3-0.4,0.2-0.8-0.1-1.1c-0.3-0.3-0.9-0.4-1.4,0
			L28.1,85.1z"/>
		<path class="st15" d="M32.4,90.5L32.4,90.5l-0.6-0.4l-0.4-0.3c0,0-0.2-0.1-0.3-0.2c-0.1-0.1-0.2-0.1-0.3-0.2
			c-0.7-0.5-0.8-1.2-0.4-1.8c0.4-0.6,1.2-0.9,2.2-0.4c0.3,0.2,0.4,0.2,0.5,0.3c0.2,0.1,0.4,0.2,0.7,0.4c0.3,0.2,0.5,0.4,0.6,0.5
			l-0.8,0.1c-0.1-0.3-0.3-0.6-0.6-0.8c-0.5-0.4-1.4-0.3-1.9,0.4c-0.3,0.5-0.3,1.2,0.4,1.6c0.4,0.3,0.9,0.3,1.7,0.3l0,0L32.4,90.5z"
			/>
		<path class="st15" d="M35.2,89.2c0.7,0.1,0.8,0.1,1.2,0.3c0.1,0,0.3,0.1,0.5,0.2c0.2,0.1,0.9,0.4,0.5,1.1
			c-0.2,0.3-0.7,0.8-1.8,0.5c0.1,0.1,0.1,0.1,0.4,0.7c0.1,0.2,0.3,0.5,0.4,0.7c0.1,0.1,0.1,0.1,0.2,0.2l0,0
			c-0.1-0.1-0.6-0.3-0.7-0.3l-0.5-0.2c-0.1,0-0.1-0.1-0.3-0.4c-0.4-0.8-0.5-0.8-0.9-1.1c-0.2,0.4-0.3,0.5-0.3,0.6l0,0
			c-0.1,0-0.2-0.2-0.4-0.2c-0.1-0.1-0.3-0.1-0.3-0.1l0,0c0.3-0.3,0.8-1.2,0.9-1.5c0.2-0.4,0.3-0.7,0.1-1l0,0l0.9,0.4L35.2,89.2z
			 M35.4,91c0.7,0.1,1.1-0.2,1.3-0.5c0.2-0.5-0.2-0.8-0.4-0.9c-0.2-0.1-0.6-0.1-0.9,0.1c-0.6,0.3-0.8,0.7-1,1
			C34.8,90.8,35,90.9,35.4,91z"/>
		<path class="st15" d="M38.2,93.4c-0.7-0.3-0.9-1-0.7-1.6c0.4-1.1,1.4-1,1.8-1c0.4,0,0.9,0.1,1.2,0.2c0.9,0.3,0.9,1.1,0.7,1.7
			c-0.1,0.4-0.5,0.7-0.9,0.8c-0.3,0.1-0.7,0.1-1.1,0C38.6,93.5,38.4,93.5,38.2,93.4z M38.9,93.4c0.2,0.1,0.5,0.1,0.8-0.1
			c0.2-0.1,0.5-0.2,0.7-0.9c0.1-0.2,0.1-0.5,0-0.7c-0.1-0.4-0.4-0.6-0.6-0.7c-0.4-0.1-1.2,0.1-1.5,0.9C38,92.6,38.4,93.2,38.9,93.4z
			"/>
		<path class="st15" d="M42.2,94.7c-0.1,0-0.2-0.1-0.4-0.1c-0.2-0.1-0.3-0.1-0.4-0.1l0,0c0.1-0.2,0.2-0.3,0.3-0.6
			c0.1-0.1,0.2-0.6,0.3-0.9c0.2-0.6,0.1-0.7,0-0.9c0,0-0.1-0.2-0.2-0.2l0,0c0.1,0,1,0.2,1.2,0.2c-0.2,0.5-0.4,1.2-0.5,1.7
			C42.2,94.2,42.2,94.5,42.2,94.7L42.2,94.7z M42.2,91.1C42.2,91.1,42.3,91.1,42.2,91.1c0.7-0.3,0.8-0.3,1.2-0.5l0.5,0.4l0,0
			l-1.4,0.4L42.2,91.1z"/>
		<path class="st15" d="M49.4,92.9C49.2,93.3,49,94,49,94.7c-0.1,0.7,0,0.9,0,1l0,0c-0.3,0-0.5-0.1-0.8-0.1l0-0.3
			c-0.3,0.1-1.3,0.2-1.6,0.2c-0.3,0-0.6-0.1-0.8-0.4c-0.2-0.3-0.3-0.6-0.2-1c0.1-0.8,0.7-1.3,1.3-1.4c0.3,0,0.5,0,0.7,0
			c0,0,0.1,0,0.2,0c0.2,0,0.3,0,0.4,0c0.4,0,0.6,0.2,0.7,0.2C48.9,93,49.2,92.9,49.4,92.9L49.4,92.9z M47.6,92.9
			c-0.4,0-1.3,0.3-1.4,1.3c-0.1,0.8,0.5,1.1,0.7,1.1c0.2,0,0.5,0,0.8-0.3c0.4-0.4,0.6-0.8,0.7-1.4C48.2,93.1,47.8,93,47.6,92.9z"/>
		<path class="st15" d="M53.1,92.9c-0.1,0.2-0.1,0.4-0.1,1.2c0,0.3,0,1.4,0,1.7c0,0.4-0.2,1.1-1.2,1.3c-0.1,0-0.4,0.1-0.5,0.1
			c-0.2,0.1-0.5,0.1-0.8,0.1c-0.2,0-0.8,0-0.9-0.6c0-0.5,0.5-0.8,1.1-1.1c-1,0-1.1-1-1.1-1.1c0-0.3,0.1-1,1-1.3
			c0.2-0.1,0.3-0.1,0.4-0.1c0.4-0.2,0.6-0.2,0.8-0.2c0.4,0,0.6,0.1,0.7,0.2C52.5,93,53,92.9,53.1,92.9L53.1,92.9z M52,95.4
			c-0.1,0-1.6,0.2-1.6,1c0,0.5,0.4,0.6,0.7,0.6c0.3,0,0.6-0.1,0.9-0.4c0.3-0.4,0.3-0.8,0.3-1.4c0-0.3,0-1.3,0-1.6
			c-0.1-0.1-0.4-0.4-0.9-0.4c-0.4,0-0.9,0.4-0.8,1.2c0,0.5,0.2,1,0.9,1c0.2,0,0.6-0.1,0.7-0.1L52,95.4z"/>
		<path class="st15" d="M57.4,92.4c-0.1,0.5,0,1.8,0,2.1c0,0.3,0.1,0.4,0.3,0.5l0,0c0,0-0.8,0.2-0.9,0.2L56.7,95
			c-0.5,0.2-0.7,0.4-1.2,0.4c-0.2,0.1-0.4,0.2-0.6,0.2c-0.7,0.1-1.1-0.5-1.1-1c-0.1-0.7,0.4-1.3,0.8-1.6c-0.2,0-0.3,0.1-0.5,0.1
			c-0.1,0-0.4,0.1-0.5,0.1l0.2-0.4c0.2,0,0.4,0,0.6-0.1c0.2,0,0.4-0.1,0.6-0.1c0.2,0,0.6-0.1,0.8-0.1l0,0c-0.8,0.5-1.2,1.1-1.2,1.7
			c0.1,0.5,0.4,0.9,1,0.8c0.5-0.1,0.8-0.6,0.9-0.8c0.2-0.5,0.1-1,0.1-1.3c0-0.3-0.1-0.4-0.1-0.6l0,0c0.1,0,0.2,0,0.4,0
			C57.2,92.5,57.3,92.4,57.4,92.4L57.4,92.4z"/>
		<path class="st15" d="M60.2,92.2c-0.1-0.4-0.5-0.3-0.7-0.3c-0.3,0.1-0.9,0.4-0.8,0.9c0.1,0.4,0.6,0.3,0.7,0.2
			c0.2-0.1,0.4-0.1,0.7-0.2c0.2-0.1,0.3-0.1,0.4-0.1c0.3-0.1,0.6,0,0.7,0.4c0.1,0.3,0,0.7-0.3,1c-0.2,0.2-0.5,0.4-0.9,0.5
			c0,0-0.1,0-0.1,0c-0.1,0-0.2,0.1-0.5,0.2c-0.3,0.1-1,0.3-1.2-0.6l0,0L59,94c0,0.1,0.1,0.3,0.2,0.4c0.2,0.1,0.4,0.2,0.6,0.1
			c0.4-0.1,0.9-0.6,0.8-1c-0.1-0.3-0.3-0.4-0.7-0.3c-0.2,0-0.8,0.3-1,0.3c-0.1,0-0.7,0.2-0.9-0.4c-0.2-0.8,0.9-1.2,1.3-1.3
			c0.2-0.1,0.5-0.2,0.6-0.3c0.8-0.2,0.9,0.2,1,0.4l0,0L60.2,92.2z"/>
		<path class="st15" d="M65.9,92.5c-0.2,0.1-0.5,0.2-0.5,0.2c-0.1,0-0.4,0-0.4,0.1c-0.2,0.1-0.3,0.4-0.4,0.4l-0.1,0
			c-0.1-0.6-0.6-1.6-0.8-2.2c-0.2-0.3-0.5-1.1-0.7-1.4c-0.1-0.1-0.2-0.2-0.2-0.2l0,0l0.9-0.5l0,0c0,0.2,0.1,0.4,0.4,1.2
			c0.1,0.4,0.3,0.8,0.6,1.4c0.1,0.2,0.3,0.8,0.5,0.9c0.1,0.1,0.2,0.1,0.3,0c0.1,0,0.3-0.2,0.5-0.3l0,0L65.9,92.5z"/>
		<path class="st15" d="M68.3,87.9c0.1,0.4,0.3,1.1,0.7,1.7c0.3,0.6,0.5,0.7,0.6,0.8l0,0c-0.3,0.2-0.4,0.2-0.7,0.4l-0.2-0.3
			c-0.2,0.3-0.9,0.9-1.2,1.1c-0.2,0.1-0.5,0.3-0.9,0.2c-0.3-0.1-0.6-0.4-0.8-0.7c-0.4-0.7-0.2-1.5,0.3-1.9c0.2-0.2,0.4-0.3,0.6-0.4
			c0,0,0.1-0.1,0.1-0.1c0.2-0.1,0.2-0.2,0.3-0.2c0.3-0.2,0.5-0.2,0.7-0.2C67.9,88.2,68.2,88,68.3,87.9L68.3,87.9z M65.9,88.6
			C65.9,88.5,66,88.5,65.9,88.6c0.3-0.7,0.4-0.8,0.5-1.2l0.6-0.1l0,0l-0.8,1.3L65.9,88.6z M66.9,89c-0.3,0.2-0.9,1-0.4,1.9
			c0.4,0.7,1,0.6,1.2,0.5c0.1-0.1,0.4-0.3,0.5-0.8c0.1-0.6,0-1-0.2-1.5C67.4,88.8,67,88.9,66.9,89z"/>
		<path class="st15" d="M69.5,87.6c0.2-0.3,0.4-0.6,0.7-0.9c0.2-0.3,0.3-0.5,0.5-0.5c0.2-0.2,0.5-0.2,0.7-0.1
			c0.2-0.4,0.3-0.4,0.6-0.8c0.2-0.2,0.4-0.5,0.6-0.7c0.1-0.1,0.4-0.3,0.7-0.2c0.3,0.1,0.5,0.2,0.7,0.4c0.5,0.7,0.2,1.6,0.1,1.9
			c0.4-0.3,0.4-0.4,0.9-0.8l0.1,0.4c-0.1,0.1-0.8,0.6-0.9,0.7c-0.1,0.1-0.4,0.3-0.5,0.4c0,0-0.3,0.2-0.3,0.2l0,0
			c0.5-0.9,0.3-1.8,0-2.2c-0.3-0.4-0.8-0.5-1.2-0.2c-0.3,0.2-0.4,0.7-0.4,1.1c0,0.2,0,0.7,0.7,1.5c0.1,0.2,0.2,0.2,0.3,0.3l0,0
			c-0.1,0-0.2,0.1-0.4,0.3c-0.2,0.1-0.2,0.2-0.3,0.2l0,0c-0.2-0.5-0.7-1.3-0.8-1.4c-0.1-0.2-0.6-0.7-1-0.4c-0.3,0.2-0.4,0.7-0.3,1
			c0,0.3,0.2,0.8,0.6,1.3c0.2,0.2,0.3,0.3,0.4,0.4v0c-0.1,0-0.2,0.1-0.3,0.2c-0.2,0.1-0.3,0.2-0.3,0.3l0,0c-0.2-0.5-0.5-1-0.9-1.4
			c-0.2-0.3-0.4-0.6-0.9-0.6l0,0l0.7-0.7L69.5,87.6z"/>
		<path class="st15" d="M78.3,83c-0.2,0.2-0.4,0.4-0.6,0.7c-0.6,0.6-0.7,0.7-0.8,0.9l0,0c0.4-1.2-0.1-2-0.4-2.2
			c-0.5-0.4-0.9-0.2-1.1,0c-0.3,0.3-0.6,1.4,0.7,2.6c0.1,0.1,0.2,0.2,0.3,0.2l0,0c-0.1,0.1-0.2,0.1-0.3,0.2
			c-0.1,0.1-0.2,0.3-0.3,0.4l0,0c-0.1-0.2-0.3-0.4-0.5-0.7c-0.3-0.4-0.9-1-1.3-1.3c-0.9-0.9-1.1-0.8-1.3-0.8l0,0
			c0.1-0.1,0.6-0.7,0.7-0.9l0,0c0.1,0.1,0.2,0.3,0.6,0.7c0.2,0.3,0.5,0.5,0.7,0.8c0.2-0.9,1-1.8,1-1.9c0.1-0.1,0.4-0.4,0.7-0.3
			c0.2,0,0.4,0.2,0.6,0.3c0.7,0.6,0.5,1.7,0.4,2c0.2-0.2,0.6-0.7,0.7-1L78.3,83z"/>
	</g>
	<path class="st16" d="M16.2,69.2c0,0,0.9,2.5,4.5,2.4l-2,3.6"/>
	<path class="st16" d="M85.5,69.2c0,0-0.9,2.5-4.5,2.4l2,3.6"/>
	<path class="st17" d="M26.8,78.6c0,0-1.8-3.1-2.5-4.6l-2.5,3"/>
	<path class="st17" d="M74.4,79.1c0,0,2.3-3.6,3-5.1l2.5,3"/>
	<path class="st18" d="M39.6,73.9c0,0,9.2,3.4,17.6,1.8"/>
	<path class="st18" d="M40.4,77.5c0,0,8.7,3.1,17,1.6"/>
	<path class="st18" d="M41.7,81.2c0,0,7.1,2.6,15.5,1"/>
	<path class="st18" d="M43.3,84.9c0,0,5.5,2.4,13.9,0.8"/>
	<path class="st18" d="M30.2,69.7c-11-17.8-12.6-29.9-12.6-29.9c1.8,7.1,6.6,18.6,13.1,26.7"/>
	<path class="st6" d="M67.3,27.7c1,0,4.5,0.2,5.4,1.5c0.6,0.8,1.1,1.9-0.2,4.5l-1.3,1.5c0,0,0.5-3.5-0.8-5.3c0,0-0.6-1.1-3.5-1.3
		L67.3,27.7z"/>
</g>
</svg>
