<?xml version="1.0" encoding="utf-8"?>
<!-- Generator: Adobe Illustrator 19.0.1, SVG Export Plug-In . SVG Version: 6.00 Build 0)  -->
<svg version="1.1" id="Layer_1" xmlns="http://www.w3.org/2000/svg" xmlns:xlink="http://www.w3.org/1999/xlink" x="0px" y="0px"
	 viewBox="0 0 100 100" style="enable-background:new 0 0 100 100;" xml:space="preserve">
<style type="text/css">
	.st0{fill:#FFFFFF;}
	.st1{fill:#0087CD;}
	.st2{fill:#00AE4D;}
	.st3{fill:#C8C7B9;}
	.st4{fill:#FFCB05;}
	.st5{fill:#006F45;}
	.st6{fill:#FDD9C9;}
	.st7{fill:none;stroke:#000000;stroke-width:0.1293;}
</style>
<g>
	<path d="M51.1,99c0,0-39.4-8.6-42.5-40.6L8.5,1h82.8c0,0,0.2,57.8,0.2,58C90.2,90.4,51.1,99,51.1,99z"/>
</g>
<g>
	<path class="st0" d="M51.1,97c0,0-37.9-8.3-40.9-39.1L10.1,2.8h79.6c0,0,0.2,55.6,0.2,55.8C88.7,88.8,51.1,97,51.1,97z"/>
</g>
<g>
	<path class="st1" d="M11.5,3.9l77.2,0c0,0,0,54.6,0,54.8c-2.2,28.8-37.4,37.4-37.4,37.4s-38.7-9.7-39.8-38.7
		C11.5,57.4,11.5,3.9,11.5,3.9z"/>
	<path d="M51.3,96.4L51.3,96.4c-0.2,0-9.9-2.5-19.6-8.5c-5.7-3.5-10.3-7.6-13.7-12c-4.2-5.6-6.5-11.8-6.7-18.4c0-0.1,0-44.6,0-53.6
		V3.6l77.8,0l0,0.3c0,5.6,0,54.7-0.1,54.9c-0.5,6.6-2.8,12.7-6.8,18.1c-3.2,4.3-7.5,8.2-12.8,11.6C60.3,94.1,51.5,96.3,51.3,96.4
		L51.3,96.4z M11.8,4.1c0,4,0,53.1,0,53.3c0.2,6.5,2.5,12.6,6.6,18.1c3.3,4.4,7.9,8.4,13.6,11.9c9.3,5.7,18.5,8.2,19.4,8.4
		c0.8-0.2,9.2-2.4,17.7-7.9c5.2-3.3,9.5-7.2,12.7-11.4c4-5.3,6.2-11.3,6.7-17.8c0-0.5,0-50.5,0-54.6L11.8,4.1z"/>
</g>
<g>
	<path class="st0" d="M11.6,53.7c0,0-0.2,3.8-0.2,4.8c0.1,4.4,2.2,9,2.2,9l11.2-0.1l-0.1-7l-6.1,0.1v-6.8L11.6,53.7z"/>
	<path d="M13.5,67.7l-0.1-0.2c0,0-2.1-4.7-2.3-9.1c0-1,0.2-4.7,0.2-4.9l0-0.2l7.5,0.1v6.8l6.1-0.1l0.1,7.5L13.5,67.7z M11.8,53.9
		c-0.1,0.9-0.2,3.7-0.2,4.6c0.1,3.9,1.8,7.9,2.2,8.7l10.8-0.1l-0.1-6.5l-6.1,0.1V54L11.8,53.9z"/>
</g>
<g>
	<path class="st2" d="M66,38.4c2.2,0.6,6.6,2.9,6.6,2.9l0.1,3.2L58.6,45l-0.7-8.1h2.6C60.5,36.9,63.7,37.8,66,38.4z"/>
	<path d="M58.3,45.2l-0.7-8.6l3,0c0,0,3.2,0.9,5.5,1.6l0,0c2.2,0.6,6.5,2.8,6.7,2.9l0.1,0.1l0.1,3.6L58.3,45.2z M58.2,37.1l0.6,7.6
		l13.6-0.4l-0.1-2.8c-0.8-0.4-4.5-2.3-6.5-2.8l0,0c-2.1-0.6-5.1-1.4-5.5-1.5H58.2z"/>
</g>
<g>
	<path class="st2" d="M88.6,33.6c0,0-6.3,1.8-8,2.9c-1.7,1.1-7,5.5-13.5,6.7c-6.5,1.2-5.7,1.1-5.7,1.1L17.3,74.4
		c11,15.9,33.9,21.7,33.9,21.7S87.5,87,88.7,59C88.7,58.9,88.6,33.6,88.6,33.6z"/>
	<path d="M51.2,96.4L51.2,96.4c-0.3-0.1-23.2-6-34.1-21.8L17,74.3l44.3-30.2c0,0,0.1-0.1,0.2-0.1l0,0l0,0c0.1,0,0.7-0.1,5.7-1.1
		c5.6-1.1,10.3-4.5,12.6-6.1c0.3-0.2,0.6-0.4,0.8-0.6c1.7-1.1,7.8-2.9,8-2.9l0.3-0.1l0,0.3C88.9,50.4,89,58.9,89,59
		c-0.3,6.4-2.4,12.4-6.4,17.8C79.4,81,75,84.9,69.6,88.3C60.5,94,51.4,96.3,51.2,96.4L51.2,96.4z M17.7,74.4
		c10.6,15.1,32.2,21,33.5,21.4c0.8-0.2,9.5-2.6,18.2-8c5.3-3.3,9.6-7.2,12.8-11.4c3.9-5.3,6-11.1,6.3-17.5c0-0.2-0.1-22-0.1-25.1
		c-1.3,0.4-6.2,1.8-7.6,2.8c-0.2,0.1-0.5,0.3-0.8,0.6c-2.3,1.7-7.1,5.1-12.8,6.2c-2.6,0.5-4,0.8-4.8,0.9c-0.4,0.1-0.6,0.1-0.8,0.1
		c0,0-0.1,0-0.1,0L17.7,74.4z M61.5,44.2l0.1,0.2c0.1-0.1,0.1-0.1,0.1-0.2L61.5,44.2z"/>
</g>
<g>
	<path d="M40.2,12.1C40,12.7,40,16.9,40,17.6c0,0.7,0.1,4.4,0.1,4.8s0.7,2.4,1.5,2.8c0.7,0.4,2.3,0.1,2.3,0.1s15.7,0,16,0.1
		c0.4,0.1,2.1-1.5,2.2-2.8c0.1-1.2,0-2,0.2-2.3c0.2-0.4,0.4-1.3,0.3-2.1c-0.1-0.7-0.5-1.5-0.3-1.9c0.2-0.4,0.2-1.9-0.1-2.7
		c-0.3-0.8-0.8-1.3-3.2-1.3s-1.5,0.1-2.2,0c-0.8-0.1-1.8-0.1-2.1-1.6c-0.4-1.5-1.1-1.4-1.9-1.7c-0.9-0.2-2.9-0.2-3.4,0
		c-0.5,0.1-2,0-2.5,0C46.2,9.1,44,9,43.4,9.3c-0.6,0.2-1.5,0.8-2,1.3C40.9,11,40.4,11.7,40.2,12.1z"/>
</g>
<g>
	<path class="st3" d="M11.7,27.4l3.1-0.3v-2.7l-1,0.2l0.1-4.4c0,0,1.3-0.2,1.9-0.2c0.6,0,2-0.1,2-0.1v1.3l0.9,0l0-1.2
		c0,0,1.2-0.1,2.6-0.1c1.4,0,3.4,0.1,3.4,0.1l0,1.4l0.8,0.1l0-1.5c0,0,0.6,0,1,0c0.4,0,0.7,0.1,0.7,0.1l0,4.5l-0.6-0.1l0,6.3
		c0,0,11.2,0,11.2,0c0.8,0,0.8,1.1,0.1,1.1c0,0-0.1,30.4-0.1,30.4l-13,1.4L22,60.4l-3.4,0.1v-6.8l-7-0.1L11.7,27.4z"/>
	<path d="M24.6,63.8l-2.7-3.1l-3.5,0.1V54l-7-0.1l0.1-26.8l3.1-0.3v-2.2l-1,0.2l0.1-5l0.2,0c0.1,0,1.3-0.2,1.9-0.2
		c0.6,0,1.9-0.1,1.9-0.1l0.3,0v1.3l0.4,0l0-1.2l0.2,0c0,0,1.2-0.1,2.6-0.1c1.4,0,3.4,0.1,3.4,0.1l0.2,0l0,1.4l0.3,0l0-1.5h1.2
		c0.4,0,0.7,0.1,0.8,0.1l0.2,0.1l0,5l-0.6-0.1l0,5.7c1.9,0,10.9,0,10.9,0c0.3,0,0.5,0.1,0.6,0.3c0.1,0.1,0.2,0.3,0.2,0.6
		c0,0.3-0.2,0.6-0.5,0.7c0,2.7-0.1,29.9-0.1,30.2l0,0.2L24.6,63.8z M22.1,60.2l2.7,3.1l12.7-1.4l0.1-28.9c0-1.6,0-1.6,0.3-1.6
		c0.2,0,0.2-0.2,0.2-0.2c0-0.1,0-0.2-0.1-0.2c-0.1-0.1-0.1-0.1-0.3-0.1c0,0-11.2,0-11.2,0l-0.3,0l0-6.8l0.6,0.1l0-4.1
		c-0.1,0-0.3,0-0.4,0h-0.7l0,1.5l-1.3-0.1l0-1.4c-0.6,0-2-0.1-3.1-0.1c-1,0-1.9,0.1-2.4,0.1l0,1.2l-1.5,0.1v-1.2
		c-0.4,0-1.3,0.1-1.7,0.1c-0.4,0-1.2,0.1-1.6,0.1l-0.1,3.9l1-0.2v3.3L12,27.6l-0.1,25.8l7,0.1v6.7L22.1,60.2z"/>
</g>
<g>
	<polygon class="st0" points="15.3,20 15.3,24.3 16,24.2 16,19.9 	"/>
	<path d="M15,24.5l0.1-4.8l1.2-0.1l-0.1,4.8L15,24.5z M15.6,20.2L15.5,24l0.2,0l0.1-3.7L15.6,20.2z"/>
</g>
<g>
	<polygon class="st0" points="16.1,24.2 17,24.1 17.2,53.7 16.2,53.7 	"/>
	<path d="M15.9,54L15.9,24l1.4-0.1l0.2,30.1L15.9,54z M16.4,24.4l0.1,29l0.5,0l-0.2-29L16.4,24.4z"/>
</g>
<g>
	<path class="st0" d="M22.4,30.5c-0.7,0-0.8,1.2,0.1,1.2c0.8,0,14.5-0.1,15.1-0.1c0.6,0,1.2-1,0.1-1.1
		C36.7,30.6,23.1,30.5,22.4,30.5z"/>
	<path d="M22.5,32c-0.6,0-0.9-0.4-0.9-0.9c0-0.4,0.3-0.9,0.8-0.9c0.6,0,14.2,0.1,15.3,0.1c0.6,0,0.8,0.4,0.8,0.7
		c0,0.5-0.5,0.9-1,0.9c-0.3,0-3.3,0-6.6,0C27.3,32,22.9,32,22.5,32z M22.4,30.8c-0.2,0-0.3,0.2-0.3,0.4c0,0.1,0,0.4,0.3,0.4
		c0.4,0,4.8,0,8.6,0c3.3,0,6.3,0,6.6,0c0.2,0,0.4-0.2,0.4-0.4c0-0.1-0.3-0.1-0.3-0.1C36.7,30.8,23,30.8,22.4,30.8z"/>
</g>
<g>
	<rect x="22" y="31.7" transform="matrix(0.9999 1.415874e-02 -1.415874e-02 0.9999 0.6541 -0.3103)" width="0.5" height="28.6"/>
</g>
<g>
	<path class="st0" d="M23.7,61.2c0,0,0.1-24.5,0.1-25.1s1.5-1.8,1.5,0c0,0.1,0.1,24.5,0.1,24.5L23.7,61.2z"/>
	<path d="M23.5,61.6l0-0.4c0-0.2,0.1-24.5,0.1-25.1c0-0.5,0.6-1.2,1.2-1.2c0.2,0,0.4,0.1,0.6,0.3c0.1,0.2,0.2,0.5,0.2,0.9
		c0,0.1,0.1,24.2,0.1,24.5l0,0.2L23.5,61.6z M24.8,35.4c-0.3,0-0.7,0.5-0.7,0.7c0,0.5-0.1,21.6-0.1,24.7l1.1-0.4
		c0-2.4-0.1-24.2-0.1-24.3c0-0.4-0.1-0.5-0.1-0.6C24.9,35.4,24.8,35.4,24.8,35.4z"/>
</g>
<g>
	<path d="M23.7,38.7c0,0,0.1-2,0.1-2.6s1.5-1.8,1.5,0c0,0.1,0.1,2.6,0.1,2.6L23.7,38.7z"/>
	<path d="M25.6,39l-2.2,0l0-0.3c0,0,0.1-2,0.1-2.6c0-0.5,0.6-1.2,1.2-1.2c0.2,0,0.4,0.1,0.6,0.3c0.1,0.2,0.2,0.5,0.2,0.9
		c0,0.1,0,1.9,0.1,2.6L25.6,39z M24,38.5l1.1,0c0-0.7-0.1-2.3-0.1-2.4c0-0.4-0.1-0.5-0.1-0.6c0-0.1-0.1-0.1-0.1-0.1
		c-0.3,0-0.7,0.5-0.7,0.7C24.1,36.6,24,37.9,24,38.5z"/>
</g>
<g>
	<rect x="1.5" y="40.1" transform="matrix(3.509870e-03 1 -1 3.509870e-03 55.1036 25.4185)" width="26.5" height="0.5"/>
</g>
<g>
	<path class="st4" d="M79.5,69.6l4.6-16.9c0,0-1.4,0.2-1.7,0.1c-0.4-0.1-0.8-0.4-1.3-0.2c-0.5,0.1-1,0.3-1,0.3l-7.9,10.1l-0.6,6.1
		L79.5,69.6z"/>
	<path d="M79.7,69.9l-8.4-0.5l0.6-6.5l8-10.3l1.1-0.3c0.4-0.1,0.8,0,1.1,0.1c0.1,0,0.2,0.1,0.3,0.1c0.2,0,1.1-0.1,1.7-0.1l0.4-0.1
		L79.7,69.9z M71.9,69l7.5,0.4L83.8,53c-0.5,0.1-1.2,0.1-1.4,0.1c-0.1,0-0.2-0.1-0.4-0.1c-0.3-0.1-0.5-0.2-0.8-0.1l-0.9,0.3l-7.8,10
		L71.9,69z"/>
</g>
<g>
	<path class="st4" d="M66.5,57.4c0,0,6.9-4,8.8-4.8c1.9-0.8,8.2-2.7,8.2-2.7l0.1-5.5c0,0-4,0.7-5.9,0.7s-7.7,0.9-9,1.2
		c-1.3,0.3-5.7,1.4-6.5,1.8c-0.1,0,0,9.2,0,9.2H66.5z"/>
	<path d="M66.6,57.7h-4.7l0-0.3c0,0,0-2.3,0-4.6c0-4.7,0-4.7,0.2-4.8c0.8-0.5,5.3-1.6,6.6-1.8c1.4-0.3,7.2-1.2,9.1-1.2
		c1.9,0,5.8-0.7,5.9-0.7l0.3-0.1l-0.1,6l-0.2,0.1c-0.1,0-6.3,1.9-8.1,2.7C73.6,53.6,66.7,57.6,66.6,57.7L66.6,57.7z M62.4,57.1h4
		c0.7-0.4,7-4,8.8-4.8c1.7-0.7,7-2.3,8-2.6l0.1-5c-1,0.2-4,0.7-5.6,0.7c-1.8,0-7.7,0.9-9,1.2c-1.3,0.3-5.3,1.3-6.3,1.7
		C62.4,49.2,62.4,53.9,62.4,57.1z"/>
</g>
<g>
	<polygon class="st3" points="78.9,43.6 77.8,48.3 76,48.4 75.4,49.3 75.4,49.9 75.4,51.5 86.5,51.9 87.6,47.3 82.8,47.2 82.4,47.8 
		82.2,47.2 81.6,47.3 81.7,49.5 81.3,49.4 81.3,48.8 81,48.3 80.6,49 80.6,49.7 79.8,49.7 79.9,48.7 	"/>
	<path d="M86.7,52.2l-11.5-0.5l-0.1-1.9l0.1-0.7l0.6-1.1l1.8-0.1l1-4.5l0.5,0l1,5.2l-0.1,0.7h0.3V49l0.6-1.2l0.5,0.7l0-1.4l1-0.1
		l0.1,0.3l0.2-0.3l5.3,0.1L86.7,52.2z M75.7,51.2l10.6,0.4l1-4.1l-4.4-0.1l-0.7,0.9L82,47.5l-0.1,0l0.1,2.3l-1-0.2l0.1-0.7L81,48.8
		l-0.1,0.3v0.9h-1.3l0.1-1.2l-0.8-3.9l-0.8,3.7l-1.9,0.1l-0.4,0.8l-0.1,0.5L75.7,51.2z"/>
</g>
<g>
	<polygon class="st0" points="71.1,49.1 74.9,49.1 74.7,50 76,49.9 76.1,50.8 78.4,50.8 78.4,52.2 71.8,52.3 	"/>
	<path d="M71.6,52.6l-0.8-3.7h4.3L75,49.7l1.2-0.1l0.1,0.9h2.3v2L71.6,52.6z M71.5,49.3L72,52l6.1-0.1V51h-2.2l-0.1-0.9l-1.4,0.1
		l0.2-0.9H71.5z"/>
</g>
<g>
	<path class="st5" d="M71.1,48.6c1,0.2,0.8,0.8,0.8,0.8s0.9,0.1,0.8,0.5c-0.1,0.4-0.6,1-0.6,1s0.8,0,0.9,0.7c0.1,0.7-0.1,1.4-1,1.2
		c-0.9-0.1-2.2-0.7-2.6-1.4c-0.4-0.7-0.2-2-0.2-2S70.3,48.4,71.1,48.6z"/>
	<path d="M72.3,53.1c-0.1,0-0.2,0-0.3,0c-1-0.2-2.3-0.8-2.7-1.5c-0.4-0.7-0.3-2.1-0.3-2.2l0-0.1l0.1-0.1c0.1-0.1,1.1-1,2-0.9h0
		c0.5,0.1,0.8,0.3,0.9,0.5c0.1,0.1,0.1,0.2,0.1,0.3c0.2,0.1,0.6,0.2,0.7,0.4c0.1,0.1,0.1,0.2,0.1,0.4c0,0.2-0.2,0.6-0.4,0.8
		c0.3,0.1,0.7,0.3,0.8,0.8c0.1,0.5,0,1-0.2,1.3C73,52.9,72.7,53.1,72.3,53.1z M69.6,49.5c0,0.4,0,1.4,0.2,1.8
		c0.3,0.6,1.5,1.1,2.4,1.3c0.3,0,0.5,0,0.6-0.1c0.1-0.2,0.2-0.5,0.1-0.8c-0.1-0.4-0.7-0.5-0.7-0.5h-0.5l0.3-0.4
		c0.2-0.2,0.5-0.7,0.5-0.9c-0.1-0.1-0.3-0.2-0.6-0.2l-0.3-0.1l0.1-0.3c0,0,0,0,0,0c0,0,0-0.1,0-0.2c-0.1-0.1-0.3-0.2-0.6-0.3l0,0
		C70.6,48.7,69.9,49.2,69.6,49.5z"/>
</g>
<g>
	<path class="st2" d="M76.6,52.2c0.6,0.2,0.7,0.3,1.2,0.4c0.5,0.1,0.9,0.1,1.2,0.1c0.3,0.1,0.9,0.4,0.9,0.4s0.8-0.7,1.4-0.6
		c0.6,0.1,0.8,0.7,1.3,0.6c0.5-0.1,0.9-0.4,1.5-0.4c0.5,0,0.8-0.5,0.8-0.5s0,0.1,0.6,0.4c0.6,0.2,1.6,0.4,2.1-0.1
		c0.5-0.4,0.7-1.7,0.7-1.7s-0.9-0.9-1.7-0.8c-0.8,0.1-1.2,0.6-1.2,0.6s-0.2-0.5-0.7-0.3c-0.5,0.2-0.7,0.5-0.7,0.5h-0.7l-0.4,0.7
		c0,0-0.1-0.4-0.7-0.4s-0.7,0.6-0.7,0.6s-0.3-0.2-0.9-0.3c-0.6-0.1-0.9,0.4-0.9,0.4s-0.5-0.5-1.3-0.4C77.5,51.5,76,52,76.6,52.2z"/>
	<path d="M79.9,53.4l-0.1-0.1C79.6,53.3,79.2,53,79,53c-0.1,0-0.3-0.1-0.5-0.1c-0.2,0-0.4,0-0.6-0.1c-0.5-0.1-0.7-0.1-1.1-0.3
		l-0.2-0.1c-0.3-0.1-0.3-0.3-0.3-0.4c0.1-0.6,1.8-0.9,2-0.9c0.6-0.1,1.1,0.2,1.3,0.3c0.2-0.2,0.5-0.4,1-0.3c0.3,0,0.6,0.1,0.7,0.2
		c0.1-0.2,0.4-0.5,0.8-0.5c0.3,0,0.5,0.1,0.6,0.2l0.3-0.5h0.7c0.1-0.1,0.4-0.3,0.7-0.5c0.4-0.2,0.7,0,0.9,0.1
		c0.2-0.2,0.6-0.4,1.1-0.5c0.9-0.2,1.9,0.8,2,0.9l0.1,0.1l0,0.1c0,0.1-0.2,1.4-0.7,1.8c-0.6,0.6-1.8,0.3-2.4,0.1
		c-0.2-0.1-0.3-0.1-0.5-0.2C84.7,52.8,84.4,53,84,53c-0.2,0-0.5,0.1-0.7,0.2c-0.2,0.1-0.4,0.2-0.7,0.2c-0.4,0.1-0.6-0.1-0.9-0.3
		c-0.2-0.1-0.3-0.2-0.5-0.3c-0.4,0-1,0.4-1.2,0.5L79.9,53.4z M81.2,52.3c0,0,0.1,0,0.1,0c0.3,0,0.6,0.2,0.8,0.4
		c0.2,0.2,0.3,0.2,0.5,0.2c0.2,0,0.4-0.1,0.6-0.2c0.3-0.1,0.6-0.2,0.9-0.2c0.4,0,0.6-0.4,0.6-0.4l0.5-0.9l0,0.9c0,0,0.2,0.1,0.4,0.2
		c0.6,0.2,1.5,0.3,1.9,0c0.3-0.3,0.5-1,0.5-1.4c-0.3-0.3-0.9-0.7-1.4-0.6c-0.7,0.1-1,0.5-1,0.5l-0.3,0.3L85,50.7
		c0-0.1-0.2-0.3-0.4-0.2C84.2,50.8,84,51,84,51L84,51.1l-0.6,0l-0.7,1.1l-0.2-0.5c0,0-0.1-0.3-0.4-0.3c-0.3,0-0.4,0.4-0.4,0.4
		l-0.1,0.4l-0.3-0.2c0,0-0.3-0.2-0.8-0.2c-0.4-0.1-0.7,0.3-0.7,0.3l-0.2,0.2L79.4,52c0,0-0.4-0.4-1.1-0.4c-0.5,0-1.1,0.2-1.4,0.4
		c0.4,0.2,0.6,0.2,1,0.3c0.2,0,0.4,0,0.6,0.1c0.2,0,0.4,0,0.6,0.1c0.2,0.1,0.6,0.2,0.8,0.3C80.1,52.6,80.7,52.3,81.2,52.3z"/>
</g>
<g>
	<rect x="30.3" y="45.8" width="0.5" height="3.7"/>
</g>
<g>
	<path class="st0" d="M20.1,27.9l0.1-1.5c0,0,0.6-0.2,1-0.2c0.5,0,1.2,0.2,1.2,0.2l0.1,1.5L20.1,27.9z"/>
	<path d="M22.7,28L20,28l0.1-1.7l0.1,0c0,0,0.6-0.2,1-0.2c0.5,0,1.2,0.2,1.2,0.2l0.1,0L22.7,28z M20.3,27.7l2.1,0l-0.1-1.2
		c-0.2-0.1-0.7-0.2-1.1-0.2c-0.3,0-0.7,0.1-0.9,0.1L20.3,27.7z"/>
</g>
<g>
	<path class="st3" d="M47.1,17.2c0.2,0.3,0.4,0.4,0.4,0.6c0,0.2,0.9,1.1,1.1,1.1c0.6,0,1.3-0.2,2.2-1.1c0.5-0.5,1.3-0.6,1.8-0.6
		c0.5,0,0.9-0.1,1.2-0.2c0.3-0.1,0.5-0.6,0.5-0.6l0.5,0c0,0,0.4,1.1,0.9,1c0.5-0.1,0.1,0.6,0.3,1.1c0.2,0.6,0.6,0.8,0.6,0.8
		s-0.7,0.1-1.8,0c-1.1-0.1-1.8,0-1.8,0s-0.2,0.3,0.4,0.7c0.1,0.1-0.2,0.7,0.8,0.4c0.3-0.1,0.5,0.3,1,0.3c0.4,0,0.7,0,1.2-0.3
		c0.6-0.3,0.2-0.6,0.9-0.4c0.7,0.2,0.8,0.5,1.1,0.9c0.4,0.4,0.9,0.3,1.1,0.1c0.3-0.2,1,0,0.8,1c-0.1,0.9-0.8,1.7-1.2,2.2
		c-0.4,0.6-1.5,1.1-1.5,1.1l-0.4,0c0,0-0.6-0.5,0.3-0.8c0.2-0.1,0.3-0.4-0.4-0.4c-0.3,0-0.7-0.1-1.1-0.3c-1-0.5-0.8-1.6-0.8-1.6
		c-0.8,0.1-0.7-0.5-0.8-0.5c-0.8,0.3-1.5,0-1.8,0.1c-0.3,0.1,0,0.4-0.6,0.3c-0.5-0.1,0.1-0.7-0.8-0.7c-0.5,0-0.4,0.6-1.4,0.9
		c-1,0.2-0.8,0.4-1.6,0.4c-0.4,0-1.2-0.5-1-0.9c0.2-0.5,0.2-0.7,0.2-0.7s-0.6-0.5-0.5-1c0.1-0.5,0.2-0.7,0.2-0.7s-0.5-0.5-0.3-0.9
		c0.2-0.4,0.3-0.5,0.3-0.5s-0.2-0.1-0.2-0.5C47,17.2,46.9,16.9,47.1,17.2z"/>
</g>
<g>
	<path class="st6" d="M9.3,75.7c0,0,0.2-1.6,3.5-2.2c2.3-0.4,4.1,0.5,4.1,0.5l2.5,5.6l-7.3,1L9.3,75.7z"/>
	<path d="M11.9,80.8l-2.9-5.1l0-0.1c0-0.1,0.3-1.8,3.7-2.4c2.4-0.5,4.2,0.5,4.3,0.5l0.1,0l2.7,6L11.9,80.8z M9.6,75.7l2.6,4.6
		l6.8-0.9l-2.3-5.2c-0.4-0.2-1.9-0.8-3.8-0.4C10.2,74.2,9.7,75.4,9.6,75.7z"/>
</g>
<g>
	<path class="st4" d="M13.3,75.3c0,0,0.8,0,2,0c1.6,0,1.5-1.4,1.5-1.4l2.6,5l-4.2,0.5L13.3,75.3z"/>
	<path d="M15,79.7l-2.1-4.6h2.4c0.4,0,0.8-0.1,1-0.3c0.3-0.3,0.3-0.7,0.3-0.7l0.5-0.1l2.8,5.3L15,79.7z M13.7,75.6l1.6,3.6l3.7-0.4
		l-2.1-4c-0.1,0.1-0.1,0.2-0.2,0.4c-0.3,0.3-0.8,0.5-1.4,0.5H13.7z"/>
</g>
<g>
	<path class="st6" d="M90.4,76.9c0,0-0.2-1.6-3.5-2.2c-2.3-0.4-4.1,0.5-4.1,0.5l-2.5,5.6l7.3,1L90.4,76.9z"/>
	<path d="M87.8,82L80,80.9l2.7-6l0.1,0c0.1,0,1.9-1,4.3-0.5c3.4,0.6,3.7,2.4,3.7,2.4l0,0.1L87.8,82z M80.8,80.5l6.8,0.9l2.6-4.6
		c-0.1-0.3-0.7-1.5-3.2-1.9c-1.9-0.4-3.5,0.3-3.8,0.4L80.8,80.5z"/>
</g>
<g>
	<path class="st4" d="M86.5,76.5c0,0-0.8,0-2,0c-1.6,0-1.5-1.4-1.5-1.4l-2.6,5l4.2,0.5L86.5,76.5z"/>
	<path d="M84.8,80.9L80,80.3l2.8-5.3l0.5,0.1c0,0,0,0.4,0.3,0.7c0.2,0.2,0.5,0.3,1,0.3h2.4L84.8,80.9z M80.8,79.9l3.7,0.4l1.6-3.6
		h-1.6c-0.6,0-1.1-0.2-1.4-0.5c-0.1-0.1-0.2-0.2-0.2-0.4L80.8,79.9z"/>
</g>
<g>
	<path class="st3" d="M41.4,22.7c0.1-0.3,0.6-0.2,0.9-0.2c0.3,0,0.1-0.4,0-0.7c-0.1-0.3,0-0.9,0-1.2c0-0.3,0-1.5-0.1-2
		c0-0.5-0.6-0.7-0.8-0.4c-0.2,0.3-0.5,0.3-0.8,0.3c-0.3,0-0.1-1.1-0.1-1.1s0.5-0.1,1-0.1c0.5,0,0.7-0.9,0.7-1.4c0.1-0.5,0-2,0-3
		c0-0.4,0.3-1,0.5-1.2c0.2-0.2,0.5-0.5,1-0.8c0.6-0.3,1.3-0.2,1.3-0.2s-0.6,0.8-0.6,1.4c0,0.6,0.2,2.3,0.7,3.9
		c0.4,1.6,0.5,4.9,0.5,5.4s-0.1,0.7-0.5,0.7s-0.4-0.2-0.7-0.2c-0.3,0-0.9,0.1-0.9,0.1s-0.2,0.2-0.1,0.5c0.1,0.3,0.8,0.2,1.4,0.2
		c0.7,0,0.9,0.7,1,1.2c0.1,0.5,0.5,1.3,0.5,1.3s-0.4,0.3-0.4,0c0-0.2,0-0.7-0.2-0.5c-0.1,0.2-0.1,0.4-0.6,0.4s-1.2,0-1.5-0.3
		c-0.3-0.3-0.5-0.3-0.5-0.3s0.2,0.6-0.3,0.7c-0.5,0.1-0.6-0.1-0.6-0.4s0.3-0.5,0.2-0.8c0-0.3-0.3-0.9-0.5-0.4c-0.2,0.5,0,0.4,0,0.6
		c0,0.2-0.2,0.1-0.4-0.2C41.4,23.6,41.3,23.1,41.4,22.7z"/>
</g>
<g>
	<path class="st0" d="M45,12.8c0,0.5,0.3,0.6,0.6,0.7c0.3,0.1,0.8,0.1,0.8,0.1s0,1,0.3,1.3c0.4,0.3,0.5,0.4,0.5,0.4
		s-0.4,0.9-0.1,1.3c0.3,0.5,0.5,1.5,1.3,1.6c0.8,0.1,1.1-0.3,1.7-0.7c0.7-0.4,1.8-0.8,2-0.9c0.2,0,0.5-0.2,0.6-0.2
		c0.1,0,0.2,0.3,0.5,0.3c0.3,0,0.5-0.2,0.3-0.3c-0.2-0.1,0-0.3,0.2-0.3c0.2,0,0.8-0.1,1,0c0.2,0.1,0.1,0.6,0.5,0.9
		c0.4,0.2,0.6,0.2,0.8,0.1c0.2-0.1,0.4-0.2,0.7-0.1c0.2,0.1,0.8,0.1,0.3,0.2c-0.5,0.1-0.4,0.2-0.7,0.4c-0.3,0.2-0.4,0.7,0,1.2
		c0.5,0.5,0.3,0.3,0.8,0.5c0.5,0.1,0.7,0.2,0.8,0.3c0.1,0.2,0.3,0.3,0.5,0.2c0.2,0,0.1-0.1,0.4,0.2c0.3,0.3,0.3,0.5,0.6,0.5
		c0.3,0,0.7,0.1,0.8,0.5c0.1,0.4,0.2,0.7,0.2,1.2c0,0.5-0.9,1.9-0.9,1.9c-0.4,0.6-1.3,1.3-1.3,1.3s2-1.2,2.4-2
		c0.5-0.7,0.6-1.7,0.6-2.1c0-0.4,0.1-0.6,0-0.9c-0.1-0.3-0.5-0.7-0.6-0.9c-0.1-0.2,0.2-0.6,0.1-0.8c-0.1-0.2-0.5-0.2-0.4-0.6
		c0.1-0.3,0.4-0.6,0.4-0.8c0-0.3-0.3-0.2-0.3-0.5c0-0.2,0.2-0.1,0.2-0.4c0-0.2,0.1-0.5-0.2-0.4c-0.3,0.1-0.5-0.1-0.3-0.2
		s0.2-0.1,0.2-0.4c0-0.2-0.1-0.4-0.1-0.4s0.3,0,0.6,0.1c0.2,0.1,0.5,0.3,0.5,0.3s0.1-1.2-0.2-1.6c-0.3-0.4-1-0.9-2-0.9
		c-1,0.1-1.3,0.1-1.5,0.4c-0.2,0.3-0.4,0.2-0.7,0.3c-0.3,0.1-0.5,0.4-0.8,0.5c-0.3,0.1-0.6,0.2-1,0.3c-0.4,0.1-1.1,0.2-1.4,0.4
		c-0.3,0.2-1,0.7-1,0.7s-0.5-0.4-1.2-0.3c-0.7,0-1.4-0.2-1.9-0.7c-0.5-0.5-1-1.3-0.9-1.8s0.1-1,0.2-1.4c0.1-0.4,0.1-0.5-0.1-0.7
		c-0.2-0.2-0.1-0.3,0.1-0.3c0.2,0,0.4-0.2,0.4,0.1c0,0.3-0.2,1.2,0,1.4c0.2,0.2,0.4,0.2,0.8,0.4c0.4,0.2,0.5,0.4,0.8,0.3
		c0.2-0.1,0.2-0.4,0.2-0.4s0.2,0.1,0.5,0.2c0.2,0.1,0.8,0.3,0.8,0.3s0.1-0.5,0-0.6c-0.1-0.1-0.4-0.2-0.6-0.4
		c-0.2-0.2-0.4-0.5-0.4-0.5s-0.4-0.2-0.7-0.5c-0.3-0.3-0.6-0.7-0.2-0.7c0.3,0,0.4,0.1,0.7,0.1c0.3,0,0.6,0,0.8,0
		c0.2,0,0.6,0.3,0.7,0.3c0.1,0.1,0.6,0.2,0.7,0c0.1-0.1-0.2-0.8-1-1c-0.8-0.1-1.7-0.2-2.3-0.1c-0.6,0.1-2.2,0-3.1,0
		c-0.8,0-2.7,0-3.3,0c-0.6,0-1.2,0.1-1.7,0.5c-0.5,0.4-0.7,0.6-1,0.9c-0.3,0.3-0.8,0.3-0.9,0.7c-0.1,0.5-0.2,1.4-0.2,1.9
		c0,0.5,0.1,0.4,0.1,0.4l0.4-0.1c0,0,0-0.6,0.2-0.9c0.1-0.4,0.2-0.8,0.1-1c0-0.2-0.1-0.4,0.3-0.6c0.5-0.2,1-0.5,1.3-0.7
		c0.3-0.2,0.5-0.3,0.5-0.3s0.2-0.2,0.4-0.2c0.2,0,1.8,0.1,2.2,0.1c0.4,0,0.9,0,0.6,0.1c-0.3,0.1-0.5,0.1-0.5,0.4
		c-0.1,0.2-0.2,0.4-0.3,0.6c-0.1,0.2,0,0.2-0.1,0.5c-0.1,0.2-0.2,0.4-0.4,0.5C45.1,12.6,45,12.7,45,12.8z"/>
</g>
<g>
	<path class="st0" d="M53.8,24.4c-0.1-0.6,0-1.1-0.4-1.5c-0.4-0.4-0.5-0.3-0.7-0.1C52.5,23,52.1,23,51.8,23
		c-0.2-0.1-0.7-0.7-0.8-0.5c-0.2,0.3-0.4,0.5-0.9,0.7c-0.5,0.2-1.1,0.6-1.8,0.5c-0.7-0.1-1.1-0.2-1.3-0.3c-0.2-0.1-0.7,0-0.6,0.2
		s0,0.6,0.2,0.9c0.1,0.2,0.3,0.7,1.3,0.8c1,0.1,5.7,0.1,5.7,0.1s0.5-0.1,0.5-0.5C54.1,24.5,53.9,24.6,53.8,24.4z"/>
</g>
<g>
	<path class="st3" d="M49.8,12.4c0,0,0.6,0.5,0.8,0.7c0.2,0.2,0.4,0.4,0.8,0.3c0.5-0.1,0.7-0.6,0.7-0.6s0.4,0.1,0.6,0.2
		c0.2,0.1,0.5,0.4,0.6,0.2c0.1-0.2,0-0.2,0-0.5c0-0.3,0-0.6-0.3-0.7c-0.3-0.1-0.7-0.4-0.9-0.7c-0.1-0.3-0.7-0.8-0.3-0.7
		c0.4,0.1,0.3,0,0.7,0.1c0.4,0.1,0.6,0.3,0.7,0.6c0.1,0.3,0.4,0.2,0.5,0.1c0.1-0.1,0.3-0.1,0.3-0.1s0.1,0.8,0.7,1.1
		c0.6,0.3,1.2,0.6,1.8,0.6c0.6,0,0.8,0,0.7,0.2c-0.2,0.2-0.5,0.5-0.7,0.5c-0.1-0.1-0.4-0.1-0.4-0.1s0,0.1-0.4,0.3
		c-0.4,0.2-0.8,0.3-1.1,0.3c-0.3,0-0.2,0.1-0.8,0.2c-0.6,0.1-0.6,0.2-1.2,0.3c-0.6,0.1-1,0.3-1.6,0c-0.6-0.2-1.2-0.7-1.3-1.2
		C49.7,13.1,49.8,12.4,49.8,12.4z"/>
</g>
<g>
	<path d="M43.4,18.4c0,0.4,0,0.5,0.1,0.9s0.2,0.5,0.2,0.8c0,0.3,0.2,0.4,0.4,0.3c0.2-0.1,0-0.6-0.1-0.9c0-0.3-0.1-0.8,0-1.1
		C44,18.1,43.4,18,43.4,18.4z"/>
</g>
<g>
	<path d="M44.4,23.7c0.3-0.1,0.4,0,0.6,0.2c0.2,0.2,0.4,0.5,0.2,0.7c-0.2,0.2-0.5,0.2-0.6,0.1c-0.2-0.1-0.4-0.4-0.4-0.7
		C44.1,23.7,44.2,23.7,44.4,23.7z"/>
</g>
<g>
	<path class="st0" d="M61.5,15.7c0.2,0,0.5,0,0.4,0.2c0,0.2,0,0.5-0.1,0.9c-0.1,0.3,0,0.5,0,0.9c0.1,0.5,0,0.8,0,1.2
		c0,0.4-0.1,0.8-0.1,0.8s0.1-0.2-0.1-0.3c-0.2-0.1-0.3-0.1-0.3-0.1s0.1-0.3,0.2-0.4s0.1-0.4,0-0.5c-0.1-0.2-0.1-0.2-0.1-0.5
		c0.1-0.2,0.1-0.5,0.1-0.7s-0.1-0.5-0.1-0.5s0.2-0.1,0.2-0.4c0-0.3-0.2-0.4-0.2-0.4S61.3,15.7,61.5,15.7z"/>
</g>
<g>
	<path class="st0" d="M45.4,13.9c-0.1,0.2,0.1,0.9,0.4,1.3c0.3,0.4,0.5,1.2,0.5,1.5c0,0.3,0,0.9-0.1,1.4c-0.1,0.5-0.1,1,0.1,1.5
		c0.2,0.5,0.4,0.8,0.3,1.2c-0.1,0.4-0.4,0.3-0.3,0.7c0.1,0.4,0.1,0.5,0.2,0.7c0.1,0.2,0.4,0.5,0.6,0.5c0.2,0.1,0.2-0.1,0-0.2
		C47,22.3,47,21.9,47,21.7c0-0.2,0.1-0.4,0.1-0.4s-0.4-0.4-0.4-0.7c0-0.3,0.2-0.9,0.2-0.9s-0.4-0.2-0.3-0.7c0.1-0.5,0.2-0.8,0.2-0.8
		s-0.2-0.5-0.1-0.8c0.1-0.3,0.2-0.6,0.2-0.6s-0.2-0.1-0.2-0.6c0-0.5,0.1-0.9,0.1-0.9s-0.2-0.1-0.5-0.7c-0.3-0.6-0.1-0.6-0.1-0.7
		C46.2,13.8,45.6,13.5,45.4,13.9z"/>
</g>
<g>
	<path class="st0" d="M40.5,16.9c0.1,0.2,1.3-0.1,1.4-0.6c0.1-0.4,0.1-0.5,0.1-0.7c0-0.2-0.2-0.3-0.5-0.2c-0.2,0.1-0.4,0-0.3-0.2
		c0-0.2,0.1-0.5-0.2-0.2c-0.3,0.2-0.3,0.6-0.3,0.8c0,0.2,0.2,0.4,0.1,0.6C40.6,16.5,40.4,16.7,40.5,16.9z"/>
</g>
<g>
	<path class="st0" d="M53.7,20.1c0.2,0.2,0.7-0.1,0.7-0.1s0.1,0.4,0.6,0.5c0.5,0.1,0.9-0.3,0.9-0.3s0.4,0.2,0.6,0
		c0.2-0.2,0.7-0.5,0.2-0.3c-0.5,0.1-0.9,0.3-1.2,0.1c-0.3-0.2-0.6-0.1-0.7-0.1c-0.2,0-0.5-0.1-0.8,0C53.7,19.8,53.5,20,53.7,20.1z"
		/>
</g>
<g>
	<path d="M44.8,20.7c-0.1,0.3-0.1,0.5,0,0.7c0.1,0.2,0.3,0,0.4-0.2C45.3,20.9,44.9,20.5,44.8,20.7z"/>
</g>
<g>
	<path class="st0" d="M45.4,11.7c0.3,0,0.2-0.5,0.3-0.7c0.1-0.2,0.5-0.6,0.1-0.4c-0.4,0.2-0.3,0.3-0.4,0.5c-0.1,0.2-0.1,0.2-0.2,0.4
		C45.1,11.7,45.1,11.8,45.4,11.7z"/>
</g>
<g>
	<path d="M59,13.5c0,0,0.5-0.1,0.8-0.2c0.3-0.1,0.5-0.1,0.7,0.1c0.2,0.2,0.3,0.4,0.4,0.7c0.1,0.3,0,0.7-0.1,0.6
		c-0.2-0.2-0.3-0.3-0.5-0.2c-0.2,0.1-0.6,0-0.6,0s0-0.5-0.2-0.6C59.4,13.8,59,13.5,59,13.5z"/>
</g>
<g>
	<path d="M60,16.6c-0.2,0-0.4,0.2-0.2,0.4c0.1,0.2,0.3,0.1,0.4,0.3c0.1,0.2,0.2,0.1,0.2,0.3c-0.1,0.2,0.2,0.4,0.2,0.2
		c0.1-0.2,0-0.2,0.2-0.4c0.2-0.1,0.2-0.3,0-0.5c-0.2-0.2-0.2-0.2-0.2-0.3S60.2,16.6,60,16.6z"/>
</g>
<g>
	<path d="M47.8,10.5c-0.1,0.1-0.1,0.3-0.2,0.4c-0.1,0.1-0.1,0.2-0.1,0.3c0,0.1,0,1.2,0,1.3c0,0.1,0,0.2,0.1,0.2
		c0.1,0,0.2,0.1,0.2,0.1c0,0.1,0,0.3,0.1,0.3c0.1,0.1,0.1,0,0.2-0.1c0.1,0,0.2-0.1,0.3,0c0.1,0,0.2,0,0.2-0.2c0-0.1-0.2-0.3-0.2-0.3
		c0-0.1,0-0.4,0.1-0.6c0.1-0.1,0.1-0.2,0.1-0.3c0-0.1,0.1,0,0.2-0.1c0.1-0.1,0.2-0.4,0-0.4c-0.1,0-0.3,0-0.3-0.1
		c0-0.1-0.1-0.2,0-0.2c0.1-0.1,0.1-0.1,0.2-0.1c0.1-0.1,0-0.1-0.1-0.1c-0.1,0-0.2,0-0.3,0c-0.2,0-0.2-0.1-0.3-0.1
		C47.9,10.4,47.8,10.4,47.8,10.5z"/>
</g>
<g>
	<path class="st5" d="M88,40c-0.6,0-1.4,0.9-1.4,0.9s-0.5,0.1-0.7,0.4c-0.1,0.3-0.3,0.7-0.3,0.7s-0.6-0.1-0.6,0.3c0,0.4,0,0.5,0,0.5
		s-0.4-0.1-1,0.2c-0.7,0.3-0.6,2-0.6,2s-0.7,0.2-0.7,0.8c0.1,0.6,0.4,1.2,0.4,1.2s-0.5,1.2,0.3,1.7c0.8,0.5,1.8,0.1,1.8,0.1
		s0.1,0.1,0.6,0.4c0.4,0.3,0.9,0.5,0.9,0.5s-0.2,0.7,0.1,0.8c0.4,0.1,0.5,0,0.5,0s0.1-0.4,0.4-0.5c0.4-0.1,0.8,0.1,0.8,0.1l-0.1-9.4
		C88.6,40.5,88.9,40,88,40z"/>
	<path d="M87.3,50.7c-0.1,0-0.2,0-0.4-0.1c-0.4-0.1-0.4-0.6-0.4-0.9c-0.2-0.1-0.5-0.3-0.8-0.4c-0.2-0.2-0.4-0.2-0.5-0.3
		c-0.3,0.1-1.2,0.3-1.9-0.1c-0.7-0.5-0.6-1.4-0.4-1.9c-0.1-0.2-0.3-0.7-0.4-1.2c-0.1-0.5,0.3-0.9,0.6-1c0-0.5,0.1-1.7,0.7-2
		c0.4-0.2,0.7-0.2,0.9-0.2v-0.3c0-0.2,0.1-0.3,0.2-0.4c0.1-0.1,0.3-0.2,0.5-0.2c0.1-0.1,0.1-0.3,0.2-0.5c0.2-0.3,0.6-0.4,0.8-0.5
		c0.2-0.2,0.9-0.9,1.5-0.9c0.4,0,0.7,0.1,0.8,0.3c0.1,0.2,0.1,0.4,0.1,0.5l0.2,9.8l-0.4-0.2c-0.1,0-0.4-0.1-0.6-0.1
		c-0.2,0.1-0.3,0.3-0.3,0.3l0,0.1l-0.1,0.1C87.7,50.5,87.6,50.7,87.3,50.7z M85.4,48.4l0.1,0c0,0,0.2,0.1,0.6,0.4
		c0.4,0.3,0.9,0.5,0.9,0.5l0.2,0.1l-0.1,0.2c-0.1,0.2-0.1,0.5,0,0.5c0.1,0,0.2,0,0.2,0c0.1-0.2,0.2-0.4,0.6-0.6
		c0.2-0.1,0.4-0.1,0.6,0l-0.1-9.1l0-0.1c0,0,0,0,0-0.1c0,0-0.1-0.1-0.4-0.1c-0.3,0-0.9,0.5-1.2,0.8l-0.1,0.1l-0.1,0
		c-0.2,0-0.4,0.1-0.5,0.2C86,41.6,85.9,42,85.9,42l-0.1,0.2l-0.2,0c-0.1,0-0.3,0-0.3,0l0,0.8L85,42.9l0,0c0,0-0.3,0-0.9,0.2
		c-0.3,0.1-0.5,1.1-0.4,1.7l0,0.2l-0.2,0.1c0,0-0.5,0.2-0.5,0.5c0.1,0.5,0.4,1.1,0.4,1.1l0.1,0.1L83.5,47c0,0-0.4,1,0.2,1.4
		c0.7,0.4,1.6,0.1,1.6,0.1L85.4,48.4z"/>
</g>
<g>
	<path class="st0" d="M85.7,53.8c0,0,1.1,0.1,1.5-0.3c0.4-0.4,1-0.1,1-0.1l0.4,0.2l0.1-3.7c0,0-0.2-0.4-0.5-0.1
		c-0.3,0.3-0.7,0.5-0.7,0.9c0,0.4-0.2,1.5-0.5,1.9C86.7,53,85.7,53.8,85.7,53.8z"/>
	<path d="M86,54.1c-0.1,0-0.2,0-0.3,0l-0.6,0l0.4-0.4c0.3-0.2,1-0.9,1.2-1.3c0.3-0.4,0.5-1.4,0.5-1.8c0-0.4,0.3-0.6,0.6-0.8
		c0.1-0.1,0.2-0.1,0.2-0.2c0.2-0.2,0.3-0.2,0.5-0.2c0.3,0,0.4,0.3,0.5,0.4l0,0.1L88.9,54l-0.8-0.4c-0.1,0-0.5-0.1-0.7,0.1
		C87,54,86.4,54.1,86,54.1z M88.4,49.9C88.4,49.9,88.4,49.9,88.4,49.9c-0.1,0.1-0.2,0.2-0.3,0.3c-0.2,0.2-0.4,0.3-0.4,0.4
		c0,0.4-0.2,1.6-0.6,2c-0.2,0.2-0.5,0.6-0.8,0.9c0.3,0,0.5-0.1,0.6-0.2c0.5-0.5,1.3-0.2,1.3-0.2l0.1,0L88.4,49.9
		C88.4,49.9,88.4,49.9,88.4,49.9z"/>
</g>
<g>
	<path class="st2" d="M65.3,48.2c0.6-0.5,1.1-0.1,1.1-0.1s0.4-0.9,1.3-1c0.9-0.1,1.2,1,1.2,1s0.4-0.2,0.7,0.3c0.4,0.5,0.4,1,0.4,1
		s0.7,0.1,0.7,0.6c-0.1,0.4-0.4,0.8-0.4,0.8s0.5,0.1,0.4,0.6c-0.1,0.5-0.1,0.9-0.6,0.8c-0.4-0.1-1.1-0.6-1.1-0.6s-0.3,0.8-1,0.8
		c-0.7,0-1.8-0.7-1.8-0.7l-1.6-2.3C64.6,49.5,64.9,48.6,65.3,48.2z"/>
	<path d="M68,52.7c-0.8,0-1.9-0.7-2-0.7l0,0l-1.7-2.5l0-0.1c0,0,0.3-0.9,0.8-1.4l0,0c0.4-0.3,0.9-0.3,1.2-0.2
		c0.2-0.3,0.7-0.9,1.4-0.9c0.8-0.1,1.2,0.6,1.4,1c0.2,0,0.5,0.1,0.8,0.4c0.3,0.4,0.4,0.7,0.4,1c0.4,0.1,0.8,0.4,0.7,0.8
		c0,0.3-0.2,0.5-0.3,0.7c0.1,0,0.1,0.1,0.1,0.2C71,51,71,51.2,71,51.5c0,0.1,0,0.2-0.1,0.3c-0.1,0.3-0.1,0.6-0.4,0.7
		c-0.1,0.1-0.3,0.1-0.5,0c-0.3-0.1-0.7-0.3-0.9-0.5C69,52.3,68.6,52.7,68,52.7z M66.4,51.6c0.3,0.2,1.1,0.6,1.6,0.6
		c0.5,0,0.8-0.6,0.8-0.6l0.1-0.3l0.3,0.2c0,0,0.6,0.4,1,0.6c0.1,0,0.1,0,0.1,0c0,0,0.1-0.2,0.1-0.4c0-0.1,0-0.2,0.1-0.3
		c0-0.1,0-0.1,0-0.2c0-0.1-0.1-0.1-0.2-0.1L69.8,51l0.4-0.4c0,0,0.3-0.3,0.4-0.7c0-0.1-0.3-0.3-0.5-0.3l-0.2,0l0-0.2
		c0,0-0.1-0.5-0.4-0.9c-0.2-0.3-0.4-0.2-0.4-0.2l-0.3,0.1l-0.1-0.3c0,0-0.3-0.9-1-0.8c-0.7,0.1-1.1,0.9-1.1,0.9l-0.1,0.3l-0.3-0.2
		c0,0-0.4-0.3-0.8,0.1l0,0c-0.3,0.2-0.5,0.7-0.6,1L66.4,51.6z"/>
</g>
<g>
	<polygon class="st0" points="38.1,47.3 34.5,49.7 34.4,54.8 29.9,58 29.8,61.1 22.8,64.5 22.7,67.4 17.5,70.9 17.3,74.3 83.2,74.6 
		83.4,71.5 78.8,67.9 78.9,65 71.5,61.6 71.6,58.5 67,55.1 66.9,50 62.8,47.4 	"/>
	<path d="M83.5,74.8l-66.4-0.3l0.2-3.7l5.2-3.6l0.1-2.9l7-3.5l0.1-3l4.5-3.2l0.1-5.1L38,47l24.9,0.1l4.2,2.7l0.1,5.2l4.6,3.3
		l-0.1,3.2l7.4,3.3l-0.1,2.9l4.6,3.6L83.5,74.8z M17.6,74L83,74.3l0.1-2.7L78.5,68l0.1-2.9l-7.4-3.3l0.1-3.2l-4.6-3.3l-0.1-5.1
		l-3.9-2.4l-24.6-0.1l-3.5,2.3L34.7,55l-4.5,3.2l-0.1,3.1l-7,3.5L23,67.5l-5.2,3.6L17.6,74z"/>
</g>
<g>
	<polygon class="st5" points="17.5,71 83.3,71.5 83.2,74.5 17.3,74.3 	"/>
	<path d="M83.4,74.8l-0.2,0l-66.1-0.2l0.2-3.8l66.3,0.5L83.4,74.8z M17.6,74l65.3,0.2l0.1-2.5l-65.3-0.5L17.6,74z"/>
</g>
<g>
	<polygon class="st5" points="22.9,64.5 22.9,67.4 78.7,67.8 78.7,64.9 	"/>
	<path d="M79,68.1l-0.3,0l-56.1-0.4v-3.3l56.3,0.4L79,68.1z M23.1,67.1l55.3,0.4l-0.1-2.4l-55.3-0.4V67.1z"/>
</g>
<g>
	<polygon class="st5" points="29.9,61.2 29.8,58 71.5,58.4 71.4,61.6 	"/>
	<path d="M71.6,61.8l-42-0.4l-0.1-3.7l42.3,0.4L71.6,61.8z M30.2,61l41,0.4l0.1-2.7l-41.2-0.4L30.2,61z"/>
</g>
<g>
	<polygon class="st5" points="34.5,55 34.5,49.6 66.8,49.9 66.8,55.1 	"/>
	<path d="M67.1,55.4l-32.9-0.1l0.1-5.9L67,49.6L67.1,55.4z M34.7,54.7l31.8,0.1l-0.1-4.7l-31.7-0.3L34.7,54.7z"/>
</g>
<g>
	<path d="M49.2,46.7l1.4-0.1c0,0,1.4,2.4,3.1,4.4c1.8,2,3.2,2.5,4.2,2.9c1,0.4,2.2,1.8,3.3,3.2c1.1,1.4,1.4,4.3,0.8,5.6
		c-0.6,1.2-1,5.4,0.1,7.1c1.1,1.6,4.5,4.1,4.5,4.1s-12.2-1.5-16.8-1.5s-19,2.5-19,2.5s4-5.6,6.3-6.7c2.3-1.2,5.8-4,6.3-5.3
		c0.5-1.4,0.1-3.5-1.2-5.3c-1-1.4,0.6-3.6,1-4.6C44.9,48.8,49.2,46.7,49.2,46.7z"/>
</g>
<g>
	<path class="st0" d="M50.3,46.8c0,0-3.6,1.5-5.3,4.4c-1,1.8-1.9,3.3-2,4.3c-0.1,1,1,3.2,1.3,3.9c0.4,0.7,0.6,2.4,0.1,3.5
		c-0.6,1.1-1.3,2.4-2.6,3.2c-1.3,0.8-5.1,3.3-6,4.3c-0.9,0.9-2.7,3.5-2.7,3.5s9.7-2,16.8-1.9c7.2,0.1,14.6,1.4,14.6,1.4
		s-2.2-1-3.5-4.2c-1.3-3.2-0.3-5.3-0.1-6.1c0.2-0.8,1.1-2.7,0.2-5c-0.5-1.2-2-2.5-3-3.1c-0.9-0.6-3-1.2-5.4-4.2
		C51.8,49.8,50.3,46.8,50.3,46.8z"/>
</g>
<g>
	<path class="st1" d="M50,47.3c0,0-3.9,3.7-4.3,4.7c-0.4,1-1.3,2.5-0.8,4c0.6,1.6,1.5,2.9,1.6,3.7c0.1,0.9,0.8,2.8-1,5.1
		c-1.6,2.1-3.5,3.4-4.3,4.5c-0.8,1.1-2.2,3.4-2.2,3.4s0.5,0,1.1,0s1.3-0.2,1.3-0.2s1-2.3,1.4-3c0.4-0.6,3.2-3,3.6-3.9
		c0.4-0.9,2.4-3.4,0.8-6.5c-1.6-3-1.2-2.5-1.5-3.3c-0.2-0.8-0.4-2.2,0.3-3.2c0.7-1.1,2.8-3.8,2.8-3.8s-1.5,3.4-1.4,5.7
		c0.1,2.3,1.1,2.7,1.7,3.7c0.6,1.1,1.9,4,0.8,5.9c-1.2,1.9-2.3,3.8-2.8,5.3c-0.5,1.5-0.6,2.8-0.6,2.8s0.4-0.2,0.7-0.2
		c0.4,0.1,0.8,0.1,0.8,0.1s-0.1-1.9,0.5-3s1.9-3.4,2.3-4s1.2-3.9,0.4-5.3c-0.8-1.4-1.5-2.1-2.2-3.3s-1-2.9-0.7-4.1
		c0.3-1.2,0.8-3.3,0.8-3.3s0.4,2.5,0.7,3.3c0.4,0.8,1.8,3.6,2.8,4.7c1,1.2,1.7,3.7,1,6s-1.8,4.6-1.6,6.1s0.2,3,0.2,3s0.5-0.1,1,0
		c0.5,0.1,1.5,0.2,1.5,0.2s-1.4-1.7-1.4-2.7c0-1,0.1-3.3,0.7-4.3c0.6-1,1.8-4.2,0.9-6.3c-0.8-2.2-2.3-3.1-2.7-3.9
		c-0.4-0.8-1.5-2.6-1.8-3.6c-0.3-1-0.8-3-0.8-3s1.7,3.1,3.2,4.5c1.5,1.4,2.7,2.6,3.4,3.4c0.7,0.8,2,3.6,1.5,5.4
		c-0.5,1.8-1.7,5-0.9,7.4c0.8,2.4,1.5,3.3,1.5,3.3s0.7,0.1,1.1,0.2c0.4,0.1,1.4,0.2,1.4,0.2s-1.3-1.8-2-3.3s-0.9-3.5-0.5-4.7
		c0.4-1.2,1.4-4.7,0.8-6c-0.6-1.3-3.1-4-4.9-5.3c-1.8-1.3-3.6-4.4-4.1-5.2C50,47.8,50,47.3,50,47.3z"/>
	<path d="M61.3,73.3l-0.3,0c0,0-1-0.1-1.4-0.2c-0.4-0.1-1.1-0.2-1.1-0.2l-0.1,0l0,0c0,0-0.7-1-1.5-3.4c-0.7-2.2,0.1-4.9,0.7-6.8
		c0.1-0.2,0.1-0.5,0.2-0.7c0.5-1.8-0.9-4.5-1.5-5.3c-0.7-0.8-1.9-2-3.4-3.4c-1-1-2.1-2.7-2.8-3.7c0.2,0.7,0.4,1.6,0.6,2.1
		c0.2,0.6,0.7,1.7,1.2,2.5c0.2,0.4,0.4,0.8,0.6,1.1c0.1,0.2,0.4,0.5,0.7,0.9c0.6,0.7,1.5,1.6,2,3c0.8,2.2-0.4,5.5-0.9,6.4
		c-0.5,0.9-0.7,3.1-0.7,4.2c0,0.9,1.4,2.6,1.4,2.6l0.2,0.2l-0.3,0c0,0-1.1-0.1-1.5-0.2c-0.4-0.1-1,0-1,0l-0.1,0L52,69.3
		c-0.1-1.2,0.5-2.8,1.1-4.5c0.2-0.6,0.4-1.1,0.6-1.7c0.7-2.1,0-4.7-1-5.8c-1-1.2-2.4-3.9-2.8-4.8c-0.2-0.6-0.5-1.9-0.6-2.7
		c-0.2,0.7-0.5,1.9-0.7,2.7c-0.3,1.2,0,2.8,0.7,4c0.3,0.5,0.6,1,1,1.4c0.4,0.5,0.8,1.1,1.2,1.8c0.9,1.5,0,4.8-0.4,5.4
		c-0.4,0.6-1.7,2.8-2.3,4c-0.6,1.1-0.5,3-0.5,3l0,0.1h-0.1c0,0-0.5,0-0.8-0.1c-0.3,0-0.6,0.2-0.6,0.2l-0.2,0.1l0-0.3
		c0-0.1,0.1-1.4,0.6-2.8c0.5-1.4,1.6-3.3,2.8-5.3c1.1-1.8,0-4.6-0.8-5.8c-0.2-0.3-0.3-0.5-0.5-0.7c-0.5-0.7-1.1-1.4-1.2-3.1
		c-0.1-1.6,0.6-3.7,1-4.8c-0.7,0.9-1.8,2.3-2.2,3c-0.7,1.1-0.4,2.5-0.3,3.1c0,0.2,0.1,0.3,0.1,0.4c0.1,0.4,0.1,0.5,1.4,2.9
		c1.4,2.6,0.1,4.9-0.5,6.1c-0.1,0.2-0.2,0.4-0.3,0.5c-0.3,0.6-1.3,1.6-2.3,2.6c-0.6,0.6-1.2,1.1-1.3,1.4c-0.4,0.6-1.4,2.9-1.4,3
		l0,0.1l-0.1,0c0,0-0.7,0.2-1.3,0.2c-0.6,0-1.1,0-1.1,0l-0.3,0l0.1-0.2c0,0,1.5-2.2,2.2-3.4c0.3-0.5,0.9-1,1.6-1.7
		c0.8-0.8,1.8-1.7,2.7-2.9c1.5-2,1.2-3.7,1-4.7c0-0.1,0-0.3-0.1-0.4c-0.1-0.5-0.4-1.1-0.7-1.8c-0.3-0.6-0.6-1.2-0.9-2
		c-0.5-1.4,0.1-2.7,0.5-3.6c0.1-0.2,0.2-0.4,0.2-0.5c0.4-1,4.2-4.6,4.4-4.7l0.2-0.2v0.3c0,0,0,0.4,0.5,1.2c0.7,1.3,2.5,4,4.1,5.2
		c1.7,1.3,4.2,4,4.9,5.4c0.7,1.5-0.5,5.4-0.8,6.1c-0.4,1.1-0.2,3.1,0.5,4.6c0.6,1.5,2,3.2,2,3.2L61.3,73.3z M58.6,72.6
		c0.2,0,0.7,0.1,1.1,0.2c0.3,0.1,0.8,0.1,1.1,0.1c-0.4-0.5-1.3-1.9-1.8-3.1c-0.7-1.6-0.9-3.6-0.5-4.8c0.2-0.5,1.5-4.5,0.8-5.9
		c-0.6-1.3-3-3.9-4.8-5.3c-2-1.5-4.1-5.2-4.1-5.2c-0.3-0.5-0.4-0.8-0.4-1c-0.8,0.7-3.8,3.6-4.1,4.5c-0.1,0.2-0.1,0.3-0.2,0.5
		c-0.4,1-1,2.1-0.5,3.4c0.3,0.7,0.6,1.4,0.9,1.9c0.4,0.7,0.7,1.3,0.8,1.8c0,0.1,0,0.2,0.1,0.4c0.2,1,0.5,2.8-1.1,4.9
		c-0.9,1.2-1.9,2.1-2.7,2.9c-0.7,0.6-1.2,1.2-1.5,1.6c-0.6,0.9-1.7,2.6-2.1,3.1c0.2,0,0.5,0,0.9,0c0.5,0,1-0.2,1.2-0.2
		c0.2-0.4,1-2.4,1.4-2.9c0.2-0.3,0.7-0.8,1.4-1.4c0.9-0.9,2-1.9,2.2-2.5c0.1-0.2,0.2-0.3,0.3-0.6c0.6-1.2,1.8-3.3,0.5-5.8
		c-1.3-2.4-1.3-2.6-1.4-3c0-0.1,0-0.2-0.1-0.4c-0.2-0.7-0.5-2.2,0.3-3.3c0.7-1,2.8-3.8,2.8-3.8l0.2,0.1c0,0-1.5,3.4-1.4,5.6
		c0.1,1.6,0.6,2.3,1.1,2.9c0.2,0.2,0.4,0.5,0.5,0.7c0.8,1.3,1.9,4.1,0.8,6c-1.2,2-2.3,3.8-2.8,5.2c-0.4,1.1-0.5,2.1-0.6,2.5
		c0.2-0.1,0.4-0.1,0.6-0.1c0.2,0,0.5,0,0.7,0.1c0-0.5,0-2,0.5-3c0.6-1.2,1.9-3.4,2.4-4c0.4-0.5,1.2-3.8,0.4-5.1
		c-0.4-0.7-0.8-1.3-1.2-1.8c-0.3-0.5-0.7-0.9-1-1.5c-0.7-1.2-1-2.9-0.7-4.2c0.3-1.2,0.8-3.3,0.8-3.3l0.3,0c0,0,0.4,2.5,0.7,3.2
		c0.4,0.9,1.8,3.6,2.8,4.7c1.1,1.2,1.7,3.9,1,6.1c-0.2,0.6-0.4,1.1-0.6,1.7c-0.6,1.7-1.1,3.3-1.1,4.4l0.2,2.9c0.2,0,0.6,0,0.9,0
		c0.3,0,0.9,0.1,1.2,0.1c-0.4-0.5-1.2-1.7-1.2-2.5c0-0.3,0-3.1,0.7-4.3c0.5-0.9,1.7-4.1,0.9-6.2c-0.5-1.4-1.3-2.3-1.9-2.9
		c-0.3-0.4-0.6-0.7-0.7-1c-0.1-0.3-0.3-0.6-0.5-1c-0.5-0.8-1-1.9-1.2-2.5c-0.3-1-0.8-3-0.8-3l0.2-0.1c0,0,1.7,3.1,3.2,4.5
		c1.5,1.4,2.7,2.6,3.4,3.4c0.6,0.8,2.1,3.6,1.5,5.5c-0.1,0.2-0.1,0.4-0.2,0.7c-0.6,1.8-1.4,4.5-0.7,6.6
		C57.9,71.4,58.5,72.4,58.6,72.6z"/>
</g>
<g>
	<polygon class="st5" points="39.8,25.4 61,25.5 62.8,27.3 62.8,27.8 37.6,27.8 37.6,27.3 	"/>
	<path d="M37.3,28.1v-1l2.4-2l21.4,0.1l1.9,1.9l0.1,0.8L37.3,28.1z M37.8,27.4v0.2l24.7-0.1l0-0.1l-1.6-1.7l-21-0.1L37.8,27.4z"/>
</g>
<g>
	<polygon class="st5" points="39.3,28.2 38.1,29.3 38,29.7 40.3,29.7 40.1,40.6 60.4,40.7 60.5,29.7 62.4,29.7 62.4,29.3 61.7,28.3 
			"/>
	<path d="M60.7,41l-20.8-0.1L40,30h-2.4l0.3-0.8l1.3-1.2L61.8,28l0.9,1.2V30h-1.9L60.7,41z M40.4,40.3l19.8,0.1l0.1-11h1.9v-0.1
		l-0.6-0.8l-22.2-0.1l-1,1l0,0h2.2L40.4,40.3z"/>
</g>
<g>
	<path class="st0" d="M40.1,40.7c-0.4,0-1.1,1.1-0.1,1.1c1,0,20.2,0.1,20.9,0.1c0.7,0,0.9-1,0.1-0.9C60.2,41,40.8,40.7,40.1,40.7z"
		/>
	<path d="M60.9,42.1c-0.3,0-4.3,0-8.7,0c-5.5,0-11.7,0-12.2,0c-0.2,0-0.4-0.1-0.6-0.2c-0.1-0.1-0.2-0.3-0.2-0.5c0-0.4,0.5-1,0.9-1
		c0.2,0,1.6,0,3.6,0c5.4,0.1,16.7,0.2,17.3,0.2c0.4,0,0.6,0.1,0.7,0.3c0.1,0.2,0.1,0.5,0,0.7C61.5,41.9,61.2,42.1,60.9,42.1z
		 M40.1,40.9c-0.1,0-0.4,0.3-0.3,0.5c0,0.1,0.2,0.1,0.3,0.1c0.6,0,6.8,0,12.2,0c4.4,0,8.4,0,8.7,0c0.2,0,0.3-0.1,0.3-0.2
		c0-0.1,0-0.2,0-0.2c0,0-0.1,0-0.2,0c-0.6,0.1-9.3-0.1-17.4-0.2C41.7,41,40.3,40.9,40.1,40.9z"/>
</g>
<g>
	<polygon class="st5" points="39.9,41.8 36.1,45.6 64.7,45.8 61.1,41.8 	"/>
	<path d="M65.3,46.1l-29.8-0.2l4.3-4.4h21.4L65.3,46.1z M36.7,45.4l27.4,0.2L61,42H40L36.7,45.4z"/>
</g>
<g>
	<path class="st0" d="M36.3,45.8c0,0,0.1,0.8,1,0.8c0.9,0,26.3,0.3,26.8,0.3c0.6,0,0.5-1,0.5-1L36.3,45.8z"/>
	<path d="M64.1,47.1c-0.3,0-5.4-0.1-11.4-0.1c-7-0.1-15-0.2-15.5-0.2c-0.9,0-1.2-0.7-1.3-1L36,45.5l28.9,0.1l0,0.2
		c0,0.1,0,0.7-0.3,1.1C64.5,47,64.3,47.1,64.1,47.1z M36.7,46c0.1,0.1,0.3,0.3,0.6,0.3c0.5,0,8.5,0.1,15.5,0.2
		c5.7,0.1,11.1,0.1,11.3,0.1c0,0,0.1,0,0.1,0c0.1-0.1,0.1-0.3,0.1-0.5L36.7,46z"/>
</g>
<g>
	<polygon class="st5" points="38.2,46.6 38.2,47.4 62.8,47.4 62.8,46.8 	"/>
	<path d="M37.9,47.7v-1.3l25.2,0.2v1L37.9,47.7z M38.4,46.9v0.3l23.6-0.1L38.4,46.9z"/>
</g>
<g>
	<polygon points="40.7,29.2 59.9,29.4 59.9,30.1 40.7,29.9 	"/>
	<path d="M60.2,30.4l-19.8-0.2l0.1-1.2l19.7,0.2V30.4z M40.9,29.7l18.7,0.2v-0.2L41,29.5L40.9,29.7z"/>
</g>
<g>
	<polygon class="st0" points="40.3,30.1 41.2,31.3 41.1,39.3 40.2,40.3 	"/>
	<path d="M39.9,41l0.1-11.7l1.4,1.9l-0.1,8.3L39.9,41z M40.6,30.9l-0.1,8.8l0.4-0.4l0.1-7.9L40.6,30.9z"/>
</g>
<g>
	<polygon class="st0" points="60.4,29.8 59.3,31.1 59.3,39.3 60.4,40.6 	"/>
	<path d="M60.7,41.3l-1.6-1.9v-8.3l1.6-2V41.3z M59.6,39.2l0.6,0.7v-9.3l-0.6,0.7V39.2z"/>
</g>
<g>
	<circle class="st0" cx="50" cy="44.3" r="2.2"/>
	<path d="M50,46.7c-1.4,0-2.5-1.1-2.5-2.5s1.1-2.5,2.5-2.5c1.4,0,2.5,1.1,2.5,2.5S51.4,46.7,50,46.7z M50,42.3
		c-1.1,0-1.9,0.9-1.9,1.9s0.9,1.9,1.9,1.9c1.1,0,1.9-0.9,1.9-1.9S51.1,42.3,50,42.3z"/>
</g>
<g>
	<circle class="st0" cx="50" cy="44.3" r="1.5"/>
	<path d="M50,45.9c-0.9,0-1.7-0.8-1.7-1.7c0-0.9,0.8-1.7,1.7-1.7c0.9,0,1.7,0.8,1.7,1.7C51.7,45.2,51,45.9,50,45.9z M50,43
		c-0.7,0-1.3,0.6-1.3,1.3s0.6,1.3,1.3,1.3s1.3-0.6,1.3-1.3S50.8,43,50,43z"/>
</g>
<g>
	<circle class="st0" cx="50" cy="36.8" r="4.7"/>
	<path d="M50,41.8c-2.7,0-5-2.2-5-5c0-2.7,2.2-5,5-5c2.7,0,5,2.2,5,5C55,39.5,52.8,41.8,50,41.8z M50,32.3c-2.5,0-4.5,2-4.5,4.5
		c0,2.5,2,4.5,4.5,4.5c2.5,0,4.5-2,4.5-4.5C54.5,34.3,52.5,32.3,50,32.3z"/>
</g>
<g>
	<path class="st6" d="M46.3,30.6c0.5,0.5,9.3,11.1,9.9,11.4c0.5,0.4,1.7,0.5,2.5,0.5c0.8,0,1.8,1.3,1.6,2c-0.2,0.7-0.2,1.3-1.5,1.3
		c-1.3,0-1.7-0.6-2.2-1.1c-0.5-0.5-9.5-12-10-12.3c-0.5-0.4-0.9-0.8-1.8-0.8c-0.8,0-0.9-0.4-0.6-0.7c0.3-0.3,1-1,1.3-0.9
		C45.9,30.1,45.8,30.1,46.3,30.6z"/>
	<path d="M58.8,46.1c-1.3,0-1.8-0.6-2.2-1c-0.1-0.1-0.1-0.1-0.2-0.2c-0.2-0.2-1.4-1.7-3-3.7c-2.6-3.3-6.6-8.3-6.9-8.6l-0.1-0.1
		c-0.4-0.3-0.8-0.6-1.5-0.6c-0.7,0-0.9-0.2-1-0.4c-0.1-0.2,0-0.5,0.2-0.7c0.7-0.7,1.2-1.1,1.6-1l0,0c0.3,0.1,0.3,0.1,0.6,0.4
		l0.2,0.2c0.2,0.2,1.5,1.7,3.1,3.6c2.5,3,6.4,7.5,6.7,7.8c0.5,0.3,1.6,0.5,2.4,0.5c0.4,0,0.9,0.2,1.3,0.7c0.4,0.5,0.7,1.2,0.6,1.6
		l0,0.1C60.4,45.4,60.2,46.1,58.8,46.1z M45.5,30.3c-0.1,0-0.3,0.1-1.1,0.9c-0.1,0.1-0.1,0.1-0.1,0.1c0,0,0.1,0.1,0.5,0.1
		c0.9,0,1.3,0.4,1.8,0.7l0.1,0.1c0.3,0.2,3.2,3.9,7,8.7c1.5,1.9,2.8,3.5,3,3.7c0.1,0.1,0.1,0.1,0.2,0.2c0.4,0.4,0.8,0.9,1.8,0.9
		c1.1,0,1.1-0.4,1.3-1l0-0.1c0.1-0.3-0.1-0.8-0.5-1.2c-0.3-0.3-0.6-0.5-0.9-0.5c-0.8,0-2.1-0.1-2.7-0.5c-0.3-0.2-3.2-3.6-6.8-7.9
		c-1.6-1.8-2.9-3.4-3.1-3.6L46,30.6C45.7,30.3,45.7,30.3,45.5,30.3L45.5,30.3C45.5,30.3,45.5,30.3,45.5,30.3z"/>
</g>
<g>
	<path class="st6" d="M54.3,30.6c-0.5,0.5-9.3,11.1-9.9,11.4c-0.5,0.4-1.7,0.5-2.5,0.5c-0.8,0-1.8,1.3-1.6,2
		c0.2,0.6,0.2,1.3,1.5,1.3c1.3,0,1.7-0.6,2.2-1.1c0.5-0.5,9.5-12,10-12.3c0.5-0.4,0.9-0.8,1.8-0.8c0.8,0,0.9-0.4,0.6-0.7
		c-0.3-0.3-1-1-1.3-0.9C54.7,30.1,54.8,30.1,54.3,30.6z"/>
	<path d="M41.8,46.1c-1.4,0-1.6-0.8-1.8-1.4l0-0.1c-0.1-0.5,0.2-1.2,0.5-1.6c0.4-0.5,0.9-0.8,1.3-0.7c0.8,0,1.9-0.1,2.4-0.5
		c0.4-0.3,4.2-4.8,6.7-7.8c1.6-1.9,2.9-3.4,3.1-3.6l0.2-0.2c0.3-0.3,0.3-0.3,0.6-0.4l0,0c0.4-0.1,0.9,0.3,1.6,1
		c0.2,0.2,0.3,0.5,0.2,0.7c-0.1,0.2-0.3,0.4-1,0.4c-0.7,0-1,0.3-1.5,0.6l-0.1,0.1c-0.3,0.3-4.3,5.3-6.9,8.6c-1.6,2.1-2.8,3.5-3,3.7
		C44.1,45,44.1,45,44,45.1C43.6,45.5,43.1,46.1,41.8,46.1z M41.8,42.8c-0.3,0-0.6,0.2-0.9,0.6c-0.3,0.4-0.5,0.9-0.4,1.1l0,0.2
		c0.1,0.6,0.2,1,1.3,1c1.1,0,1.4-0.4,1.8-0.9c0.1-0.1,0.1-0.1,0.2-0.2c0.2-0.2,1.5-1.8,3-3.7c3.8-4.8,6.7-8.4,7-8.7l0.1-0.1
		c0.5-0.4,0.9-0.7,1.8-0.7c0.4,0,0.5-0.1,0.5-0.1c0,0,0-0.1-0.1-0.1c-0.8-0.8-1-0.9-1.1-0.9l0,0c-0.2,0-0.2,0-0.4,0.3l-0.2,0.2
		c-0.2,0.2-1.5,1.8-3.1,3.6c-3.7,4.3-6.5,7.6-6.8,7.9C43.9,42.6,42.7,42.8,41.8,42.8C41.9,42.8,41.8,42.8,41.8,42.8z"/>
</g>
<g>
	<path class="st6" d="M51.7,36.6c0.4-0.2,2.4-0.4,2.9-0.4"/>
	<path d="M51.8,36.8l-0.2-0.5c0.4-0.2,2.5-0.5,3-0.4l0,0.5C54.1,36.4,52.1,36.7,51.8,36.8z"/>
</g>
<g>
	<path class="st1" d="M53,38.1c0.4-0.1,1.2-0.2,1.5-0.1"/>
	<path d="M53.1,38.4l-0.1-0.5c0.4-0.1,1.3-0.2,1.6-0.1l-0.1,0.5C54.2,38.2,53.5,38.3,53.1,38.4z"/>
</g>
<g>
	<path class="st0" d="M52.3,34.7c0.3-0.1,1.2-0.3,1.6-0.3"/>
	<path d="M52.3,34.8l-0.1-0.4c0.2-0.1,1.3-0.4,1.7-0.3l0,0.4C53.6,34.5,52.7,34.7,52.3,34.8z"/>
</g>
<g>
	<path class="st0" d="M51.6,38.5c0,0.3,0,2.5-0.3,2.8"/>
	<path d="M51.4,41.5l-0.3-0.2c0.2-0.2,0.3-1.7,0.3-2.2c0-0.3,0-0.4,0-0.5l0.4,0.1c0,0.1,0,0.3,0,0.5C51.7,40.1,51.6,41.1,51.4,41.5z
		"/>
</g>
<g>
	<path class="st0" d="M49.9,37.4c0,0.6,0.1,3.1-0.3,4"/>
	<path d="M49.7,41.5l-0.4-0.2c0.4-0.8,0.4-3.3,0.3-3.9l0.4,0C50.1,37.8,50.2,40.5,49.7,41.5z"/>
</g>
<g>
	<path class="st0" d="M48.5,39.1c0,0.6-0.1,1.6-0.4,2"/>
	<path d="M48.3,41.2L48,41c0.2-0.4,0.4-1.3,0.4-1.9h0.4C48.7,39.7,48.6,40.7,48.3,41.2z"/>
</g>
<g>
	<path class="st0" d="M49,33.6c0-0.4,0.4-1.2,0.8-1.5"/>
	<path d="M49.2,33.6l-0.4,0c0-0.4,0.4-1.3,0.9-1.6l0.2,0.3C49.6,32.5,49.2,33.3,49.2,33.6z"/>
</g>
<g>
	<path class="st0" d="M50.2,34.7c0.1-0.4,0.6-2.1,1-2.4"/>
	<path d="M50.4,34.7L50,34.7c0,0,0.5-2.1,1.1-2.5l0.2,0.3C51,32.7,50.6,34.1,50.4,34.7z"/>
</g>
<g>
	<path class="st0" d="M47.2,38.7c-0.6,0-1.5-0.3-1.8-0.8"/>
	<path d="M47.2,38.9c-0.6,0-1.6-0.4-2-0.9l0.3-0.2c0.3,0.4,1.1,0.7,1.7,0.7V38.9z"/>
</g>
<g>
	<path class="st0" d="M48.7,36.8c-0.9,0-1.8,0-3.2-0.9"/>
	<path d="M48.2,37c-0.8,0-1.6-0.2-2.9-0.9l0.2-0.3c1.5,1,2.3,0.9,3.1,0.9l0,0.4C48.5,37,48.4,37,48.2,37z"/>
</g>
<g>
	<path class="st0" d="M46.3,34c0.3,0.3,1,0.8,2.5,0.9"/>
	<path d="M48.8,35.1c-1.1-0.1-2-0.4-2.7-0.9l0.3-0.3c0.6,0.5,1.4,0.8,2.4,0.8L48.8,35.1z"/>
</g>
<g>
	<path class="st0" d="M48.7,37.1c0-0.5-0.1-2,0-2.5"/>
	<path d="M48.9,37.1l-0.4,0c0-0.2,0-0.6,0-1c0-0.6-0.1-1.2,0-1.5l0.4,0.1c0,0.2,0,0.8,0,1.4C48.9,36.5,48.9,36.9,48.9,37.1z"/>
</g>
<g>
	<path class="st0" d="M48.9,43.4c0.2,0.2,0.2,1.3,0.3,1.5c0.1,0.2,0.4,0.5,0.7,0.5c0.4,0,0.8-0.2,0.9-0.5c0.1-0.3,0-1.5,0.2-1.7
		c0.2-0.2-0.1-0.6-0.4-0.3c-0.3,0.3-0.4,0.7-0.4,1.6c0,0.4-0.6,0.5-0.6,0c0-0.5-0.1-1.1-0.4-1.5C49,42.6,48.6,42.9,48.9,43.4z"/>
	<path d="M50,45.6c-0.4,0-0.8-0.3-0.9-0.6c0-0.1-0.1-0.3-0.1-0.6c0-0.3-0.1-0.8-0.2-0.9c-0.2-0.2-0.2-0.4-0.2-0.6
		c0-0.1,0.2-0.2,0.3-0.2c0.2,0,0.4,0.1,0.5,0.2c0.3,0.4,0.5,1.1,0.5,1.6c0,0.1,0,0.1,0,0.1c0,0,0.1,0,0.2,0c0,0,0.1-0.1,0-0.1
		c-0.1-0.9,0.1-1.3,0.4-1.7c0.1-0.2,0.3-0.2,0.4-0.2c0.2,0,0.3,0.2,0.3,0.3c0,0.2,0,0.3-0.1,0.4c-0.1,0.1-0.1,0.6-0.1,0.8
		c0,0.4,0,0.6-0.1,0.8C50.9,45.3,50.5,45.6,50,45.6z M49.1,43.2c0.1,0.2,0.2,0.5,0.3,1.1c0,0.2,0.1,0.4,0.1,0.5
		c0.1,0.2,0.3,0.3,0.5,0.3c0.3,0,0.6-0.1,0.7-0.4c0-0.1,0-0.4,0.1-0.6c0-0.6,0-1,0.2-1.1c0,0,0,0,0,0c0,0,0,0,0,0c0,0,0,0,0,0
		c-0.2,0.3-0.4,0.6-0.3,1.5c0,0.2-0.1,0.4-0.2,0.5c-0.2,0.1-0.4,0.1-0.6,0c-0.2-0.1-0.2-0.2-0.3-0.4c0-0.5-0.1-1.1-0.4-1.4
		C49.1,43.1,49,43,49,43C49,43,49,43.1,49.1,43.2L49.1,43.2z"/>
</g>
<g>
	<polygon class="st0" points="39.3,27.8 39.3,28.5 61.7,28.6 61.7,27.8 	"/>
	<path d="M61.9,28.9l-22.8-0.1v-1.3l23,0.1L61.9,28.9z M39.6,28.3l21.9,0.1l0-0.2L39.6,28V28.3z"/>
</g>
<g>
	<path class="st0" d="M20.6,28v-1.2c0,0,0.4-0.1,0.7-0.1c0.4,0.1,0.8,0.2,0.8,0.2V28H20.6z"/>
	<path d="M22.2,28.1h-1.7v-1.4l0.1,0c0,0,0.4-0.1,0.8-0.1c0.4,0.1,0.8,0.2,0.8,0.2l0.1,0V28.1z M20.8,27.8H22V27
		c-0.1,0-0.4-0.1-0.6-0.2c-0.2,0-0.4,0-0.6,0V27.8z"/>
</g>
<g>
	<line class="st0" x1="19.5" y1="27.9" x2="22.9" y2="27.9"/>
	<rect x="19.5" y="27.6" width="3.4" height="0.5"/>
</g>
<g>
	<path class="st0" d="M17,24.1c1.1-0.1,7.3-0.2,9.4,0.1"/>
	<path d="M26.4,24.5c-2.1-0.3-8.2-0.2-9.4-0.1l0-0.5c1.1-0.1,7.3-0.2,9.5,0.1L26.4,24.5z"/>
</g>
<g>
	<polygon points="15.3,24.3 15.3,24.7 15.9,24.7 15.9,24.1 	"/>
	<path d="M16,24.8h-0.8l-0.1-0.6L16,24V24.8z M15.4,24.5h0.3v-0.2l-0.3,0.1L15.4,24.5z"/>
</g>
<g>
	<polygon points="17.3,24.1 17.4,24.5 18,24.5 18,24 	"/>
	<path d="M18.1,24.7h-0.8L17.2,24l0.9-0.2V24.7z M17.5,24.4h0.3v-0.2l-0.3,0.1L17.5,24.4z"/>
</g>
<g>
	<polygon points="18.8,24.1 18.8,24.5 19.4,24.5 19.4,24 	"/>
	<path d="M19.5,24.6h-0.8L18.6,24l0.9-0.2V24.6z M18.9,24.4h0.3v-0.2l-0.3,0.1L18.9,24.4z"/>
</g>
<g>
	<polygon points="25.2,24.2 25.2,24.6 25.8,24.6 25.8,24.1 	"/>
	<path d="M25.9,24.7h-0.8L25,24.1l0.9-0.2V24.7z M25.3,24.5h0.3v-0.2l-0.3,0.1L25.3,24.5z"/>
</g>
<g>
	<polygon points="23.6,24 23.7,24.4 24.2,24.4 24.2,23.9 	"/>
	<path d="M24.3,24.6h-0.8l-0.1-0.6l0.9-0.2V24.6z M23.8,24.3h0.3v-0.2l-0.3,0.1L23.8,24.3z"/>
</g>
<g>
	<polygon points="22,24.1 22,24.5 22.6,24.5 22.6,23.9 	"/>
	<path d="M22.7,24.6h-0.8L21.8,24l0.9-0.2V24.6z M22.1,24.3h0.3v-0.2l-0.3,0.1L22.1,24.3z"/>
</g>
<g>
	<polygon points="20.4,24 20.4,24.5 21,24.5 21,23.9 	"/>
	<path d="M21.1,24.6h-0.8l-0.1-0.6l0.9-0.2V24.6z M20.5,24.3h0.3v-0.2l-0.3,0.1L20.5,24.3z"/>
</g>
<g>
	<polygon points="17.2,21.4 17.2,19.9 17.4,19.9 17.4,21.1 17.8,21.1 17.9,21.3 	"/>
</g>
<g>
	<polygon points="26.1,21.5 25.6,21.4 25.6,21.2 25.9,21.2 25.9,20 26.2,20 	"/>
</g>
<g>
	<path d="M51.3,96.4L51.3,96.4c-0.2,0-9.9-2.5-19.6-8.5c-5.7-3.5-10.3-7.6-13.7-12c-4.2-5.6-6.5-11.8-6.7-18.4c0-0.1,0-44.6,0-53.6
		V3.6l77.8,0l0,0.3c0,5.6,0,54.7-0.1,54.9c-0.5,6.6-2.8,12.7-6.8,18.1c-3.2,4.3-7.5,8.2-12.8,11.6C60.3,94.1,51.5,96.3,51.3,96.4
		L51.3,96.4z M11.8,4.1c0,4,0,53.1,0,53.3c0.2,6.5,2.5,12.6,6.6,18.1c3.3,4.4,7.9,8.4,13.6,11.9c9.3,5.7,18.5,8.2,19.4,8.4
		c0.8-0.2,9.2-2.4,17.7-7.9c5.2-3.3,9.5-7.2,12.7-11.4c4-5.3,6.2-11.3,6.7-17.8c0-0.5,0-50.5,0-54.6L11.8,4.1z"/>
</g>
<g>
	<path class="st4" d="M9.3,76.1c1.3,1.7,1.9,2,5,2.4c1.7,0.2,12.6-2.5,14.4-3.1c1.7-0.6,15.3-3.1,18.7-3.1c3.5,0,18.9,1.8,23.2,2.7
		c6.8,1.5,8.3,2.8,11.7,3.8c3.5,1.1,5.6,0.9,7.1-0.5c1.5-1.4-3.5,6.9-3.5,6.9s-0.6,1-3.2,0.9c-2.6-0.1-7.4-1.6-10-2.7
		c-2.6-1.1-14.9-3.3-21.5-3.5c-6.3-0.1-20.3,2.9-22.4,3.5c-2.1,0.6-8.9,2.1-10.9,2.1c-2,0-3.3-1.4-3.3-1.4S9.3,76,9.3,76.1z"/>
	<path d="M83,86.4c-0.1,0-0.3,0-0.4,0c-2.7-0.1-7.6-1.7-10.1-2.8c-2.6-1.1-14.8-3.3-21.4-3.5c-6.4-0.1-20.4,2.9-22.4,3.5
		c-2,0.6-8.9,2.1-11,2.1c-2.1,0-3.5-1.4-3.5-1.4l0,0l-4.9-7.7c-0.1-0.1-0.1-0.2-0.2-0.3c0,0,0,0,0,0l0,0C9,76,9,76,9.2,75.9l0.2-0.1
		l0.2,0.2c1.2,1.6,1.7,1.9,4.8,2.3c1.6,0.2,12.5-2.5,14.3-3.1c1.8-0.6,15.3-3.1,18.8-3.1c3.6,0,19,1.8,23.2,2.7
		c4.6,1,6.8,1.9,8.7,2.7c0.9,0.4,1.8,0.8,2.9,1.1c3.2,1,5.3,0.9,6.8-0.4c0.1-0.1,0.4-0.3,0.6-0.2c0.2,0.2,0.5,0.4-3.7,7.4
		C86,85.4,85.4,86.4,83,86.4z M50.7,79.7c0.1,0,0.3,0,0.4,0c6.6,0.1,18.9,2.4,21.5,3.5c2.5,1.1,7.3,2.6,10,2.7c2.4,0.1,3-0.7,3-0.8
		c1.2-2.1,2.9-5,3.5-6.3c-1.6,1.2-3.8,1.3-7,0.3c-1.1-0.4-2-0.7-3-1.1c-1.9-0.8-4.1-1.7-8.6-2.7c-4.2-0.9-19.6-2.7-23.1-2.7
		c-3.5,0-16.9,2.5-18.6,3.1c-1.8,0.7-12.7,3.3-14.5,3.1c-1.8-0.2-2.7-0.4-3.5-0.8c1.1,1.8,2.8,4.4,3.9,6.1c0.2,0.2,1.4,1.3,3.1,1.3
		c1.9,0,8.6-1.4,10.8-2.1C30.5,82.6,44.1,79.7,50.7,79.7z"/>
</g>
<g>
	<g>
		<path d="M20.8,78.6c-0.1,0.3-0.1,0.7-0.2,1c0,0.1-0.2,0.1-0.2,0c0-0.6-0.3-0.9-0.9-0.8c-0.5,0.1-1.1,0.4-1.5,1.1
			c-0.3,0.5-0.5,1.3-0.4,2c0.2,1,0.7,1.4,1.4,1.2c0.6-0.1,1-0.5,1.3-1.2c0.1-0.1,0.2-0.1,0.2,0c0,0.3-0.2,0.8-0.3,1.1
			c-0.1,0-0.3,0.1-0.5,0.2c-0.2,0.1-0.4,0.1-0.7,0.2C18,83.6,17,83.2,16.8,82c-0.1-0.9,0.2-1.7,0.6-2.3c0.4-0.5,1.1-1,2.1-1.2
			C20.1,78.5,20.6,78.6,20.8,78.6z"/>
	</g>
	<g>
		<path d="M21.5,80.6c0-0.1,0-0.2-0.1-0.2c-0.1,0-0.4,0.4-0.5,0.6c-0.1,0-0.1,0-0.1-0.1c0.1-0.4,0.6-1,1.1-1.1
			c0.1,0,0.3,0.1,0.3,0.2c0,0,0,0.1,0,0.2l-0.3,1.9c0,0.1,0,0.2,0.1,0.2c0.1,0,0.2-0.2,0.4-0.5c0.4-0.7,0.7-1.6,0.8-2.2
			c0,0,0.1-0.1,0.2-0.1c0.1,0,0.3,0,0.4,0.1c-0.1,0.5-0.2,1.4-0.3,2.2c0,0.1,0,0.2,0.1,0.2c0.1,0,0.4-0.4,0.5-0.6
			c0.1,0,0.1,0,0.1,0.1c-0.1,0.4-0.6,1-1.1,1.1c-0.1,0-0.3-0.1-0.3-0.2l0.2-1.2l0,0c-0.3,0.7-0.9,1.7-1.3,1.8
			c-0.2,0-0.4-0.1-0.4-0.2c0-0.1,0-0.2,0-0.3L21.5,80.6z"/>
	</g>
	<g>
		<path d="M25.2,81.4c0,0.1,0,0.1,0.1,0.1c0.1,0,0.4-0.4,0.6-0.6c0.1,0,0.1,0,0.1,0.1c-0.1,0.3-0.6,1-1.1,1.1
			c-0.1,0-0.2-0.1-0.3-0.2c0-0.1,0-0.1,0-0.3l0.3-1.9c0-0.1,0-0.1,0-0.1c-0.1,0-0.3,0.3-0.5,0.5c-0.1,0-0.1-0.1-0.1-0.1
			c0.3-0.5,0.8-0.9,1-1c0.1,0,0.2,0,0.3,0.1c0,0,0,0.1,0,0.3L25.2,81.4z M24.7,77.9c-0.1-0.2,0-0.5,0.3-0.6c0.2,0,0.3,0,0.4,0.2
			c0.1,0.3-0.1,0.5-0.3,0.6C24.9,78.2,24.8,78.1,24.7,77.9z"/>
	</g>
	<g>
		<path d="M27.1,78.9L27,80l0,0c0.3-0.7,0.7-1.6,1.2-1.7c0.4-0.1,0.5,0.3,0.5,0.5c0,0.1-0.1,0.6-0.1,0.9l0,0c0.3-1,0.8-1.6,1.2-1.7
			c0.3-0.1,0.5,0.1,0.5,0.3c0,0.1,0,0.3,0,0.5c0,0.4-0.2,1.2-0.2,1.5c0,0.1,0,0.1,0.1,0.1c0.1,0,0.4-0.3,0.5-0.6
			c0.1,0,0.1,0,0.1,0.1c-0.1,0.4-0.6,1-1.1,1.1c-0.1,0-0.3-0.1-0.3-0.2c0-0.1,0-0.2,0-0.4c0.1-0.4,0.2-1,0.2-1.5c0-0.1,0-0.3,0-0.4
			c0-0.1,0-0.1-0.1-0.1c-0.1,0-0.3,0.3-0.6,0.8c-0.2,0.5-0.4,1.2-0.6,2c0,0.1-0.1,0.1-0.2,0.2c-0.2,0-0.4,0.1-0.4-0.1
			c0,0,0.2-1.5,0.3-1.9c0-0.1,0.1-0.3,0-0.4c0-0.1-0.1-0.1-0.1-0.1c-0.1,0-0.4,0.3-0.6,0.8c-0.2,0.5-0.4,1.2-0.6,2
			c0,0.1-0.1,0.1-0.2,0.2c-0.2,0-0.4,0-0.4-0.1c0-0.1,0.2-1.9,0.2-2.1c0-0.2,0-0.2-0.1-0.2c-0.2,0-0.4,0.3-0.5,0.5
			c-0.1,0-0.1,0-0.1-0.1c0.1-0.4,0.4-0.8,1-1C27.1,78.6,27.2,78.7,27.1,78.9z"/>
	</g>
	<g>
		<path d="M31.5,76.4c0-0.4,0.1-0.5-0.1-0.5l-0.2-0.1c0,0,0-0.1,0-0.1c0.1-0.1,0.7-0.3,1-0.4c0,0,0,0,0.1,0
			c-0.1,0.4-0.1,0.8-0.2,1.2l-0.3,2.2l0,0c0.3-0.5,0.5-0.8,0.7-1c0.2-0.2,0.4-0.4,0.7-0.5c0.3-0.1,0.5,0.1,0.6,0.4
			c0.1,0.5-0.1,1.3-0.2,1.7c-0.1,0.4-0.5,0.8-0.8,0.9c-0.2,0-0.3-0.1-0.4-0.2c0-0.1,0.1-0.3,0.2-0.3c0,0,0.1,0,0.1,0
			c0.1,0.1,0.1,0.1,0.2,0.1c0.1,0,0.1-0.1,0.1-0.3c0.1-0.5,0.2-1.5,0.2-1.8c0-0.1-0.1-0.2-0.2-0.2c-0.1,0-0.2,0.1-0.3,0.2
			c-0.2,0.2-0.3,0.4-0.5,0.9c-0.2,0.5-0.4,1.4-0.5,1.7c0,0.1-0.1,0.1-0.2,0.2c-0.1,0-0.4,0-0.3-0.2L31.5,76.4z"/>
	</g>
	<g>
		<path d="M36.9,76.9c0,0.1,0,0.4,0,0.6c-0.1,0.4-0.2,1.1-0.3,1.4c0,0.1,0,0.1,0,0.1c0.1,0,0.4-0.3,0.5-0.6c0.1,0,0.1,0,0.1,0.1
			c-0.2,0.4-0.6,0.9-1.1,1c-0.1,0-0.3-0.1-0.3-0.2c0-0.1,0-0.2,0-0.4c0.1-0.4,0.2-1,0.3-1.5c0-0.1,0.1-0.3,0-0.4
			c0-0.1,0-0.1-0.1-0.1c-0.1,0-0.4,0.3-0.6,0.7c-0.3,0.5-0.5,1.2-0.7,2c0,0.1-0.1,0.1-0.2,0.2c-0.1,0-0.4,0-0.3-0.2
			c0-0.1,0.3-1.9,0.4-2.1c0-0.1,0-0.2-0.1-0.2c-0.1,0-0.4,0.2-0.5,0.5c-0.1,0-0.1,0-0.1-0.1c0.2-0.4,0.6-0.8,1-0.9
			c0.2,0,0.3,0.2,0.3,0.3l-0.2,1.1l0,0c0.3-0.7,0.8-1.6,1.4-1.7C36.8,76.5,36.9,76.7,36.9,76.9z"/>
	</g>
	<g>
		<path d="M38.4,78.6c0,0.1,0,0.1,0,0.1c0.1,0,0.4-0.3,0.6-0.6c0.1,0,0.1,0,0.1,0.1c-0.1,0.3-0.7,0.9-1.2,1c-0.1,0-0.2-0.1-0.3-0.2
			c0-0.1,0-0.2,0-0.3l0.5-1.9c0-0.1,0-0.1,0-0.1c-0.1,0-0.3,0.2-0.5,0.5c-0.1,0-0.1-0.1-0.1-0.1c0.3-0.5,0.8-0.9,1.1-0.9
			c0.1,0,0.2,0.1,0.3,0.2c0,0.1,0,0.1,0,0.3L38.4,78.6z M38.2,75.1c0-0.2,0.1-0.5,0.4-0.6c0.2,0,0.3,0.1,0.4,0.3
			c0,0.3-0.1,0.5-0.4,0.6C38.4,75.5,38.3,75.3,38.2,75.1z"/>
	</g>
	<g>
		<path d="M39,80.2c-0.1-0.5,0.7-0.9,1-1.1c-0.2-0.1-0.3-0.2-0.3-0.3c0-0.1,0.2-0.4,0.3-0.6c-0.2,0-0.6-0.2-0.6-0.6
			c0-0.3,0.1-0.8,0.4-1.2c0.2-0.3,0.6-0.5,1-0.5c0.1,0,0.2,0,0.3,0c0.1,0,0.2,0.1,0.2,0.1c0.1,0,0.2,0,0.3-0.1
			c0.1,0,0.2-0.1,0.3-0.1c0.1,0,0.2,0,0.2,0.2c0,0.2-0.1,0.3-0.2,0.3c-0.1,0-0.1,0-0.2,0c-0.1,0-0.2,0-0.2,0c0,0-0.1,0,0,0.1
			c0,0.1,0.1,0.2,0.1,0.2c0.1,0.6-0.2,1.1-0.7,1.5c-0.1,0.1-0.3,0.1-0.5,0.2c0,0-0.1,0.1-0.1,0.2c0,0.1,0.2,0.2,0.4,0.3
			c0.2,0.1,0.5,0.2,0.7,0.3c0.4,0.2,0.5,0.4,0.6,0.6c0.1,0.5-0.8,1-1.6,1.1C39.8,80.8,39.1,80.7,39,80.2z M41.3,79.9
			c0-0.1-0.2-0.3-0.4-0.4c-0.3-0.1-0.6-0.2-0.6-0.2c-0.1,0-0.3,0.1-0.4,0.3c-0.2,0.2-0.2,0.3-0.2,0.5c0,0.3,0.5,0.4,0.9,0.4
			C40.9,80.3,41.3,80.1,41.3,79.9z M40.7,76.2c-0.1,0-0.2,0.1-0.4,0.4c-0.2,0.3-0.4,0.9-0.3,1.2c0,0.1,0.1,0.2,0.2,0.2
			c0.1,0,0.3-0.2,0.4-0.5c0.2-0.4,0.3-0.9,0.3-1.1C40.9,76.3,40.8,76.2,40.7,76.2z"/>
	</g>
	<g>
		<path d="M42.8,74.5c0.1-0.4,0.1-0.4,0-0.5l-0.2-0.1c0,0,0-0.1,0-0.1c0.2-0.1,0.7-0.3,1-0.3c0,0,0,0,0.1,0
			c-0.1,0.4-0.2,0.8-0.3,1.2l-0.5,2.1l0,0c0.3-0.5,0.6-0.7,0.7-0.9c0.2-0.2,0.5-0.4,0.7-0.4c0.3,0,0.5,0.2,0.5,0.5
			c0.1,0.5-0.2,1.3-0.4,1.7c-0.2,0.3-0.5,0.8-0.9,0.8c-0.2,0-0.3-0.1-0.4-0.2c0-0.1,0.1-0.3,0.2-0.3c0,0,0.1,0,0.1,0.1
			c0.1,0.1,0.1,0.1,0.2,0.1c0.1,0,0.1-0.1,0.2-0.3c0.2-0.5,0.4-1.4,0.3-1.8c0-0.1-0.1-0.2-0.1-0.2c-0.1,0-0.2,0.1-0.3,0.2
			c-0.2,0.2-0.4,0.4-0.6,0.8c-0.3,0.5-0.6,1.3-0.7,1.6c0,0.1-0.1,0.1-0.2,0.1c-0.1,0-0.4,0-0.3-0.2L42.8,74.5z"/>
	</g>
	<g>
		<path d="M49.1,75.1c0,0,0.1,0,0.1,0c0.1,0,0.3,0,0.4,0.1c-0.2,0.5-0.6,1.6-0.8,2.3c0,0.1,0,0.1,0,0.1c0.1,0,0.4-0.2,0.7-0.5
			c0.1,0,0.1,0,0.1,0.1c-0.3,0.4-0.8,0.8-1.2,0.8c-0.2,0-0.2-0.1-0.2-0.2c0-0.1,0-0.1,0.1-0.3l0.2-0.7l0,0c-0.4,0.7-1.1,1.2-1.5,1.2
			c-0.2,0-0.4-0.2-0.4-0.4c0-0.3,0.2-1,0.7-1.6c0.3-0.4,0.6-0.6,0.8-0.7c0.2-0.1,0.4-0.2,0.5-0.2c0.1,0,0.1,0,0.2,0
			c0,0,0.1,0.1,0.2,0.1L49.1,75.1z M48.1,76c-0.4,0.4-0.7,1.2-0.7,1.7c0,0.1,0,0.1,0.1,0.1c0.1,0,0.4-0.3,0.7-0.6
			c0.3-0.4,0.6-1,0.7-1.3c-0.1-0.2-0.2-0.2-0.3-0.2C48.4,75.6,48.3,75.7,48.1,76z"/>
	</g>
	<g>
		<path d="M51.1,75.9l-0.2,0.7l0,0c0.2-0.4,0.4-0.8,0.6-1c0.2-0.3,0.4-0.4,0.6-0.4c0.2,0,0.3,0.2,0.3,0.4c0,0.2-0.2,0.5-0.4,0.6
			c-0.1,0-0.1-0.1-0.1-0.2c0-0.1-0.1-0.2-0.1-0.2c-0.1,0-0.2,0.2-0.5,0.5c-0.3,0.4-0.5,1.1-0.8,1.7c0,0.1-0.1,0.1-0.2,0.1
			c-0.1,0-0.4,0-0.3-0.2c0.1-0.4,0.5-1.4,0.7-2c0-0.1,0-0.2,0-0.2c-0.2,0-0.4,0.2-0.5,0.4c-0.1,0-0.1-0.1-0.1-0.1
			c0.2-0.3,0.5-0.7,0.9-0.7C51.2,75.2,51.2,75.6,51.1,75.9z"/>
	</g>
	<g>
		<path d="M54.5,78.1c-0.3,0-0.6,0-0.9,0c-0.1,0,0-0.2,0-0.2l0.2,0c0.3,0,0.4-0.1,0.6-0.7l1-2.5c0.2-0.6,0.2-0.7-0.1-0.8l-0.2,0
			c-0.1,0,0-0.2,0.1-0.2c0.3,0,0.6,0.1,0.9,0.1c0.3,0,0.6,0,0.9,0c0.1,0,0,0.2,0,0.2l-0.2,0c-0.3,0-0.4,0.1-0.6,0.7L55.3,77
			c-0.1,0.3-0.2,0.5-0.2,0.7c0,0.1,0.2,0.2,0.6,0.2c0.7,0,1,0,1.5-0.6c0.1,0,0.2,0,0.2,0.1c-0.1,0.3-0.4,0.8-0.6,1
			c-0.5,0-1.1-0.1-1.6-0.1L54.5,78.1z"/>
	</g>
	<g>
		<path d="M58.4,76.3c0.1-0.1,0.1-0.2,0-0.2c-0.1,0-0.5,0.2-0.7,0.4c-0.1,0-0.1-0.1-0.1-0.1c0.3-0.3,0.9-0.7,1.4-0.6
			c0.1,0,0.2,0.2,0.2,0.3c0,0,0,0.1-0.1,0.2l-0.9,1.7c-0.1,0.1,0,0.2,0,0.2c0.1,0,0.3-0.1,0.5-0.3c0.6-0.5,1.2-1.3,1.5-1.8
			c0.1,0,0.1,0,0.2,0c0.1,0,0.3,0.1,0.3,0.2c-0.2,0.4-0.7,1.3-1.1,2c0,0.1-0.1,0.2,0,0.2c0.1,0,0.5-0.2,0.7-0.4c0.1,0,0.1,0,0.1,0.1
			c-0.2,0.3-0.9,0.7-1.4,0.7c-0.1,0-0.2-0.2-0.2-0.3l0.6-1l0,0c-0.5,0.5-1.4,1.2-1.8,1.2c-0.2,0-0.3-0.2-0.3-0.4
			c0-0.1,0.1-0.2,0.1-0.3L58.4,76.3z"/>
	</g>
	<g>
		<path d="M61.6,78.4c0,0.1-0.1,0.1,0,0.1c0.1,0,0.5-0.2,0.8-0.4c0.1,0,0.1,0.1,0.1,0.2c-0.2,0.3-1,0.7-1.5,0.6
			c-0.1,0-0.2-0.2-0.2-0.2c0-0.1,0-0.1,0.1-0.3l1-1.7c0-0.1,0-0.1,0-0.1c-0.1,0-0.4,0.1-0.6,0.3c-0.1,0-0.1-0.1-0.1-0.2
			c0.4-0.4,1.1-0.6,1.4-0.5c0.1,0,0.2,0.1,0.2,0.2c0,0.1,0,0.1-0.1,0.3L61.6,78.4z M62.5,75.1c0-0.2,0.2-0.5,0.5-0.4
			c0.2,0,0.3,0.2,0.3,0.4c0,0.3-0.3,0.5-0.5,0.4C62.6,75.4,62.5,75.3,62.5,75.1z"/>
	</g>
	<g>
		<path d="M64.4,77l-0.6,0.9l0,0c0.6-0.6,1.3-1.1,1.8-1c0.4,0.1,0.3,0.5,0.2,0.7c-0.1,0.1-0.3,0.5-0.5,0.7l0,0
			c0.7-0.8,1.4-1.1,1.8-1c0.3,0.1,0.4,0.3,0.3,0.5c0,0.1-0.1,0.3-0.2,0.5c-0.2,0.3-0.7,1-0.8,1.2c-0.1,0.1-0.1,0.1,0,0.1
			c0.1,0,0.5-0.2,0.7-0.3c0.1,0,0.1,0.1,0.1,0.1c-0.3,0.3-0.9,0.6-1.5,0.5c-0.1,0-0.2-0.2-0.2-0.3c0-0.1,0.1-0.2,0.2-0.4
			c0.3-0.4,0.6-0.9,0.8-1.2c0.1-0.1,0.2-0.3,0.2-0.4c0-0.1,0-0.1-0.1-0.1c-0.1,0-0.4,0.1-0.8,0.5c-0.4,0.4-0.9,1-1.4,1.5
			c-0.1,0.1-0.1,0.1-0.2,0.1c-0.2,0-0.4-0.1-0.3-0.3c0,0,0.8-1.3,1-1.6c0.1-0.1,0.2-0.3,0.2-0.4c0-0.1,0-0.1-0.1-0.2
			c-0.1,0-0.4,0.1-0.9,0.5c-0.4,0.4-0.9,0.9-1.3,1.5c-0.1,0.1-0.1,0.1-0.2,0.1c-0.2,0-0.4-0.1-0.3-0.3c0-0.1,1-1.6,1.1-1.8
			c0.1-0.2,0.1-0.2,0-0.2c-0.2,0-0.5,0.1-0.6,0.3c-0.1,0-0.1-0.1-0.1-0.1c0.3-0.3,0.7-0.6,1.3-0.4C64.5,76.6,64.5,76.8,64.4,77z"/>
	</g>
	<g>
		<path d="M71,78.6c0,0.1-0.1,0.3-0.3,0.5c-0.2,0.3-0.7,0.9-0.9,1.2c-0.1,0.1-0.1,0.1,0,0.1c0.1,0,0.5-0.1,0.7-0.3
			c0.1,0,0.1,0.1,0.1,0.2c-0.3,0.3-1,0.6-1.5,0.5c-0.1,0-0.2-0.2-0.2-0.3c0-0.1,0.1-0.2,0.2-0.4c0.3-0.4,0.6-0.8,0.9-1.2
			c0.1-0.1,0.2-0.3,0.2-0.4c0-0.1,0-0.1-0.1-0.1c-0.1,0-0.5,0.1-0.9,0.4c-0.5,0.4-1,0.9-1.5,1.5c-0.1,0.1-0.1,0.1-0.3,0
			c-0.1,0-0.3-0.1-0.2-0.3c0-0.1,1.1-1.6,1.2-1.7c0.1-0.1,0.1-0.2,0-0.2c-0.1,0-0.4,0.1-0.7,0.2c-0.1,0-0.1-0.1-0.1-0.1
			c0.3-0.3,0.9-0.5,1.3-0.4c0.2,0.1,0.2,0.3,0.1,0.4L68.7,79l0,0c0.6-0.5,1.4-1.1,2-1C71,78.2,71,78.4,71,78.6z"/>
	</g>
	<g>
		<path d="M70.8,80.4c0.1-0.5,0.7-1.1,1.4-1.4c0.4-0.2,0.8-0.2,1-0.1c0.3,0.1,0.5,0.4,0.4,0.6c-0.2,0.6-1.2,0.7-1.9,0.6
			c-0.1,0.1-0.1,0.2-0.2,0.4c-0.1,0.2,0,0.4,0.2,0.5c0.2,0.1,0.5,0,0.9-0.2c0.1,0,0.1,0.1,0.1,0.2c-0.5,0.4-1,0.5-1.4,0.3
			S70.7,80.7,70.8,80.4z M72.5,79.2c-0.3,0.2-0.6,0.5-0.7,0.7c0.4,0,0.6-0.1,0.9-0.2c0.2-0.1,0.4-0.3,0.4-0.4c0-0.1,0-0.2-0.1-0.2
			C72.9,79,72.7,79,72.5,79.2z"/>
	</g>
	<g>
		<path d="M76.1,79.6c0,0,0.1,0,0.1,0c0.1,0,0.3,0.1,0.3,0.3c-0.3,0.4-1.1,1.3-1.5,1.9c-0.1,0.1,0,0.1,0,0.1c0.1,0,0.4,0,0.8-0.2
			c0.1,0,0.1,0.1,0.1,0.2c-0.4,0.3-1,0.5-1.4,0.4c-0.2,0-0.2-0.2-0.2-0.3c0-0.1,0.1-0.1,0.1-0.2l0.4-0.5l0,0
			c-0.7,0.5-1.5,0.8-1.8,0.6c-0.2-0.1-0.3-0.3-0.2-0.5c0.1-0.3,0.5-0.8,1.2-1.2c0.4-0.2,0.8-0.3,1-0.4c0.2,0,0.4,0,0.6,0
			c0.1,0,0.1,0.1,0.1,0.1c0,0,0.1,0.1,0.1,0.2L76.1,79.6z M74.8,80c-0.5,0.3-1.1,0.9-1.2,1.3c0,0.1,0,0.1,0,0.2
			c0.1,0,0.5-0.1,0.8-0.3c0.4-0.2,0.9-0.7,1.1-1c0-0.2-0.1-0.3-0.2-0.3C75.2,79.9,75.1,79.9,74.8,80z"/>
	</g>
	<g>
		<path d="M76,81.9c0.1-0.4,0.6-1,1.2-1.3c0.5-0.2,0.9-0.3,1.2-0.2c0.3,0.1,0.5,0.4,0.4,0.6c-0.1,0.3-0.4,0.3-0.5,0.2
			c-0.1,0-0.2-0.1-0.1-0.2c0-0.1,0.1-0.4,0-0.4c-0.1,0-0.3,0-0.6,0.3c-0.3,0.3-0.7,0.7-0.8,1.1c-0.1,0.3,0,0.4,0.1,0.5
			c0.2,0.1,0.5,0,0.8-0.2c0.1,0,0.1,0.1,0.1,0.2c-0.3,0.2-0.9,0.4-1.4,0.3C76,82.7,75.9,82.4,76,81.9z"/>
	</g>
	<g>
		<path d="M80.4,79.8c0.2-0.3,0.3-0.4,0.2-0.5l-0.1-0.1c0,0,0-0.1,0.1-0.1c0.2,0,0.8,0,1.1,0.1c0,0,0,0.1,0,0.1
			c-0.2,0.3-0.5,0.7-0.7,1L79.6,82l0,0c0.5-0.3,0.8-0.5,1-0.6c0.3-0.1,0.6-0.2,0.8-0.1c0.3,0.1,0.4,0.4,0.3,0.6
			c-0.1,0.5-0.6,1.1-1,1.4c-0.3,0.2-0.8,0.5-1.2,0.4c-0.2-0.1-0.3-0.2-0.3-0.3c0-0.1,0.2-0.2,0.3-0.2c0,0,0.1,0,0.1,0.1
			c0,0.1,0.1,0.1,0.1,0.2c0.1,0,0.1-0.1,0.2-0.2c0.3-0.4,0.9-1.2,1-1.5c0-0.1,0-0.2-0.1-0.2c-0.1,0-0.2,0-0.3,0.1
			c-0.2,0.1-0.5,0.2-0.9,0.5c-0.5,0.3-1,1-1.2,1.2c-0.1,0.1-0.1,0.1-0.3,0c-0.1,0-0.3-0.1-0.2-0.3L80.4,79.8z"/>
	</g>
</g>
<g>
	<rect x="18" y="62.2" transform="matrix(0.8214 0.5704 -0.5704 0.8214 39.3299 -0.7292)" width="5.7" height="0.5"/>
</g>
<g>
	<rect x="20.8" y="59.8" transform="matrix(4.150867e-02 0.9991 -0.9991 4.150867e-02 81.4897 37.7149)" width="0.5" height="3.1"/>
</g>
<g>
	<rect x="21.7" y="60.7" transform="matrix(4.981582e-02 0.9988 -0.9988 4.981582e-02 82.8611 36.9852)" width="0.5" height="2.6"/>
</g>
<g>
	<rect x="21.9" y="62.7" transform="matrix(0.9983 5.872202e-02 -5.872202e-02 0.9983 3.7359 -1.2398)" width="2.2" height="0.5"/>
</g>
<g>
	<rect x="45.8" y="13.7" transform="matrix(6.249988e-02 0.998 -0.998 6.249988e-02 57.1294 -32.4593)" width="0.1" height="1"/>
</g>
<g>
	<rect x="45.9" y="13.9" transform="matrix(6.249988e-02 0.998 -0.998 6.249988e-02 57.4793 -32.2824)" width="0.1" height="1"/>
</g>
<g>
	<rect x="45.9" y="14.2" transform="matrix(6.249988e-02 0.998 -0.998 6.249988e-02 57.7719 -32.0076)" width="0.1" height="1"/>
</g>
<g>
	<rect x="45.9" y="14.5" transform="matrix(6.249988e-02 0.998 -0.998 6.249988e-02 58.0644 -31.7328)" width="0.1" height="1"/>
</g>
<g>
	<rect x="46.4" y="14.8" transform="matrix(6.249988e-02 0.998 -0.998 6.249988e-02 58.8417 -31.974)" width="0.1" height="1"/>
</g>
<g>
	<rect x="46.4" y="15.1" transform="matrix(6.249988e-02 0.998 -0.998 6.249988e-02 59.1343 -31.6992)" width="0.1" height="1"/>
</g>
<g>
	<rect x="46.4" y="15.4" transform="matrix(6.249988e-02 0.998 -0.998 6.249988e-02 59.427 -31.4243)" width="0.1" height="1"/>
</g>
<g>
	<rect x="46.4" y="15.7" transform="matrix(6.249988e-02 0.998 -0.998 6.249988e-02 59.7195 -31.1495)" width="0.1" height="1"/>
</g>
<g>
	<rect x="46.4" y="16" transform="matrix(6.249988e-02 0.998 -0.998 6.249988e-02 60.0121 -30.8747)" width="0.1" height="1"/>
</g>
<g>
	<rect x="46.4" y="16.3" transform="matrix(6.249988e-02 0.998 -0.998 6.249988e-02 60.3046 -30.5999)" width="0.1" height="1"/>
</g>
<g>
	<rect x="46.4" y="16.6" transform="matrix(6.249988e-02 0.998 -0.998 6.249988e-02 60.5972 -30.3251)" width="0.1" height="1"/>
</g>
<g>
	<rect x="46.4" y="16.9" transform="matrix(6.249988e-02 0.998 -0.998 6.249988e-02 60.8897 -30.0503)" width="0.1" height="1"/>
</g>
<g>
	<rect x="46.1" y="17.2" transform="matrix(6.249988e-02 0.998 -0.998 6.249988e-02 60.9399 -29.5174)" width="0.1" height="1"/>
</g>
<g>
	<rect x="46.4" y="17.5" transform="matrix(6.249988e-02 0.998 -0.998 6.249988e-02 61.4748 -29.5007)" width="0.1" height="1"/>
</g>
<g>
	<rect x="46.4" y="17.7" transform="matrix(6.249988e-02 0.998 -0.998 6.249988e-02 61.7674 -29.2259)" width="0.1" height="1"/>
</g>
<g>
	<rect x="46.1" y="18" transform="matrix(6.249988e-02 0.998 -0.998 6.249988e-02 61.8176 -28.693)" width="0.1" height="1"/>
</g>
<g>
	<rect x="46.1" y="18.3" transform="matrix(6.249988e-02 0.998 -0.998 6.249988e-02 62.1101 -28.4182)" width="0.1" height="1"/>
</g>
<g>
	<rect x="46.1" y="18.6" transform="matrix(6.249988e-02 0.998 -0.998 6.249988e-02 62.4028 -28.1433)" width="0.1" height="1"/>
</g>
<g>
	<rect x="46.1" y="18.9" transform="matrix(6.249988e-02 0.998 -0.998 6.249988e-02 62.6953 -27.8685)" width="0.1" height="1"/>
</g>
<g>
	<rect x="46.4" y="19.2" transform="matrix(6.249988e-02 0.998 -0.998 6.249988e-02 63.2303 -27.8517)" width="0.1" height="1"/>
</g>
<g>
	<rect x="46.4" y="19.5" transform="matrix(6.249988e-02 0.998 -0.998 6.249988e-02 63.5228 -27.5769)" width="0.1" height="1"/>
</g>
<g>
	<rect x="46.4" y="19.8" transform="matrix(6.249988e-02 0.998 -0.998 6.249988e-02 63.8154 -27.3021)" width="0.1" height="1"/>
</g>
<g>
	<rect x="46.4" y="20.1" transform="matrix(6.249988e-02 0.998 -0.998 6.249988e-02 64.1079 -27.0273)" width="0.1" height="1"/>
</g>
<g>
	<rect x="46.4" y="20.4" transform="matrix(6.249988e-02 0.998 -0.998 6.249988e-02 64.4005 -26.7525)" width="0.1" height="1"/>
</g>
<g>
	<rect x="46.6" y="20.7" transform="matrix(6.249988e-02 0.998 -0.998 6.249988e-02 64.9354 -26.7357)" width="0.1" height="1"/>
</g>
<g>
	<rect x="46.6" y="21" transform="matrix(6.249988e-02 0.998 -0.998 6.249988e-02 65.2279 -26.4609)" width="0.1" height="1"/>
</g>
<g>
	<rect x="46.6" y="21.3" transform="matrix(6.249988e-02 0.998 -0.998 6.249988e-02 65.5205 -26.1861)" width="0.1" height="1"/>
</g>
<g>
	<rect x="46.6" y="21.6" transform="matrix(6.249988e-02 0.998 -0.998 6.249988e-02 65.813 -25.9113)" width="0.1" height="1"/>
</g>
<g>
	<rect x="46.6" y="21.9" transform="matrix(6.249988e-02 0.998 -0.998 6.249988e-02 66.1056 -25.6365)" width="0.1" height="1"/>
</g>
<g>
	<rect x="46.1" y="22.1" transform="matrix(6.249988e-02 0.998 -0.998 6.249988e-02 65.9135 -24.8455)" width="0.1" height="1"/>
</g>
<g>
	<rect x="45.7" y="13.4" transform="matrix(6.249988e-02 0.998 -0.998 6.249988e-02 56.8128 -32.5746)" width="0.1" height="1"/>
</g>
<g>
	<rect x="45.8" y="10.4" transform="matrix(6.249988e-02 0.998 -0.998 6.249988e-02 53.8734 -35.5194)" width="0.1" height="1"/>
</g>
<g>
	<rect x="45.5" y="10.7" transform="matrix(6.249988e-02 0.998 -0.998 6.249988e-02 53.9236 -34.9866)" width="0.1" height="1"/>
</g>
<g>
	<rect x="45.3" y="11" transform="matrix(6.249988e-02 0.998 -0.998 6.249988e-02 53.9737 -34.4538)" width="0.1" height="1"/>
</g>
<g>
	<rect x="51.4" y="14.5" transform="matrix(0.7682 0.6402 -0.6402 0.7682 21.3802 -29.8532)" width="1" height="0.1"/>
</g>
<g>
	<rect x="52.4" y="14.4" transform="matrix(0.7682 0.6402 -0.6402 0.7682 21.5371 -30.5452)" width="1" height="0.1"/>
</g>
<g>
	<rect x="52.8" y="14.3" transform="matrix(0.7682 0.6402 -0.6402 0.7682 21.5442 -30.8234)" width="1" height="0.1"/>
</g>
<g>
	<rect x="53.3" y="14.1" transform="matrix(0.7682 0.6402 -0.6402 0.7682 21.525 -31.158)" width="1" height="0.1"/>
</g>
<g>
	<rect x="53.8" y="14" transform="matrix(0.7682 0.6402 -0.6402 0.7682 21.6034 -31.504)" width="1" height="0.1"/>
</g>
<g>
	<rect x="54.3" y="13.8" transform="matrix(0.7682 0.6402 -0.6402 0.7682 21.5842 -31.8386)" width="1" height="0.1"/>
</g>
<g>
	<rect x="54.8" y="13.7" transform="matrix(0.7682 0.6402 -0.6402 0.7682 21.6521 -32.2201)" width="1" height="0.1"/>
</g>
<g>
	<rect x="55.2" y="13.6" transform="matrix(0.7682 0.6402 -0.6402 0.7682 21.6284 -32.4778)" width="1" height="0.1"/>
</g>
<g>
	<rect x="55.6" y="13.4" transform="matrix(0.7682 0.6402 -0.6402 0.7682 21.6432 -32.8091)" width="1" height="0.1"/>
</g>
<g>
	<rect x="56" y="13.4" transform="matrix(0.7682 0.6402 -0.6402 0.7682 21.7098 -33.0583)" width="1" height="0.1"/>
</g>
<g>
	<rect x="51.9" y="14.4" transform="matrix(0.7682 0.6402 -0.6402 0.7682 21.4023 -30.1728)" width="1" height="0.1"/>
</g>
<g>
	<rect x="41.1" y="14.5" transform="matrix(0.2755 0.9613 -0.9613 0.2755 44.4744 -28.5179)" width="0.1" height="1.4"/>
</g>
<g>
	<rect x="41.3" y="15.1" transform="matrix(0.2755 0.9613 -0.9613 0.2755 45.1351 -28.2635)" width="0.1" height="1.4"/>
</g>
<g>
	<rect x="41.1" y="15.6" transform="matrix(0.2755 0.9613 -0.9613 0.2755 45.5151 -27.7335)" width="0.1" height="1.4"/>
</g>
<g>
	<polygon points="40.7,17 40.8,14.9 40.9,14.9 40.9,16.9 41.1,16.8 41.3,14.5 41.4,14.5 41.3,16.9 	"/>
</g>
<g>
	<path class="st0" d="M40.3,18.9c0,0.4-0.1,3.8,0.1,4.3s0.3,0.3,0.4-0.1s0.1-0.7,0.3-1c0.3-0.3-0.1-2.6,0-3.1
		C41.3,18.5,40.3,18.9,40.3,18.9z"/>
</g>
<g>
	<polygon points="48.3,25.3 48.3,25.2 53.4,24.5 53.4,24.6 49.2,25.2 50.2,25.2 54.1,24.8 54.1,24.9 50.2,25.3 	"/>
</g>
<g>
	<polygon points="46.6,24.9 46.3,24.4 49.1,23.9 49.1,24 46.5,24.5 46.7,24.8 50.9,24.1 51,24.2 	"/>
</g>
<g>
	<polygon points="59.7,25.1 59.2,24.5 59.3,24.4 59.8,24.9 60.1,24.7 59.6,24 60.1,23.3 60.7,24 61,23.8 60.4,22.8 60.5,22.7 
		61.2,23.8 60.6,24.2 60.1,23.5 59.8,24 60.3,24.8 	"/>
</g>
<g>
	<rect x="40.7" y="18.3" transform="matrix(0.2755 0.9613 -0.9613 0.2755 47.8516 -25.4367)" width="0.1" height="1.4"/>
</g>
<g>
	<rect x="40.7" y="18.7" transform="matrix(0.2755 0.9613 -0.9613 0.2755 48.1778 -25.1909)" width="0.1" height="1.4"/>
</g>
<g>
	<rect x="40.7" y="19.1" transform="matrix(0.2755 0.9613 -0.9613 0.2755 48.5582 -24.8554)" width="0.1" height="1.4"/>
</g>
<g>
	<rect x="40.7" y="19.5" transform="matrix(0.2755 0.9613 -0.9613 0.2755 48.9776 -24.5394)" width="0.1" height="1.4"/>
</g>
<g>
	<rect x="47.3" y="22.4" transform="matrix(0.1603 0.9871 -0.9871 0.1603 63.2569 -26.7686)" width="0.1" height="2.8"/>
</g>
<g>
	<rect x="47.3" y="21.9" transform="matrix(0.1603 0.9871 -0.9871 0.1603 62.7625 -27.1893)" width="0.1" height="2.8"/>
</g>
<g>
	<rect x="40.7" y="19.9" transform="matrix(0.2755 0.9613 -0.9613 0.2755 49.366 -24.2467)" width="0.1" height="1.4"/>
</g>
<g>
	<rect x="40.8" y="20.3" transform="matrix(0.2755 0.9613 -0.9613 0.2755 49.7701 -24.0396)" width="0.1" height="1.4"/>
</g>
<g>
	<rect x="40.6" y="20.8" transform="matrix(0.2755 0.9613 -0.9613 0.2755 50.1269 -23.5758)" width="0.1" height="1.4"/>
</g>
<g>
	<rect x="40.8" y="21.1" transform="matrix(0.2755 0.9613 -0.9613 0.2755 50.5778 -23.4308)" width="0.1" height="1.4"/>
</g>
<g>
	<rect x="40.8" y="21.5" transform="matrix(0.2755 0.9613 -0.9613 0.2755 50.9661 -23.1381)" width="0.1" height="1.4"/>
</g>
<g>
	<rect x="41" y="21.9" transform="matrix(0.2755 0.9613 -0.9613 0.2755 51.4483 -23.067)" width="0.1" height="1.4"/>
</g>
<g>
	<rect x="40.7" y="22.7" transform="matrix(0.2618 0.9651 -0.9651 0.2618 52.3733 -22.2577)" width="0.1" height="0.8"/>
</g>
<g>
	
		<rect x="38.2" y="21.1" transform="matrix(1.249902e-02 0.9999 -0.9999 1.249902e-02 61.3855 -19.9017)" width="5.2" height="0.1"/>
</g>
<g>
	<path class="st7" d="M40.7,21.4"/>
</g>
<g>
	<path d="M40.9,20.9c-0.1,0.4,0.1,0.6,0.1,0.6l0.4-0.2l-0.1-0.4L40.9,20.9z"/>
</g>
<g>
	<path d="M40.8,19.7c-0.1,0.4,0.1,0.6,0.1,0.6l0.4-0.2l-0.1-0.4L40.8,19.7z"/>
</g>
<g>
	<rect x="54.9" y="18.5" transform="matrix(0.1603 0.9871 -0.9871 0.1603 65.7632 -37.5031)" width="0.1" height="2.8"/>
</g>
<g>
	<rect x="55.2" y="18.7" transform="matrix(0.1603 0.9871 -0.9871 0.1603 66.2419 -37.6457)" width="0.1" height="2.8"/>
</g>
<g>
	<rect x="55.9" y="18.9" transform="matrix(0.1603 0.9871 -0.9871 0.1603 67.0489 -38.2024)" width="0.1" height="2.8"/>
</g>
<g>
	<rect x="47" y="23.1" transform="matrix(0.9578 0.2873 -0.2873 0.9578 8.9119 -12.5185)" width="0.1" height="2"/>
</g>
<g>
	<rect x="46.7" y="22.8" transform="matrix(0.9578 0.2873 -0.2873 0.9578 8.8161 -12.4472)" width="0.1" height="2"/>
</g>
<g>
	<rect x="47.2" y="23.6" transform="matrix(0.9578 0.2873 -0.2873 0.9578 9.0779 -12.551)" width="0.1" height="2"/>
</g>
<g>
	<rect x="47.6" y="23.9" transform="matrix(0.9573 0.2891 -0.2891 0.9573 9.1859 -12.7362)" width="0.1" height="1.7"/>
</g>
<g>
	<rect x="48.1" y="24" transform="matrix(0.963 0.2696 -0.2696 0.963 8.461 -12.0718)" width="0.1" height="1.6"/>
</g>
<g>
	<rect x="48.6" y="23.9" transform="matrix(0.9506 0.3104 -0.3104 0.9506 10.0671 -13.8888)" width="0.1" height="1.6"/>
</g>
<g>
	<rect x="49.1" y="24.2" transform="matrix(0.9525 0.3045 -0.3045 0.9525 9.8938 -13.7859)" width="0.1" height="1.3"/>
</g>
<g>
	<rect x="49.6" y="24.2" transform="matrix(0.9473 0.3203 -0.3203 0.9473 10.5731 -14.6026)" width="0.1" height="1.3"/>
</g>
<g>
	<rect x="50.1" y="24.5" transform="matrix(0.9635 0.2677 -0.2677 0.9635 8.5255 -12.5252)" width="0.1" height="1.1"/>
</g>
<g>
	<rect x="50.6" y="24.8" transform="matrix(0.931 0.365 -0.365 0.931 12.6781 -16.772)" width="0.1" height="0.8"/>
</g>
<g>
	<rect x="48.6" y="21.1" transform="matrix(0.1698 0.9855 -0.9855 0.1698 64.9571 -27.2542)" width="0.1" height="7.6"/>
</g>
<g>
	<rect x="52.1" y="10.4" transform="matrix(6.249988e-02 0.998 -0.998 6.249988e-02 59.8242 -41.8884)" width="0.1" height="1"/>
</g>
<g>
	<rect x="52.5" y="10.8" transform="matrix(6.249988e-02 0.998 -0.998 6.249988e-02 60.5304 -41.8322)" width="0.1" height="1"/>
</g>
</svg>
