<?xml version="1.0" encoding="utf-8"?>
<!-- Generator: Adobe Illustrator 19.0.1, SVG Export Plug-In . SVG Version: 6.00 Build 0)  -->
<svg version="1.1" id="Layer_1" xmlns="http://www.w3.org/2000/svg" xmlns:xlink="http://www.w3.org/1999/xlink" x="0px" y="0px"
	 viewBox="-249 251 100 100" style="enable-background:new -249 251 100 100;" xml:space="preserve">
<style type="text/css">
	.st0{fill:#FEBE10;}
	.st1{fill:#FFFFFF;}
	.st2{fill:#ED1C24;}
	.st3{fill:#41AD49;}
	.st4{fill:#ED1C2E;}
	.st5{fill:#D27B18;}
	.st6{stroke:#000000;stroke-width:6.388675e-02;}
	.st7{fill:#A7A9AC;}
</style>
<g>
	<g>
		<path class="st0" d="M-198.2,342.2c9.5-2.5,28.4-19.3,28.4-29.2v-46H-227v46c0,9.9,18.9,26.7,28.4,29.2H-198.2z"/>
	</g>
	<g>
		<path d="M-198.1,343h-0.7c-9.8-2.6-29-19.7-29-30v-46.8h58.8V313c0,10.3-19.2,27.4-29,30H-198.1z M-198.5,341.4h0.2
			c9.2-2.5,27.7-18.9,27.7-28.4v-45.2h-55.6V313C-226.2,322.4-207.7,338.8-198.5,341.4z"/>
	</g>
	<g>
		<path class="st1" d="M-198.7,261.1c-13.5,0-23.4,4.1-29.7,8c-4.5,2.5-6.9-1.1-6.1-2c1-5.4,0.5-7.6,0.1-9.2
			c1.1-2.1,3.7-1.5,4.4-0.2c-0.2,0.9-0.3,1.4-0.1,2.3c13.9-6.4,21.5-8.2,31.5-8.2c9.9,0,17.5,1.7,31.4,8.2c0.1-0.8,0-1.3-0.1-2.3
			c0.7-1.3,3.3-1.9,4.4,0.2c-0.4,1.6-0.8,3.8,0.1,9.2c0.8,1-1.6,4.5-6.1,2C-175.3,265.2-185.3,261.1-198.7,261.1z"/>
	</g>
	<g>
		<path d="M-166.1,270.6c-1,0-2.1-0.3-3.3-1c-4.4-2.8-14-7.4-29.6-7.4c-14.4,0-23.8,4-29.1,7.3c-3.1,1.8-5.5,0.8-6.6-0.5
			c-0.7-0.8-0.8-1.7-0.5-2.3c0.9-4.9,0.6-7.1,0.1-8.8c0-0.1,0-0.3,0-0.4c0.6-1.1,1.6-1.7,2.7-1.8c1.1,0,2.2,0.6,2.7,1.5
			c0.1,0.1,0.1,0.3,0.1,0.4c-0.1,0.5-0.2,0.8-0.2,1.2c12.9-5.9,20.5-7.8,30.9-7.8c10.3,0,17.9,1.9,30.8,7.8c0-0.2,0-0.3-0.1-0.5
			c0.2,0,0.2-0.3,0.2-0.6c0-0.1,0-0.2,0.1-0.3c0.5-0.9,1.6-1.5,2.7-1.5l0,0c1.2,0,2.2,0.6,2.7,1.8c0.1,0.1,0.1,0.3,0,0.4
			c-0.4,1.7-0.7,3.9,0.1,8.8c0.4,0.6,0.2,1.5-0.5,2.3C-163.5,269.9-164.6,270.6-166.1,270.6z M-198.9,261c15.8,0,25.7,4.7,30.2,7.5
			c2.8,1.6,4.4,0.4,4.8,0c0.5-0.5,0.6-1,0.5-1.1s-0.1-0.2-0.1-0.3c-0.9-5-0.6-7.4-0.2-9.2c-0.5-0.7-1.1-0.9-1.5-0.9
			c-0.6,0-1.2,0.3-1.5,0.7c0,0.2,0,0.3,0.1,0.5c0.1,0.6,0.2,1,0,1.7c0,0.2-0.2,0.4-0.3,0.4c-0.2,0.1-0.4,0.1-0.5,0
			c-13.4-6-21-7.9-31.3-7.9c-10.4,0-18,2-31.2,8.1c-0.2,0.1-0.4,0.1-0.5,0c-0.2-0.1-0.3-0.3-0.3-0.4c-0.1-0.9,0-1.5,0.1-2.2
			c-0.3-0.4-0.9-0.7-1.5-0.7l0,0c-0.5,0-1.1,0.2-1.5,0.9c0.4,1.8,0.7,4.2-0.2,9.2c0,0.1-0.1,0.2-0.1,0.3s0,0.6,0.5,1.1
			c0.4,0.4,2,1.6,4.8,0C-223.2,265.1-213.6,261-198.9,261z"/>
	</g>
	<g>
		<g>
			<path d="M-220.7,260.8c-0.6-1.8,0.7-2.9,1.9-3.3c1.4-0.4,2,0.3,2,0.3c0.3-0.7,0.7-1.1,1.6-1.4c1.2-0.4,2.5,0.3,2.9,1.8
				c0.5,1.6-0.4,2.9-1.7,3.3c-0.5,0.1-1-0.1-1.3-0.3c0,0,0.6,0.3,1.2,0.1c1.1-0.3,1.4-1.7,1-2.9c-0.4-1.3-1.3-2.1-2.4-1.7
				c-0.8,0.2-1.3,1-1.1,1.7l1,3.4l-0.4,0.3l-0.9-3.2c-0.3-1-0.9-1.4-1.8-1.2c-1.2,0.4-1.7,1.7-1.3,2.9c0.5,1.8,1.9,2,2.7,1.8
				c0.7-0.2,0.9-0.9,0.9-0.8c-0.1,0.5-0.5,0.9-1.1,1C-218.8,263-220.3,262.3-220.7,260.8z"/>
			<path d="M-218.2,262.9c-0.4,0-0.9-0.1-1.3-0.3c-0.7-0.4-1.1-1-1.4-1.7c-0.2-0.9-0.1-1.7,0.4-2.4c0.4-0.5,1-0.9,1.7-1.1
				c1.1-0.3,1.7,0,2,0.2c0.3-0.6,0.8-1,1.6-1.2c1.4-0.4,2.7,0.4,3.1,1.9c0.5,1.7-0.5,3.1-1.8,3.5c-0.5,0.1-1.1,0-1.4-0.3l0.2-0.3
				c0,0,0.5,0.2,1.1,0.1c0.6-0.2,0.8-0.6,0.9-1c0.2-0.5,0.2-1.1,0-1.7c-0.4-1.3-1.3-1.9-2.2-1.6c-0.7,0.2-1.2,0.8-1,1.5l1,3.5
				l-0.8,0.3l-0.2-0.7v0.1c-0.1,0.6-0.6,1-1.2,1.2C-217.7,262.9-218,262.9-218.2,262.9z M-219.8,258.2c-0.2,0.1-0.4,0.3-0.5,0.5
				c-0.4,0.6-0.5,1.3-0.3,2.1l0,0c0.2,0.7,0.6,1.2,1.2,1.5c0.3,0.1,0.5,0.2,0.8,0.3c-0.1,0-0.2-0.1-0.3-0.1c-0.4-0.2-1-0.7-1.3-1.8
				c-0.2-0.6-0.1-1.3,0.1-1.9C-220,258.6-219.9,258.4-219.8,258.2z M-218.2,257.8c-0.1,0-0.3,0-0.4,0.1c-0.5,0.2-0.9,0.5-1.1,1.1
				c-0.2,0.5-0.2,1.1-0.1,1.6c0.2,0.8,0.6,1.3,1.2,1.5c0.6,0.3,1.1,0.2,1.3,0.1c0.2-0.1,0.6-0.2,0.8-0.7l0.1-0.1h0.2h0.1l-0.8-2.6
				c-0.1-0.5-0.3-0.8-0.6-1C-217.8,257.9-218,257.8-218.2,257.8z M-217.7,257.6c0.1,0,0.1,0.1,0.2,0.1c0.3,0.2,0.6,0.6,0.8,1.1
				l0.9,3l0.2-0.1l-0.9-3.2c0-0.2-0.1-0.3-0.1-0.5v0.1l-0.3-0.1C-216.9,258-217.1,257.7-217.7,257.6z M-214.4,256.6
				c0.7,0.2,1.3,0.9,1.6,1.9c0.2,0.6,0.2,1.3,0,1.9c-0.1,0.2-0.1,0.3-0.2,0.5c0.5-0.6,0.8-1.4,0.5-2.4
				C-212.7,257.3-213.5,256.7-214.4,256.6z"/>
		</g>
		<g>
			<path d="M-210.4,260.8c-0.1-0.3-0.2-0.5-0.2-0.8c-0.2-1.5,0.6-2.8,1.6-3.5c-0.3-0.5-0.6-1-1.2-1l1-0.2c0.2,0,0.3,0,0.4,0.1
				c0.9,1.6,2.4,4.4,3,4.6l-0.9,0.1c-0.3-0.6-1.8-2.8-1.8-2.8L-210.4,260.8z M-210,259.8l1.5-2.5l-0.5-0.7c-0.2-0.2-1.4,1.3-1.2,2.8
				C-210.2,259.5-210.1,259.9-210,259.8z"/>
			<path d="M-210.5,261.1l-0.1-0.3c-0.1-0.3-0.2-0.5-0.2-0.8c-0.2-1.5,0.6-2.8,1.5-3.6c-0.3-0.4-0.5-0.8-1-0.8v-0.3l1-0.2
				c0.2,0,0.4,0,0.6,0.1c0.4,0.5,0.8,1.2,1.2,1.9c0.7,1.1,1.5,2.4,1.9,2.6v0.3l-1,0.2l-0.1-0.1c-0.2-0.5-1.2-2-1.6-2.5L-210.5,261.1
				z M-210.3,258.4c-0.2,0.5-0.3,1-0.2,1.6c0,0.1,0,0.3,0.1,0.4l0.2-0.4c-0.1,0-0.1-0.2-0.2-0.5
				C-210.4,259.1-210.4,258.7-210.3,258.4z M-208.5,257l0.2,0.2c0.1,0.1,1.4,1.9,1.8,2.7l0.4-0.1c-0.4-0.4-0.9-1.3-1.7-2.4
				c-0.4-0.7-0.8-1.4-1.2-1.9c0,0-0.1,0-0.2,0h-0.3c0.1,0.3,0.3,0.5,0.5,0.8l0.2,0.2l0,0L-208.5,257L-208.5,257z M-209.1,256.8
				c-0.3,0.2-1.1,1.4-1,2.6c0,0,0,0,0,0.1l1.3-2.2L-209.1,256.8z"/>
		</g>
		<g>
			<path d="M-205,259.3l-0.3-3.5c0-0.4-0.2-0.6-0.5-0.7c-0.3,0-0.7-0.1-0.4-0.1l1.4-0.1l0.4,4.4c0,0.1,0.1,0.5,0.2,0.6h-0.8
				C-204.9,259.8-204.9,259.4-205,259.3z"/>
			<path d="M-205.4,260.1l0.2-0.3c0,0,0.1-0.2,0-0.5l0,0l-0.3-3.5c0-0.2-0.1-0.5-0.4-0.6c-0.5-0.1-0.6-0.1-0.6-0.3
				c0-0.1,0-0.2,0.2-0.2l1.6-0.1l0.4,4.6c0,0.4,0.1,0.5,0.1,0.5l0.4,0.3L-205.4,260.1z M-204.8,259.3c0,0.1,0,0.3,0,0.5h0.3
				c0-0.1-0.1-0.3-0.1-0.5l-0.4-4.3l-0.6,0.1c0.2,0.1,0.4,0.4,0.4,0.8L-204.8,259.3h-0.2H-204.8z"/>
		</g>
		<g>
			<path d="M-198.2,258.4v1.3c0,1.1-1.1,1.5-1.1,1.5s0.6-0.4,0.6-1.4v-0.4c0,0-0.8,0.3-1.5,0.3c-1.5,0-2.7-0.9-2.8-2.6
				c0-1.5,1.1-2.6,3.1-2.6l2-0.1c0,0-0.1,0.1-0.2,0.3c-0.1,0.2-0.1,0.5-0.1,0.5c-0.3-0.4-1-0.6-1.6-0.5c-1.5,0-2.4,1-2.4,2.4
				c0,1.3,0.8,2.4,2.1,2.4C-199.5,259.6-198.7,259-198.2,258.4z"/>
			<path d="M-199.3,261.4c0,0-0.1,0-0.1-0.1c-0.1-0.1,0-0.2,0.1-0.3c0.1-0.1,0.5-0.5,0.5-1.2v-0.1c-0.3,0.1-0.8,0.3-1.4,0.3
				c-0.8,0-1.5-0.2-2-0.7c-0.6-0.5-0.9-1.2-0.9-2.1c0-0.8,0.3-1.5,0.9-2c0.6-0.5,1.4-0.8,2.4-0.8l2.5-0.1l-0.4,0.3
				c0,0-0.1,0.1-0.2,0.2c-0.1,0.1-0.1,0.3-0.1,0.4v0.5l-0.3-0.4c-0.2-0.3-0.8-0.5-1.5-0.5s-1.2,0.3-1.6,0.7c-0.4,0.4-0.6,1-0.6,1.6
				s0.2,1.2,0.5,1.6c0.3,0.4,0.8,0.7,1.4,0.6c0.7,0,1.5-0.5,1.9-1.1l0.2-0.3v1.8c0,0.9-0.7,1.5-1.1,1.6
				C-199.2,261.3-199.2,261.4-199.3,261.4z M-198.6,259.2v0.6c0,0.3-0.1,0.6-0.2,0.8c0.2-0.2,0.4-0.5,0.4-0.9v-0.9
				c-0.2,0.2-0.5,0.4-0.7,0.5c0.2-0.1,0.3-0.1,0.3-0.1H-198.6z M-201.4,255c-0.3,0.1-0.5,0.3-0.7,0.4c-0.5,0.4-0.8,1-0.7,1.7
				c0,0.8,0.3,1.4,0.8,1.8c0.2,0.2,0.4,0.3,0.6,0.4c-0.2-0.1-0.3-0.3-0.5-0.4c-0.4-0.5-0.6-1.1-0.6-1.8c0-0.7,0.2-1.4,0.7-1.8
				C-201.7,255.2-201.5,255.1-201.4,255z"/>
		</g>
		<g>
			<path d="M-196.4,259l0.3-5.1c0-0.4-0.1-0.7-0.4-0.8c-0.2-0.1-0.6-0.3-0.4-0.2l1.4,0.1l-0.1,2.2c0,0,0.7-0.5,1.8-0.5
				c1.4,0.1,2.1,1.2,2.1,2.5c-0.2,2.4-2.1,3.2-2.1,3.1c0-0.1,1.2-0.4,1.4-3.1c0.1-1.6-0.7-2.2-1.7-2.2c-0.8,0-1.5,0.3-1.5,0.7
				l-0.3,3.3c0,0.1,0,0.5,0.1,0.6l-0.8-0.1C-196.4,259.5-196.4,259.1-196.4,259z"/>
			<path d="M-193.8,260.4L-193.8,260.4h-0.2v-0.2c0-0.1,0.1-0.2,0.2-0.2c0.3-0.2,1.1-0.7,1.2-2.9c0.1-1.3-0.4-1.9-1.6-2
				c-0.7-0.1-1.3,0.3-1.3,0.5l-0.2,3.4c0,0.4,0,0.5,0.1,0.5l0.2,0.3h-1.6l0.3-0.3c0,0,0.1-0.2,0.1-0.5l0.3-5.1c0-0.2,0-0.5-0.3-0.6
				c-0.4-0.2-0.5-0.3-0.5-0.5c0-0.1,0.1-0.1,0.2-0.1l1.6,0.1l-0.1,2.1c0.3-0.2,0.9-0.4,1.6-0.3c1.4,0.1,2.3,1.2,2.2,2.7
				C-191.7,259.5-193.5,260.4-193.8,260.4z M-196.3,259.5h0.3c0-0.1,0-0.3,0-0.5l0.2-3.4v-0.1l0,0l0.2-2.4h-0.6
				c0.2,0.2,0.3,0.5,0.3,0.8l-0.3,5.1C-196.2,259.2-196.3,259.3-196.3,259.5z M-193.4,254.9c0.7,0.2,1.3,0.8,1.2,2.2
				c-0.1,1-0.3,1.7-0.5,2.2c0.4-0.5,0.8-1.2,0.9-2.2C-191.8,256.2-192.3,255.2-193.4,254.9z"/>
		</g>
		<g>
			<path d="M-184.3,256.1l1.8,0.4c0,0-0.2,0.1-0.3,0.2c-0.2,0.2-0.2,0.5-0.2,0.5c-0.3-0.4-0.7-0.7-1.4-0.9c-1.8-0.4-2.5,0.7-2.5,0.7
				l2.7,0.6c0.4,0.1,0.8,0,1.1-0.1l-0.2,0.8c-0.3-0.3-0.5-0.5-1-0.6l-2.7-0.5c0,0-0.2,0.2-0.4,0.9c-0.2,1.1,0,2.5,1.5,2.8
				c0.6,0.1,1.5,0,2.2-0.7l-0.1,0.7c-0.5,0.2-1.4,0.4-2.1,0.2c-1.8-0.4-2.4-1.7-2.1-3.2C-187.7,256.3-186.3,255.7-184.3,256.1z"/>
			<path d="M-185.3,261.3c-0.2,0-0.4,0-0.6-0.1c-0.9-0.2-1.6-0.6-2-1.3c-0.4-0.6-0.5-1.3-0.3-2.1c0.2-0.8,0.6-1.4,1.3-1.8
				c0.7-0.3,1.6-0.4,2.6-0.2l2.3,0.6l-0.4,0.2c0,0-0.1,0.1-0.2,0.2c-0.2,0.2-0.2,0.4-0.2,0.4l-0.1,0.4l0,0l-0.2,1.1l-0.2-0.2
				c-0.3-0.3-0.5-0.4-0.9-0.5l-2.7-0.5c-0.1,0.1-0.2,0.3-0.3,0.7c-0.1,0.5-0.3,2.3,1.4,2.6c0.3,0.1,1.3,0.2,2.1-0.7l0.4-0.4
				l-0.3,1.3h-0.1C-184.1,261.2-184.7,261.3-185.3,261.3z M-186.1,256.2c-0.2,0-0.4,0.1-0.6,0.2c-0.6,0.3-1,0.8-1.2,1.5
				c-0.1,0.7-0.1,1.3,0.3,1.9c0.1,0.2,0.3,0.4,0.5,0.6c-0.5-0.6-0.6-1.5-0.4-2.4c0.1-0.7,0.4-0.9,0.4-1h0.1
				C-187,256.9-186.8,256.5-186.1,256.2z M-186.6,256.9l2.4,0.5c0.4,0.1,0.7,0,1-0.1l0,0l0,0c-0.2-0.3-0.6-0.7-1.3-0.8
				C-185.7,256.2-186.3,256.6-186.6,256.9z"/>
		</g>
		<g>
			<path d="M-178.4,257.6c1.4,0.4,2.4,1.7,1.8,3.4c-0.6,1.7-2.2,2.1-3.5,1.7c-1.3-0.4-2.4-1.7-1.8-3.4
				C-181.3,257.6-179.7,257.1-178.4,257.6z M-180,262.5c1,0.3,2.3-0.1,2.8-1.7c0.5-1.6-0.2-2.7-1.2-3c-1-0.3-2.3,0.1-2.8,1.7
				C-181.7,261-181,262.1-180,262.5z"/>
			<path d="M-179.1,263c-0.3,0-0.7-0.1-1-0.2c-0.7-0.2-1.3-0.7-1.7-1.3c-0.4-0.7-0.5-1.5-0.2-2.3c0.3-0.8,0.8-1.4,1.5-1.7
				s1.4-0.3,2.2,0l0,0c1.4,0.4,2.5,1.8,1.9,3.6c-0.3,0.8-0.8,1.4-1.6,1.7C-178.3,262.9-178.7,263-179.1,263z M-177.3,258.4
				c0.4,0.6,0.6,1.4,0.3,2.4c-0.3,0.8-0.7,1.3-1.3,1.7c-0.1,0.1-0.2,0.1-0.3,0.1c0.2,0,0.4-0.1,0.6-0.2c0.6-0.3,1.1-0.8,1.4-1.5
				C-176.4,259.9-176.7,259-177.3,258.4z M-179.1,257.8c-0.3,0-0.6,0.1-0.9,0.2c-0.5,0.3-0.9,0.8-1.1,1.5c-0.5,1.5,0.2,2.5,1.1,2.8
				l0,0c0.5,0.2,1,0.1,1.5-0.1c0.5-0.3,0.9-0.8,1.1-1.5c0.5-1.5-0.2-2.5-1.1-2.8C-178.7,257.9-178.9,257.8-179.1,257.8z
				 M-179.8,257.6c-0.2,0-0.4,0.1-0.6,0.2c-0.6,0.2-1.1,0.8-1.3,1.5c-0.2,0.7-0.2,1.4,0.2,2c0.1,0.2,0.3,0.4,0.4,0.5
				c-0.4-0.6-0.6-1.4-0.3-2.4c0.3-0.8,0.7-1.3,1.3-1.7C-180,257.7-179.9,257.6-179.8,257.6z"/>
		</g>
	</g>
	<g>
		<path class="st1" d="M-167.1,260c0.1,1.1,0.3,4.2,0.1,6.6"/>
	</g>
	<g>
		<path d="M-167,267.2L-167,267.2c-0.4,0-0.6-0.3-0.6-0.6c0.1-2.3,0-5.4-0.1-6.4c0-0.3,0.2-0.6,0.5-0.7c0.3,0,0.6,0.2,0.7,0.5
			c0.1,1.1,0.3,4.3,0.1,6.7C-166.4,267-166.7,267.2-167,267.2z"/>
	</g>
	<g>
		<path class="st1" d="M-162.8,267.4c-0.4-1.8-4.2-2-4.5,0c0.1,0.7,1,1.3,1.9,0.7c-0.2-0.7-0.1-1.4,0.1-2.1"/>
	</g>
	<g>
		<path d="M-166.2,269c-0.2,0-0.5,0-0.7-0.1c-0.5-0.2-0.9-0.7-1.1-1.3c0-0.1,0-0.1,0-0.2c0.2-1.1,1.1-1.9,2.5-2h0.1
			c1.3,0,2.8,0.6,3.1,1.9c0.1,0.3-0.1,0.7-0.5,0.7c-0.3,0.1-0.7-0.1-0.7-0.5c-0.1-0.5-0.8-0.8-1.4-0.9c-0.1,0.5-0.1,0.9,0,1.3
			c0.1,0.3,0,0.6-0.3,0.7C-165.4,268.9-165.8,269-166.2,269z M-166.7,267.4c0.1,0.1,0.2,0.3,0.3,0.3s0.2,0,0.3,0c0-0.3,0-0.6,0-1
			C-166.4,266.9-166.6,267.1-166.7,267.4z"/>
	</g>
	<g>
		<path class="st1" d="M-230.3,260c-0.1,1.1-0.3,4.2-0.1,6.6"/>
	</g>
	<g>
		<path d="M-230.4,267.2c-0.3,0-0.6-0.3-0.6-0.6c-0.1-2.3,0-5.5,0.1-6.7c0-0.3,0.3-0.6,0.7-0.5c0.3,0,0.6,0.4,0.5,0.7
			c-0.1,1-0.3,4-0.1,6.4C-229.8,266.9-230.1,267.2-230.4,267.2L-230.4,267.2z"/>
	</g>
	<g>
		<path class="st1" d="M-234.7,267.4c0.4-1.8,4.2-2,4.5,0c-0.1,0.7-0.9,1.3-1.9,0.7c0,0,0.3-1.4,0.1-2.1"/>
	</g>
	<g>
		<path d="M-231.3,269c-0.4,0-0.7-0.1-1.1-0.3c-0.2-0.1-0.3-0.4-0.3-0.6c0.1-0.4,0.1-0.9,0.2-1.4c-0.7,0.1-1.4,0.4-1.5,0.9
			c-0.1,0.3-0.4,0.5-0.7,0.5c-0.3-0.1-0.5-0.4-0.5-0.7c0.3-1.3,1.8-2,3.2-1.9l0,0l0,0c0.1,0,0.2,0,0.3,0c1.2,0.2,2,0.9,2.2,1.9
			c0,0.1,0,0.1,0,0.2c-0.1,0.6-0.5,1.1-1,1.3C-230.8,269-231.1,269-231.3,269z M-231.4,267.8c0.1,0,0.2,0,0.3,0
			c0.1-0.1,0.2-0.2,0.3-0.3c-0.1-0.3-0.3-0.5-0.5-0.6C-231.3,267.2-231.4,267.5-231.4,267.8z"/>
	</g>
	<g>
		<path class="st1" d="M-217.5,276.9v34.3c0,10.5,16.4,19.5,19,19.8h0.2c2.6-0.3,19-9.4,19-19.8v-34.3H-217.5z"/>
	</g>
	<g>
		<path class="st2" d="M-217.5,308.7v2.4c0,10.5,16.4,19.5,19,19.8h0.2c2.6-0.3,19-9.4,19-19.8V293L-217.5,308.7z"/>
	</g>
	<g>
		<path class="st3" d="M-179.3,290.4c-2.1-0.7-7.5-5.8-7.5-5.8c-1.7-1-3.2,0.4-3.2,0.4c-1.8,1.4-11.5,5.7-11.5,5.7
			c-7.4-5.5-8.5,1.7-15.8,3.1l-0.1,14.9l38.1-15.7V290.4z"/>
		<path d="M-217.9,309.3l0.1-15.8l0.3-0.1c2.7-0.5,4.5-1.8,6.1-3c2.7-1.9,5.1-3.6,9.8-0.2c1.4-0.6,9.7-4.4,11.3-5.6
			c0.6-0.5,2.1-1.3,3.7-0.4c0.1,0.1,5.3,5.1,7.4,5.8l0.3,0.1v3.1L-217.9,309.3z M-217.1,294.1l-0.1,14l37.4-15.4v-2.1
			c-2.3-1-7.1-5.6-7.3-5.8c-1.3-0.8-2.7,0.4-2.7,0.4c-1.8,1.4-11.2,5.7-11.6,5.8l-0.2,0.1l-0.2-0.1c-4.4-3.3-6.4-1.9-9.1,0.1
			C-212.5,292.2-214.4,293.5-217.1,294.1z"/>
	</g>
	<g>
		<path d="M-205.1,292.1c-0.3,0-0.4,0-0.5-0.1c-0.2-0.1-0.3-0.3-0.2-0.5c0.1-0.2,0.3-0.3,0.5-0.2c0,0,1,0.2,4.1-1.2
			c0.2-0.1,0.4,0,0.5,0.2c0.1,0.2,0,0.4-0.2,0.5C-203.3,291.9-204.5,292.1-205.1,292.1z"/>
	</g>
	<g>
		<g>
			<g>
				<g>
					<rect x="-202" y="294.3" class="st4" width="0.8" height="6"/>
					<path d="M-201.2,300.8h-0.8c-0.2,0-0.4-0.2-0.4-0.4v-6c0-0.2,0.2-0.4,0.4-0.4h0.8c0.2,0,0.4,0.2,0.4,0.4v6
						C-200.8,300.6-201,300.8-201.2,300.8z"/>
				</g>
				<g>
					<rect x="-203.1" y="295.9" class="st4" width="3" height="0.7"/>
					<path d="M-200.1,297h-3c-0.2,0-0.4-0.2-0.4-0.4v-0.7c0-0.2,0.2-0.4,0.4-0.4h3c0.2,0,0.4,0.2,0.4,0.4v0.7
						C-199.7,296.8-199.9,297-200.1,297z"/>
				</g>
			</g>
			<g>
				<g>
					<rect x="-213.3" y="294.3" class="st4" width="0.8" height="6"/>
					<path d="M-212.5,300.8h-0.8c-0.2,0-0.4-0.2-0.4-0.4v-6c0-0.2,0.2-0.4,0.4-0.4h0.8c0.2,0,0.4,0.2,0.4,0.4v6
						C-212,300.6-212.2,300.8-212.5,300.8z"/>
				</g>
				<g>
					<rect x="-214.4" y="295.9" class="st4" width="3" height="0.7"/>
					<path d="M-211.4,297h-3c-0.2,0-0.4-0.2-0.4-0.4v-0.7c0-0.2,0.2-0.4,0.4-0.4h3c0.2,0,0.4,0.2,0.4,0.4v0.7
						C-210.9,296.8-211.1,297-211.4,297z"/>
				</g>
			</g>
			<g>
				<g>
					<rect x="-207.7" y="294.3" class="st4" width="0.8" height="6"/>
					<path d="M-206.8,300.8h-0.8c-0.2,0-0.4-0.2-0.4-0.4v-6c0-0.2,0.2-0.4,0.4-0.4h0.8c0.2,0,0.4,0.2,0.4,0.4v6
						C-206.4,300.6-206.6,300.8-206.8,300.8z"/>
				</g>
				<g>
					<rect x="-208.7" y="295.9" class="st4" width="3" height="0.7"/>
					<path d="M-205.7,297h-3c-0.2,0-0.4-0.2-0.4-0.4v-0.7c0-0.2,0.2-0.4,0.4-0.4h3c0.2,0,0.4,0.2,0.4,0.4v0.7
						C-205.3,296.8-205.5,297-205.7,297z"/>
				</g>
			</g>
			<g>
				<g>
					<rect x="-207.7" y="286.2" class="st4" width="1" height="6.7"/>
					<path d="M-206.7,293.4h-1c-0.2,0-0.4-0.2-0.4-0.4v-6.7c0-0.2,0.2-0.4,0.4-0.4h1c0.2,0,0.4,0.2,0.4,0.4v6.7
						C-206.2,293.2-206.4,293.4-206.7,293.4z M-207.2,292.5L-207.2,292.5l0.1-5.9h-0.1V292.5z"/>
				</g>
				<g>
					<rect x="-209" y="288.9" class="st4" width="3.7" height="0.8"/>
					<path d="M-205.3,290.2h-3.7c-0.2,0-0.4-0.2-0.4-0.4V289c0-0.2,0.2-0.4,0.4-0.4h3.7c0.2,0,0.4,0.2,0.4,0.4v0.8
						C-204.8,290-205,290.2-205.3,290.2z"/>
				</g>
				<g>
					<rect x="-208.4" y="287" class="st4" width="2.5" height="0.8"/>
					<path d="M-205.9,288.2h-2.5c-0.2,0-0.4-0.2-0.4-0.4V287c0-0.2,0.2-0.4,0.4-0.4h2.5c0.2,0,0.4,0.2,0.4,0.4v0.8
						C-205.5,288-205.7,288.2-205.9,288.2z"/>
				</g>
			</g>
		</g>
		<g>
			<g>
				<g>
					<rect x="-202" y="294.3" class="st4" width="0.8" height="6"/>
				</g>
				<g>
					<rect x="-203.1" y="295.9" class="st4" width="3" height="0.7"/>
				</g>
			</g>
			<g>
				<g>
					<rect x="-213.3" y="294.3" class="st4" width="0.8" height="6"/>
				</g>
				<g>
					<rect x="-214.4" y="295.9" class="st4" width="3" height="0.7"/>
				</g>
			</g>
			<g>
				<g>
					<rect x="-207.7" y="294.3" class="st4" width="0.8" height="6"/>
				</g>
				<g>
					<rect x="-208.7" y="295.9" class="st4" width="3" height="0.7"/>
				</g>
			</g>
			<g>
				<g>
					<rect x="-207.7" y="286.2" class="st4" width="1" height="6.7"/>
				</g>
				<g>
					<rect x="-209" y="288.9" class="st4" width="3.7" height="0.8"/>
				</g>
				<g>
					<rect x="-208.4" y="287" class="st4" width="2.5" height="0.8"/>
				</g>
			</g>
		</g>
	</g>
	<g>
		<path class="st1" d="M-199.9,321.6c-0.2,0.1-0.4,0.2-0.5,0.3c-0.2,0.1-0.4,0.1-0.6,0.1c-0.4-0.1-0.8-0.3-1.3-0.4
			c-1-0.2-2,0.6-2.7,0.6c-1.4-0.1-2-1-3.3,0c0,0-0.7,0.6-1.5-0.1c0,0,0.4,1.1,1.9,0c0,0,0.7-0.5,1.9,0.1c0,0,1,0.6,2.3-0.2
			c0,0,1-0.6,2.1,0c0.2,0.1,0.5,0.2,0.8,0.2S-200.2,321.9-199.9,321.6z"/>
		<path class="st1" d="M-209.1,322.7c-0.1,0-0.2,0-0.3,0c-0.4-0.1-0.6-0.5-0.6-0.5c0-0.1,0-0.2,0.1-0.2c0.1,0,0.2,0,0.2,0
			c0.6,0.6,1.2,0.1,1.2,0.1c1-0.7,1.6-0.5,2.3-0.3c0.3,0.1,0.7,0.2,1.2,0.3c0.3,0,0.7-0.1,1.1-0.3c0.5-0.2,1.1-0.4,1.7-0.3
			c0.2,0,0.4,0.1,0.7,0.2c0.2,0.1,0.4,0.2,0.6,0.2s0.3,0,0.5,0h0.1c0.2-0.1,0.3-0.1,0.4-0.2c0.1-0.1,0.2-0.1,0.2,0
			c0.1,0.1,0.1,0.2,0,0.2l-0.1-0.1l0.1,0.1c-0.3,0.3-0.6,0.7-1.1,0.7c-0.3,0-0.6-0.1-0.8-0.2c-1-0.6-1.9,0-1.9,0
			c-1.4,0.8-2.4,0.2-2.5,0.2c-1.1-0.6-1.7-0.1-1.8-0.1C-208.4,322.6-208.8,322.7-209.1,322.7z"/>
	</g>
	<g>
		<path class="st1" d="M-192.2,323.3c-0.2,0.2-0.5,0.3-0.8,0.4c-0.3,0.1-0.6,0.1-0.9,0.1c-0.7-0.1-1.2-0.5-1.9-0.6
			c-1.5-0.3-2.9,1-4.1,0.9c-2.1-0.1-2.9-1.6-5,0c0,0-1.1,0.9-2.2-0.1c0,0,0.6,1.6,2.8,0c0,0,1.1-0.8,2.9,0.1c0,0,1.4,0.8,3.4-0.3
			c0,0,1.5-0.9,3.2,0c0.3,0.2,0.7,0.3,1.1,0.3C-193,324.2-192.6,323.7-192.2,323.3z"/>
		<path class="st1" d="M-206,324.9c-0.1,0-0.3,0-0.4-0.1c-0.6-0.2-0.9-0.7-0.9-0.8s0-0.2,0.1-0.2c0.1,0,0.2,0,0.2,0
			c1,0.9,1.9,0.1,2,0.1c1.4-1.1,2.3-0.8,3.3-0.4c0.5,0.2,1.1,0.4,1.8,0.4c0,0,0,0,0.1,0c0.5,0,1-0.2,1.6-0.4
			c0.8-0.3,1.6-0.7,2.5-0.5c0.3,0.1,0.7,0.2,1,0.3c0.3,0.1,0.6,0.2,0.9,0.3c0.3,0,0.6,0,0.8-0.1h0.1c0.2-0.1,0.5-0.2,0.7-0.4
			c0.1-0.1,0.2-0.1,0.2,0s0.1,0.2,0,0.2l-0.1-0.1l0.1,0.1c-0.4,0.4-0.9,1-1.5,1c-0.4,0-0.8-0.1-1.2-0.3c-1.5-0.9-3,0-3,0
			c-2.1,1.1-3.6,0.3-3.6,0.3c-1.6-0.9-2.7-0.2-2.7-0.2C-204.9,324.6-205.5,324.9-206,324.9z M-201.4,324L-201.4,324
			c0.1,0.1,1.5,0.8,3.4-0.2l0,0c-0.1,0-0.1,0-0.2,0.1c-0.6,0.2-1.1,0.5-1.7,0.5h-0.1C-200.5,324.2-201,324.1-201.4,324z M-195,323.6
			c0.1,0,0.2,0.1,0.3,0.1c0.3,0.2,0.7,0.3,1,0.3c0.2,0,0.3-0.1,0.5-0.1c-0.2,0.1-0.5,0.1-0.8,0C-194.3,323.9-194.6,323.7-195,323.6
			L-195,323.6z M-196.3,323.3c0.2,0,0.5,0,0.8,0.1c-0.1,0-0.2-0.1-0.3-0.1c-0.2,0-0.5,0-0.7,0C-196.5,323.3-196.4,323.3-196.3,323.3
			z"/>
	</g>
	<g>
		<path class="st1" d="M-194.7,325.9c-1-0.2-2,0.6-2.7,0.6c-1.4-0.1-2-1-3.3,0c0,0-0.7,0.6-1.5-0.1c0,0,0.4,1.1,1.9,0
			c0,0,0.7-0.5,1.9,0.1c0,0,1,0.6,2.3-0.2L-194.7,325.9z"/>
		<path class="st1" d="M-201.5,327.1c-0.1,0-0.2,0-0.3,0c-0.4-0.1-0.6-0.5-0.6-0.5c0-0.1,0-0.2,0.1-0.2c0.1,0,0.2,0,0.2,0
			c0.6,0.6,1.2,0.1,1.2,0.1c1-0.8,1.6-0.5,2.3-0.3c0.3,0.1,0.7,0.2,1.2,0.3l0,0c0.3,0,0.6-0.1,1-0.3c0.5-0.2,1.1-0.4,1.7-0.3
			c0.1,0,0.1,0.1,0.1,0.2c0,0.1,0,0.1-0.1,0.2l-1.4,0.5c-1.4,0.8-2.4,0.2-2.4,0.2c-1.1-0.6-1.7-0.1-1.8-0.1
			C-200.7,326.9-201.1,327.1-201.5,327.1z"/>
	</g>
	<g>
		<path class="st1" d="M-186.9,321.7c-0.2,0.1-0.4,0.2-0.5,0.3c-0.3,0-0.5,0-0.7,0c-0.4-0.1-0.8-0.3-1.3-0.4c-1-0.2-2,0.6-2.7,0.6
			c-1.4-0.1-2-1-3.3,0c0,0-0.7,0.6-1.5-0.1c0,0,0.4,1.1,1.9,0c0,0,0.7-0.5,1.9,0.1c0,0,1,0.6,2.3-0.2c0,0,1-0.6,2.1,0
			c0.2,0.1,0.5,0.2,0.8,0.2C-187.5,322.3-187.2,321.9-186.9,321.7z"/>
		<path class="st1" d="M-196.1,322.8c-0.1,0-0.2,0-0.3,0c-0.4-0.1-0.6-0.5-0.6-0.5c0-0.1,0-0.2,0.1-0.2c0.1,0,0.2,0,0.2,0
			c0.6,0.6,1.2,0.1,1.2,0.1c1-0.7,1.6-0.5,2.3-0.3c0.3,0.1,0.7,0.2,1.2,0.3l0,0c0.3,0,0.6-0.1,1-0.3c0.5-0.2,1.1-0.4,1.7-0.3
			c0.2,0,0.4,0.1,0.7,0.2c0.2,0.1,0.4,0.2,0.6,0.2c0.2,0,0.4,0,0.5,0h0.1c0.2-0.1,0.3-0.1,0.4-0.2c0.1-0.1,0.2,0,0.2,0
			c0.1,0.1,0.1,0.2,0,0.2l-0.1-0.1l0.1,0.1c-0.3,0.3-0.6,0.7-1.1,0.7c-0.3,0-0.6-0.1-0.8-0.2c-1-0.6-1.9,0-1.9,0
			c-1.4,0.8-2.4,0.2-2.5,0.2c-1.1-0.6-1.7-0.1-1.8-0.1C-195.3,322.6-195.8,322.8-196.1,322.8z"/>
	</g>
	<g>
		<g>
			<path d="M-192.1,318.1c-0.1,0-0.2-0.1-0.3-0.2l-5.6-10.8l-4.1,9c-0.1,0.2-0.3,0.2-0.4,0.2c-0.2-0.1-0.2-0.3-0.2-0.4l4.4-9.6
				c0.1-0.3,0.2-0.3,0.3-0.3s0.2,0.1,0.3,0.2l5.9,11.4c0.1,0.2,0,0.4-0.1,0.5C-191.9,318.1-192,318.1-192.1,318.1z"/>
		</g>
		<g>
			<path class="st5" d="M-200.4,323.4c-0.3,0.1-0.6-0.6-0.7-0.7c-0.3-0.7-0.4-1.5-0.5-2.3c-0.1-0.8-0.3-1.6-0.6-2.3
				c-0.2-0.4-0.2-0.8-0.3-1.2c0-0.2-0.2-1,0-1.1c0,0,0.3-0.3,0.4-0.5v-0.4h0.5l0.3,0.1v0.3c0,0,3.8,1.8,6.4,2c0,0,1.5-0.5,3-0.7
				c0,0,2,0.3,1.6,0.9c0,0,0.5,1.6-2.3,3.1v0.4C-192.5,321.1-200.4,323.4-200.4,323.4z"/>
			<path d="M-200.4,323.8c-0.5,0-0.8-0.7-1-0.9c-0.3-0.6-0.4-1.3-0.5-2v-0.4c-0.1-0.7-0.3-1.4-0.6-2.3c-0.1-0.4-0.2-0.8-0.3-1.3
				v-0.2c-0.1-0.6-0.1-1,0.1-1.3c0,0,0.2-0.2,0.3-0.3v-0.3c0-0.1,0-0.2,0.1-0.2c0.1-0.1,0.2-0.1,0.3-0.1h0.5l0.4,0.1
				c0.1,0,0.2,0.2,0.2,0.3v0.1c0.8,0.3,3.9,1.7,6,1.9c0.3-0.1,1.6-0.5,3-0.7h0.1c0.5,0.1,1.6,0.3,1.9,0.8c0.1,0.2,0.1,0.3,0,0.5
				c0.1,0.5,0,1.9-2.3,3.3v0.2c0,0.2-0.1,0.3-0.2,0.4C-198.9,323.3-200.1,323.6-200.4,323.8L-200.4,323.8
				C-200.3,323.8-200.4,323.8-200.4,323.8z M-201.7,315.2L-201.7,315.2c0,0.1,0,0.2-0.1,0.3c-0.1,0.2-0.4,0.5-0.4,0.5
				c0,0.1,0,0.5,0.1,0.7c0,0.1,0,0.2,0,0.2c0,0.5,0.1,0.8,0.2,1.2c0.3,0.9,0.5,1.7,0.6,2.4v0.4c0.1,0.6,0.1,1.2,0.4,1.8
				c0.1,0.2,0.3,0.5,0.4,0.5c0.7-0.2,6.3-1.8,7.6-2.2v-0.1c0-0.1,0.1-0.3,0.2-0.3c2.4-1.4,2.1-2.7,2.1-2.8c0-0.1,0-0.2,0-0.3
				c-0.1-0.1-0.7-0.3-1.3-0.4c-1.5,0.2-2.9,0.7-2.9,0.7h-0.1c-2.6-0.3-6.3-2-6.5-2.1c-0.1-0.1-0.2-0.2-0.2-0.3L-201.7,315.2
				L-201.7,315.2z"/>
		</g>
		<g>
			<path d="M-192.5,320.7v0.4l-7.9,2.3c-0.3,0.1-0.6-0.6-0.7-0.7c-0.3-0.7-0.4-1.5-0.5-2.3C-201.6,320.4-197.7,322.5-192.5,320.7z"
				/>
		</g>
		<g>
			
				<rect x="-204.3" y="317" transform="matrix(-7.306556e-02 -0.9973 0.9973 -7.306556e-02 -533.0208 139.2558)" width="5.1" height="0.7"/>
		</g>
		<g>
			<path d="M-190.2,317.4c-0.3,1.1-4.8,0-4.8,0h0.1c0,0,1.5-0.5,3-0.7C-191.8,316.7-190.4,316.9-190.2,317.4L-190.2,317.4z"/>
		</g>
		<g>
			<path d="M-191.6,317.9c-1.4,0-3.3-0.5-3.4-0.5v-0.1c1.2,0.3,4.4,0.9,4.7,0.1h0.1C-190.2,317.8-190.8,317.9-191.6,317.9z"/>
		</g>
		<g>
			<path d="M-200.9,316.4c0,0,3.9,2.4,10.3,2.1c0,0-5.7,0.5-10.3-1.9V316.4z"/>
			<path d="M-191.9,318.7c-2,0-5.8-0.3-9.1-2c-0.1,0-0.1-0.1-0.1-0.1v-0.1c0-0.1,0-0.1,0.1-0.1s0.1,0,0.2,0c0,0,3.9,2.3,10.2,2.1
				l0,0c0.1,0,0.2,0.1,0.2,0.2c0,0.1-0.1,0.2-0.2,0.2C-190.6,318.6-191.1,318.7-191.9,318.7z"/>
		</g>
		<g>
			<path d="M-200.9,317.6c0,0,3.5,1.5,8.8,1.5c0,0-5,0.2-8.7-1.3L-200.9,317.6z"/>
			<path d="M-192.5,319.3c-1.3,0-5.3-0.1-8.4-1.3l-0.1-0.1l-0.1-0.2c0-0.1,0-0.1,0-0.2c0,0,0.1-0.1,0.2,0c0,0,3.5,1.4,8.7,1.5
				c0.2,0,0.2,0,0.2,0.1s-0.1,0.2-0.2,0.2C-192.1,319.3-192.3,319.3-192.5,319.3z"/>
		</g>
		<g>
			<path class="st6" d="M-200.9,318.7"/>
		</g>
		<g>
			<path d="M-201,318.7c0,0,2.5,1,6,1.1c0,0-2.7,0.2-5.9-0.9L-201,318.7z"/>
			<path d="M-195.5,319.9c-1,0-3.1-0.1-5.5-0.9l-0.1-0.1l-0.1-0.2c0-0.1,0-0.1,0-0.2c0,0,0.1-0.1,0.2,0c0,0,2.5,1,5.9,1
				c0.1,0,0.2,0.1,0.2,0.2c0,0.1-0.1,0.2-0.2,0.2C-194.9,319.9-195.1,319.9-195.5,319.9z"/>
		</g>
		<g>
			<path d="M-200.8,319.8c0,0,1.5,0.6,3.8,0.6c0,0-2.1,0.1-3.7-0.4L-200.8,319.8z"/>
			<path d="M-197.4,320.5c-0.7,0-2.1,0-3.5-0.4c-0.1,0-0.1-0.1-0.1-0.1v-0.2c0-0.1,0-0.1,0-0.2c0,0,0.1-0.1,0.2,0
				c0,0,1.5,0.6,3.7,0.6c0.1,0,0.2,0.1,0.2,0.2s-0.1,0.2-0.2,0.2C-197,320.5-197.2,320.5-197.4,320.5z"/>
		</g>
		<g>
			<path d="M-198.6,316.3V314l0.2-0.5l0.6-10.3c0,0,0-0.1,0.1,0l-0.3,10.2l0.2,0.6v2.5C-197.8,316.6-198.2,316.6-198.6,316.3z"/>
			<path d="M-197.7,316.7h-0.1c0,0-0.4-0.1-0.9-0.3h-0.1l0.1-2.5l0.2-0.5l0.6-10.3c0-0.1,0.1-0.1,0.1-0.1s0.1,0,0.2,0.1l0,0l0,0
				l-0.3,10.3l0.2,0.6V316.7z M-198.5,316.3c0.3,0.1,0.5,0.2,0.6,0.2v-2.4l-0.2-0.6l0,0l0.1-5.7l-0.3,5.7l-0.2,0.5V316.3z"/>
		</g>
		<g>
			<path d="M-193.6,317.3v-2.2l0.2-0.5l0.1-9.4c0,0,0-0.1,0.1,0l0.2,9.3l0.2,0.6v2.3C-192.8,317.6-193.2,317.5-193.6,317.3z"/>
			<path d="M-192.7,317.7h-0.1c0,0-0.4-0.1-0.8-0.3h-0.1v-2.3l0.2-0.4l0.1-9.3c0-0.1,0.1-0.1,0.1-0.1s0.1,0,0.2,0.1l0,0l0,0l0.2,9.3
				l0.2,0.6V317.7z M-193.5,317.2c0.2,0.1,0.4,0.2,0.6,0.2v-2.2l-0.2-0.6l-0.1-4.6v4.8l-0.2,0.4L-193.5,317.2z"/>
		</g>
		<g>
			<path d="M-192.6,305.7h-1.3c-0.1,0-0.1-0.1-0.1-0.1l0.1-0.1h1.3c0.1,0,0.1,0.1,0.1,0.1S-192.5,305.7-192.6,305.7z"/>
		</g>
		<g>
			<path d="M-190.9,317.8c-0.2,0-0.3-0.1-0.3-0.3l-2-9.2l-1.2,9c0,0.2-0.2,0.3-0.4,0.3s-0.3-0.2-0.3-0.4l1.5-10.9
				c0-0.2,0.2-0.3,0.3-0.3c0.2,0,0.3,0.1,0.3,0.3l2.4,11.1C-190.5,317.5-190.6,317.7-190.9,317.8
				C-190.8,317.8-190.8,317.8-190.9,317.8z"/>
		</g>
		<g>
			<g>
				<path d="M-191.4,306.6h-13c-0.1,0-0.2-0.1-0.2-0.2s0.1-0.2,0.2-0.2h13c0.1,0,0.2,0.1,0.2,0.2S-191.3,306.6-191.4,306.6z"/>
			</g>
			<g>
				<path d="M-203.9,306.5h11.9c0,0-0.8,1.8-2.3,0.4c0,0-1.3,1.3-2.5,0c0,0-1.4,1.3-2.4,0c0,0-1.5,1.2-2.3,0
					C-201.5,306.9-203,308.4-203.9,306.5z"/>
				<path d="M-195.6,307.6L-195.6,307.6c-0.4,0-0.8-0.2-1.2-0.5c-0.2,0.2-0.8,0.5-1.4,0.5c-0.4,0-0.7-0.2-1-0.5
					c-0.2,0.2-0.9,0.6-1.5,0.5c-0.3,0-0.6-0.2-0.8-0.5c-0.2,0.2-0.8,0.6-1.3,0.5s-0.8-0.4-1.1-1.1v-0.1l0.1-0.1h11.9
					c0,0,0.1,0,0.1,0.1v0.1c0,0-0.4,0.9-1.1,1c-0.4,0.1-0.9-0.1-1.4-0.5C-194.5,307.2-195,307.6-195.6,307.6z M-196.8,306.8
					C-196.7,306.8-196.7,306.8-196.8,306.8c0.4,0.4,0.8,0.6,1.2,0.6l0,0c0.7,0,1.2-0.5,1.2-0.5s0.1-0.1,0.2,0
					c0.4,0.4,0.9,0.6,1.2,0.5c0.4-0.1,0.7-0.4,0.8-0.7h-11.5c0.2,0.4,0.5,0.7,0.8,0.7c0.6,0.1,1.2-0.5,1.2-0.5h0.1
					c0,0,0.1,0,0.1,0.1c0.2,0.3,0.4,0.4,0.7,0.5c0.7,0.1,1.4-0.5,1.4-0.5h0.1h0.1c0.3,0.3,0.6,0.5,0.9,0.5
					C-197.5,307.4-196.9,306.8-196.8,306.8L-196.8,306.8z"/>
			</g>
		</g>
		<g>
			<path d="M-203,304c0,0,0.8,0.3,1.4-0.1c0.2-0.1,0.5-0.1,0.8-0.1c0.4,0.1,0.7,0.5,1.2,0.3c0.4-0.2,0.7-0.4,1.2-0.3
				c0,0,0.4,0.1,0.6,0v0.6l0,0c0-0.1-0.5-0.2-0.6-0.2c-0.3,0-0.6,0.2-1,0.3c-0.8,0.3-1.2-0.6-2.2-0.2
				C-201.6,304.4-202.5,304.8-203,304z"/>
			<path d="M-199.7,304.8c-0.3,0-0.5-0.1-0.7-0.2c-0.3-0.1-0.6-0.3-1.1-0.1c-0.4,0.2-1.1,0.3-1.6-0.4c0-0.1,0-0.1,0-0.2
				s0.1-0.1,0.2-0.1c0,0,0.7,0.2,1.3-0.1c0.3-0.1,0.6-0.2,0.9-0.1c0.2,0,0.4,0.1,0.5,0.2c0.2,0.1,0.4,0.2,0.6,0.1
				c0.1,0,0.2-0.1,0.3-0.2c0.3-0.1,0.5-0.3,0.9-0.2c0.2,0.1,0.4,0.1,0.5,0c0.1,0,0.1,0,0.2,0c0.1,0,0.1,0.1,0.1,0.2v0.6l0,0l0,0
				c0,0.2-0.2,0.2-0.3,0.1c-0.1,0-0.4-0.1-0.5-0.1c-0.2,0-0.4,0.1-0.6,0.2c-0.1,0-0.2,0.1-0.3,0.1
				C-199.5,304.8-199.6,304.8-199.7,304.8z M-201.1,304.1c0.3,0,0.6,0.1,0.8,0.2c0.3,0.1,0.5,0.2,0.8,0.1c0.1,0,0.2-0.1,0.3-0.1
				c0.2-0.1,0.5-0.2,0.8-0.2l0,0c0,0,0.2,0,0.4,0.1v-0.1c-0.2,0-0.4,0-0.5-0.1c-0.3-0.1-0.4,0-0.7,0.2c-0.1,0.1-0.2,0.1-0.4,0.2
				c-0.4,0.1-0.6,0-0.9-0.2c-0.1-0.1-0.3-0.1-0.4-0.2c-0.2,0-0.5,0-0.7,0.1c-0.3,0.2-0.6,0.2-0.9,0.2c0.3,0.1,0.6-0.1,0.7-0.1
				C-201.5,304.1-201.3,304.1-201.1,304.1z"/>
		</g>
	</g>
	<g>
		<rect x="-199.2" y="280.2" transform="matrix(-0.3803 -0.9249 0.9249 -0.3803 -552.1937 231.7778)" width="1.6" height="41.3"/>
	</g>
	<g>
		<path d="M-198.5,331.8c-2.6-0.3-19.9-9.5-19.9-20.7v-35.4h40V311c0,11.3-17.3,20.5-19.8,20.7L-198.5,331.8z M-216.9,277.4V311
			c0,10,16.2,18.9,18.4,19.2h0.1c2.2-0.3,18.3-9.2,18.3-19.2v-33.6H-216.9z"/>
	</g>
	<g>
		<g>
			<path class="st7" d="M-190.2,285.7c0.1,0,0.2,0,0.4,0c0.1,0,0.1,0,0.3,0s0.1,0,0.2,0c0.1,0,0.2,0,0.3,0s0.3,0,0.4,0.1
				c0.3,0,0.5,0,0.8,0c0.2,0,0.5,0,0.7,0c0.2,0,0.3-0.1,0.5-0.1h0.2c0,0,0.2,0,0.3-0.1c0.1,0,0.1,0,0.2,0c0.1,0,0-0.1,0-0.1
				s0.1-0.2,0.1-0.3c0-0.1,0-0.4,0-0.5c0-0.1,0-0.2,0-0.3c0-0.1,0-0.2,0-0.2c0-0.1,0-0.2,0-0.3c0-0.1,0-0.2,0-0.2c0-0.1,0-0.2,0-0.3
				c0-0.1,0-0.2,0-0.3s0-0.1,0-0.2c0-0.1,0-0.1-0.1-0.2c0-0.1,0-0.1-0.1-0.2c0-0.1-0.1-0.1-0.2-0.2c-0.1-0.1-0.1-0.1-0.1-0.1
				l-0.2-0.1l-0.1-0.1c-0.1,0-0.1,0-0.2-0.1c-0.1-0.1-0.3-0.2-0.4-0.2c-0.3-0.1-0.6-0.2-0.9-0.4c-0.1-0.1-0.1,0-0.2,0
				c-0.1,0-0.1,0-0.2,0s-0.2,0.1-0.2,0.1l-0.2,0.1c0,0-0.1,0.1-0.2,0.1c-0.1,0.1-0.1,0.1-0.2,0.1c-0.1,0-0.2,0.1-0.2,0.1
				s-0.1,0-0.2,0.1c-0.1,0-0.1,0-0.1,0l-0.2,0.1h-0.1h-0.1c0,0-0.1,0.1-0.2,0.2c-0.1,0-0.2,0.1-0.2,0.1v0.2v0.2v0.4
				c0,0.1,0,0.3,0,0.4s0,0.4-0.1,0.5c0,0.1,0,0.3,0,0.3v0.3v0.4C-190.5,285.2-190.5,285.7-190.2,285.7z"/>
			<path d="M-187.2,286c-0.1,0-0.2,0-0.3,0c-0.2,0-0.4,0-0.5,0c-0.2,0-0.3,0-0.5,0c-0.1,0-0.1,0-0.2,0c-0.1,0-0.1,0-0.2,0h-1.2
				c-0.3,0-0.6-0.2-0.6-0.9v-0.4v-0.3c0-0.1,0-0.3,0-0.4s0.1-0.3,0.1-0.4v-1.3l0.1-0.1c0,0,0.1-0.1,0.2-0.2c0,0,0.1-0.1,0.2-0.1
				l0.1-0.1h0.3l0.3-0.1c0.1,0,0.1-0.1,0.2-0.1c0.1-0.1,0.2-0.1,0.2-0.2c0.1,0,0.1,0,0.2-0.1c0.1-0.1,0.2-0.1,0.2-0.1h0.1l0.2-0.1
				l0,0c0,0,0.1-0.1,0.2-0.1s0.1,0,0.2-0.1c0.2-0.1,0.3,0,0.4,0c0.3,0.2,0.5,0.3,0.8,0.4c0.1,0,0.2,0.1,0.3,0.1
				c0.1,0,0.1,0.1,0.2,0.1c0.1,0.1,0.1,0.1,0.2,0.1c0.1,0.1,0.2,0.1,0.2,0.1h0.1c0.1,0,0.2,0.1,0.2,0.2c0.1,0.1,0.2,0.1,0.2,0.3
				c0,0,0,0.1,0.1,0.2c0,0,0,0,0,0.1s0,0.1,0,0.2v0.2c0,0.1,0,0.1,0,0.2v0.1c0,0.1,0,0.1,0,0.2v0.1v0.5c0,0.1,0,0.2,0,0.3
				c0,0,0,0.1,0,0.3c0,0,0,0.4-0.1,0.5c0,0-0.1,0.1-0.1,0.2v0.1c0,0.1-0.1,0.2-0.2,0.2c-0.1,0-0.1,0-0.2,0c-0.2,0-0.3,0.1-0.3,0.1
				h-0.2c-0.1,0-0.2,0-0.2,0c-0.1,0-0.1,0-0.2,0C-187.2,286-187.2,286-187.2,286z M-187.8,285.5c0.1,0,0.2,0,0.3,0s0.2,0,0.4,0
				c0.1,0,0.1,0,0.2,0c0.1,0,0.2,0,0.3,0h0.1c0,0,0.2,0,0.3-0.1l0,0l0,0c0,0,0.1-0.2,0.1-0.3c0,0,0-0.3,0-0.4c0-0.1,0-0.3,0-0.4
				c0,0,0,0,0-0.1v-0.1v-0.5c0-0.1,0-0.1,0-0.2v-0.1c0-0.1,0-0.1,0-0.2V283v-0.2c0-0.1,0-0.1-0.1-0.2c0,0,0-0.1-0.1-0.2
				c0,0-0.1,0-0.1-0.1l-0.2-0.1l-0.1-0.1c-0.1,0-0.1,0-0.1-0.1c-0.1,0-0.1-0.1-0.2-0.1c0,0.1,0,0.1-0.1,0c-0.3-0.1-0.6-0.2-0.9-0.4
				h-0.1c-0.1,0-0.1,0-0.1,0s-0.1,0-0.1,0.1l-0.2,0.1c0,0-0.1,0.1-0.2,0.1c-0.1,0.1-0.2,0.1-0.2,0.1l-0.1,0.1l-0.1,0.1
				c0,0-0.1,0-0.1,0.1c-0.1,0.1-0.2,0.1-0.2,0.1l-0.2,0.1h-0.2c-0.1,0-0.1,0.1-0.2,0.1l0,0v0.1v1c0,0.1-0.1,0.4-0.1,0.5
				c0,0,0,0.1,0,0.2v0.3v0.4c0,0.4,0.1,0.4,0.1,0.5h1c0.1,0,0.2,0,0.3,0h0.1c0.1,0,0.3,0,0.4,0C-188,285.5-187.9,285.5-187.8,285.5z
				"/>
		</g>
		<g>
			<g>
				<path d="M-188.1,281.4c-0.1,0-0.2-0.1-0.2-0.2v-1.7c0-0.1,0.1-0.2,0.2-0.2c0.1,0,0.2,0.1,0.2,0.2v1.7
					C-187.8,281.3-187.9,281.4-188.1,281.4z"/>
			</g>
			<g>
				<path d="M-187.5,280.2h-1.1c-0.1,0-0.2-0.1-0.2-0.2s0.1-0.2,0.2-0.2h1.1c0.1,0,0.2,0.1,0.2,0.2S-187.3,280.2-187.5,280.2z"/>
			</g>
		</g>
		<g>
			<path d="M-187.4,283.4c0-0.4-0.3-0.7-0.7-0.7c-0.4,0-0.7,0.3-0.7,0.7l0,0l0,0v2.4h1.4V283.4L-187.4,283.4z"/>
		</g>
	</g>
	<g>
		<path class="st1" d="M-198.5,350.2c12.9,0.1,26.2-4.8,36.9-16.4l-3.9-5.6c-0.6-1.2-2.5-1.5-3.6-1.1l-2.6-4.1
			c-4.2,0-6.1,4.3-5.3,5.7l2.9,5.3c-15.3,10-32.1,10.6-48.8,0l2.9-5.3c0.8-1.4-1.1-5.7-5.3-5.7l-2.6,4.1c-1.2-0.5-3-0.1-3.6,1.1
			l-3.9,5.6C-224.7,345.5-211.4,350.3-198.5,350.2z"/>
	</g>
	<g>
		<path d="M-198.2,350.8c-0.2,0-0.4,0-0.6,0c-10,0-24.4-2.9-37-16.5l-0.3-0.3l4.1-6c0.6-1.2,2.4-1.7,3.8-1.4l2.5-4h0.3
			c2.2,0,4.2,1.1,5.3,3c0.7,1.3,0.9,2.6,0.5,3.4l-2.7,4.8c15.7,9.8,32.1,9.8,47.4,0l-2.7-4.9c-0.5-0.8-0.3-2.2,0.5-3.4
			c1.1-1.9,3.1-3,5.3-3h0.3l2.5,4c1.4-0.3,3.2,0.2,3.9,1.5l4.1,5.9l-0.3,0.3C-173.8,347.9-188.2,350.8-198.2,350.8z M-198.5,349.7
			L-198.5,349.7c0.1,0,0.2,0,0.3,0c9.7,0,23.7-2.8,35.9-15.9l-3.7-5.2c-0.5-1-2.1-1.3-3-0.9l-0.4,0.2l-2.6-4.2
			c-2.4,0.1-3.7,1.8-4.1,2.5c-0.6,1-0.7,2-0.5,2.4l3.2,5.7l-0.4,0.3c-15.9,10.4-33,10.4-49.4,0l-0.4-0.3l3.2-5.7
			c0.2-0.4,0.1-1.4-0.5-2.4c-0.4-0.7-1.7-2.4-4.1-2.5l-2.6,4.2l-0.4-0.2c-0.9-0.4-2.5-0.1-3,0.8l-3.7,5.3
			C-222.4,347.1-208.2,349.8-198.5,349.7L-198.5,349.7z"/>
	</g>
	<g>
		<g>
			<path d="M-216.3,340.5l1.5,0.7c0,0-0.2,0-0.3,0.2c-0.2,0.1-0.3,0.4-0.3,0.4c-0.1-0.4-0.5-0.8-1-1.1c-1.1-0.5-2.3,0-2.8,1.2
				c-0.5,1.1-0.3,2.4,0.7,2.9c0.6,0.3,1.4,0.1,2-0.3l-0.3,0.5c-0.6,0.2-1.3,0.1-1.9-0.2c-1.2-0.5-1.7-1.7-1.1-3.2
				C-219.2,340.3-217.8,339.8-216.3,340.5z"/>
			<path d="M-217.5,345.3c-0.4,0-0.8-0.1-1.3-0.3c-1.4-0.6-1.8-2-1.2-3.5c0.6-1.4,2.1-1.9,3.6-1.2l0,0l2,0.9l-0.4,0.1
				c0,0-0.1,0-0.2,0.1s-0.2,0.3-0.2,0.3l-0.2,0.5l-0.1-0.6c-0.1-0.3-0.4-0.7-1-0.9c-0.5-0.2-1-0.2-1.5,0c-0.5,0.2-0.9,0.6-1.1,1.1
				s-0.3,1.1-0.2,1.6c0.1,0.3,0.3,0.8,0.8,1.1c0.5,0.2,1.2,0.1,1.8-0.3l0.5-0.4l-0.5,1.2h-0.1C-217,345.2-217.2,345.3-217.5,345.3z
				 M-217.8,340.3c-0.8,0-1.5,0.5-1.8,1.3c-0.4,1-0.3,1.9,0.2,2.5c-0.1-0.2-0.2-0.4-0.2-0.6c-0.1-0.6,0-1.2,0.2-1.8
				c0.3-0.6,0.7-1.1,1.3-1.3C-218,340.4-217.9,340.4-217.8,340.3z"/>
		</g>
		<g>
			<path d="M-215.5,345.3l1-3.1c0.2-0.7-0.3-1-0.2-1c0.8,0.1,0.7,0.7,0.7,0.7c0.5-0.2,0.9-0.3,1.3-0.1c0.5,0.2,0.8,0.6,0.6,1.1
				c-0.4,1.1-2,1.2-2,1.2c0.7,0.5,0.7,2.3,1.7,2.9l-0.9-0.3c-0.4-0.4-0.7-1.8-0.8-2c-0.1-0.4-0.4-0.8-0.5-0.6l-0.5,1.4
				c0,0.1-0.1,0.4-0.1,0.6l-0.7-0.2C-215.7,345.8-215.6,345.4-215.5,345.3z M-212.6,342.7c0.1-0.5,0-0.7-0.4-0.8s-0.9,0-1,0.3
				l-0.5,1.6C-214.5,343.8-213.1,344-212.6,342.7z"/>
			<path d="M-212.4,347.1l-1-0.3l0,0c-0.3-0.4-0.6-1.3-0.8-1.8c0-0.1-0.1-0.2-0.1-0.2c-0.1-0.2-0.1-0.3-0.2-0.4l-0.4,1.2
				c-0.1,0.2-0.1,0.4-0.1,0.4l0.1,0.3l-1.3-0.4l0.3-0.2c0,0,0.1-0.1,0.2-0.4h0.2l-0.2-0.1l1-3.1c0.1-0.5-0.1-0.7-0.1-0.8
				c0,0-0.1-0.1,0-0.2l0.1-0.1h0.1c0.5,0.1,0.7,0.4,0.8,0.6c0.4-0.2,0.8-0.2,1.2-0.1c0.3,0.1,0.5,0.3,0.7,0.5
				c0.1,0.2,0.2,0.5,0.1,0.8c-0.3,0.9-1.3,1.2-1.8,1.3c0.2,0.3,0.3,0.7,0.5,1.1c0.2,0.6,0.5,1.3,1,1.6L-212.4,347.1z M-213.2,346.5
				l0.2,0.1c-0.3-0.4-0.4-0.8-0.6-1.3c-0.2-0.5-0.3-1-0.6-1.2l0,0c0.1,0.2,0.2,0.4,0.2,0.4s0,0.1,0.1,0.2
				C-213.8,345.2-213.5,346.2-213.2,346.5z M-215.5,345.8l0.2,0.1c0-0.1,0-0.3,0.1-0.4l0.5-1.4c0,0,0-0.1,0.1-0.1l0,0l0.6-1.8l0,0
				v-0.3c0,0,0-0.2-0.2-0.3c0.1,0.2,0.1,0.5,0,0.7l-1,3.1l-0.2-0.1l0.2,0.1C-215.4,345.5-215.5,345.7-215.5,345.8z M-212.7,341.9
				c0.2,0.2,0.3,0.5,0.2,0.9l0,0c-0.1,0.4-0.4,0.7-0.7,0.9c0.4-0.2,0.8-0.4,0.9-0.9c0.1-0.2,0-0.4,0-0.6
				C-212.4,342.1-212.5,342-212.7,341.9z M-213.4,342c-0.2,0-0.4,0.1-0.5,0.2l-0.5,1.4c0.4,0,1.2-0.1,1.5-1c0.1-0.3,0-0.5-0.3-0.6
				C-213.2,342-213.3,342-213.4,342z"/>
		</g>
		<g>
			<path d="M-211.3,346.7l0.8-3.2c0.1-0.4,0-0.6-0.2-0.8c-0.2-0.1-0.5-0.3-0.3-0.3l1.2,0.3l-1,4.1c0,0.1-0.1,0.4,0,0.6l-0.7-0.2
				C-211.4,347.2-211.3,346.8-211.3,346.7z"/>
			<path d="M-210.6,347.7l-1.4-0.3l0.3-0.2c0,0,0.1-0.1,0.2-0.5l0.8-3.2c0-0.2,0.1-0.5-0.1-0.6c-0.3-0.2-0.5-0.3-0.4-0.5
				c0-0.1,0.1-0.1,0.3-0.1l1.3,0.3l-1.1,4.2c-0.1,0.4-0.1,0.5,0,0.5L-210.6,347.7z M-211.3,347.2l0.2,0.1c0-0.1,0-0.3,0.1-0.4l1-3.9
				l-0.4-0.1c0.1,0.2,0.2,0.5,0.1,0.8l-0.8,3.2C-211.2,346.9-211.2,347-211.3,347.2z"/>
		</g>
		<g>
			<path d="M-209.5,341.6c0.2-0.1,0-0.4-0.1-0.3c-0.3,0.1-0.9,0.6-0.9,0.6S-209.8,341.7-209.5,341.6z"/>
			<path d="M-210.5,342C-210.6,342-210.6,342-210.5,342h-0.2v-0.1c0-0.1,0-0.2,1-0.8c0.1-0.1,0.2,0,0.3,0c0.1,0.1,0.2,0.2,0.2,0.4
				c0,0.1-0.1,0.2-0.2,0.2C-209.5,341.8-210.2,342-210.5,342z"/>
		</g>
		<g>
			<path d="M-206.6,343.1c1.2,0.2,2.2,1.2,1.9,2.9s-1.6,2.3-2.8,2.1c-1.2-0.2-2.2-1.2-1.9-2.9C-209.1,343.6-207.8,343-206.6,343.1z
				 M-207.4,348c0.9,0.1,1.9-0.5,2.2-2s-0.5-2.5-1.4-2.6c-0.9-0.1-1.9,0.5-2.2,2S-208.3,347.8-207.4,348z"/>
			<path d="M-207.1,348.3c-0.1,0-0.3,0-0.4,0c-1.3-0.2-2.4-1.3-2.1-3.1c0.1-0.8,0.5-1.5,1.1-1.9c0.5-0.4,1.2-0.5,1.8-0.4l0,0
				c1.3,0.2,2.4,1.3,2.1,3.1C-204.8,347.6-205.9,348.3-207.1,348.3z M-205.5,343.9c0,0.1,0.1,0.1,0.1,0.2c0.3,0.5,0.4,1.2,0.3,1.9
				c-0.1,0.8-0.4,1.4-0.9,1.7c0,0-0.1,0.1-0.2,0.1c0.6-0.3,1.1-0.9,1.3-1.8C-204.7,345-205,344.3-205.5,343.9z M-206.9,343.5
				c-0.7,0-1.5,0.6-1.7,1.9c-0.1,0.7,0,1.3,0.3,1.7c0.2,0.4,0.6,0.6,1,0.7l0,0c0.4,0.1,0.8,0,1.2-0.3c0.4-0.3,0.7-0.9,0.8-1.5
				c0.1-0.7,0-1.3-0.3-1.7c-0.2-0.4-0.6-0.6-1-0.7C-206.8,343.5-206.8,343.5-206.9,343.5z M-208,343.5c-0.1,0-0.2,0.1-0.3,0.2
				c-0.5,0.3-0.9,0.9-1,1.6c-0.2,1,0.1,1.7,0.7,2.1c0-0.1-0.1-0.1-0.1-0.2c-0.3-0.5-0.4-1.2-0.3-1.9
				C-208.8,344.4-208.4,343.8-208,343.5z"/>
		</g>
		<g>
			<path d="M-203.9,348.2c-0.1,0,0.1-0.1,0.2-0.4c0-0.2,0-0.4,0.1-0.4c0.1,0,0.1,0.9,1.1,1c0.6,0,1-0.3,1-1c0.1-1.3-2.6-0.7-2.5-2.3
				c0.1-1,0.9-1.3,1.8-1.3c0.5,0,0.9,0.2,1.3,0.4c0,0-0.2,0.3-0.3,0.8c0,0.1-0.3-0.9-1.2-1c-0.5,0-1.1,0.1-1.2,0.7
				c-0.1,1.6,2.6,0.8,2.5,2.5c0,0.8-0.8,1.4-1.8,1.4C-203.2,348.5-203.6,348.4-203.9,348.2z"/>
			<path d="M-202.7,348.7h-0.1c-0.4,0-0.8-0.1-1.2-0.4h-0.1v-0.1c0-0.1,0-0.2,0.1-0.2c0-0.1,0.1-0.1,0.1-0.2c0-0.1,0-0.1,0-0.2
				s0-0.3,0.1-0.3h0.1h0.1c0.1,0,0.1,0.1,0.1,0.2c0.1,0.2,0.2,0.7,0.9,0.8c0.2,0,0.4,0,0.6-0.2c0.2-0.1,0.3-0.4,0.3-0.6
				c0-0.5-0.4-0.6-1-0.8c-0.7-0.2-1.5-0.5-1.4-1.5c0.1-1.1,1.1-1.5,2-1.4c0.5,0,0.9,0.2,1.4,0.4h0.1v0.1c0,0.1,0,0.1-0.1,0.2
				c-0.1,0.1-0.2,0.3-0.2,0.6v0.1h-0.1c-0.1,0-0.2-0.1-0.2-0.2c-0.1-0.2-0.4-0.8-1-0.8c-0.4,0-0.6,0-0.8,0.2
				c-0.1,0.1-0.2,0.2-0.2,0.4c0,0.6,0.4,0.8,1.1,1c0.6,0.2,1.4,0.5,1.4,1.4C-201,348.1-201.7,348.7-202.7,348.7z M-203.7,348.1
				c0.1,0.1,0.2,0.1,0.4,0.1c-0.1-0.1-0.2-0.2-0.3-0.3C-203.7,348-203.7,348.1-203.7,348.1z M-203.7,344.5c-0.1,0.2-0.2,0.4-0.2,0.6
				c0,0.7,0.4,0.9,1.2,1.2c0.6,0.2,1.3,0.4,1.3,1.2c0,0.1,0,0.3-0.1,0.4c0.1-0.2,0.2-0.4,0.2-0.6c0-0.7-0.5-0.9-1.1-1.1
				c-0.6-0.2-1.4-0.4-1.3-1.4C-203.7,344.6-203.7,344.5-203.7,344.5z M-201.7,344c0.2,0.1,0.3,0.3,0.4,0.5c0-0.1,0.1-0.2,0.1-0.2
				C-201.3,344.1-201.5,344.1-201.7,344z"/>
		</g>
		<g>
			<path d="M-200.6,344.5c0,0,0.4-0.6,0.4-1c0-0.1,0.2,0.4,1,0.4l3.7-0.1c0,0-0.2,0.1-0.3,0.3c-0.1,0.2-0.1,0.5-0.1,0.5
				c-0.3-0.4-0.5-0.5-1-0.5h-0.6c-0.8,0-1.6,1.4-1.6,2.6c0,1.2,0.7,1.9,1.6,1.9c0.8,0,1.4-0.6,1.7-1.1v0.6c-0.4,0.4-0.9,0.6-1.7,0.7
				c-1.1,0-2.1-0.6-2.2-1.9c0-1.7,1.5-2.8,1.5-2.8h-1.4C-200.3,344.1-200.5,344.4-200.6,344.5z"/>
			<path d="M-197.6,348.9c-1.1,0-2.2-0.6-2.3-2c0-1.2,0.7-2.2,1.2-2.6h-0.9c-0.5,0-0.7,0.2-0.8,0.3c-0.1,0-0.1,0.1-0.2,0.1l-0.4,0.1
				l0.3-0.4c0.1-0.2,0.4-0.6,0.4-0.9v-0.1l0.2-0.1l0.1,0.1c0.1,0.1,0.3,0.3,0.9,0.3l4.2-0.1l-0.4,0.3c0,0-0.2,0.1-0.2,0.2
				c-0.1,0.1-0.1,0.3-0.1,0.4v0.4l-0.3-0.3c-0.3-0.3-0.4-0.4-0.8-0.4h-0.6c-0.7,0-1.4,1.3-1.4,2.5c0,0.6,0.2,1,0.4,1.3
				c0.2,0.3,0.6,0.4,1,0.4c0.8,0,1.3-0.6,1.5-1l0.3,0.1v0.7l-0.1,0.1C-196.2,348.6-196.7,348.9-197.6,348.9L-197.6,348.9z
				 M-199,345.1c-0.3,0.4-0.6,1-0.6,1.7c0,0.7,0.4,1.2,0.9,1.5l-0.1-0.1c-0.3-0.4-0.5-0.9-0.5-1.5
				C-199.3,346.2-199.2,345.6-199,345.1z M-200.1,343.8c0,0.1-0.1,0.2-0.1,0.2c0.1,0,0.2-0.1,0.4-0.1
				C-199.9,343.9-200,343.9-200.1,343.8z"/>
		</g>
	</g>
	<g>
		<path d="M-173.9,330.5c-0.2,0-0.3-0.1-0.4-0.2l-1.5-2.4c-0.1-0.2-0.1-0.4,0-0.5c0.1-0.2,0.3-0.3,0.4-0.3c1.8-0.1,2.5-1,2.9-1.7
			c0.4-0.8,0.3-1.4,0.2-1.6c-0.2-0.1-0.4-0.3-0.3-0.6c0-0.3,0.3-0.5,0.6-0.4c0.6,0.1,0.9,0.8,0.8,1.7c-0.1,1.2-0.9,3.1-3.3,3.6
			l1.1,1.7c0.2,0.2,0.1,0.6-0.2,0.7C-173.7,330.5-173.8,330.5-173.9,330.5z"/>
	</g>
	<g>
		<path d="M-173.8,334.5l-0.6-0.8c0.2-0.1,0.5-0.3,1-0.6c4.1-2.6,6.1-4.3,6.1-5c0,0,0-0.1-0.2-0.2l0.5-0.9c0.4,0.2,0.7,0.6,0.7,1.1
			c0,1.5-2.6,3.4-6.6,5.9C-173.3,334.2-173.7,334.4-173.8,334.5z"/>
	</g>
	<g>
		<path d="M-175.3,331c-0.6,0-1.1-0.2-1.6-0.8l0.8-0.7c0.7,0.9,1.7,0.4,3.6-1c1-0.7,2.1-1.5,3.2-1.8l0.3,1c-0.9,0.3-1.9,1-2.9,1.6
			C-173,330.1-174.2,331-175.3,331z"/>
	</g>
	<g>
		<path d="M-223.2,330.5c-0.1,0-0.2,0-0.3-0.1c-0.2-0.2-0.3-0.5-0.2-0.7l1.1-1.7c-2.4-0.5-3.2-2.4-3.3-3.6c-0.1-0.9,0.3-1.6,0.8-1.7
			c0.3,0,0.6,0.1,0.6,0.4c0,0.2-0.1,0.5-0.3,0.6c-0.1,0.2-0.2,0.9,0.2,1.6c0.3,0.7,1.1,1.6,2.9,1.7c0.2,0,0.4,0.1,0.4,0.3
			c0.1,0.2,0.1,0.4,0,0.5l-1.5,2.4C-222.9,330.4-223,330.5-223.2,330.5z"/>
	</g>
	<g>
		<path d="M-223.3,334.5c-0.2-0.1-0.5-0.3-0.9-0.6c-4-2.5-6.6-4.5-6.6-5.9c0-0.4,0.3-0.8,0.7-1.1l0.5,0.9c-0.2,0.1-0.2,0.1-0.2,0.2
			c0,0.8,2,2.5,6.1,5c0.5,0.3,0.8,0.5,1,0.6L-223.3,334.5z"/>
	</g>
	<g>
		<path d="M-221.8,331c-1.1,0-2.3-0.8-3.4-1.6c-0.9-0.7-1.9-1.4-2.9-1.6l0.3-1c1.1,0.3,2.2,1.1,3.2,1.8c1.9,1.4,2.9,1.9,3.6,1
			l0.8,0.7C-220.6,330.7-221.2,331-221.8,331z"/>
	</g>
	<g>
		<g>
			<path d="M-187.9,347l-0.8-3.2c-0.1-0.4-0.3-0.6-0.5-0.6s-0.6-0.1-0.4-0.1l1.2-0.3l1,4.1c0,0.1,0.1,0.4,0.3,0.5l-0.7,0.2
				C-187.8,347.5-187.8,347.2-187.9,347z"/>
			<path d="M-188.1,347.9l0.2-0.3c0,0,0-0.2,0-0.5h0.2h-0.2l-0.8-3.2c0-0.2-0.2-0.4-0.4-0.5c-0.4,0-0.6-0.1-0.6-0.2
				c0-0.1,0-0.2,0.2-0.2l1.3-0.3l1,4.3c0.1,0.4,0.2,0.4,0.2,0.5l0.3,0.2L-188.1,347.9z M-187.7,347c0,0.1,0.1,0.3,0.1,0.4h0.2
				c-0.1-0.1-0.1-0.2-0.1-0.4l-1-3.9h-0.5c0.2,0.1,0.4,0.3,0.5,0.7L-187.7,347h-0.2H-187.7z"/>
		</g>
		<g>
			<path d="M-185.9,347.2c0-0.3,0-0.5-0.1-0.8l-1.1-3.5c0,0-0.2-0.1-0.4-0.1c-0.1,0-0.6,0-0.3-0.1l0.9-0.3l4,2.9l-0.9-2.9
				c-0.1-0.3-0.2-0.3-0.3-0.5c-0.1-0.2-0.7-0.2-0.5-0.3l0.6-0.2l1.4,4.4c0,0.1,0.1,0.2,0,0.2c0,0-0.2-0.1-0.3-0.2l-4.1-2.9l1,3.1
				c0.2,0.5,0.5,0.8,0.8,0.9C-185.1,346.9-185.9,347.2-185.9,347.2z"/>
			<path d="M-186,347.3c-0.1,0-0.1,0-0.1-0.1v-0.1V347c0-0.2,0-0.4-0.1-0.7l-1.1-3.4c-0.1,0-0.2-0.1-0.3-0.1h-0.1
				c-0.2,0-0.3,0-0.3-0.2c0-0.2,0.1-0.2,0.2-0.2l0.9-0.3l3.7,2.6l-0.8-2.2c-0.1-0.2-0.1-0.2-0.2-0.3l0,0c0,0-0.2-0.1-0.3-0.1
				c-0.2-0.1-0.3-0.1-0.3-0.2c0,0,0-0.1,0.2-0.2l0.8-0.3l1.5,4.6c0,0.1,0.1,0.2,0,0.3v0.1h-0.1c-0.1,0-0.2,0-0.4-0.1h-0.1l-3.7-2.6
				l0.8,2.4c0.1,0.4,0.5,0.7,0.7,0.8l0.3,0.2l-0.4,0.1C-185.6,347.3-185.9,347.3-186,347.3z M-187,342.8l4.2,2.9l-0.1-0.2l-4.1-2.9
				l-0.2,0.1L-187,342.8z"/>
		</g>
		<g>
			<path d="M-181.1,345.5c0-0.3,0-0.5-0.1-0.7l-1.5-3.3c0,0-0.3-0.1-0.4-0.1c-0.1,0-0.5,0.1-0.3-0.1l0.8-0.4l4.3,2.4l-1.3-2.8
				c-0.1-0.3-0.2-0.3-0.3-0.4s-0.7-0.1-0.5-0.2l0.6-0.3l1.9,4.2c0,0.1,0.1,0.2,0,0.2c0,0-0.2-0.1-0.3-0.1l-4.4-2.4l1.3,2.8
				c0.2,0.5,0.6,0.7,0.9,0.8C-180.3,345.2-181.1,345.5-181.1,345.5z"/>
			<path d="M-181.1,345.7c-0.1,0-0.1,0-0.1-0.1l0,0l0,0c0-0.2,0-0.4-0.1-0.7l-1.5-3.3c-0.1,0-0.2,0-0.3-0.1h-0.1
				c-0.2,0-0.3,0-0.4-0.1c0-0.2,0.1-0.2,0.2-0.2l0.9-0.4l4,2.2l-1-2.3c-0.1-0.2-0.1-0.2-0.3-0.3l0,0c0,0-0.2-0.1-0.3-0.1
				c-0.2,0-0.3-0.1-0.3-0.2c0,0,0-0.1,0.1-0.2l0.8-0.3l2,4.4c0.1,0.1,0.1,0.2,0.1,0.3v0.1h-0.1c-0.1,0.1-0.2,0-0.4-0.1h-0.1l-4-2.2
				l1,2.3c0.2,0.4,0.5,0.6,0.8,0.8l0.4,0.1l-0.4,0.2C-180.8,345.6-181,345.7-181.1,345.7z M-182.6,341.3l4.5,2.4l-0.1-0.2l-4.4-2.5
				l-0.2,0.1L-182.6,341.3z"/>
		</g>
		<g>
			<path d="M-192,348.5c0.8-0.9,2.4-0.5,2.4-0.5c0.9,0.1,1.2-0.1,1.2-0.1l-0.1-1c0,0.8-0.8,0.7-0.8,0.7c-1.1-0.4-1.3,0-1.7,0.1h-0.1
				l-0.9-5.4l-1.4,0.2c-0.2,0,0.2,0.1,0.4,0.2c0.3,0.1,0.5,0.3,0.5,0.7l0.7,4.5c0,0.1,0.1,0.2,0,0.4L-192,348.5z"/>
			<path d="M-192,348.7C-192.1,348.7-192.1,348.6-192,348.7c-0.1-0.1-0.1-0.1-0.1-0.2l0.2-0.3c0.1-0.1,0.1-0.1,0-0.2v-0.1l-0.7-4.5
				c0-0.2-0.1-0.5-0.4-0.6c-0.5-0.1-0.6-0.1-0.6-0.3c0-0.1,0.1-0.1,0.2-0.1l1.4-0.2c0.1,0,0.1,0,0.1,0.1l0.9,5.3c0,0,0.1,0,0.1-0.1
				c0.3-0.2,0.6-0.4,1.6-0.1l0,0c0,0,0.3,0,0.5-0.1c0.1-0.1,0.2-0.2,0.2-0.4c0-0.1,0-0.1,0.1-0.1s0.1,0,0.1,0.1l0.1,1
				c0,0,0,0.1-0.1,0.1c0,0-0.4,0.2-1.2,0.1C-189.7,348.1-191.2,347.8-192,348.7C-192,348.6-192,348.7-192,348.7z M-193,342.5
				c0.3,0.1,0.6,0.4,0.6,0.8l0.7,4.5v0.1c0,0.1,0,0.2,0,0.2c0.9-0.5,2-0.2,2.1-0.2c0.6,0.1,0.9,0,1,0v-0.4c0,0,0,0-0.1,0.1
				c-0.3,0.2-0.7,0.2-0.7,0.2c-0.9-0.3-1.2-0.1-1.4,0c-0.1,0-0.1,0.1-0.2,0.1h-0.1h-0.1c0,0-0.1,0-0.1-0.1l-0.9-5.2L-193,342.5z"/>
		</g>
	</g>
	<g>
		<g>
			<path d="M-176.1,274.6c-0.1,0.2-0.2,0.4,0.3,0.4c0.2,0,0.8-0.1,1.1-0.1c0.5,0,0.3-0.6,0.2-1c-0.1-0.7,0-0.8,0-1h-1.5
				C-175.9,273.9-176,274.4-176.1,274.6z"/>
		</g>
		<g>
			<path d="M-175.6,275.2L-175.6,275.2c-0.2,0-0.5,0-0.6-0.2c-0.1-0.1,0-0.3,0-0.4h0.2h-0.2v-0.1c0-0.2,0.2-0.7,0.1-1.7v-0.2h1.9
				v0.2c0,0.1,0,0.1,0,0.2c0,0.2,0,0.3,0,0.8c0,0.1,0,0.2,0,0.2c0.1,0.3,0.1,0.6,0,0.8c-0.1,0.1-0.2,0.2-0.4,0.2
				C-174.8,275.1-175.3,275.2-175.6,275.2z M-175.9,274.7c0,0,0.1,0,0.2,0c0.2,0,0.8-0.1,1.1-0.1c0.1,0,0.1,0,0.2,0
				c0-0.1,0-0.3,0-0.5c0-0.1,0-0.2,0-0.3c-0.1-0.5-0.1-0.7-0.1-0.8h-1.1c0,0.8-0.1,1.3-0.2,1.5v0.1L-175.9,274.7L-175.9,274.7z"/>
		</g>
		<g>
			<path class="st3" d="M-177.6,272.8h4.8c0.3,0,0.3,0.1,0.3-0.5c0-0.3-0.1-1.2-1-1.6c0-0.3-0.5-1.1-1.6-1.1c-0.2,0-1.1,0-1.7,1.2
				C-177.8,270.5-178.4,272.7-177.6,272.8z"/>
		</g>
	</g>
	<g>
		<g>
			<path d="M-223.5,312.5c-0.1,0.2-0.2,0.4,0.3,0.4c0.2,0,0.9-0.1,1.1-0.1c0.5,0,0.3-0.6,0.2-1c-0.1-0.7-0.1-0.8,0-1h-1.5
				C-223.3,311.8-223.4,312.3-223.5,312.5z"/>
		</g>
		<g>
			<path d="M-223,313h-0.1c-0.2,0-0.4,0-0.5-0.2c-0.1-0.2,0-0.3,0-0.4l0,0v-0.1c0-0.2,0.2-0.7,0.1-1.6v-0.2h1.9v0.2
				c0,0.1,0,0.1,0,0.2c0,0.2,0,0.3,0.1,0.8c0,0.1,0,0.2,0,0.3c0.1,0.3,0.1,0.6-0.1,0.8c-0.1,0.1-0.2,0.2-0.4,0.2
				C-222.2,312.9-222.7,313-223,313z M-223.3,312.6c0,0,0.1,0,0.2,0c0.2,0,0.8-0.1,1.1-0.1c0.1,0,0.1,0,0.2,0c0-0.1,0-0.3,0-0.5
				c0-0.1,0-0.2,0-0.3c-0.1-0.5-0.1-0.7-0.1-0.8h-1c0,0.8-0.1,1.3-0.1,1.5v0.1L-223.3,312.6L-223.3,312.6z"/>
		</g>
		<g>
			<path class="st3" d="M-225,310.6h4.8c0.3,0,0.2,0.1,0.3-0.5c0-0.3-0.1-1.2-1-1.6c0-0.3-0.5-1.1-1.6-1.1c-0.2,0-1.1,0-1.7,1.2
				C-225.2,308.4-225.8,310.6-225,310.6z"/>
		</g>
	</g>
	<g>
		<g>
			<path d="M-173.4,310.6h-1.5c0,0.2,0.1,0.4,0,1c-0.1,0.4-0.3,1,0.2,1c0.3,0.1,0.9,0.2,1.1,0.1c0.5,0,0.4-0.2,0.3-0.4
				C-173.3,312.3-173.4,311.8-173.4,310.6z"/>
		</g>
		<g>
			<path d="M-173.7,313c-0.3,0-0.8-0.1-1.1-0.1c-0.1,0-0.3-0.1-0.4-0.2c-0.2-0.2-0.1-0.5-0.1-0.8c0-0.1,0-0.2,0-0.2
				c0.1-0.5,0.1-0.7,0.1-0.8s0-0.1,0-0.2v-0.2h1.9v0.2c0,0.9,0.1,1.4,0.1,1.7c0,0.1,0,0.1,0,0.1c0,0.1,0.1,0.3,0,0.4
				C-173.1,313-173.4,313-173.7,313C-173.6,313-173.6,313-173.7,313z M-174.7,310.9c0,0.2,0,0.4-0.1,0.9c0,0.1,0,0.2,0,0.3
				c0,0.2-0.1,0.4,0,0.5h0.1c0.3,0.1,0.9,0.2,1.1,0.1c0.1,0,0.2,0,0.2,0l0,0v-0.1c0-0.1,0-0.1,0-0.1c0-0.2-0.1-0.7-0.2-1.5h-1.1
				V310.9z"/>
		</g>
		<g>
			<path class="st3" d="M-172.5,308.6c-0.6-1.2-1.5-1.2-1.7-1.2c-1.1,0-1.6,0.8-1.6,1.1c-1,0.5-1,1.3-1,1.6c0,0.6,0,0.5,0.3,0.5h4.8
				C-170.9,310.6-171.5,308.4-172.5,308.6z"/>
		</g>
	</g>
	<g>
		<g>
			<path d="M-221,272.8h-1.5c0,0.2,0.1,0.4,0,1c-0.1,0.4-0.3,1,0.2,1c0.3,0.1,0.9,0.2,1.1,0.1c0.5,0,0.4-0.2,0.3-0.4
				C-220.8,274.4-221,273.9-221,272.8z"/>
		</g>
		<g>
			<path d="M-221.2,275.2c-0.3,0-0.8-0.1-1.1-0.1c-0.1,0-0.3-0.1-0.4-0.2c-0.2-0.2-0.1-0.5-0.1-0.8c0-0.1,0-0.2,0-0.3
				c0.1-0.5,0.1-0.7,0.1-0.8s0-0.1,0-0.2v-0.2h1.9v0.2c0,0.9,0.1,1.4,0.1,1.6c0,0.1,0,0.1,0,0.1c0.1,0.1,0.1,0.3,0,0.4
				c-0.1,0.2-0.4,0.2-0.5,0.2C-221.1,275.2-221.2,275.2-221.2,275.2z M-222.2,273c0,0.2,0,0.4-0.1,0.9c0,0.1,0,0.2,0,0.3
				c0,0.2-0.1,0.4,0,0.5h0.1c0.3,0.1,0.9,0.2,1.1,0.1c0.1,0,0.1,0,0.2,0l0,0v-0.1v-0.1c0-0.2-0.1-0.7-0.1-1.5h-1.2V273z"/>
		</g>
		<g>
			<path class="st3" d="M-220.1,270.7c-0.6-1.2-1.5-1.2-1.7-1.2c-1.1,0-1.6,0.8-1.6,1.1c-1,0.5-1,1.3-1,1.6c0,0.6,0,0.5,0.3,0.5h4.8
				C-218.5,272.7-219.1,270.5-220.1,270.7z"/>
		</g>
	</g>
	<g>
		<g>
			<path d="M-199.5,274.4c-0.1,0.2-0.2,0.4,0.3,0.4c0.2,0,1.2,0.1,1.5,0c0.4,0,0.3-0.7,0.3-1.1c-0.1-0.7-0.2-0.7-0.2-0.9h-1.6
				C-199.3,273.8-199.5,274.2-199.5,274.4z"/>
		</g>
		<g>
			<path d="M-198.1,275.1c-0.5,0-1.1-0.1-1.1-0.1c-0.2,0-0.4,0-0.5-0.2c-0.1-0.2,0-0.3,0-0.5l0,0v-0.1c0.1-0.2,0.2-0.6,0.2-1.4v-0.2
				h2v0.2c0,0.1,0,0.1,0,0.3c0,0.1,0.1,0.3,0.1,0.6c0.1,0.5,0.1,1-0.1,1.2c0,0.1-0.1,0.1-0.2,0.1
				C-197.8,275.1-198,275.1-198.1,275.1z M-199.4,274.6c0,0,0.1,0,0.2,0c0.3,0,1.2,0.1,1.4,0l0,0l0,0c0.1-0.1,0.1-0.4,0-0.9
				c-0.1-0.3-0.1-0.5-0.1-0.6s0-0.1,0-0.2h-1.2c0,0.7-0.2,1.1-0.2,1.3v0.1L-199.4,274.6C-199.4,274.5-199.4,274.5-199.4,274.6z"/>
		</g>
		<g>
			<path class="st3" d="M-201.1,272.8h5.2c0.3,0,0.5-0.2,0.3-0.7c0-0.3-0.6-1.7-1.4-1.4c-0.3-0.4-0.3-1-1.6-1.2
				c-0.3-0.1-1.9,0.4-1.6,1.2C-201,270.5-201.4,272.8-201.1,272.8z"/>
		</g>
	</g>
	<g>
		<g>
			<path d="M-223.7,293.4c0,0.2-0.2,0.4,0.3,0.4c0.2,0,1.2,0.1,1.5,0c0.4,0,0.3-0.7,0.3-1.1c-0.1-0.7-0.2-0.7-0.2-0.9h-1.6
				C-223.5,292.9-223.7,293.3-223.7,293.4z"/>
		</g>
		<g>
			<path d="M-222.3,294.1c-0.4,0-1-0.1-1.1-0.1c-0.1,0-0.4,0-0.5-0.2c-0.1-0.2,0-0.3,0-0.4l0,0v-0.1c0.1-0.2,0.2-0.6,0.2-1.4v-0.2h2
				v0.2c0,0.1,0,0.1,0,0.3c0,0.1,0.1,0.3,0.1,0.6c0.1,0.5,0.1,1-0.1,1.2c-0.1,0.1-0.2,0.1-0.3,0.1
				C-222,294.1-222.1,294.1-222.3,294.1z M-223.6,293.6c0,0,0.1,0,0.2,0c0.3,0,1.2,0.1,1.4,0.1l0,0l0,0c0.1-0.1,0.1-0.3,0-0.9
				c-0.1-0.3-0.1-0.5-0.1-0.6c0-0.1,0-0.1,0-0.2h-1.2c0,0.7-0.2,1.1-0.2,1.3v0.1l0,0C-223.5,293.5-223.5,293.6-223.6,293.6
				C-223.5,293.6-223.6,293.6-223.6,293.6z"/>
		</g>
		<g>
			<path class="st3" d="M-225.3,291.9h5.3c0.3,0,0.5-0.2,0.3-0.7c0-0.3-0.6-1.7-1.4-1.4c-0.3-0.4-0.3-1-1.6-1.2
				c-0.3-0.1-1.9,0.4-1.6,1.2C-225.2,289.6-225.6,291.9-225.3,291.9z"/>
		</g>
	</g>
	<g>
		<g>
			<path d="M-173.3,291.9h-1.6c0,0.2-0.1,0.3-0.2,0.9c-0.1,0.4-0.1,1.1,0.3,1.1c0.3,0.1,1.3,0,1.5,0c0.5,0,0.4-0.3,0.3-0.4
				C-173,293.3-173.2,292.9-173.3,291.9z"/>
		</g>
		<g>
			<path d="M-174.4,294.1c-0.2,0-0.3,0-0.4,0s-0.2,0-0.3-0.1c-0.2-0.2-0.2-0.7-0.1-1.2c0.1-0.3,0.1-0.5,0.1-0.6c0-0.1,0-0.2,0-0.3
				v-0.2h2v0.2c0,0.7,0.2,1.1,0.2,1.4c0,0.1,0,0.2,0,0.2c0.1,0.1,0.1,0.3,0,0.5s-0.4,0.2-0.5,0.2
				C-173.4,294.1-174,294.1-174.4,294.1z M-174.8,293.7L-174.8,293.7c0.3,0.1,1.2,0,1.4,0c0.1,0,0.2,0,0.2,0v-0.1v-0.1
				c0-0.1,0-0.1,0-0.2c-0.1-0.2-0.2-0.6-0.2-1.3h-1.2c0,0.1,0,0.1,0,0.2c0,0.1-0.1,0.3-0.1,0.6
				C-174.9,293.1-174.9,293.6-174.8,293.7L-174.8,293.7z"/>
		</g>
		<g>
			<path class="st3" d="M-172.5,289.8c0.4-0.7-1.3-1.3-1.6-1.2c-1.3,0.2-1.3,0.7-1.6,1.2c-0.7-0.3-1.3,1.1-1.4,1.4
				c-0.1,0.5,0.1,0.7,0.3,0.7h5.2C-171.1,291.9-171.5,289.6-172.5,289.8z"/>
		</g>
	</g>
	<g>
		<g>
			<path d="M-187.8,332.6c0,0.1-0.2,0.4,0.3,0.4c0.2,0,1.2,0.1,1.5,0c0.4,0,0.3-0.7,0.2-1.1c-0.1-0.7-0.2-0.7-0.2-0.9h-1.6
				C-187.5,332-187.7,332.4-187.8,332.6z"/>
		</g>
		<g>
			<path d="M-186.4,333.3c-0.4,0-1-0.1-1.1-0.1s-0.4,0-0.5-0.2c-0.1-0.2,0-0.3,0-0.5l0,0v-0.1c0.1-0.2,0.2-0.6,0.2-1.4v-0.2h2v0.2
				c0,0.1,0,0.1,0,0.3c0,0.1,0.1,0.3,0.1,0.6c0.1,0.6,0.1,1-0.1,1.2c-0.1,0.1-0.2,0.1-0.3,0.1C-186.1,333.3-186.2,333.3-186.4,333.3
				z M-187.6,332.8c0,0,0.1,0,0.2,0c0.3,0,1.2,0.1,1.4,0l0,0l0,0c0.1-0.1,0.1-0.3,0-0.9c-0.1-0.3-0.1-0.5-0.1-0.6c0-0.1,0-0.1,0-0.2
				h-1.2c0,0.7-0.2,1.1-0.2,1.3v0.1l0,0C-187.6,332.7-187.6,332.7-187.6,332.8C-187.6,332.7-187.6,332.8-187.6,332.8L-187.6,332.8z"
				/>
		</g>
		<g>
			<path class="st3" d="M-189.3,331h5.2c0.3,0,0.5-0.2,0.3-0.7c-0.1-0.3-0.6-1.7-1.4-1.4c-0.3-0.4-0.3-1-1.6-1.2
				c-0.3-0.1-1.9,0.4-1.6,1.2C-189.3,328.7-189.7,331.1-189.3,331z"/>
		</g>
	</g>
	<g>
		<g>
			<path d="M-209.3,331h-1.6c0,0.2-0.1,0.3-0.2,0.9c0,0.4-0.1,1.1,0.3,1.1c0.3,0.1,1.3,0,1.5,0c0.5,0,0.3-0.3,0.3-0.4
				C-209,332.4-209.2,332-209.3,331z"/>
		</g>
		<g>
			<path d="M-210.4,333.3c-0.2,0-0.3,0-0.4,0c-0.1,0-0.2,0-0.3-0.1c-0.2-0.2-0.2-0.7-0.1-1.2c0.1-0.3,0.1-0.5,0.2-0.7
				c0-0.1,0-0.2,0-0.3v-0.2h2v0.2c0,0.8,0.1,1.1,0.2,1.4c0,0.1,0,0.1,0,0.2l0,0c0,0.1,0.1,0.3,0,0.5c-0.1,0.2-0.4,0.2-0.5,0.2
				C-209.4,333.2-210,333.3-210.4,333.3z M-210.8,332.8L-210.8,332.8c0.3,0.1,1.2,0,1.5,0c0.1,0,0.2,0,0.2,0v-0.1v-0.1
				c0-0.1,0-0.1,0-0.1c-0.1-0.2-0.2-0.6-0.2-1.3h-1.2c0,0.1,0,0.1,0,0.2s-0.1,0.3-0.1,0.6C-210.9,332.2-210.9,332.7-210.8,332.8
				L-210.8,332.8z"/>
		</g>
		<g>
			<path class="st3" d="M-208.5,328.9c0.4-0.7-1.3-1.3-1.6-1.2c-1.3,0.2-1.3,0.7-1.6,1.2c-0.7-0.2-1.3,1.1-1.3,1.5
				c-0.1,0.5,0.1,0.7,0.3,0.7h5.2C-207.1,331.1-207.5,328.7-208.5,328.9z"/>
		</g>
	</g>
</g>
</svg>
