<?xml version="1.0" encoding="utf-8"?>
<!-- Generator: Adobe Illustrator 19.0.1, SVG Export Plug-In . SVG Version: 6.00 Build 0)  -->
<svg version="1.1" id="Layer_2" xmlns="http://www.w3.org/2000/svg" xmlns:xlink="http://www.w3.org/1999/xlink" x="0px" y="0px"
	 viewBox="0 0 100 100" style="enable-background:new 0 0 100 100;" xml:space="preserve">
<style type="text/css">
	.st0{fill:none;stroke:#000000;stroke-width:1.1602;stroke-linecap:round;stroke-linejoin:round;}
	.st1{fill:none;stroke:#000000;stroke-width:1.7102;}
	.st2{fill:none;stroke:#FFFFFF;stroke-width:0.9282;stroke-linecap:round;stroke-linejoin:round;}
	.st3{fill:#00853F;stroke:#FEBC11;stroke-width:1.3923;}
	.st4{fill:#00AE53;stroke:#000000;stroke-width:1.3923;}
	.st5{fill:#FEBC11;}
	.st6{fill:#FFFFFF;}
	.st7{fill:#00853F;stroke:#FEBC11;stroke-width:1.1602;stroke-miterlimit:10;}
	.st8{fill:none;stroke:#000000;stroke-width:0.4641;}
	.st9{fill:none;stroke:#000000;stroke-width:1.3923;}
	.st10{fill:#00853F;}
	.st11{fill:none;stroke:#59AD40;stroke-width:0.7426;stroke-linecap:round;stroke-linejoin:round;}
	.st12{fill:#59AD40;stroke:#59AD40;stroke-width:0.232;stroke-linecap:round;stroke-linejoin:round;}
	.st13{fill:#DA99A1;stroke:#DA99A1;stroke-width:0.116;stroke-linecap:round;stroke-linejoin:round;}
	.st14{fill:#FFFFFF;stroke:#FFFFFF;stroke-width:0.116;stroke-linecap:round;stroke-linejoin:round;}
	.st15{fill:#B6A645;stroke:#000000;stroke-width:0.4641;stroke-linecap:round;stroke-linejoin:round;}
	.st16{fill:#B6A645;}
	.st17{fill:none;stroke:#000000;stroke-width:0.4641;stroke-linecap:round;stroke-linejoin:round;}
	.st18{fill:#B6A645;stroke:#000000;stroke-width:0.4641;}
	.st19{fill:none;stroke:#000000;stroke-width:0.4641;stroke-linejoin:round;}
	.st20{fill:none;stroke:#FEBC11;stroke-width:1.3923;}
</style>
<path class="st0" d="M55.3,98.4c-0.6-0.2-1.2-1.3-3.3-0.8"/>
<g>
	<g>
		<line class="st1" x1="8" y1="58.2" x2="35.9" y2="58.2"/>
		<line class="st1" x1="82.5" y1="58.2" x2="97.6" y2="58.2"/>
		<line class="st1" x1="34.7" y1="58.2" x2="58.6" y2="58.2"/>
	</g>
</g>
<g>
	<path class="st2" d="M33,43.5"/>
</g>
<circle class="st3" cx="50" cy="50" r="49"/>
<circle class="st4" cx="50" cy="50" r="36.8"/>
<path class="st5" d="M86.8,50c0,20.3-16.5,36.8-36.8,36.8S13.2,70.3,13.2,50H86.8z"/>
<g>
	<path class="st6" d="M84.8,38.3H15.2c-1.2,3.7-1.9,7.6-1.9,11.7c0,3.2,0.4,6.4,1.2,9.4h71.1c0.8-3,1.2-6.1,1.2-9.4
		C86.8,45.9,86.1,42,84.8,38.3z"/>
</g>
<path class="st7" d="M90.1,78.1L82.9,78l-0.5-10.6C75.6,79,64.4,86.9,50,86.9c-14.4,0-25.9-7.8-32.6-19.5L17.1,78l-7.2,0.1
	C16.2,85.8,25,99,50,99C62,99,75.7,96.3,90.1,78.1z"/>
<path class="st7" d="M90.1,22.3l-7.2,0.1l-0.4,10.4c-6.8-11.7-18.4-19.5-32.9-19.5s-25.5,7.8-32.3,19.5l-0.3-10.4l-7.2-0.1
	C16.2,14.5,25,1.3,50,1.3C62,1.3,75.7,4,90.1,22.3z"/>
<g>
	<g>
		<line class="st8" x1="84.8" y1="38.3" x2="15.2" y2="38.3"/>
		<line class="st6" x1="14.5" y1="59.4" x2="85.5" y2="59.4"/>
	</g>
	<g>
		<line class="st9" x1="84.8" y1="38.3" x2="15.2" y2="38.3"/>
		<line class="st9" x1="14.5" y1="59.4" x2="85.5" y2="59.4"/>
	</g>
</g>
<g>
	<path class="st10" d="M74.1,77.7L50,59.8l-24.1,18c6.5,5.6,14.9,9,24.1,9C59.2,86.8,67.6,83.4,74.1,77.7z"/>
</g>
<g>
	<g>
		<path class="st11" d="M50,86.5c0,0,1.2-2.6,0.5-4c-0.7-1.4-1.1-3.6,0.2-6.2C52,73.8,55,69,50.3,66"/>
		<path class="st11" d="M51.2,75.5c0,0,1.1-3-2.4-4.5"/>
	</g>
	<g>
		<path class="st12" d="M49.9,80.5c0,0-0.2-1.3-3-1.7c-2.8-0.4-4.9,0.4-6.5-1.2c0,0,1.3,2.4,4.2,2.5C47.4,80.2,48.6,79.9,49.9,80.5z
			"/>
		<path class="st12" d="M50.2,77.6c0,0-0.4-1.8-3-2.3c-2.6-0.5-4.2,0.6-6.7-0.3c0,0,1.6,2.3,5,2.2c3.4-0.1,4,0.4,4.6,0.9L50.2,77.6z
			"/>
		<path class="st12" d="M50.1,78c0,0,2.1-0.8,3.7,0c1.6,0.8,3.6,0.9,4.6,0.5c0,0-1.5,1.3-3.3,1.1c-1.7-0.2-3.3-1.2-4.9-1.2L50.1,78z
			"/>
		<path class="st12" d="M50,80.5c0,0,1.4-1.1,3.2-0.4c1.8,0.7,4,1.8,5.5,0.9c0,0-1.7,1.8-4.1,1.3c-2.4-0.5-2.6-1.8-4.6-1.4V80.5z"/>
	</g>
	<path class="st13" d="M50.8,66.7c0,0-1.8,0.5-3-0.1c-1.2-0.6-1.7-1.9-1.7-1.9s0.2,0.1,0.6-0.1c0,0-0.2-0.8-0.6-0.8
		c0,0,1.7-0.4,3.1,0.5c1.4,0.9,1.7,1.8,1.7,1.8s-0.3-0.1-0.5,0C50.3,66.2,50.8,66.7,50.8,66.7z"/>
	<path class="st13" d="M49.5,70.9c0,0-0.5-0.2-0.7,0.1c0,0,0,0.5,0.5,0.7c0,0-1.4,0.5-2.8,0c-1.4-0.5-1.5-1.4-1.5-1.4s0.1,0,0.4-0.2
		c0,0-0.2-0.5-0.6-0.7c0,0,1.1-0.8,2.8-0.4C49.4,69.5,49.5,70.9,49.5,70.9z"/>
	<path class="st11" d="M51.5,74.7c0,0,1.8-2.6,4-2.9"/>
	<path class="st13" d="M53.1,72.9c0,0-0.2-0.2-0.5-0.2c-0.4,0-0.7-0.2-1-0.4c-0.3-0.2-0.6-0.3-0.6-0.3s0.3-0.1,0.6-0.3
		c0.3-0.2,0.6-0.4,1-0.4c0.4,0,0.5-0.2,0.5-0.2s0-0.3-0.2-0.5c-0.3-0.3-0.4-0.6-0.4-1c0-0.4-0.2-0.6-0.2-0.6s0.3,0.1,0.6,0.2
		c0.4,0,0.8,0.1,1,0.4c0.3,0.3,0.5,0.2,0.5,0.2s0.2-0.2,0.2-0.5s0.2-0.7,0.4-1c0.2-0.3,0.3-0.6,0.3-0.6s0.1,0.3,0.3,0.6
		c0.2,0.3,0.4,0.6,0.4,1s0.2,0.5,0.2,0.5s0.3,0,0.5-0.2c0.3-0.3,0.6-0.3,1-0.4c0.4,0,0.6-0.2,0.6-0.2s-0.1,0.3-0.2,0.6
		c0,0.4-0.1,0.8-0.4,1c-0.3,0.3-0.2,0.5-0.2,0.5s0.2,0.2,0.5,0.2c0.4,0,0.7,0.2,1,0.4c0.3,0.2,0.6,0.3,0.6,0.3s-0.3,0.1-0.6,0.3
		c-0.3,0.2-0.6,0.4-1,0.4c-0.4,0-0.5,0.2-0.5,0.2s0,0.3,0.2,0.5c0.3,0.3,0.3,0.6,0.4,1c0,0.4,0.2,0.6,0.2,0.6s-0.3-0.1-0.6-0.2
		c-0.4,0-0.8-0.1-1-0.4c-0.3-0.3-0.5-0.2-0.5-0.2s-0.2,0.2-0.2,0.5c0,0.4-0.2,0.7-0.4,1s-0.3,0.6-0.3,0.6s-0.1-0.3-0.3-0.6
		s-0.4-0.6-0.4-1c0-0.4-0.2-0.5-0.2-0.5s-0.3,0-0.5,0.2c-0.3,0.3-0.6,0.3-1,0.4c-0.4,0-0.6,0.2-0.6,0.2s0.1-0.3,0.2-0.6
		c0-0.4,0.1-0.8,0.4-1C53.2,73.2,53.1,72.9,53.1,72.9z"/>
	<circle class="st14" cx="55.5" cy="71.9" r="0.8"/>
</g>
<g>
	<path class="st6" d="M17.7,82.7l2.5-2.6l-0.9-0.9l0.5-0.5l2.5,2.4l-0.5,0.5l-0.9-0.9l-2.5,2.6L17.7,82.7z"/>
	<path class="st6" d="M19.9,84.8l2.7-3.4l0.7,0.5l-1.1,1.3l1.3,1.1l1.1-1.3l0.7,0.5l-2.7,3.4l-0.7-0.5l1.2-1.5l-1.3-1.1l-1.2,1.5
		L19.9,84.8z"/>
	<path class="st6" d="M23.5,87.6l2.4-3.6l2.7,1.8l-0.4,0.6l-2-1.3l-0.5,0.8l1.8,1.2l-0.4,0.6l-1.8-1.2l-0.6,1l2,1.3l-0.4,0.6
		L23.5,87.6z"/>
	<path class="st6" d="M28.7,90.8l1.9-3.9l2.7,1.3L33,88.8l-1.9-0.9l-0.4,0.9l1.6,0.8L32,90.3l-1.6-0.8l-0.8,1.7L28.7,90.8z"/>
	<path class="st6" d="M35.6,93.7l-0.9-0.3l0-1.1l-1.6-0.6l-0.7,0.8l-0.9-0.3l3.1-3.5l0.9,0.3L35.6,93.7z M34.8,91.6l0-1.7l-1.1,1.3
		L34.8,91.6z"/>
	<path class="st6" d="M36.3,93.9l1.3-4.2l0.8,0.3l-1.3,4.2L36.3,93.9z"/>
	<path class="st6" d="M39,94.7l0.8-3.5l-1.2-0.3l0.2-0.7l3.3,0.8l-0.2,0.7l-1.2-0.3l-0.8,3.5L39,94.7z"/>
	<path class="st6" d="M41.9,95.3l0.6-4.3l0.9,0.1l-0.2,1.7l1.7,0.2l0.2-1.7l0.9,0.1l-0.6,4.3l-0.9-0.1l0.3-1.9l-1.7-0.2l-0.3,1.9
		L41.9,95.3z"/>
	<path class="st6" d="M46.5,95.9l0.2-4.3l3,0.1l0,0.7l-2.1-0.1l0,1l1.8,0.1l0,0.7l-1.8-0.1l-0.1,1.8L46.5,95.9z"/>
	<path class="st6" d="M50.3,91.7l0.9,0l0.1,2.4c0,0.4,0,0.6,0.1,0.7c0,0.2,0.1,0.3,0.3,0.4c0.1,0.1,0.3,0.1,0.6,0.1
		c0.2,0,0.4-0.1,0.6-0.2c0.1-0.1,0.2-0.2,0.2-0.4c0-0.1,0-0.4,0-0.7l-0.1-2.4l0.9,0l0.1,2.3c0,0.5,0,0.9,0,1.1
		c0,0.2-0.1,0.4-0.2,0.6c-0.1,0.2-0.3,0.3-0.5,0.4c-0.2,0.1-0.5,0.2-0.8,0.2c-0.4,0-0.7,0-0.9-0.1c-0.2-0.1-0.4-0.2-0.5-0.3
		c-0.1-0.1-0.2-0.3-0.3-0.5c-0.1-0.2-0.1-0.6-0.1-1.1L50.3,91.7z"/>
	<path class="st6" d="M55.1,95.7l-0.6-4.3l0.9-0.1l0.5,3.5l2.2-0.3l0.1,0.7L55.1,95.7z"/>
	<path class="st6" d="M62.9,92.5l0.9,0c0,0.5-0.1,0.9-0.3,1.2c-0.2,0.3-0.6,0.5-1,0.6c-0.6,0.2-1.1,0.1-1.5-0.2
		c-0.5-0.3-0.8-0.7-1-1.4C59.8,92,59.8,91.5,60,91c0.3-0.5,0.7-0.8,1.3-1c0.5-0.1,1-0.1,1.4,0.1c0.2,0.1,0.5,0.3,0.6,0.6l-0.8,0.4
		c-0.1-0.2-0.3-0.3-0.5-0.4c-0.2-0.1-0.4-0.1-0.6,0c-0.3,0.1-0.5,0.3-0.7,0.5c-0.1,0.3-0.1,0.7,0,1.2c0.1,0.5,0.3,0.9,0.6,1.1
		c0.3,0.2,0.5,0.2,0.8,0.1c0.2-0.1,0.4-0.2,0.5-0.4C62.9,93.1,62.9,92.8,62.9,92.5z"/>
	<path class="st6" d="M64.2,91.5C64,91.1,64,90.7,64,90.4c0-0.2,0.1-0.5,0.2-0.7c0.1-0.2,0.2-0.4,0.4-0.6c0.2-0.2,0.5-0.4,0.8-0.5
		c0.6-0.2,1.1-0.2,1.6,0c0.5,0.2,0.9,0.7,1.1,1.3c0.3,0.7,0.3,1.2,0.1,1.7c-0.2,0.5-0.6,0.9-1.2,1.1c-0.6,0.2-1.1,0.2-1.6,0
		C64.8,92.6,64.5,92.2,64.2,91.5z M65,91.2c0.2,0.5,0.4,0.8,0.7,0.9c0.3,0.2,0.6,0.2,0.9,0c0.3-0.1,0.5-0.4,0.7-0.7
		c0.1-0.3,0.1-0.7-0.1-1.2c-0.2-0.5-0.4-0.8-0.7-0.9c-0.3-0.1-0.6-0.2-0.9,0c-0.3,0.1-0.6,0.4-0.7,0.7C64.8,90.3,64.8,90.7,65,91.2z
		"/>
	<path class="st6" d="M67.8,87.7l0.8-0.4l1.1,2.1c0.2,0.3,0.3,0.5,0.4,0.6c0.1,0.1,0.3,0.2,0.4,0.3c0.2,0,0.4,0,0.6-0.1
		c0.2-0.1,0.4-0.2,0.4-0.4c0.1-0.1,0.1-0.3,0-0.4c0-0.1-0.1-0.4-0.3-0.7l-1.1-2.1l0.8-0.4l1.1,2c0.2,0.5,0.4,0.8,0.5,1
		c0.1,0.2,0.1,0.4,0,0.6c0,0.2-0.1,0.4-0.3,0.6s-0.4,0.3-0.7,0.5c-0.4,0.2-0.7,0.3-0.9,0.3c-0.2,0-0.4,0-0.6-0.1
		c-0.2-0.1-0.3-0.2-0.4-0.3c-0.2-0.2-0.4-0.5-0.6-0.9L67.8,87.7z"/>
	<path class="st6" d="M73.9,89.3l-2.4-3.6l0.7-0.5l3.1,1.4l-1.6-2.4l0.7-0.4l2.4,3.6L76,87.9l-3-1.4l1.6,2.4L73.9,89.3z"/>
	<path class="st6" d="M78.5,86.1l-2.3-2.8l-1,0.8l-0.5-0.6l2.7-2.2l0.5,0.6l-1,0.8l2.3,2.8L78.5,86.1z"/>
	<path class="st6" d="M81.6,83.4l-1.3-1.3l-2.9-0.7l0.7-0.7l1.9,0.5l-0.5-1.9l0.7-0.7l0.6,2.9l1.3,1.3L81.6,83.4z"/>
</g>
<g>
	<path class="st6" d="M20,15.7l1.2-0.9l2.1,2.9c0.3,0.5,0.6,0.8,0.7,0.9c0.2,0.2,0.5,0.3,0.7,0.3c0.3,0,0.6-0.1,0.9-0.4
		c0.3-0.2,0.5-0.5,0.6-0.7c0.1-0.2,0.1-0.5,0-0.7c-0.1-0.2-0.3-0.5-0.6-0.9l-2.1-3l1.2-0.9l2,2.8c0.5,0.6,0.8,1.1,0.9,1.4
		c0.1,0.3,0.2,0.6,0.1,0.9c0,0.3-0.2,0.6-0.4,0.9c-0.2,0.3-0.5,0.6-1,1c-0.6,0.4-1,0.6-1.4,0.7c-0.4,0.1-0.7,0.1-1,0
		c-0.3-0.1-0.6-0.2-0.8-0.4c-0.3-0.3-0.7-0.7-1.1-1.3L20,15.7z"/>
	<path class="st6" d="M26.1,10.9l0-1.5l1.4-0.7l-0.6,1.8L26.1,10.9z M29.7,17.1l-3.2-5.8l1.3-0.7l3.2,5.8L29.7,17.1z"/>
	<path class="st6" d="M29.6,9.6l2.7-1.1c0.5-0.2,0.9-0.4,1.2-0.4c0.3-0.1,0.5-0.1,0.8,0c0.3,0,0.5,0.1,0.7,0.3
		c0.2,0.2,0.4,0.4,0.5,0.6c0.1,0.3,0.1,0.6,0.1,0.9c-0.1,0.3-0.2,0.6-0.5,0.8c0.5-0.1,0.8,0,1.2,0.2c0.3,0.2,0.6,0.4,0.7,0.8
		c0.1,0.3,0.1,0.6,0.1,0.9c0,0.3-0.1,0.6-0.3,0.9c-0.2,0.3-0.4,0.5-0.8,0.7c-0.2,0.1-0.8,0.3-1.6,0.7L32,15.8L29.6,9.6z M31.4,10.1
		l0.6,1.4l0.9-0.4c0.5-0.2,0.9-0.4,1-0.4c0.2-0.1,0.4-0.3,0.5-0.4c0.1-0.2,0.1-0.4,0-0.6c-0.1-0.2-0.2-0.3-0.4-0.4
		c-0.2-0.1-0.4-0.1-0.6,0c-0.1,0-0.5,0.2-1.2,0.4L31.4,10.1z M32.3,12.6l0.6,1.6l1.3-0.5c0.5-0.2,0.8-0.3,0.9-0.4
		c0.2-0.1,0.3-0.3,0.4-0.4c0.1-0.2,0.1-0.4,0-0.6c-0.1-0.2-0.2-0.3-0.3-0.4c-0.1-0.1-0.3-0.1-0.5-0.1c-0.2,0-0.6,0.2-1.2,0.4
		L32.3,12.6z"/>
	<path class="st6" d="M38.6,13.2l-1.4-6.5l1.4-0.3L39.2,9L42,8.4l-0.5-2.5l1.4-0.3l1.4,6.5l-1.4,0.3l-0.6-2.8l-2.8,0.6l0.6,2.8
		L38.6,13.2z"/>
	<path class="st6" d="M48.3,11.7l0.1-6.6l5,0.1l0,1.1l-3.5-0.1l0,1.6l3,0l0,1.1l-3,0l0,2.8L48.3,11.7z"/>
	<path class="st6" d="M54.2,11.8l1.1-6.5l1.4,0.3l-0.4,2.6l2.8,0.5l0.4-2.6L61,6.3l-1.1,6.5l-1.4-0.3l0.5-2.8l-2.8-0.5l-0.5,2.8
		L54.2,11.8z"/>
	<path class="st6" d="M67.2,15.4l-1.5-0.5l-0.1-1.6l-2.7-1l-1.1,1.2l-1.5-0.5l4.9-5.3l1.5,0.5L67.2,15.4z M65.6,12l-0.1-2.6l-1.7,2
		L65.6,12z"/>
	<path class="st6" d="M67.7,15.7l3-5.9l1.3,0.7l-3,5.9L67.7,15.7z"/>
	<path class="st6" d="M70.1,16.9l3.5-5.5l1.2,0.8L72,16.8l3,2l-0.6,0.9L70.1,16.9z"/>
	<path class="st6" d="M75,20.3l4.1-5.1l1.1,0.9l-4.1,5.1L75,20.3z M79.3,14.5l1.4-0.6l1.2,1L80,15.1L79.3,14.5z"/>
</g>
<g>
	<path class="st15" d="M43.1,32.2c0,3.7-3,6.6-6.6,6.6c-3.7,0-6.6-3-6.6-6.6c0-3.7,3-6.6,6.6-6.6C40.1,25.5,43.1,28.5,43.1,32.2z
		 M36.5,27.6c-2.5,0-4.6,2.1-4.6,4.6c0,2.5,2.1,4.6,4.6,4.6c2.5,0,4.6-2.1,4.6-4.6C41.1,29.6,39,27.6,36.5,27.6z"/>
	<path class="st15" d="M37.1,31.5c0.3-2,1.9-3,1.9-3h-5.1c0,0,1.6,1,1.9,3c-2-0.3-3-1.9-3-1.9v5.1c0,0,1-1.6,3-1.9
		c-0.3,2-1.9,3-1.9,3H39c0,0-1.6-1-1.9-3c2,0.3,3,1.9,3,1.9v-5.1C40.2,29.6,39.1,31.2,37.1,31.5z"/>
	<path class="st16" d="M51.1,26.9c0.1,0,0.2-0.1,0.2-0.1c0-0.1,0-0.2,0-0.2c-0.3-0.5-0.3-1.3-0.3-1.4c0-0.1,0-0.1-0.1-0.2
		c-0.3-0.3-0.3-0.8-0.3-0.8c1.4,0,4.3-1,5.9-1.5l0.8-0.3c1.2-0.4,2.8-0.2,2.8-0.2c-0.3,0.4-0.2,1.2-0.2,1.6c0,0.1,0.1,0.2,0.2,0.2
		c0.6-0.1,1.1,0,1.1,0c-0.9,1.3-1.4,2.9-1.8,3.9c0,0-0.2,0.7-0.2,0.7c0,0,0,0.2,0,0.2l0.1,0.2c0.2,0.3,0.6,0.3,0.6,0.4
		c0,0-0.4,0.4-0.4,0.4c-0.3,0.3-0.6,0.6-0.9,0.8c-0.1,0.1-0.2,0.2-0.2,0.4l0.1,0.4c0,0,0,0,0,0c0,0,0.1,0.5,0.1,0.6
		c0,0.1-0.1,1-0.1,1c0,0,0,0.3,0,0.3c0,0.2-0.3,0.5-0.7,0.9c-0.1,0.1-0.1,0.2-0.1,0.3c0.3,0.5,0.5,1.4,0.5,1.4c-0.4,0-1,0-1.8,0.2
		c-0.1,0-0.1,0.1-0.2,0.1c0,0.1,0,0.1,0,0.2l0.1,0.2c0.4,1,1.3,3,1.6,3.9c0.1,0.5,0.3,1,0.6,1.7c0,0,0,0.1,0.1,0.1
		c0.2,0.2,1.1,0.7,2.5,0.4c1.6-0.3,1.9-1.7,1.9-2.2c0-0.4-0.3-1.2-1.3-1.2c-0.9,0.1-1.6,1.2-1.7,1.3c-0.2-0.5-0.5-1.7-0.3-2.4
		c0.2-0.7,0.2-1.3,0-1.6c-0.2-0.2-0.5-0.3-1-0.3c0,0,0.2-0.5,1.1-0.6c0.1,0,0.1,0,0.2-0.1c0,0,0-0.1,0-0.1c0,0,0,0,0-0.1
		c-0.1-0.5-0.2-1-0.2-1.5l0-0.1c0-1.1,0.4-1.4,0.7-1.6c0.2-0.1,0.3-0.2,0.3-0.4c0,0,0-0.6,0-0.6c0-0.7,0.2-1.2,0.4-1.3
		c0.5-0.2,1.2-0.5,1.3-1.7c0,0,0.1-0.6,0.1-0.6c0.1-1,0.2-1.7,1.1-1.9c0,0.1,0.3,1.8,0.3,3.5c0,0.9-0.1,1.8-0.3,2.4
		c-0.4,1.1-1.1,1.7-1.5,2.1c-0.3,0.3-0.6,0.6-0.7,0.9c0,0.1,0,0.2,0,0.4c0,0.6,0.3,1.4,1.1,1.7c2,1,3,2.1,3,3.3c0,0,0,0.1,0,0.1
		c-0.1,1.7-1.2,3.8-3.4,4.6c-0.1,0-0.2,0.1-0.2,0.2c0,0,0,0,0,0c0,0,0,0.1,0,0.1c0,0.3-0.1,0.5-0.2,0.7c0,0-0.2,0.6-0.2,0.6
		c0,0,0,0,0,0c0,0.5,0.6,0.5,1.2,0.6l0,0l0.6,0.1c0.1,0,0.2,0.1,0.2,0.2c0.1,0.1,0.1,0.4,0.1,0.6c0,0.4-0.1,0.8-0.1,1
		c-0.5,1.8-0.7,4.1-0.9,5.5c0,0-0.1,1.2-0.1,1.2c-0.1,0.8-0.9,0.9-1.8,0.9c0,0-0.2,0-0.2,0c-0.2,0-0.3-0.1-0.4-0.2
		c-0.1-0.1-0.1-0.2-0.2-0.4c0-0.1,0-0.1-0.1-0.1c-0.1,0-0.1,0-0.2,0c-0.5,0.1-0.8,0.4-1.1,0.6c-0.3,0.2-0.5,0.4-0.9,0.6
		c-0.7,0.3-1.1,0.1-1.3,0c0,0-0.1,0-0.1,0c-0.6,0-1.3,0.5-1.4,0.5c0.2-1.1,0.6-1.5,0.7-1.6c0,0,0.1-0.1,0.1-0.1l0-0.1
		c0-0.1,0.1-0.1,0.3-0.2c0.1,0,0.2-0.1,0.1-0.3c0-0.1-0.1-0.2-0.2-0.2l-0.1,0c0,0-0.1,0-0.1,0c-1-0.1-2.2,0.4-2.2,0.4
		c0.8-1.1,1.9-1.5,1.9-1.5c0,0,0.1,0,0.1-0.1l0.1-0.1c0.2-0.1,0.7-0.2,1-0.3c0.1,0,0.2-0.1,0.2-0.2c0,0,0,0,0,0
		c0-0.1-0.1-0.2-0.2-0.2l-0.7-0.2c-0.2,0-0.3-0.1-0.4-0.1c0,0-0.1,0-0.2,0c-0.4-0.2-1.9-0.3-1.9-0.3c0.7-0.4,1.6-0.4,1.8-0.4
		c0,0,0.1,0,0.1,0c0.1,0,0.2,0,0.4,0c0,0,0.4,0,0.4,0c1.1,0,2.3,0.3,2.9,0.5c0.2,0.1,0.4,0.1,0.5,0c0.2-0.1,0.2-0.3,0.3-0.7
		c0-0.4-0.4-0.8-0.8-1.2c0,0-0.1-0.1-0.1-0.1c-0.3-0.3-0.5-0.8-0.4-1.4l0-0.3c0-0.1-0.1-0.2-0.1-0.2c-0.1,0-0.2,0-0.3,0.1
		c-0.8,0.9-1.6,2.4-1.6,2.4c-0.2-0.7-0.7-1.5-1.1-2.1c0-0.1-0.1-0.1-0.2-0.1c-0.1,0-0.2,0.1-0.2,0.2c-0.4,1.1-1.1,1.7-1.1,1.7
		c0.2-0.6,0.3-1.6,0.4-2.4c0-0.1,0-0.1-0.1-0.2c0,0-0.1-0.1-0.2-0.1c-0.4,0-1.6-0.1-2.8-0.7c-0.1,0-0.2,0-0.2,0
		c-0.1,0-0.1,0.1-0.1,0.2c0,0.4-0.1,1.5,0.4,1.6c0.4,0.1,1.2,0.8,1.2,1.4c0,0.4-0.4,0.5-0.7,0.6c-0.7,0.1-1.5,0.2-2.3,0.2
		c-1,0.1-2.1,0.1-3.3,0.3c-4.3,0.7-6.5,0.7-6.8,0.5l-0.1-0.2c0,0-0.1-0.1-0.1-0.1c-1.2-0.4-2.2-0.1-2.2-0.1c0.5-0.8,1.2-1.2,1.6-1.4
		c0.1,0,0.1-0.2,0.1-0.3l0-0.1c0-0.1-0.1-0.3-0.2-0.3c-0.7,0-1.6,0.3-1.6,0.3c0.3-0.7,1.1-1.3,1.3-1.5c0,0,0.1-0.2,0.1-0.2l0,0
		c0,0,0,0,0,0c0,0,0-0.1,0-0.1c0-0.1-0.1-0.2-0.1-0.3c0,0-0.1-0.1-0.1-0.1c-0.9-0.3-1.8-0.1-1.8-0.1c0,0,0.8-0.9,1.8-1.1
		c0.1,0,0.1,0,0.1-0.1c0.1-0.1,0.3-0.1,0.7-0.1c0.4,0,1.9,0.3,2.6,1.4c0.6,1,1.2,1.6,2.4,1.4c1.1-0.2,2.5-1.4,2.6-2.4
		c0,0,0-0.1,0-0.1c-0.1-0.2-0.6-0.8-2-0.9c-1.7-0.1-1.8-0.2-1.8-0.5l0-0.5c0-0.5,0.1-0.9,0.3-1.1c0.2-0.2,0.3-0.3,0.6-0.3
		c0.1,0,0.2-0.1,0.2-0.2c0-0.2,0-0.4,0.1-0.5c0.2-0.3,0.5-0.5,1-0.6c0,0,0.7-0.1,0.7-0.1c1.3-0.3,3.1-0.7,6,0.3c0.1,0,0.2,0,0.3-0.1
		c0.1-0.1,0.1-0.2,0-0.3l-0.3-0.3c-0.2-0.2-0.6-0.3-0.9-0.4c-0.6-0.1-1.4-0.3-1.7-1.4c0-0.1-0.2-0.2-0.3-0.2l-0.1,0l-0.1,0
		c0,0-1.1,0.1-1.1,0.1c-0.8,0.1-1.5,0.1-2.6,0.4C43,40.6,38.1,42,36,38.9c0,0,0.7,0,0.9-0.4c0.2-0.3,0.5-1.5,0.6-1.7
		c0,0,0.7,1.5,0.7,1.5c0,0.1,0.1,0.1,0.2,0.1c0.1,0,0.2,0,0.2-0.1c0.2-0.2,0.6-0.5,0.9-0.5c0.2,0,0.4,0.2,0.6,0.3
		c0.4,0.3,0.9,0.6,1.4,0.2c0,0,0.6-0.5,0.6-0.5c0.6-0.5,1.8-1.5,2.9-2.1c0.1,0,0.1-0.1,0.1-0.2c0,0,0,0,0,0c0,0,0-0.1-0.1-0.1
		c0.6-0.3,0.9-0.7,1.1-1.1c0,0,0-0.1,0-0.1c0,0,0,0,0-0.1c0-0.1-0.1-0.1-0.1-0.1c-1.6-0.9-2.4-2.1-2.9-3.1c0,0-0.6-0.9-0.6-0.9
		c-0.7-1-1.1-3.1-1.2-3.7c0-0.1-0.1-0.1-0.1-0.2c-0.1,0-0.1,0-0.2,0l-0.3,0.1c-0.4,0.2-0.7,0.2-1.4,0.1c-0.6-0.1-1.2,0.5-1.4,0.9
		c-0.1-0.4-0.3-1.4,0-2.1c0-0.1,0-0.2,0-0.2l-0.1-0.2c0-0.1,0-0.1,0-0.2c0.2-0.3,1.7-0.8,3-0.6c1.3,0.2,2.2,0.6,3.2,2.6
		c0.7,1.4,1.5,2.3,2.1,2.9c0.1,0.1,0.2,0.1,0.3,0.1c0.1,0,0.1-0.1,0.1-0.2l0-0.4l0-0.1c0.9,0.6,2.8,0.6,3.9,0.5
		c0.1,0,0.2-0.1,0.2-0.1c0-0.1,0-0.2,0-0.2l-0.5-0.6c0-0.1-0.1-0.1-0.2-0.1l-0.2,0c-1.2,0.1-1.7-1.1-1.8-1.7
		C48.3,27,49.5,26.9,51.1,26.9z"/>
	<path class="st17" d="M54,48.3c0,0-3.9,0-4.9-3"/>
	<path class="st17" d="M50.8,47.5c0,0-0.2,1.8,0.4,1.9c0.6,0.1,2,1.7,0.5,1.9c-1.5,0.2-3.4,0.2-5.6,0.5c-2.2,0.4-6.3,0.9-6.8,0.5
		c-0.5-0.4,0.1-1.1-0.5-1.8c-0.6-0.7,0.4-0.7,0.7-0.5c0.4,0.2,1.6,0.3,1.6,0.3"/>
	<path class="st17" d="M38.8,49.8c0,0-0.1-0.7-0.4-0.9c-0.4-0.3-0.4-0.6,0-0.6c0.4,0,1.7,0.6,2.2,0.9c0.5,0.3,0.9,0.3,0.6,0
		c-0.3-0.3-1.6-1.2-3-1.1c0,0-0.3,0-0.1-0.4c0.1-0.3,0.1-0.7,0-0.9c-0.1-0.2,0.2-0.3,0.7-0.3c0.4,0,1.9,0.4,2.6,1.4
		c0.6,1,1.2,1.6,2.4,1.4c1.2-0.2,2.5-1.5,2.6-2.4c0,0-0.3-0.9-2-1c-1.7-0.1-1.8-0.2-1.8-0.5c0-0.3-0.2-1.9,0.9-2
		c1.1-0.1,2,0.1,2.6-0.1"/>
	<path class="st17" d="M43.6,43.4c0,0-0.4-1.1,1.1-1.4c1.5-0.3,3.4-1.1,7.1,0.3"/>
	<path class="st17" d="M54.2,45.2c0,0-1.6,0-1.9-1.1c-0.3-1.1-0.2-2-0.9-2.6c-0.7-0.6-2.2-0.1-2.6-1.9"/>
	<path class="st17" d="M54.4,43.8c0,0-0.2,1.7-0.1,2.3c0,0.6-0.1,3.7-0.5,4.8c0,0,1-0.9,1.3-2.2c0,0,1,1.4,1.3,2.5c0,0,1.1-2,2-2.8"
		/>
	<path class="st17" d="M58.3,48c0,0,0.1,0.7,0,1.3c-0.1,0.6,0,1.1,0.4,1.4c0.3,0.3,1,0.8,0.9,1.3c0,0.5-0.1,0.9-0.7,0.7
		c-0.6-0.2-1.9-0.6-2.9-0.5c-1,0-0.9,0-0.9,0.3c0,0.3-0.2,0.5,0.5,0.6c0.6,0.1,1.6,0.4,1.8,0.5c0.1,0.1-1.6,0.1-2,0.4
		c-0.4,0.3-0.1,0.2-0.1,0.7c0,0.4,0.1,0.5,0.5,0.5c0.5,0,1.9-0.2,2.3-0.2c0,0-0.6,0.4-1.6,0.5c-1,0.1-1.2,0.3-0.9,0.7
		c0.2,0.4,0.6,0.7,0.6,0.9c0,0,0.4,0.5,1.3,0c0.9-0.4,1.2-1.2,2.3-1.3c0,0,0,0.8,0.7,0.8c0.7,0,1.8,0.1,1.9-0.9c0.2-1,0.4-4.2,1-6.7
		c0,0,0.5-1.7-0.2-1.8c-0.7-0.1-1.8,0-1.7-0.7c0-0.6,0.5-1.1,0.3-1.8c0,0-1.5,0.7-2.1-0.2c-0.6-0.9-1.5-3-1.9-4.2
		c-0.3-1.2-1.7-4.2-1.8-4.4"/>
	<path class="st17" d="M55.5,35.9c0,0,1.8-0.4,2.7-0.3c0,0-0.3-1.1-0.6-1.5c0,0,0.8-0.6,0.9-1c0.1-0.4,0.2-0.7,0.2-1.2
		c0-0.5-0.5-1.1,0-1.4c0.5-0.3,0.8-0.7,1.3-1.2c0,0-0.9-0.1-0.6-0.8c0.3-0.7,0.9-2.8,2-4.5c0,0-2-0.4-4,1.1"/>
	<path class="st17" d="M59.9,23.9c0,0-0.2-1.2,0.2-1.8c0,0-1.6-0.2-2.8,0.2c-1.2,0.4-5.1,1.7-6.7,1.8c0,0-0.1,1.3,1.9,1.2"/>
	<path class="st17" d="M50.9,25.1c0,0,0,1.1,0.4,1.6"/>
	<path class="st17" d="M54.4,28.3c0,0,0-1.3-0.9-1.4c-1.8-0.2-4.7,0.4-5.8-0.4c0,0,0.4,1.8,1.9,1.7c1.5-0.1,3.3-0.4,3.7,0.2"/>
	<path class="st17" d="M49.8,28.2c0,0,0.8,1.6,2.8,1.7c1.9,0.1,3.5-0.2,4.5,0.5c0,0-0.3-0.7-1.1-0.9c-0.9-0.2-0.9-2.3,1.3-1.9
		c0,0-0.7-0.9-1.4-1"/>
	<path class="st17" d="M53.4,24.8c0,0,1.1,0.3,2.3,0"/>
	<path class="st17" d="M53.9,24.9c0,0,0.5,0.7,1.4,0"/>
	<path class="st17" d="M58.3,26.5c0,0,1,0.3,1.7-0.2"/>
	<path class="st17" d="M42.1,25.9c-0.5-0.1-1,0.1-1.4,0.4c-0.4,0.2-0.7,0.2-1.4,0.1c-0.8-0.1-1.4,0.9-1.4,0.9s-0.3-1.3,0-2.1"/>
	<path class="st17" d="M39.3,26.3c0,0-0.6-0.7-0.9-0.8c-0.4-0.1-0.9-0.6-0.7-0.9c0.2-0.3,1.7-0.8,3-0.6c1.3,0.2,2.2,0.7,3.2,2.6
		c1,1.9,2.2,3,2.6,3.4"/>
	<path class="st17" d="M50.8,29.3c0,0-3.3,0.4-4.5-0.4c0,0-0.1,2.5,1.7,3.6c0,0-1.1,0.3-1.4,1.1c-0.4,0.7-0.6,1.6-1.5,2
		c0,0,1.8,0.4,3.1,0.4c1.4-0.1,3.8-0.2,4.6-0.1c0,0-0.3,1-1.2,1.6c-0.9,0.6-1.9,2.1-3.3,2.2c-1.3,0.1-2.2,0-3.7,0.5
		c-1.6,0.4-6.5,1.8-8.6-1.2c0,0,0.7,0,0.9-0.4c0.2-0.4,0.6-1.7,0.6-1.7s0.5,1,0.8,1.8c0,0,0.6-0.8,1.2-0.7c0.6,0.1,1.3,1.1,2,0.5
		c0.7-0.6,2.4-2,3.8-2.8"/>
	<path class="st17" d="M41.2,26.1c0,0,0.4,2.8,1.3,3.9c0.8,1.1,1.4,3,3.7,4.1"/>
	<path class="st17" d="M46.7,35.8c0,0,0.6,0,1.6-0.8c0.9-0.8,1.5-0.8,1.5-0.8"/>
	<path class="st17" d="M48.5,35.8c0,0,1.4-0.3,1.9-0.9c0.5-0.5,1.3-0.9,1.3-0.9"/>
	<path class="st17" d="M50.9,35.7c0,0,0.5-0.1,1-0.5c0.6-0.4,1.1-0.8,1.5-0.9"/>
	<path class="st17" d="M52.8,35.8c0,0,0.7-0.2,1.1-0.5c0.3-0.4,1.3-0.8,1.3-0.8"/>
	<path class="st17" d="M58.4,42c0,0,0.9,0.8,2.6,0.5c1.7-0.3,1.9-1.8,1.9-2.2c0-0.3-0.3-1.2-1.3-1.2c-1,0.1-1.7,1.3-1.7,1.3
		S59.3,39,59.6,38c0.3-1,0.3-2-1-1.8c0,0,0.3-0.7,1.4-0.7c0,0-0.3-0.8-0.3-1.8c0-1.7,1-1.4,1-2c0,0-0.2-1.7,0.4-1.8
		c0.5-0.2,1.2-0.5,1.3-1.7s0-2.2,1.1-2.5c0,0,0.7,4,0,5.9c-0.8,1.9-2,2.3-2.2,3c-0.1,0.7,0.1,1.7,1,2.1c0.9,0.4,3.1,1.6,3,3.3
		c-0.1,1.7-1.2,4-3.6,4.7"/>
	<path class="st17" d="M36.2,39c0,0,1.2,0.6,2.2-0.3"/>
	<path class="st17" d="M38,46.7c-1,0.1-1.9,1.1-1.9,1.1s1-0.2,1.9,0.2"/>
	<path class="st17" d="M38.1,48.5c0,0-1.1,0.6-1.4,1.5c0,0,1.3-0.4,2.1-0.3"/>
	<path class="st17" d="M38.7,50.3c0,0-1.2,0.4-1.8,1.5c0,0,1.1-0.2,2.3,0.2"/>
	<path class="st17" d="M55.2,52.3c0,0-1.1-0.1-1.9,0.4c0,0,1.4,0,1.9,0.3"/>
	<path class="st17" d="M55.2,54.1c0,0-1.1,0.4-1.9,1.5c0,0,1.2-0.5,2.2-0.4"/>
	<path class="st17" d="M55.5,55.9c0,0-0.6,0.4-0.8,1.7c0,0,0.8-0.6,1.4-0.5"/>
</g>
<g>
	<circle class="st18" cx="74.3" cy="48.7" r="8.5"/>
	<path class="st8" d="M70.7,40.9c0,0-0.9,2.1,0.6,2.6c0,0-0.7,2,1.5,2.7c0,0,0,2.1,3.2,2.3c0,0,0.4-1.8,2.2-1.2c0,0,1-1.7,2.4-0.6
		c0,0,0.8-1,1.8-0.3"/>
	<path class="st8" d="M75.9,48.3c0,0,1.6,1.9-0.7,3.7c0,0,0.5,2.6-2.8,3.2c0,0,0,1.5-1.8,1.2"/>
	<path class="st8" d="M68.6,42.3c0,0-0.8,7.1,6.7,9.7"/>
	<path class="st8" d="M66.3,45.7c0,0,0.1,6.5,6.2,9.6"/>
	<path class="st8" d="M78.2,47.1c0,0,2.4,6.8-4.5,10.1"/>
	<path class="st8" d="M80.6,46.5c0,0,1.9,5.4-1.8,9.5"/>
	<path class="st8" d="M72.8,46.1c0,0,4.5-3.4,9.1-1.3"/>
	<path class="st8" d="M71.3,43.4c0,0,4.1-3,8.7-1.1"/>
</g>
<g>
	<g>
		<g>
			<path class="st15" d="M18.6,55.1c0,0-1.3-0.1-1.6,0.8c-0.3,0.9,1,1.8,2.2,1.9c1.3,0,2.9,0,3.9-1.7c1-1.8,7.9-14.7,10.5-15.6
				l-1.4-0.7c0,0-1.5,1.2-3.1,4.1c-1.6,2.9-7,10.3-8.2,10.8C19.6,55.1,18.6,55.1,18.6,55.1z"/>
			<path class="st17" d="M20.3,54.8c0,0,0.7,1.3,0.9,2.5"/>
			<path class="st17" d="M18.7,55.1c0,0,0.5,1.5,0.4,2.5"/>
			<path class="st19" d="M30.6,41.3c0,0,0.7,0.4,0.9,0.7"/>
			<path class="st19" d="M30,42.3c0,0,0.7,0.4,0.9,0.7"/>
			<path class="st19" d="M29.3,43.2c0,0,0.7,0.4,0.9,0.7"/>
		</g>
		<g>
			<path class="st15" d="M33.6,55.1c0,0,1.3-0.1,1.6,0.8c0.3,0.9-1,1.8-2.2,1.9c-1.3,0-2.9,0-3.9-1.7c-1-1.8-7.9-14.7-10.5-15.6
				l1.4-0.7c0,0,1.5,1.2,3.1,4.1c1.6,2.9,7,10.3,8.2,10.8C32.5,55.1,33.6,55.1,33.6,55.1z"/>
			<path class="st17" d="M31.9,54.8c0,0-0.7,1.3-0.9,2.5"/>
			<path class="st17" d="M33.4,55.1c0,0-0.5,1.5-0.4,2.5"/>
			<path class="st19" d="M21.5,41.3c0,0-0.7,0.4-0.9,0.7"/>
			<path class="st19" d="M22.2,42.3c0,0-0.7,0.4-0.9,0.7"/>
			<path class="st19" d="M22.8,43.2c0,0-0.7,0.4-0.9,0.7"/>
		</g>
	</g>
	<g>
		<circle class="st15" cx="26.1" cy="45.2" r="1.5"/>
		<path class="st17" d="M24.9,44.4c0,0-0.2,0.9,0.4,1.2c0.6,0.4,0.9,0,1.1-0.4c0.2-0.4,0.5-0.9,0.9-0.8"/>
	</g>
</g>
<g>
	<path class="st6" d="M9.5,42.8l1.3,0.4c-0.2,0.7-0.5,1.1-1,1.5c-0.4,0.3-1,0.5-1.7,0.5c-0.9,0-1.6-0.3-2.1-0.8
		C5.5,43.7,5.2,43,5.2,42c0-1,0.3-1.8,0.8-2.3c0.6-0.5,1.3-0.8,2.2-0.8c0.8,0,1.4,0.2,1.9,0.6c0.3,0.3,0.5,0.6,0.7,1.1l-1.3,0.3
		c-0.1-0.3-0.2-0.6-0.5-0.7c-0.2-0.2-0.5-0.3-0.9-0.3c-0.5,0-0.9,0.2-1.2,0.5c-0.3,0.3-0.4,0.8-0.4,1.5c0,0.8,0.1,1.3,0.4,1.6
		C7.3,43.9,7.6,44,8.1,44c0.3,0,0.6-0.1,0.9-0.3C9.2,43.5,9.4,43.2,9.5,42.8z"/>
	<path class="st6" d="M6,52.6v-5.9h1.3v4.9h3.2v1H6z"/>
	<path class="st6" d="M8.2,58.1v-1h2.8v2.4c-0.3,0.2-0.7,0.5-1.2,0.6c-0.5,0.2-1,0.3-1.6,0.3c-0.7,0-1.3-0.1-1.8-0.4
		c-0.5-0.3-0.9-0.6-1.1-1.1c-0.3-0.5-0.4-1-0.4-1.6c0-0.6,0.1-1.2,0.4-1.7c0.3-0.5,0.7-0.9,1.2-1.1c0.4-0.2,0.9-0.3,1.5-0.3
		c0.8,0,1.4,0.2,1.9,0.5c0.4,0.3,0.7,0.7,0.9,1.3l-1.3,0.2c-0.1-0.3-0.3-0.5-0.5-0.7c-0.2-0.2-0.6-0.3-0.9-0.3c-0.6,0-1,0.2-1.4,0.5
		c-0.3,0.3-0.5,0.8-0.5,1.5c0,0.7,0.2,1.2,0.5,1.6c0.3,0.4,0.8,0.5,1.3,0.5c0.3,0,0.5,0,0.8-0.2c0.3-0.1,0.5-0.2,0.7-0.4v-0.8H8.2z"
		/>
</g>
<g>
	<path class="st6" d="M92.5,42.8v-1h2.8v2.4c-0.3,0.2-0.7,0.5-1.2,0.6c-0.5,0.2-1,0.3-1.6,0.3c-0.7,0-1.3-0.1-1.8-0.4
		c-0.5-0.3-0.9-0.6-1.1-1.1c-0.3-0.5-0.4-1-0.4-1.6c0-0.6,0.1-1.2,0.4-1.7c0.3-0.5,0.7-0.9,1.2-1.1c0.4-0.2,0.9-0.3,1.5-0.3
		c0.8,0,1.4,0.2,1.9,0.5c0.4,0.3,0.7,0.7,0.9,1.3l-1.3,0.2c-0.1-0.3-0.3-0.5-0.5-0.7c-0.2-0.2-0.6-0.3-0.9-0.3c-0.6,0-1,0.2-1.4,0.5
		c-0.3,0.3-0.5,0.8-0.5,1.5c0,0.7,0.2,1.2,0.5,1.6c0.3,0.4,0.8,0.5,1.3,0.5c0.3,0,0.5-0.1,0.8-0.2c0.3-0.1,0.5-0.2,0.7-0.4v-0.8
		H92.5z"/>
	<path class="st6" d="M95.6,52.6h-1.4l-0.6-1.4H91l-0.5,1.4h-1.4l2.5-6H93L95.6,52.6z M93.2,50.3l-0.9-2.2l-0.9,2.2H93.2z"/>
	<path class="st6" d="M95.6,60.3h-1.4l-0.6-1.4H91l-0.5,1.4h-1.4l2.5-6H93L95.6,60.3z M93.2,57.9l-0.9-2.2l-0.9,2.2H93.2z"/>
</g>
<circle class="st20" cx="50" cy="50" r="49"/>
<circle class="st20" cx="50" cy="50" r="36.8"/>
</svg>
