<?xml version="1.0" encoding="utf-8"?>
<!-- Generator: Adobe Illustrator 19.0.1, SVG Export Plug-In . SVG Version: 6.00 Build 0)  -->
<svg version="1.1" id="Layer_1" xmlns="http://www.w3.org/2000/svg" xmlns:xlink="http://www.w3.org/1999/xlink" x="0px" y="0px"
	 viewBox="-249 251 100 100" style="enable-background:new -249 251 100 100;" xml:space="preserve">
<style type="text/css">
	.st0{fill:#FFFFFF;}
	.st1{fill:#6F85C2;}
	.st2{fill:#0DB14B;}
	.st3{fill:#007932;}
	.st4{fill:#0054A6;}
	.st5{stroke:#000000;stroke-width:0.1091;}
	.st6{fill:#A7A9AC;stroke:#000000;stroke-width:0.2182;}
	.st7{stroke:#000000;stroke-width:0.4364;}
	.st8{fill:#A7A9AC;stroke:#000000;stroke-width:0.4364;}
	.st9{fill:#6D6E71;}
	.st10{fill:none;stroke:#000000;stroke-width:0.4364;}
	.st11{fill:#6D6E71;stroke:#000000;stroke-width:0.2182;}
	.st12{fill:#808285;stroke:#000000;stroke-width:0.1492;}
	.st13{stroke:#000000;stroke-width:0.6547;}
	.st14{fill:#808285;}
	.st15{fill:#FFFFFF;stroke:#000000;stroke-width:0.1091;}
	.st16{fill:#D1D3D4;stroke:#000000;stroke-width:0.2182;}
	.st17{fill:#0DB14B;stroke:#000000;stroke-width:0.2182;}
	.st18{fill:#FFFFFF;stroke:#000000;stroke-width:0.2182;}
	.st19{fill:#A7A9AC;stroke:#000000;stroke-width:0.1091;}
	.st20{fill:none;stroke:#000000;stroke-width:0.2182;}
	.st21{fill:#FFFFFF;stroke:#000000;stroke-width:0.2223;}
	.st22{fill:#D63742;stroke:#000000;stroke-width:0.4364;}
	.st23{fill:#A7A9AC;}
	.st24{fill:none;stroke:#000000;stroke-width:0.1091;}
	.st25{fill:#FFFFFF;stroke:#000000;stroke-width:0.4364;}
</style>
<g>
	<path class="st0" d="M-240,252.3c0,17.5,0,44.3,0,44.5c1.9,20.5,16.7,39.8,40.4,51.2l0,0l0,0l0,0l0,0
		c23.7-11.3,38.5-30.7,40.4-51.1c0-0.1,0-27,0-44.5L-240,252.3L-240,252.3z"/>
	<path d="M-199.6,348.7l-0.3-0.1c-23.6-11.3-38.8-30.7-40.8-51.7l0-44.6h0.7v-0.6h81.5v45.2c-2,21.2-17.2,40.5-40.8,51.7
		L-199.6,348.7z M-239.3,253.1v43.7c1.9,20.4,16.7,39.3,39.7,50.5c23-11.1,37.8-29.9,39.7-50.4l0-43.8H-239.3z"/>
</g>
<path class="st1" d="M-238.4,254c0,16.6,0,42.1,0,42.2c0.5,5,1.7,9.9,3.8,14.7l33.9-11l0,0l0,0l34.9,11.9c2.3-5,3.7-10.3,4.2-15.6
	c0-0.1,0-25.6,0-42.2C-161.6,254-238.4,254-238.4,254z"/>
<path class="st0" d="M-238.4,267.9c3.1,0.1,3.6,1.3,3.9,2.3c1.6,0.7,6.3-0.3,6.7,1.2c1.2,0,2-0.6,2.2,0.1c0.6-0.4,1.5-0.4,1.6,0.3
	c1.2-0.6,3.9-0.9,4.1,0c1.3-0.4,2.2-0.1,2.3,0.6c2.3-1.6,7.3,0.6,9.5-0.6c2.2-0.6,14.1-0.7,20.8,1.5c-4.4,0.7-12.9,0.4-16.3,0.4
	c-0.9-1.2-3.6,0.4-4.5-0.7c-1.2-0.9-1.9-0.6-2.9,0.3c-1.3,0.4-7.6-0.6-7.9,0.4c-0.4,0.9-8,1-11.1,0.6c-2.9-1.3-7.1-1.3-8.4,0.3
	C-238.3,274.7-238.4,267.9-238.4,267.9z"/>
<path class="st0" d="M-161.5,263.8c-1.7,0.7-4.7-0.7-5.8-0.4c-0.9-0.3-2.6-0.6-3.2-0.1c-0.6-0.3-2.9-1-3.5-0.6
	c-0.6-0.4-2-0.9-2.3,0.3c-2.3-0.1-3.9,1-0.7,1c2.6,0.6,5.5-0.9,5.7,0.6c1.5,1,4.4,0.6,4.2,1.6c0.3,0.9,1.7-0.3,1.7,1.2
	c0.6,0.7,0.9-0.7,2.3,1.2c1.6,1,1.9,0.1,1.9,0.1L-161.5,263.8z"/>
<path class="st2" d="M-238.5,294.8c0,1,0,1.5,0,1.6c0.5,5,1.7,9.9,3.8,14.7l33.9-11l0,0l0,0l34.9,11.9c2.3-5,3.7-10.3,4.2-15.6
	c0,0,0-3.1,0-7.8c-10,0.1-39.1,1.5-43.6,2.8C-218,294-234.4,294-238.5,294.8z"/>
<polygon class="st3" points="-179.5,300.4 -177.8,300.6 -175.9,300.2 -175.6,300.8 -174.5,300 -173.2,300 -172.6,299.7 -172,301.2 
	-170.1,300.4 -168.8,300.2 -168.2,301 -166.9,300.8 -166.4,301.1 -164.8,300.9 -163.7,301.1 -162.5,301.1 -164.8,309.5 
	-166.6,309.6 -167.5,308.5 -167.9,308.8 -171,308.3 -171.3,307.8 -172.5,308 -174.5,307.7 -176.4,308.3 -193.3,302.6 -191.7,302 
	-185,302.4 -182.2,301.6 "/>
<path class="st3" d="M-212.5,303.6l-2.2-0.3l-1.1-0.2l-0.7,0.7l-0.8-0.1l-0.7,0.7l-1.1,0.2c0,0-0.4,0.3-0.7,0.3s-3.2-0.7-3.2-0.7
	l-0.7,0.6l-0.9-0.7l-1,0.7l-1-0.7l-0.9,1l-0.8-0.8l-0.5,0.8l-1.2-1l-1,1l-0.6-0.1l-0.8,0.5l-1-0.4l-1.2,0.5l-1-0.4l-1.2,0.5l1.9,5.2
	L-212.5,303.6z"/>
<path class="st4" d="M-233.7,312c6.2,13.2,17.7,25.2,34,33l0,0l0,0l0,0l0,0c15.9-7.6,26.8-19,33.1-31.9l-33.9-11.3L-233.7,312z"/>
<polygon points="-170.3,284.8 -169.5,285.6 -169.2,286.9 -169,288 -167.9,288.1 -168.6,283.8 -171.7,282.3 -173.2,283.2 "/>
<polyline class="st5" points="-220.8,291.5 -221,294.7 -220.3,294.9 -220.4,291.6 -220.8,291.5 "/>
<path class="st6" d="M-168.4,279.9l-0.2-3.4l-6.1-0.1l-0.1,2l-0.2,1.4l0.5,0.9l-0.6,1h-0.8l-1.2,0.8l-0.3,3.5l0.1,1.3l-0.4,0.9
	l0.1,1.6h-1.1l-0.3-1.7l-0.9-0.9l-2.3-0.1l-3.5-0.1l-4.8,0.1l-1.4,0.7l0.1,2.4l-3,0.3l0.1,0.7l5.9,0.1l7.7-0.1l5.7-0.5l2.1,0.1
	l0.2-0.9l7-0.3l0.1-7.2L-168.4,279.9z M-168.7,288.2l-3.6,0.1l-1.1-0.7l0.1-3.2l1.9-1.3l2,1.1l0.8,2.2L-168.7,288.2z"/>
<polygon class="st7" points="-175.2,288.2 -175.1,281.8 -175.9,281.8 -177.1,282.5 -177.4,286.3 -177.3,287.3 -177.7,288.1 
	-177.5,289.6 -178.7,289.7 -179,288.3 -179.9,287.2 -181.1,289.1 -181,291.2 -175.1,290.6 "/>
<polyline class="st7" points="-190.5,287.2 -190,288.2 -190.6,291.1 -195.4,291 -191.8,289.9 -191.8,287.7 -190.5,287.1 "/>
<path class="st8" d="M-194.6,295.2l-0.9-33.3l-3.2-6.3l-3.5,5.8l-1.3,33.9c0,0-1.7-0.7,0,0C-201.8,296-195.8,296-194.6,295.2z"/>
<path class="st9" d="M-199.5,295.6l-0.2-34.7l1-5.2l-3.5,5.9l-1.2,33.4v0.1C-201.7,295.9-200.3,295.8-199.5,295.6z"/>
<path class="st10" d="M-202.2,261.6c1.2-0.9,6-1.5,6.7,0.2"/>
<rect x="-200.6" y="261.8" class="st5" width="1.2" height="2.9"/>
<polygon class="st11" points="-197.9,281.6 -197.9,279.2 -198.6,278 -199.5,279.1 -199.7,281.7 "/>
<polygon points="-198.8,281.6 -198.9,279.3 -198.6,278 -199.5,279.1 -199.7,281.7 "/>
<path d="M-198.5,290.1l-0.1-2.5c-0.5-0.5-1-0.5-1.3,0.1c0,0.1,0,2.4,0,2.4H-198.5z"/>
<rect x="-200.1" y="290.1" class="st12" width="1.8" height="0.5"/>
<rect x="-200.3" y="290.6" class="st12" width="1.8" height="0.5"/>
<rect x="-200.5" y="291.2" class="st12" width="1.8" height="0.5"/>
<rect x="-200.6" y="291.7" class="st12" width="1.8" height="0.5"/>
<rect x="-200.8" y="292.3" class="st12" width="1.8" height="0.5"/>
<rect x="-201" y="292.8" class="st12" width="1.8" height="0.5"/>
<rect x="-201.2" y="293.4" class="st12" width="1.8" height="0.5"/>
<rect x="-201.4" y="293.9" class="st12" width="1.8" height="0.5"/>
<rect x="-201.6" y="294.4" class="st12" width="1.8" height="0.5"/>
<rect x="-201.8" y="295" class="st12" width="1.8" height="0.5"/>
<rect x="-202" y="295.6" class="st12" width="1.8" height="0.5"/>
<rect x="-198.3" y="274.1" class="st9" width="0.8" height="0.4"/>
<rect x="-196.1" y="275.2" class="st9" width="0.8" height="0.4"/>
<rect x="-196.4" y="277.4" class="st9" width="0.8" height="0.4"/>
<rect x="-196.1" y="277.7" class="st9" width="0.8" height="0.4"/>
<rect x="-196.2" y="280" class="st9" width="0.8" height="0.4"/>
<rect x="-196.8" y="280.7" class="st9" width="0.8" height="0.4"/>
<rect x="-196.1" y="280.7" class="st9" width="0.8" height="0.4"/>
<rect x="-196.4" y="281.4" class="st9" width="0.8" height="0.4"/>
<rect x="-196.6" y="282.7" class="st9" width="0.8" height="0.4"/>
<rect x="-196.8" y="283.4" class="st9" width="0.8" height="0.4"/>
<rect x="-199" y="283.4" class="st9" width="0.8" height="0.4"/>
<rect x="-198.6" y="284" class="st9" width="0.8" height="0.4"/>
<rect x="-198.9" y="284.6" class="st9" width="0.8" height="0.4"/>
<rect x="-197.1" y="285.6" class="st9" width="0.8" height="0.4"/>
<rect x="-199.3" y="285.6" class="st9" width="0.8" height="0.4"/>
<rect x="-198.7" y="286" class="st9" width="0.8" height="0.4"/>
<rect x="-196.8" y="288.9" class="st9" width="0.8" height="0.4"/>
<rect x="-197.3" y="290.8" class="st9" width="0.8" height="0.4"/>
<rect x="-198" y="291" class="st9" width="0.8" height="0.4"/>
<rect x="-195.9" y="291.2" class="st9" width="0.8" height="0.4"/>
<rect x="-196.9" y="291.6" class="st9" width="0.8" height="0.4"/>
<rect x="-195.7" y="291.8" class="st9" width="0.8" height="0.4"/>
<rect x="-195.7" y="292.4" class="st9" width="0.8" height="0.4"/>
<rect x="-197.5" y="292.5" class="st9" width="0.8" height="0.4"/>
<rect x="-196.3" y="293.1" class="st9" width="0.8" height="0.4"/>
<rect x="-196.7" y="293.6" class="st9" width="0.8" height="0.4"/>
<rect x="-195.7" y="293.7" class="st9" width="0.8" height="0.4"/>
<rect x="-198.3" y="293.7" class="st9" width="0.8" height="0.4"/>
<rect x="-197.4" y="271.1" class="st9" width="0.8" height="0.4"/>
<rect x="-199.5" y="270.3" class="st9" width="0.8" height="0.4"/>
<rect x="-198.6" y="269.9" class="st9" width="0.8" height="0.4"/>
<rect x="-196.6" y="268.8" class="st9" width="0.8" height="0.4"/>
<rect x="-198.6" y="267.8" class="st9" width="0.8" height="0.4"/>
<rect x="-197.9" y="265.8" class="st9" width="0.8" height="0.4"/>
<rect x="-196.5" y="264.2" class="st9" width="0.8" height="0.4"/>
<rect x="-198.9" y="262.5" class="st9" width="0.8" height="0.4"/>
<rect x="-196.9" y="261.9" class="st9" width="0.8" height="0.4"/>
<rect x="-198.2" y="259.8" class="st9" width="0.8" height="0.4"/>
<rect x="-199" y="259" class="st9" width="0.8" height="0.4"/>
<rect x="-198.5" y="258.6" class="st9" width="0.8" height="0.4"/>
<rect x="-198.6" y="257.8" class="st9" width="0.8" height="0.4"/>
<rect x="-199.2" y="276.2" class="st9" width="0.8" height="0.4"/>
<rect x="-198.9" y="276.7" class="st9" width="0.8" height="0.4"/>
<rect x="-199.4" y="277.1" class="st9" width="0.8" height="0.4"/>
<path class="st6" d="M-191.6,297.1c-2.2,0-2.2-0.7-5.5-0.6c-3.3,0.1-5.2-1-6.5-0.6c-0.4-1.3-0.7-1.6-1.6-1.7
	c0.1-0.4-2.2-3.5-2.2-3.5l-5.4,0.3c0,0,1.9,3.9,0,5.5c-1.7,0.4-4.1-0.3-4.8,0.1c-1-0.1-1.6-2.6-1.5-5.1c-1.5-1.5-4.1-1.7-4.5-2.5
	c-0.7-0.1-1,0.9-1,0.9l0.1,7.3c-1.3-0.1-1.9,0-2.9,0.4c-1.5,0.6-8.9,0.9-10.3,0.9c0,0.1,0.1,1.2,0.1,1.2c4.5,0.1,10.9-0.4,13.1-0.4
	c2.2,0,34.2-0.9,36.4-0.9C-188.5,297.9-189.5,296.3-191.6,297.1z M-222.4,294.3l-0.1-3.5l2,0.8l0.2,3.4L-222.4,294.3z"/>
<path d="M-224.3,298.9l-0.2-1.7l-0.1-7.2l0.7-0.9h0.3c0,0-0.2,7.4,0.8,8.5c0.3-0.1,0.5,0.2,0.5,0.2l-0.7,1.4l-1.1-0.1L-224.3,298.9z
	"/>
<path d="M-207.3,296.2l-0.1-5.4l-5.4,0.2c0.7,1.4,1.3,4.9,0.2,5.5C-211.2,296.1-207.3,296.2-207.3,296.2z"/>
<rect x="-222.3" y="297" class="st9" width="0.8" height="0.4"/>
<rect x="-221.5" y="296.2" class="st9" width="0.8" height="0.4"/>
<rect x="-222.4" y="295.2" class="st9" width="0.8" height="0.4"/>
<rect x="-221.8" y="295.5" class="st9" width="0.8" height="0.4"/>
<rect x="-221.7" y="295" class="st9" width="0.8" height="0.4"/>
<rect x="-223.4" y="292.3" class="st9" width="0.8" height="0.4"/>
<rect x="-223.3" y="290.7" class="st9" width="0.8" height="0.4"/>
<rect x="-220.1" y="291.5" class="st9" width="0.8" height="0.4"/>
<rect x="-220.3" y="292.6" class="st9" width="0.8" height="0.4"/>
<rect x="-220.1" y="294.8" class="st9" width="0.8" height="0.4"/>
<rect x="-220.5" y="297.8" class="st9" width="0.8" height="0.4"/>
<rect x="-219.6" y="297.5" class="st9" width="0.8" height="0.4"/>
<rect x="-218.7" y="297.6" class="st9" width="0.8" height="0.4"/>
<rect x="-218.1" y="297" class="st9" width="0.8" height="0.4"/>
<rect x="-218.1" y="297.9" class="st9" width="0.8" height="0.4"/>
<rect x="-217.6" y="297.5" class="st9" width="0.8" height="0.4"/>
<rect x="-217.4" y="298" class="st9" width="0.8" height="0.4"/>
<rect x="-219.2" y="298.4" class="st9" width="0.8" height="0.4"/>
<rect x="-225.7" y="298.2" class="st9" width="0.8" height="0.4"/>
<rect x="-227.5" y="298.2" class="st9" width="0.8" height="0.4"/>
<rect x="-229.8" y="298.2" class="st9" width="0.8" height="0.4"/>
<rect x="-232.8" y="298.8" class="st9" width="0.8" height="0.4"/>
<rect x="-235" y="298.7" class="st9" width="0.8" height="0.4"/>
<rect x="-215.8" y="297.5" class="st9" width="0.8" height="0.4"/>
<rect x="-214.9" y="297.2" class="st9" width="0.8" height="0.4"/>
<rect x="-213.8" y="297.1" class="st9" width="0.8" height="0.4"/>
<rect x="-213.3" y="297.5" class="st9" width="0.8" height="0.4"/>
<rect x="-214.5" y="298" class="st9" width="0.8" height="0.4"/>
<rect x="-213" y="298.2" class="st9" width="0.8" height="0.4"/>
<rect x="-212.3" y="297.9" class="st9" width="0.8" height="0.4"/>
<rect x="-211.1" y="298.4" class="st9" width="0.8" height="0.4"/>
<rect x="-211.2" y="297.7" class="st9" width="0.8" height="0.4"/>
<rect x="-210.4" y="297.1" class="st9" width="0.8" height="0.4"/>
<rect x="-210.7" y="296.2" class="st9" width="0.8" height="0.4"/>
<rect x="-212.3" y="296.8" class="st9" width="0.8" height="0.4"/>
<rect x="-208" y="297.2" class="st9" width="0.8" height="0.4"/>
<rect x="-207.6" y="296.3" class="st9" width="0.8" height="0.4"/>
<rect x="-207.4" y="295.9" class="st9" width="0.8" height="0.4"/>
<rect x="-207.1" y="295.3" class="st9" width="0.8" height="0.4"/>
<rect x="-206.6" y="295.9" class="st9" width="0.8" height="0.4"/>
<rect x="-205.9" y="296.4" class="st9" width="0.8" height="0.4"/>
<rect x="-206.1" y="297.1" class="st9" width="0.8" height="0.4"/>
<rect x="-206" y="297.6" class="st9" width="0.8" height="0.4"/>
<rect x="-205.6" y="298" class="st9" width="0.8" height="0.4"/>
<rect x="-206.9" y="297.9" class="st9" width="0.8" height="0.4"/>
<rect x="-206.8" y="293.4" class="st9" width="0.8" height="0.4"/>
<rect x="-208.6" y="291.3" class="st9" width="0.8" height="0.4"/>
<rect x="-209.9" y="291.5" class="st9" width="0.8" height="0.4"/>
<rect x="-209" y="292.3" class="st9" width="0.8" height="0.4"/>
<rect x="-208.5" y="292.6" class="st9" width="0.8" height="0.4"/>
<rect x="-208.2" y="293.3" class="st9" width="0.8" height="0.4"/>
<rect x="-211.5" y="293.9" class="st9" width="0.8" height="0.4"/>
<rect x="-208.3" y="295.3" class="st9" width="0.8" height="0.4"/>
<rect x="-210" y="295.2" class="st9" width="0.8" height="0.4"/>
<rect x="-210.5" y="295.5" class="st9" width="0.8" height="0.4"/>
<rect x="-224.5" y="289.7" class="st9" width="0.8" height="0.4"/>
<rect x="-224.4" y="295.3" class="st9" width="0.8" height="0.4"/>
<rect x="-224.2" y="296" class="st9" width="0.8" height="0.4"/>
<rect x="-223.9" y="297.7" class="st9" width="0.8" height="0.4"/>
<rect x="-223.2" y="297.9" class="st9" width="0.8" height="0.4"/>
<rect x="-224.1" y="298.4" class="st9" width="0.8" height="0.4"/>
<rect x="-206" y="294" class="st9" width="0.8" height="0.4"/>
<rect x="-206.5" y="294.2" class="st9" width="0.8" height="0.4"/>
<rect x="-206.2" y="294.6" class="st9" width="0.8" height="0.4"/>
<rect x="-205.6" y="295.3" class="st9" width="0.8" height="0.4"/>
<rect x="-205" y="295.3" class="st9" width="0.8" height="0.4"/>
<rect x="-204.9" y="296.4" class="st9" width="0.8" height="0.4"/>
<rect x="-204.5" y="297.3" class="st9" width="0.8" height="0.4"/>
<rect x="-203.3" y="296.6" class="st9" width="0.8" height="0.4"/>
<rect x="-202.6" y="297.6" class="st9" width="0.8" height="0.4"/>
<rect x="-200.4" y="297.5" class="st9" width="0.8" height="0.4"/>
<rect x="-199.7" y="296.8" class="st9" width="0.8" height="0.4"/>
<rect x="-198.2" y="297" class="st9" width="0.8" height="0.4"/>
<rect x="-198.3" y="297.8" class="st9" width="0.8" height="0.4"/>
<rect x="-197.5" y="297.7" class="st9" width="0.8" height="0.4"/>
<rect x="-196.2" y="297.3" class="st9" width="0.8" height="0.4"/>
<rect x="-194.1" y="297.4" class="st9" width="0.8" height="0.4"/>
<rect x="-192" y="297.6" class="st9" width="0.8" height="0.4"/>
<rect x="-189.9" y="297.6" class="st9" width="0.8" height="0.4"/>
<rect x="-192.6" y="290.7" class="st9" width="0.8" height="0.4"/>
<rect x="-191.3" y="288.5" class="st9" width="0.8" height="0.4"/>
<rect x="-188.6" y="288" class="st9" width="0.8" height="0.4"/>
<rect x="-189.7" y="289.4" class="st9" width="0.8" height="0.4"/>
<rect x="-188.2" y="288.8" class="st9" width="0.8" height="0.4"/>
<rect x="-187" y="288.1" class="st9" width="0.8" height="0.4"/>
<rect x="-186.4" y="288.1" class="st9" width="0.8" height="0.4"/>
<rect x="-186.5" y="288.5" class="st9" width="0.8" height="0.4"/>
<rect x="-185" y="287.7" class="st9" width="0.8" height="0.4"/>
<rect x="-185.1" y="290.6" class="st9" width="0.8" height="0.4"/>
<rect x="-187.2" y="289.9" class="st9" width="0.8" height="0.4"/>
<rect x="-188.4" y="290.3" class="st9" width="0.8" height="0.4"/>
<rect x="-187.1" y="290.5" class="st9" width="0.8" height="0.4"/>
<rect x="-183.3" y="290.6" class="st9" width="0.8" height="0.4"/>
<rect x="-182.3" y="290.5" class="st9" width="0.8" height="0.4"/>
<rect x="-182.9" y="290" class="st9" width="0.8" height="0.4"/>
<rect x="-182.1" y="289.5" class="st9" width="0.8" height="0.4"/>
<rect x="-182" y="288.7" class="st9" width="0.8" height="0.4"/>
<rect x="-182.5" y="288.2" class="st9" width="0.8" height="0.4"/>
<rect x="-183.6" y="288.5" class="st9" width="0.8" height="0.4"/>
<rect x="-183.9" y="287.6" class="st9" width="0.8" height="0.4"/>
<rect x="-176.4" y="288.1" class="st9" width="0.8" height="0.4"/>
<rect x="-176.9" y="286.6" class="st9" width="0.8" height="0.4"/>
<rect x="-176.2" y="285.2" class="st9" width="0.8" height="0.4"/>
<rect x="-176.6" y="284.8" class="st9" width="0.8" height="0.4"/>
<rect x="-176.2" y="283.3" class="st9" width="0.8" height="0.4"/>
<rect x="-173.8" y="284" class="st9" width="0.8" height="0.4"/>
<rect x="-175" y="285.5" class="st9" width="0.8" height="0.4"/>
<rect x="-173.9" y="286.3" class="st9" width="0.8" height="0.4"/>
<rect x="-175.1" y="288" class="st9" width="0.8" height="0.4"/>
<rect x="-174.5" y="289.2" class="st9" width="0.8" height="0.4"/>
<rect x="-172.7" y="288.3" class="st9" width="0.8" height="0.4"/>
<rect x="-172.7" y="289.4" class="st9" width="0.8" height="0.4"/>
<rect x="-170.4" y="289.4" class="st9" width="0.8" height="0.4"/>
<rect x="-168.9" y="288.2" class="st9" width="0.8" height="0.4"/>
<rect x="-168.2" y="288.8" class="st9" width="0.8" height="0.4"/>
<rect x="-168.6" y="286.6" class="st9" width="0.8" height="0.4"/>
<rect x="-167.4" y="286.5" class="st9" width="0.8" height="0.4"/>
<rect x="-167.4" y="285.4" class="st9" width="0.8" height="0.4"/>
<rect x="-167.2" y="284.7" class="st9" width="0.8" height="0.4"/>
<rect x="-167.8" y="284.1" class="st9" width="0.8" height="0.4"/>
<rect x="-169.2" y="283.6" class="st9" width="0.8" height="0.4"/>
<rect x="-170.2" y="283.2" class="st9" width="0.8" height="0.4"/>
<rect x="-168.7" y="283" class="st9" width="0.8" height="0.4"/>
<rect x="-168" y="282.4" class="st9" width="0.8" height="0.4"/>
<rect x="-167.5" y="283.1" class="st9" width="0.8" height="0.4"/>
<rect x="-169.5" y="281.9" class="st9" width="0.8" height="0.4"/>
<rect x="-172.4" y="282.5" class="st9" width="0.8" height="0.4"/>
<rect x="-172.4" y="283.2" class="st9" width="0.8" height="0.4"/>
<rect x="-173.4" y="282.7" class="st9" width="0.8" height="0.4"/>
<rect x="-173.8" y="282.9" class="st9" width="0.8" height="0.4"/>
<rect x="-174.9" y="282" class="st9" width="0.8" height="0.4"/>
<rect x="-173.8" y="280.6" class="st9" width="0.8" height="0.4"/>
<rect x="-172.3" y="280.9" class="st9" width="0.8" height="0.4"/>
<rect x="-171.6" y="280.5" class="st9" width="0.8" height="0.4"/>
<rect x="-171.7" y="280.9" class="st9" width="0.8" height="0.4"/>
<rect x="-170.1" y="280.4" class="st9" width="0.8" height="0.4"/>
<rect x="-169.2" y="280.2" class="st9" width="0.8" height="0.4"/>
<rect x="-170.1" y="279.6" class="st9" width="0.8" height="0.4"/>
<rect x="-172.1" y="279.6" class="st9" width="0.8" height="0.4"/>
<rect x="-172.2" y="279" class="st9" width="0.8" height="0.4"/>
<rect x="-173.2" y="279.2" class="st9" width="0.8" height="0.4"/>
<rect x="-174.6" y="278.4" class="st9" width="0.8" height="0.4"/>
<rect x="-174.3" y="278.7" class="st9" width="0.8" height="0.4"/>
<rect x="-173.2" y="278" class="st9" width="0.8" height="0.4"/>
<rect x="-173.7" y="277" class="st9" width="0.8" height="0.4"/>
<rect x="-172" y="277.1" class="st9" width="0.8" height="0.4"/>
<rect x="-171.3" y="277.4" class="st9" width="0.8" height="0.4"/>
<rect x="-171.4" y="278.2" class="st9" width="0.8" height="0.4"/>
<rect x="-169.2" y="278.1" class="st9" width="0.8" height="0.4"/>
<rect x="-169.7" y="276.8" class="st9" width="0.8" height="0.4"/>
<path class="st13" d="M-214.3,311.7l-0.5-0.6h0.7l-0.3-0.4l0.1-0.3l0.8,0.4l-0.2-0.6l-0.1,0.2l-0.2-0.1l0.2-1.4l0.2,0.6
	c0,0,1,0.7,1,0.9c-0.2-1,0.5-1.4,0.5-1.4l-0.1,1.2l0.2-0.8l0.6-0.4c0,0-0.2,0.5-0.1,1c0.2-0.5,0.8-1.2,1.3-1.2
	c-0.5,0.4-0.8,0.9-0.7,1.1c0.4-0.7,1.1-0.9,1.9-0.9c-0.9,0.3-1.1,0.7-1.2,1c0.1-0.2,0.6-0.8,1.5-0.5c-0.5,0-0.8,0.3-0.8,0.6
	c0.1,0.2,0.1,0.2,0.2,0c0.1-0.3,1.8-0.5,2.5-0.3c-1.4,0.2-1.6,0.2-1.8,0.6c0.6-0.2,2.2-0.3,2.4,0.1c-0.6,0.1-1.6-0.1-1.9,0.4
	c0.5-0.2,1.1-0.3,1.4-0.1c-0.6,0.1-0.7-0.1-1.1,0.5c0.8-0.2,2,0.1,2.4,0.5c-0.8-0.2-0.3,0-1,0c0.9,0.2,0.9,0.3-0.7,0.4
	c-0.3-0.3-0.6-0.9-0.3-0.3c0.2,0.6,0.5,0.6,0.5,0.6c0.7,0,2,0.1,2.2,0.4c-1.4-0.1-1.7-0.1-2,0.1c0.8,0.1,1.4,0.3,1.5,0.3
	c-1.1,0.1-1.7,0.2-0.7,0.3s1.3,0.5,1.3,0.5h-1l0.8,0.4l0.6,0.2l-0.7,0.3c0,0-0.8-0.3-1.1-0.1c0.3,0.1,1.6,0.3,1.9,0.5
	c-0.7,0.1-1.4-0.1-1.7,0.1c0,0.3,0.2,0.5,0.3,0.7c0.9,0,8.1,0.2,9.1,0.1c1.2-0.2,3.2-0.7,4.6,4.4c0.3,0.8-0.5,2.5-0.6,3
	c0.3,0.3,0.5,0.6,0.8,1.3c0.6-0.1,0.7,3,0.5,3.5h-0.9c0-1.5-1.3-2.7-4.3-5.6c0,0.7-0.5,0.9-0.5,1.1c0,0.3,0.3,2.4-1.3,4.4h-1.1
	l0.6-1.3c0.1-0.7-1.1-3.1-0.9-4.3c-0.3-0.4-1.7,0.9-4.3,0.6c-1.3-0.1-1.5,0-1.5,0l-1.3,5l-0.9-0.1l0.3-3.7l-0.4-1.6
	c-0.6,0.1-3.5-1.3-4.4-2.2c0-0.3,0-0.5-0.2,0c-0.2,0.4-0.4,0.2-0.7,0.1c0.1,0.3,0.1,0.6,0.1,1.5c0.3,0.7,0.6,1.1,0.7,1.3
	c-0.4,0-0.2,0.3,0.1,0.5c-0.4,0.1-0.2,0.5,0.3,0.9c0,0.3,0.4,0.7,0.3,1.4c-0.2,0.3-1-0.5-1-0.7c-0.2-0.2-1.3,0-1.1-4.2
	c-0.1-1,0.4-2.1,1.3-1.9c0.9,0.1,2.4,0.8,2.6,0.6c0-0.2-0.1-4.2,0-5.3c0-1.1-0.6-2.7-0.8-2.6c0,0.6-0.3,1.4-1,1.3
	c-0.2,0.2-0.3,1.1-0.3,1.1c0.8,0.5,0.9,0.9,0.9,1.3c-0.1,0-0.6-1-0.5-0.4c0.1,0.6,0,1-0.3-0.2c-0.2-0.4-0.3-0.1-0.6,0.3
	c-0.2,0.2-0.6-0.8-0.7-0.5c-0.1,0.5-0.7,0.7-0.5,0.4c0.1-0.3-0.3-0.5-0.3-0.1c-0.3,0.6-0.7,0.1-0.3-0.6c0-0.3,0-2.7,0.1-3
	C-214,311.9-214.3,311.7-214.3,311.7z"/>
<path class="st13" d="M-190.3,317.2l1.1,2.2l-0.6-0.1v0.7c0,0,0.8,0.7,0.7,1.2c-0.7-0.3-0.9-0.3-0.7,1.2c0.1,1.3-0.4,0.7-0.6,1.1
	c-0.5,2,2,1.3,1.4,2.9c-0.3-0.2-2.3,1-2.5-1.7c-0.4,0.1-0.7-0.7,0.2-2.6c0.1-0.4-0.4,0.2-0.1-2c0-0.6-0.3-1.9-0.7-2
	c-0.4,0.1-1.4-1.3-1.7-1.6C-193,317.1-190.8,318-190.3,317.2z"/>
<g>
	<polygon class="st13" points="-204.6,310.5 -204.2,301.9 -203.7,301.1 -203.5,301.9 -203.8,310.7 -204.2,310.8 	"/>
	<polygon class="st13" points="-202.8,312.3 -203.3,311.7 -203.6,311.5 -203.5,311 -203.7,310.8 -204.2,311 -203.8,311.3 
		-204.2,311.3 -204.5,311.6 -204.3,311.1 -204.6,310.8 -204.6,311.4 -204.3,311.8 -204,311.9 -203.3,312.9 	"/>
	<polygon class="st13" points="-202.3,312.8 -202.7,312.5 -203,313 -202.8,313.3 	"/>
	<path class="st13" d="M-201.5,310.5l0.5,0.2c-0.3,0.4-0.5,1-0.4,1.7c0.1,0.1-0.7,0.5-0.7,0.5C-202.1,311.9-201.8,311-201.5,310.5z"
		/>
	<path class="st13" d="M-201.1,312.3c-0.1-0.8,0.3-2.3,2.1-2.5c0.8-0.1,0.8,0.8,0.7,1.2c-0.6,0-1.1,0.3-1.3,0.9
		C-200.3,312.1-201.1,312.3-201.1,312.3z"/>
	<path class="st13" d="M-198.5,313.8c0.6-0.3,0.2-1.7,0.2-2.3c-0.4-0.2-1.3,0.3-1.2,0.9C-199.2,312.8-198.5,313.6-198.5,313.8z"/>
	<path class="st13" d="M-198.1,314.1c0.3-0.1,0.4-0.5-0.1-0.2C-198.6,314.1-198.2,314.1-198.1,314.1z"/>
	<path class="st13" d="M-198,315c0.8,0,0.8-0.9-0.2-0.6C-198.3,314.7-198.2,315-198,315z"/>
	<path class="st13" d="M-201.3,310.2l0.4,0.2c0.3-0.3,1.1-0.7,1.5-0.8c0-0.1,0.1-3.5-0.4-3.7c-0.5-0.1-1.3-0.2-1.6-0.1
		c0.3,0.3,1.2,0.7,1.3,1.7c-0.1,0.8-0.5,1.4-1.1,1.6C-201.2,309.6-201.3,310.2-201.3,310.2z"/>
	<path class="st13" d="M-202,307.2l-0.3,0.7l0.4,0.5l0.1,0.2c0.5-0.1,0.9-0.3,1.1-0.7c-0.2-0.3-0.6-0.5-0.6-0.5l-0.1,0.3l-0.2-0.1
		l-0.1-0.4H-202z"/>
	<polygon class="st13" points="-200.2,305.5 -200.4,305.1 -200.1,304.6 -199.6,304.5 -198.4,304 -198.4,304.5 -197.3,304.5 
		-196.6,305.8 -197,305.9 -196.8,306.5 -197,307.8 -197.5,307.5 -198,308 -198.8,307.8 -199.3,306.8 -199.7,305.8 	"/>
	<path class="st13" d="M-203.3,314.3c0.6-0.8,2.5-2.2,3.4-2.2c0.6,0.3,2.4,3.7,1.4,6.1C-199.9,318.3-202.6,316.4-203.3,314.3z"/>
	<path class="st13" d="M-201.7,305.7l-1,0.9c-0.1,0.3,0.2,0.3,0.4,0.3s1.7,0.3,1.9,0.7C-200.1,307.7-200,306.6-201.7,305.7z"/>
	<rect x="-205.5" y="310.1" class="st13" width="2.7" height="0.5"/>
</g>
<rect x="-200.2" y="262.4" class="st14" width="0.6" height="2.1"/>
<path class="st15" d="M-214.4,311.7l-0.5-0.6h0.7l-0.3-0.4l0.1-0.3l0.8,0.4l-0.2-0.6l-0.1,0.2l-0.2-0.1l0.2-1.4l0.2,0.6
	c0,0,1,0.7,1,0.9c-0.2-1,0.5-1.4,0.5-1.4l-0.1,1.2l0.2-0.8l0.6-0.4c0,0-0.2,0.5-0.1,1c0.2-0.5,0.8-1.2,1.3-1.2
	c-0.5,0.4-0.8,0.9-0.7,1.1c0.4-0.7,1.1-0.9,1.9-0.9c-0.9,0.3-1.1,0.7-1.2,1c0.1-0.2,0.6-0.8,1.5-0.5c-0.5,0-0.8,0.3-0.8,0.6
	c0.1,0.2,0.1,0.2,0.2,0c0.1-0.3,1.8-0.5,2.5-0.3c-1.7,0.2-2,0.2-2.1,0.6c0.6-0.2,2.2-0.3,2.4,0.1c-0.6,0.1-1.6-0.1-1.9,0.4
	c0.5-0.2,1.1-0.3,1.4-0.1c-0.6,0.1-0.7-0.1-1.1,0.5c0.8-0.2,2,0.1,2.4,0.5c-0.8-0.2-0.3,0-1,0c0.9,0.2,0.9,0.3-0.7,0.4
	c-0.3-0.3-0.6-0.9-0.3-0.3c0.2,0.6,0.5,0.6,0.5,0.6c0.7,0,2,0.1,2.2,0.4c-1.4-0.1-1.7-0.1-2,0.1c0.8,0.1,1.4,0.3,1.5,0.3
	c-1.1,0.1-1.7,0.2-0.7,0.3s1.3,0.5,1.3,0.5h-1l0.8,0.4l0.6,0.2l-0.4,0.2c0,0-0.8-0.3-1.1-0.1c0.3,0.1,1.6,0.3,1.9,0.5
	c-0.7,0.1-1.4-0.1-1.7,0.1c0,0.3,0.2,0.5,0.3,0.7c0.9,0,8.1,0.2,9.1,0.1c1.2-0.2,3.2-0.7,4.6,4.4c0.3,0.8-0.5,2.5-0.6,3
	c0.3,0.3,0.5,0.6,0.8,1.3c0.6-0.1,0.7,3,0.5,3.5h-0.9c0-1.5-1.3-2.7-4.3-5.6c0,0.7-0.5,0.9-0.5,1.1c0,0.3,0.3,2.4-1.3,4.4h-1.1
	l0.6-1.3c0.1-0.7-1.1-3.1-0.9-4.3c-0.3-0.4-1.7,0.9-4.3,0.6c-1.3-0.1-1.5,0-1.5,0l-1.3,5l-0.9-0.1l0.3-3.7l-0.4-1.6
	c-0.6,0.1-3.5-1.3-4.4-2.2c0-0.3,0-0.5-0.2,0c-0.2,0.4-0.4,0.2-0.7,0.1c0.1,0.3,0.1,0.6,0.1,1.5c0.3,0.7,0.6,1.1,0.7,1.3
	c-0.4,0-0.2,0.3,0.1,0.5c-0.4,0.1-0.2,0.5,0.3,0.9c0,0.3,0.4,0.7,0.3,1.4c-0.2,0.3-1-0.5-1-0.7c-0.2-0.2-1.3,0-1.1-4.2
	c-0.1-1,0.4-2.1,1.3-1.9c0.9,0.1,2.4,0.8,2.6,0.6c0-0.2-0.1-4.2,0-5.3c0-1.1-0.6-2.7-0.8-2.6c0,0.6-0.3,1.4-1,1.3
	c-0.2,0.2-0.3,1.1-0.3,1.1c0.8,0.5,0.9,0.9,0.9,1.3c-0.1,0-0.6-1-0.5-0.4s0,1-0.3-0.2c-0.2-0.4-0.3-0.1-0.6,0.3
	c-0.2,0.2-0.6-0.8-0.7-0.5c-0.1,0.5-0.7,0.7-0.5,0.4c0.1-0.3-0.3-0.5-0.3-0.1c-0.1,0.3-0.5-0.1-0.1-0.9c0-0.3,0-2.7,0.1-3
	C-214.1,311.9-214.4,311.7-214.4,311.7z"/>
<path class="st16" d="M-190.4,317.2l1.1,2.2l-0.6-0.1v0.7c0,0,0.8,0.7,0.7,1.2c-0.7-0.3-0.9-0.3-0.7,1.2c0.1,1.3-0.4,0.7-0.6,1.1
	c-0.5,2,2,1.3,1.4,2.9c-0.3-0.2-2.3,1-2.5-1.7c-0.4,0.1-0.7-0.7,0.2-2.6c0.1-0.4-0.4,0.2-0.1-2c0-0.6-0.3-1.9-0.7-2
	c-0.4,0.1-1.4-1.3-1.7-1.6C-193.1,317.1-190.9,318-190.4,317.2z"/>
<path class="st17" d="M-212.3,310.4l0.3-0.2c0,0,0.2,0.8,0.2,1.1c0.3,0.1,1.2,1,1.2,1c0,0.4-0.1,0.7-0.1,0.7
	c-0.5-0.7-0.9-1.2-1.1-1.2c0,0.1-0.3,2.2-0.5,2.7c-0.1-0.1-0.5-0.1-0.5-0.1c0.3-0.6,0.6-2.2,0.6-2.6c-0.2-0.1-1.3-0.6-1.8,0.1
	c-0.2,0-0.3-0.3-0.3-0.3c1-0.5,1.9-0.4,2.2-0.3C-212.2,310.9-212.3,310.4-212.3,310.4z"/>
<path class="st17" d="M-202.7,315.1c-1.6,0.2-3.8,0.6-5,1c-1.5,0-3.4-1.4-4-1.3c-0.1,0.1,0.4,0.6,0.7,0.8c0.6,0.4,0.9,0.3,0.8,1.2
	c0,0.1,0.5,0.2,0.5,0.2l0.1-0.6l0.9,0.1v0.4h0.5c0-0.4,0.6-1.1,0.7-0.1l0.6-0.1l0.1-0.6h0.5v0.5l0.5-0.1l0.1-0.5h0.6l0.1,0.3h0.4
	l0.2-0.5h0.5l0.1,0.5l0.5-0.1v-0.5l0.6-0.2L-202.7,315.1z"/>
<path class="st17" d="M-195.6,316.1c-1.6,0.1-2.9,3.1-3.3,4.2c-1.4,0.1-5.5-0.3-6.5-0.5c-1-0.2,1-2,1.9-2.3c0.3-0.2,1.9-1.3,0.8-1.6
	c-1.4,0-3.2,2.5-3.9,3.3c-0.8,0.6-3.2-0.4-3.2-0.4c-0.1-0.1-0.6,0.6-0.2,0.9c1,0.8,4.5,0.8,5.3,1.1c-0.4,0.5-1.7,3.3-1.9,4.1
	l0.7-0.1c0.3-2,1.3-3.3,1.9-4c1.3,0.1,11.5,0,11.9-0.4C-193,317.1-194.2,316.4-195.6,316.1z M-197.8,320.2c-0.1-0.5,1.3-3.2,2.4-3.3
	c1.1-0.1,2.3,2.5,2.3,3.1C-193.5,320.2-197.2,320.2-197.8,320.2z"/>
<path class="st18" d="M-200.7,317.4l-1.5-1.3l-1.9,1.7c0,0,0.9,0.3,1,0.8C-202.7,318.5-200.7,317.4-200.7,317.4z"/>
<path class="st18" d="M-204.6,319.7l1.3-0.7c0.7,2-1.1,4.9-1.2,5.5c-0.3-0.3-0.7-0.6-0.7-0.6C-205,323.3-204.4,320.8-204.6,319.7z"
	/>
<polygon class="st6" points="-204.5,317.9 -203,318.5 -204.5,319.4 -204.7,318.9 -204,318.8 -204,318.6 -204.7,318.5 -204.8,318.3 
	"/>
<polygon class="st6" points="-204.5,325 -205.3,324.1 -205.9,324.1 -205.9,324.9 "/>
<polygon class="st6" points="-206.4,324.3 -206.6,324.9 -207.3,324.6 -207.1,324.2 "/>
<polygon class="st15" points="-198.4,305.5 -198.2,306 -197.7,306.3 -197.9,306.6 -197.8,307.1 -198.4,307.2 -199,306.7 
	-199.5,305.8 -199.3,305.5 -198.9,305.7 "/>
<path class="st19" d="M-212.3,325.6c0.5-0.3,0.9,0.4,0.7,1c-0.3,0.3-0.8-0.4-1-0.6C-212.4,325.7-212.3,325.6-212.3,325.6z"/>
<path d="M-214.1,314.9c0.6-0.4,2-0.1,2.2,0.1c0.1-0.1-0.1-0.5-0.1-0.5c-0.6-0.3-1.7-0.5-2-0.2C-214,314.5-214.1,314.9-214.1,314.9z"
	/>
<path class="st20" d="M-203.3,323.5c0.6-0.7,0.8-2,0.7-2.4"/>
<path class="st20" d="M-202.4,323.3c0.2-0.4,0.6-1.3,0.4-2.3"/>
<path class="st20" d="M-197.1,322.5c-0.9,0.1-2.2,0.2-2.7,0.4"/>
<path class="st20" d="M-209.7,320.3c0,1.1,1.1,2.3,1.7,2.7c0-0.5-0.3-1.3-0.3-1.3"/>
<line class="st20" x1="-197.6" y1="321.5" x2="-196.5" y2="323.1"/>
<path class="st6" d="M-200.3,308c-0.2,0.6-0.9,1.3-1.7,1.1c-0.2-0.1-0.1-0.4,0.1-0.4c0.5,0,1.1-0.4,1.3-0.8
	C-200.5,307.9-200.3,308-200.3,308z"/>
<g>
	<polygon class="st15" points="-204.6,310.5 -204.2,301.9 -203.7,301.1 -203.5,301.9 -203.8,310.7 -204.2,310.8 	"/>
	<polygon class="st15" points="-202.8,312.3 -203.3,311.7 -203.6,311.5 -203.5,311 -203.7,310.8 -204.2,311 -203.8,311.3 
		-204.2,311.3 -204.5,311.6 -204.3,311.1 -204.6,310.8 -204.6,311.4 -204.3,311.8 -203.9,311.9 -203.2,312.9 	"/>
	<polygon class="st6" points="-202.3,312.7 -202.6,312.5 -203,313 -202.7,313.3 	"/>
	<path class="st15" d="M-201.4,310.5l0.5,0.2c-0.3,0.4-0.5,1-0.4,1.7c0.1,0.1-0.7,0.5-0.7,0.5C-202.1,311.9-201.8,310.9-201.4,310.5
		z"/>
	<path class="st15" d="M-201.1,312.3c-0.1-0.8,0.3-2.3,2.1-2.5c0.8-0.1,0.8,0.8,0.7,1.2c-0.6,0-1.1,0.3-1.3,0.9
		C-200.3,312.1-201.1,312.3-201.1,312.3z"/>
	<path class="st15" d="M-198.5,313.8c0.6-0.3,0.2-1.7,0.2-2.3c-0.4-0.2-1.3,0.3-1.2,0.9C-199.1,312.7-198.4,313.6-198.5,313.8z"/>
	<path class="st6" d="M-198.1,314.1c0.3-0.1,0.4-0.5-0.1-0.2C-198.5,314.1-198.2,314.1-198.1,314.1z"/>
	<path class="st6" d="M-198,315c0.8,0,0.8-0.9-0.2-0.6C-198.3,314.7-198.2,315-198,315z"/>
	<path class="st15" d="M-201.3,310.2l0.4,0.2c0.3-0.3,1.1-0.7,1.5-0.8c0-0.1,0.1-3.5-0.4-3.7c-0.5-0.1-1.3-0.2-1.6-0.1
		c0.3,0.3,1.2,0.7,1.3,1.7c-0.1,0.8-0.5,1.4-1.1,1.6C-201.2,309.6-201.3,310.2-201.3,310.2z"/>
	<path class="st15" d="M-202,307.2l-0.3,0.7l0.4,0.5l0.1,0.2c0.5-0.1,0.9-0.3,1.1-0.7c-0.2-0.3-0.6-0.5-0.6-0.5l-0.1,0.3l-0.2-0.1
		l-0.1-0.4H-202z"/>
	<polygon class="st21" points="-200.2,305.5 -200.4,305.1 -200,304.6 -199.6,304.5 -198.4,304 -198.4,304.5 -197.3,304.5 
		-196.6,305.8 -197,305.9 -196.8,306.5 -197,307.8 -197.5,307.5 -198,308 -198.8,307.7 -199.3,306.8 -199.6,305.8 	"/>
	<path class="st22" d="M-203.3,314.3c0.6-0.8,2.5-2.2,3.4-2.2c0.6,0.3,2.4,3.7,1.4,6.1C-199.9,318.3-202.5,316.4-203.3,314.3z"/>
	<path class="st6" d="M-201.7,305.6l-1,0.9c-0.1,0.3,0.2,0.3,0.4,0.3s1.7,0.3,1.9,0.7C-200.1,307.7-200,306.6-201.7,305.6z"/>
	<rect x="-205.5" y="310.1" class="st17" width="2.7" height="0.5"/>
</g>
<path d="M-213.6,312.3l0.3,0.2l0.5-0.3h0.2v0.6c0,0,0,0.3-0.3,0.3c-0.3,0-0.4-0.5-0.7-0.4C-214,312.7-213.6,312.3-213.6,312.3z"/>
<ellipse class="st23" cx="-212.9" cy="312.6" rx="0.3" ry="0.1"/>
<path d="M-213,310.7c0.5,0-0.2-0.7-0.5-0.8C-213.6,310.3-213.4,310.7-213,310.7z"/>
<path class="st20" d="M-206,315.7c-0.6-1.6-2.4-5.5-4.5-5.5"/>
<line class="st20" x1="-211.2" y1="310.1" x2="-211.9" y2="310.2"/>
<line class="st24" x1="-204.2" y1="310" x2="-203.9" y2="302.2"/>
<path class="st25" d="M-186,333.1c0,0.7-0.6,1.3-1.2,1.3h-27c-0.7,0-1.2-0.6-1.2-1.3v-2.8c0-0.7,0.6-1.3,1.2-1.3h27
	c0.7,0,1.2,0.6,1.2,1.3V333.1z"/>
<polygon points="-209.4,332.6 -210.2,331.7 -210.2,330.8 -209.3,329.8 -208.4,329.8 -208.1,330.1 -207.7,329.7 -206.7,329.7 
	-205.8,330.8 -205.8,331.7 -206.6,332.6 -207.1,332.6 -206.3,331.5 -206.3,330.8 -206.9,330.1 -207.5,330.1 -207.8,330.4 
	-207.8,332.3 -207.6,332.6 -208.5,332.6 -208.3,332.3 -208.3,330.5 -208.6,330.1 -209.2,330.1 -209.8,330.8 -209.8,331.5 
	-208.8,332.6 "/>
<path d="M-203.5,332.6h0.9l-0.4-0.3v-1.5l-0.3-0.2l-0.4-0.5l-1,0.1v0.5l-0.5,0.4v1.4l-0.2,0.3h0.9l-0.1-0.4l1.3-1.3v1.1
	L-203.5,332.6z M-204.7,332c-0.2-1.3,0.7-1.5,1.1-1L-204.7,332z"/>
<polygon points="-200.5,330.8 -200.5,330.3 -201.9,330.2 -202.5,330.8 -202.5,332 -201.8,332.7 -200.8,332.7 -200.8,333.2 
	-201.4,333.6 -200.8,333.6 -200.2,333.2 -200.2,331.7 -200.9,332.2 -201.7,332.3 -202,331.8 -202,330.9 -201.8,330.5 -200.8,330.5 
	"/>
<polygon points="-199.9,330.2 -199,330.2 -199.5,330.7 -199.5,332.1 -199.3,332.3 -198.4,332.2 -198.2,332.1 -198.3,330.4 
	-197.8,330.3 -197.8,332.1 -197.2,332.7 -197.8,332.7 -198.1,332.4 -198.3,332.8 -199.4,332.7 -200,332.2 -200.1,330.9 
	-199.6,330.4 "/>
<polygon points="-197,330.2 -196.2,330.3 -196.2,332.7 -196.5,332.7 -196.7,330.6 "/>
<path d="M-193.2,332.6l-0.9-1c0.8-0.4,1.1-1.1,0.4-1.4c-0.8-0.2-1.3,0.2-1.7,0.1l0.3,0.4v1.6l-0.3,0.3l0.8,0.1v-0.9l0.6,0.4v0.5h0.8
	V332.6z M-194.4,331.3c-0.5,0.1-0.3-0.5-0.2-0.7C-194.3,330.2-193.5,330.9-194.4,331.3z"/>
<polygon points="-190.8,330.6 -190.8,330.1 -192.1,330.1 -193,331 -193,332 -192.3,332.7 -191.1,332.7 -190.7,332.3 -191,332.2 
	-191.1,332.4 -192.2,332.3 -192.5,331.7 -192.5,331.5 -191.4,331.5 -191.1,331.7 -191.1,330.9 -191.3,331.1 -192.4,331.1 
	-191.9,330.5 -191.1,330.4 "/>
<path d="M-234.1,322.1l1-2.5c-2.1-1.6-5.1-2.8-7.1-0.9c-2,2.1-1.6,5.8-2.6,7c-2.1,2.9-4.6,4.1-4.4,5.8c-4.7,7.2,8.1,19.7,17.5,13.2
	c2.8,1.9,19.1,6.7,28.4,6.1c10-0.2,25.9-2.6,37.9-9.6c1.3,2.5,10.1,3.7,13.1-3.1c1.3-3.7,0.4-6.9-5.1-12.1c-1.9-3.5-1.2-5.8-2.8-7.3
	c-2.3-2.4-5.5-3.5-6.7-1.4c-1.6,1.9-1.9,3.1-0.4,3.4c1.5,0.1,1.3-0.1,1.9-1.2c0.7-1,2.4,0,1.9,1.6c-1.5,2.1-12.7,17.1-38.8,16.8
	c-25.3-1.6-32.3-12.7-36.1-15.3C-236.8,321.1-235.6,320.9-234.1,322.1z"/>
<path class="st0" d="M-234.9,320.2l0.7-0.9c-2.6-1-4.6-2-5.5,0.4c-1.2,2.5-1.5,5-2,6.4c-1,1.4-3.6,3.8-3.6,4.7
	c0.3,2,12.9,11.9,21.7,14c8.7,2.7,18.6,5.2,27.5,4.2c9.7-1,31-4.7,42.6-17.6c0-0.2-1-3.2-1-3.2c-2.5-0.8-3.9-4.5-3.7-7.1
	c-0.1-2.5-3.5-4.4-5.1-4.1c-1.9,0.5-1.9,1.6-2.3,2.3c0,0.1,1.2,0.2,1.2,0.2c0.4-1.1,3.7-2.1,4,1.3c-0.4,3.1-12.9,18-40.4,18.3
	c-25.8-2.7-35.2-13.2-36.4-14.7C-239.1,322.5-239.7,318.1-234.9,320.2z"/>
<path class="st0" d="M-246.2,333.4l1.7,1c-1,0.7-1.3,1.2-0.3,2.8c0.1-0.1,0.2-1.5,0.2-1.5l0.8,0.7l0.5,0.5l0.4-1.3l6.1,4.4l-4.9-1.4
	l2,2.4l-4-1.9c1.9,2.5,9.5,6.8,10.5,3.6c0.1,0.1,2,1.3,2,1.3c-1.5,1.3-6.4,2.2-12.4-2.6C-247.9,337.9-246.4,334.7-246.2,333.4z"/>
<path class="st0" d="M-152.7,330.5l1.4,2.4c0.3,1.5,0,4.9-1.3,6.1c-1.4,1.4-4.6,4.1-8.3,2.8c-2.2-1-1.7-1.7-1.7-1.7l1.9-0.8
	c0.8,1.8,3,1.4,4.7-0.1c0,0.3-2.7,0.8-2.7,0.8l-0.2-0.6l3.5-1.5l-2.8,0.5l-0.7-0.2l1.9-1.3v-0.7l1-0.5l2.4,2.7l0.7-1.3l-1.5-2.6
	l0.6-0.7l1,1.9l0.5-1.3l-0.2-1.7l0.2-0.7L-152.7,330.5z"/>
<polygon points="-231.9,338.2 -230.1,334.4 -226,336.3 -226.3,336.8 -229.6,335.5 -229.9,336.3 -228.4,337.1 -228.7,337.9 
	-230.3,337.2 -231.1,338.7 "/>
<polygon points="-225.3,336.7 -221.1,338.5 -221.4,339.1 -224.6,337.9 -224.9,338.7 -223.1,339.5 -223.4,340.2 -225.2,339.4 
	-225.6,340.4 -222.4,341.7 -222.7,342.5 -226.9,340.8 "/>
<path d="M-217.1,339.7l-1.1-0.2l-3.4,3.4l0.9,0.4l0.8-0.8l2.6,0.7l0.2,1.2l1,0.2L-217.1,339.7z M-219.1,341.9l1.2-1.2l0.4,1.7
	L-219.1,341.9z"/>
<path d="M-209.5,343.1c0.1-0.7,0.3-1.4-0.6-1.6l-3.8-0.7l-0.8,4.2l1.1,0.2l0.3-1.6l1,0.3l1.3,1.9l1.4,0.2l0,0
	c-0.2-0.3-1.3-1.9-1.3-1.9C-209.6,344.4-209.6,343.8-209.5,343.1z M-210.7,343.3l-2.5-0.5l0.2-1.1v-0.1l2.3,0.4
	C-210.2,342.4-210.4,343.3-210.7,343.3z"/>
<polygon points="-204.8,346.8 -204.7,342.5 -203.8,342.4 -201.8,345.2 -199.8,342.5 -198.9,342.5 -199,347.1 -199.9,347 
	-199.7,343.7 -201.8,346.4 -203.9,343.4 -203.9,346.8 "/>
<path d="M-194.5,342.4h-1.1l-2.1,4.6h1l0.5-1l2.6-0.1l0.6,1l1.2-0.1L-194.5,342.4z M-195.9,345.1l0.9-1.7l1,1.6L-195.9,345.1z"/>
<polygon points="-190.4,346.4 -191.1,342 -190.4,341.9 -186.5,344.4 -187,341.5 -186.1,341.3 -185.4,345.6 -186,345.8 -190,343.3 
	-189.6,346.3 "/>
<path d="M-182,340.3l-1,0.3l-1,4.8l1.1-0.2l0.2-1l2.6-0.7l0.7,0.7l1.1-0.3L-182,340.3z M-182.5,343l0.3-1.5l1.2,1L-182.5,343z"/>
<path d="M-173.9,338.9c0,0-0.3-1.2-0.9-1.1c-0.1,0-3.3,1.2-3.3,1.2c-0.5,0.2-0.5,0.6-0.3,1.2l1.2,2.7c0.1,0.3,0.6,0.3,0.9,0.1
	l2.8-1.2c0.5-0.2,0.6-0.5,0.1-1.8c0,0.1-1,0.2-1,0.2s0.5,0.8,0.2,1c0,0.1-2.4,0.9-2.4,0.9l-1-2.5l2.5-1l0.3,0.7L-173.9,338.9z"/>
<polygon points="-170.9,340.6 -173,336.8 -172.1,336.3 -171.2,337.8 -168.5,336.2 -169.2,334.8 -168.3,334.3 -166.3,338.2 
	-167.1,338.7 -168.1,337.1 -170.7,338.6 -170,340.2 "/>
</svg>
