<?xml version="1.0" encoding="utf-8"?>
<!-- Generator: Adobe Illustrator 19.0.1, SVG Export Plug-In . SVG Version: 6.00 Build 0)  -->
<svg version="1.1" id="Layer_1" xmlns="http://www.w3.org/2000/svg" xmlns:xlink="http://www.w3.org/1999/xlink" x="0px" y="0px"
	 viewBox="0 0 100 100" style="enable-background:new 0 0 100 100;" xml:space="preserve">
<style type="text/css">
	.st0{fill:#F7BC17;stroke:#FFFFFF;stroke-width:4.9534;}
	.st1{fill:#F7BC17;stroke:#FFFFFF;stroke-width:4.9534;stroke-miterlimit:6;}
	.st2{fill:#006944;stroke:#FFFFFF;stroke-width:4.9534;stroke-miterlimit:6;}
	.st3{fill:none;stroke:#FFFFFF;stroke-width:4.9534;stroke-miterlimit:6;}
	.st4{fill:#F7BC17;stroke:#FFFFFF;stroke-width:4.9534;stroke-linecap:round;stroke-linejoin:round;stroke-miterlimit:6;}
	.st5{fill:#F7BC17;stroke:#F7BC17;stroke-width:1.6121;stroke-linecap:round;}
	.st6{fill:#006944;}
	.st7{fill:#FBBC1C;}
	.st8{fill:#FFFFFF;}
	.st9{fill:#3DA435;}
	.st10{fill:none;stroke:#1D1D1B;stroke-width:0.4243;}
	.st11{fill:#009FDD;}
	.st12{fill:#1D1D1B;}
	.st13{fill:#006944;stroke:#006944;stroke-width:0.3758;}
	.st14{fill:none;stroke:#FBBC1C;stroke-width:2.2548;}
	.st15{fill:none;}
	.st16{fill:none;stroke:#FBBC1C;stroke-width:1.1234;}
	.st17{fill:none;stroke:#FFFFFF;stroke-width:1.2203;}
	.st18{fill:#3DA435;stroke:#1D1D1B;stroke-width:0.5695;stroke-linecap:round;stroke-linejoin:round;}
	.st19{fill:#FFFFFF;stroke:#1D1D1B;stroke-width:0.5695;}
	.st20{fill:#1D1D1B;stroke:#1D1D1B;stroke-width:0.2034;stroke-linecap:round;stroke-linejoin:round;}
	.st21{fill:none;stroke:#FBBC1C;stroke-width:2.2468;}
	.st22{fill:#FCC200;stroke:#FBBC1C;stroke-width:1.6121;stroke-linecap:round;}
	.st23{fill:#FFFFFF;stroke:#1D1D1B;stroke-width:0.4007;stroke-linecap:round;stroke-linejoin:round;}
	.st24{fill:none;stroke:#1D1D1B;stroke-width:0.2594;stroke-linecap:round;stroke-linejoin:round;}
	.st25{fill:none;stroke:#1D1D1B;stroke-width:0.2358;stroke-linecap:round;stroke-linejoin:round;}
	.st26{fill:#FBBC1C;stroke:#1D1D1B;stroke-width:0.3294;}
	.st27{fill:#1D1D1B;stroke:#1D1D1B;stroke-width:0.7359;}
	.st28{fill:#FBBC1C;stroke:#1D1D1B;stroke-width:0.2952;}
	.st29{fill:#006944;stroke:#1D1D1B;stroke-width:0.4906;}
	.st30{fill:#FBBC1C;stroke:#1D1D1B;stroke-width:0.2415;stroke-linecap:round;stroke-linejoin:round;}
	.st31{fill:none;stroke:#1D1D1B;stroke-width:0.2415;stroke-linecap:round;stroke-linejoin:round;}
	.st32{fill:#FBBC1C;stroke:#1D1D1B;stroke-width:0.4906;}
	.st33{fill:#FFFFFF;stroke:#1D1D1B;stroke-width:0.2415;stroke-linecap:round;stroke-linejoin:round;}
	.st34{fill:none;stroke:#1D1D1B;stroke-width:0.2639;stroke-linecap:round;stroke-linejoin:round;}
	.st35{fill:#FBBC1C;stroke:#1D1D1B;stroke-width:0.2404;}
	.st36{fill:#FBBC1C;stroke:#1D1D1B;stroke-width:0.2944;}
	.st37{fill:#FBBC1C;stroke:#1D1D1B;stroke-width:6.705889e-02;}
	.st38{fill:#FFFFFF;stroke:#1D1D1B;stroke-width:0.2415;stroke-linecap:round;}
	.st39{fill:none;stroke:#1D1D1B;stroke-width:0.2415;stroke-linecap:round;}
	.st40{fill:#FFFFFF;stroke:#1D1D1B;stroke-width:0.2415;}
	.st41{fill:#006944;stroke:#1D1D1B;stroke-width:7.142755e-02;}
	.st42{fill:none;stroke:#1D1D1B;stroke-width:0.2388;stroke-linecap:round;stroke-linejoin:round;}
	.st43{fill:none;stroke:#1D1D1B;stroke-width:0.238;stroke-linecap:round;stroke-linejoin:round;}
	.st44{fill:none;stroke:#FBBC1C;stroke-width:0.534;}
	.st45{fill:#1D1D1B;stroke:#1D1D1B;stroke-width:0.1197;}
	.st46{fill:none;stroke:#1D1D1B;stroke-width:0.3925;}
	.st47{fill:#FBBC1C;stroke:#1D1D1B;stroke-width:0.2453;stroke-linecap:round;stroke-linejoin:round;}
	.st48{fill:#FBBC1C;stroke:#1D1D1B;stroke-width:0.4415;stroke-linecap:round;stroke-linejoin:round;}
	.st49{fill:none;stroke:#1D1D1B;stroke-width:0.4906;stroke-linecap:round;stroke-linejoin:round;}
	.st50{fill:#FFFFFF;stroke:#1D1D1B;stroke-width:0.3152;stroke-linecap:round;stroke-linejoin:round;}
	.st51{fill:none;stroke:#1D1D1B;stroke-width:0.3152;stroke-linecap:round;stroke-linejoin:round;}
	.st52{fill:#FBBC1C;stroke:#1D1D1B;stroke-width:0.2994;}
	.st53{fill:#FCC200;}
	.st54{fill:#2D8D2D;}
	.st55{fill:#0069B3;}
	.st56{fill:#1D1D1B;stroke:#1D1D1B;stroke-width:2.341601e-02;stroke-linecap:round;stroke-linejoin:round;}
	.st57{fill:#FFFFFF;stroke:#1D1D1B;stroke-width:2.341601e-02;stroke-linecap:round;stroke-linejoin:round;}
	.st58{fill:#FFFFFF;stroke:#FFFFFF;stroke-width:2.341601e-02;stroke-linecap:round;stroke-linejoin:round;}
	.st59{fill:#1D1D1B;stroke:#1D1D1B;stroke-width:2.673618e-02;stroke-linecap:round;stroke-linejoin:round;}
</style>
<g>
	<g>
		<g>
			<path class="st0" d="M73.4,68.8c0.1,0.1,12.2,8.1,19.6,4.4c0.4-0.8,0.5-1.3,0.5-1.3c-1.2,0.6-3.8,1.4-8.6,0.6
				c-4.8-0.9-11.4-5.3-11.4-5.3l-0.9,1.3C73.1,68.7,73.4,68.8,73.4,68.8z"/>
			<path class="st1" d="M87.6,79.2c2.4-1.3,4-3.4,4.9-5c-7.7,3-18.9-4.5-19.4-4.8L72.2,69l-6.5,9.3c0.4,0.1,0.9,0.3,1.3,0.4l2.2-2.5
				c4.7,2,6.2,4,6.7,5.2c9.5,4.7,14.7,2.9,16.4,2C89.6,81.8,87.6,79.2,87.6,79.2z"/>
			<path class="st1" d="M30.8,76.2l1.4,1.6l1.3-0.6l-5.9-8.4c-0.4,0.3-0.7,0.5-0.7,0.5c-0.5,0.3-11.8,7.8-19.4,4.8
				c0.9,1.6,2.5,3.8,4.9,5c0,0-2,2.7-4.7,4.3c1.7,0.9,7,2.7,16.4-2C24.6,80.3,26.1,78.2,30.8,76.2z"/>
			<path class="st2" d="M26.6,68.8l0.7-0.6l-0.8-1.1c0,0-6.6,4.4-11.4,5.3s-7.4,0-8.6-0.6c0,0,0.2,0.5,0.5,1.3"/>
			<path class="st3" d="M50,2.4c-22.5,0-33.2,7.1-33.2,7.1S13,26,13,42.1c0,17.2,11.2,38.1,37,50.6c25.9-12.5,37-33.5,37-50.6
				C87,26,83.2,9.6,83.2,9.6S72.5,2.4,50,2.4z"/>
			<path class="st1" d="M93,83.8c-1.4,0.9-6.7,3.4-16.9-1.5l0,0l0,0l0,0c0,0,0,0,0,0.1c-0.1,0.6-1.3,4.4-8.8,2.1
				c-8-2.5-15.4-3-17.3-3c-1.9,0-9.2,0.5-17.3,3c-7.5,2.3-8.7-1.5-8.8-2.1c0,0,0,0,0-0.1l0,0l0,0l0,0C13.7,87.2,8.4,84.7,7,83.8
				c-0.4,0.2-0.8,0.4-1.2,0.5c0,0,5.6,5.1,17.8-0.5c0.1,0.1,0.1,0.3,0.1,0.3c0.1,0.1,1.6,3.1,7.8,1.8l4.3-1
				c5.1-1.2,9.9-2.3,14.1-2.3s9,1.1,14.1,2.3l4.3,1c6.2,1.4,7.7-1.6,7.8-1.8c0,0,0.1-0.2,0.2-0.3c12.2,5.6,17.8,0.5,17.8,0.5
				C93.8,84.2,93.4,84,93,83.8z"/>
			<path class="st4" d="M62.6,96.2C59.3,95.1,53.8,94,50,94s-9.3,1.1-12.6,2.2c-1.6,0.5-3.2,0.5-4.5,0.2l0.1,0.1
				c0,0,1.2,1.8,5.2,0.7c4-1.2,8.5-1.8,11.8-1.8s7.8,0.7,11.8,1.8c4,1.2,5.2-0.7,5.2-0.7l0.1-0.1C65.8,96.7,64.2,96.7,62.6,96.2z"/>
			<path class="st1" d="M68.3,86.6l-4.3-1c-5-1.2-9.8-2.3-14-2.3c-4.1,0-8.9,1.1-14,2.3l-4.3,1c-4.5,1-6.7-0.2-7.8-1.2
				c0.6,1.8,2.3,5.2,7.8,10c1.3,0.4,3.3,0.8,5.4,0.1c3.4-1.1,8.9-2.2,12.8-2.2s9.4,1.1,12.8,2.2c2.1,0.7,4.2,0.3,5.4-0.1
				c5.5-4.8,7.2-8.2,7.8-10C75,86.4,72.7,87.6,68.3,86.6z"/>
		</g>
		<path class="st5" d="M73.4,68.8c0.1,0.1,12.2,8.1,19.6,4.4c0.4-0.8,0.5-1.3,0.5-1.3c-1.2,0.6-3.8,1.4-8.6,0.6
			c-4.8-0.9-11.4-5.3-11.4-5.3l-0.9,1.3C73.1,68.7,73.4,68.8,73.4,68.8z"/>
		<path class="st5" d="M87.6,79.2c2.4-1.3,4-3.4,4.9-5c-7.7,3-18.9-4.5-19.4-4.8L72.2,69l-6.5,9.3c0.4,0.1,0.9,0.3,1.3,0.4l2.2-2.5
			c4.7,2,6.2,4,6.7,5.2c9.5,4.7,14.7,2.9,16.4,2C89.6,81.8,87.6,79.2,87.6,79.2z"/>
		<path class="st5" d="M63.5,82.6c0,0,9.9,3.7,11.3,0.4c1.4-3.4-6.6-6.2-6.6-6.2L63.5,82.6z"/>
		<path class="st5" d="M26.6,68.8l0.7-0.6l-0.8-1.1c0,0-6.6,4.4-11.4,5.3s-7.4,0-8.6-0.6c0,0,0.2,0.5,0.5,1.3
			C14.4,76.9,26.5,68.9,26.6,68.8z"/>
		<path class="st5" d="M30.8,76.2l1.4,1.6l1.3-0.6l-5.9-8.4c-0.4,0.3-0.7,0.5-0.7,0.5c-0.5,0.3-11.8,7.8-19.4,4.8
			c0.9,1.6,2.5,3.8,4.9,5c0,0-2,2.7-4.7,4.3c1.7,0.9,7,2.7,16.4-2C24.6,80.3,26.1,78.2,30.8,76.2z"/>
		<path class="st5" d="M36.5,82.6c0,0-9.9,3.7-11.3,0.4c-1.4-3.4,6.6-6.2,6.6-6.2L36.5,82.6z"/>
		<path class="st6" d="M73.4,68.8c0.1,0.1,12.2,8.1,19.6,4.4c0.4-0.8,0.5-1.3,0.5-1.3c-1.2,0.6-3.8,1.4-8.6,0.6
			c-4.8-0.9-11.4-5.3-11.4-5.3l-0.9,1.3C73.1,68.7,73.4,68.8,73.4,68.8z"/>
		<path class="st7" d="M88.7,79.4c2.4-1.3,4-3.4,4.9-5c-7.7,3-18.9-4.5-19.4-4.8l-0.9-0.4l-6.5,9.3c0.4,0.1,0.9,0.3,1.3,0.4l2.2-2.5
			c4.7,2,6.2,4,6.7,5.2c9.5,4.7,14.7,2.9,16.4,2C90.7,82.1,88.7,79.4,88.7,79.4z"/>
		<path class="st8" d="M63.5,82.6c0,0,9.9,3.7,11.3,0.4c1.4-3.4-6.6-6.2-6.6-6.2L63.5,82.6z"/>
		<path class="st6" d="M26.6,68.8l0.7-0.6l-0.8-1.1c0,0-6.6,4.4-11.4,5.3s-7.4,0-8.6-0.6c0,0,0.2,0.5,0.5,1.3
			C14.4,76.9,26.5,68.9,26.6,68.8z"/>
		<path class="st7" d="M30.8,76.2l1.4,1.6l1.3-0.6l-5.9-8.4c-0.4,0.3-0.7,0.5-0.7,0.5c-0.5,0.3-11.8,7.8-19.4,4.8
			c0.9,1.6,2.5,3.8,4.9,5c0,0-2,2.7-4.7,4.3c1.7,0.9,7,2.7,16.4-2C24.6,80.3,26.1,78.2,30.8,76.2z"/>
		<path class="st8" d="M36.5,82.6c0,0-9.9,3.7-11.3,0.4c-1.4-3.4,6.6-6.2,6.6-6.2L36.5,82.6z"/>
		<path class="st6" d="M50,2.4c-22.5,0-33.2,7.1-33.2,7.1S13,26,13,42.1c0,17.2,11.2,38.1,37,50.6c25.9-12.5,37-33.5,37-50.6
			C87,26,83.2,9.6,83.2,9.6S72.5,2.4,50,2.4z"/>
		<path class="st8" d="M75.9,6.7c0,0,4,16.9,4,33.2S75,76.4,50,90.9c-25-14.5-29.9-34.7-29.9-51s4-33.2,4-33.2S46.4-0.4,75.9,6.7z"
			/>
		<path class="st9" d="M79.8,49.8c-2.5-1.2-10.7,2.7-11.7,4.9c-1.5,3.3-1.8,8.2-1.9,9.6c-0.1,1.8-2.9,4.2-3.9,5.6
			c-1.5,2.2-1.5,2.1-2.3,2.8c-7.7,6.4-1.9,8.1-2.4,10.7c-0.1,0.5,3.5-1.8,3.5-1.3c5.2-2.4,9-8.5,11.8-13.3c3-5.2,5.8-11.5,6.1-17.5"
			/>
		<path class="st9" d="M56.4,52.4c1.2-0.1,1.6-0.6,2.6-0.8c0.7-0.1,1.3,0,2.1-0.1c1.7-0.3,2.8-0.6,4.8-0.9
			c5.2-0.6,17.8-3.1,11.2-0.9c-1.7,0.8-4.2,1.5-6.1,1.9c-1.6,0.3-4.7,0.3-6.1,0.9c-3.1,1.2-4.7,3.5-8.8,3.6c-0.2-0.9-1.5-4.1,1.1-4"
			/>
		<path class="st10" d="M56.4,52.4c1.2-0.1,1.6-0.6,2.6-0.8c0.7-0.1,1.3,0,2.1-0.1c1.7-0.3,2.7-0.8,4.8-0.9
			c3.3-0.2,9.6-2.5,12.8-1.3c-1.7,0.8-6.7,2.1-8.6,2.5c-1.6,0.3-3.8,0.2-5.3,0.8c-3.1,1.2-4.7,3.5-8.8,3.6c-0.2-0.9-1.5-4.1,1.1-4"
			/>
		<path class="st9" d="M32.8,57.7c1.6-1.8,4.4-2.2,7.3-2.8c4.3-0.8,2.4,1,3.4,2.7c-1.8,0.3-3.7-0.4-5.3-0.5
			C35.9,56.9,35,57.4,32.8,57.7"/>
		<path class="st10" d="M32.8,57.7c1.6-1.8,4.4-2.2,7.3-2.8c4.3-0.8,2.4,1,3.4,2.7c-1.8,0.3-3.7-0.4-5.3-0.5
			C35.9,56.9,35,57.4,32.8,57.7"/>
		<path class="st9" d="M23.1,59.8c1.9-0.3,0.7-1.7,2.7-2c0.4-0.1,0.8,0.3,1.1,0.3c0.5,0,1.2-0.2,1.5-0.2c1,0,1.7,0,2.8,0
			c2.1,0,3.4-1.1,5.6-1.1c2-0.1,3.8,0.6,5.8,0.8c0.6,0.8,0.8,1.7,0.5,2.6c-3.4,0.2-3.9,0.2-7.6,1.2c-1.2,0.3-3.8,0.2-4.9,0.7
			c-1.3,0.6-1.8,1.4-2.9,2.1c-2.5,1.5-2.5,0.3-3.4-0.9c-0.7-1-1.5-3.2-1.8-4.3"/>
		<path class="st10" d="M23.6,59.5c1.9-0.3,0.2-1.4,2.2-1.7c0.4-0.1,0.8,0.3,1.1,0.3c0.5,0,1.2-0.2,1.5-0.2c1,0,1.7,0,2.8,0
			c2.1,0,3.4-1.1,5.6-1.1c2-0.1,3.8,0.6,5.8,0.8c0.6,0.8,0.8,1.7,0.5,2.6c-3.4,0.2-4.4,0.2-8.1,1.2c-1.2,0.3-3.4,0.2-4.4,0.7
			c-1.3,0.6-1.8,1.4-2.9,2.1c-2.5,1.5-2.5,0.3-3.4-0.9c-0.7-1-1.5-3.2-1.8-4.3"/>
		<path class="st11" d="M24.7,65.4c1.9,1.5,4.2,7.9,9.5,12.5c0,0,13.2-4,18.9-4.6l-22.2-9.6L24.7,65.4z"/>
		<polygon class="st12" points="45.6,59.1 45.6,58.9 45.1,59 44.6,59 44.1,59.1 43.6,59.3 43.2,59.4 42.7,59.6 42.1,59.7 41.6,59.8 
			41.1,59.9 40.6,60 40.1,60 39.6,60.1 39.3,59.6 39.2,59.6 39.1,59.6 38.5,59.5 37.9,59.8 37.7,59.8 37.6,59.9 37.5,59.9 
			37.4,59.9 37.3,59.9 37.1,59.8 37,59.9 36.9,59.9 36.8,59.9 36.7,59.8 36.5,59.8 36.3,59.7 36.1,59.7 36,59.7 35.9,59.8 
			35.8,59.8 35.7,59.8 35.5,59.8 35.4,59.8 35.3,59.8 35.2,59.8 35.2,59.9 35.1,59.9 32.6,60.3 32.5,60.4 32.5,60.5 32.4,60.5 
			32.3,60.5 32,60.5 31.9,60.6 31.7,60.7 31.5,60.7 31.3,60.8 31.1,60.8 31,60.9 30.7,60.9 30.6,61 30.4,61.1 30.2,61.2 30,61.2 
			30,61.3 29.9,61.3 29.5,61.4 29.1,61.7 28.7,61.9 28.3,62.1 28,62.4 27.7,62.7 27.3,62.9 27,63.2 26.6,63.6 26.4,63.8 26.1,64.1 
			25.8,64.5 25.8,64.5 25.7,64.7 25.6,64.7 25.6,64.8 25.5,64.8 25.4,64.8 25.4,64.9 25.3,64.9 25.2,64.9 25.2,65 25,65 25,65.1 
			25.3,65.5 25.3,65.6 25.5,65.6 25.5,65.7 25.5,65.8 25.6,65.8 25.7,65.8 25.8,65.8 26,65.7 26.3,65.4 26.7,65 27.1,64.5 
			27.5,64.2 28,63.9 28.3,63.4 28.8,63.1 29.3,62.8 29.7,62.5 30.3,62.2 30.9,62 31.5,61.7 32.1,61.6 32.2,61.6 32.5,61.5 
			32.6,61.4 32.7,61.4 32.9,61.4 33,61.3 33.1,61.3 33.3,61.3 33.5,61.3 33.6,61.3 33.7,61.2 33.8,61.1 33.9,61.1 34,61.1 
			34.2,61.1 34.4,61 34.6,61 34.7,61 34.8,60.9 34.9,60.9 35,60.8 35.1,60.8 35.3,60.8 35.4,60.8 35.4,60.7 35.5,60.7 35.6,60.7 
			35.9,60.8 36,60.8 36.2,60.7 36.5,60.8 36.6,60.8 36.9,60.8 37,60.8 37.2,60.7 37.5,60.7 37.6,60.7 37.8,60.7 37.9,60.7 
			37.9,60.6 38.1,60.6 38.2,60.5 38.3,60.5 38.4,60.4 38.6,60.2 38.9,60.3 38.9,60.4 39,60.4 39.2,60.4 39.2,60.5 39.2,60.6 
			39.3,60.6 39.3,60.7 39.4,60.7 39.6,60.6 39.7,60.6 40.1,60.8 40.9,60.8 41.1,60.8 42.1,60.4 42.2,60.4 42.2,60.3 42.9,60.2 
			43,60.1 43,60.1 43.1,60 43.3,60 43.4,60 43.7,60 43.9,60 44,59.9 44.3,59.8 44.4,59.8 44.7,59.7 44.8,59.7 44.9,59.7 45.1,59.6 
			45.2,59.5 45.4,59.4 45.4,59.4 45.5,59.3 45.5,59.2 45.6,59.2 		"/>
		<polyline class="st11" points="47.1,58.9 45.6,59.6 45.6,59.5 45.6,59.4 45.7,59.4 45.7,59.3 45.7,59.4 45.6,59.4 45.5,59.5 
			45.4,59.5 45.3,59.6 45.3,59.7 45.1,59.7 45,59.7 44.9,59.7 44.8,59.7 44.7,59.7 44.6,59.8 44.4,59.8 44.2,59.9 44,60 43.8,60 
			43.6,60 43.4,60 43.2,60.1 43,60.1 42.7,60.2 42.4,60.2 42,60.2 41.7,60.3 41.4,60.4 41.1,60.4 40.9,60.4 40.8,60.4 40.7,60.4 
			40.5,60.5 40.5,60.4 40.4,60.4 40.3,60.4 40.1,60.3 39.9,60.3 39.8,60.2 39.6,60.2 39.5,60.2 39.3,60.1 39.1,60.1 39,60 38.9,60 
			38.6,59.9 38.5,60 38.3,60.1 38.1,60.1 38,60.1 37.9,60.2 37.8,60.2 37.7,60.3 37.6,60.3 37.4,60.2 37.3,60.3 37.1,60.3 
			36.9,60.3 36.7,60.3 36.5,60.3 36.2,60.4 36.1,60.4 35.8,60.4 35.7,60.4 35.5,60.4 35.3,60.3 35.2,60.3 35,60.4 34.7,60.4 
			34.6,60.4 34.3,60.3 34.1,60.3 33.9,60.5 33.6,60.5 33.4,60.6 33,60.7 32.8,60.8 32.3,61 32,61.2 31.5,61.4 30.9,61.7 30.4,61.9 
			30.1,62.2 29.6,62.3 29.1,62.6 28.8,62.8 28.5,62.9 28.3,63.1 28.1,63.2 27.8,63.4 27.6,63.6 27.4,63.8 27.1,64.1 26.8,64.2 
			26.6,64.4 26.3,64.6 26.2,64.7 26.1,64.8 26,64.9 25.9,64.9 25.6,65 25.4,65.1 25,65.2 24.7,65.3 25.3,65.4 25.2,65.5 25.1,65.7 
			25.2,65.8 25.5,66 25,66.1 25.9,66.2 26.9,66.3 27.7,66.4 28.3,66.4 29,66.5 29.5,66.5 30,66.6 30.3,66.6 30.6,66.7 30.9,66.8 
			31,67 31.2,67.2 31.3,67.4 31.4,67.5 31.4,67.6 31.4,67.8 31.5,67.9 31.5,68.1 31.5,68.2 31.5,68.3 31.5,68.5 31.5,68.6 
			31.5,68.8 31.7,69 31.8,69.3 32,69.6 32.1,69.8 32.3,70.1 32.3,70.3 32.4,70.4 32.4,70.5 32.6,70.7 32.8,70.8 32.9,70.8 
			33.3,70.9 33.7,70.8 34.2,70.7 34.7,70.5 35.1,70.5 35.4,70.4 35.6,70.3 35.8,70.1 36,70.1 36.2,70.1 36.3,70.1 36.6,70.1 
			36.8,70.2 37.2,70.2 37.7,70.4 38.2,70.5 38.6,70.6 38.8,70.8 39.2,70.8 39.5,70.9 39.6,71 39.7,71.1 39.9,71.2 40,71.4 
			40.2,71.6 40.2,71.8 40.2,72.2 40.2,72.6 40.3,72.8 40.3,73.1 40.3,73.3 40.3,73.5 40.2,73.7 40.3,73.8 40.4,73.9 40.5,74.1 
			40.6,74.2 40.9,74.3 41.1,74.4 41.5,74.4 41.9,74.5 42.3,74.6 42.5,74.6 42.9,74.6 43.1,74.6 43.5,74.6 43.8,74.5 44,74.4 
			44.2,74.4 44.5,74.3 44.7,74.2 44.8,74 44.9,73.9 45.1,73.7 45.2,73.6 45.4,73.5 45.6,73.4 45.7,73.2 45.8,73.1 46,73.1 
			46.2,73.2 46.5,73.3 46.7,73.5 46.9,73.7 47.1,73.8 47.3,74 47.4,74.2 47.4,74.3 47.5,74.5 47.7,74.6 47.7,74.7 48,74.7 
			48.1,74.8 48.3,74.9 48.6,75 48.8,75.1 49.2,75.2 49.6,75.2 50,75.2 50.3,75.3 50.7,75.2 51.2,75.2 51.6,75.1 51.9,75.1 
			52.3,75.1 52.7,75 53.1,75.1 53.4,75 53.8,75 54,74.8 54.2,74.7 54.5,74.7 54.7,74.6 54.9,74.5 55.3,74.3 55.5,74.3 55.9,74.1 
			56.2,74.1 56.6,74.1 57,74.2 57.4,74.1 57.7,74.2 58,74.2 58.1,74.2 58.3,74.2 58.4,74.2 58.5,74.1 58.6,74.1 58.7,74.1 
			58.8,73.8 59,73.5 59.2,73.1 59.6,72.6 59.8,72 60.1,71.5 60.4,71 60.6,70.5 60.8,70.2 60.9,69.9 61.1,69.9 61.1,69.8 61.3,69.7 
			61.7,69.5 62.1,69.2 62.6,69 63.1,68.6 63.5,68.3 64,68.1 64.5,67.8 64.8,67.6 65,67.5 65.1,67.4 65.2,67.2 65.1,67 65.2,66.7 
			65.3,66.4 65.4,66.1 65.5,65.7 65.6,65.4 65.7,65.2 65.8,64.9 65.8,64.8 65.8,64.7 65.9,64.6 65.9,64.5 66,64.4 66,64.2 66.1,64 
			66.1,63.8 66.2,63.6 66.3,63.5 66.3,63.3 66.3,63.2 66.4,63.2 66.4,63.1 66.5,63 66.6,62.8 66.7,62.6 66.8,62.3 66.9,62.1 
			67,61.9 67.1,61.7 67.2,61.5 67.2,61.4 67.4,61.4 67.3,61.3 67.3,61.2 67.3,61 67.3,60.8 67.3,60.6 67.4,60.5 67.4,60.3 
			67.4,60.1 67.4,60 67.3,59.9 67.5,59.9 67.3,59.8 67.3,59.7 67.3,59.6 67.3,59.4 67.3,59.2 67.3,58.9 67.2,58.7 67.2,58.5 
			67.2,58.3 67.2,58.1 67.2,58 67.2,57.9 67.2,57.7 67.3,57.6 67.2,57.4 67.3,57.2 67.5,57 67.4,56.8 67.5,56.7 67.5,56.5 
			67.6,56.5 67.6,56.4 68.5,54.6 71.7,52.7 74.2,50.9 74.1,50.9 74,50.9 73.7,51 73.5,51.1 73.1,51.1 72.6,51.2 72.3,51.2 
			71.8,51.3 71.3,51.5 70.8,51.6 70.3,51.9 70,52.1 69.7,52.3 69.3,52.5 68.9,52.7 68.6,52.8 68.4,53 68,53.2 67.8,53.4 67.5,53.5 
			67.3,53.7 67.1,53.8 66.8,54.1 66.7,54.3 66.5,54.5 66.4,54.6 66.2,54.7 65.9,54.8 65.8,55 65.7,55.1 65.4,55.2 65.3,55.3 
			65.2,55.5 65,55.7 64.9,56 64.8,56.3 64.9,56.7 64.8,57 64.8,57.3 64.7,57.5 64.7,57.8 64.7,57.8 64.7,58 64.7,58.2 64.8,58.4 
			64.8,58.6 64.7,58.8 64.6,59.2 64.5,59.6 64.4,59.9 64.4,60.1 64.3,60.4 64.2,60.7 64.1,60.8 64,61 63.9,61.2 63.6,61.3 
			63.5,61.4 63.3,61.6 63.1,61.7 62.8,61.8 62.6,61.8 62.3,61.9 62.1,62 62,62.1 61.7,62.1 61.5,62.2 61.3,62.2 61,62.3 60.8,62.4 
			60.4,62.5 60.2,62.6 59.8,62.8 59.5,62.9 59.2,62.9 59,63 58.8,63.1 58.5,63.2 58.3,63.3 58.1,63.3 57.9,63.4 57.8,63.5 
			57.7,63.6 57.6,63.7 57.5,64 57.4,64.1 57.4,64.3 57.3,64.5 57.3,64.6 57.3,64.8 57.2,65 57.2,65.2 57.4,65.4 57.4,65.6 
			57.4,65.7 57.5,65.9 57.7,66.1 57.8,66.2 57.9,66.3 58.1,66.5 58.2,66.5 58.3,66.6 58.4,66.7 58.6,66.8 58.6,66.9 58.6,67 
			58.5,67.2 58.3,67.5 58.2,67.7 57.9,67.9 57.7,68 57.6,68.1 57.5,68.2 57.3,68.4 57.1,68.5 57,68.5 56.9,68.5 56.6,68.5 
			56.5,68.5 56.4,68.5 56.3,68.5 56,68.6 55.8,68.5 55.5,68.4 55.2,68.4 54.9,68.4 54.6,68.3 54.4,68.2 54.3,68.1 54.1,68.1 
			54,68.1 54,68 54,67.8 54,67.7 53.8,67.6 53.8,67.5 53.8,67.3 53.7,67.2 53.7,67.1 53.4,67 53.3,67 53.2,67 52.9,67.1 52.8,67.2 
			52.7,67.2 52.6,67.2 52.5,67.3 52.3,67.3 52.2,67.4 52.1,67.4 52,67.5 51.9,67.6 51.7,67.7 51.4,67.9 51.2,68 50.8,68.2 
			50.6,68.4 50.3,68.5 50,68.7 49.8,68.8 49.5,68.9 49.3,69.1 49,69.2 48.9,69.3 48.8,69.3 48.8,69.4 48.7,69.4 48.6,69.4 
			48.5,69.5 48.2,69.6 48.1,69.7 47.9,69.8 47.8,69.9 47.5,70 47.3,70 47,70.1 46.8,70.3 46.6,70.4 46.3,70.4 46,70.5 45.7,70.5 
			45.5,70.5 45.3,70.5 44.9,70.6 44.6,70.6 44.4,70.6 44,70.5 43.8,70.5 43.4,70.6 43.1,70.6 42.9,70.6 42.6,70.6 42.5,70.6 
			42.3,70.7 42.2,70.7 42,70.7 41.9,70.7 41.8,70.7 41.8,70.6 41.9,70.6 41.9,70.5 41.9,70.4 42,70.3 42.2,70.2 42.5,70.1 
			42.7,69.9 42.9,69.7 43.3,69.6 43.7,69.4 44,69.2 44.2,69.1 44.5,68.9 44.7,68.8 45,68.6 45.1,68.5 45.2,68.4 45.3,68.2 
			45.4,68.1 45.5,68 45.5,67.9 45.6,67.7 45.6,67.6 45.6,67.5 45.7,67.4 45.7,67.2 45.7,67.1 45.7,67 45.7,66.9 45.8,66.9 
			45.6,66.8 45.6,66.7 45.6,66.6 45.6,66.5 45.6,66.3 45.6,66.1 45.6,65.8 45.7,65.6 45.6,65.4 45.7,65.2 45.9,65 46,64.8 
			46.1,64.7 46.3,64.4 46.6,64.3 		"/>
		<polygon class="st11" points="71.4,50.6 71.1,50.6 70.8,50.6 70.6,50.7 70.2,50.7 69.9,50.7 69.5,50.8 69.1,50.8 68.6,50.8 
			68.3,50.7 67.9,50.8 67.6,50.8 67.2,50.8 66.8,50.9 66.6,50.9 66.3,50.9 66.1,51.1 65.8,51.1 65.7,51.1 65.6,51.1 65.4,51.2 
			65.2,51.2 65.1,51.2 65,51.3 64.9,51.4 64.6,51.5 64.5,51.5 64.4,51.6 64.3,51.6 64.2,51.6 64,51.7 63.9,51.7 63.8,51.7 
			63.7,51.8 63.6,51.8 63.5,51.8 63.2,51.8 63.1,51.8 62.8,51.9 62.7,51.9 62.6,52 62.3,52.1 62.2,52.1 62.1,52.2 62,52.3 
			61.9,52.3 61.9,52.4 61.8,52.4 61.8,52.5 61.7,52.6 61.4,52.8 61.3,52.9 61.2,53 61.1,53.3 61,53.4 61,53.5 60.9,53.5 60.9,53.6 
			60.8,53.6 60.6,53.7 60.5,53.7 60.4,53.8 60.2,53.9 59.9,54.1 59.8,54.2 59.6,54.3 59.5,54.4 59.2,54.5 59.1,54.7 58.9,54.8 
			58.8,54.8 58.5,54.9 58.3,55 58.1,55.1 57.8,55.3 57.6,55.4 57.5,55.5 57.2,55.5 57.1,55.6 57,55.6 56.9,55.6 56.7,55.7 
			56.6,55.8 56.5,55.8 56.4,55.8 56.3,55.8 56.2,55.8 56.3,55.9 56.3,56.1 56.4,56.2 56.4,56.3 56.6,56.4 56.6,56.4 56.7,56.7 
			56.7,56.8 56.7,56.9 56.6,56.9 56.5,57 56.4,57 56.3,57.1 56.2,57.2 56,57.3 55.9,57.5 56,57.6 56,57.7 56,57.8 56.1,58 
			56.1,58.1 56.1,58.2 56.1,58.4 56.3,58.5 56.3,58.6 56.3,58.7 56.3,58.8 56.3,58.9 56.3,59 56.3,59.1 56.2,59.2 56.1,59.3 
			56.1,59.4 56,59.6 55.9,59.8 55.8,59.9 55.6,60 55.7,60.2 55.5,60.2 55.5,60.3 55.6,60.4 55.7,60.5 55.7,60.7 55.7,60.8 55.8,61 
			55.9,61.2 55.9,61.4 56,61.5 56,61.7 56,61.8 55.9,61.8 55.8,61.9 55.7,61.9 55.6,62 55.5,62.1 55.5,62.2 55.5,62.3 55.6,62.4 
			55.8,62.4 56.2,62.4 56.6,62.3 57.1,62.3 57.3,62.3 57.7,62.2 57.9,62.2 58.2,62.2 58.4,62.2 58.7,62.1 58.9,62 59.2,62 
			59.4,61.9 59.7,61.9 60,61.7 60.2,61.7 60.6,61.6 60.8,61.5 61.1,61.4 61.3,61.2 61.5,61.1 61.8,61 61.9,60.9 62.1,60.6 
			62.2,60.4 62.4,60.3 62.5,60.1 62.6,59.9 62.7,59.8 62.7,59.6 62.8,59.5 62.7,59.3 62.7,59.2 62.7,59 62.7,58.8 62.7,58.6 
			62.7,58.4 62.5,58.1 62.4,58 62.2,57.7 62.2,57.5 62.1,57.4 61.9,57.3 61.8,57.1 61.8,57 61.8,56.8 61.7,56.6 61.7,56.5 
			61.8,56.3 62,56.1 62.1,55.9 62.2,55.7 62.3,55.5 62.5,55.2 62.6,55.1 62.7,54.9 62.8,54.8 62.9,54.7 63.2,54.6 63.4,54.5 
			63.6,54.4 63.8,54.3 64,54.2 64.3,54.2 64.5,54.2 64.7,54.2 65,54 65.2,54 65.4,53.9 65.6,53.9 65.8,53.7 65.9,53.6 66.2,53.5 
			66.3,53.3 66.4,53.2 66.4,53.1 66.5,52.9 66.5,52.8 66.5,52.7 66.6,52.5 66.6,52.4 66.7,52.3 66.7,52.2 66.8,52 66.9,51.9 
			67.1,51.7 67.4,51.7 67.6,51.6 68.1,51.5 68.6,51.3 69,51.2 69.5,51 70,50.9 70.5,50.9 70.8,50.7 71.1,50.7 		"/>
		<polygon class="st12" points="79.6,49.3 75.6,50.7 74.8,51.1 74.1,51.3 73.4,51.6 72.8,51.8 72.1,52.1 71.5,52.5 70.9,52.7 
			70.3,53.1 69.8,53.5 69.1,53.9 68.6,54.3 68.1,54.7 67.9,55 67.9,55.1 67.8,55.2 67.7,55.4 67.6,55.6 67.6,55.7 67.5,55.9 
			67.5,56.1 67.4,56.3 67.4,56.4 67.4,56.6 67.4,56.8 67.4,56.9 67.2,57.1 67.1,57.3 66.9,57.7 66.9,57.9 66.9,58.1 67,58.4 
			67,58.7 67,59 67.1,59.3 67.2,59.6 67.2,59.9 67.2,60.2 67.3,60.3 67.3,60.4 67.4,60.4 67.4,60.5 67.3,60.6 67.3,60.7 67.3,60.8 
			67.3,60.9 67.2,60.9 67.1,61 67,61.2 66.9,61.3 66.8,61.4 66.6,61.5 66.5,61.7 66.6,61.9 66.4,62 66.3,62.1 66.2,62.2 66.2,62.4 
			66.1,62.6 66.1,62.7 66.1,62.9 66.1,63.1 66.1,63.2 66,63.4 66.1,63.6 65.9,63.7 66,63.9 65.9,64.1 65.8,64.2 65.6,64.3 
			65.5,64.5 65.5,64.6 65.6,64.7 65.6,64.9 65.6,65 65.6,65.2 65.6,65.4 65.5,65.5 65.5,65.7 65.5,65.7 65.4,65.9 65.3,66 
			65.3,66.2 65.3,66.3 65.2,66.3 65.2,66.4 65.1,66.5 65,66.6 64.9,66.7 64.8,66.8 64.5,66.8 64.4,66.9 64.3,67.1 64.2,67.1 
			64,67.2 63.9,67.2 63.8,67.3 63,67.9 62.7,68.1 62.6,68.3 62.5,68.5 62.3,68.6 62.1,68.7 62,68.9 61.8,69.1 61.5,69.2 61.3,69.3 
			61.1,69.5 60.9,69.6 60.7,69.9 60.7,69.9 60.1,71.4 60,71.5 59.9,71.5 59.9,71.6 59.8,71.7 59.7,71.8 59.7,71.9 59.6,72 
			59.4,72.1 59.5,72.2 59.4,72.8 59.1,73.2 58.7,73.7 58.6,73.7 58.5,73.7 58.5,73.8 58.3,73.8 58.4,73.9 58.2,73.9 58.2,74.1 
			58.1,74.2 58.3,74.3 58.1,74.3 58.1,74.4 58,74.5 58,74.6 58.2,74.6 58.2,74.7 58.3,74.6 58.4,74.7 59.8,74.5 59.8,74.4 
			59.9,74.4 60,74.4 60,74.3 60,74.2 60.1,74.2 60.1,74.1 60.1,74 60.3,73.6 60.3,73.5 60.3,73.4 60.4,73.3 60.4,73.2 60.4,73.1 
			60.4,73 60.4,72.9 60.3,72.8 60.6,72.5 60.8,72.1 60.9,71.8 61.1,71.5 61.2,71.2 61.4,70.9 61.6,70.7 61.9,70.3 62.1,70.1 
			62.3,69.9 62.6,69.7 63,69.6 63.2,69.4 63.1,69.3 63.3,69.3 63.3,69.2 63.2,69.1 63.4,69.1 63.4,69 63.3,68.9 63.5,68.9 
			63.5,68.8 63.6,68.7 63.7,68.7 64.1,68.3 64.3,68.3 64.3,68.2 64.4,68.2 65.1,67.9 65.2,67.9 65.2,67.8 65.3,67.8 65.4,67.6 
			65.6,67.6 65.6,67.5 65.7,67.4 65.8,67.3 65.8,67.2 65.8,67.1 65.9,67 65.9,66.9 65.9,66.8 65.8,66.7 66,66.6 66,66.5 65.9,66.4 
			66.1,66.3 66,66.2 66,66.1 66.1,66 66.1,65.9 66.1,65.8 66.1,65.7 66.1,65.6 66.1,65.5 66.1,65.4 66.1,65.3 66.1,65.2 66.1,65.1 
			66.5,64.3 66.5,64.2 66.5,64.1 66.5,64 66.6,63.7 66.6,63.6 66.6,63.5 66.7,63.4 66.7,63.3 66.7,63.2 66.7,63.1 66.7,63 
			66.6,62.9 66.6,62.8 66.7,62.6 66.7,62.6 66.8,62.4 66.8,62.3 66.9,62.2 67.1,62.1 67.2,62 67.2,61.9 67.3,61.8 67.4,61.7 
			67.5,61.6 67.6,61.5 67.6,61.4 67.7,61.4 67.7,61.3 67.7,61.2 67.8,61.1 67.8,61 67.8,60.9 67.8,60.8 67.8,60.6 67.8,60.5 
			67.7,60.3 67.6,60.2 67.6,60.1 67.6,59.9 67.6,59.8 67.6,59.7 67.5,59.5 67.5,59.4 67.4,59.3 67.4,59.2 67.4,59.1 67.4,59 
			67.4,58.9 67.2,58.8 67.2,58.7 67.2,58.6 67.2,58.5 67.2,58.4 67.1,58.3 67.1,58.2 67.1,58.1 67.1,58 67.1,57.9 67,57.8 
			67.5,57.2 67.6,57.1 67.6,57 67.7,57 67.7,56.9 67.6,55.8 67.7,55.7 67.8,55.5 68,55.3 67.9,55.3 68.1,55.1 68.2,55 68.4,54.9 
			68.5,54.7 68.6,54.7 68.7,54.6 68.8,54.4 69.1,54.3 69.5,53.9 70,53.6 70.6,53.2 71,53 71.7,52.6 72.1,52.4 72.7,52.2 73.3,51.9 
			73.9,51.6 74.4,51.4 74.9,51.1 		"/>
		<polygon class="st12" points="75.5,49.6 75.4,49.5 75.3,49.5 75.2,49.5 75,49.6 74.9,49.6 74.3,49.7 73.6,50 72.8,50.1 72,50.2 
			71.2,50.3 70.4,50.3 69.6,50.3 68.8,50.3 68,50.4 67.2,50.4 66.5,50.6 65.8,50.9 65.1,51.2 64.7,51.3 64.4,51.3 64,51.4 
			63.7,51.5 63.3,51.6 62.9,51.7 62.6,51.9 62.3,52 62,52.1 61.8,52.3 61.4,52.4 61.2,52.7 61,52.7 60.8,52.9 60.6,53 60.4,53.3 
			60.1,53.4 60,53.6 59.8,53.8 59.5,53.9 59.3,54.1 59.1,54.2 58.9,54.5 58.6,54.6 58.5,54.7 58.4,54.8 58.3,54.8 58.2,54.9 
			58.1,55 57.9,55.1 57.8,55.2 57.7,55.2 57.6,55.2 57.4,55.3 57.3,55.3 57.2,55.4 57.1,55.4 57,55.4 57,55.5 57.1,55.6 57.1,55.7 
			57.2,55.7 57.4,55.7 58,55.5 59,55 59.1,54.9 59.2,54.7 59.4,54.6 59.5,54.5 59.6,54.4 59.7,54.3 59.8,54.2 59.9,54.1 60.1,54 
			60.1,53.9 60.2,53.9 60.3,53.7 60.4,53.6 60.5,53.6 60.5,53.5 60.6,53.4 60.7,53.3 60.8,53.3 61,53.2 60.9,53.1 61.1,53.1 
			61.2,53 61.3,52.8 61.4,52.8 61.5,52.7 61.7,52.7 61.7,52.6 61.8,52.6 61.9,52.5 62.1,52.4 62.4,52.3 62.5,52.2 62.7,52 
			62.9,51.9 63.2,51.8 63.5,51.8 63.7,51.7 63.9,51.6 64.3,51.6 64.5,51.6 64.8,51.6 64.9,51.6 64.9,51.5 65.4,51.3 65.5,51.3 
			65.5,51.2 65.6,51.2 65.7,51.2 65.7,51.1 65.8,51.1 66,50.9 66.1,50.8 66.2,50.8 66.3,50.7 66.4,50.7 66.5,50.7 66.7,50.7 
			66.8,50.6 66.9,50.6 67,50.6 67.1,50.5 67.2,50.5 67.5,50.5 67.9,50.6 68.1,50.6 68.5,50.5 68.7,50.5 69.1,50.6 69.4,50.5 
			69.7,50.5 70,50.5 70.3,50.6 70.7,50.5 70.9,50.5 71.2,50.5 71.5,50.5 71.7,50.4 71.9,50.4 72.2,50.4 72.4,50.4 72.7,50.3 
			72.9,50.2 73.1,50.2 73.4,50.2 73.7,50.2 73.9,50 74.8,49.9 75,49.9 74.9,49.8 75.1,49.7 75.1,49.6 75.2,49.6 75.3,49.6 
			75.5,49.6 75.6,49.6 		"/>
		<polygon class="st12" points="73.2,51.2 73.1,51.2 73,51.2 72.6,51.4 72,51.4 71.7,51.5 71.2,51.6 70.7,51.7 70.2,51.9 69.7,52 
			69.4,52.2 68.9,52.5 68.7,52.7 68.4,53 68.1,53.4 68,53.5 68,53.6 68,53.7 67.9,53.7 67.9,53.8 67.8,53.9 67.8,54 67.7,54.1 
			67.7,54.2 67.8,54.1 68.1,53.7 68.4,53.3 68.7,53.1 69.1,52.8 69.4,52.6 69.9,52.3 70.2,52.1 70.8,51.9 71.3,51.8 71.8,51.6 
			72.3,51.6 72.9,51.5 73.2,51.3 73.1,51.3 73.2,51.2 73.1,51.2 73.2,51.2 73.1,51.2 73.2,51.2 73.1,51.2 		"/>
		<polygon class="st12" points="72.3,51.3 71.4,51.3 71.3,51.3 71.3,51.4 71.1,51.4 71,51.4 71.1,51.4 71.3,51.4 71.4,51.5 
			71.6,51.5 71.7,51.4 71.8,51.4 71.9,51.4 72,51.4 72.2,51.4 		"/>
		<polygon class="st12" points="66.5,52.9 66.4,52.9 66,53.2 65.6,53.5 65.1,53.7 64.6,54 64.1,54.1 63.5,54.3 63,54.4 62.6,54.7 
			62.1,54.9 61.7,55.1 61.4,55.4 61.2,55.8 61.1,56 61.1,56.2 61,56.3 61,56.4 61,56.6 60.9,56.7 60.9,56.8 60.8,57 60.8,57.1 
			60.7,57.2 60.7,57.4 60.7,57.5 60.6,57.6 60.6,57.7 60.5,57.7 60.5,57.8 60.4,57.9 60.4,58 60.3,58 60.2,58.1 60.2,58.2 
			60.1,58.3 59.9,58.4 59.9,58.5 59.8,58.5 59.8,58.6 59.7,58.6 59.8,58.6 59.9,58.6 60.1,58.5 60.4,58.2 60.7,58 60.9,57.6 
			61.1,57.3 61.2,56.9 61.4,56.4 61.5,56.1 61.7,55.7 61.9,55.4 62.1,55.1 62.5,54.9 62.8,54.7 63.1,54.6 63.3,54.6 63.4,54.5 
			63.7,54.5 63.8,54.4 64,54.4 64.3,54.3 64.4,54.3 64.6,54.3 64.8,54.3 65,54.1 65.2,54.1 66.1,53.7 66.2,53.6 66.2,53.5 
			66.3,53.5 66.3,53.4 66.4,53.4 66.4,53.3 66.5,53.2 66.5,53.1 66.5,53 		"/>
		<polygon class="st12" points="66.1,59.3 66.1,59 66,58.8 66,58.5 65.8,58.3 65.8,58 65.8,57.8 65.8,57.6 65.7,57.3 65.7,57 
			65.7,56.8 65.8,56.5 65.9,56.3 65.9,56.2 65.9,56.1 65.9,56 65.8,56.1 65.4,57 65.3,57.3 65.3,57.7 65.3,58.1 65.4,58.5 
			65.4,58.9 65.4,59.3 65.5,59.7 65.4,60.1 65.3,60.4 65.2,60.8 65,61.1 64.7,61.4 64.4,62 64.4,62.1 64.2,62.2 64.3,62.4 
			64.3,62.6 64.3,62.7 64.3,62.8 64.3,62.9 64.3,63.1 64.3,63.2 64.3,63.2 64.4,63.4 64.4,63.5 64.5,63.4 64.5,63.3 64.5,63.2 
			64.4,63.1 64.4,63 64.4,62.9 64.4,62.9 64.5,62.7 64.5,62.6 64.5,62.6 64.6,62.4 64.6,62.3 64.6,62.2 64.6,62.1 64.7,62 
			64.7,61.9 64.7,61.8 64.8,61.7 64.8,61.6 64.9,61.5 64.9,61.4 65,61.4 65.1,61.2 65.2,61.1 65.3,61 65.6,60.8 65.7,60.7 
			65.8,60.4 65.8,60.2 65.9,60 66,59.8 66.1,59.7 66.1,59.5 		"/>
		<polygon class="st12" points="65.3,56.4 65.3,56.3 65.2,56.3 65.1,56.4 65.1,56.5 65,56.6 64.9,56.8 64.9,56.9 64.8,57.1 
			64.8,57.2 64.7,57.4 64.7,57.7 64.7,57.8 64.7,57.9 64.7,58 64.7,58.1 64.7,58.2 64.8,58.3 64.9,58.4 64.9,58.5 64.9,58.6 
			64.9,58.7 64.9,58.8 64.9,58.9 65.1,59 65.1,59.1 65.1,59 65,58.9 65,58.8 65.2,58.8 65.1,58.7 65.1,58.6 65,58.6 65,58.5 
			65,58.3 65,58.1 65,57.9 64.9,57.8 65.1,57.6 65,57.4 65,57.3 65,57.1 65.1,56.9 65.1,56.7 65.2,56.5 		"/>
		<polygon class="st12" points="64,54.7 63.8,54.7 62.8,55 62.7,55 62.6,55 62.6,55.1 62.5,55.1 62.5,55.2 62.4,55.3 62.4,55.4 
			62.3,55.4 62.3,55.5 62.4,55.4 62.5,55.4 62.5,55.3 62.6,55.3 62.7,55.2 63.6,55 64,54.8 		"/>
		<polygon class="st12" points="62,54.1 61.9,54.1 61.9,54 60.8,54.4 60.8,54.5 60.7,54.5 60.7,54.6 60.6,54.6 60.5,54.7 60.4,54.8 
			60.3,55 60.2,55.1 60,55.2 59.9,55.3 59.8,55.4 59.8,55.5 59.7,55.6 59.6,55.7 59.6,55.8 59.5,55.8 59.5,55.9 59.4,56 59.4,56.1 
			59.3,56.2 59.1,56.4 59,56.5 58.9,56.6 58.8,56.7 58.6,56.8 58.5,56.9 58.4,57 58.2,57.1 58.1,57.2 57.4,57.6 57.4,57.7 
			57.5,57.7 57.6,57.6 57.8,57.5 57.9,57.4 58,57.4 58.1,57.4 58.1,57.3 58.3,57.3 58.4,57.2 58.5,57.2 58.6,57.1 58.7,57.1 
			58.8,57 58.9,56.9 59.1,56.7 59.2,56.6 59.3,56.6 59.3,56.5 59.4,56.4 59.5,56.3 59.5,56.2 59.6,56.2 59.6,56.1 59.7,56.1 
			59.7,56 59.7,55.9 59.9,55.9 59.9,55.8 60.3,55.3 60.3,55.4 60.3,55.5 60.2,55.6 60.2,55.7 60.3,55.7 60.3,55.6 60.4,55.5 
			60.6,55.5 60.7,55.4 60.7,55.3 60.8,55.2 60.9,55.2 60.9,55.1 61,55 61.1,54.9 61.2,54.9 61.3,54.8 61.3,54.7 61.2,54.7 
			60.9,54.9 60.9,54.8 60.9,54.7 61,54.7 61.1,54.6 61.2,54.5 61.3,54.5 61.4,54.5 61.5,54.3 61.7,54.3 61.8,54.3 61.9,54.2 
			62.1,54.2 		"/>
		<polygon class="st12" points="62.3,67.9 61.9,68.1 61.7,68.4 61.5,68.5 61.2,68.7 60.8,68.8 60.6,69 60.4,69.3 60.2,69.4 
			59.9,69.5 59.6,69.8 59.4,69.9 59.1,70.1 58.9,70.2 58.6,70.4 58.4,70.6 58.3,70.8 58.1,71.1 58,71.3 57.9,71.6 57.8,71.8 
			57.7,72.1 57.6,72.3 57.5,72.6 57.5,72.8 58,72.2 58,71.6 58.4,71.2 58.3,71.1 58.6,70.7 58.9,70.5 59.3,70.2 59.6,69.9 60,69.7 
			60.3,69.6 60.6,69.4 60.9,69.2 61.3,68.9 61.6,68.7 61.9,68.3 62.1,68.1 		"/>
		<polygon class="st8" points="60.5,55.1 60.5,55.2 60.4,55.2 60.4,55.3 60.4,55.2 60.5,55.2 		"/>
		<polygon class="st12" points="60.7,68.6 60.7,68.5 60.6,68.7 60.5,68.7 60.4,68.8 60.2,68.8 60.1,68.9 60,69 59.9,69 59.8,69.1 
			59.7,69.3 59.6,69.4 59.6,69.5 59.5,69.6 59.6,69.6 59.7,69.5 59.8,69.4 59.8,69.3 59.9,69.3 60,69.2 60.1,69.1 60.3,69 60.4,69 
			60.5,68.9 60.6,68.8 60.7,68.7 		"/>
		<polygon class="st12" points="60.4,61.9 60.4,61.8 60.2,61.8 59.5,62.9 59.4,63.1 59.3,63.2 59,63.4 58.9,63.6 58.7,63.7 
			58.6,63.9 58.3,64.1 58.1,64.3 57.9,64.4 57.8,64.6 57.6,64.9 57.5,65.1 57.4,65 57.6,65 58,64.6 58,64.5 58.1,64.5 58.2,64.5 
			58.2,64.4 58.4,64.4 58.5,64.3 58.6,64.1 58.7,64.1 58.9,64 59,63.9 59.1,63.8 59.2,63.7 59.3,63.7 59.4,63.6 59.5,63.5 
			59.6,63.4 60.3,62.3 60.4,62 		"/>
		<polygon class="st12" points="57.9,67.6 57.9,67.5 57.8,67.5 57.8,67.4 57.8,67.3 57.7,67.3 57.5,67.3 57.4,67.5 57.3,67.7 
			57.1,67.8 57,67.9 56.7,68.1 56.5,68.2 56.4,68.2 56.1,68.4 55.8,68.4 55.5,68.4 55.3,68.4 55,68.5 54.9,68.5 54.9,68.4 
			54.8,68.4 54.6,68.4 54.5,68.4 54.4,68.4 54.5,68.4 54.5,68.5 54.7,68.5 54.8,68.5 54.8,68.6 54.9,68.6 55,68.6 55.8,68.7 
			55.8,68.6 55.9,68.6 56.9,68.5 57,68.4 57.1,68.3 57.3,68.3 57.4,68.2 57.5,68.1 57.6,68 57.7,67.9 57.8,67.8 57.8,67.7 
			57.9,67.7 		"/>
		<polygon class="st12" points="57.3,68.7 57.3,68.6 57,68.7 56.8,68.7 56.7,68.8 56.4,68.8 56.2,68.8 56.1,69 55.8,69 55.6,69 
			55.5,69 55.2,69 54.9,69.1 54.8,69.2 54.3,69.4 53.7,69.7 53.1,70 52.6,70.4 52,70.8 51.5,71.1 51,71.6 50.4,72 50,72.4 
			49.5,72.7 48.9,73.1 48.3,73.4 48.2,73.6 48.5,73.5 48.7,73.4 48.9,73.3 49,73.2 49.3,73 49.5,72.9 49.8,72.8 49.9,72.7 
			50.1,72.6 50.3,72.4 50.6,72.3 50.8,72.2 50.8,72.1 53.7,70.2 53.8,70.1 53.9,70.1 54.1,69.9 54.2,69.9 54.3,69.8 54.4,69.7 
			54.5,69.7 54.7,69.6 54.9,69.5 55,69.4 55.1,69.3 55.3,69.3 56.2,69.1 56.2,69 56.3,69 56.4,69 56.6,69 56.7,68.9 56.8,68.9 
			56.9,68.9 57.1,68.8 57.2,68.8 57.2,68.7 		"/>
		<polygon class="st12" points="56,61.1 56,61 56,60.9 55.8,60.9 55.7,60.9 55.7,61 55.6,61 55.6,61.1 55.6,61.2 55.6,61.3 
			55.5,61.5 55.5,61.5 55.5,61.6 55.6,61.7 55.7,61.7 55.7,61.8 55.8,61.8 		"/>
		<polygon class="st12" points="55.2,70.8 54.9,70.9 54.6,70.9 54.3,70.9 53.9,70.9 53.7,71.1 53.3,71.2 52.9,71.2 52.7,71.3 
			52.3,71.5 52.1,71.6 51.9,71.7 51.7,71.9 51.5,72 51.4,72 51.3,72 51.3,72.1 51.3,72.2 51.2,72.2 51,72.2 51,72.3 50.9,72.3 
			50.9,72.4 50.7,72.6 50.4,72.8 49.4,73.5 49.2,73.6 49.1,73.7 48.8,73.8 48.7,73.9 48.5,73.9 48.3,74 48,74.2 47.9,74.2 
			47.6,74.3 47.4,74.3 47.2,74.4 46.9,74.4 46.9,74.5 47.9,74.5 48,74.3 48.2,74.3 48.3,74.2 48.5,74.2 48.6,74.1 48.7,74.1 
			48.9,74.1 49,74 49.1,73.9 49.2,73.9 49.3,73.7 49.4,73.7 49.9,73.4 50.3,73.2 50.6,72.8 51.1,72.6 51.5,72.4 51.9,72.1 
			52.4,71.9 52.8,71.6 53.3,71.5 53.8,71.2 54.4,71.1 55,71 55,70.9 55.1,70.9 55.2,70.9 		"/>
		<polygon class="st12" points="39.3,66.1 36.8,66.3 36.7,66.4 36.8,66.5 37.1,66.5 37.2,66.4 37.5,66.4 37.7,66.5 37.9,66.5 
			38.1,66.5 38.2,66.5 38.5,66.4 38.7,66.4 38.8,66.3 39.1,66.3 39.2,66.3 39.2,66.1 		"/>
		<polygon class="st12" points="34.7,74.1 32.2,74.3 32.1,74.3 32.2,74.4 32.5,74.4 32.6,74.4 32.8,74.4 33.1,74.4 33.2,74.4 
			33.4,74.4 33.6,74.4 33.8,74.4 34,74.3 34.2,74.2 34.4,74.2 34.5,74.2 34.5,74.1 		"/>
		<polygon class="st12" points="33.4,66.4 33.3,66.4 31.8,67.3 32.2,67.2 33.1,66.8 33,66.7 33.2,66.7 33.2,66.6 33.3,66.6 
			33.3,66.5 33.4,66.5 		"/>
		<path class="st11" d="M46.5,59.5c1.1-0.9,2.7-1.2,4.1-1.8c1.1-0.5,2.2-1,3.4-1.3c1.1-0.3,2.3-1,2.7,0.2c0.2,0.5-0.4,1.1-0.5,1.6
			c-0.1,0.6,0.2,1.2,0.2,1.8c-0.1,2.7-3,2.8-4,5.1c-0.6,1.3-0.9,1.1-2.2,1.8c-0.9,0.5-1.6,1.2-2.5,1.8c-1.2,0.8-8.7,3.7-6.5,0.6
			c0.7-0.9,1.8-1.5,2.3-2.5s0.9-2.2,1.2-3.3c0.3-1.1,0.1-3.2,1.7-3.7"/>
		<path class="st8" d="M42.6,64.8c-0.7-0.3-2-0.7-2.8-0.9c-0.9-0.1-1.2,0.4-1.9,0.5c-0.8,0.1-0.9-0.1-1.6,0.2
			c-0.1,0.1-0.2,0.4-0.5,0.5c-0.2,0.1-0.7,0-0.9,0c-1,0.1-3,0.4-3.7,1.4c-0.2,0.2-0.1,0.9-0.2,1.2c-0.2,0.4-0.8,0.8-1.2,1
			c-0.6,0.4-1.1,0.8-1.7,1.3c1,0.6,1.9-0.4,2.5-1c1.1-1.1,2.4-1.1,3.7-2c1.4-0.8,2.1-1.2,3.7-1.1c0.6,0,1.2,0.2,1.8,0.1
			c0.9-0.1,1.6-0.8,2.5-0.9"/>
		<path class="st11" d="M75.9,6.7c0,0,4,16.9,4,33.2s-5.3-17-30.3-2.5c-25-14.5-29.5,18.8-29.5,2.5s4-33.2,4-33.2S46.4-0.4,75.9,6.7
			z"/>
		<path class="st13" d="M86.4,35.4l-72.3,0.5L13.6,50c0,0,11.2-7.6,36.6-7.6s36.1,6.7,36.1,6.7L86.4,35.4z"/>
		<polygon class="st12" points="42.7,65.1 42.1,65.3 41.5,65.4 40.9,65.6 40.3,65.6 39.7,65.8 39,65.9 38.4,65.9 37.8,66 37.2,66.1 
			36.6,66.3 36,66.4 35.4,66.6 33.2,68.1 33.1,68.2 33,68.3 32.7,68.3 32.6,68.4 32.4,68.4 32.3,68.5 32,68.5 31.8,68.7 31.7,68.7 
			31.4,68.7 31.3,68.8 31,68.8 30.9,68.8 31,68.9 31.2,68.9 31.3,68.9 31.4,68.9 31.6,68.9 31.8,68.8 31.9,68.8 32,68.7 32.2,68.7 
			32.4,68.6 32.5,68.6 32.6,68.6 32.7,68.6 32.9,68.6 32.9,68.5 33,68.5 33.1,68.5 33.2,68.3 33.3,68.3 33.3,68.2 33.4,68.2 
			33.9,67.9 34.9,67.4 35,67.4 35,67.3 35.7,66.9 35.8,66.9 35.8,66.8 36.9,66.4 37.2,66.4 37.6,66.4 38.1,66.3 38.5,66.3 
			38.8,66.3 39.2,66.2 39.6,66.2 40,66.1 40.4,66 40.8,66 41.1,65.9 41.6,65.8 41.6,65.7 41.7,65.7 41.9,65.7 41.9,65.6 42,65.6 
			42.1,65.6 42.6,65.2 		"/>
		<polygon class="st12" points="42.8,63.2 42.8,63.1 42,63.4 39.7,64.1 39.2,64.2 38.7,64.3 38.1,64.4 37.6,64.4 37.1,64.5 
			36.7,64.5 36.2,64.5 35.7,64.5 35.1,64.6 34.6,64.6 34.1,64.7 33.6,64.9 33.4,64.9 33.2,64.9 33.1,65 32.9,65 32.8,65.1 
			32.7,65.2 32.5,65.3 32.4,65.3 32.2,65.4 32,65.4 31.9,65.5 31.8,65.6 31.6,65.7 31.2,66 31,66.2 30.7,66.5 30.5,66.8 30.2,67 
			29.9,67.2 29.5,67.3 29.3,67.5 28.9,67.7 28.6,67.8 28.2,67.9 28.1,67.9 27.9,67.9 27.8,67.9 27.8,68 27.7,68 27.8,68 27.8,68.1 
			28,68.1 28.1,68.1 28.2,68.1 28.3,68 29.4,67.8 29.9,67.5 30.4,67.1 30.9,66.7 31.5,66.4 32,66 32.6,65.8 33.2,65.5 33.9,65.2 
			34.5,65.1 35.2,64.9 35.9,64.9 36.7,64.9 37.1,64.9 37.4,64.9 37.8,64.9 38.3,64.9 38.7,64.8 39,64.7 39.4,64.7 39.7,64.6 
			40.1,64.5 40.5,64.4 40.8,64.2 41.2,64.1 41.3,64.1 41.3,64 41.4,64 42.5,63.4 42.6,63.4 42.6,63.3 42.7,63.3 		"/>
		<polygon class="st12" points="42.9,61.3 42.5,61.3 42.1,61.3 41.6,61.5 41.1,61.5 40.6,61.6 40.1,61.6 39.8,61.6 39.3,61.7 
			38.8,61.7 38.3,61.8 37.8,61.8 37.3,61.8 36.6,61.8 35.7,61.9 35,62.1 34.1,62.2 33.3,62.4 32.6,62.7 31.7,62.9 31,63.2 
			30.3,63.4 29.7,63.8 29,64.3 28.4,64.6 28.4,64.7 28.4,64.8 29.5,64.1 29.6,64 29.9,64 29.9,63.9 30.1,63.9 30.2,63.8 30.3,63.8 
			30.4,63.7 30.6,63.5 30.7,63.5 30.8,63.4 30.9,63.4 31.1,63.3 31.8,63 32.5,62.8 33.3,62.6 34,62.4 34.8,62.3 35.5,62.2 36.2,62 
			37.1,62.1 37.8,62 38.6,61.9 39.3,62 40.2,62 40.3,62 40.4,62 40.5,62 40.8,61.9 40.9,61.9 41,61.9 41.1,61.8 41.4,61.8 
			41.5,61.8 41.6,61.8 41.7,61.8 41.9,61.7 42,61.7 42,61.6 42.1,61.6 42.2,61.6 42.3,61.5 42.5,61.5 43,61.4 		"/>
		<polygon class="st12" points="46.9,68.7 46.5,68.7 46.1,68.8 45.6,68.9 45.1,68.9 44.6,69 44.1,69 43.8,69.1 43.3,69.1 42.8,69.1 
			42.3,69.2 41.8,69.2 41.3,69.2 40.6,69.2 39.7,69.3 39,69.5 38.1,69.7 37.3,69.8 36.6,70.1 35.7,70.4 35,70.6 34.3,70.9 
			33.7,71.2 33,71.7 32.4,72 32.4,72.1 32.4,72.2 33.5,71.6 33.6,71.4 33.9,71.4 33.9,71.3 34.1,71.3 34.2,71.2 34.3,71.2 
			34.4,71.1 34.6,70.9 34.7,70.9 34.8,70.8 34.9,70.8 35,70.7 35.7,70.4 36.4,70.2 37.3,70 38,69.9 38.8,69.7 39.5,69.6 40.2,69.5 
			41.1,69.5 41.8,69.4 42.6,69.4 43.3,69.4 44.1,69.4 44.3,69.4 44.4,69.4 44.5,69.4 44.8,69.4 44.9,69.4 45,69.3 45.1,69.2 
			45.4,69.2 45.5,69.2 45.6,69.2 45.7,69.2 45.9,69.2 46,69.2 46,69.1 46.1,69.1 46.2,69 46.3,68.9 46.5,68.9 47,68.8 		"/>
		<path class="st14" d="M79.5,46.8c-6.1-2-16.1-4.3-29.2-4.3c-13.8,0-24,2.6-30,4.6"/>
		<path class="st15" d="M76.2,7.5c0.5,4.1,3.7,16.8,3.7,32.4c0,16.3-4.9,36.5-29.9,51c-25-14.5-29.9-34.7-29.9-51
			c0-13.3,3.2-28.3,3.7-32.4C34,5.5,64.6,5.5,76.2,7.5z"/>
		<path class="st9" d="M57.7,81.8c-1.3-0.9-4.4-0.4-6-0.6c-1.1-0.1-2.6-0.4-3.7-0.3c-1.1,0.1-2.2,0.6-3.3,0.8c-1,0.1-2,0.1-3,0.1
			c-0.8,0-1.9,0.4-2.7,0.3c-1.3-0.1-3.7-2.4-4.3-3.6c2.5-0.8,5.1-2.4,7.8-2.6c3.2-0.3,6.2,0,9.3,0c1.6,0,3.8-0.2,5.2,0.5
			c0.1,1,0.1,1.9,0.4,2.9c0.2,0.8,0.7,1.5,0.5,2.4"/>
		<path class="st8" d="M38,70.5c-0.3-0.4-0.9-0.6-1.6-0.4c-1,0.3-1,0.9-1.7,1.6c-0.7,0.8-1.5,1.2-2.4,1.3c-0.6,0.1-1.6-0.1-2,0.3
			c0.8,0.3,1.5,1.1,2.8,0.9s2.3-1.3,3.5-1.9c1.8-0.8,5.4-0.5,6.4,0.5c0.2-0.1,0.4-0.2,0.5-0.4c-0.4-0.8-2.6-0.7-2.7-1.5
			C40.4,70.8,40.1,71,40,71c-0.3,0-0.4-0.1-0.7-0.2c-0.4-0.1-0.7-0.3-1.1-0.4"/>
		<path class="st12" d="M41.7,75.7c-0.8-0.3-2.6,0.8-3.5,1c-0.7,0.2-1.9-0.1-2.3,0.2c-0.6,0.4-0.8,0.7-1.4,1c0.1,1.8,3.1,0,4-0.2
			c1.4-0.4,3.7-0.2,3.7-2.1C42.1,75.6,41.9,75.6,41.7,75.7"/>
		<path class="st16" d="M23.8,7.5c-0.5,4.1-3.7,19.1-3.7,32.4c0,16.3,4.9,36.5,29.9,51c25-14.5,29.9-34.7,29.9-51
			c0-15.6-3.2-28.3-3.7-32.4"/>
		<path class="st17" d="M78.4,25.3"/>
		<path class="st17" d="M22.2,25.3"/>
		<path class="st18" d="M82.8,30.7c0,0-8.2-6.9-32.8-6.9s-32.8,6.9-32.8,6.9v1.8h65.6V30.7z"/>
		<path class="st19" d="M84.8,34.9l-0.9-4.1c-18.5-4.2-29-3-29-3s-1-1.5-4.9-1.5c-3.8,0-4.9,1.5-4.9,1.5s-10.5-1.2-29,3l-0.9,4.1"/>
		<rect x="49.5" y="31.4" class="st20" width="1.1" height="2.8"/>
		<polygon class="st18" points="45.9,29 48.8,29.3 48.8,35.3 45.9,35.3 		"/>
		<polygon class="st18" points="54.2,29 51.3,29.3 51.3,35.3 54.2,35.3 		"/>
		<path class="st18" d="M50,33.9c9,0,35.2,1,35.2,1l0.3,1c0,0-29.2,0.1-35.5,0.1s-35.5-0.1-35.5-0.1l0.3-1
			C14.8,34.9,41,33.9,50,33.9z"/>
		<path class="st21" d="M50,2.4c-22.5,0-33.2,7.1-33.2,7.1S13,26,13,42.1c0,17.2,11.2,38.1,37,50.6c25.9-12.5,37-33.5,37-50.6
			C87,26,83.2,9.6,83.2,9.6S72.5,2.4,50,2.4z"/>
		<g>
			<path class="st5" d="M93,83.8c-1.4,0.9-6.7,3.4-16.9-1.5l0,0l0,0l0,0c0,0,0,0,0,0.1c-0.1,0.6-1.3,4.4-8.8,2.1
				c-8-2.5-15.4-3-17.3-3c-1.9,0-9.2,0.5-17.3,3c-7.5,2.3-8.7-1.5-8.8-2.1c0,0,0,0,0-0.1l0,0l0,0l0,0C13.7,87.2,8.4,84.7,7,83.8
				c-0.4,0.2-0.8,0.4-1.2,0.5c0,0,5.6,5.1,17.8-0.5c0.1,0.1,0.1,0.3,0.1,0.3c0.1,0.1,1.6,3.1,7.8,1.8l4.3-1
				c5.1-1.2,9.9-2.3,14.1-2.3s9,1.1,14.1,2.3l4.3,1c6.2,1.4,7.7-1.6,7.8-1.8c0,0,0.1-0.2,0.2-0.3c12.2,5.6,17.8,0.5,17.8,0.5
				C93.8,84.2,93.4,84,93,83.8z"/>
			<g>
				<path class="st22" d="M62.6,96.2C59.3,95.1,53.8,94,50,94s-9.3,1.1-12.6,2.2c-1.6,0.5-3.2,0.5-4.5,0.2l0.1,0.1
					c0,0,1.2,1.8,5.2,0.7c4-1.2,8.5-1.8,11.8-1.8s7.8,0.7,11.8,1.8c4,1.2,5.2-0.7,5.2-0.7l0.1-0.1C65.8,96.7,64.2,96.7,62.6,96.2z"
					/>
				<path class="st5" d="M68.3,86.6l-4.3-1c-5-1.2-9.8-2.3-14-2.3c-4.1,0-8.9,1.1-14,2.3l-4.3,1c-4.5,1-6.7-0.2-7.8-1.2
					c0.6,1.8,2.3,5.2,7.8,10c1.3,0.4,3.3,0.8,5.4,0.1c3.4-1.1,8.9-2.2,12.8-2.2s9.4,1.1,12.8,2.2c2.1,0.7,4.2,0.3,5.4-0.1
					c5.5-4.8,7.2-8.2,7.8-10C75,86.4,72.7,87.6,68.3,86.6z"/>
				<path class="st6" d="M62.6,96.2C59.3,95.1,53.8,94,50,94s-9.3,1.1-12.6,2.2c-1.6,0.5-3.2,0.5-4.5,0.2l0.1,0.1
					c0,0,1.2,1.8,5.2,0.7c4-1.2,8.5-1.8,11.8-1.8s7.8,0.7,11.8,1.8c4,1.2,5.2-0.7,5.2-0.7l0.1-0.1C65.8,96.7,64.2,96.7,62.6,96.2z"
					/>
				<path class="st7" d="M68.3,86.6l-4.3-1c-5-1.2-9.8-2.3-14-2.3c-4.1,0-8.9,1.1-14,2.3l-4.3,1c-4.5,1-6.7-0.2-7.8-1.2
					c0.6,1.8,2.3,5.2,7.8,10c1.3,0.4,3.3,0.8,5.4,0.1c3.4-1.1,8.9-2.2,12.8-2.2s9.4,1.1,12.8,2.2c2.1,0.7,4.2,0.3,5.4-0.1
					c5.5-4.8,7.2-8.2,7.8-10C75,86.4,72.7,87.6,68.3,86.6z"/>
				<path class="st6" d="M34.6,91.1c-0.4,0.1-0.6,0.1-0.7,0.1c0,0-0.1,0-0.1-0.1s0-0.4,0.1-0.9s0.1-0.8,0.2-1l0,0
					c0.1,0.1,0.3,0.3,0.6,0.8s0.5,0.7,0.5,0.8C35.2,90.9,35,91,34.6,91.1 M34.6,87.2c-0.1,0-0.4,0-0.9,0.2c-0.7,0.2-1,0.2-1.1,0.2
					v0.1c0,0,0.1,0.1,0.3,0.3c0.1,0.1,0.2,0.2,0.2,0.3c0,0.2-0.1,1.2-0.3,3c-0.2,1.5-0.4,2.6-0.5,3.3c0,0,0,0,0.1,0l1.2-0.3
					c0,0,0.1-0.4,0.1-1.1s0.1-1,0.2-1.1l1-0.2c0.4-0.1,0.7-0.2,0.9-0.2c0.2,0.1,0.4,0.4,0.6,0.9c0.3,0.5,0.4,0.9,0.5,1
					c0.8-0.2,1.4-0.3,1.9-0.4v-0.1C37.3,91.6,36,89.7,34.6,87.2z"/>
				<path class="st6" d="M57.3,92.2h-0.6c-0.7,0-1.2-0.1-1.5-0.1c0.3-0.5,0.4-1.1,0.5-1.9c0-0.2,0-0.7,0-1.3c0-0.7,0-1.1,0-1.2
					c-0.1,0-0.4,0.6-1.1,1.7c-0.6,1.1-0.9,1.7-0.9,1.8c0,0.1,0,0.2,0.1,0.3c0.1,0.2,0.1,0.3,0.1,0.3h-0.1c-0.4,0-0.9-0.1-1.7-0.1
					c-0.3-0.5-0.6-1.2-1-2.2s-0.7-1.8-1-2.2L50,87.4c0,0.4-0.1,0.7-0.1,1.2c0,0.1,0,1.1-0.1,3.1h-0.5l-1-0.1
					c0.2-0.6,0.3-1.4,0.4-2.3c0-0.3,0.1-1.1,0.1-2.3c0-0.7,0-1.3-0.2-2v-0.1c0.5,0,1.2,0.1,2.1,0.1c0.3,0.4,0.6,1.3,1,2.5
					c0.4,1.1,0.8,1.9,1.1,2.4L53,90l0,0c0.2-0.2,0.6-1.1,1.4-2.5c0.7-1.4,1.1-2.1,1.2-2.2c0.4,0,1.1,0.1,2,0.1
					c-0.2,1-0.3,1.6-0.3,1.7c-0.1,0.6-0.2,1.2-0.2,1.8c0,0.9-0.1,1.4-0.1,1.6C57.1,91.2,57.2,91.7,57.3,92.2z"/>
				<path class="st6" d="M64.1,92.5c-0.1,0.6-0.6,0.9-1.4,0.7c-0.3-0.1-0.7-0.1-1.3-0.3c-0.6-0.1-1-0.2-1.3-0.3
					c0.9-0.4,1.4-0.7,1.6-0.9c0.6-0.4,0.9-0.9,1-1.4c0.1-0.3,0-0.6-0.1-0.8c-0.2-0.2-0.4-0.4-0.7-0.5c-0.1,0-0.4,0.1-0.7,0.3
					c-0.3,0.2-0.5,0.3-0.6,0.5c-0.6,0.6-1,1.4-1.2,2.7h-0.1c-0.1,0-0.3-0.1-0.8-0.2c-0.3-0.1-0.6-0.1-0.8-0.2c0.2-0.7,0.4-1.3,0.6-2
					c0.2-0.8,0.4-1.4,0.5-2c0.1-0.7,0.2-1.1,0.2-1.3c0-0.5-0.1-0.9-0.2-1.3l0.1-0.1c0.3,0.1,0.6,0.1,1.1,0.2s0.9,0.1,1.1,0.1v0.2
					c0,0.1-0.1,0.4-0.3,0.8s-0.3,0.7-0.3,1l-0.1,0.6l0.1,0.1c0.1,0,0.6-0.1,1.3-0.1s1.2,0,1.3,0c0.5,0.1,0.9,0.3,1.2,0.7
					c0.3,0.4,0.3,0.8,0.2,1.4c-0.1,0.7-0.5,1.3-1.2,1.8v0.1C63.4,92.4,63.7,92.5,64.1,92.5z"/>
				<path class="st6" d="M68.3,88.3C68.3,88.3,68.3,88.4,68.3,88.3c-0.8,0.2-1.4,0.3-1.9,0.6c-0.3-0.1-0.6-0.3-0.8-0.5v-0.1
					c0.5-0.4,1-0.6,1.5-0.8c0.4,0.1,0.6,0.2,0.7,0.3C68.1,88,68.3,88.1,68.3,88.3 M67.1,89.5c-0.1,0.3-0.2,0.7-0.4,1.2
					c-0.2,0.5-0.3,0.9-0.4,1.2C66,93,65.9,93.8,65.9,94c-0.2,0-0.4-0.1-0.8-0.2s-0.6-0.2-0.8-0.2c0-0.1,0.2-0.5,0.5-1.2
					c0.2-0.5,0.3-0.9,0.4-1.2c0.1-0.5,0.2-0.9,0.2-1.1c0,0-0.1-0.4-0.4-1c0,0,0.4,0,1,0.1s1,0.1,1,0.1C67,89.3,67.1,89.4,67.1,89.5z
					"/>
				<path class="st6" d="M45.2,90.7c-0.2,0.7-0.3,1-0.4,1.1c-0.3,0-0.6,0.1-1,0.1c-0.3,0-0.6,0.1-1,0.2c-0.6,0.1-0.9,0.2-1,0.2
					c0.2-0.3,0.4-0.6,0.7-0.9c0.3-0.4,0.4-0.7,0.5-1c0.1-0.4,0.2-0.8,0.1-1.1c-0.1-0.3-0.2-0.5-0.4-0.7s-0.5-0.2-0.8-0.2
					c-0.3,0.1-0.6,0.3-0.9,0.8c-0.3,0.4-0.4,0.8-0.5,1.2c0,0.3,0,0.6,0,0.9c0,0.1,0.1,0.3,0.1,0.6c0.1,0.3,0.1,0.5,0.1,0.6l0,0
					c-0.8,0.1-1.3,0.2-1.6,0.3l0,0c0.1-1.1,0-2-0.1-2.5c-0.1-0.7-0.4-1.3-0.9-1.7v-0.1c0.2,0,0.4-0.1,0.9-0.3
					c0.4-0.1,0.7-0.2,0.8-0.2s0.1,0,0.2,0.2c0,0.1,0.1,0.2,0.2,0.2c0.9-0.4,1.7-0.7,2.5-0.9c0.5-0.1,0.9,0,1.2,0.2s0.5,0.6,0.6,1.1
					c0.1,0.7,0,1.4-0.4,2.2l0.1,0.1C44.4,91,44.8,90.9,45.2,90.7z"/>
			</g>
			<path class="st6" d="M93,83.8c-1.4,0.9-6.7,3.4-16.9-1.5l0,0l0,0l0,0c0,0,0,0,0,0.1c-0.1,0.6-1.3,4.4-8.8,2.1
				c-8-2.5-15.4-3-17.3-3c-1.9,0-9.2,0.5-17.3,3c-7.5,2.3-8.7-1.5-8.8-2.1c0,0,0,0,0-0.1l0,0l0,0l0,0C13.7,87.2,8.4,84.7,7,83.8
				c-0.4,0.2-0.8,0.4-1.2,0.5c0,0,5.6,5.1,17.8-0.5c0.1,0.1,0.1,0.3,0.1,0.3c0.1,0.1,1.6,3.1,7.8,1.8l4.3-1
				c5.1-1.2,9.9-2.3,14.1-2.3s9,1.1,14.1,2.3l4.3,1c6.2,1.4,7.7-1.6,7.8-1.8c0,0,0.1-0.2,0.2-0.3c12.2,5.6,17.8,0.5,17.8,0.5
				C93.8,84.2,93.4,84,93,83.8z"/>
		</g>
		<path class="st23" d="M55.4,62.4l-4.6-0.3l-4.6,0.3L43,69.7l3.8,4.4l0.8-0.7v-5.8c0,0,0.2-2.7,3.2-2.7s3.2,2.7,3.2,2.7v5.8
			l0.8,0.7l3.8-4.4L55.4,62.4z"/>
		<polyline class="st24" points="56.6,70.5 55.4,70.6 55.5,71.4 57.5,71.5 57.5,71 		"/>
		<path class="st24" d="M55.6,71.7c0,0,1.5-0.1,1.6,0v1H55v-0.6"/>
		<polyline class="st24" points="57.1,73.9 56,73.9 56.1,73 57,72.8 58.1,73 58.1,73.8 		"/>
		<polyline class="st25" points="47.4,63.9 46.3,63.9 46.4,63 47.4,62.8 48.4,63 48.4,63.8 		"/>
		<polyline class="st25" points="45.4,64.4 45.3,65.1 47.6,65.1 47.5,64.2 46.1,64.2 		"/>
		<polyline class="st25" points="53.1,61.7 53,62.4 55.3,62.4 55.2,61.4 53.8,61.4 		"/>
		<polyline class="st25" points="51.8,63 51.8,62.6 53.8,62.7 53.9,63.5 52.8,63.4 52.2,63.5 		"/>
		<path class="st25" d="M53,63.6l0.1,0.8l1,0.2h1l0.2-1C55.3,63.6,53.3,63.7,53,63.6z"/>
		<polyline class="st24" points="44.7,73.5 44.6,73.2 43.6,72.9 42.8,73.1 42.6,74 44.2,74 		"/>
		<path class="st26" d="M51.8,77.5c0,0,0,1.2,1.1,1.8c1.2,0.6,2.7,1.1,3.9,0.1c1.1-0.9-1.5-2.5-1.5-2.5L51.8,77.5z"/>
		<polygon class="st27" points="57.7,44.2 50.3,38 43,44.2 40.1,44.2 40.1,77.1 60.6,77.1 60.6,44.2 		"/>
		<polygon class="st28" points="57.7,44.2 50.3,38 43,44.2 40.1,44.2 40.1,77.1 60.6,77.1 60.6,44.2 		"/>
		<path class="st26" d="M49,77.4c0,0,0,1.2-1.1,1.8c-1.2,0.6-2.7,1.1-3.9,0.1c-1.1-0.9,1.5-2.5,1.5-2.5L49,77.4z"/>
		<path class="st29" d="M44.3,44.9l-0.5,0.4c0,0-1.4,0-2,0c0,2,0,28.6,0,30.7c2.6,0,14.5,0,17.1,0c0-2,0-28.6,0-30.7c-0.6,0-2,0-2,0
			s-4.8-4-6.6-5.5C48.6,41.3,44.3,44.9,44.3,44.9z"/>
		<path class="st30" d="M52.5,46.5c0.3,0.2,1.3,1,1.1,1.8c0,0.3-0.2,0.9-0.7,1c0.1,0.4,0.2,1-0.3,1.4l-1.1-1
			c0.3-1.1,0.9-2.5,0.4-2.8C52,46.8,52.4,46.7,52.5,46.5z"/>
		<path class="st30" d="M48,46.5c-0.3,0.2-1.3,1-1.2,1.8c0,0.3,0.2,0.9,0.7,1c-0.1,0.4-0.2,1,0.3,1.4l1-0.9
			c-0.2-1.2-0.8-2.4-0.4-2.9C48.4,46.8,48,46.6,48,46.5z"/>
		<path class="st31" d="M52.5,47.2c0.3,0.1,1.1,0.7,0.9,1.7"/>
		<path class="st31" d="M52.4,47.6c0.2,0.1,0.8,0.5,0.3,1.3"/>
		<path class="st31" d="M52.2,48.5c0.3,0.3,0.6,0.5,0.7,0.8"/>
		<path class="st31" d="M52,48.9c0.2,0.2,0.8,0.9,0.4,1.6"/>
		<path class="st31" d="M51.9,49.4c0.1,0.1,0.4,0.3,0.2,0.7"/>
		<path class="st31" d="M48,47.2c-0.3,0.1-1.1,0.7-0.9,1.7"/>
		<path class="st31" d="M48,47.6c-0.2,0.1-0.8,0.5-0.3,1.3"/>
		<path class="st31" d="M48.3,48.5c-0.3,0.3-0.6,0.5-0.7,0.8"/>
		<path class="st31" d="M48.4,48.9c-0.2,0.2-0.8,0.9-0.4,1.6"/>
		<path class="st31" d="M48.6,49.4c-0.1,0.1-0.4,0.3-0.2,0.7"/>
		<path class="st8" d="M54.4,54c0,0,2.9,1.3,2.6,2.7c-0.3,1.5-1.6,6.7-1.6,6.7s-2-0.3-2.9-1.3C51.5,61.1,54.4,54,54.4,54z"/>
		<rect x="58.9" y="60.6" class="st32" width="3.7" height="18.3"/>
		<rect x="38" y="60.6" class="st32" width="3.7" height="18.3"/>
		<path class="st33" d="M43.3,58.2c0,0-0.3,1.4-0.2,2.9c0.1,1.4,0.7,3,1.4,3c0.7-0.1,1-0.5,2-0.2c1,0.2,2.3-9.9,1-12l-1.8,1.5
			c0,0-1,0.7-1.6,3.2L43.3,58.2z"/>
		<path class="st31" d="M43.6,59.1c0,0,0.1,3.6,0.8,3.6c0.8,0,1.2-3.2,0.7-5.5"/>
		<rect x="56" y="65.4" class="st12" width="2.9" height="0.5"/>
		<path class="st8" d="M45.8,63.1c0,0-1.6,1.1-2.1,2.3c-0.6,1.3-0.5,2.2-0.4,3.4c0.1,1.2-0.1,3.6-0.4,4.6c-0.4,1,0.1,1.5,0.6,1.5
			c0,0,0.1,1.3-0.1,1.9c0,0-0.1,0.4,0.6,0.4c0.9-0.1,1.6-0.4,3.2,0.1c1.6,0.5,3.5,0.9,4.9,0.6s3.9-0.7,5.6-0.2c0,0,0-1.3,0.2-2.2
			c0,0,0.8-0.1,0.7-1.7S57.9,68.3,58,67c0.2-1.3-2.9-4.4-2.9-4.4l-7.6-0.7L45.8,63.1z"/>
		<path class="st9" d="M57.8,75.4c-2.2-0.2-2.1-0.2-4.7,0.2C50.5,76,51,75.8,49,75.2c-2-0.6-2.6-0.7-3.5-0.5s-2.1,0.2-2.1,0.2
			s0.1,0.9,0,1.4c0,0-0.3,0.7,0.1,0.8c0.4,0.1,1.9-0.3,2.6-0.2c0.6,0.1,2.5,0.9,4.4,1c0,0,1,0.1,2.3-0.3c1.2-0.4,4.1-0.4,4.8-0.1
			L57.8,75.4z"/>
		<path class="st34" d="M43.4,74.9c0,0,1.2,0,2.1-0.2c0.9-0.2,1.5,0,3.5,0.5c2,0.6,1.5,0.8,4.1,0.4s2.5-0.5,4.7-0.2"/>
		<path class="st31" d="M51,74.2c0.9,0.1,2.2,0.1,3.1-0.2c1.3-0.4,2.3-0.2,2.3-0.2"/>
		<path class="st31" d="M43,73.5c0,0,0.5,0,1.4-0.2s3.5,0.6,4.1,0.7h0.1"/>
		<path class="st31" d="M50.3,67.1c0.2,0,0.4-0.1,0.6-0.1c2.3-0.7,2.5-3,5.9,0.2"/>
		<path class="st31" d="M45.3,66c0,0,1.1-0.9,1.7-0.8c0.4,0.1,1,1.2,2.1,1.7"/>
		<path class="st33" d="M43.6,54.3c0,0-0.7,3.4-0.1,5.1c0.5,1.7,1.2,0.5,1.5-1s-0.1-4-0.1-4"/>
		<path class="st31" d="M44.5,64.1c0,0,0.6,0.1,0.8-1c0.2-1,0.4-1.1,0.7-1.6s0.6-2.6-0.8-5.2"/>
		<path class="st8" d="M44.3,52.4c0,0,0.1-0.6,0.5-0.8c0,0,0-0.7,0.7-1c0,0-0.2,0.8-0.2,1.1c0,0,0.2,1.2-0.2,2
			c-0.2,0.4-0.3,1-0.9,0.9c-0.6-0.1-0.5-0.2-0.8-0.8c-0.2-0.6-0.2-1.6-0.2-1.6C43,51.5,43,51,43,51c0.2-0.3,0.6-0.3,0.6-0.3
			l-0.2-1.2c0,0,0.4-0.4,0.7-0.2l0.5,2.4"/>
		<path class="st31" d="M56.3,57"/>
		<path class="st33" d="M56,58.3l1.6,0.9c1,4.5-1.8,6-1.8,6s-0.7-0.3-1.1-0.8c-0.3-0.6-0.4-1.1-1-2.1"/>
		<path class="st31" d="M55.5,57.9c0,0-1,1-1.2,2.9c-0.2,1.4,0.3,2.8,0.9,3.7"/>
		<path class="st33" d="M54.4,60c0,0,0.1-1-0.2-1.7"/>
		<path class="st8" d="M49.1,49.6c-2.7,1.7-3.5,3.7-3.5,3.7s1.2,1.3,1.4,3c0.3,1.7,0.3,3.8-0.1,4.7c-0.5,0.9-1.1,1.6-0.5,1.8
			c0.6,0.3,1.6,0.3,2.5,1.1s1.1,1.4,1.8,1.6c0.7,0.1,1.2-0.6,1.9-1.2s1.4-1.6,1.3-2.4c-0.2-0.8-1.7-4.1,1.3-8.1c0,0-1.4-2.9-4-4.4
			L49.1,49.6z"/>
		<path class="st35" d="M53.8,62.1c0,0-2.6-2.3-7.1-0.4l0.2,0.1c0,0-1.5,0.5,0.3,1.5c0,0,3.7-0.2,6.3,0.3
			C53.5,63.5,54,62.6,53.8,62.1L53.8,62.1z"/>
		<path class="st31" d="M43.6,50.7c0,0,0.5,1.1,0.3,1.2c-0.3,0.1-0.6,0.2-0.6,0.2"/>
		<path class="st36" d="M53.3,43.7H53c0,0,0,0.1,0,0.3h-0.4v0.3h0.2c-0.2,0.3-0.5,0.5-1.1,0.5v-0.5H52V44h-0.3v-0.3h-0.1h-0.2h-0.1
			V44H51v0.3h0.3v0.4c-1.2-0.1-1.2-0.6-1.2-0.6v-0.2h0.4v-0.3h-0.4v-0.5h-0.3v0.5h-0.4v0.3h0.4v0.2c0,0,0.1,0.4-1.1,0.6v-0.4H49V44
			h-0.3v-0.3h-0.1h-0.2h-0.1V44H48v0.3h0.3v0.5c-0.6,0-0.9-0.2-1-0.5h0.2V44h-0.4c0-0.2,0-0.3,0-0.3h-0.3c0,0-0.1,1.1,0.8,1.7
			c0,0,0.1,0.5,0.1,1.3h4.4c0-0.8,0.1-1.3,0.1-1.3C53.5,44.8,53.3,43.7,53.3,43.7z"/>
		<path class="st37" d="M53.3,43.7H53c0,0,0,0.1,0,0.3h-0.4v0.3h0.2c-0.2,0.3-0.5,0.5-1.1,0.5v-0.5H52V44h-0.3v-0.3h-0.1h-0.2h-0.1
			V44H51v0.3h0.3v0.4c-1.2-0.1-1.2-0.6-1.2-0.6v-0.2h0.4v-0.3h-0.4v-0.5h-0.3v0.5h-0.4v0.3h0.4v0.2c0,0,0.1,0.4-1.1,0.6v-0.4H49V44
			h-0.3v-0.3h-0.1h-0.2h-0.1V44H48v0.3h0.3v0.5c-0.6,0-0.9-0.2-1-0.5h0.2V44h-0.4c0-0.2,0-0.3,0-0.3h-0.3c0,0-0.1,1.1,0.8,1.7
			c0,0,0.1,0.5,0.1,1.3h4.4c0-0.8,0.1-1.3,0.1-1.3C53.5,44.8,53.3,43.7,53.3,43.7z"/>
		<path class="st38" d="M50.2,46.7c-1,0-1.6,0.2-2,0.4c-0.3,0-0.3-0.2-0.2-0.6c0.2-0.2,0.8-0.4,2.2-0.4s2,0.2,2.2,0.4
			c0,0,0.1,0.7-0.2,0.7C51.9,47.1,51.3,46.7,50.2,46.7z"/>
		<ellipse transform="matrix(0.1536 -0.9881 0.9881 0.1536 -1.5914 89.7464)" class="st12" cx="51.6" cy="45.8" rx="0.1" ry="0.3"/>
		<path class="st39" d="M47.9,45.5c0,0,0.9-0.3,2.3-0.3c1.4,0,2.3,0.3,2.3,0.3"/>
		<ellipse class="st12" cx="50.2" cy="45.6" rx="0.4" ry="0.2"/>
		<ellipse transform="matrix(0.1536 0.9881 -0.9881 0.1536 86.5943 -9.6015)" class="st12" cx="48.9" cy="45.7" rx="0.1" ry="0.3"/>
		<path class="st40" d="M50.1,51.5l-0.3-0.1c-0.4-0.1-0.7-0.5-0.8-0.8c-0.1-0.2-0.5-1.5-0.8-2.4c-0.4-0.9-0.2-1-0.1-1.2
			c0.2-0.4,1.3-0.4,1.5-0.4H50h0.6H51c0.2,0,1.3,0,1.5,0.4c0.1,0.2,0.2,0.3-0.1,1.2s-0.7,2.2-0.8,2.4c-0.1,0.3-0.4,0.8-0.8,0.8
			l-0.3,0.1H50.1z"/>
		<polygon class="st12" points="43.5,66 41.8,66 41.8,65.4 43.7,65.4 		"/>
		<circle class="st41" cx="51.4" cy="48.2" r="0.2"/>
		<circle class="st41" cx="49.2" cy="48.2" r="0.2"/>
		<path class="st31" d="M51,48.1c0.3-0.1,0.4-0.1,0.8,0"/>
		<path class="st31" d="M49.6,48.1c-0.3-0.1-0.4-0.1-0.8,0"/>
		<path class="st31" d="M50.7,47.6c0.1-0.2,0.9-0.3,1.3,0"/>
		<path class="st31" d="M48.6,47.6c0.3-0.2,1-0.2,1.2,0c0.2,0.3,0.2,1.6,0,1.8c0.2,0,0.3,0.3,0.4,0.2c0.1,0,0.2-0.2,0.4-0.2"/>
		<path class="st31" d="M50,50.6c0.1,0.1,0.4,0.1,0.6,0"/>
		<path class="st31" d="M49.7,50.3c0.2-0.1,0.2,0,0.6,0c0.3,0,0.5-0.1,0.7,0"/>
		<path class="st31" d="M50.5,47.9c0,0.2-0.1,0.9,0,1.2"/>
		<path class="st31" d="M50,48.7c0,0.3,0,0.7,0,0.8"/>
		<path class="st31" d="M43.8,54.4c-0.1-0.1-0.2-0.3-0.3-0.7c-0.2-0.6-0.2-1.6-0.2-1.6C43,51.5,43,51,43,51c0.2-0.3,0.6-0.3,0.6-0.3
			l-0.2-1.2c0,0,0.4-0.4,0.7-0.2l0.5,2.4"/>
		<path class="st31" d="M44.3,52.4c0,0,0.1-0.6,0.5-0.8c0,0,0-0.7,0.7-1c0,0-0.2,0.8-0.2,1.1c0,0,0.2,1.2-0.2,2
			c-0.1,0.2-0.2,0.5-0.4,0.7"/>
		<path class="st42" d="M48.7,49.8c-0.3,0.3-2.1,2-2.1,2c-0.8,0.7-1,1.5-1,1.5s1.2,1.3,1.4,3c0.3,1.7,0.3,3.8-0.1,4.7
			c-0.5,0.9-1.1,1.6-0.5,1.8c0.6,0.3,1.6,0.3,2.5,1.1s1.1,1.4,1.8,1.6c0.7,0.1,1.2-0.6,1.9-1.2s1.4-1.6,1.3-2.4
			c-0.2-0.8-1.7-4.1,1.3-8.1c0,0-0.3-0.9-1.2-1.9c0,0-1.5-1.7-2.2-2.3"/>
		<path class="st43" d="M45.9,63.2L45.9,63.2c0,0-1.7,1-2.2,2.2c-0.6,1.3-0.5,2.2-0.4,3.4c0.1,1.2-0.1,3.6-0.4,4.6
			c-0.4,1,0.1,1.5,0.6,1.5c0,0,0.1,1.3-0.1,1.9c0,0-0.1,0.4,0.6,0.4c0.9-0.1,1.6-0.4,3.2,0.1c1.6,0.5,3.5,0.9,4.9,0.6
			s3.9-0.7,5.6-0.2c0,0,0-1.3,0.2-2.2c0,0,0.8-0.1,0.7-1.7S57.9,68.3,58,67c0.1-0.4-0.2-1-0.6-1.7"/>
		<line class="st44" x1="23.7" y1="19.4" x2="46.9" y2="30.2"/>
		<line class="st44" x1="36" y1="20.1" x2="48" y2="29.6"/>
		<line class="st44" x1="50.1" y1="6.7" x2="50.1" y2="29"/>
		<line class="st44" x1="44.8" y1="22.2" x2="48.9" y2="28.9"/>
		<line class="st44" x1="76.5" y1="19.4" x2="53.2" y2="30.2"/>
		<line class="st44" x1="61.4" y1="22.1" x2="52.2" y2="29.6"/>
		<line class="st44" x1="56.2" y1="20.8" x2="51.3" y2="28.9"/>
		<path class="st45" d="M39.9,67.8H39v-3.3c0-0.5,0.4-0.9,0.9-0.9s0.9,0.4,0.9,0.9v3.3H39.9z"/>
		<path class="st45" d="M39.9,77.3H39V74c0-0.5,0.4-0.9,0.9-0.9s0.9,0.4,0.9,0.9v3.3H39.9z"/>
		<path class="st45" d="M60.8,67.8h-0.9v-3.3c0-0.5,0.4-0.9,0.9-0.9s0.9,0.4,0.9,0.9v3.3H60.8z"/>
		<path class="st45" d="M60.8,77.3h-0.9V74c0-0.5,0.4-0.9,0.9-0.9s0.9,0.4,0.9,0.9v3.3H60.8z"/>
		<path class="st33" d="M56.3,57.2c0,0-1.2,2.2-1.3,3.1c-0.1,0.9,0.3,1.7,0.7,2.1c0.4,0.3,1.5-1.7,1.7-2.6c0,0,0.2-0.9,0.3-2
			c0,0,0.5-0.9,0.2-1.8c-0.3-0.8-0.7-1.5-1.2-2s-1.1-1.1-1.4-0.4c-0.3,0.7-0.4,1.6-0.1,2.1c0.3,0.5,1.3,0.6,1.5,1.1"/>
		<path class="st46" d="M52.5,63.5"/>
		<path class="st46" d="M51.8,61.4"/>
		<g>
			<line class="st46" x1="53" y1="63.4" x2="53.5" y2="61.7"/>
			<line class="st46" x1="52" y1="63.3" x2="52.6" y2="61.4"/>
			<line class="st46" x1="51" y1="63.2" x2="51.4" y2="61"/>
		</g>
		<g>
			<line class="st46" x1="47.4" y1="63.1" x2="46.9" y2="61.7"/>
			<line class="st46" x1="48.4" y1="63.3" x2="47.8" y2="61.2"/>
			<line class="st46" x1="49.4" y1="63.2" x2="49.1" y2="61"/>
		</g>
		<g>
			<path class="st47" d="M55.1,55.6c0,0-0.3,0.7-0.4,1.3c0,0-0.4,1.1-0.9,2.1l-4.1,6.7l0.8,0.5l4.1-6.7c0,0,1.4-2.5,2.2-3L55.1,55.6
				z"/>
			<g>
				
					<ellipse transform="matrix(0.4175 -0.9087 0.9087 0.4175 -16.0642 83.3774)" class="st48" cx="57" cy="54.2" rx="0.7" ry="1.1"/>
				
					<ellipse transform="matrix(0.4174 -0.9087 0.9087 0.4174 -14.4583 83.2665)" class="st48" cx="57.7" cy="52.9" rx="0.7" ry="1.1"/>
				
					<ellipse transform="matrix(0.4174 -0.9087 0.9087 0.4174 -12.9518 83.1748)" class="st48" cx="58.4" cy="51.7" rx="0.7" ry="1.1"/>
				
					<ellipse transform="matrix(0.4173 -0.9088 0.9088 0.4173 -11.3451 83.0751)" class="st48" cx="59.1" cy="50.4" rx="0.7" ry="1.1"/>
				<ellipse transform="matrix(0.4172 -0.9088 0.9088 0.4172 -9.717 83.075)" class="st48" cx="59.9" cy="49.1" rx="0.7" ry="1.1"/>
				
					<ellipse transform="matrix(0.4174 -0.9087 0.9087 0.4174 -8.2253 82.9624)" class="st48" cx="60.6" cy="47.9" rx="0.7" ry="1.1"/>
				<ellipse transform="matrix(0.4174 -0.9087 0.9087 0.4174 -6.614 82.854)" class="st48" cx="61.3" cy="46.6" rx="0.7" ry="1.1"/>
			</g>
			<path class="st49" d="M61.2,45.1c0.7,0.2,1.3,0.4,1.6,0.9"/>
		</g>
		<path class="st33" d="M56.6,56.8c-0.2-0.5-1.2-0.6-1.5-1.1s-0.2-1.4,0.1-2.1c0.3-0.7,0.9-0.1,1.4,0.4s1,1.1,1.2,2
			c0.3,0.8-0.2,1.8-0.2,1.8s-0.4,0.1-0.7-0.2"/>
		<path class="st31" d="M55.2,53.6c0,0,0.7,0.3,1,0.7"/>
		<path class="st31" d="M55,54.2c0,0,0.8,0.3,1.1,0.7"/>
		<path class="st31" d="M54.9,54.9c0,0,0.8,0.3,1.1,0.6"/>
		<g>
			<ellipse class="st50" cx="36.5" cy="12" rx="3.6" ry="3.7"/>
			<path class="st51" d="M39.5,13.6c-1.2,0.3-2.1-0.6-2.2-1.2c-0.5,0.6-1.1,1.8-0.9,3.3"/>
			<path class="st51" d="M37.3,12.3c-0.1-0.6-0.4-1.2-1-1.7c-0.1-0.2-1-0.9-1.7-0.9c0,0,0.3-0.6,0.1-0.9"/>
			<path class="st51" d="M39,13.5c0.2-0.5,0.6-3.5-2.7-5.1"/>
			<path class="st51" d="M36.2,10.5c-0.9,0.8-2,2.7-1.9,4.4"/>
			<path class="st51" d="M34.7,9.7c-1.1,1.1-1.7,2.6-1.8,3"/>
			<path class="st52" d="M48.6,13.7l-0.7-1.8l-15.6,5.3c-0.9,0.2-2,0.8-3.9-0.6c-0.9-0.7-1.8-0.4-2.2,0c-0.3,0.4-0.6,1,0.4,2
				c1.1,1.4,1.9,2.2,3.8,1.3l15.9-6.5c0.6-0.1,1.5-0.4,1.9,0.4L48.6,13.7z"/>
			<polygon class="st12" points="46.8,13.2 46.6,12.5 41.4,14.1 41.6,15.2 			"/>
			<path class="st52" d="M25,13.7l0.7-1.8l15.6,5.3c1,0.2,2,0.8,3.9-0.6c0.9-0.7,1.8-0.4,2.2,0c0.3,0.4,0.6,1-0.4,2
				c-1.1,1.4-1.9,2.2-3.8,1.3l-15.9-6.5c-0.6-0.1-1.5-0.4-1.9,0.4L25,13.7z"/>
			<polygon class="st12" points="26.8,13.2 27,12.5 32.2,14.1 32,15.2 			"/>
		</g>
		<g>
			<ellipse class="st53" cx="68.9" cy="13" rx="4.8" ry="4.9"/>
			<path class="st54" d="M69,9.1c-1,0-2.9,0.2-3.9,3.2l0.7,0.3v0.3c0,0,0.6,0.7,2.1,0.7c0,0,1-0.2,1.8,0.2c0,0,1.1,0.5,3-0.7
				c1.6-1,0,0.4,0.1,0.1c0-0.3-0.3-1.6-0.6-2.2c-0.3-0.6-1.7,1-1.7,1l-0.7-1.6l1-0.8C70.7,9.6,70.5,9.1,69,9.1z"/>
			<path class="st55" d="M71.8,9c-0.2,0.5-0.6,1-0.6,1l0.6,0.7l1.1-0.4L71.8,9z"/>
			<polygon class="st56" points="72.6,6.8 72.6,6.8 72.5,6.8 72.3,6.9 72.2,6.9 72.2,6.9 72.1,6.9 72,7.1 71.8,7.3 71.9,7.4 72,7.6 
				72.1,7.7 72.1,7.7 72,7.8 72,7.8 71.7,8.3 71.4,8.6 71.3,8.7 71.2,8.6 70.8,8.4 70.8,8.4 70.7,8.3 70.5,8.3 70.4,8.2 70.2,8.2 
				70,8.1 70,8.1 69.8,8.1 69.6,8 69.1,7.9 68.5,7.9 68.2,7.9 68.1,7.9 68,7.9 68,7.9 67.9,7.9 67.8,7.9 67.7,8 67.6,8 67.4,8 
				67,8.2 66.8,8.2 66.6,8.3 66.5,8.4 66.4,8.5 65.9,8.8 65.4,9.2 65.4,9.3 65.2,9.6 65,9.8 64.9,9.9 64.9,9.9 64.8,10 64.5,10.5 
				64.3,10.9 64.2,11.2 64.1,11.3 64.1,11.4 63.9,11.3 63.8,11.2 63.6,11.1 63.3,11 63.2,10.9 62.9,11 62.6,11.2 62.5,11.2 
				62.4,11.2 62.3,11.2 62,11.2 61.9,11.3 61.8,11.3 61.8,11.3 61.7,11.3 61,11.2 61,11.2 60.7,11.3 60.3,11.2 60.1,11.2 59.6,11.2 
				59.6,11.2 59.3,11.2 59.1,11.2 59,11.2 58.4,11.2 58,11.1 57.6,11.1 57.4,11.1 57.2,11.2 56.9,11.2 56.7,11.4 56.7,11.5 
				56.6,11.5 56.5,11.7 56.4,12 56.4,12.1 56.3,12.5 56.3,13.2 56.3,13.9 56.2,14.5 56.2,14.8 56.2,15.3 56.2,15.4 56.2,15.5 
				56.2,15.6 56.2,15.6 56.1,15.7 56.1,15.8 56.1,16 56,16.2 55.8,16.6 55.5,17 55.3,17.2 55.2,17.4 55.1,17.5 55,17.6 54.6,17.9 
				54.3,18.2 54.2,18.2 54,18.4 53.9,18.4 53.6,18.6 53.2,18.7 51.2,19.7 51,19.8 50.9,19.9 50.7,20 50.6,20.1 50.7,20.2 50.9,20.2 
				51.6,19.9 51.9,19.7 52.2,19.6 52.7,19.4 52.8,19.3 53.2,19.1 53.4,19 53.9,18.8 54.1,18.6 54.6,18.4 54.9,18.1 55.4,17.7 
				55.5,17.6 55.5,17.6 55.7,17.3 55.9,17.1 55.9,17.1 56.1,16.7 56.3,16.4 56.3,16.4 56.6,15.8 56.7,15.5 56.8,15.4 56.9,15.1 
				56.8,14.8 56.8,14.8 56.8,14.6 56.8,14.5 56.8,14.4 56.8,14.3 56.8,14.1 56.8,14.1 56.8,13.9 56.8,13.8 56.8,13.7 56.8,13.2 
				56.8,13.1 56.8,12.9 56.8,12.6 56.9,12.6 56.9,12.3 57,12 57.1,11.7 57.2,11.6 57.4,11.6 57.5,11.5 57.8,11.5 57.9,11.5 
				57.9,11.5 58,11.5 58.2,11.5 59.1,11.6 59.2,11.6 59.4,11.7 59.6,11.7 59.8,11.8 59.8,11.8 59.9,11.8 60,11.8 60,11.8 60.1,11.8 
				60.1,11.9 60.2,11.9 60.2,11.9 60.4,11.9 60.4,12 60.5,12 60.5,12 60.8,12.1 61.1,12.2 61.3,12.3 61.4,12.3 61.7,12.5 61.9,12.6 
				62.1,12.8 62.2,13 62.6,13.1 62.8,13.2 63,13.3 63.1,13.3 63.2,13.2 63.3,13.2 63.4,13.2 63.5,13.2 63.5,13.2 63.6,13.2 
				63.8,13.1 63.8,13.1 63.9,13.1 63.9,13.3 63.9,13.4 63.9,13.9 64,14.3 64.1,14.6 64,14.7 63.6,15 63.2,15.2 62.7,15.5 62.1,16 
				61.8,16.1 61.5,16.3 61,16.6 60.9,16.7 59.7,17.6 59.5,17.7 58.8,18.1 58.7,18.1 58.3,18.5 57.7,18.8 57.3,19.1 56.5,19.6 
				55.1,20.5 54.6,20.8 54.5,20.9 54.4,20.9 54.2,21.1 54.2,21.1 54.1,21.2 53.8,21.3 53.7,21.4 53,21.9 52.8,22.1 52.8,22.1 
				52.8,22.2 52.9,22.2 53,22.1 53.3,22 53.5,21.9 53.7,21.8 53.7,21.7 54.1,21.5 54.3,21.4 55.1,21 55.1,21 55.8,20.5 58.7,18.8 
				58.8,18.8 58.9,18.7 59.3,18.5 59.8,18.2 59.8,18.2 59.9,18.1 60,18 60.1,18 60.5,17.7 60.8,17.6 61.1,17.4 61.4,17.2 61.5,17.2 
				61.6,17.1 61.7,17 62.7,16.5 62.9,16.4 62.9,16.3 63.1,16.2 63.4,16 63.8,15.8 63.9,15.7 64.4,15.4 64.5,15.4 64.9,16 65.1,16.3 
				65.5,16.6 65.8,16.9 66,17.1 66.2,17.2 66.3,17.3 66.7,17.5 67.1,17.6 67.2,17.7 67.3,17.7 67.6,17.8 67.7,17.9 67.8,18.3 
				67.8,18.3 68.2,18.4 68.4,18.4 68.7,18.5 68.8,18.5 68.8,18.5 68.9,18.5 69,18.5 69.4,18 69.4,17.9 69.6,17.9 69.7,17.9 
				69.8,17.9 70.1,17.8 70.2,17.8 70.3,17.8 70.6,17.8 70.7,17.8 70.8,17.8 70.9,17.8 71,17.7 71.1,17.7 71.2,17.6 71.5,17.6 
				71.5,17.6 71.6,17.6 71.9,17.5 72,17.4 72.4,17.2 72.4,17.1 72.5,17.1 72.4,17 72.3,16.9 72.3,16.8 72.4,16.8 72.5,16.6 
				72.5,16.4 72.4,16.4 72.7,16 72.9,15.8 73.1,15.5 73.3,15.1 73.3,15.1 73.4,15.1 73.5,15 73.7,14.9 73.7,14.9 73.7,14.8 
				73.8,14.8 73.8,14.8 73.8,14.8 73.8,15 73.8,15 74.1,14.7 74.3,14.6 74.3,14.5 74.3,14.4 74.3,14.3 74.3,14.2 74.3,14.2 
				74.3,14.2 74.3,14 74.3,14 74.3,13.8 74,13.6 73.8,13.5 73.8,13.5 73.8,13.5 73.7,13.5 73.8,13.3 74,13.2 74.1,13.3 74.2,13.2 
				74.4,13.2 74.4,12.9 74.4,12.9 74.4,12.8 74.3,12.7 74.1,12.7 74,12.6 73.8,12.6 73.8,12.5 73.7,12.4 73.7,12.3 73.7,12.2 
				73.7,12.1 73.7,12.1 73.7,12 73.7,11.9 73.7,11.9 73.6,11.8 73.5,11.4 73.4,11.1 73.3,10.7 73.3,10.7 73.9,10.5 74.1,10.8 
				74.3,10.9 74.4,10.9 74.5,10.8 74.7,10.7 74.7,10.7 74.8,10.5 74.9,10.4 74.9,10.3 75,10.2 75,10.1 75,10 74.9,9.8 74.7,9.6 
				74.5,9.6 74.4,9.6 74.3,9.6 74.2,9.5 74,9.1 74.1,9 74.1,9 74.1,8.9 74.1,8.8 74.1,8.7 74.2,8.6 74,8.4 73.8,8.2 73.8,8.1 
				73.8,8.1 73.7,8.1 73.6,8.1 73.6,8.1 73.6,8.1 73.4,8.1 73.3,8 73.1,7.7 73.1,7.6 73.2,7.5 73.2,7.4 73.2,7.3 73.2,7.3 73.2,7.1 
				73.1,7 73,6.9 72.7,6.8 			"/>
			<polygon class="st56" points="71.6,10.8 71.5,10.9 71.4,11 71.3,11.2 71.1,11.3 70.8,11.3 70.6,11.3 70.5,11.2 70.3,11 
				70.2,10.9 70.2,10.7 70.2,10.5 70.3,10.3 70.3,10.2 70.4,10.1 70.5,10 70.7,10 70.8,10 70.9,9.9 71.1,10 71.2,10 71.3,10.1 
				71.5,10.4 71.6,10.5 			"/>
			<polygon class="st56" points="70.6,9.8 70.5,9.9 70.5,9.9 70.5,9.9 70.6,9.8 70.6,9.8 70.6,9.8 70.6,9.9 70.6,9.9 70.6,9.9 			
				"/>
			<polygon class="st11" points="70,10.2 70,10.2 70,10.2 70,10.2 69.8,10.4 69.5,10.5 69.3,10.8 69.3,10.8 69.4,11 69.4,11.1 
				69.3,11.1 69.1,11.1 68.9,11.3 68.8,11.4 68.7,11.7 67.7,12.3 67.4,12.5 67.3,12.6 66.9,12.9 66.9,12.9 66.7,13 66.4,13.2 
				66.3,13.2 66.1,13.1 65.9,13 65.9,12.9 66,12.9 66,12.8 65.9,12.6 65.8,12.6 65.8,12.5 65.7,12.4 65.5,12.4 65.3,12.3 65.3,12.1 
				65.4,11.7 65.5,11.6 65.5,11.5 65.5,11.4 65.5,11.4 65.6,11.2 65.8,10.9 66,10.6 66.2,10.3 66.4,10.1 66.7,9.9 67,9.7 67.4,9.6 
				67.4,9.5 67.5,9.5 67.6,9.5 68.2,9.3 68.2,9.3 68.5,9.3 68.5,9.3 68.6,9.3 68.7,9.3 68.8,9.3 68.9,9.3 69,9.3 69.1,9.3 69.5,9.3 
				69.6,9.3 70.1,9.4 70.3,9.5 70.5,9.7 70.5,9.7 70.5,9.8 70.4,9.8 70.3,9.8 70.2,9.7 70.1,9.8 70,9.8 			"/>
			<polygon class="st11" points="68.3,13 68.1,13 68,13.1 67.9,13.3 67.8,13.4 67.8,13.5 67.6,13.5 67.5,13.5 67.2,13.5 67.2,13.5 
				67.3,13.5 67.4,13.4 67.5,13.3 67.6,13.2 67.7,13.2 68.1,13 68.6,12.6 69.1,12.4 69.1,12.3 69.4,12.4 69.6,12.3 69.6,12.3 
				69.8,12.1 69.9,12.1 69.9,11.9 70,12 70,12 70.1,12.2 70.4,12 70.8,11.8 70.8,11.8 70.8,11.7 70.9,11.6 70.9,11.6 70.9,11.6 
				71,11.6 71.2,11.7 71.3,11.7 71.4,11.7 71.4,11.7 71.5,11.6 71.5,11.5 71.5,11.4 71.5,11.3 72,11.2 72,11.2 72.1,11.4 72.3,11.8 
				72.4,12.2 72.4,12.3 72.4,12.5 72.4,12.6 72.4,12.6 72.4,12.7 72.4,12.8 72.4,13 72.4,13.1 72.3,13.2 71.8,13.5 71.2,13.8 
				71.1,13.8 71.1,13.8 70.8,13.9 70.6,13.9 70.5,13.9 70.1,13.9 69.8,13.8 69.6,13.7 69.6,13.7 69.6,13.5 69.5,13.3 69.5,13.2 
				69.3,13.1 69.2,13.1 69.1,13.1 68.9,13.1 68.7,13.2 68.6,13.1 			"/>
			<polygon class="st57" points="69,17.8 69,17.7 69,17.5 69.1,17.4 69.1,17.2 69.1,17.1 69.1,17 69,16.8 69.1,16.2 69.1,16 
				69.2,15.9 69.2,15.9 69.1,15.7 69.1,14.8 69.2,14.7 69.3,14.5 69.2,14.4 69.2,14.3 69.2,14.2 69.2,14 69.2,14 69.2,14 69.4,13.9 
				69.5,14 69.8,14.1 70.1,14.2 70.3,14.2 70.7,14.2 70.9,14.2 71.2,14.1 71.6,13.9 72,13.7 72.1,13.6 72.3,13.5 72.7,13.2 
				72.7,13.1 72.7,12.9 72.7,12.9 72.7,12.8 72.7,12.6 72.6,12.2 72.5,11.6 72.4,11.3 72.3,11 72.3,11 73,10.8 73.1,10.8 73.1,10.9 
				73.3,11.5 73.5,11.9 73.5,12.1 73.5,12.2 73.5,12.4 73.5,12.5 73.6,12.5 73.6,12.6 73.6,12.6 73.6,12.7 73.5,12.9 73.5,13.1 
				73.6,13.2 73.6,13.4 73.6,13.4 73.5,13.6 73.5,13.7 73.5,13.7 73.4,13.6 73.2,13.4 73,13.3 72.9,13.4 72.8,13.4 72.7,13.4 
				72.5,13.6 72.4,13.7 72.4,13.8 72.4,13.9 72.4,14.1 72.5,14.3 72.7,14.5 72.9,14.5 73.1,14.5 73.3,14.4 73.3,14.4 73.3,14.4 
				73.2,14.7 73.2,14.8 73.1,14.9 73.1,14.9 73.1,15 73.1,15 73,15.2 72.9,15.4 72.9,15.5 72.5,16 72.2,16.3 72.2,16.3 72.1,16.4 
				71.8,16.6 71.8,16.6 71.8,16.5 71.8,16.3 71.7,16.2 71.6,16.2 71.5,16.1 71.4,16.1 71.2,16.2 71.2,16.2 71.1,16.3 71.1,16.4 
				71.1,16.5 71.1,16.6 71.2,16.7 71.3,16.8 71.4,16.8 71.6,16.8 71.6,16.8 71.3,17 71.1,17.1 70.8,17.3 70.5,17.4 70.3,17.5 
				69.9,17.6 69.7,17.7 69.7,17.7 69.5,17.7 69.5,17.7 69.5,17.7 69.4,17.7 69.3,17.7 69.3,17.7 69.2,17.7 69.1,17.8 			"/>
			<polygon class="st57" points="68.8,14.2 68.9,14.4 69,14.5 68.9,14.6 68.9,14.7 68.8,14.7 68.6,14.7 68.5,14.7 68.4,14.6 
				68.4,14.4 68.6,14.2 			"/>
			<polygon class="st58" points="68.8,15.7 68.9,15.8 68.9,15.9 68.6,16.2 68.6,16.1 68.3,15.8 68.3,15.8 68.6,15.5 			"/>
			<polygon class="st57" points="68.7,16.9 68.8,17 68.9,17.1 68.8,17.2 68.8,17.4 68.6,17.4 68.5,17.4 68.5,17.4 68.4,17.3 
				68.3,17.2 68.3,17.1 68.4,17 68.4,16.9 68.5,16.9 68.6,16.9 			"/>
			<polygon class="st57" points="66.9,8.6 67,8.6 67,8.8 67,8.9 67.1,9.1 67.2,9.2 67.2,9.3 67.2,9.3 67.1,9.3 66.9,9.5 66.8,9.5 
				66.5,9.7 66.5,9.7 66.4,9.8 66.3,9.8 66.1,10 65.9,10.2 65.8,10.4 65.6,10.7 65.4,10.9 65.4,11.1 65.4,11.1 65.3,11.1 65.3,11.3 
				65.2,11.6 65.2,11.7 65.1,11.8 65.1,12.1 65,12.3 65.1,12.4 65.4,12.7 65.4,12.7 65.6,12.7 65.5,12.7 65.5,12.8 65.4,12.9 
				65.4,13 65.5,13.1 66.1,13.4 66.4,13.6 66.7,13.7 66.9,13.8 66.9,13.8 67.3,13.8 67.8,13.8 67.9,13.7 67.9,13.8 68.1,13.9 
				68.2,14 68.2,14 68.2,14.1 68.2,14.3 68.1,14.3 68.1,14.5 68.2,14.7 68.2,15 68.2,15.7 68.1,15.8 68.1,15.8 68.2,16 68.2,16 
				68.1,16.8 68,17 68,17.2 68,17.3 68.1,17.4 68.1,17.7 68.1,17.7 67.9,17.7 67.8,17.7 67.8,17.7 67.6,17.6 67.5,17.6 67.4,17.5 
				67.2,17.5 66.7,17.3 66.5,17.2 66.1,16.9 65.9,16.7 65.6,16.5 65.3,16.1 64.9,15.6 64.8,15.5 64.6,15.2 64.4,14.7 64.2,14.1 
				64.1,13.7 64.1,13.6 64.1,13.5 64,13.1 64.1,12.9 64,12.7 64.1,12.4 64.1,12.1 64.2,11.6 64.3,11.5 64.4,11.2 64.5,11 64.6,10.7 
				64.8,10.4 65,10.1 65.1,10 65.1,10 65.4,9.6 65.9,9.2 66.3,8.9 66.5,8.8 			"/>
			<polygon class="st58" points="71.1,8.8 71.2,8.9 71.1,9.1 70.9,9.2 70.8,9.3 70.7,9.4 70.7,9.4 70.6,9.4 70.3,9.2 69.9,9.1 
				69.9,9.1 69.9,9.1 69.8,9.1 69.6,9 69.5,9 69.4,9 69.3,9 69.2,9 69.1,9 68.9,9 68.8,9 68.7,9 68.6,9 68.5,9 68,9.1 67.9,9.1 
				67.9,9.1 67.7,9.1 67.6,9 67.5,8.9 67.4,8.7 67.5,8.5 67.6,8.4 67.7,8.3 68,8.3 68,8.2 68.1,8.3 68.1,8.2 68.5,8.2 68.5,8.2 
				68.6,8.2 69,8.2 69.1,8.2 69.4,8.2 69.4,8.2 69.6,8.2 69.7,8.3 69.8,8.3 70,8.3 70,8.3 70.1,8.3 70.3,8.4 70.5,8.5 70.8,8.6 			
				"/>
			<polygon class="st56" points="72.6,8.3 73,8.8 73.2,9.1 73.4,9.4 73.6,9.7 73.6,9.8 73.1,10 72.7,10.1 72.6,10.1 72.1,10.3 
				72,10.4 71.9,10.4 71.5,9.8 71.4,9.8 71.7,9.4 72.4,8.5 72.5,8.5 			"/>
			<polygon class="st56" points="71.5,14.2 71.4,14.3 71.2,14.3 71,14.4 70.9,14.5 70.9,14.5 70.2,14.7 69.9,14.8 69.6,15 
				69.5,15.3 69.5,16 69.5,16.6 69.5,16.8 69.6,16.8 69.8,16.7 70.3,16.5 70.7,16.2 71,16.1 71.4,15.8 71.7,15.4 72,15 72.2,14.8 
				72.2,14.7 72,14.6 71.6,14.3 71.6,14.2 			"/>
			<polygon class="st11" points="71.5,14.7 71.6,14.8 71.6,14.9 71.4,15.1 71.3,15.2 71.3,15.3 71.1,15.4 70.7,15.7 70.2,16 
				69.9,16.1 69.9,16.1 69.9,16.1 69.9,15.7 70,15.3 70,15.2 70,15.2 70.5,15.1 70.7,15 71.1,14.9 71.1,14.8 71.3,14.8 71.3,14.8 
							"/>
			<polygon class="st56" points="66,13.9 65.9,14 65.8,14.1 65.7,14.2 65.7,14.2 65.5,14.5 65.7,14.9 66,15.3 66.1,15.6 66.5,15.9 
				66.8,16.2 67.2,16.5 67.5,16.6 67.6,16.6 67.7,16.7 67.7,16.7 67.7,16.6 67.8,14.8 67.8,14.8 67.6,14.7 67.5,14.7 67.2,14.5 
				66.6,14.2 66.4,14.1 66.1,13.9 			"/>
			<polygon class="st11" points="66.1,14.4 66.2,14.5 66.5,14.6 66.7,14.7 66.9,14.9 67.1,14.9 67.3,15.1 67.3,16 67.3,16 67,15.8 
				66.8,15.6 66.6,15.4 66.4,15.2 66.3,15.1 66.1,14.8 66,14.5 			"/>
			<polygon class="st56" points="65.9,15.7 65.8,15.6 65.7,15.5 65.6,15.4 65.4,15.5 65.3,15.6 65.2,15.7 65.2,15.7 65.2,15.7 
				65.2,15.8 65.2,15.8 65.2,15.9 65.3,16 65.4,16.1 65.5,16.1 65.6,16.1 65.8,16.1 65.9,15.9 65.9,15.9 65.9,15.9 65.9,15.8 			"/>
			<polygon class="st56" points="65.3,12.8 65.1,12.7 65,12.6 64.9,12.6 64.9,12.6 64.8,12.6 64.8,12.6 64.7,12.7 64.5,12.8 
				64.4,12.9 64.4,13 64.4,13.1 64.4,13.1 64.4,13.3 64.5,13.5 64.7,13.6 64.9,13.6 65,13.6 65.1,13.6 65.2,13.5 65.4,13.4 
				65.4,13.2 65.4,12.9 			"/>
			<polygon class="st59" points="73.4,13.5 73.2,13.4 73.1,13.4 73,13.4 73,13.3 72.9,13.4 72.9,13.4 72.7,13.4 72.6,13.5 
				72.5,13.7 72.4,13.8 72.4,13.9 72.4,13.9 72.4,14.2 72.5,14.3 72.7,14.5 73,14.5 73.1,14.5 73.2,14.5 73.3,14.4 73.5,14.2 
				73.5,14 73.5,13.7 			"/>
			<polygon class="st8" points="71.5,10.2 71.2,10 71.1,10 71,10 71,9.9 70.8,10 70.8,10 70.6,10 70.4,10.2 70.2,10.4 70.2,10.5 
				70.2,10.6 70.1,10.7 70.2,11 70.4,11.2 70.6,11.4 70.9,11.4 71.1,11.4 71.1,11.4 71.4,11.3 71.6,11.1 71.7,10.8 71.6,10.4 			"/>
			<polygon class="st8" points="72.6,8.3 71.5,9.8 71.9,10.4 73.6,9.7 			"/>
			<polygon class="st56" points="71.8,16.4 71.8,16.3 71.6,16.2 71.5,16.2 71.4,16.2 71.2,16.3 71.2,16.4 71.2,16.5 71.1,16.5 
				71.1,16.5 71.2,16.6 71.1,16.6 71.2,16.8 71.3,16.8 71.4,16.9 71.6,16.9 71.7,16.8 71.8,16.7 71.9,16.6 71.9,16.6 71.9,16.5 			
				"/>
		</g>
		<g>
			<path class="st6" d="M14.8,79.8v-3.6h-1l0,0l2-1.3v4.9c0,0.4,0,0.8,0.1,1.1c0,0.3,0.1,0.6,0.2,0.9h-0.7h-0.8
				c0.1-0.3,0.1-0.6,0.2-0.9C14.8,80.5,14.8,80.2,14.8,79.8z"/>
			<path class="st6" d="M21,78.1c0.1,0.1,0.2,0.2,0.3,0.3c0.4,0.4,0.6,0.8,0.6,1.4s-0.2,1.1-0.6,1.5s-0.9,0.6-1.5,0.6
				s-1.1-0.2-1.5-0.6s-0.6-0.9-0.6-1.5s0.2-1,0.6-1.4c0.1-0.1,0.2-0.2,0.3-0.3l-0.2-0.2c-0.4-0.3-0.6-0.7-0.6-1.2s0.2-1,0.6-1.3
				c0.4-0.4,0.8-0.5,1.4-0.5s1,0.2,1.4,0.5c0.4,0.4,0.6,0.8,0.6,1.3s-0.2,0.9-0.6,1.2C21.2,78,21.1,78,21,78.1 M19.8,78.7
				c-0.3,0-0.6,0.1-0.8,0.3c-0.2,0.2-0.3,0.5-0.3,0.8s0.1,0.6,0.3,0.8c0.2,0.2,0.5,0.3,0.8,0.3s0.6-0.1,0.8-0.3
				c0.2-0.2,0.3-0.5,0.3-0.8s-0.1-0.6-0.3-0.8C20.4,78.8,20.1,78.7,19.8,78.7 M19.8,77.8c0.3,0,0.5-0.1,0.7-0.3
				c0.2-0.2,0.3-0.4,0.3-0.7c0-0.3-0.1-0.5-0.3-0.7c-0.2-0.2-0.4-0.3-0.7-0.3c-0.3,0-0.5,0.1-0.7,0.3c-0.2,0.2-0.3,0.4-0.3,0.7
				c0,0.3,0.1,0.5,0.3,0.7C19.4,77.7,19.6,77.8,19.8,77.8z"/>
			<g>
				<path class="st6" d="M80.6,78c0.1,0.1,0.2,0.2,0.3,0.3c0.4,0.4,0.6,0.9,0.6,1.5s-0.2,1.2-0.6,1.6S80,82,79.4,82
					s-1.1-0.2-1.5-0.6s-0.6-0.9-0.6-1.6c0-0.6,0.2-1.1,0.6-1.5c0.1-0.1,0.2-0.2,0.3-0.3L78,77.8c-0.4-0.3-0.5-0.7-0.5-1.2
					c0-0.6,0.2-1,0.5-1.4c0.4-0.4,0.8-0.6,1.4-0.6c0.5,0,1,0.2,1.4,0.6s0.5,0.8,0.5,1.4c0,0.5-0.2,0.9-0.5,1.2
					C80.8,77.9,80.7,78,80.6,78z M79.5,78.6c-0.3,0-0.5,0.1-0.7,0.3c-0.2,0.2-0.3,0.5-0.3,0.8s0.1,0.6,0.3,0.8
					c0.2,0.2,0.5,0.3,0.7,0.3c0.3,0,0.5-0.1,0.8-0.3c0.2-0.2,0.3-0.5,0.3-0.8s-0.1-0.6-0.3-0.8S79.8,78.6,79.5,78.6z M79.5,77.7
					c0.3,0,0.5-0.1,0.6-0.3c0.2-0.2,0.3-0.4,0.3-0.7c0-0.3-0.1-0.5-0.3-0.7c-0.2-0.2-0.4-0.3-0.6-0.3c-0.3,0-0.5,0.1-0.6,0.3
					c-0.2,0.2-0.3,0.4-0.3,0.7c0,0.3,0.1,0.5,0.3,0.7C79,77.6,79.3,77.7,79.5,77.7z"/>
				<path class="st6" d="M83,81.9c0.1-0.1,0.2-0.3,0.4-0.6c0.2-0.3,0.3-0.6,0.4-0.9l2.1-4.8h-1.7c-0.4,0-0.7,0-0.9,0.1
					c-0.2,0-0.4,0.1-0.5,0.2l0.1-0.6l0.1-0.6h4.2l-2.4,5.7c-0.1,0.2-0.2,0.5-0.3,0.8c-0.1,0.3-0.1,0.5-0.1,0.7
					C84.4,81.9,83,81.9,83,81.9z"/>
			</g>
		</g>
	</g>
</g>
</svg>
