<svg id="Layer_1" data-name="Layer 1" xmlns="http://www.w3.org/2000/svg" xmlns:xlink="http://www.w3.org/1999/xlink" viewBox="0 0 271.57 356.73"><defs><style>.cls-1,.cls-10,.cls-15,.cls-8{fill:none;}.cls-2,.cls-5{fill:#50af47;}.cls-11,.cls-12,.cls-13,.cls-14,.cls-15,.cls-16,.cls-2,.cls-7,.cls-8,.cls-9{stroke:#1d1d1b;}.cls-10,.cls-11,.cls-12,.cls-13,.cls-14,.cls-15,.cls-16,.cls-2,.cls-7,.cls-8,.cls-9{stroke-miterlimit:3.86;}.cls-2,.cls-8{stroke-width:8px;}.cls-3{clip-path:url(#clip-path);}.cls-4{clip-path:url(#clip-path-2);}.cls-6{clip-path:url(#clip-path-3);}.cls-7{fill:#ffd500;stroke-width:1.93px;}.cls-9{fill:#ffed00;}.cls-11,.cls-12,.cls-13,.cls-14,.cls-9{stroke-width:0.48px;}.cls-10{stroke:#e50046;stroke-width:11.6px;}.cls-11,.cls-14{fill:#f7ae83;}.cls-12{fill:#008bd2;}.cls-12,.cls-14{fill-rule:evenodd;}.cls-13,.cls-17{fill:#fff;}.cls-15{stroke-width:3.87px;}.cls-16,.cls-18{fill:#1d1d1b;}.cls-16{stroke-width:7.94px;}</style><clipPath id="clip-path" transform="translate(-161.62 -226.92)"><rect class="cls-1" x="163.71" y="293.53" width="267.87" height="280.85"/></clipPath><clipPath id="clip-path-2" transform="translate(-161.62 -226.92)"><rect class="cls-1" x="163.72" y="293.53" width="267.89" height="280.93"/></clipPath><clipPath id="clip-path-3" transform="translate(-161.62 -226.92)"><path class="cls-2" d="M166.14,296.2l263.05-.45V402.57s-8.42,117.49-129.83,169.89c-8.46,3.64-120.49-70.38-133.22-165.67-.56-5.12-.39-6-.49-6l.49-104.6Z"/></clipPath></defs><title>Donegal Crest</title><g class="cls-3"><g class="cls-4"><path class="cls-5" d="M166.14,296.2l263.05-.45V402.57s-8.42,117.49-129.83,169.89c-8.46,3.64-120.49-70.38-133.22-165.67-.56-5.12-.39-6-.49-6l.49-104.6Z" transform="translate(-161.62 -226.92)"/><g class="cls-6"><path class="cls-7" d="M167.11,332c5.46,0,15-12.32,31-12.21,19.55.24,30.87,18.42,51.59,18.66,22.92,0,27.58-18.77,49.42-18.66,19.62.19,29.11,18.42,49.41,18.43,22.2,0,27.5-18.54,50.14-18.43,20.08-.11,29.63,11.12,29.79,11.1.7,0,.44,34.16.48,34.2s-9.65-11.16-29.78-11.1c-22.59-.06-27.89,18.47-50.15,18.43-20.25,0-29.73-18.19-49.41-18.43-21.77-.06-26.43,18.76-49.42,18.65-20.66-.19-32-18.36-51.59-18.65-15.91-.06-25.49,12.26-31,12.21l-.48-34.2Z" transform="translate(-161.62 -226.92)"/><path class="cls-7" d="M166.38,404.13c5.41,0,15-12.34,31-12.21,19.51.22,30.83,18.4,51.35,18.43,23.11.25,27.77-18.56,49.65-18.43,19.57.17,29.07,18.4,49.17,18.43,22.39,0,27.7-18.56,50.38-18.66,20,.09,29.59,11.32,29.79,11.33.65,0,.39,34.14.48,34.2-.09-.06-9.69-11.19-29.78-11.1-22.63-.08-27.93,18.44-50.14,18.43-20.29,0-29.78-18.21-49.42-18.43-21.82-.08-26.48,18.73-49.41,18.65-20.7-.21-32-18.38-51.59-18.65-15.95-.08-25.53,12.24-31,12.21l-.48-34.2Z" transform="translate(-161.62 -226.92)"/><path class="cls-7" d="M168.33,475c5.58-.06,15.17-12.38,31.24-12.21,19.44.18,30.76,18.36,51.35,18.43,23,.21,27.71-18.6,49.42-18.43,19.74.13,29.23,18.36,49.41,18.43,22.32-.07,27.63-18.6,50.38-18.66,20,.05,29.52,11.29,29.79,11.33.58,0,.33,34.1.24,34.2.09-.1-9.52-11.22-29.55-11.32-22.7.1-28,18.63-50.38,18.65-20.12,0-29.6-18.24-49.41-18.43-21.65-.12-26.31,18.71-49.42,18.66-20.53-.24-31.84-18.42-51.35-18.66-16-.12-25.6,12.21-31,12.22l-.72-34.2Z" transform="translate(-161.62 -226.92)"/><path class="cls-7" d="M168.81,542c5.46,0,15-12.27,31-12.21,19.56.29,30.88,18.46,51.59,18.65,22.93.1,27.59-18.71,49.42-18.65,19.62.24,29.12,18.46,49.41,18.43,22.2,0,27.51-18.49,50.14-18.43,20.09-.06,29.65,11.16,29.79,11.1.71.06.45,34.21.48,34.2S421,564,400.86,564c-22.58,0-27.88,18.52-50.15,18.43-20.24.09-32.38-1.33-52.07-1.55-21.76-.07-23.76,1.92-46.75,1.78-20.65-.14-32-18.32-51.59-18.43-15.9-.24-25.48,12.08-31,12l-.48-34.2Z" transform="translate(-161.62 -226.92)"/></g><path class="cls-8" d="M166.14,296.2l263.05-.45V402.57s-8.42,117.49-129.83,169.89c-8.46,3.64-120.49-70.38-133.22-165.67-.56-5.12-.39-6-.49-6l.49-104.6Z" transform="translate(-161.62 -226.92)"/><path class="cls-9" d="M364,354.16l-131.53-.22v65.51c.07.09,4.26,58.82,64.92,85.06,4.28,1.78,60.29-35.23,66.61-82.83a16.24,16.24,0,0,0,.25-3.11l-.25-64.4Z" transform="translate(-161.62 -226.92)"/><line class="cls-10" x1="135.32" y1="135.24" x2="135.32" y2="249.16"/><line class="cls-10" x1="173.59" y1="171.44" x2="97.04" y2="171.44"/><path class="cls-11" d="M321.16,428.78c-3-1.39-5.44.61-8.72-.45-3.71-1.21-4.08-4.88-8-6-2.22-.63-4-1.55-6.05-.44-1.57.86-2.94,2-2.43,3.77a2.3,2.3,0,0,0,1.46,1.78c1.29.55,2.27-1.55,3.63-.89,1.16.58.55,1.92,1,3.11,1.75,6.59-5.2,15.75,1.93,17.1,3.84.89,5.7-2.43,9.69-2.67,3.09-.19,5,1.86,8,.9,6.52-2,5.58-13.19-.48-16.22Z" transform="translate(-161.62 -226.92)"/><path class="cls-12" d="M363.07,424.56l-31.74,2-2.66,23.1h25.68c3.44-9.75,8.67-25,8.72-25.1Z" transform="translate(-161.62 -226.92)"/><path class="cls-13" d="M333.28,426.11l-14.78,1.78c.12,0-5.29,15.24.72,21.77,2,2.27,3.23,4.49,6.55,4.66,4.09.12,5.33-3.71,7.51-6.89,4.65-7.2,0-21.38,0-21.32Z" transform="translate(-161.62 -226.92)"/><path class="cls-14" d="M285.56,439.22c-.25-1-.9-1.48-.72-2.45.09-.71,1-.84,1.21-1.55,0-.74-.9-1.07-.72-1.78s1.08-.69,1.21-1.33c.24-.82-.67-1.21-.49-2,0-.88,1.29-1.86,1.21-1.78.07-.08-.25.45,0,0,1.74-2.79,3.48-5.52,3.15-4,0,.25,1,.3.73.22-.65-.24.55-1.25-.25,4.67-.15,1,6.29.3,7,1.55.73,1,.35,1.82-.25,2.89-.49.6-2.64.25-4.84-.45-1.77-.58-1.71,0-3.39-.67,1.69.7,2.94.73,4.36,1.78,1.65,1.17,3.62,2,3.15,3.78-.65,2.17-6.08-3-6.3-.67,0-.05.22.64-1,.22-1.88-.42,7.3,2.44,5.82,4.44-1.22,1.3-5.76-2.75-4.6,2.22.22.45-4.31-2.2-4.84-3.55a12.47,12.47,0,0,1-.48-1.55Z" transform="translate(-161.62 -226.92)"/><path class="cls-15" d="M364,354.16l-131.53-.22v65.51c.07.09,4.26,58.82,64.92,85.06,4.28,1.78,60.29-35.23,66.61-82.83a16.24,16.24,0,0,0,.25-3.11l-.25-64.4Z" transform="translate(-161.62 -226.92)"/></g></g><rect class="cls-16" x="6.14" y="3.97" width="259.79" height="65.21"/><rect class="cls-17" x="9.55" y="8.26" width="252.44" height="56.06"/><path class="cls-18" d="M181,252.5a42.91,42.91,0,0,1,7.16-.52c4.51,0,7.44.73,9.68,2.44,2.45,1.82,4,4.75,4,8.94,0,4.51-1.64,7.61-3.88,9.54-2.48,2.06-6.29,3-10.9,3a45.63,45.63,0,0,1-6-.35Zm5.31,19.18a10,10,0,0,0,1.85.1c4.86,0,8-2.62,8-8.24,0-5.06-2.86-7.47-7.47-7.47a11.3,11.3,0,0,0-2.41.21Z" transform="translate(-161.62 -226.92)"/><path class="cls-18" d="M210.66,252.15v13.52c0,4.09,1.57,6.15,4.26,6.15s4.33-2,4.33-6.15V252.15h5.31v13.2c0,7.27-3.67,10.72-9.81,10.72-5.94,0-9.4-3.32-9.4-10.79V252.15Zm10.48-5.66-4.37,4.4h-4.19l3.07-4.4Z" transform="translate(-161.62 -226.92)"/><path class="cls-18" d="M229.17,275.69V252.15h6.22l4.89,8.63a74.28,74.28,0,0,1,3.84,8.07h.07a97.23,97.23,0,0,1-.42-9.85v-6.85h4.89v23.54h-5.59l-5-9.08A83.28,83.28,0,0,1,234,258.3h-.14c.17,3.14.24,6.46.24,10.3v7.09Z" transform="translate(-161.62 -226.92)"/><path class="cls-18" d="M260.33,275.69V252.15h6.22l4.89,8.63a74.24,74.24,0,0,1,3.84,8.07h.07a97.26,97.26,0,0,1-.42-9.85v-6.85h4.89v23.54h-5.59l-5-9.08a83.26,83.26,0,0,1-4.09-8.31H265c.17,3.14.24,6.46.24,10.3v7.09Z" transform="translate(-161.62 -226.92)"/><path class="cls-18" d="M289.87,269.65l-1.64,6h-5.52l7.2-23.54h7l7.33,23.54h-5.73l-1.82-6Zm6-4-1.47-5c-.38-1.4-.8-3.18-1.15-4.54h-.1c-.31,1.4-.7,3.18-1,4.54l-1.43,5Z" transform="translate(-161.62 -226.92)"/><path class="cls-18" d="M314.39,275.69V252.15h6.22l4.89,8.63a74.25,74.25,0,0,1,3.84,8.07h.07A97.11,97.11,0,0,1,329,259v-6.85h4.89v23.54h-5.59l-5-9.08a83.41,83.41,0,0,1-4.09-8.31H319c.17,3.14.24,6.46.24,10.3v7.09Z" transform="translate(-161.62 -226.92)"/><path class="cls-18" d="M358.16,274.61a26.33,26.33,0,0,1-7.86,1.33c-4.3,0-7.41-1.08-9.57-3.14a11.8,11.8,0,0,1-3.32-8.59c0-7.82,5.73-12.29,13.45-12.29a17,17,0,0,1,6.53,1.12l-1.12,4.3a12.34,12.34,0,0,0-5.45-1c-4.44,0-7.82,2.51-7.82,7.61,0,4.89,3.07,7.72,7.44,7.72a8.16,8.16,0,0,0,2.58-.31v-5h-3.63v-4.16h8.77Z" transform="translate(-161.62 -226.92)"/><path class="cls-18" d="M367.76,269.65l-1.64,6H360.6l7.2-23.54h7l7.33,23.54h-5.73l-1.82-6Zm6-4-1.47-5c-.38-1.4-.8-3.18-1.15-4.54H371c-.31,1.4-.7,3.18-1,4.54l-1.43,5Z" transform="translate(-161.62 -226.92)"/><path class="cls-18" d="M385.26,252.15h5.31v19.07h9.36v4.47H385.26Z" transform="translate(-161.62 -226.92)"/><path class="cls-18" d="M403.11,252.15h5.31v19.07h9.36v4.47H403.11Z" transform="translate(-161.62 -226.92)"/></svg>