<svg id="Layer_1" data-name="Layer 1" xmlns="http://www.w3.org/2000/svg" viewBox="0 0 198.51 233.69"><defs><style>.cls-1,.cls-7{fill:#1d1d1b;}.cls-2{fill:#fc0;}.cls-16,.cls-17,.cls-3,.cls-5{fill:#fff;}.cls-10,.cls-11,.cls-12,.cls-14,.cls-16,.cls-3,.cls-4,.cls-5,.cls-7{stroke:#1d1d1b;}.cls-4,.cls-8{fill:#004f9f;}.cls-12,.cls-4,.cls-5,.cls-7{stroke-width:2px;}.cls-6{fill:#96368b;}.cls-12,.cls-9{fill:#13a538;}.cls-10,.cls-11,.cls-13,.cls-14{fill:none;}.cls-11{stroke-width:0.96px;}.cls-13{stroke:#fff;}.cls-13,.cls-14{stroke-width:2px;}.cls-15{fill:#e30613;}.cls-16{stroke-width:2.02px;}</style></defs><title>Cavan Crest new</title><path class="cls-1" d="M204,298.5H393.5v121c0,39.5-43.5,107.5-95.5,109-52,.5-94.5-74-94.5-105.5C203.5,424,204,298.5,204,298.5Z" transform="translate(-198.39 -298.5)"/><path class="cls-2" d="M209.6,301.53h180V409.38c.25,66.13-41.33,95.81-90.73,97.15-49.4.45-89.52-38-89.77-94C209.13,413.39,209.6,301.53,209.6,301.53Z" transform="translate(-198.39 -298.5)"/><polygon class="cls-3" points="100.11 112.84 178.96 34 21.27 34 100.11 112.84"/><path class="cls-4" d="M298.51,411.35l63.9,63.9c10.21-15.63,16.31-36.87,16.22-64.3V332.5h-1.27Z" transform="translate(-198.39 -298.5)"/><path class="cls-5" d="M235.71,474.15c14.52,22.39,37.23,35.62,62.75,35.36,25.8-.8,49.19-11.66,64-34.26l-63.9-63.9Z" transform="translate(-198.39 -298.5)"/><path class="cls-6" d="M219.43,332.27l0,0-.25.25h.27C219.43,332.43,219.43,332.35,219.43,332.27Z" transform="translate(-198.39 -298.5)"/><path class="cls-6" d="M219.43,332.27c0,.08,0,.15,0,.23h.23Z" transform="translate(-198.39 -298.5)"/><path class="cls-5" d="M219.54,301.53s0,13.29-.11,30.74l.23.23h159v-31Z" transform="translate(-198.39 -298.5)"/><path class="cls-7" d="M298.51,411.35,219.66,332.5h-.23c-.11,28.72-.25,68.53-.29,79h79.22Z" transform="translate(-198.39 -298.5)"/><path class="cls-8" d="M235.71,474.15l62.64-62.64H219.14c0,1.75,0,2.69,0,2.6C219.22,437.71,225.39,458.24,235.71,474.15Z" transform="translate(-198.39 -298.5)"/><path class="cls-9" d="M220.75,401c5.5-5.25,22.25-4.75,28.75,5.5H220.75Z" transform="translate(-198.39 -298.5)"/><path class="cls-9" d="M270.5,406.75H251.25c-3.25-5-5.75-5.5-7.25-6.25C247,396.75,267.5,401.25,270.5,406.75Z" transform="translate(-198.39 -298.5)"/><path class="cls-9" d="M221.5,394.5c3.75-3.5,12.5-4.25,15.25-1.75l-15.5,6.75Z" transform="translate(-198.39 -298.5)"/><path class="cls-9" d="M221.75,388l-.25,5.5c3.25-3,14-4.5,16.25-1.75a34.91,34.91,0,0,0,5.75-.5c1.75-2,13-3.25,14.75,0,.25.75,5.75-.75,5.75-.75-6.25-4.5-18.25-7.75-27-7.5-7.5-3-8.5-3-9.75-1.75A40.85,40.85,0,0,0,221.75,388Z" transform="translate(-198.39 -298.5)"/><path class="cls-9" d="M221,377.5v8.25c3.25-4.25,9.5-13.5,22.5-7C242.25,376.75,225.75,367.25,221,377.5Z" transform="translate(-198.39 -298.5)"/><path class="cls-9" d="M247,378.75c4.75-2,18.25-4,23.75,7.5C264.25,384.75,247,378.75,247,378.75Z" transform="translate(-198.39 -298.5)"/><path class="cls-9" d="M264,400c-2.5-1-6.75-4.25-9.5-4.25,1.25-3,14.5-3.75,16.5.25C267.5,396.75,264.25,399.25,264,400Z" transform="translate(-198.39 -298.5)"/><path class="cls-9" d="M235.5,394.75c2.25-3,15.25-1,16,1-6,.75-7,3.25-8.25,4C242,399,236.25,395,235.5,394.75Z" transform="translate(-198.39 -298.5)"/><path class="cls-9" d="M265.75,391.5c4.25.75,7,3,7.5,4.75,3,.25,8.75,1.5,12,3.75,0,.5-5.75-7.25-5.75-7.25-2.25.5-4,.75-4,.75C274.75,392.5,271.25,389.5,265.75,391.5Z" transform="translate(-198.39 -298.5)"/><path class="cls-9" d="M252.5,394.5l5.25-2.5c-3.75-2.25-9-3-11.75.25C247,392.5,252.5,394.5,252.5,394.5Z" transform="translate(-198.39 -298.5)"/><path class="cls-9" d="M265.25,400.75c4.75,3.25,6.75,5.5,7,6.75,0,.25,13-.25,13-.25a43.28,43.28,0,0,0-11-1.75c3.25-2,13.25-1.5,15.75,0-2.5-2.25-13.25-8.25-19-6.5C272.25,397.75,269.25,397.5,265.25,400.75Z" transform="translate(-198.39 -298.5)"/><polygon class="cls-3" points="87.9 148.6 87.9 131.73 101.96 126.1 113.21 131.73 112.74 150.01 87.9 148.6"/><path class="cls-10" d="M297.17,443.34l.4-12.2c-1-2.33-7.74-2.13-9.07,1.87v13Z" transform="translate(-198.39 -298.5)"/><path class="cls-1" d="M290.28,444.39l.15-10.27c.74-1.79,3.28-4,5.66-1.19.15.15,0,9.53,0,9.53Z" transform="translate(-198.39 -298.5)"/><rect class="cls-1" x="94.12" y="131.15" width="1.64" height="2.38"/><rect class="cls-1" x="90.1" y="135.76" width="2.53" height="1.79"/><rect class="cls-1" x="96.65" y="134.42" width="2.38" height="1.79"/><path class="cls-11" d="M302.26,443.34l-.37-12.2c.92-2.33,7.1-2.13,8.33,1.87v13Z" transform="translate(-198.39 -298.5)"/><path class="cls-1" d="M308.59,444.39l-.14-10.27c-.68-1.79-3-4-5.19-1.19-.14.15,0,9.53,0,9.53Z" transform="translate(-198.39 -298.5)"/><rect class="cls-1" x="106.64" y="131.15" width="1.5" height="2.38"/><rect class="cls-1" x="109.51" y="135.76" width="2.32" height="1.79"/><rect class="cls-1" x="103.63" y="134.42" width="2.19" height="1.79"/><path class="cls-10" d="M295,426.52c3-.45,4.17,2.38,4.76,5.51,1-3,2.23-5.21,5.51-4.91" transform="translate(-198.39 -298.5)"/><line class="cls-10" x1="101.96" y1="126.1" x2="101.96" y2="149.46"/><path class="cls-12" d="M243.17,483.19c18.28,2.81,40.31-8,55.77-6.56,22,5.62,31.87,5.16,36.09,3.28,8.91-7,23-2.81,24.37-.94-11.72,16.4-27.14,26.72-59.52,28.12s-51.09-14.53-56.71-23.9" transform="translate(-198.39 -298.5)"/><path class="cls-3" d="M300,441.25l-14.5,3.5-3,60.5c8,2.5,30.25,1.5,33.25,0,0-.25-4.25-58.5-4.25-58.5Z" transform="translate(-198.39 -298.5)"/><path class="cls-1" d="M304.5,485.75l5.5.25.25-11.25c0-2.25-3.91-4.57-5.66-2.07C304.59,473.18,304.5,485.75,304.5,485.75Z" transform="translate(-198.39 -298.5)"/><rect class="cls-1" x="91.86" y="187.25" width="2.75" height="5.75"/><path class="cls-1" d="M304.18,506.21c-.54-5.86,2.32-8.71,4.32-9,2.75,0,5,3,5.5,8C313.42,506.48,304.21,506.62,304.18,506.21Z" transform="translate(-198.39 -298.5)"/><path class="cls-10" d="M302.33,506.34c.17-2.83.5-11.5,6.5-11.83,5.83-.17,6.83,7.83,6.92,10.75C315,506,302.28,507.33,302.33,506.34Z" transform="translate(-198.39 -298.5)"/><line class="cls-10" x1="109.07" y1="199.35" x2="108.27" y2="196.67"/><line class="cls-10" x1="111.1" y1="199.05" x2="111.44" y2="196.17"/><line class="cls-10" x1="112.41" y1="200.18" x2="114.27" y2="197.83"/><line class="cls-10" x1="113.67" y1="201.5" x2="115.61" y2="199"/><line class="cls-10" x1="114.39" y1="203.05" x2="116.27" y2="201.67"/><line class="cls-10" x1="115.22" y1="204.78" x2="116.77" y2="204.67"/><line class="cls-10" x1="107.69" y1="200.3" x2="106.11" y2="198.67"/><line class="cls-10" x1="106.74" y1="201.86" x2="105.11" y2="200.83"/><line class="cls-10" x1="106.56" y1="203.95" x2="104.61" y2="202.83"/><line class="cls-10" x1="85.86" y1="173" x2="101.36" y2="173"/><line class="cls-10" x1="101.37" y1="166.11" x2="114.59" y2="169.42"/><polyline class="cls-10" points="98.61 151.25 96.36 151 96.36 153.75 101.36 154.25"/><polyline class="cls-10" points="104.36 156.75 104.36 158.75 109.61 158.75 109.86 157"/><polyline class="cls-10" points="99.61 161 96.61 161 96.61 164.5 100.36 164.5"/><polyline class="cls-10" points="91.36 166 91.36 164.5 89.61 164.5 89.61 168"/><polyline class="cls-10" points="97.36 182.5 97.36 180.75 102.11 181"/><polyline class="cls-10" points="101.86 184 99.61 184 99.61 186.75"/><polyline class="cls-10" points="109.61 190.5 109.61 188.75 105.61 188.75 105.61 191"/><line class="cls-10" x1="102.61" y1="192.25" x2="107.11" y2="192.25"/><line class="cls-10" x1="107.11" y1="195.25" x2="102.61" y2="195.25"/><polyline class="cls-10" points="114.11 193.5 111.36 193.5 111.36 195.5"/><polyline class="cls-10" points="96.11 194.5 97.36 194.5 97.36 191.5 95.36 191.5"/><polyline class="cls-10" points="88.86 194.5 86.11 194.5 86.11 197 89.61 197 89.61 200 91.36 200 91.36 201.25"/><polyline class="cls-10" points="99.61 200.25 96.86 200.25 96.86 203.5 101.61 203.5"/><line class="cls-10" x1="96.36" y1="205.25" x2="96.36" y2="208.5"/><polyline class="cls-10" points="104.36 150 104.36 151.25 105.86 151.25"/><line class="cls-10" x1="108.86" y1="152.25" x2="112.11" y2="152.25"/><line class="cls-10" x1="110.11" y1="154" x2="113.11" y2="154"/><polyline class="cls-10" points="101.61 161.25 107.36 161.25 107.36 159.25"/><polyline class="cls-10" points="106.11 145.25 106.11 147.75 106.11 149"/><path class="cls-10" d="M301.5,446.25" transform="translate(-198.39 -298.5)"/><line class="cls-10" x1="101.61" y1="142.75" x2="100.86" y2="208"/><polyline class="cls-10" points="86.86 180 90.86 180 90.86 177.75"/><polyline class="cls-10" points="86.61 171 91.36 171 91.36 169"/><polyline class="cls-10" points="91.11 159.5 88.36 159.5 88.36 157"/><polyline class="cls-10" points="110.86 166.5 110.86 164.5 113.61 164.5"/><line class="cls-10" x1="113.61" y1="172.5" x2="111.86" y2="172.5"/><polyline class="cls-10" points="115.11 194.5 115.11 196.25 112.86 196.25"/><line class="cls-10" x1="87.36" y1="200" x2="84.86" y2="200"/><line class="cls-10" x1="104.23" y1="205.32" x2="106.08" y2="205.98"/><polyline class="cls-10" points="88.6 147.83 91.6 147.83 91.6 150.5"/><polyline class="cls-10" points="98.94 169.5 96.6 169.5 96.6 171.17 100.6 171.17"/><polyline class="cls-10" points="86.27 186.5 89.27 186.5 89.27 188.5"/><path class="cls-13" d="M219.5,420.87a7.66,7.66,0,0,0,4.42-2.74c1.76,2.55,7.56,3.36,9.86,0,1.76,3.23,7.7,3.23,9.72-.13,1.89,3.63,8.1,3.23,10-.13,1.76,3,7.43,4.3,9.86.13,2.57,2.82,6.55,4.7,10.2.54,1.62,2.82,7.56,4,10.13-.4a5.85,5.85,0,0,0,5.67,2.82" transform="translate(-198.39 -298.5)"/><path class="cls-13" d="M220.89,432.63a8.84,8.84,0,0,0,2.36-2c1.76,2.55,7.56,3.36,9.86,0,1.76,3.23,7.7,3.23,9.72-.13,1.89,3.63,8.1,3.23,10-.13,1.76,3,7.43,4.3,9.86.13,2.57,2.82,6.55,4.71,10.19.54a5.55,5.55,0,0,0,3.76,2.4" transform="translate(-198.39 -298.5)"/><path class="cls-13" d="M223.25,446.09c1.76,2.55,7.56,3.36,9.86,0,1.76,3.23,7.7,3.23,9.72-.13,1.89,3.63,8.1,3.23,10-.13,1.76,3,7.43,4.3,9.86.13q.37.41.78.78" transform="translate(-198.39 -298.5)"/><path class="cls-13" d="M230.34,464.45a5.51,5.51,0,0,0,4.52-2.22c1.76,3.23,7.7,3.23,9.72-.13a4.41,4.41,0,0,0,1.56,1.69" transform="translate(-198.39 -298.5)"/><path class="cls-14" d="M236,474l62.94-62.64H219.36c0,1.75,0,2.69,0,2.6C219.44,437.51,225.64,458,236,474Z" transform="translate(-198.39 -298.5)"/><path class="cls-8" d="M221.5,337.25l34.5,34.5c-4.75,2.25-9.5,4-10.75,6.25-3.75-2.25-18.75-13.75-23.25-6.75Z" transform="translate(-198.39 -298.5)"/><path class="cls-1" d="M306.57,383.87c5.33-5,9.72-12.34,8.3-31.1-1.9-2.23-4.74-1.84-5.57-.39,0-2.23,2.25-15.22-5.21-14.17.12-2.1-4.38-4.6-5-.26-2.25,0-3.79,1.44-4.15,4.46a4.63,4.63,0,0,0-4.62,4.33c0,.13-1.9,25.2.36,31.76,1.3,3.54,2,4,1.42,5.77C291.87,384.39,306.57,383.87,306.57,383.87Z" transform="translate(-198.39 -298.5)"/><path class="cls-15" d="M303.61,381.11c3.43-1.21,7.23-2.62,9.36-13.25-.24-7.09-.69-10.88.48-13.12-.59-1.44-2.76-2.84-3.83-.08-.08.28-.39,1-.74,1.89-.35,1.08,1.57.89,1.45,1.24s-1.91-.18-2,.16c-.68,2.46-1.1,6.07.85,7.94,1.07,2.1-.83.26-2.84-1.44-2.37-.52-4.74,5.12-7.47,12.6a79.55,79.55,0,0,1,1.54-8.79l-6,4.72,5.21-5.64-6.64-1.7,8.3.79c2.49-.92,4.5-4.59,5.45-6.43.47-.39.24-19,.24-19-.12-1.18-3-2.1-3.08.13.24.52-.59,17.45-.59,17.45-.35,1.18-1.07,1.05-.95-.52-.24-.39.24-19.16.24-19.16,0-1.58-2.13-3.41-2.49-.65-.12.26-.59,20.87-.59,20.87-.59,1.71-1.3.66-1.06-.53l.36-17.58c-.12-.92-2.25-1-2.37.66.12.13-.71,16.8-.71,16.8-.24,1.05-1.54.39-1.42-.39s.35-12.6.35-12.6c-.24-1.31-2.37-1.05-3,1,.12.66-1.3,27.17-.12,31,1.18,3.54,2.13,5.12,4.86,5.25S302.82,381.39,303.61,381.11Z" transform="translate(-198.39 -298.5)"/><path class="cls-1" d="M289.86,395.73h-1.64V389.5a5.66,5.66,0,0,1-2.12,1.25v-1.5a4.74,4.74,0,0,0,1.4-.8,3,3,0,0,0,1-1.37h1.33Z" transform="translate(-198.39 -298.5)"/><path class="cls-1" d="M293.73,391.09a1.93,1.93,0,0,1-.93-.74,2,2,0,0,1-.29-1,2.1,2.1,0,0,1,.67-1.59,3.16,3.16,0,0,1,3.79,0,2.09,2.09,0,0,1,.67,1.59,1.9,1.9,0,0,1-.31,1.07,2,2,0,0,1-.87.71,2.29,2.29,0,0,1,1.08.84,2.22,2.22,0,0,1,.37,1.27,2.6,2.6,0,0,1-.76,1.94,2.74,2.74,0,0,1-2,.75,3,3,0,0,1-1.94-.62,2.41,2.41,0,0,1-.92-2,2.47,2.47,0,0,1,.35-1.28A2.23,2.23,0,0,1,293.73,391.09Zm.19,2a1.54,1.54,0,0,0,.35,1.07,1.11,1.11,0,0,0,.86.38,1.07,1.07,0,0,0,.84-.37,1.55,1.55,0,0,0,.33-1.07,1.39,1.39,0,0,0-.34-1,1.11,1.11,0,0,0-.85-.37,1,1,0,0,0-.89.42A1.55,1.55,0,0,0,293.92,393.12Zm.16-3.69a1.05,1.05,0,0,0,.27.77,1,1,0,0,0,.73.28,1,1,0,0,0,.74-.28,1.05,1.05,0,0,0,.28-.77,1,1,0,0,0-.27-.74,1,1,0,0,0-.72-.28,1,1,0,0,0-.74.28A1,1,0,0,0,294.08,389.43Z" transform="translate(-198.39 -298.5)"/><path class="cls-1" d="M300.41,391.09a1.85,1.85,0,0,1-1.22-1.78,2.09,2.09,0,0,1,.67-1.59,3.16,3.16,0,0,1,3.79,0,2.09,2.09,0,0,1,.67,1.59,1.9,1.9,0,0,1-.31,1.07,2,2,0,0,1-.87.71,2.29,2.29,0,0,1,1.08.84,2.22,2.22,0,0,1,.37,1.27,2.6,2.6,0,0,1-.76,1.94,2.74,2.74,0,0,1-2,.75,3,3,0,0,1-1.94-.62,2.41,2.41,0,0,1-.92-2,2.47,2.47,0,0,1,.35-1.28A2.23,2.23,0,0,1,300.41,391.09Zm.19,2a1.54,1.54,0,0,0,.34,1.07,1.11,1.11,0,0,0,.86.38,1.07,1.07,0,0,0,.84-.37,1.55,1.55,0,0,0,.33-1.07,1.39,1.39,0,0,0-.34-1,1.1,1.1,0,0,0-.85-.37,1,1,0,0,0-.89.42A1.55,1.55,0,0,0,300.59,393.12Zm.16-3.69a1,1,0,0,0,.27.77,1,1,0,0,0,.73.28,1,1,0,0,0,.74-.28,1.05,1.05,0,0,0,.28-.77,1,1,0,0,0-.27-.74,1,1,0,0,0-.72-.28,1,1,0,0,0-.74.28A1,1,0,0,0,300.75,389.43Z" transform="translate(-198.39 -298.5)"/><path class="cls-1" d="M311.24,389.22l-1.59.17a1.15,1.15,0,0,0-.3-.72.88.88,0,0,0-.63-.23,1.07,1.07,0,0,0-.88.47,4,4,0,0,0-.45,1.95,1.92,1.92,0,0,1,1.53-.73,2.33,2.33,0,0,1,1.77.79,2.87,2.87,0,0,1,.74,2,2.93,2.93,0,0,1-.77,2.13,2.81,2.81,0,0,1-4.12-.21,5.23,5.23,0,0,1-.84-3.32,5.33,5.33,0,0,1,.87-3.41,2.8,2.8,0,0,1,2.26-1,2.4,2.4,0,0,1,1.62.55A2.57,2.57,0,0,1,311.24,389.22Zm-3.72,3.61a1.89,1.89,0,0,0,.37,1.25,1.08,1.08,0,0,0,.84.44,1,1,0,0,0,.76-.36,1.83,1.83,0,0,0,.31-1.18,1.91,1.91,0,0,0-.33-1.24,1.05,1.05,0,0,0-1.62,0A1.64,1.64,0,0,0,307.52,392.83Z" transform="translate(-198.39 -298.5)"/><path class="cls-5" d="M215.5,472.5c7.5,9.5,35.5,17,34,22C248,498.5,244,517,233,513c-13.5-6-28-15.5-32.5-25,10.5,5,16.5,5.5,22,6C218.5,487.5,216,475,215.5,472.5Z" transform="translate(-198.39 -298.5)"/><path class="cls-5" d="M381.5,473.5c-3,.5-38,17-33.5,19.5,5,2,12.5,21,12.5,21A50.06,50.06,0,0,0,396,487c-9.5,7-21.5,6.5-23,7C377,488.5,383.47,473.17,381.5,473.5Z" transform="translate(-198.39 -298.5)"/><path class="cls-16" d="M240,493.84s-4,14.26-7,18.84c-1,7.13.5,7.64,3,8.65,18.5,5.6,95.5,19.86,128-1.53,3.5-6.11-7-21.89-7-26C352,498.93,285,522.86,240,493.84Z" transform="translate(-198.39 -298.5)"/><line class="cls-5" x1="159.08" y1="195.22" x2="150.72" y2="192.96"/><path class="cls-5" d="M240,494.5s9.5-2.6,9.5,0" transform="translate(-198.39 -298.5)"/><path class="cls-1" d="M236.51,321.5l-4.08-8.55a5.84,5.84,0,0,0-1.75-2.53h-6.22s.39,1.55.58,1.36c4.47-.78,4.47,3.5,4.28,4.86a33.09,33.09,0,0,0-5.83,5.83c-1.75,5.05,6,4.86,9.13.39l2.92,2.92h4.28a8.66,8.66,0,0,0-1-1.55C237.79,324.41,236.51,321.49,236.51,321.5Zm-5.43.45a1.91,1.91,0,0,1-2.91.38c-.84-.62-1-1.39-.13-2.62s2.31-1.72,3.15-1.1S232,320.73,231.07,322Z" transform="translate(-198.39 -298.5)"/><path class="cls-1" d="M302.64,324.78a8.68,8.68,0,0,0-1-1.55c-1.05.19-2.33-2.73-2.33-2.72l-4.08-8.55a5.84,5.84,0,0,0-1.75-2.53h-6.22s.39,1.55.58,1.36c4.47-.78,4.47,3.5,4.28,4.86a33.09,33.09,0,0,0-5.83,5.83c-1.75,5.05,6,4.86,9.13.39l2.92,2.92ZM293.91,321a1.91,1.91,0,0,1-2.91.38c-.84-.62-1-1.39-.13-2.62s2.31-1.72,3.15-1.1S294.81,319.73,293.91,321Z" transform="translate(-198.39 -298.5)"/><path class="cls-1" d="M254.71,324.18c0,1,0,1.65,0,1.65l3.5.17V310.67h-5.83v1.17s2.17-.17,2.33,1c.23.11.14,6.07.07,9.88l-.24,0c-3.83-.67-7.83-8.5-9.5-12h-5.83v1.17s2.17-.17,2.33,1c.33.17,0,13,0,13l3.5.17v-7c2.4,1.8,8.12,5.12,9.5,5.12Z" transform="translate(-198.39 -298.5)"/><path class="cls-1" d="M352.71,321.5l-4.08-8.55a5.84,5.84,0,0,0-1.75-2.53h-6.22s.39,1.55.58,1.36c4.47-.78,4.47,3.5,4.28,4.86a33.12,33.12,0,0,0-5.83,5.83c-1.75,5.05,6,4.86,9.13.39l2.92,2.92H356a8.66,8.66,0,0,0-1-1.55C354,324.41,352.71,321.49,352.71,321.5Zm-5.43.45a1.91,1.91,0,0,1-2.91.38c-.84-.62-1-1.39-.13-2.62s2.31-1.72,3.15-1.1S348.18,320.73,347.28,322Z" transform="translate(-198.39 -298.5)"/><path class="cls-1" d="M368.54,310.67v1.17s2.17-.17,2.33,1c.23.11.14,6.07.07,9.88l-.24,0c-3.83-.67-7.83-8.5-9.5-12h-5.83v1.17s2.17-.17,2.33,1c.33.17,0,13,0,13l3.5.17v-7c2.39,1.8,8.12,5.12,9.5,5.12h.21c0,1,0,1.65,0,1.65l3.5.17V310.67Z" transform="translate(-198.39 -298.5)"/><path class="cls-1" d="M284.33,323.67c-5,.17-9.83,0-9.67-5.5,0-3.67,4.33-8.33,6.5-4.83l-.33,1.5,3.83-2.5c-1.17-2.33-4-2.17-7-2s-7,3.17-7,8.83C270.67,324.67,278.5,328.5,284.33,323.67Z" transform="translate(-198.39 -298.5)"/><path class="cls-1" d="M315.17,316.84c1.33-.83,2-1.33,2-4-1.14-4-6.71-2.36-9.31-.76l0-1.41H301.5s-.17,1.33,0,1.33c2.5-.17,2.67.17,2.83,1v9.83c4,7.17,13.64,2.51,14-1A4.11,4.11,0,0,0,315.17,316.84Zm-7.17,6-.12-8.61.45-.23c8.83-4.51,5.72,3,1.17,3.17,0,0,0,1.17-.17,1.17,3-.53,5.17-.13,5.5,1.33C314.6,325.44,308.67,323.84,308,322.84Z" transform="translate(-198.39 -298.5)"/><path class="cls-1" d="M333.38,310.5c-5.17-.11-6.08.75-7.5,2.4v-6.4h-6.75s.25,1.25.13,1.38a3.66,3.66,0,0,1,2.63,1.12v16.87h4V314.42c1.67-1.46,3.86-1.35,5.93-1.23,5.27,1.07-.76,12.59-4.81,15.44,7.13-.5,10.13-8.37,10.38-11C337.38,316.38,338.88,311.38,333.38,310.5Z" transform="translate(-198.39 -298.5)"/><polygon class="cls-1" points="152.48 8.67 150.25 6.25 145.78 9.98 147.64 10.54 152.48 8.67"/><path class="cls-1" d="M272.94,517.42c2-.62,4.07-.31,4.07-3s-3.44-2.66-8-2l.16-1.41-4.85-.16-.31.78,1.41.78-.63,8.3-.47.78,3.17.31v-4.85l6.38,5.79s4.85.16,4.85,0C277,522.58,272.78,517.42,272.94,517.42Zm-4.07-1.88c-1.45-1.32,3.6-3.91,4.7-1.1C273.88,516.48,270.59,517.1,268.87,515.54Z" transform="translate(-198.39 -298.5)"/><path class="cls-1" d="M258.07,506.46c-3.29-.31-7.2-.47-7.2-.47s1.41-2-4.23-1.72l.63,1.72s-2.19,9.55-1.41,10.33c1.41,1.41,11.27,4.54,13.78.94,1.1-2.82,0-4.07-2-4.7C260.73,510.84,261.36,506.77,258.07,506.46Zm-6.58,5.32a13.34,13.34,0,0,0,3.29,1.72c3,3.76-.94,4.07-3.6,3.45-2.5-.47-1.68-3.6-1.68-5.32s0-4.38,5-4.23C260.73,508,255.56,512.25,251.49,511.78Z" transform="translate(-198.39 -298.5)"/><path class="cls-1" d="M291.25,516.63l2.66-1.56c-3.76-2.19-12.68-2.35-13,2.82s7,8,12.05,5c-3-.16-7.51-1.1-8.45-3.13l9.39-.47v-.94h-9.55C284.52,516.16,287.34,513.5,291.25,516.63Z" transform="translate(-198.39 -298.5)"/><path class="cls-1" d="M344,514.43l8.9-3-.26-.9-9.18,2.64c-.46-2.15,1.52-5.48,6.14-3.56l2.12-2.24c-4.22-1.07-12.83,1.24-11.71,6.29s9,5.74,13,1.49C350.07,515.77,345.45,516.12,344,514.43Z" transform="translate(-198.39 -298.5)"/><polygon class="cls-1" points="95.05 211.71 87.38 212.96 95.21 212.96 95.05 211.71"/><polygon class="cls-1" points="102.56 215.16 97.24 215.16 97.24 216.72 99.61 216.72 99.61 225.33 105.54 225.33 105.54 224.55 102.56 224.55 102.56 215.16"/><path class="cls-1" d="M315.83,516.16s2.51-2.51,2.35-2.82c-3.29.16-7.67-.62-10.8,3.76,0,0,0,1.64,0,3.6H305v1.1h2.29c0,2.6,0,5.32.06,5.32l2.82-1.25s-.11-2-.22-4.07h7.42v-1.1h-7.48c-.1-1.93-.19-3.69-.19-3.76C311,514.6,314.27,515.54,315.83,516.16Z" transform="translate(-198.39 -298.5)"/><path class="cls-1" d="M330.55,510.69l.16.94,2.66.63s.47,7.2.31,7c-3.91-.16-8.3-4.54-9.24-7.2l-4.85,1.56,2.5.63.31,9.39,3.13-.16s-.16-5.48-.16-5.64a77.65,77.65,0,0,0,9.08,3.29l2.82-.47-1.41-10.64Z" transform="translate(-198.39 -298.5)"/><path class="cls-17" d="M363,404.58c-1.45-2.35-3.91-4.39-6.83-4.39a20.77,20.77,0,0,0-3.61.31l.49.63c2,.25,3,1.94,3.88,3.49L352.41,411c-1.4-2.13-2.82-4.26-4.2-6.4-1.81-2.8-4.23-4.39-6.85-4.39a20.52,20.52,0,0,0-3.59.31l.49.63c2,.25,3,1.94,3.88,3.49l-5,7.11a8.12,8.12,0,0,0-4.67-1.13,20.19,20.19,0,0,0-5,.61l.49.62a8.42,8.42,0,0,1,6.53,3.6l-.73,1a8,8,0,0,1-6.55,3.51c-5.2,0-7.39-5.06-7.39-9.49,0-3.77,2.2-7.66,6.44-7.66,2.1,0,4.59.86,5.62,2.79a15.78,15.78,0,0,1,3-.32,9.81,9.81,0,0,0-9-5.43,11.62,11.62,0,0,0-.26,23.23,11.73,11.73,0,0,0,10.27-5.56c1.59,2.66,3.78,5.4,7.22,5.4,3.84,0,5.56-2.61,7.51-5.41.41.62.8,1.25,1.23,1.87a7.48,7.48,0,0,0,6,3.54c3.83,0,5.57-2.59,7.51-5.39,1.58,2.39,3.22,5.19,6.51,5.19h2.28Zm-18.35,14.66c-2.46,0-4.1-4.49-5.65-6l4.56-6.48,5.73,8.74C348.24,416.93,346.61,419.24,344.61,419.24Zm14.75,0a3.3,3.3,0,0,1-2.62-1.67l-3-4.5,4.49-6.35,5.69,8.7C363.12,417,361.35,419.24,359.36,419.24Z" transform="translate(-198.39 -298.5)"/></svg>