<?xml version="1.0" encoding="utf-8"?>
<!-- Generator: Adobe Illustrator 19.0.1, SVG Export Plug-In . SVG Version: 6.00 Build 0)  -->
<svg version="1.1" id="Layer_1" xmlns="http://www.w3.org/2000/svg" xmlns:xlink="http://www.w3.org/1999/xlink" x="0px" y="0px"
	 viewBox="0 0 100 100" style="enable-background:new 0 0 100 100;" xml:space="preserve">
<style type="text/css">
	.st0{fill:#FFFFFF;}
	.st1{fill:#FEBE10;}
	.st2{fill:#FFFFFF;stroke:#FEBE10;stroke-width:0.2456;}
	.st3{fill:#FFFFFF;stroke:#000000;stroke-width:3.550802e-02;}
</style>
<g>
	<path d="M83.2,99V1l-2.4,0.4c-1.2,0.2-29.1,5-47.4,18.3C18.2,30.8,18,42.3,18,42.8V99H83.2z"/>
	<path class="st0" d="M80.5,96.7V3.9l-2.2,0.4c-1.1,0.2-26.7,4.8-43.4,17.4c-14,10.5-14.1,21.4-14.1,21.8v53.2H80.5z"/>
	<path class="st1" d="M78.6,66.6V7.2c0,0-26,4.4-42.6,16.5c-13.3,9.7-13.3,19.6-13.3,19.6v40.8L78.6,66.6z"/>
	<path d="M50.6,15.6c-5.1,2.2-10.2,4.9-14.6,8.1c-13.3,9.7-13.3,19.6-13.3,19.6v40.8l27.9-8.7V15.6z"/>
	<path class="st1" d="M39.7,17.4c8.3,14.3,7.6,27.6,7.6,27.6c-5.9-11.2-23.2-9.4-23.2-9.4s-1.3,4.8,4,5c0,0,14.2,1.2,16.1,13.1
		c2.3,14.8-27.5,32.1-27.5,32.1c27.4-12.4,31.8-27.1,31.8-27.1c0.5,2.6,1,14.7,1,14.7c0.7-7.2,1.1-11.3,1.3-30.2
		c0.3-18.9-9.2-35-9.2-35S36.7,12.2,39.7,17.4z"/>
	<path class="st1" d="M44.6,35.3c0,1.3-1.2,2.3-2.6,2.3c-1.4,0-2.6-1-2.6-2.3c0-1.3,1.2-2.3,2.6-2.3C43.4,33,44.6,34,44.6,35.3z"/>
	<path class="st0" d="M62.7,15.1c-8.4,15.3-7.8,27.5-7.8,27.5c1.3-3.4,4.9-9.5,7-11.9c2.1-2.4,6.6-8.1,6.6-8.1s4.1,0.4,1,5.1
		c-6.6,10-10.6,13-11.1,24.5C57.9,63.6,66,70.9,66,70.9l-1.3,0.5c-8.3-6.5-11.1-14.8-11.1-14.8c-0.2,3.2-0.8,15.1-0.8,15.1
		s-1.6-7.5-1.7-28.5C51,22.1,60.3,6,60.3,6S65.5,9.8,62.7,15.1z"/>
	<path class="st0" d="M60.9,16.3l13.6,17.5c0,0,2.4,3.5,1.9,5.8c-0.6,2.3-1.5,2-1.9,1.7c-0.4-0.3-1.5-0.5-1.8-2.9
		c-0.4-2.4-0.8-3.1-2.5-5.6C68.5,30.3,60,17.3,60,17.3L60.9,16.3z"/>
	<path class="st0" d="M61.7,29.4c0,1.2-1,2.1-2.3,2.1c-1.3,0-2.3-0.9-2.3-2.1c0-1.2,1-2.1,2.3-2.1C60.7,27.3,61.7,28.2,61.7,29.4z"
		/>
	<ellipse class="st2" cx="50.6" cy="75.7" rx="2.8" ry="2.9"/>
	<g>
		<g>
			<path d="M64.9,80.3C64.9,80.3,64.9,80.3,64.9,80.3c0.1,0.1,0.1,0.1,0.1,0.1l-0.5,2.1c0,0.1,0,0.1-0.1,0.2c0,0-0.1,0.1-0.2,0.1
				c-0.5,0.2-1,0.4-1.5,0.5c-0.5,0.1-1.1,0.2-1.8,0.2c-1.9,0-3.4-0.5-4.5-1.4c-1.1-1-1.7-2.2-1.7-3.8c0-1.7,0.6-3.2,1.7-4.2
				c1.1-1.1,2.6-1.6,4.4-1.6c0.7,0,1.3,0,1.8,0.1c0.5,0.1,1,0.2,1.5,0.4c0.1,0,0.1,0.1,0.2,0.1c0,0,0.1,0.1,0.1,0.2l0.4,2.1
				c0,0,0,0.1,0,0.1c0,0-0.1,0.1-0.1,0.1l-0.3,0.1c0,0-0.1,0-0.1,0c0,0-0.1-0.1-0.1-0.1c-0.3-0.7-0.8-1.3-1.3-1.7
				c-0.6-0.4-1.2-0.6-1.9-0.6c-1.2,0-2.2,0.4-2.9,1.3c-0.7,0.9-1.1,2-1.1,3.4c0,1.4,0.4,2.5,1.2,3.4c0.8,0.9,1.8,1.4,3,1.4
				c0.9,0,1.7-0.2,2.2-0.6c0.5-0.4,0.9-0.9,1.2-1.7c0-0.1,0.1-0.1,0.1-0.1c0,0,0.1,0,0.1,0L64.9,80.3z"/>
			<path d="M66.7,82.4c-0.1,0.1-0.2,0.2-0.4,0.3L66,82.7c-0.1,0-0.1,0.1-0.1,0.1v0.3c0,0.1,0,0.1,0,0.1c0,0,0.1,0,0.2,0
				c0.6-0.1,1.1-0.1,1.5-0.1c0.4,0,0.9,0,1.5,0.1c0.1,0,0.2,0,0.2,0c0,0,0.1-0.1,0.1-0.1v-0.3c0-0.1,0-0.1-0.1-0.1l-0.3-0.1
				c-0.2,0-0.3-0.1-0.4-0.3c-0.1-0.1-0.1-0.4-0.1-0.9v-5.2c0-0.1,0-0.1,0-0.1c0,0-0.1,0-0.2,0c-0.4,0.2-0.8,0.4-1.1,0.6
				c-0.3,0.1-0.7,0.3-1.2,0.4c-0.1,0-0.1,0.1-0.2,0.1c0,0,0,0.1,0,0.1v0.1c0,0.1,0,0.1,0,0.1c0,0,0.1,0.1,0.2,0.1
				c0.3,0.1,0.5,0.2,0.6,0.4c0.1,0.1,0.1,0.4,0.1,0.8v2.6C66.7,82,66.7,82.3,66.7,82.4z M66.8,72.7c-0.2,0.2-0.3,0.5-0.3,0.8
				c0,0.3,0.1,0.6,0.3,0.8c0.2,0.2,0.5,0.3,0.8,0.3c0.3,0,0.6-0.1,0.8-0.3c0.2-0.2,0.3-0.5,0.3-0.8c0-0.3-0.1-0.6-0.3-0.8
				c-0.2-0.2-0.5-0.3-0.8-0.3C67.2,72.3,67,72.5,66.8,72.7z"/>
			<path d="M71.2,82.4c-0.1,0.1-0.2,0.2-0.4,0.3l-0.3,0.1c-0.1,0-0.1,0.1-0.1,0.1v0.3c0,0.1,0,0.1,0.1,0.1c0,0,0.1,0,0.2,0
				c0.6-0.1,1.1-0.1,1.5-0.1c0.4,0,0.9,0,1.5,0.1c0.1,0,0.2,0,0.2,0c0,0,0.1-0.1,0.1-0.1v-0.3c0-0.1,0-0.1-0.1-0.1l-0.3-0.1
				c-0.2,0-0.3-0.1-0.4-0.3c-0.1-0.1-0.1-0.4-0.1-0.9V72c0-0.1,0-0.1,0-0.1c0,0-0.1,0-0.2,0l-1.1,0.5l-1.1,0.4
				c-0.1,0-0.2,0.1-0.2,0.1c0,0,0,0.1,0,0.1v0.1c0,0,0,0.1,0,0.1c0,0,0.1,0.1,0.2,0.1l0.1,0c0.3,0.1,0.4,0.2,0.5,0.4
				c0.1,0.1,0.1,0.4,0.1,0.8v7.1C71.3,82,71.2,82.3,71.2,82.4z"/>
			<path d="M75.9,81.5v-7.1c0-0.4,0-0.6-0.1-0.8c-0.1-0.1-0.2-0.2-0.5-0.4l-0.1,0c-0.1,0-0.1-0.1-0.2-0.1c0,0,0-0.1,0-0.1v-0.1
				c0,0,0-0.1,0-0.1c0,0,0.1-0.1,0.2-0.1l1.1-0.4l1.1-0.5c0.1,0,0.1,0,0.2,0c0,0,0,0.1,0,0.1v9.5c0,0.5,0,0.8,0.1,0.9
				c0.1,0.1,0.2,0.2,0.4,0.3l0.3,0.1c0.1,0,0.1,0.1,0.1,0.1v0.3c0,0.1,0,0.1,0,0.1c0,0-0.1,0-0.2,0c-0.6-0.1-1.1-0.1-1.5-0.1
				c-0.4,0-0.9,0-1.5,0.1c-0.1,0-0.2,0-0.2,0c0,0-0.1-0.1-0.1-0.1v-0.3c0-0.1,0-0.1,0.1-0.1l0.3-0.1c0.2,0,0.3-0.1,0.4-0.3
				C75.9,82.3,75.9,82,75.9,81.5z"/>
		</g>
		<g>
			<path d="M31.6,90.3C31.6,90.3,31.6,90.3,31.6,90.3c0.1,0.1,0.1,0.1,0.1,0.1L31.3,92c0,0.1,0,0.1-0.1,0.1c0,0-0.1,0.1-0.1,0.1
				c-0.4,0.2-0.8,0.3-1.2,0.4c-0.4,0.1-0.9,0.1-1.4,0.1c-1.5,0-2.6-0.4-3.5-1.1c-0.9-0.8-1.3-1.7-1.3-3c0-1.4,0.4-2.5,1.3-3.3
				c0.9-0.8,2-1.3,3.4-1.3c0.6,0,1,0,1.4,0.1c0.4,0.1,0.8,0.2,1.2,0.3c0.1,0,0.1,0.1,0.1,0.1c0,0,0.1,0.1,0.1,0.1l0.3,1.6
				c0,0,0,0.1,0,0.1c0,0,0,0-0.1,0l-0.3,0c0,0-0.1,0-0.1,0c0,0-0.1,0-0.1-0.1c-0.3-0.6-0.6-1-1-1.3c-0.4-0.3-0.9-0.5-1.5-0.5
				c-0.9,0-1.7,0.3-2.3,1c-0.6,0.7-0.9,1.6-0.9,2.7c0,1.1,0.3,1.9,1,2.7c0.6,0.7,1.4,1.1,2.3,1.1c0.7,0,1.3-0.2,1.7-0.4
				c0.4-0.3,0.7-0.7,0.9-1.3c0-0.1,0-0.1,0-0.1c0,0,0,0,0.1,0L31.6,90.3z"/>
			<path d="M33.1,91.3v-5.4c0-0.3,0-0.5-0.1-0.6c-0.1-0.1-0.2-0.2-0.4-0.3l-0.1,0c-0.1,0-0.1-0.1-0.1-0.1c0,0,0,0,0-0.1v-0.1
				c0,0,0-0.1,0-0.1c0,0,0.1-0.1,0.1-0.1l0.9-0.3l0.9-0.3c0.1,0,0.1,0,0.1,0c0,0,0,0,0,0.1v4.2c0.2-0.2,0.4-0.3,0.6-0.5
				c0.5-0.3,0.9-0.5,1.3-0.5c0.5,0,0.8,0.1,1.1,0.4c0.3,0.3,0.4,0.6,0.4,1.1v2.5c0,0.4,0,0.6,0.1,0.7c0,0.1,0.1,0.2,0.3,0.2l0.2,0
				c0.1,0,0.1,0,0.1,0.1v0.2c0,0,0,0.1,0,0.1c0,0-0.1,0-0.2,0c-0.4,0-0.8-0.1-1.2-0.1c-0.3,0-0.7,0-1.2,0.1c-0.1,0-0.1,0-0.2,0
				c0,0,0,0,0-0.1v-0.2c0-0.1,0-0.1,0.1-0.1l0.2,0c0.2,0,0.3-0.1,0.3-0.2c0-0.1,0.1-0.3,0.1-0.7v-2.2c0-0.3-0.1-0.5-0.2-0.7
				c-0.2-0.2-0.4-0.3-0.7-0.3c-0.3,0-0.6,0.1-0.8,0.3c-0.1,0.1-0.2,0.2-0.3,0.3v2.6c0,0.4,0,0.6,0.1,0.7c0,0.1,0.1,0.2,0.3,0.2
				l0.2,0c0.1,0,0.1,0,0.1,0.1v0.2c0,0,0,0.1,0,0.1c0,0-0.1,0-0.2,0c-0.4,0-0.8-0.1-1.2-0.1c-0.3,0-0.7,0-1.2,0.1
				c-0.1,0-0.1,0-0.2,0c0,0,0,0,0-0.1v-0.2c0-0.1,0-0.1,0.1-0.1l0.2,0c0.2,0,0.3-0.1,0.3-0.2C33,91.9,33.1,91.7,33.1,91.3z"/>
			<path d="M41.4,92.4c0.2-0.1,0.5-0.3,0.7-0.6V92c0,0.2,0.1,0.4,0.2,0.5c0.2,0.2,0.4,0.2,0.6,0.2c0.3,0,0.6-0.1,0.8-0.3
				c0.2-0.2,0.4-0.5,0.5-0.8c0,0,0-0.1,0-0.1c0,0,0,0-0.1,0l0,0c0,0-0.1,0-0.1,0c0,0,0,0-0.1,0.1c0,0.1-0.1,0.1-0.2,0.1
				c-0.1,0-0.1,0-0.2,0c-0.1,0-0.1,0-0.1-0.1c0-0.1,0-0.2,0-0.3v-2.6c0-0.5-0.1-0.9-0.4-1.1c-0.3-0.2-0.8-0.3-1.5-0.3L40.2,88
				c-0.3,0.2-0.5,0.3-0.6,0.5c-0.1,0.1-0.1,0.3-0.1,0.6l0,0.1c0,0.1,0,0.1,0.1,0.2c0,0,0.1,0,0.2,0l0.6-0.3c0,0,0.1-0.1,0.1-0.1
				c0-0.1,0-0.1,0-0.2c0-0.1,0-0.1,0-0.2c0.1-0.1,0.3-0.2,0.7-0.2c0.4,0,0.6,0.1,0.7,0.2c0.1,0.1,0.2,0.4,0.2,0.7v0.6L41,90.2
				c-0.5,0.2-0.9,0.4-1.2,0.6c-0.3,0.2-0.5,0.4-0.5,0.6c0,0.4,0.1,0.7,0.3,1c0.2,0.3,0.4,0.4,0.7,0.4C40.7,92.7,41.1,92.6,41.4,92.4
				z M42.1,91.4c-0.1,0.1-0.3,0.3-0.4,0.4c-0.2,0.1-0.4,0.2-0.5,0.2c-0.1,0-0.2-0.1-0.3-0.2c-0.1-0.2-0.2-0.3-0.2-0.5
				c0-0.2,0.1-0.3,0.3-0.4c0.2-0.1,0.5-0.3,0.8-0.4l0.3-0.1V91.4z"/>
			<path d="M45.6,84.5c-0.2,0.2-0.2,0.4-0.2,0.6c0,0.2,0.1,0.4,0.2,0.6c0.2,0.2,0.4,0.2,0.6,0.2c0.2,0,0.4-0.1,0.6-0.2
				c0.2-0.2,0.2-0.4,0.2-0.6c0-0.2-0.1-0.4-0.2-0.6c-0.2-0.2-0.4-0.2-0.6-0.2C46,84.3,45.8,84.4,45.6,84.5z M45.6,92
				c0,0.1-0.1,0.2-0.3,0.2l-0.2,0c-0.1,0-0.1,0-0.1,0.1v0.2c0,0,0,0.1,0,0.1c0,0,0.1,0,0.1,0c0.4,0,0.8-0.1,1.2-0.1
				c0.3,0,0.7,0,1.2,0.1c0.1,0,0.1,0,0.1,0c0,0,0,0,0-0.1v-0.2c0-0.1,0-0.1-0.1-0.1l-0.2,0c-0.2,0-0.3-0.1-0.3-0.2
				c0-0.1-0.1-0.3-0.1-0.7v-4c0,0,0-0.1,0-0.1c0,0-0.1,0-0.1,0c-0.3,0.2-0.6,0.3-0.9,0.4c-0.2,0.1-0.6,0.2-0.9,0.3
				C45,88,44.9,88,44.9,88c0,0,0,0,0,0.1v0.1c0,0,0,0.1,0,0.1c0,0,0.1,0,0.1,0.1c0.3,0.1,0.4,0.2,0.5,0.3c0.1,0.1,0.1,0.3,0.1,0.7v2
				C45.6,91.7,45.6,91.9,45.6,92z"/>
			<path d="M49.3,91.3v-2c0-0.3,0-0.5-0.1-0.7c-0.1-0.1-0.2-0.2-0.5-0.3c-0.1,0-0.1,0-0.1-0.1c0,0,0-0.1,0-0.1v-0.1c0,0,0-0.1,0-0.1
				c0,0,0.1,0,0.1-0.1c0.4-0.1,0.7-0.2,0.9-0.3c0.2-0.1,0.5-0.2,0.9-0.4c0.1,0,0.1,0,0.1,0c0,0,0,0,0,0.1v0.9
				c0.2-0.2,0.4-0.4,0.6-0.5c0.4-0.3,0.9-0.5,1.3-0.5c0.4,0,0.8,0.1,1.1,0.4c0.3,0.3,0.4,0.6,0.4,1.1v2.6c0,0.4,0,0.6,0.1,0.7
				c0,0.1,0.2,0.2,0.3,0.2l0.2,0c0.1,0,0.1,0,0.1,0.1v0.2c0,0,0,0.1,0,0.1c0,0-0.1,0-0.2,0c-0.5,0-0.8-0.1-1.2-0.1
				c-0.3,0-0.7,0-1.2,0.1c-0.1,0-0.1,0-0.2,0c0,0,0,0,0-0.1v-0.2c0-0.1,0-0.1,0.1-0.1l0.2,0c0.2,0,0.3-0.1,0.3-0.2
				c0-0.1,0.1-0.3,0.1-0.7V89c0-0.3-0.1-0.5-0.2-0.7c-0.2-0.2-0.4-0.2-0.6-0.2c-0.3,0-0.6,0.1-0.8,0.3c-0.1,0.1-0.2,0.2-0.3,0.3v2.6
				c0,0.4,0,0.6,0.1,0.7c0,0.1,0.2,0.2,0.3,0.2l0.2,0c0.1,0,0.1,0,0.1,0.1v0.2c0,0,0,0.1,0,0.1c0,0-0.1,0-0.2,0
				c-0.4,0-0.8-0.1-1.2-0.1c-0.3,0-0.7,0-1.2,0.1c-0.1,0-0.1,0-0.2,0c0,0,0,0,0-0.1v-0.2c0-0.1,0-0.1,0.1-0.1l0.2,0
				c0.2,0,0.3-0.1,0.3-0.2C49.3,91.9,49.3,91.7,49.3,91.3z"/>
			<path d="M56.3,91.3v-2c0-0.3,0-0.5-0.1-0.7c-0.1-0.1-0.2-0.2-0.5-0.3c-0.1,0-0.1,0-0.1-0.1c0,0,0-0.1,0-0.1v-0.1c0,0,0-0.1,0-0.1
				c0,0,0.1,0,0.1-0.1c0.4-0.1,0.7-0.2,0.9-0.3c0.2-0.1,0.5-0.2,0.9-0.4c0.1,0,0.1,0,0.1,0c0,0,0,0,0,0.1v0.9
				c0.2-0.2,0.4-0.4,0.6-0.5c0.4-0.3,0.9-0.5,1.3-0.5c0.4,0,0.8,0.1,1.1,0.4c0.3,0.3,0.4,0.6,0.4,1.1v2.6c0,0.4,0,0.6,0.1,0.7
				c0,0.1,0.2,0.2,0.3,0.2l0.2,0c0.1,0,0.1,0,0.1,0.1v0.2c0,0,0,0.1,0,0.1c0,0-0.1,0-0.2,0c-0.5,0-0.9-0.1-1.2-0.1
				c-0.3,0-0.7,0-1.2,0.1c-0.1,0-0.1,0-0.2,0c0,0,0,0,0-0.1v-0.2c0-0.1,0-0.1,0.1-0.1l0.2,0c0.2,0,0.3-0.1,0.3-0.2
				c0.1-0.1,0.1-0.3,0.1-0.7V89c0-0.3-0.1-0.5-0.2-0.7c-0.2-0.2-0.4-0.2-0.6-0.2c-0.3,0-0.6,0.1-0.8,0.3c-0.1,0.1-0.2,0.2-0.3,0.3
				v2.6c0,0.4,0,0.6,0.1,0.7c0,0.1,0.2,0.2,0.3,0.2l0.2,0c0.1,0,0.1,0,0.1,0.1v0.2c0,0,0,0.1,0,0.1c0,0-0.1,0-0.2,0
				c-0.4,0-0.8-0.1-1.2-0.1c-0.3,0-0.7,0-1.2,0.1c-0.1,0-0.1,0-0.2,0c0,0,0,0,0-0.1v-0.2c0-0.1,0-0.1,0.1-0.1l0.2,0
				c0.2,0,0.3-0.1,0.3-0.2C56.3,91.9,56.3,91.7,56.3,91.3z"/>
			<path d="M63.3,84.5c-0.2,0.2-0.2,0.4-0.2,0.6c0,0.2,0.1,0.4,0.2,0.6c0.2,0.2,0.4,0.2,0.6,0.2c0.2,0,0.4-0.1,0.6-0.2
				c0.2-0.2,0.2-0.4,0.2-0.6c0-0.2-0.1-0.4-0.2-0.6c-0.2-0.2-0.4-0.2-0.6-0.2C63.6,84.3,63.4,84.4,63.3,84.5z M63.2,92
				c0,0.1-0.1,0.2-0.3,0.2l-0.2,0c-0.1,0-0.1,0-0.1,0.1v0.2c0,0,0,0.1,0,0.1c0,0,0.1,0,0.2,0c0.4,0,0.8-0.1,1.2-0.1
				c0.3,0,0.7,0,1.2,0.1c0.1,0,0.1,0,0.1,0c0,0,0,0,0-0.1v-0.2c0-0.1,0-0.1-0.1-0.1l-0.2,0c-0.2,0-0.3-0.1-0.3-0.2
				c0-0.1-0.1-0.3-0.1-0.7v-4c0,0,0-0.1,0-0.1c0,0-0.1,0-0.1,0c-0.3,0.2-0.6,0.3-0.9,0.4c-0.2,0.1-0.5,0.2-0.9,0.3
				c-0.1,0-0.1,0.1-0.1,0.1c0,0,0,0,0,0.1v0.1c0,0,0,0.1,0,0.1c0,0,0.1,0,0.1,0.1c0.3,0.1,0.4,0.2,0.5,0.3c0.1,0.1,0.1,0.3,0.1,0.7
				v2C63.3,91.7,63.2,91.9,63.2,92z"/>
			<path d="M69.3,88.2c0.2,0.3,0.3,0.7,0.3,1.2c0,0.3-0.1,0.6-0.2,0.8c-0.1,0.2-0.4,0.3-0.7,0.3c-0.3,0-0.5-0.2-0.7-0.5
				c-0.2-0.3-0.3-0.7-0.3-1.2c0-0.3,0.1-0.6,0.2-0.8c0.2-0.2,0.4-0.3,0.7-0.3C68.8,87.7,69.1,87.9,69.3,88.2z M67.7,91.1
				c0.1-0.1,0.2-0.2,0.4-0.3c0.2,0,0.4,0.1,0.6,0.1c0.6,0,1.2-0.2,1.6-0.6c0.4-0.4,0.6-0.8,0.6-1.4c0-0.1,0-0.3-0.1-0.4h0.7
				c0,0,0.1,0,0.1,0c0,0,0,0,0-0.1v-0.5c0,0,0-0.1,0-0.1c0,0,0,0-0.1,0h-1.3l0,0c-0.4-0.3-1-0.5-1.6-0.5c-0.6,0-1.2,0.2-1.6,0.6
				c-0.4,0.4-0.7,0.8-0.7,1.4c0,0.5,0.2,0.9,0.7,1.2c0.2,0.1,0.4,0.2,0.6,0.3l-1.2,0.9c0,0.6,0.1,1,0.4,1.2c0.2,0.1,0.4,0.2,0.8,0.3
				l-1.3,0.7c0,0.6,0.2,1,0.6,1.3c0.4,0.3,1,0.4,1.8,0.4c0.8,0,1.5-0.2,2.1-0.6c0.6-0.4,0.8-1,0.8-1.6c0-0.4-0.2-0.8-0.6-1.1
				c-0.4-0.3-0.9-0.4-1.5-0.4h-1.1c-0.3,0-0.6,0-0.7-0.1c-0.1-0.1-0.2-0.2-0.2-0.3C67.6,91.3,67.6,91.2,67.7,91.1z M67.6,93.5
				c0.1-0.2,0.2-0.3,0.4-0.4l0.5,0h1.1c0.3,0,0.5,0.1,0.7,0.2c0.2,0.1,0.2,0.3,0.2,0.6c0,0.4-0.1,0.6-0.4,0.8
				c-0.3,0.2-0.7,0.3-1.2,0.3c-0.4,0-0.7-0.1-1-0.3c-0.3-0.2-0.4-0.4-0.4-0.7C67.5,93.8,67.5,93.6,67.6,93.5z"/>
			<path d="M73.2,91.3v-5.4c0-0.3,0-0.5-0.1-0.6c-0.1-0.1-0.2-0.2-0.4-0.3l-0.1,0c-0.1,0-0.1-0.1-0.1-0.1c0,0,0,0,0-0.1v-0.1
				c0,0,0-0.1,0-0.1c0,0,0.1-0.1,0.1-0.1l0.9-0.3l0.9-0.3c0.1,0,0.1,0,0.1,0c0,0,0,0,0,0.1v4.2c0.2-0.2,0.4-0.3,0.6-0.5
				c0.5-0.3,0.9-0.5,1.3-0.5c0.5,0,0.8,0.1,1.1,0.4c0.3,0.3,0.4,0.6,0.4,1.1v2.5c0,0.4,0,0.6,0.1,0.7c0,0.1,0.1,0.2,0.3,0.2l0.2,0
				c0.1,0,0.1,0,0.1,0.1v0.2c0,0,0,0.1,0,0.1c0,0-0.1,0-0.2,0c-0.5,0-0.8-0.1-1.2-0.1c-0.3,0-0.7,0-1.2,0.1c-0.1,0-0.1,0-0.1,0
				c0,0,0,0,0-0.1v-0.2c0-0.1,0-0.1,0.1-0.1l0.2,0c0.2,0,0.3-0.1,0.3-0.2c0-0.1,0.1-0.3,0.1-0.7v-2.2c0-0.3-0.1-0.5-0.2-0.7
				c-0.2-0.2-0.4-0.3-0.7-0.3c-0.3,0-0.6,0.1-0.8,0.3c-0.1,0.1-0.2,0.2-0.3,0.3v2.6c0,0.4,0,0.6,0.1,0.7c0,0.1,0.1,0.2,0.3,0.2
				l0.2,0c0.1,0,0.1,0,0.1,0.1v0.2c0,0,0,0.1,0,0.1c0,0-0.1,0-0.2,0c-0.4,0-0.8-0.1-1.2-0.1c-0.3,0-0.7,0-1.2,0.1
				c-0.1,0-0.1,0-0.1,0c0,0,0,0,0-0.1v-0.2c0-0.1,0-0.1,0.1-0.1l0.2,0c0.2,0,0.3-0.1,0.3-0.2C73.2,91.9,73.2,91.7,73.2,91.3z"/>
		</g>
	</g>
	<circle class="st3" cx="51.1" cy="19.4" r="2.9"/>
	<path d="M52.8,18.9c-0.4-0.7-1-1.2-1.7-1.3c-0.5-0.1-1,0-1.4,0.2c-0.6,0.4-0.9,1.1-0.8,1.8c0.1,0.3,0.3,0.9,1.1,1.1l0.4,0.1
		c0.7,0.2,1.5,0.4,1.6,0.7c0.1,0.2-0.1,0.5-0.2,0.7c0.3-0.1,0.5-0.1,0.7-0.3c0.1-0.2,0.1-0.4,0-0.6c-0.2-0.6-1-0.8-1.9-1.1l-0.4-0.1
		c-0.4-0.1-0.7-0.4-0.8-0.7c-0.1-0.4,0.2-1,0.6-1.3c0.3-0.2,0.7-0.2,1-0.2c0.5,0.1,1,0.5,1.4,1.1c0.5,0.9,1.1,1,1.5,1.1
		c0-0.2,0.1-0.3,0.1-0.5C53.8,19.7,53.3,19.7,52.8,18.9z"/>
</g>
</svg>
