<?xml version="1.0" encoding="UTF-8"?>
<!DOCTYPE svg PUBLIC "-//W3C//DTD SVG 1.1//EN" "http://www.w3.org/Graphics/SVG/1.1/DTD/svg11.dtd">
<svg xmlns="http://www.w3.org/2000/svg" version="1.1" width="462px" height="620px" style="shape-rendering:geometricPrecision; text-rendering:geometricPrecision; image-rendering:optimizeQuality; fill-rule:evenodd; clip-rule:evenodd" xmlns:xlink="http://www.w3.org/1999/xlink">
<g><path style="opacity:0.982" fill="#262121" d="M 192.5,-0.5 C 218.5,-0.5 244.5,-0.5 270.5,-0.5C 267.186,11.4219 264.186,23.4219 261.5,35.5C 270.491,36.832 279.491,38.1654 288.5,39.5C 292.884,39.0892 297.218,38.4226 301.5,37.5C 301.5,39.5 301.5,41.5 301.5,43.5C 335.432,51.9656 367.432,65.1323 397.5,83C 408.833,90 420.167,97 431.5,104C 435.606,106.202 439.94,107.702 444.5,108.5C 446.304,188.5 447.804,268.5 449,348.5C 445.967,385.939 433.633,419.939 412,450.5C 411.5,458.159 411.334,465.826 411.5,473.5C 428.165,473.885 444.832,474.218 461.5,474.5C 461.5,475.167 461.5,475.833 461.5,476.5C 447.928,494.075 432.594,510.075 415.5,524.5C 420.5,532.5 425.5,540.5 430.5,548.5C 377.135,589.673 316.802,613.34 249.5,619.5C 236.833,619.5 224.167,619.5 211.5,619.5C 143.38,613.761 83.0471,589.261 30.5,546C 36.3333,538.167 42.1667,530.333 48,522.5C 41.5633,515.053 34.5633,507.72 27,500.5C 17.1993,488.548 8.03264,476.214 -0.5,463.5C -0.5,462.833 -0.5,462.167 -0.5,461.5C 14.1818,462.296 28.8485,463.296 43.5,464.5C 44.2444,456.967 45.2444,449.467 46.5,442C 34.2702,423.369 25.4369,403.202 20,381.5C 18.6752,375.218 17.6752,368.885 17,362.5C 13.5516,278.508 10.3849,194.508 7.5,110.5C 12.8691,109.822 17.8691,107.988 22.5,105C 54.34,82.5767 88.6733,64.5767 125.5,51C 136.675,47.2067 148.008,44.0401 159.5,41.5C 159.343,40.1266 159.51,38.7932 160,37.5C 162.57,38.4156 165.237,39.0823 168,39.5C 179.168,37.5715 190.335,35.7382 201.5,34C 197.955,22.6534 194.955,11.1534 192.5,-0.5 Z"/></g>
<g><path style="opacity:1" fill="#edecec" d="M 266.5,138.5 C 253.677,139.495 240.677,139.829 227.5,139.5C 217.5,139.5 207.5,139.5 197.5,139.5C 201.552,123.342 206.219,107.342 211.5,91.5C 209.235,90.3526 206.902,90.1859 204.5,91C 191.885,93.8211 179.218,96.3211 166.5,98.5C 164.513,80.8644 163.847,62.8644 164.5,44.5C 165.5,44.5 166.5,44.5 167.5,44.5C 181.796,47.3234 196.129,49.99 210.5,52.5C 206.755,36.776 202.755,21.1094 198.5,5.5C 220.156,4.50032 241.823,4.16698 263.5,4.5C 259.51,20.4615 255.51,36.4615 251.5,52.5C 266.893,49.7546 282.227,46.7546 297.5,43.5C 297.5,62.1667 297.5,80.8333 297.5,99.5C 282.928,97.2858 268.428,94.6191 254,91.5C 253.167,91.8333 252.333,92.1667 251.5,92.5C 256.907,107.722 261.907,123.055 266.5,138.5 Z"/></g>
<g><path style="opacity:1" fill="#292423" d="M 168.5,95.5 C 167.849,79.1317 168.515,63.1317 170.5,47.5C 185.783,50.7567 201.117,53.7567 216.5,56.5C 212.294,40.549 208.294,24.549 204.5,8.5C 222.167,8.5 239.833,8.5 257.5,8.5C 253.346,24.7818 249.346,41.1151 245.5,57.5C 261.674,53.7777 277.841,50.111 294,46.5C 293.953,62.1596 293.786,77.8263 293.5,93.5C 279.46,91.3258 265.46,88.8258 251.5,86C 249.098,85.1859 246.765,85.3526 244.5,86.5C 251.102,102.973 257.102,119.64 262.5,136.5C 241.833,136.5 221.167,136.5 200.5,136.5C 205.222,119.668 210.555,103.001 216.5,86.5C 215.833,86.1667 215.167,85.8333 214.5,85.5C 199.159,88.8355 183.826,92.1688 168.5,95.5 Z"/></g>
<g><path style="opacity:1" fill="#8c601e" d="M 251.5,14.5 C 244.842,13.8337 238.008,13.5004 231,13.5C 223.799,13.503 216.966,14.1697 210.5,15.5C 209.596,14.791 209.263,13.791 209.5,12.5C 223.849,12.1674 238.182,12.5007 252.5,13.5C 252.376,14.1067 252.043,14.44 251.5,14.5 Z"/></g>
<g><path style="opacity:1" fill="#f7a41b" d="M 251.5,14.5 C 247.602,30.7923 243.269,46.959 238.5,63C 255.405,59.3598 272.405,55.8598 289.5,52.5C 289.5,64.5 289.5,76.5 289.5,88.5C 272.147,85.4993 254.814,82.666 237.5,80C 244.262,97.3547 250.595,114.855 256.5,132.5C 239.833,132.5 223.167,132.5 206.5,132.5C 211.462,114.78 217.129,97.2804 223.5,80C 207.483,82.8376 191.483,86.0042 175.5,89.5C 174.5,89.5 173.5,89.5 172.5,89.5C 172.5,77.1667 172.5,64.8333 172.5,52.5C 188.909,55.5122 205.242,58.8456 221.5,62.5C 221.833,61.8333 222.167,61.1667 222.5,60.5C 218.247,45.5651 214.247,30.5651 210.5,15.5C 216.966,14.1697 223.799,13.503 231,13.5C 238.008,13.5004 244.842,13.8337 251.5,14.5 Z"/></g>
<g><path style="opacity:1" fill="#5b5859" d="M 167.5,44.5 C 166.5,44.5 165.5,44.5 164.5,44.5C 163.847,62.8644 164.513,80.8644 166.5,98.5C 165.791,99.404 164.791,99.7373 163.5,99.5C 163.5,80.8333 163.5,62.1667 163.5,43.5C 165.099,43.2322 166.432,43.5655 167.5,44.5 Z"/></g>
<g><path style="opacity:1" fill="#5b5859" d="M 170.5,47.5 C 168.515,63.1317 167.849,79.1317 168.5,95.5C 167.504,79.3419 167.17,63.0085 167.5,46.5C 168.791,46.2627 169.791,46.596 170.5,47.5 Z"/></g>
<g><path style="opacity:1" fill="#8c601e" d="M 172.5,52.5 C 172.5,64.8333 172.5,77.1667 172.5,89.5C 173.5,89.5 174.5,89.5 175.5,89.5C 174.432,90.4345 173.099,90.7678 171.5,90.5C 171.171,77.6557 171.505,64.989 172.5,52.5 Z"/></g>
<g><path style="opacity:1" fill="#f3a11b" d="M 34.5,123.5 C 33.5,123.5 32.5,123.5 31.5,123.5C 31.1832,127.702 31.5166,131.702 32.5,135.5C 34.6926,204.509 37.1926,273.509 40,342.5C 44.6422,395.283 66.4755,439.45 105.5,475C 136.263,502.724 171.596,522.724 211.5,535C 225.833,538.333 240.167,538.333 254.5,535C 313.176,517.426 360.009,483.592 395,433.5C 413.744,404.936 424.744,373.603 428,339.5C 427.063,266.835 425.896,194.168 424.5,121.5C 419.403,121.457 414.736,119.957 410.5,117C 377.451,93.8106 341.451,76.4773 302.5,65C 301.39,62.2628 301.223,59.4294 302,56.5C 343.209,69.5222 381.709,88.0222 417.5,112C 421.474,114.659 425.808,116.159 430.5,116.5C 431.585,192.174 432.752,267.84 434,343.5C 429.455,387.572 413.122,426.572 385,460.5C 353.188,497.66 314.354,524.827 268.5,542C 240.647,551.775 213.314,550.441 186.5,538C 129.676,514.835 85.5093,477.002 54,424.5C 43.7824,404.63 37.1157,383.63 34,361.5C 30.051,280.824 26.7177,200.157 24,119.5C 28.3173,118.093 32.484,116.26 36.5,114C 65.7706,93.6949 97.1039,77.0282 130.5,64C 139.978,60.451 149.645,57.6177 159.5,55.5C 159.777,58.4475 159.444,61.2809 158.5,64C 131.129,71.6832 105.129,82.6832 80.5,97C 68.1667,104.667 55.8333,112.333 43.5,120C 40.6729,121.664 37.6729,122.83 34.5,123.5 Z"/></g>
<g><path style="opacity:1" fill="#fbfbfc" d="M 156.5,68.5 C 157.5,68.5 158.5,68.5 159.5,68.5C 159.5,78.8333 159.5,89.1667 159.5,99.5C 133.057,102.259 108.057,109.759 84.5,122C 81.5767,124.045 78.7433,126.212 76,128.5C 75.2552,197.5 74.9219,266.5 75,335.5C 78.4699,365.753 89.1366,393.086 107,417.5C 137.397,456.208 176.23,482.708 223.5,497C 231.623,497.848 239.623,497.182 247.5,495C 301.441,478.046 342.608,445.213 371,396.5C 378.74,380.613 384.073,363.947 387,346.5C 388.148,308.865 388.648,271.199 388.5,233.5C 388.167,197.833 387.833,162.167 387.5,126.5C 374.512,118.112 360.512,111.946 345.5,108C 330.918,104.717 316.251,101.884 301.5,99.5C 301.168,89.4778 301.501,79.4778 302.5,69.5C 327.707,76.8458 351.707,87.0125 374.5,100C 386.5,107.333 398.5,114.667 410.5,122C 413.309,123.741 416.309,124.908 419.5,125.5C 421.444,197.822 422.611,270.156 423,342.5C 416.571,393.859 394.405,437.026 356.5,472C 328.906,497.554 297.239,516.554 261.5,529C 247.065,533.469 232.399,534.469 217.5,532C 161.049,515.873 114.883,484.706 79,438.5C 61.3876,413.926 50.3876,386.593 46,356.5C 42.4742,282.856 39.3076,209.189 36.5,135.5C 36.8333,132.833 37.1667,130.167 37.5,127.5C 54.9654,117.599 72.2988,107.432 89.5,97C 111.008,85.2376 133.341,75.7376 156.5,68.5 Z"/></g>
<g><path style="opacity:1" fill="#018b44" d="M 182.5,108.5 C 188.868,108.17 195.202,108.504 201.5,109.5C 197.572,120.682 194.238,132.015 191.5,143.5C 218.827,144.479 246.16,144.646 273.5,144C 269.407,132.554 265.407,121.054 261.5,109.5C 294.505,109.621 326.505,115.454 357.5,127C 363.49,129.66 369.156,132.826 374.5,136.5C 382.617,173.974 372.617,205.474 344.5,231C 312.344,258.893 275.011,275.06 232.5,279.5C 190.94,276.042 153.607,261.875 120.5,237C 89.3954,210.928 77.2287,177.761 84,137.5C 96.2939,128.84 109.794,122.673 124.5,119C 143.724,114.076 163.058,110.576 182.5,108.5 Z"/></g>
<g><path style="opacity:1" fill="#7c561e" d="M 34.5,123.5 C 32.6823,127.173 32.0157,131.173 32.5,135.5C 31.5166,131.702 31.1832,127.702 31.5,123.5C 32.5,123.5 33.5,123.5 34.5,123.5 Z"/></g>
<g><path style="opacity:1" fill="#656263" d="M 266.5,138.5 C 267.043,138.56 267.376,138.893 267.5,139.5C 254.006,140.825 240.673,140.825 227.5,139.5C 240.677,139.829 253.677,139.495 266.5,138.5 Z"/></g>
<g><path style="opacity:1" fill="#292320" d="M 228.5,150.5 C 230.655,150.372 232.655,150.872 234.5,152C 240.509,157.862 245.676,164.362 250,171.5C 251.88,164.892 255.38,159.392 260.5,155C 264.582,153.707 267.749,154.874 270,158.5C 272.59,163.272 274.59,168.272 276,173.5C 280.129,167.679 285.629,163.679 292.5,161.5C 291.543,176.749 289.21,191.916 285.5,207C 287.131,208.926 288.965,210.76 291,212.5C 294.333,216.833 294.333,221.167 291,225.5C 288.33,227.005 286.164,229.005 284.5,231.5C 293.042,241.416 292.042,250.249 281.5,258C 268.34,264.79 254.34,268.457 239.5,269C 218.484,271.264 198.818,267.264 180.5,257C 176.057,253.779 173.723,249.445 173.5,244C 174.186,239.536 175.519,235.369 177.5,231.5C 174.741,227.642 172.741,223.309 171.5,218.5C 173.123,214.923 174.457,211.257 175.5,207.5C 173.503,193.528 171.837,179.528 170.5,165.5C 178.179,165.693 184.012,169.026 188,175.5C 189.08,169.176 191.08,163.176 194,157.5C 198.517,153.448 202.517,154.114 206,159.5C 208.513,163.204 211.013,166.87 213.5,170.5C 217.049,162.635 222.049,155.968 228.5,150.5 Z"/></g>
<g><path style="opacity:1" fill="#eb9d1b" d="M 276.5,188.5 C 275.542,189.962 274.376,191.295 273,192.5C 270.445,166.444 262.779,164.777 250,187.5C 246.03,178.859 240.196,171.859 232.5,166.5C 230.121,167.442 227.954,168.775 226,170.5C 221.667,176.5 217.333,182.5 213,188.5C 211.096,182.192 208.262,176.359 204.5,171C 200.031,168.377 196.531,169.21 194,173.5C 193.526,168.059 195.193,163.393 199,159.5C 205.354,164.71 209.52,171.377 211.5,179.5C 213.167,179.5 214.833,179.5 216.5,179.5C 218.304,169.558 222.971,161.224 230.5,154.5C 238.556,160.877 244.223,168.877 247.5,178.5C 249.167,178.5 250.833,178.5 252.5,178.5C 253.572,170.352 257.239,163.686 263.5,158.5C 266.256,160.091 268.089,162.424 269,165.5C 271.136,171.709 272.802,178.042 274,184.5C 274.608,186.066 275.442,187.4 276.5,188.5 Z"/></g>
<g><path style="opacity:1" fill="#e3971c" d="M 276.5,188.5 C 277.631,182.94 279.464,177.607 282,172.5C 283.745,171.044 285.578,169.711 287.5,168.5C 287.833,169 288.167,169.5 288.5,170C 287.589,173.145 286.755,176.312 286,179.5C 282.43,182.178 279.263,185.178 276.5,188.5 Z"/></g>
<g><path style="opacity:1" fill="#e99b1c" d="M 175.5,170.5 C 181.502,174.336 186.335,179.336 190,185.5C 190.667,187.833 190.667,190.167 190,192.5C 186.713,186.879 182.379,182.212 177,178.5C 176.178,175.883 175.678,173.216 175.5,170.5 Z"/></g>
<g><path style="opacity:1" fill="#f4a21b" d="M 231.5,171.5 C 239.521,177.178 244.854,184.845 247.5,194.5C 249.288,194.785 250.955,194.452 252.5,193.5C 255.019,187.002 258.686,181.336 263.5,176.5C 266.044,179.275 267.544,182.609 268,186.5C 268.829,191.533 268.662,196.533 267.5,201.5C 260.568,200.014 253.568,198.847 246.5,198C 235.422,197.626 224.422,197.459 213.5,197.5C 218.355,187.989 224.355,179.322 231.5,171.5 Z"/></g>
<g><path style="opacity:1" fill="#ef9f1b" d="M 198.5,173.5 C 200.371,173.859 201.871,174.859 203,176.5C 206.365,183.601 209.532,190.767 212.5,198C 205.491,199.502 198.491,201.169 191.5,203C 187.737,203.92 184.237,205.42 181,207.5C 178.655,200.295 177.822,192.962 178.5,185.5C 182.802,189.424 186.136,194.091 188.5,199.5C 190.045,200.452 191.712,200.785 193.5,200.5C 193.965,191.229 195.632,182.229 198.5,173.5 Z"/></g>
<g><path style="opacity:1" fill="#eb9c1c" d="M 283.5,187.5 C 284.124,187.917 284.457,188.584 284.5,189.5C 283.498,194.845 282.498,200.178 281.5,205.5C 277.559,204.243 273.559,203.076 269.5,202C 274.501,197.506 279.168,192.673 283.5,187.5 Z"/></g>
<g><path style="opacity:1" fill="#f6a41b" d="M 83.5,194.5 C 94.9521,220.792 113.285,240.958 138.5,255C 172.246,274.52 208.579,283.853 247.5,283C 287.371,275.148 322.204,257.648 352,230.5C 361.985,219.876 369.985,207.876 376,194.5C 377.073,202.017 376.406,209.35 374,216.5C 356.163,257.336 326.33,285.502 284.5,301C 251.075,313.848 217.741,313.515 184.5,300C 148.65,286.011 119.483,263.511 97,232.5C 91.5837,223.667 87.2503,214.334 84,204.5C 83.5017,201.183 83.335,197.85 83.5,194.5 Z"/></g>
<g><path style="opacity:1" fill="#f2a11b" d="M 215.5,202.5 C 233.312,201.71 250.979,202.876 268.5,206C 274.992,207.58 280.992,210.246 286.5,214C 289.629,218.687 288.796,222.52 284,225.5C 279.013,220.59 273.18,217.09 266.5,215C 242.524,209.082 218.524,209.082 194.5,215C 189.175,217.327 184.175,220.16 179.5,223.5C 176.119,221.086 175.619,218.086 178,214.5C 189.563,207.323 202.063,203.323 215.5,202.5 Z"/></g>
<g><path style="opacity:1" fill="#e99b1c" d="M 216.5,214.5 C 235.77,212.908 254.437,215.408 272.5,222C 275.623,223.882 278.289,226.215 280.5,229C 252.092,217.899 223.092,216.566 193.5,225C 189.833,226.833 186.167,228.667 182.5,230.5C 181.479,229.998 181.312,229.332 182,228.5C 185.387,224.554 189.554,221.72 194.5,220C 201.823,217.575 209.157,215.742 216.5,214.5 Z"/></g>
<g><path style="opacity:1" fill="#2b3c81" d="M 83.5,217.5 C 108.494,262.865 145.827,293.365 195.5,309C 256.043,322.597 307.876,307.097 351,262.5C 361.928,250.322 370.594,236.655 377,221.5C 377.352,253.513 378.185,285.513 379.5,317.5C 379.307,365.715 361.307,405.881 325.5,438C 302.173,459.001 275.507,474.334 245.5,484C 233.629,486.49 221.962,485.823 210.5,482C 163.195,463.113 126.362,431.946 100,388.5C 91.1997,371.511 85.533,353.511 83,334.5C 82.6471,295.499 82.8137,256.499 83.5,217.5 Z"/></g>
<g><path style="opacity:1" fill="#f1a01b" d="M 223.5,224.5 C 240.292,224.14 256.626,226.64 272.5,232C 277.178,233.676 281.011,236.509 284,240.5C 285.297,245.117 284.13,248.95 280.5,252C 269.389,258.446 257.389,262.113 244.5,263C 226.373,264.754 208.706,262.754 191.5,257C 173.721,247.178 174.387,238.512 193.5,231C 203.376,227.594 213.376,225.427 223.5,224.5 Z"/></g>
<g><path style="opacity:1" fill="#252020" d="M 217.5,234.5 C 230.589,234.043 243.589,234.877 256.5,237C 260.243,238.136 263.91,239.47 267.5,241C 273.01,245.522 272.344,249.189 265.5,252C 247.178,257.699 228.511,259.032 209.5,256C 202.66,255.163 196.827,252.33 192,247.5C 192.568,243.248 195.068,240.414 199.5,239C 205.644,237.544 211.644,236.044 217.5,234.5 Z"/></g>
<g><path style="opacity:1" fill="#354486" d="M 417.5,311.5 C 418.638,314.304 418.805,317.304 418,320.5C 414.833,323.667 411.667,326.833 408.5,330C 411.146,330.497 413.813,330.664 416.5,330.5C 416.662,332.527 416.495,334.527 416,336.5C 411.747,335.618 407.413,334.951 403,334.5C 400.745,334.61 399.078,335.61 398,337.5C 396.595,334.381 396.095,331.048 396.5,327.5C 397.5,327.5 398.5,327.5 399.5,327.5C 399.2,322.901 399.533,318.401 400.5,314C 405.655,312.323 408.655,314.156 409.5,319.5C 413.188,317.812 415.855,315.145 417.5,311.5 Z"/></g>
<g><path style="opacity:1" fill="#242324" d="M 259.5,316.5 C 266.394,316.617 271.394,319.784 274.5,326C 276.112,326.72 277.612,326.554 279,325.5C 279.642,323.238 280.475,321.071 281.5,319C 282.5,318.333 283.5,318.333 284.5,319C 286.338,324.671 287.671,330.504 288.5,336.5C 290.6,336.523 292.433,335.856 294,334.5C 295.261,334.759 296.261,335.426 297,336.5C 297.527,343.063 297.027,349.563 295.5,356C 296.09,361.012 297.923,365.512 301,369.5C 303.512,364.991 305.845,360.325 308,355.5C 309.825,354.897 311.659,354.23 313.5,353.5C 315.294,348.739 317.96,344.573 321.5,341C 323.467,341.24 325.3,342.073 327,343.5C 330.768,341.403 334.268,338.903 337.5,336C 339.345,334.872 341.345,334.372 343.5,334.5C 343.613,337.049 342.946,339.382 341.5,341.5C 342,341.833 342.5,342.167 343,342.5C 346.072,341.047 348.905,339.213 351.5,337C 353.441,336.257 355.274,336.424 357,337.5C 358.036,339.87 358.536,342.37 358.5,345C 358.146,347.878 357.979,350.711 358,353.5C 361.632,355.211 364.466,357.711 366.5,361C 366.097,362.473 365.43,363.806 364.5,365C 360.991,365.422 357.657,366.422 354.5,368C 357.249,370.19 356.915,371.857 353.5,373C 347.516,372.014 341.516,371.014 335.5,370C 334.978,370.561 334.645,371.228 334.5,372C 335.406,374.791 336.073,377.624 336.5,380.5C 331.156,380.334 325.823,380.501 320.5,381C 319.09,381.368 318.09,382.201 317.5,383.5C 321.763,386.798 326.43,389.298 331.5,391C 341.206,399.503 341.873,408.503 333.5,418C 330.788,418.738 328.455,418.071 326.5,416C 325.458,414.082 324.292,412.249 323,410.5C 321.21,403.959 320.377,397.292 320.5,390.5C 316.167,390.5 311.833,390.5 307.5,390.5C 308.733,409.167 305.4,427.001 297.5,444C 291.796,442.983 287.796,439.649 285.5,434C 297.007,422.16 301.507,407.994 299,391.5C 297.414,392.376 295.914,393.376 294.5,394.5C 292.12,399.43 289.12,403.93 285.5,408C 283.338,410.391 280.838,410.891 278,409.5C 275.855,411.645 273.688,413.812 271.5,416C 269.557,415.695 267.557,415.695 265.5,416C 263.606,417.404 261.606,418.57 259.5,419.5C 257.945,419.278 256.611,418.611 255.5,417.5C 249.145,421.319 246.145,419.485 246.5,412C 246.916,408.083 247.749,404.249 249,400.5C 253.456,394.375 258.289,388.542 263.5,383C 270.63,379.698 277.964,379.031 285.5,381C 288.365,383.286 291.698,384.12 295.5,383.5C 295.455,372.947 290.122,368.78 279.5,371C 278.167,373.667 276.167,375.667 273.5,377C 264.972,377.127 256.639,378.294 248.5,380.5C 248.269,375.882 249.769,371.882 253,368.5C 256.534,364.631 260.367,361.131 264.5,358C 270.76,356.967 275.76,358.967 279.5,364C 283.152,364.499 286.818,364.665 290.5,364.5C 290.451,361.901 289.451,359.734 287.5,358C 282.612,356.18 277.612,354.68 272.5,353.5C 271.769,351.599 271.769,349.599 272.5,347.5C 264.905,347.271 262.905,343.938 266.5,337.5C 261.241,337.696 256.908,335.863 253.5,332C 257.91,329.851 259.244,326.518 257.5,322C 257.395,319.822 258.061,317.988 259.5,316.5 Z"/></g>
<g><path style="opacity:1" fill="#048643" d="M 260.5,318.5 C 266.73,319.555 271.063,323.055 273.5,329C 277.52,329.657 280.52,328.157 282.5,324.5C 285.419,328.68 286.919,333.347 287,338.5C 289.244,340.994 291.577,340.994 294,338.5C 294.717,344.225 294.384,349.891 293,355.5C 289.369,350.037 285.202,345.037 280.5,340.5C 280.167,340.833 279.833,341.167 279.5,341.5C 281.96,345.586 284.293,349.753 286.5,354C 282.506,353.836 278.506,353.336 274.5,352.5C 275.36,350.184 275.86,347.851 276,345.5C 272.871,344.87 269.704,344.204 266.5,343.5C 268.798,341.25 269.631,338.584 269,335.5C 265.137,334.884 261.304,334.05 257.5,333C 264.055,331.484 264.889,328.651 260,324.5C 259.322,322.402 259.489,320.402 260.5,318.5 Z"/></g>
<g><path style="opacity:1" fill="#394789" d="M 52.5,320.5 C 64.8872,318.887 70.2205,324.22 68.5,336.5C 65.9158,336.431 63.9158,335.265 62.5,333C 63.448,332.517 64.448,332.351 65.5,332.5C 66.0262,329.192 64.6928,327.026 61.5,326C 55.613,324.435 52.2797,326.602 51.5,332.5C 53.2546,341.44 52.0879,341.774 48,333.5C 46.6751,328.157 48.1751,323.824 52.5,320.5 Z"/></g>
<g><path style="opacity:1" fill="#2b282b" d="M 165.5,320.5 C 170.179,320.334 174.845,320.501 179.5,321C 181.158,322.624 182.825,324.291 184.5,326C 191.449,326.976 197.449,329.809 202.5,334.5C 208.311,336.603 214.311,337.769 220.5,338C 225.97,341.572 231.636,344.905 237.5,348C 239.123,350.08 240.623,352.246 242,354.5C 242.53,360.204 242.197,365.871 241,371.5C 237.72,375.658 235.387,380.325 234,385.5C 229.185,390.547 225.852,396.547 224,403.5C 216.653,415.252 206.153,422.086 192.5,424C 191.672,424.915 190.672,425.581 189.5,426C 183.812,427.258 178.146,427.424 172.5,426.5C 161.815,429.865 151.815,428.365 142.5,422C 140.959,420.421 139.792,418.587 139,416.5C 138.469,406.908 138.469,397.241 139,387.5C 137.352,386.283 135.519,385.45 133.5,385C 115.229,386.73 107.063,378.563 109,360.5C 110.867,358.192 111.867,355.525 112,352.5C 113.046,350.91 114.213,349.41 115.5,348C 125.48,344.513 135.147,340.18 144.5,335C 149.39,333.429 154.39,332.262 159.5,331.5C 161.528,327.816 163.528,324.15 165.5,320.5 Z"/></g>
<g><path style="opacity:1" fill="#eff0f5" d="M 402.5,319.5 C 403.822,319.33 404.989,319.663 406,320.5C 406.667,322.833 406.667,325.167 406,327.5C 404.413,328.727 403.079,328.394 402,326.5C 401.297,324.071 401.463,321.738 402.5,319.5 Z"/></g>
<g><path style="opacity:1" fill="#fafafa" d="M 199.5,341.5 C 184.863,339.46 180.53,345.127 186.5,358.5C 186.471,360.029 185.804,361.196 184.5,362C 180.187,361.755 175.853,361.755 171.5,362C 166.733,367.546 161.067,371.879 154.5,375C 148.08,375.674 141.747,375.174 135.5,373.5C 130.621,374.261 125.788,375.261 121,376.5C 118.456,375.929 115.956,375.262 113.5,374.5C 112.631,372.283 112.298,369.95 112.5,367.5C 115.223,368.352 117.89,369.519 120.5,371C 124.833,371.667 129.167,371.667 133.5,371C 127.457,371.165 121.791,369.832 116.5,367C 115.751,365.266 115.251,363.433 115,361.5C 113.956,362.623 113.29,363.956 113,365.5C 112.031,362.672 112.697,360.338 115,358.5C 115.29,356.048 115.956,353.715 117,351.5C 126.358,347.823 135.524,343.657 144.5,339C 150.347,336.872 156.347,335.372 162.5,334.5C 164.015,332.453 164.849,330.119 165,327.5C 165.941,325.939 167.108,324.605 168.5,323.5C 171.477,323.765 174.477,323.932 177.5,324C 179.019,325.351 180.352,326.851 181.5,328.5C 188.333,329.667 194.499,332.334 200,336.5C 200.64,338.265 200.473,339.932 199.5,341.5 Z"/></g>
<g><path style="opacity:1" fill="#05763c" d="M 339.5,337.5 C 339.865,339.588 339.865,341.921 339.5,344.5C 331.91,346.064 326.243,350.397 322.5,357.5C 313.941,358.879 307.775,363.545 304,371.5C 303.833,371 303.667,370.5 303.5,370C 305.471,365.892 307.304,361.725 309,357.5C 310.889,356.903 312.722,356.569 314.5,356.5C 316.329,352.172 318.662,348.172 321.5,344.5C 323.193,346.279 325.193,346.779 327.5,346C 331.68,343.304 335.68,340.47 339.5,337.5 Z"/></g>
<g><path style="opacity:1" fill="#04783d" d="M 352.5,338.5 C 353.5,338.5 354.5,338.5 355.5,338.5C 355.768,341.119 355.435,343.619 354.5,346C 350.598,347.249 346.598,348.082 342.5,348.5C 342.351,347.448 342.517,346.448 343,345.5C 346.501,343.512 349.668,341.178 352.5,338.5 Z"/></g>
<g><path style="opacity:1" fill="#e9e8e8" d="M 199.5,341.5 C 197.488,343.567 197.154,345.9 198.5,348.5C 202.688,347.141 206.688,347.641 210.5,350C 213.199,352.341 215.866,354.675 218.5,357C 218.022,358.303 217.355,359.469 216.5,360.5C 215.833,360.5 215.167,360.5 214.5,360.5C 214.953,359.542 215.619,358.708 216.5,358C 214.833,357.667 213.167,357.333 211.5,357C 210.152,352.999 207.485,351.666 203.5,353C 201.559,354.903 199.226,355.736 196.5,355.5C 197.082,362.81 201.082,365.81 208.5,364.5C 202.389,366.63 197.389,364.963 193.5,359.5C 190.578,361.343 189.245,364.01 189.5,367.5C 187.319,367.284 185.653,368.117 184.5,370C 174.046,371.06 165.38,375.56 158.5,383.5C 150.262,386.566 142.262,386.066 134.5,382C 126.011,383.242 119.011,380.742 113.5,374.5C 115.956,375.262 118.456,375.929 121,376.5C 125.788,375.261 130.621,374.261 135.5,373.5C 141.747,375.174 148.08,375.674 154.5,375C 161.067,371.879 166.733,367.546 171.5,362C 175.853,361.755 180.187,361.755 184.5,362C 185.804,361.196 186.471,360.029 186.5,358.5C 180.53,345.127 184.863,339.46 199.5,341.5 Z"/></g>
<g><path style="opacity:1" fill="#3b498a" d="M 400.5,342.5 C 411.824,341.326 416.991,346.326 416,357.5C 414.143,366.68 408.643,370.18 399.5,368C 393.385,363.041 391.885,356.874 395,349.5C 396.666,347.004 398.5,344.671 400.5,342.5 Z"/></g>
<g><path style="opacity:1" fill="#ebeaea" d="M 226.5,346.5 C 225.761,346.369 225.094,346.536 224.5,347C 229.516,350.892 233.183,355.725 235.5,361.5C 233.095,361.134 230.762,360.467 228.5,359.5C 226.747,361.7 224.414,362.867 221.5,363C 220.663,364.011 220.33,365.178 220.5,366.5C 218.856,366.714 217.356,366.38 216,365.5C 214.934,368.563 212.767,370.063 209.5,370C 207.531,371.5 206.198,373.333 205.5,375.5C 202.994,378.086 200.494,378.086 198,375.5C 199.114,377.669 198.614,379.502 196.5,381C 196.728,381.399 197.062,381.565 197.5,381.5C 194.14,382.113 190.807,382.113 187.5,381.5C 186.671,384.546 184.671,386.213 181.5,386.5C 180.626,390.037 178.626,392.703 175.5,394.5C 173.396,394.293 171.063,394.126 168.5,394C 169.711,393.107 169.711,392.274 168.5,391.5C 166.929,392.309 165.262,392.643 163.5,392.5C 163.67,393.822 163.337,394.989 162.5,396C 156.866,396.634 156.532,397.134 161.5,397.5C 160.828,400.908 161.828,403.575 164.5,405.5C 165.007,408.422 166.007,411.089 167.5,413.5C 167.703,415.39 167.037,416.89 165.5,418C 167.902,416.954 170.568,416.454 173.5,416.5C 174.594,418.359 175.427,420.359 176,422.5C 177.011,423.337 178.178,423.67 179.5,423.5C 177.062,424.886 174.729,424.553 172.5,422.5C 161.295,427.24 151.462,425.24 143,416.5C 140.864,413.047 141.031,409.713 143.5,406.5C 142.726,400.2 142.892,393.866 144,387.5C 146.499,386.202 148.833,386.536 151,388.5C 152.92,385.562 155.42,384.895 158.5,386.5C 159.624,385.086 160.624,383.586 161.5,382C 162.793,381.51 164.127,381.343 165.5,381.5C 165.815,377.2 168.149,375.533 172.5,376.5C 172.33,375.178 172.663,374.011 173.5,373C 177.204,371.929 180.871,371.762 184.5,372.5C 185.875,369.453 188.208,368.12 191.5,368.5C 191.051,366.023 191.717,364.023 193.5,362.5C 198.496,366.346 204.162,367.512 210.5,366C 212.996,364.669 214.996,362.836 216.5,360.5C 220.713,359.364 221.38,357.197 218.5,354C 214.833,351.667 211.167,349.333 207.5,347C 204.854,346.503 202.187,346.336 199.5,346.5C 200.06,338.296 203.726,336.462 210.5,341C 216.872,340.304 222.206,342.137 226.5,346.5 Z"/></g>
<g><path style="opacity:1" fill="#384688" d="M 56.5,345.5 C 69.0681,345.581 74.2347,351.915 72,364.5C 69.2701,371.053 64.4368,373.22 57.5,371C 55,369.833 53.1667,368 52,365.5C 50.5236,360.924 50.1902,356.257 51,351.5C 52.3597,348.977 54.193,346.977 56.5,345.5 Z"/></g>
<g><path style="opacity:1" fill="#302c2d" d="M 168.5,346.5 C 172.443,347.568 176.11,349.402 179.5,352C 177.728,353.487 175.728,353.82 173.5,353C 171.277,350.777 168.611,349.444 165.5,349C 166.942,348.623 167.942,347.79 168.5,346.5 Z"/></g>
<g><path style="opacity:1" fill="#fbfafa" d="M 226.5,346.5 C 238.275,350.049 242.108,357.715 238,369.5C 235.493,371.837 232.993,374.17 230.5,376.5C 229.369,378.074 229.202,379.741 230,381.5C 231.044,380.377 231.71,379.044 232,377.5C 232.654,376.304 233.154,376.304 233.5,377.5C 232.398,382.105 229.898,385.771 226,388.5C 223.328,399.192 217.661,407.858 209,414.5C 209.305,412.557 209.305,410.557 209,408.5C 207.2,414.819 203.2,418.819 197,420.5C 195.188,420.507 193.688,419.84 192.5,418.5C 188.909,421.886 184.575,423.553 179.5,423.5C 178.178,423.67 177.011,423.337 176,422.5C 175.427,420.359 174.594,418.359 173.5,416.5C 174.289,416.217 174.956,415.717 175.5,415C 172.561,416.1 169.895,415.6 167.5,413.5C 166.007,411.089 165.007,408.422 164.5,405.5C 161.828,403.575 160.828,400.908 161.5,397.5C 163.377,397.1 164.877,396.1 166,394.5C 169.212,395.798 172.378,395.798 175.5,394.5C 178.626,392.703 180.626,390.037 181.5,386.5C 184.671,386.213 186.671,384.546 187.5,381.5C 190.807,382.113 194.14,382.113 197.5,381.5C 199.275,379.416 201.608,378.249 204.5,378C 205.252,377.329 205.586,376.496 205.5,375.5C 206.198,373.333 207.531,371.5 209.5,370C 212.767,370.063 214.934,368.563 216,365.5C 217.356,366.38 218.856,366.714 220.5,366.5C 220.33,365.178 220.663,364.011 221.5,363C 224.414,362.867 226.747,361.7 228.5,359.5C 230.762,360.467 233.095,361.134 235.5,361.5C 233.183,355.725 229.516,350.892 224.5,347C 225.094,346.536 225.761,346.369 226.5,346.5 Z"/></g>
<g><path style="opacity:1" fill="#f9fafb" d="M 401.5,347.5 C 410.657,346.489 414.49,350.489 413,359.5C 408.243,364.241 403.243,364.574 398,360.5C 395.186,354.938 396.352,350.605 401.5,347.5 Z"/></g>
<g><path style="opacity:1" fill="#f7f7fa" d="M 58.5,350.5 C 67.2069,350.037 70.7069,354.037 69,362.5C 63.1586,369.394 57.8253,369.061 53,361.5C 52.1757,356.482 54.0091,352.815 58.5,350.5 Z"/></g>
<g><path style="opacity:1" fill="#028844" d="M 334.5,349.5 C 335.239,349.369 335.906,349.536 336.5,350C 333.542,353.307 333.875,356.141 337.5,358.5C 341.51,355.245 346.01,352.912 351,351.5C 353.697,353.439 356.531,355.272 359.5,357C 361.414,358.413 362.747,360.247 363.5,362.5C 360.553,363.321 357.553,363.821 354.5,364C 353.13,365.441 352.13,367.108 351.5,369C 345.833,368.667 340.167,368.333 334.5,368C 332.66,370.826 331.994,373.993 332.5,377.5C 326.395,376.651 320.895,377.984 316,381.5C 315.28,383.112 315.446,384.612 316.5,386C 313.986,387.252 311.32,387.752 308.5,387.5C 308.276,385.213 307.609,383.047 306.5,381C 309.537,378.812 311.537,375.979 312.5,372.5C 311.022,372.762 309.689,372.429 308.5,371.5C 311.211,367.788 314.544,364.788 318.5,362.5C 320.098,363.485 321.765,363.651 323.5,363C 326.816,358.194 330.483,353.694 334.5,349.5 Z"/></g>
<g><path style="opacity:1" fill="#272324" d="M 214.5,360.5 C 212.223,361.449 210.223,362.782 208.5,364.5C 201.082,365.81 197.082,362.81 196.5,355.5C 199.226,355.736 201.559,354.903 203.5,353C 207.485,351.666 210.152,352.999 211.5,357C 213.167,357.333 214.833,357.667 216.5,358C 215.619,358.708 214.953,359.542 214.5,360.5 Z"/></g>
<g><path style="opacity:1" fill="#3c393a" d="M 117.5,353.5 C 119.527,353.338 121.527,353.505 123.5,354C 124.833,355.333 124.833,356.667 123.5,358C 121.19,358.497 118.857,358.663 116.5,358.5C 116.366,356.708 116.699,355.042 117.5,353.5 Z"/></g>
<g><path style="opacity:1" fill="#ed9d1c" d="M 264.5,361.5 C 267.157,361.162 269.49,361.829 271.5,363.5C 273.553,361.064 275.386,361.398 277,364.5C 277.971,370.207 275.638,373.874 270,375.5C 269.228,375.355 268.561,375.022 268,374.5C 267.667,371.833 267.333,369.167 267,366.5C 265.628,365.09 264.795,363.423 264.5,361.5 Z"/></g>
<g><path style="opacity:1" fill="#f6f6f6" d="M 259.5,365.5 C 261.017,365.511 262.184,366.177 263,367.5C 263.814,369.902 263.647,372.235 262.5,374.5C 260.045,375.315 257.711,376.315 255.5,377.5C 254.833,377.167 254.167,376.833 253.5,376.5C 254.189,374.556 254.689,372.556 255,370.5C 256.707,368.963 258.207,367.296 259.5,365.5 Z"/></g>
<g><path style="opacity:1" fill="#3a4889" d="M 391.5,372.5 C 393.614,373.784 394.614,375.784 394.5,378.5C 393.167,378.5 391.833,378.5 390.5,378.5C 390.314,386.149 393.981,389.315 401.5,388C 403.758,385.415 405.591,382.582 407,379.5C 408.031,391.474 402.865,395.641 391.5,392C 384.877,385.544 384.877,379.044 391.5,372.5 Z"/></g>
<g><path style="opacity:1" fill="#394788" d="M 71.5,375.5 C 73.6491,376.59 74.9825,378.424 75.5,381C 71.8597,385.779 68.8597,390.945 66.5,396.5C 66.8333,397.167 67.1667,397.833 67.5,398.5C 70.9745,396.733 74.4745,395.067 78,393.5C 78.3333,392.5 78.6667,391.5 79,390.5C 81.2598,392.53 81.7598,394.863 80.5,397.5C 75.2587,399.705 70.0921,402.038 65,404.5C 64.3623,403.391 63.8623,402.225 63.5,401C 64.1667,396.667 64.8333,392.333 65.5,388C 65.1667,387.5 64.8333,387 64.5,386.5C 62.5708,387.38 60.7374,388.38 59,389.5C 57.124,388.381 56.2907,386.714 56.5,384.5C 61.4076,383.362 66.0742,381.529 70.5,379C 71.3366,377.989 71.67,376.822 71.5,375.5 Z"/></g>
<g><path style="opacity:1" fill="#3f3b3c" d="M 205.5,375.5 C 205.586,376.496 205.252,377.329 204.5,378C 201.608,378.249 199.275,379.416 197.5,381.5C 197.062,381.565 196.728,381.399 196.5,381C 198.614,379.502 199.114,377.669 198,375.5C 200.494,378.086 202.994,378.086 205.5,375.5 Z"/></g>
<g><path style="opacity:1" fill="#038643" d="M 276.5,381.5 C 279.073,381.148 281.406,381.648 283.5,383C 273.585,390.705 264.418,399.205 256,408.5C 255.312,409.332 255.479,409.998 256.5,410.5C 259.64,408.527 262.64,406.36 265.5,404C 268.246,402.25 271.246,401.25 274.5,401C 276.833,398.667 279.167,396.333 281.5,394C 284.146,393.503 286.813,393.336 289.5,393.5C 288.694,397.946 286.694,401.779 283.5,405C 281.253,406.655 278.92,406.988 276.5,406C 274.667,407.833 272.833,409.667 271,411.5C 270.612,410.572 269.945,409.905 269,409.5C 265.908,410.924 263.074,412.757 260.5,415C 258.801,415.393 257.301,414.893 256,413.5C 254.374,414.289 252.874,415.289 251.5,416.5C 251.167,415.333 250.833,414.167 250.5,413C 251.073,408.842 251.573,404.676 252,400.5C 256.185,397.405 260.185,394.072 264,390.5C 264.273,388.899 264.773,387.399 265.5,386C 269.053,383.879 272.72,382.379 276.5,381.5 Z"/></g>
<g><path style="opacity:1" fill="#e99b1c" d="M 325.5,392.5 C 329.725,393.722 332.725,396.388 334.5,400.5C 330.867,401.412 327.2,402.079 323.5,402.5C 323.034,398.838 323.701,395.505 325.5,392.5 Z"/></g>
<g><path style="opacity:1" fill="#3c3839" d="M 175.5,394.5 C 172.378,395.798 169.212,395.798 166,394.5C 164.877,396.1 163.377,397.1 161.5,397.5C 156.532,397.134 156.866,396.634 162.5,396C 163.337,394.989 163.67,393.822 163.5,392.5C 165.262,392.643 166.929,392.309 168.5,391.5C 169.711,392.274 169.711,393.107 168.5,394C 171.063,394.126 173.396,394.293 175.5,394.5 Z"/></g>
<g><path style="opacity:1" fill="#087f40" d="M 294.5,365.5 C 301.92,375.639 305.586,387.139 305.5,400C 305.042,407.208 304.208,414.375 303,421.5C 302.245,426.535 300.579,431.202 298,435.5C 296,433.431 294.167,431.265 292.5,429C 300.758,417.137 304.258,403.971 303,389.5C 302.481,388.484 301.647,387.818 300.5,387.5C 295.186,388.554 289.853,389.054 284.5,389C 288.91,387.373 293.41,386.207 298,385.5C 298.667,383.167 298.667,380.833 298,378.5C 296.23,374.304 295.063,369.971 294.5,365.5 Z"/></g>
<g><path style="opacity:1" fill="#5b5859" d="M 203.5,391.5 C 204.573,392.251 204.74,393.251 204,394.5C 201.112,397.722 198.612,401.222 196.5,405C 193.077,404.911 189.744,404.911 186.5,405C 188.081,404.293 189.581,403.46 191,402.5C 192.699,403.406 194.533,403.739 196.5,403.5C 196.585,401.071 197.585,399.071 199.5,397.5C 199.291,396.914 198.957,396.414 198.5,396C 200.986,395.344 202.653,393.844 203.5,391.5 Z"/></g>
<g><path style="opacity:1" fill="#f5f5f5" d="M 328.5,404.5 C 330.591,404.318 332.591,404.652 334.5,405.5C 335.48,408.086 335.813,410.753 335.5,413.5C 328.733,415.891 325.567,413.557 326,406.5C 326.995,405.934 327.828,405.267 328.5,404.5 Z"/></g>
<g><path style="opacity:1" fill="#364587" d="M 81.5,406.5 C 91.0755,407.73 95.4089,413.063 94.5,422.5C 92.8333,421.667 91.1667,420.833 89.5,420C 90.942,416.872 90.442,414.038 88,411.5C 85.8333,410 84.3333,410.5 83.5,413C 86.5108,417.031 87.6775,421.531 87,426.5C 81.8917,429.587 77.5584,428.587 74,423.5C 73.0642,419.793 71.2308,416.626 68.5,414C 70.8098,413.503 73.1432,413.337 75.5,413.5C 74.6087,419.412 76.942,423.079 82.5,424.5C 81.9501,420.231 80.9501,416.064 79.5,412C 79.3948,409.822 80.0615,407.988 81.5,406.5 Z"/></g>
<g><path style="opacity:1" fill="#384688" d="M 378.5,408.5 C 379.649,408.791 380.316,409.624 380.5,411C 380.333,411.833 380.167,412.667 380,413.5C 375.191,415.262 373.691,418.429 375.5,423C 376.449,423.617 377.282,423.451 378,422.5C 380.305,418.696 382.805,415.03 385.5,411.5C 385.833,411.833 386.167,412.167 386.5,412.5C 384.167,416.5 381.833,420.5 379.5,424.5C 380.79,425.408 382.123,425.241 383.5,424C 386,422.167 388.167,420 390,417.5C 389.168,427.524 383.668,431.691 373.5,430C 370.572,426.743 369.738,422.909 371,418.5C 372.947,414.724 375.447,411.39 378.5,408.5 Z"/></g>
<g><path style="opacity:1" fill="#3a3637" d="M 167.5,413.5 C 169.895,415.6 172.561,416.1 175.5,415C 174.956,415.717 174.289,416.217 173.5,416.5C 170.568,416.454 167.902,416.954 165.5,418C 167.037,416.89 167.703,415.39 167.5,413.5 Z"/></g>
<g><path style="opacity:1" fill="#394889" d="M 97.5,428.5 C 98.3864,427.224 99.3864,427.224 100.5,428.5C 103.643,432.811 106.977,436.978 110.5,441C 110,441.5 109.5,442 109,442.5C 107.446,439.898 105.28,438.731 102.5,439C 99.4201,441.29 96.2534,443.457 93,445.5C 93.0169,451.808 91.6836,452.141 89,446.5C 88.3333,445.5 88.3333,444.5 89,443.5C 93.624,440.706 97.7907,437.373 101.5,433.5C 100.388,431.581 99.0542,429.914 97.5,428.5 Z"/></g>
<g><path style="opacity:1" fill="#0d723c" d="M 289.5,434.5 C 292.452,435.399 293.619,437.399 293,440.5C 290.735,439.084 289.569,437.084 289.5,434.5 Z"/></g>
<g><path style="opacity:1" fill="#374587" d="M 355.5,437.5 C 363.136,438.825 370.802,439.992 378.5,441C 377.257,442.154 376.257,443.488 375.5,445C 373.866,445.494 372.199,445.66 370.5,445.5C 370.929,449.459 369.929,452.959 367.5,456C 366.167,456.667 364.833,456.667 363.5,456C 362.103,451.97 361.103,447.804 360.5,443.5C 357.236,442.535 354.236,442.535 351.5,443.5C 352.844,441.471 354.177,439.471 355.5,437.5 Z"/></g>
<g><path style="opacity:1" fill="#3c498a" d="M 114.5,444.5 C 118.151,445.313 120.484,447.48 121.5,451C 119.447,457.712 117.947,464.546 117,471.5C 113.168,470.164 111.668,467.497 112.5,463.5C 107.427,464.47 104.094,462.637 102.5,458C 102.585,456.893 102.919,455.893 103.5,455C 107.5,454.333 111.5,453.667 115.5,453C 117.211,451.867 117.711,450.367 117,448.5C 115.915,447.264 115.082,445.931 114.5,444.5 Z"/></g>
<g><path style="opacity:1" fill="#ecedf4" d="M 364.5,443.5 C 365.496,443.414 366.329,443.748 367,444.5C 367.494,446.134 367.66,447.801 367.5,449.5C 363.556,449.116 362.556,447.116 364.5,443.5 Z"/></g>
<g><path style="opacity:1" fill="#3b498a" d="M 343.5,450.5 C 346.968,454.141 350.302,457.974 353.5,462C 359.163,461.581 360.163,462.914 356.5,466C 354.833,466.667 353.167,466.667 351.5,466C 348.427,461.258 344.427,457.591 339.5,455C 341.041,453.629 342.375,452.129 343.5,450.5 Z"/></g>
<g><path style="opacity:1" fill="#f7a41b" d="M 17.5,471.5 C 21.2984,470.517 25.2984,470.183 29.5,470.5C 36.5129,470.835 43.5129,471.002 50.5,471C 51.3842,465.417 52.7176,459.917 54.5,454.5C 61.4396,463.61 68.9396,472.276 77,480.5C 77.4175,482.788 76.7509,484.788 75,486.5C 68.3051,495.516 61.3051,504.183 54,512.5C 39.4688,500.81 27.3021,487.143 17.5,471.5 Z"/></g>
<g><path style="opacity:1" fill="#f7f8fa" d="M 109.5,456.5 C 111.167,456.5 112.833,456.5 114.5,456.5C 114.616,459.91 112.95,461.244 109.5,460.5C 109.5,459.167 109.5,457.833 109.5,456.5 Z"/></g>
<g><path style="opacity:1" fill="#364487" d="M 329.5,459.5 C 330.552,459.351 331.552,459.517 332.5,460C 336.356,464.355 340.023,468.855 343.5,473.5C 342.501,476.174 340.834,476.841 338.5,475.5C 334.115,476.679 329.781,478.013 325.5,479.5C 326.833,481.5 328.167,483.5 329.5,485.5C 328.833,486.833 327.833,487.833 326.5,488.5C 322.958,484.613 319.291,480.78 315.5,477C 313.915,476.915 312.582,476.749 311.5,476.5C 312.918,474.077 314.918,472.411 317.5,471.5C 323.616,473.878 329.949,474.878 336.5,474.5C 336.649,473.448 336.483,472.448 336,471.5C 333.982,469.65 332.149,467.65 330.5,465.5C 328.662,464.811 326.995,464.478 325.5,464.5C 326.857,462.814 328.19,461.148 329.5,459.5 Z"/></g>
<g><path style="opacity:1" fill="#354486" d="M 132.5,460.5 C 134.781,461.608 136.948,462.942 139,464.5C 138.544,470.13 138.544,475.796 139,481.5C 139.29,483.044 139.956,484.377 141,485.5C 143.5,481.833 146,478.167 148.5,474.5C 148.023,473.522 147.357,472.689 146.5,472C 149.332,471.961 151.665,473.127 153.5,475.5C 150.162,481.512 146.328,487.179 142,492.5C 140.926,491.382 139.76,490.382 138.5,489.5C 138.833,488.833 139.167,488.167 139.5,487.5C 137.167,483.5 134.833,479.5 132.5,475.5C 130.823,477.54 129.156,479.54 127.5,481.5C 125.998,480.917 124.665,480.084 123.5,479C 126.667,474.5 129.833,470 133,465.5C 133.384,463.803 133.218,462.137 132.5,460.5 Z"/></g>
<g><path style="opacity:1" fill="#f7a41b" d="M 402.5,461.5 C 403.491,468.313 403.825,475.313 403.5,482.5C 416.837,482.333 430.171,482.5 443.5,483C 432.288,494.714 420.621,505.88 408.5,516.5C 400.115,506.116 392.115,495.45 384.5,484.5C 391.233,477.347 397.233,469.68 402.5,461.5 Z"/></g>
<g><path style="opacity:1" fill="#78551e" d="M 29.5,470.5 C 25.2984,470.183 21.2984,470.517 17.5,471.5C 16.9569,471.44 16.6236,471.107 16.5,470.5C 20.9838,469.189 25.3171,469.189 29.5,470.5 Z"/></g>
<g><path style="opacity:1" fill="#364587" d="M 301.5,480.5 C 308.981,480.752 310.314,483.752 305.5,489.5C 305.833,489.833 306.167,490.167 306.5,490.5C 310.111,491.262 313.778,491.762 317.5,492C 312.036,496.693 305.87,497.527 299,494.5C 298.5,494.833 298,495.167 297.5,495.5C 299.027,497.193 300.36,499.027 301.5,501C 300.335,502.084 299.002,502.917 297.5,503.5C 295.333,499.833 293.167,496.167 291,492.5C 289.693,491.228 288.193,490.228 286.5,489.5C 289.172,486.878 292.172,485.711 295.5,486C 297.396,483.932 299.396,482.099 301.5,480.5 Z"/></g>
<g><path style="opacity:1" fill="#394789" d="M 160.5,481.5 C 166.465,480.734 171.632,482.401 176,486.5C 177.009,488.025 177.509,489.692 177.5,491.5C 175.801,491.66 174.134,491.494 172.5,491C 170.701,487.017 167.701,484.851 163.5,484.5C 163.343,485.873 163.51,487.207 164,488.5C 167,490.167 169.333,492.5 171,495.5C 172.756,500.406 171.089,503.073 166,503.5C 164.112,503.204 162.278,502.704 160.5,502C 157.167,499.667 153.833,497.333 150.5,495C 152,493.885 153.667,493.052 155.5,492.5C 157.288,494.791 159.288,496.957 161.5,499C 163.441,499.743 165.274,499.576 167,498.5C 167.667,497.833 167.667,497.167 167,496.5C 164.037,494.539 161.371,492.206 159,489.5C 158.109,486.502 158.609,483.836 160.5,481.5 Z"/></g>
<g><path style="opacity:1" fill="#e8eaf1" d="M 298.5,485.5 C 300.167,485.5 301.833,485.5 303.5,485.5C 303.027,489.638 300.693,491.638 296.5,491.5C 296.253,489.142 296.919,487.142 298.5,485.5 Z"/></g>
<g><path style="opacity:1" fill="#384688" d="M 197.5,490.5 C 200.843,491.059 203.843,492.392 206.5,494.5C 205.253,496.323 204.586,498.323 204.5,500.5C 216.151,500.299 219.318,505.299 214,515.5C 209.338,520.918 203.505,523.084 196.5,522C 202.223,519.275 207.057,515.442 211,510.5C 211.567,505.893 209.401,503.559 204.5,503.5C 203.558,503.608 202.725,503.941 202,504.5C 200.333,508.5 198.667,512.5 197,516.5C 195.293,517.138 193.46,517.138 191.5,516.5C 193.872,509.416 196.539,502.416 199.5,495.5C 198.813,493.823 198.146,492.156 197.5,490.5 Z"/></g>
<g><path style="opacity:1" fill="#384688" d="M 276.5,493.5 C 278.604,493.201 280.604,493.534 282.5,494.5C 282.023,495.478 281.357,496.311 280.5,497C 276.439,496.696 273.273,498.196 271,501.5C 270.219,502.944 270.386,504.277 271.5,505.5C 276.079,503.294 280.579,500.961 285,498.5C 286.487,499.253 286.654,500.086 285.5,501C 269.599,508.92 270.266,511.086 287.5,507.5C 283.147,513.085 277.48,514.919 270.5,513C 265.931,510.459 264.431,506.625 266,501.5C 268.806,497.853 272.306,495.186 276.5,493.5 Z"/></g>
<g><path style="opacity:1" fill="#f6a31d" d="M 379.5,498.5 C 391.51,513.327 403.176,528.494 414.5,544C 391.992,561.261 367.326,574.927 340.5,585C 297.776,601.914 253.442,609.247 207.5,607C 152.104,600.289 101.437,581.289 55.5,550C 53.316,547.984 51.316,545.817 49.5,543.5C 59.8333,528.833 70.1667,514.167 80.5,499.5C 88.6594,505.749 97.326,511.249 106.5,516C 141.244,534.208 177.577,548.208 215.5,558C 222.444,559.455 229.444,559.788 236.5,559C 278.409,549.876 318.076,534.876 355.5,514C 363.735,509.058 371.735,503.892 379.5,498.5 Z"/></g>
<g><path style="opacity:1" fill="#354487" d="M 253.5,502.5 C 255.39,502.297 256.89,502.963 258,504.5C 258.711,506.899 258.544,509.232 257.5,511.5C 262.066,512.302 263.9,514.968 263,519.5C 257.141,524.674 250.308,526.84 242.5,526C 240.008,520.005 237.675,514.005 235.5,508C 237.989,505.502 240.822,505.002 244,506.5C 247.471,505.629 250.638,504.296 253.5,502.5 Z"/></g>
<g><path style="opacity:1" fill="#edeef4" d="M 249.5,506.5 C 251.665,506.116 253.332,506.783 254.5,508.5C 253.363,511.47 251.363,513.636 248.5,515C 250.5,515.333 252.5,515.667 254.5,516C 257.167,518 257.167,520 254.5,522C 251.743,523.953 249.243,523.787 247,521.5C 244.755,518.11 243.755,514.443 244,510.5C 245.812,509.023 247.645,507.69 249.5,506.5 Z"/></g>
<g><path style="opacity:1" fill="#3f4c8c" d="M 224.5,507.5 C 226.117,508.038 227.784,508.371 229.5,508.5C 228.204,513.928 226.204,519.094 223.5,524C 227.674,528.161 227.007,529.161 221.5,527C 220.426,526.261 219.759,525.261 219.5,524C 222.189,518.795 223.855,513.295 224.5,507.5 Z"/></g>
<g><path style="opacity:1" fill="#37407e" d="M 381.5,520.5 C 387.041,527.222 392.041,534.388 396.5,542C 396.097,543.473 395.43,544.806 394.5,546C 386.5,546.333 378.5,546.667 370.5,547C 372.625,550.082 374.625,553.249 376.5,556.5C 374.851,557.648 373.351,558.981 372,560.5C 367.611,555.111 363.611,549.444 360,543.5C 358.068,541.962 355.901,540.795 353.5,540C 355.054,538.108 356.888,536.608 359,535.5C 368.387,540.142 378.221,542.142 388.5,541.5C 385.472,537.639 382.639,533.639 380,529.5C 378.693,528.228 377.193,527.228 375.5,526.5C 377.854,524.812 379.854,522.812 381.5,520.5 Z"/></g>
<g><path style="opacity:1" fill="#38407e" d="M 81.5,526.5 C 84.6887,528.26 88.0221,529.76 91.5,531C 92.3802,532.356 92.7135,533.856 92.5,535.5C 97.3896,534.784 101.556,536.117 105,539.5C 105.965,546.629 102.799,549.629 95.5,548.5C 95.252,554.36 96.9187,559.527 100.5,564C 96.7376,563.47 93.071,562.303 89.5,560.5C 88.6297,554.848 87.963,549.181 87.5,543.5C 86.5,543.5 85.5,543.5 84.5,543.5C 83.2679,547.134 81.6012,550.634 79.5,554C 76.9023,553.874 74.569,552.874 72.5,551C 75.793,545.582 78.9597,540.082 82,534.5C 82.6015,531.779 82.4349,529.113 81.5,526.5 Z"/></g>
<g><path style="opacity:1" fill="#eb9e26" d="M 92.5,537.5 C 94.9201,537.292 97.2534,537.626 99.5,538.5C 99.8913,543.921 97.2247,546.087 91.5,545C 90.3147,543.647 88.9814,542.48 87.5,541.5C 89.4192,540.388 91.0858,539.054 92.5,537.5 Z"/></g>
<g><path style="opacity:1" fill="#44447a" d="M 321.5,541.5 C 323.645,541.738 325.312,542.738 326.5,544.5C 324.424,547.581 321.757,549.914 318.5,551.5C 317.833,551.167 317.167,550.833 316.5,550.5C 318.432,547.634 320.099,544.634 321.5,541.5 Z"/></g>
<g><path style="opacity:1" fill="#38417d" d="M 345.5,542.5 C 346.376,542.369 347.043,542.702 347.5,543.5C 350.773,549.712 353.773,556.046 356.5,562.5C 358.766,563.314 361.1,563.814 363.5,564C 360.779,567.032 357.446,568.366 353.5,568C 350.127,561.42 346.627,554.92 343,548.5C 341.933,547.809 340.766,547.309 339.5,547C 341.747,545.723 343.747,544.223 345.5,542.5 Z"/></g>
<g><path style="opacity:1" fill="#37407e" d="M 116.5,546.5 C 124.65,545.936 131.483,548.603 137,554.5C 141.21,569.254 135.71,575.754 120.5,574C 108.721,570.279 105.221,562.779 110,551.5C 111.965,549.45 114.132,547.783 116.5,546.5 Z"/></g>
<g><path style="opacity:1" fill="#f3a220" d="M 122.5,549.5 C 129.113,550.113 132.78,553.78 133.5,560.5C 131.113,571.011 125.28,573.677 116,568.5C 111.457,559.875 113.624,553.542 122.5,549.5 Z"/></g>
<g><path style="opacity:1" fill="#353f7f" d="M 321.5,552.5 C 329.128,557.351 336.128,563.184 342.5,570C 344.623,570.815 346.623,571.815 348.5,573C 346.246,574.256 343.912,575.423 341.5,576.5C 339.5,575.5 337.5,574.5 335.5,573.5C 333.791,576.722 331.458,579.556 328.5,582C 320.794,585.728 317.627,583.562 319,575.5C 320.44,571.453 322.274,567.62 324.5,564C 323.516,562.343 322.516,560.677 321.5,559C 318.101,558.068 314.767,557.401 311.5,557C 315.042,555.725 318.375,554.225 321.5,552.5 Z"/></g>
<g><path style="opacity:1" fill="#38407e" d="M 153.5,559.5 C 158.248,559.275 162.915,559.775 167.5,561C 174.175,564.14 174.009,566.64 167,568.5C 165.225,567.73 163.725,566.563 162.5,565C 158.6,562.595 155.266,563.095 152.5,566.5C 152.977,567.478 153.643,568.311 154.5,569C 159.994,569.826 164.828,571.993 169,575.5C 169.572,583.414 165.738,586.747 157.5,585.5C 152.519,584.683 147.519,583.85 142.5,583C 144.709,581.127 146.542,578.96 148,576.5C 151.203,580.688 155.37,582.521 160.5,582C 161.687,580.981 162.687,579.814 163.5,578.5C 158.269,576.132 153.102,573.466 148,570.5C 147.333,568.167 147.333,565.833 148,563.5C 149.812,562.023 151.645,560.69 153.5,559.5 Z"/></g>
<g><path style="opacity:1" fill="#36407e" d="M 293.5,561.5 C 300.206,560.559 304.706,563.225 307,569.5C 309.443,578.436 306.61,584.936 298.5,589C 294.825,589.595 294.658,588.762 298,586.5C 300.891,581.501 301.891,576.167 301,570.5C 298.155,566.859 294.988,566.692 291.5,570C 289.406,571.255 288.406,573.088 288.5,575.5C 289.818,580.757 290.485,586.09 290.5,591.5C 288.167,591.5 285.833,591.5 283.5,591.5C 283.529,585.79 283.029,580.123 282,574.5C 276.378,571.171 272.044,572.504 269,578.5C 267.648,586.169 270.815,591.003 278.5,593C 265.872,596.051 260.372,590.884 262,577.5C 266.419,567.187 273.919,564.187 284.5,568.5C 287.233,565.761 290.233,563.427 293.5,561.5 Z"/></g>
<g><path style="opacity:1" fill="#e79c28" d="M 327.5,566.5 C 331.146,567.462 332.313,569.795 331,573.5C 327.84,576.501 325.674,576.001 324.5,572C 324.863,569.808 325.863,567.974 327.5,566.5 Z"/></g>
<g><path style="opacity:1" fill="#39417d" d="M 202.5,569.5 C 207.284,568.839 211.618,569.839 215.5,572.5C 213.992,574.507 212.158,576.174 210,577.5C 209.671,573.96 207.838,572.794 204.5,574C 199.184,578.526 198.184,583.859 201.5,590C 205.567,592.011 209.9,593.011 214.5,593C 208.235,597.599 201.902,597.599 195.5,593C 189.874,582.76 192.208,574.927 202.5,569.5 Z"/></g>
<g><path style="opacity:1" fill="#3b417d" d="M 232.5,571.5 C 239.255,570.565 245.422,571.898 251,575.5C 255.615,581.774 255.448,587.941 250.5,594C 241.728,599.954 233.228,599.787 225,593.5C 219.922,583.362 222.422,576.029 232.5,571.5 Z"/></g>
<g><path style="opacity:1" fill="#f4a31f" d="M 235.5,573.5 C 244.622,574.45 248.789,579.45 248,588.5C 244.865,594.989 240.032,596.823 233.5,594C 226.4,586.351 227.067,579.518 235.5,573.5 Z"/></g>
</svg>
