<?xml version="1.0" encoding="utf-8"?>
<!-- Generator: Adobe Illustrator 19.0.1, SVG Export Plug-In . SVG Version: 6.00 Build 0)  -->
<svg version="1.1" id="Layer_1" xmlns="http://www.w3.org/2000/svg" xmlns:xlink="http://www.w3.org/1999/xlink" x="0px" y="0px"
	 viewBox="0 0 100 100" style="enable-background:new 0 0 100 100;" xml:space="preserve">
<style type="text/css">
	.st0{fill:#FFFFFF;}
	.st1{fill:#0060AF;}
	.st2{stroke:#000000;stroke-width:0.6898;}
	.st3{fill:#00AF5C;}
	.st4{fill:none;stroke:#FFFFFF;stroke-width:0.5971;}
	.st5{stroke:#000000;stroke-width:0.2579;}
	.st6{fill:#FFFFFF;stroke:#000000;stroke-width:0.568;}
	.st7{stroke:#000000;stroke-width:0.3514;}
	.st8{fill:#CB7F56;stroke:#000000;stroke-width:0.3514;}
	.st9{fill:#CB7F56;}
	.st10{fill:#FFD000;stroke:#010101;stroke-width:0.6632;}
	.st11{fill:#9CBFE5;stroke:#010101;stroke-width:0.6632;stroke-linecap:round;stroke-linejoin:round;}
	.st12{stroke:#000000;stroke-width:0.429;}
	.st13{fill:#FFFFFF;stroke:#000000;stroke-width:0.429;}
	.st14{stroke:#000000;stroke-width:0.429;stroke-linecap:round;stroke-linejoin:round;}
	.st15{stroke:#000000;stroke-width:0.465;}
	.st16{fill-rule:evenodd;clip-rule:evenodd;fill:#9CBFE5;stroke:#000000;stroke-width:0.3122;}
	.st17{fill-rule:evenodd;clip-rule:evenodd;fill:#9CBFE5;}
	.st18{fill-rule:evenodd;clip-rule:evenodd;fill:#FFFFFF;}
	.st19{fill:none;stroke:#000000;stroke-width:0.4023;}
	.st20{fill-rule:evenodd;clip-rule:evenodd;stroke:#000000;stroke-width:0.312;stroke-linecap:round;stroke-linejoin:round;}
	
		.st21{fill-rule:evenodd;clip-rule:evenodd;fill:none;stroke:#000000;stroke-width:0.312;stroke-linecap:round;stroke-linejoin:round;}
	.st22{fill-rule:evenodd;clip-rule:evenodd;fill:none;stroke:#000000;stroke-width:0.5872;}
	
		.st23{fill-rule:evenodd;clip-rule:evenodd;fill:#FFFFFF;stroke:#FFFFFF;stroke-width:0.2677;stroke-linecap:round;stroke-linejoin:round;}
	
		.st24{fill-rule:evenodd;clip-rule:evenodd;fill:#FFFFFF;stroke:#FFFFFF;stroke-width:0.2537;stroke-linecap:round;stroke-linejoin:round;}
	
		.st25{fill-rule:evenodd;clip-rule:evenodd;fill:#FFFFFF;stroke:#FFFFFF;stroke-width:0.2546;stroke-linecap:round;stroke-linejoin:round;}
</style>
<g>
	<g>
		<path d="M50,10.9c-20.9,0-36.7,16.2-36.7,36.1c0,19.9,15.4,36.1,36.7,36.1c20.3,0,36.7-16.2,36.7-36.1
			C86.7,27.1,70.9,10.9,50,10.9z"/>
		<path d="M50,83.5c-21.2,0-37.1-15.7-37.1-36.5c0-20.5,16.3-36.5,37.1-36.5c20.8,0,37.1,16,37.1,36.5C87.1,67.1,70.5,83.5,50,83.5z
			 M50,11.4C29.7,11.4,13.7,27,13.7,47c0,20.3,15.6,35.6,36.3,35.6c20,0,36.3-16,36.3-35.6C86.3,27,70.3,11.4,50,11.4z"/>
	</g>
	<g>
		<path class="st0" d="M73.5,18C67.1,13.5,59,10.8,50,10.8c-8.2,0-15.6,2.2-21.6,5.9c-0.7,0.4-1.3,0.8-1.9,1.3l-5.3-7.7
			C28.5,4.6,38.6,1,50,1c11.5,0,21.5,3.6,28.8,9.4L73.5,18z"/>
		<path d="M26.4,18.7l-5.7-8.4L21,10c7.7-6.1,18-9.5,29-9.5c11.1,0,21.4,3.4,29.1,9.5l0.3,0.3l-5.8,8.3l-0.4-0.3
			c-6.5-4.7-14.6-7.1-23.2-7.1c-7.8,0-15.2,2-21.4,5.9c-0.6,0.4-1.3,0.8-1.9,1.3L26.4,18.7z M21.8,10.5l4.8,7
			c0.5-0.4,1.1-0.7,1.6-1.1c6.3-3.9,13.8-6,21.8-6c8.7,0,16.7,2.4,23.4,7l4.9-6.9c-7.5-5.8-17.5-9-28.2-9
			C39.3,1.4,29.3,4.6,21.8,10.5z"/>
	</g>
	<g>
		<circle class="st1" cx="50.1" cy="47.5" r="33.2"/>
		<path d="M50.1,81.1c-18.5,0-33.6-15.1-33.6-33.6c0-18.5,15.1-33.6,33.6-33.6c18.5,0,33.6,15.1,33.6,33.6
			C83.7,66,68.7,81.1,50.1,81.1z M50.1,14.7c-18.1,0-32.8,14.7-32.8,32.8c0,18.1,14.7,32.8,32.8,32.8c18.1,0,32.8-14.7,32.8-32.8
			C82.9,29.4,68.2,14.7,50.1,14.7z"/>
	</g>
	<path class="st2" d="M18.1,55.7c0,0,10.9-14.1,24.1-1.8l-2,1.1c0,0-15.7-5.3-20.9,4.2L18.1,55.7z"/>
	<path d="M61.2,46.6c-0.2-0.1,5.9-3.5,6.4-3.7c4-1.5,7.4,1.7,9.9,3.5c0.8,0.6,7.6,5,8.3,4.3c0,0-2.6,2.8-2.6,2.8
		S61.2,46.6,61.2,46.6z"/>
	<g>
		<g>
			<path class="st3" d="M71,44c-3.3-1.8-6.3,0.8-6.3,0.8c-3.5,2.5-22.3,10.5-22.3,10.5c-11.2-7.8-15.8-1-24,3.6
				c4.8,12,17.1,20.6,31.4,20.6c16.4,0,30.1-11.2,33-26C78.1,50.5,71,44,71,44z"/>
			<path d="M49.9,80C35.8,80,23,71.6,18,59.1l-0.2-0.4l0.4-0.2c1.6-0.9,3-1.9,4.4-2.8c5.8-3.9,10.8-7.2,19.9-1
				c2.3-1,18.8-8.1,21.9-10.3c0.1-0.1,3.3-2.7,6.8-0.8l0.1,0.1c0.1,0.1,7.1,6.5,11.8,9.4l0.3,0.2l-0.1,0.3
				C80.3,68.9,66.3,80,49.9,80z M19.1,59.1C24,71,36.4,79,49.9,79c15.8,0,29.4-10.6,32.5-25.3c-4.6-2.9-10.9-8.7-11.6-9.3
				c-2.9-1.6-5.5,0.6-5.6,0.7c-3.5,2.5-21.7,10.3-22.4,10.6l-0.3,0.1l-0.2-0.2c-8.7-6.1-13.2-3.1-19,0.8
				C21.9,57.4,20.5,58.3,19.1,59.1z"/>
		</g>
		<g>
			<path class="st3" d="M35.4,57.4c0,0,4.3-0.7,9-3"/>
			<path d="M35.4,58c-0.2,0-0.5-0.2-0.5-0.4c0-0.3,0.1-0.5,0.4-0.6c0,0,4.3-0.8,8.9-3c0.2-0.1,0.5,0,0.7,0.2c0.1,0.2,0,0.5-0.2,0.7
				C39.9,57.2,35.7,57.9,35.4,58C35.5,57.9,35.4,58,35.4,58z"/>
		</g>
	</g>
	<path d="M35.1,56.5c0,0,9-2.2,23.4-8.7C58.6,47.8,37.6,59.3,35.1,56.5z"/>
	<g>
		<g>
			<path class="st4" d="M48,11.9c4.3-0.1,7.9,2,11.9,3.1c5.3,1.5,6.1,0.2,10.5,3c4.3,2.8,3.2,4,6.2,7.6c3,3.6,4.4,2.9,6.3,7.3
				c1.9,4.4,0.3,4.9,0.9,9.4c0.6,4.5,2.2,4.6,1.6,9.3c-0.6,4.7-2.2,4.4-4,8.6c-1.8,4.2-0.4,5.1-3.5,8.8c-3.1,3.8-4.3,2.7-8.4,5.4
				c-4.2,2.7-3.4,4.1-9,5.7c-4.1,1.2-8.3,0-12.4,0.1"/>
			<path class="st4" d="M48,13.3c4.2,0.1,8.4-1,12.5,0.1c5.6,1.6,4.8,3,9,5.7c4.2,2.7,5.3,1.6,8.4,5.4c3.1,3.8,1.7,4.6,3.5,8.9
				c1.8,4.2,3.4,3.9,4,8.6c0.6,4.7-1,4.8-1.6,9.3c-0.6,4.5,1,5-0.9,9.4c-1.9,4.4-3.3,3.7-6.3,7.3c-3,3.6-1.8,4.8-6.2,7.6
				c-4.4,2.8-5.2,1.6-10.5,3c-4,1.1-7.6,3.2-11.9,3.1"/>
		</g>
		<g>
			<path class="st4" d="M50,11.9c-4.1-0.1-7.4,2-11.2,3.1c-5,1.5-5.8,0.2-9.9,3c-4.1,2.8-3,4-5.8,7.6c-2.8,3.6-4.1,2.9-5.9,7.3
				c-1.8,4.4-0.3,4.9-0.8,9.4c-0.6,4.5-2.1,4.6-1.5,9.3c0.6,4.7,2.1,4.4,3.8,8.6c1.7,4.2,0.3,5.1,3.3,8.8c2.9,3.8,4,2.7,7.9,5.4
				c3.9,2.7,3.2,4.1,8.5,5.7c3.8,1.2,7.8,0,11.7,0.1"/>
			<path class="st4" d="M50,13.3c-3.9,0.1-7.9-1-11.7,0.1c-5.3,1.6-4.6,3-8.5,5.7c-3.9,2.7-5,1.6-8,5.4c-2.9,3.8-1.6,4.6-3.3,8.9
				c-1.7,4.2-3.2,3.9-3.8,8.6c-0.6,4.7,1,4.8,1.5,9.3c0.6,4.5-0.9,5,0.8,9.4c1.8,4.4,3.1,3.7,5.9,7.3c2.8,3.6,1.7,4.8,5.8,7.6
				c4.1,2.8,4.9,1.6,9.9,3c3.8,1.1,7.1,3.2,11.2,3.1"/>
		</g>
	</g>
	<g>
		<polygon class="st5" points="68.2,36.1 68.2,33.7 69.9,33.7 69.6,35.9 71.5,35.8 71.7,36 71.7,37.3 69.7,37.2 70,42.5 69.6,42.8 
			68.2,42.9 		"/>
		<polygon class="st6" points="71.5,35.9 69.5,35.9 69.5,33.8 68.2,33.8 68.2,35.9 66.3,35.9 66.3,37.3 68.2,37.3 68.2,42.8 
			69.5,42.8 69.5,37.3 71.5,37.3 		"/>
		<polygon points="66.1,35.8 67,35.7 68.3,35.8 68.2,36 		"/>
	</g>
	<g>
		<g>
			<polygon class="st7" points="69.5,53.6 71.1,50.3 71,49.8 72.4,48 73.8,49 72.6,50.9 72.2,51 70.7,54.6 			"/>
			<ellipse transform="matrix(0.9929 -0.1192 0.1192 0.9929 -7.006 8.3187)" class="st7" cx="66" cy="62.7" rx="4.2" ry="4.3"/>
			<ellipse transform="matrix(0.9929 -0.1193 0.1193 0.9929 -6.2395 8.5886)" class="st7" cx="68.6" cy="56.4" rx="2.9" ry="3"/>
			<path class="st8" d="M62.6,64.3c1.4,2.5,5.5,3.2,6.9-0.7c0.6-1.5,0-2.7-0.5-3.4l0.3-1c1.1-0.3,2.8-2.5,1-4.7l1.8-3.7l0.3,0l1-1.8
				l-1.1-0.7L71.3,50l0.1,0.3l-2,3.6c-1.4-0.4-4.1,0.7-3.4,3.5l-0.3,1l-0.5,0.2C65.2,58.7,61.1,59.9,62.6,64.3z"/>
			<polygon class="st7" points="63.5,51.5 71.6,65.8 72.1,65.4 63.9,51.5 			"/>
			<polygon class="st7" points="67.8,57.2 67.6,57.4 71.2,50.1 71.3,50.4 			"/>
			<path class="st7" d="M65.8,60.7l-1.4,1.9l2,0.7l4.3-9.5c0,0-3.9,9.8-3.9,10c0,0.2-2.8-1.4-2.8-1.4L65.8,60.7z"/>
			<polygon class="st7" points="72.3,48.7 71.8,47.7 71.4,48.4 72,49 			"/>
			<polygon class="st7" points="71.7,49.4 71.2,48.4 70.8,49.2 71.4,49.7 			"/>
			<polygon class="st7" points="73,49.2 74.1,49.3 73.6,50 72.8,49.6 			"/>
			<polygon class="st7" points="72.6,50.1 73.7,50.2 73.2,50.9 72.4,50.5 			"/>
		</g>
		<g>
			<polygon points="68.9,53.9 70.6,50.5 70.5,50 71.9,48.2 73.3,49.3 72.1,51.1 71.6,51.3 70.2,54.8 			"/>
			<ellipse transform="matrix(0.9929 -0.1192 0.1192 0.9929 -7.0358 8.25)" cx="65.5" cy="62.9" rx="4.2" ry="4.3"/>
			<ellipse transform="matrix(0.9929 -0.1193 0.1193 0.9929 -6.2718 8.5231)" cx="68.1" cy="56.7" rx="2.9" ry="3"/>
			<path class="st9" d="M62,64.5c1.4,2.5,5.5,3.2,6.9-0.7c0.6-1.5,0-2.7-0.5-3.4l0.3-1c1.1-0.3,2.8-2.5,1-4.7l1.8-3.7l0.3,0l1-1.8
				l-1.1-0.7l-1.2,1.8l0.1,0.3l-2,3.6c-1.4-0.4-4.1,0.7-3.4,3.5l-0.3,1l-0.5,0.2C64.6,58.9,60.6,60.1,62,64.5z"/>
			<polygon points="63.1,51.6 71.2,65.9 71.7,65.5 63.5,51.6 			"/>
			<polygon points="67.2,57.5 67,57.7 70.7,50.3 70.8,50.7 			"/>
			<path d="M65.2,60.9l-1.4,1.9l2,0.7l4.3-9.5c0,0-3.9,9.8-3.9,10c0,0.2-2.8-1.4-2.8-1.4L65.2,60.9z"/>
			<polygon points="71.8,48.9 71.2,47.9 70.8,48.7 71.5,49.2 			"/>
			<polygon points="71.2,49.6 70.6,48.6 70.2,49.4 70.9,50 			"/>
			<polygon points="72.4,49.4 73.6,49.6 73.1,50.2 72.3,49.9 			"/>
			<polygon points="72,50.3 73.2,50.4 72.7,51.1 71.9,50.7 			"/>
		</g>
	</g>
	<g>
		<g>
			<path d="M30.8,12.6c-0.2,1.2-0.7,1.5-0.9,1.6c-0.3,0.2-1,0.5-1.6-0.5c-0.9-1.6-1.4-2.4-2.3-4c-0.5-0.8-1.4-0.5-1.4-0.5
				c-0.2,0.7-0.3,1-0.5,1.7c0,0,0,0.4,0.5,0c0.3-0.2,0.5-0.4,0.9,0.2c0.8,1.2,1.2,1.8,1.9,3c0.5,0.9,1.3,1.3,2.7,0.5
				c0.5-0.3,0.9-0.7,1.1-1.9C31.3,12.3,30.9,12.3,30.8,12.6z"/>
			<path d="M34.3,12.2c-0.7-1.7-1.1-2.6-1.8-4.4c-0.3-0.8-1.2-0.7-1.2-0.7c-0.3,0.6-0.4,0.9-0.7,1.4c0,0-0.1,0.4,0.4,0
				c0.3-0.2,0.5-0.3,0.8,0.3c0.7,1.4,1,2.2,1.6,3.6C33.9,12.4,34,12.4,34.3,12.2z"/>
			<path d="M63.4,11.2c0.6-1.8,1-2.6,1.6-4.4c0.3-0.8-0.4-1.3-0.4-1.3c-0.6,0.2-0.9,0.4-1.4,0.6c0,0-0.3,0.3,0.3,0.3
				c0.3,0.1,0.6,0.1,0.4,0.8c-0.5,1.5-0.7,2.3-1.2,3.8C62.9,11,63.1,11.1,63.4,11.2z"/>
			<path d="M47.6,3.5c-2.7,0.2-4,0.3-6.7,0.9c0,0.3,0,0.4,0.1,0.7c1-0.2,1.6-0.3,2.6-0.5c-1.2,0.7-1.8,2-1.4,3.1
				c0.2,0.6,1.1,1.9,3.1,1.6c0.1,0,0.1,0,0.1,0c0.4-0.1,1.8-0.3,2.1-1.7c0.1-0.3-0.3-0.5-0.4-0.1c-0.4,1.2-1.2,1.4-1.6,1.5
				c-0.6,0.1-1.8-0.1-2.2-1.5c-0.1-0.3-0.5-2,1.2-3c1.3-0.2,1.9-0.2,3.2-0.3C47.6,3.9,47.6,3.8,47.6,3.5z"/>
			<g>
				<path d="M50.2,8.9c0-1.9,0-2.8,0.1-4.7c0-0.8-0.8-1.1-0.8-1.1c-0.5,0.4-0.7,0.6-1.2,1.1c0,0-0.2,0.3,0.4,0.2
					c0.3,0,0.6,0,0.6,0.6c0,1.6,0,2.4,0.1,4C49.7,8.9,49.9,8.9,50.2,8.9z"/>
				<path d="M50.2,4.6c0.7-1.2,2.7-2.2,4.1-0.7c0.3,0.3,0.3,1-0.4,1.6c-0.6,0.4-0.8,0.6-1.4,1c0.6,0,1.4,0.3,1.5,1.7
					c0,0.3,0.2,1,0.9,0.5c0.2-0.1,0.4,0.1,0.2,0.2c-0.2,0.3-1.8,0.5-2-0.8c0-0.3,0.2-1.7-1.5-1.5c-0.2,0-0.2-0.1,0.1-0.3
					c0.4-0.2,1.9-0.8,1.8-2.2c0-0.5-1.3-1.6-3.2,0.9C50.1,4.9,50.2,4.8,50.2,4.6z"/>
			</g>
			<g>
				<path d="M66.5,12.4c0.8-1.7,1.2-2.6,2-4.3c0.3-0.8-0.3-1.3-0.3-1.3c-0.6,0.2-0.9,0.3-1.5,0.5c0,0-0.3,0.2,0.3,0.3
					c0.3,0.1,0.6,0.2,0.3,0.8c-0.6,1.5-0.9,2.2-1.5,3.7C66,12.2,66.1,12.3,66.5,12.4z"/>
				<path d="M68,8.9c1.1-0.3,1.6-0.4,2.7-0.6c0,0,0.5,0,0.7,0.4c0.2,0.3,0.5,1,0.2,1.6c-0.8,1.5-1.2,2.2-2.1,3.6
					c-0.3-0.2-0.5-0.3-0.8-0.5c0.7-1.3,1.1-2,1.8-3.3c0,0,0.4-0.5-0.2-1.5c-1,0.2-1.5,0.3-2.5,0.5C67.9,9.1,67.9,9.1,68,8.9z"/>
				<path d="M71.3,10.6c1.1-0.2,1.7-0.2,2.8-0.3c0,0,0.5,0,0.7,0.5c0.1,0.3,0.4,1,0.1,1.6c-0.9,1.4-1.4,2.1-2.4,3.4
					c-0.3-0.2-0.5-0.3-0.8-0.5c0.8-1.2,1.2-1.9,2.1-3.1c0,0,0.5-0.5-0.1-1.5c-1,0.1-1.5,0.1-2.5,0.2C71.2,10.8,71.2,10.7,71.3,10.6z
					"/>
			</g>
			<path d="M37.6,5.1c0.8,1.3,3.9,4.1,4.1,4.4c0.2,0.2,0.1,0.3-0.2,0.3c-0.8-0.1-1.6-0.9-1.6-0.9c-0.4,0.6-0.6,0.9-0.9,1.5
				c-0.3,0.6-1.2,0.4-1.4,0.4c-0.6-0.3-0.8-0.4-1.4-0.6c-0.2,0.6-0.3,1-0.5,1.6c-0.1,0-0.2,0.1-0.3,0.1c0.5-2.6,0.8-4,1.7-6.6
				C37.2,4.8,37.4,4.7,37.6,5.1z M38.1,10c0.5,0.3,0.7,0,0.8-0.2c0.3-0.5,0.4-0.7,0.7-1.1c-0.7-0.5-2.5-2.1-2.5-2.1
				c-0.2,0.8-0.3,1.2-0.6,2C36.3,9.4,38.1,10,38.1,10z"/>
			<path d="M55.8,7c0-2.1,2.2-3.2,3.5-2.9c0.8,0.2,2.6,1.1,2.3,3.4c-0.2,1.5-2,2.6-3.6,2.2C56.2,9.4,55.7,7.6,55.8,7z M56.7,6.9
				c-0.2,1.7,0.7,2.5,1.3,2.7c1.8,0.4,2.3-1.8,2.5-2.9c0.3-1.5-1-2.3-1.4-2.4C57.5,3.9,56.9,5.8,56.7,6.9z"/>
		</g>
	</g>
	<path class="st10" d="M17.4,27.6c-0.1-0.4-0.7-0.4-0.7-0.9c0-0.7,0.3-0.6,0.7-0.8c0.8-0.5,1.5-0.5,2-1.5c0.4-0.7,0.4-1.6,0.8-2.3
		c0.3-0.5,1.1-1.4,0.9-2.1c-0.2-0.7-0.4-0.2-0.9-0.6c-0.1-0.1-0.7-0.8-0.8-0.8c-0.9-0.3-0.6,0.3-1.1,0.6c-0.5,0.2-0.6,0.1-1.3,0.1
		c-0.3,0-0.3,0.4-0.9,0.3c-0.5-1.1,0.1-1,0.8-1.7c0.5-0.5,0.6-1.4,1.2-1.8c0.7-0.5,1.4,0,2-0.7c0.4-0.4,0-0.7,0.5-0.9
		c0.1,0,1.1,0,1.2,0c0.3,0,0.8,0.1,1.1,0c0.5-0.1,0.6-0.7,1.3-0.5c0.4,0.1,0.4,0.7,0.8,0.9c0.4,0.3,0.9,0.2,1.3,0.4
		c0.9,0.4,1.2,0.9,2.4,0.8c0.8-0.1,1.5-0.7,2.3-0.7c1.5,0.1,3,1.7,3.4,3c0.4,1.1,0.3,1,1.2,1.7c0.3,0.3,0.5,0.6,0.8,0.8
		c0.1,0.1,0.5,0,0.7,0.1c0.2,0.2,0.1,0.4,0.3,0.6c1.8,2.5,1.5,6.8,4.4,8.9c0.7,0.5,1.8,1.2,2.2,1.9c0.4,0.7,0.4,1.5,0.5,2.2
		c0.3,1.7,0.2,3.2-0.3,5c-0.4,1.5-0.8,2.6-2.3,3.4c-1.2,0.6-1-0.1-2.1-0.4c-1-0.3-1.3,0.4-1.7,1.3c-0.1,0-0.3,0-0.4,0
		c-0.4,1.1,0.3,1.6,0.7,2.5c0.4,1.1,0.2,1.1-0.4,1.9c-0.4,0.6-1,1.6-0.6,2.4c0.5,1,1.5,0.6,2.2,0.6c1.4,0.1,2.9,0.9,4.1,1.7
		c1.1,0.8,2.5,2,3.2,3.3c0.4,0.8,0.3,1.6,0.7,2.3c0.4,0.5,1,0.9,1.3,1.4c0.5,0.7,0.7,1.5,1.3,2.1c0.2,0.2,0.4,0.7,0.8,0.7
		c0.7,0.1,0.3-0.5,0.7-0.7c0.8-0.4,1.5,0.2,2.4,0.3c0.9,0.1,1.2,0.4,1.8,1c0.6,0.6,0.5,1.7,1.1,2.2c0.9,0.7,1.5,0,2.1,1.3
		c0.4,0.9,0.5,1.4,1.2,2c0.7,0.6,1.1,0.8,1.2,1.9c0,0,0-0.1,0-0.1c0.4,0.7,0.1,1.5,0.5,2.2c0.2,0.5,0.4,0.6,0.9,0.7
		c0.3,0.1,0.9-0.1,1-0.1c1.2,0.5,0.8,3.1,0.5,4.2c-1.1,0.3-0.1,0.9,0.2,1.3c1,1.2-0.2,0.7-0.2,1.9c-0.1,0.1,0.1-0.1,0.2-0.2
		c-0.1,0.8-0.4,0.9-0.7,1.5c-0.2,0.5-0.4,1.6-0.7,1.9c-1.2,1.1-2.3-0.9-3.4-0.8c-0.4,0.9-2.1,2.8-3.1,2.2c-0.2,0.4-0.3,0.8-0.4,1.3
		c-1.1,0-1.5,1.2-2,1.8c-0.4,0.5-1.5,0.9-1.7,1.6c0,0-0.1-0.3-0.1-0.3c-0.8,0-0.8,0.8-1.4,1.1c-0.7,0.4-0.6,0.1-1.4-0.1
		c0.6,0.2-1.2,5-1.7,5.3c-0.4,0.3-1.5-0.1-2.1,0c-1,0.2-0.9,0.6-1.5-0.3c-0.4-0.6-0.3-1.2-1.1-1.4c-0.5,0.7,0,1.3-0.3,2.1
		c-0.2,0.5-1,1.3-1.5,1.6c0,0-1.6,0.8-1.5,0.8c-0.8,0-0.6-1.3-0.6-1.8c-0.1-1.4-0.1-2.6-0.3-4.1c-0.1-0.9,0.5-3.4-0.7-3.7
		c-0.1,0.5-0.2,1.1-0.3,1.6c-1.2-0.8-0.8-3.2-1.3-4.3c-0.4-0.9-1.5-3.4-1-4.4c-0.3-0.2-0.9-0.4-1-0.8C34.6,81,35.5,81,35,80.3
		c-1-1.6-1.6,0.8-1.7,1.4c-1.6-0.3-1.6,2.1-2.6,0c-0.2-0.4-1-1.1-1.1-1.5c-0.1-0.4,0.3-0.6,0.2-0.9c0-0.3-0.2-0.6-0.3-0.8
		c0,0-0.2-0.8-0.2-0.7c0-0.1-0.6-0.7-0.6-0.7c-0.1-1.2,0.5-0.6,1.1-1.3c0.2-0.2,0.1-0.8,0.3-1c0.3-0.3,0.5-0.3,0.9-0.5
		c0.6-0.4,0.9-0.3,1-1c0.1-0.7-0.4-1.9-0.5-2.7c-0.1-0.9-0.3-1.9,0-2.8c0.3-0.7,0.8-1.3,1.4-1.9c0.5-0.5,1.5-1,1.5-1.8
		c-0.1,0-0.1,0-0.1,0.1c0,0.1,0,0.1,0,0c0-0.6-0.6-1-0.6-1.7c-0.1-0.7,0.5-1.2,0.6-1.8c0.2-0.7,0.3-1.3-0.3-1.6
		c-0.3-0.2-0.7-0.1-1-0.2c-0.4-0.2-0.4-0.3-0.7-0.5c-0.5-0.4-0.9-0.7-1.4-1.1c-0.2-0.2-1.2-1-1.5-1c-0.7,0.1-0.4,1.1-0.9,1.5
		c-0.6,0.4-1.1-0.2-1.4-0.8c-0.3-0.5-0.2-1.3-0.5-1.8c-0.3-0.5-0.9-0.7-1.3-1.2c-0.6-0.8-1-3-2.3-2.8c-0.7,0.1-0.8,0.7-1.6,0.5
		c-0.7-0.1-0.8-0.6-1.2-1.1c-0.5-0.7-2.4-1.5-2.1-2.5c0.2-0.6,0.9-0.5,0.5-1.3c-0.3-0.5-1.4-0.6-1.4-1.4c0-0.5,0.4-0.4,0.6-0.8
		c0.2-0.3,0.2-0.6,0.3-0.9c0.3-1.1,1.1-2.7,0.8-3.8c-0.2-0.7-0.4-1.1-0.4-1.9c0-0.7,0.2-1.5,0.3-2.3c0.1-0.8,0.4-1.8,0.2-2.6
		c-0.3-0.8-0.8-0.8-1.4-1.3C16,30.6,17.7,29.1,17.4,27.6z"/>
	<path class="st11" d="M34.1,64.9c0.2-0.7,1-0.7,1.2-1.2c0.2-0.3,0.1-0.8,0.2-1.1c0.1-0.3,0.4-0.5,0.5-0.8c0.3-0.6,0.4-1.2,0.7-1.8
		c0.2-0.4,0.8-1.2,0.8-1.8c0,0,0,0.1,0.1,0.1c0.3-0.6,1.2-1.8,0.1-2.1c0.4-0.4,0.2-1.2,0.5-1.7c0.3-0.5,0.7-0.9,0-1.4
		c-0.1,0.2-0.3,0.3-0.3,0.6c-0.2-0.1-0.5,0-0.7-0.1c0,0.5-0.3,0.8-0.7,0.4c0.2-0.2,0.1-0.4,0.2-0.6c-0.1,0-0.3-0.1-0.4-0.1
		c0-0.1,0.1-0.2,0-0.2c-0.5,0-0.6,0.5-1.2,0.4c-0.1-0.3-1.2-0.7-1.6-0.7c-0.1,1.2-0.5,1.5-0.1,2.8c0.2,0.5,0.2,0.9,0.3,1.4
		c0.1,0.4,0.5,0.9,0.6,1.3c0.2,0.5-0.1,1.2,0.1,1.6c0,0-0.1,1.1-0.4,1.6c-0.3,0.3-0.7,1-0.1,2C34,63.4,34.6,64.4,34.1,64.9z"/>
	<g>
		<path class="st12" d="M23.2,29.8c0,0-0.5-0.2-0.6,1c0,0-1.8,6.2,4.3,8.8c0,0,0.2,0.3,0.4,0c0,0,0,0.4,0.7,0.4c0,0,1.7,0.6,2.7,0
			c0,0,0.4,0.3,1.6-0.3c0,0,1.2-0.3,1.3-0.8c0,0,0.6,0.1,1.9-1.8c0,0,0.6-0.7,0.4-1c0,0,0.1-0.1,0.3-0.3c0,0,1.4-2.9-0.2-6
			c0,0-1.1-2.6-3.9-3.7c0,0-0.2-0.1-0.3,0.2c0,0,0-0.3-0.6-0.4c0,0-2.2-0.5-2.4-0.1c0,0-0.2-0.3-2,0.3c0,0-1.7,0.8-1.7,1.2
			C25.1,27.2,23.1,28.6,23.2,29.8z"/>
		<path class="st13" d="M23.5,30c0,0-0.5-0.2-0.6,0.9c0,0-1.7,5.9,4.1,8.4c0,0,0.2,0.3,0.4,0c0,0,0,0.3,0.7,0.4c0,0,1.6,0.6,2.6,0
			c0,0,0.3,0.3,1.5-0.3c0,0,1.1-0.3,1.3-0.8c0,0,0.6,0.1,1.8-1.7c0,0,0.6-0.7,0.4-0.9c0,0,0.1-0.1,0.3-0.3c0,0,1.3-2.8-0.2-5.8
			c0,0-1.1-2.5-3.8-3.5c0,0-0.2-0.1-0.3,0.2c0,0,0-0.3-0.6-0.4c0,0-2.1-0.5-2.3-0.1c0,0-0.2-0.2-1.9,0.3c0,0-1.6,0.7-1.6,1.1
			C25.3,27.5,23.4,28.8,23.5,30z"/>
		<path class="st14" d="M34.9,35.1c0.3-2.1,0-4.3-1.3-6c-0.3-0.4-0.7-0.7-1-1c-0.7-0.5-1.1-1-0.8-1.9c-0.1,0.3-0.1,0.5-0.2,0.8
			c-0.1,0.3-0.5,0.6-0.8,0.8c-1.4,0.6-1.6,0.2-1.6,0.2c-0.4-0.4-0.5-1.8-0.5-1.8c-0.1,0.8,0.1,1.9,0.1,1.9c0.1,0.7-1.5,1.6-1.9,1
			c-0.8-1.1-1.6-1.5-1.6-1.5c0.6,0.4,1.1,1.1,1.1,1.1c0.7,0.8-0.3,1.3-0.3,1.3c-1.4,0.6-1.9,0.5-2.1,0.4c-0.1-0.2-0.3-0.3-0.6-0.4
			c0.3,0.1,0.6,0.5,0.6,0.8c0,0.2-0.1,0.4-0.1,0.6c-0.2,0.6-0.1,1.2,0,1.8c0.1,0.5,0.2,1.1,0.4,1.6c0,0,0.6,1.8,2.9,3.6
			c0,0,0.3,0.1,0,1c0,0,0.2-0.2,0.2-0.5c0,0,0,0,0,0c0,0,0,0,0,0c0,0,0,0,0,0c0,0,0,0,0,0c0,0,0,0,0,0c0.1-0.2,0.4-0.7,1.7-1.2
			c0,0,1.1-0.4,1.1,0.7c0,0,0.1,0.8,0,1.5c0,0,0.3-0.9,0.1-2.2c0-0.1,0.1-0.2,0.1-0.3c0.2-0.3,0.5-0.3,0.8-0.4
			c0.2-0.1,0.4-0.2,0.6-0.2c0.2,0,0.4,0.1,0.5,0.3c0,0,0.6,0.9,1.3,1.4c0,0-1-1.1-1-1.6c0,0-0.1-0.4,1.3-1c0,0,0.6-0.3,1.2-0.1
			c0.3,0.2,0.6,0.3,0.6,0.3C34.9,35.4,34.9,35.1,34.9,35.1z M24.6,35.3c-0.1-0.1-0.2-0.3-0.2-0.4c-0.2-0.5,0.1-1.2,0.7-1.4
			c0,0,0,0,0,0c0.1,0,0.1-0.1,0.2-0.1c-0.1,0-0.2,0.1-0.2,0.1c-0.2,0.1-0.5,0.1-0.7-0.1c-0.3-0.2-0.4-0.6-0.4-1
			c0.1-1.4,1.1-1.9,2.3-2.4c1.2-0.5,2.4-1.1,3.7-1.6c0.5-0.2,1-0.4,1.6-0.6c0,0,0,0,0.1,0c0.5,0,1,0.3,1.3,0.6
			c0.3,0.2,0.8,0.8,0.7,1.2c-0.1,0.3-0.5,0.5-0.8,0.6c0,0,0.1,0,0.3-0.1c-3.6,1-6.4,2.4-7.8,3.2c1.2-0.6,2.4-1.1,3.6-1.5
			c1.2-0.5,2.5-0.9,3.7-1.4c0.3-0.1,0.5-0.3,0.8-0.3c0.3,0,0.8,0.1,0.9,0.4c0.3,0.6,0.3,1.3-0.3,1.7c0,0,0,0,0.1,0
			c-3.3,2.2-6.8,3.1-8.2,3.3c0,0-0.1,0-0.2,0c0,0,0.1,0,0.1,0c-0.1,0-0.1,0-0.2,0c0,0,0,0,0.1,0C25.3,35.8,24.8,35.7,24.6,35.3z
			 M34.7,34.9c-0.9,0.5-5,2.5-7.9,3.1c-0.1,0-0.3-0.2-0.3-0.2c-0.1-0.1-0.3-0.2-0.4-0.4c-0.2-0.1-0.3-0.3-0.5-0.5
			c-0.2-0.2-0.4-0.4-0.4-0.6c0-0.1,0-0.1,0-0.2c0-0.1,0.1-0.2,0.1-0.2c0.1-0.1,0.2,0,0.3-0.1c0.1,0,0.2,0,0.3,0
			c0.2,0,0.4-0.1,0.6-0.1c0.4-0.1,0.8-0.2,1.3-0.3c0.8-0.2,1.6-0.4,2.4-0.7c0.6-0.2,1.2-0.5,1.8-0.9c0.6-0.4,1.3-0.8,1.9-1.2
			c0.3-0.3,0.7-0.5,0.9,0c0.1,0.3,0.1,0.7,0.1,1C34.9,33.7,34.9,34.8,34.7,34.9z"/>
	</g>
	<g>
		<g>
			<path class="st15" d="M52.9,65c-0.7,1.8-6.7,12.5-6.7,12.5l-2.4,4.2c-0.6,0.9-1.1,2.2-3.7,2.5c-1.3,0.2-1.6,1.3-1.7,2
				c0.1,0.5,0.4,1.5,2.2,1.4c2.3-0.1,3.5,0.1,4.4-2.1c0,0,6.7-16.2,7.8-17.4c1.1-1.2,1.3-2.2,2.2-1.2l0.4-0.6"/>
			<path class="st15" d="M52.9,65C53.1,64.6,52.9,65,52.9,65C52.9,65,52.9,65,52.9,65c-0.1-0.1-0.3-0.2-0.3-0.2
				C52.7,64.9,52.8,65,52.9,65c-1.4,2.9-7.7,14.1-8.7,16c-0.4,0.7-0.9,1.5-1.2,1.9c-0.6,0.6-1.5,0.9-2.3,1.1
				c-0.2,0.1-0.5,0.1-0.7,0.2c-0.1,0-0.3,0-0.4,0.1c-0.3,0.1-0.5,0.1-0.7,0.3c-0.3,0.3-0.4,0.7-0.5,1.1c0,0-0.6,2,2,2.1
				c0.9,0,1.9-0.1,2.8-0.1c0.9-0.1,1.4-0.7,1.7-1.5c0.2-0.6,0.5-1.1,0.7-1.7l0.8-1.9l0.6-1.5c6.1-14.4,7.3-14.4,7.5-14.4
				c0,0,0,0,0,0c0,0,0,0,0,0c0,0,0,0,0,0c0.3,0.1,0.5,0.4,0.5,0.4c0-0.4,0.5-0.8,0.5-0.8C54.5,66,53.3,65.3,52.9,65z M55,66.8
				c-0.3-0.3-0.6-0.4-0.7-0.4c0,0,0,0,0,0c-0.1,0-0.2,0.1-0.2,0.1c0,0,0,0,0,0c-1.8,1-6.2,11.7-8,16.2l-0.6,1.4
				c-0.2,0.5-0.6,1.4-0.9,1.8c-0.1,0.2-0.3,0.4-0.5,0.6c-0.6,0.5-1.1,0.7-1.9,0.8c-0.3,0.1-0.6,0.1-0.9,0.1c-0.2,0-0.5,0-0.7,0.1
				c-0.5,0-0.9,0.1-1.3-0.2c-0.3-0.2-0.5-0.4-0.6-0.7c-0.1-0.4,0-1,0.1-1.4c0.2-0.4,0.5-0.8,0.9-0.9c0,0,0.8-0.2,1.4-0.4
				c0,0,1.3-0.2,1.8-0.8c0.3-0.3,0.6-0.8,1.8-3c6.8-11.7,8-14.6,8.1-15.1c0.7,0.6,2.4,1.3,2.4,1.3L55,66.8z"/>
			<path class="st15" d="M40.4,84.2c0,0-0.9,2.1,0.5,3.4l1.1-0.1C41.9,87.4,40.1,86.9,40.4,84.2z"/>
			<path class="st15" d="M50,73.5c0,0-0.3-0.8-1.1-0.8c0,0,2.1-3.9,2.9-5.4c0,0,0.9,0.3,1.1,0.8C52.9,68.1,51.8,69.9,50,73.5z"/>
		</g>
		<g>
			<path class="st9" d="M52.9,65c-0.7,1.8-6.7,12.5-6.7,12.5l-2.4,4.2c-0.6,0.9-1.1,2.2-3.7,2.5c-1.3,0.2-1.6,1.3-1.7,2
				c0.1,0.5,0.4,1.5,2.2,1.4c2.3-0.1,3.5,0.1,4.4-2.1c0,0,6.7-16.2,7.8-17.4c1.1-1.2,1.3-2.2,2.2-1.2l0.4-0.6"/>
			<path d="M53,65C53.1,64.5,52.9,64.9,53,65C52.9,64.9,52.9,64.9,53,65c-0.1-0.1-0.3-0.2-0.3-0.2C52.7,64.9,52.8,65,53,65
				c-1.4,2.9-7.7,14.1-8.8,16c-0.4,0.7-0.9,1.5-1.2,1.9c-0.6,0.6-1.5,0.9-2.3,1.1c-0.2,0.1-0.5,0.1-0.7,0.2c-0.1,0-0.3,0-0.4,0.1
				c-0.3,0.1-0.5,0.1-0.7,0.3c-0.3,0.3-0.4,0.7-0.5,1.1c0,0-0.6,2,2,2.1c0.9,0,1.9-0.1,2.9-0.1c0.9-0.1,1.4-0.7,1.7-1.5
				c0.2-0.6,0.5-1.1,0.7-1.7l0.8-1.9l0.6-1.5c6.1-14.5,7.3-14.4,7.5-14.4c0,0,0,0,0.1,0c0,0,0,0,0,0c0,0,0,0,0,0
				c0.3,0.1,0.5,0.5,0.5,0.5c0-0.4,0.5-1,0.5-1C54.5,65.9,53.3,65.2,53,65z M55,66.8c-0.3-0.3-0.6-0.4-0.7-0.4c0,0,0,0,0,0
				c-0.1,0-0.2,0.1-0.2,0.1c0,0,0,0,0,0c-1.8,1-6.2,11.7-8,16.2l-0.6,1.4c-0.2,0.5-0.6,1.4-0.9,1.8c-0.1,0.2-0.3,0.4-0.5,0.6
				c-0.6,0.5-1.1,0.7-1.9,0.8c-0.3,0.1-0.6,0.1-0.9,0.1c-0.2,0-0.5,0-0.7,0.1c-0.5,0-0.9,0.1-1.3-0.2c-0.3-0.2-0.5-0.4-0.6-0.7
				c-0.1-0.4,0-1,0.1-1.4c0.2-0.4,0.5-0.8,0.9-0.9c0,0,0.8-0.2,1.4-0.4c0,0,1.3-0.2,1.8-0.8c0.3-0.3,0.6-0.8,1.8-3
				c6.8-11.7,8-14.6,8.1-15.1c0.7,0.6,2.4,1.3,2.4,1.3L55,66.8z"/>
			<path d="M40.4,84.2c0,0-0.9,2.1,0.5,3.4l1.1-0.1C41.9,87.4,40.1,86.9,40.4,84.2z"/>
			<path d="M50,73.5c0,0-0.3-0.8-1.1-0.8c0,0,2.1-3.9,2.9-5.4c0,0,0.9,0.3,1.1,0.8C52.9,68.1,51.8,69.9,50,73.5z"/>
		</g>
	</g>
	<path class="st16" d="M62.7,45.5"/>
	<path class="st17" d="M62.4,45.6c0,0.2-1.6-1.4-1.7-1.1c-0.1,0.2,0.2-0.1,0,0C60.5,44.5,62.6,45.4,62.4,45.6
		c-0.2,0.2-1.4,0.2-1.1,0.3c0.5,0.3-1.5,0.1-0.9,0.2l-12.1,0.1c0.2-0.1-3.1-0.7-2.9-0.9c0.1-0.1,2,0.5-0.3,0.4
		c-0.1,0,0.2-0.1,0.2-0.1c0.4-0.3-0.5,0.3-0.7,0.2c-0.3-0.2-1.1-0.1-1.5-0.2c-0.2,0-1,0.2-1.1,0.1c-0.2-0.2-1.4,0.2-1.7,0.1
		c-0.4-0.1,1.8-0.8,2.1-1.2c0.2-0.2,1.3-1,1.6-1c0.5-0.1,0.5-0.8,1-1c0.1,0,0.3-0.1,0.4-0.2c0-0.1,0-0.1,0-0.2
		c0.1-0.3,0.4-0.3,0.7-0.4c-0.1-0.2,0-0.5,0.2-0.6c0.2-0.1,0.3-0.7,0.5-0.6c0.4,0.2-0.4,0.2,0,0c0.2-0.1-0.2,0.5-0.1,0.4
		c0.1-0.1,0-0.3,0.1-0.4c0.2-0.1,0.4-0.2,0.4-0.4c0.1-0.3,0.1,0.2,0,0c-0.1-0.3,0.5-0.3,0.4-0.6c-0.1-0.2,0.1,0.2,0,0
		c-0.1-0.3,0.5-0.7,0.5-0.9c0-0.4,0.6-0.2,0.3-0.4c-0.3-0.2,0.3-0.4,0.1-0.6c-0.1-0.2,0.3-1.3,0.3-1.5c-0.1-0.2-0.5-0.5-0.5-0.7
		c0-0.1-1.4-0.5-1-0.5c0.3-0.1-1.2-0.7,0.9-0.5c0.3,0.1,0.5-0.1,0.6-0.3c0.2-0.3-0.5-0.6-0.6-0.9c0-0.2,0.2-0.4,0.2-0.6
		c0.1-0.2,0.5-0.5,0.5-0.7c0-0.3-0.2-0.6-0.2-0.9c0.1-0.3,0.4-0.2,0.6-0.4c0.1-0.1,0.2-0.2,0.2-0.3c0.1-0.3-0.1-0.7,0-1
		c0-0.1,0.7-0.1,0.7-0.2c0-0.1,0.1-0.1,0.2-0.2c0.1-0.2-0.2-0.3-0.2-0.5c0-0.1,0.1-0.3,0.1-0.4c0.1-0.3-0.1-0.5-0.1-0.8
		c0-0.4,0.4-0.7,0.7-1c0.3-0.3-0.2-0.7,0-1c0.2-0.4,0-0.7,0.1-1.1c0-0.2,0-0.5,0.1-0.6c0-0.1,0.2-0.2,0.2-0.3c0.1-0.1,0-0.3,0.1-0.5
		c0.1-0.5,0.2-0.8,0.5-1.2c0.3-0.4,0.5-0.7,0.5-1.2c0.1-0.4,0.1-0.8,0.1-1.2c0-0.2,0.8-0.4,0.8-0.6c0-0.1,0.2-0.5,0.3-0.5
		c0-0.3,0.1-0.7,0.3-0.7c0,0.1,1.6-1.4,4.3-1.4c0.3,0,0.4,0,0.6,0c0.2,0,0,0.2,0.2,0.2c0.3,0,0.2,0.2,0.4,0.2c0.5,0.1,0.5,0,0.9,0.1
		c0.3,0,1.9,0.3,2.1,0.4c0.2,0.1-2.6,1.4-2.5,1.5c0.2,0.3-0.7,0.9-0.9,1.2c-0.2,0.4-0.3,1-0.3,1.5c-0.1,0.5-0.4,0.9-0.7,1.3
		c-0.1,0.2-0.2,0.3-0.2,0.5c0,0.2-0.1,0.3-0.2,0.5c-0.3,0.5-0.5,1.1-0.6,1.7c0,0.2-0.1,0.5-0.2,0.8c-0.1,0.2-0.2,0.3-0.2,0.5
		c0,0.5,0.2,0.9,0,1.3c-0.1,0.2-0.3,0.4-0.3,0.6c0,0.2,0.1,0.4,0.1,0.6c0,0.2,0,0.4-0.1,0.5c-0.2,0.3-0.4,0.5-0.3,0.9
		c0.1,0.3,0,0.5,0,0.8c0,0.3,0,0.6-0.1,0.9c0,0.2-0.2,0.3-0.3,0.4c-0.1,0.2-0.2,0.4-0.3,0.7c-0.2,0.3,0.5,0.8,0.5,1.1
		c0,0.4-0.2,0.4,0.3,0.6c0.5,0.2,0,1.9,0.8,3.2c0.3,0.2,1.7,2.7,1,2.7C58.4,41.6,61.3,44.3,62.4,45.6z"/>
	<g>
		<path class="st0" d="M47.5,33.7C47.5,33.7,47.5,33.7,47.5,33.7C47.6,33.7,47.6,33.7,47.5,33.7L47.5,33.7z"/>
		<path class="st0" d="M55.9,35.3c-0.2-0.1-0.4-0.1-0.5-0.1c-0.3,0-0.5,0-0.8-0.1c0,0,0,0,0,0c-0.1-0.1-0.2,0-0.2-0.1
			c0-0.1,0.2-0.2,0.3-0.2c0,0,0,0,0-0.1c-0.2,0-0.4-0.1-0.5-0.1c-0.1,0-0.1-0.1-0.2-0.1c-0.1,0-0.2,0-0.3,0c-0.3,0-0.7,0-1,0
			c-0.1,0-0.5-0.1-0.6,0.1c-0.2,0-0.3,0-0.5,0c-0.1,0-0.2,0-0.3,0c-0.1,0-0.1-0.1-0.2-0.1c-0.1,0-0.1,0-0.2,0c-0.2,0-0.6,0-0.7,0
			c-0.2,0-0.2-0.1-0.4-0.1c-0.2,0-0.3,0-0.5,0c-0.2,0-0.6-0.1-0.8-0.1c-0.2,0-0.3,0-0.5,0c-0.1,0-0.2,0-0.3-0.1c0,0-0.1,0-0.1,0
			c0,0.1,0.1,0.2,0.1,0.3c0,0.2,0,0.2,0.2,0.2c0.1,0,0.2,0.1,0.2,0.1c0,0,0.1,0.1,0.1,0.1c0.1,0-0.1,0.2,0,0.2
			c0.1,0.1,0.3,0,0.2,0.1c-0.1,0-0.1,0-0.1,0.1c0,0.1,0.1,0.1,0.1,0.1c0.1,0,0.2,0,0.3,0c0.1,0,0.2,0,0.3-0.1c0-0.1,0-0.1,0-0.2
			c0,0,0.1,0,0.2,0c0.1,0,0.1,0.1,0.1,0.1c0.1,0,0.3,0,0.4,0c0.1,0,0.1-0.1,0.2-0.1c0.1,0,0.3,0,0.4,0c0.1,0,0.2,0.1,0.4,0.1
			c0.1,0,0.2,0,0.3,0c0.1,0,0.3,0.1,0.3,0.1c0,0,0,0.2,0,0.2c0,0.1,0,0.2,0,0.3c0-0.1,0.3-0.2,0.3-0.2c0.2-0.1,0.4-0.1,0.6-0.2
			c0,0,0-0.1,0.1-0.1c0,0,0.1,0,0.1,0c0.1,0,0.3,0,0.4,0c0.1,0,0.3,0,0.4,0c0.1,0,0.2,0.1,0.3,0.1c0.1,0,0.2,0.1,0.3,0.1
			c0.1,0,0.2,0,0.3-0.1c0.1,0,0.2,0,0.4,0c0-0.1,0.1-0.1,0.2-0.1c0.3,0,0.6,0.1,0.9,0c0,0,0.1,0,0.1,0c0,0,0,0,0,0c0,0,0,0,0.1-0.1
			C55.8,35.4,55.9,35.4,55.9,35.3z"/>
	</g>
	<g>
		<path d="M54.2,13.8C54.2,13.8,54.2,13.8,54.2,13.8C54.2,13.8,54.2,13.8,54.2,13.8L54.2,13.8z"/>
		<path d="M63.3,17.2c-0.2-0.1-0.4-0.1-0.6-0.2c-0.3,0-0.6-0.1-0.9-0.2c0,0,0,0,0-0.1c-0.1-0.1-0.2-0.1-0.2-0.1
			c0-0.1,0.3-0.2,0.3-0.2c0,0,0-0.1,0-0.1c-0.2-0.1-0.4-0.1-0.6-0.3c-0.1,0-0.1-0.1-0.2-0.2c-0.1-0.1-0.3-0.1-0.4-0.1
			c-0.4-0.1-0.8-0.1-1.2-0.1c-0.2,0-0.6-0.2-0.7,0c-0.2,0-0.4-0.1-0.5-0.1c-0.1,0-0.3,0-0.4-0.1c-0.1,0-0.1-0.1-0.2-0.2
			c-0.1,0-0.2-0.1-0.2-0.1c-0.2,0-0.6-0.1-0.8-0.2c-0.2-0.1-0.2-0.1-0.5-0.1c-0.2,0-0.4,0-0.6-0.1c-0.2-0.1-0.6-0.2-0.9-0.3
			c-0.2,0-0.4,0-0.6,0c-0.1,0-0.2-0.1-0.3-0.1c-0.1,0-0.1,0-0.2,0c-0.1,0.1,0.1,0.4,0.1,0.5c0,0.2,0,0.2,0.1,0.3
			c0.1,0.1,0.2,0.1,0.2,0.2c0,0,0.1,0.1,0.1,0.1c0.1,0-0.1,0.3-0.1,0.3c0.1,0.1,0.3,0.1,0.2,0.2c-0.1,0.1-0.1,0-0.1,0.1
			c0,0.1,0,0.1,0.1,0.2c0.1,0.1,0.2,0,0.3,0c0.1,0,0.2,0.1,0.3,0c0-0.1,0-0.2,0.1-0.2c0,0,0.1,0,0.2,0.1c0.1,0,0.1,0.1,0.1,0.1
			c0.1,0,0.3,0.1,0.4,0c0.1,0,0.2-0.1,0.3-0.1c0.1,0,0.3,0,0.4,0.1c0.1,0.1,0.2,0.2,0.4,0.3c0.1,0,0.2,0,0.4,0.1
			c0.1,0,0.3,0.1,0.4,0.2c0,0,0,0.2,0,0.3c0,0.2,0,0.3,0,0.5c0-0.1,0.3-0.2,0.4-0.2c0.2-0.1,0.5,0,0.7-0.2c0,0,0.1-0.1,0.1-0.1
			c0,0,0.1,0,0.1,0c0.2,0,0.3,0,0.5,0c0.2,0,0.3,0.1,0.5,0c0.2,0,0.2,0.1,0.3,0.2c0.1,0.1,0.2,0.2,0.4,0.2c0.1,0,0.2,0,0.4-0.1
			c0.1,0,0.3,0.1,0.4,0.1c0-0.2,0.2-0.2,0.3-0.1c0.3,0,0.7,0.2,1,0.1c0,0,0.1,0,0.1,0c0,0,0,0,0-0.1c0,0,0.1-0.1,0.1-0.1
			C63.1,17.4,63.3,17.4,63.3,17.2z"/>
	</g>
	<path class="st18" d="M49.8,37.9c0,0.3-0.1,0.4,0.3,0.6c0.2,0.1,0.6,0.2,0.8,0.4c0.1,0.1,0.1,0.2,0.2,0.2c0.1,0.1,0.2,0,0.3,0.1
		c0.2,0.1,0.4,0.3,0.6,0.3c0,0.4,0.8,0.4,1,0.6c0.1,0.1,0.2,0.3,0.3,0.4c0.2,0.1,0.5,0.1,0.7,0.2c0.4,0.1,0.9,0.3,0.8,0.6
		c-0.1,0.3-0.7,0.3-0.7,0.6c0.2,0,0.3,0,0.5,0.1c0-0.5,1.7-0.5,1.2-1.2c-0.3-0.3-2.1-0.5-1.8-1.1c0.3,0,0.5,0,0.8,0
		c0.3,0,0.7,0.1,0.9,0c0.8-0.4-0.9-0.7-1.2-0.8c-0.6-0.2-1.3-0.3-1.8-0.7c-0.2-0.2-0.4-0.4-0.4-0.7c0-0.2,0.2-0.5,0.2-0.7
		c-0.5-0.1-0.5,0.6-0.5,0.9c0,0.3,0.2,0.7,0.6,0.8c0,0.3-0.7,0.2-0.9,0.1c-0.1-0.1-0.2-0.2-0.3-0.3c-0.2-0.1-0.4,0-0.6-0.1
		c-0.3-0.1-0.4-0.3-0.5-0.5c-0.1-0.2-0.4-0.5-0.4-0.7c-0.1,0.1,0,0.3,0,0.4c0,0.2,0,0.4-0.1,0.5"/>
	<path class="st19" d="M51.9,32.7c-0.2-0.9,1.3-3.9,1.6-7.1c0.2-4.1,2.2-6.2,2.1-7.6c0,0,0.7-1.2,3.6-1.2"/>
	<g>
		<g>
			<path class="st20" d="M56.5,16.6c-0.3-0.3-0.4,0.2-0.6,0C55.8,16.5,56.5,16.3,56.5,16.6z"/>
			<path class="st20" d="M52.3,17.1c0.2,0.1,0.1,0,0.3,0c0,0.1-0.1,0.1-0.2,0.2c0.2,0.2-0.1,0.2-0.2,0.3c-0.1-0.1,0-0.2,0.1-0.2
				C52.3,17.4,52.3,17.3,52.3,17.1z"/>
			<path class="st20" d="M53.1,18.1c0,0.1-0.1,0.1-0.2,0.1c0,0.1,0.1,0.1,0.2,0.1c-0.4,0.3-0.5-0.2-1,0
				C52.4,17.9,52.6,18.2,53.1,18.1z"/>
			<path class="st20" d="M53.5,15.6c-0.1,0.2-0.3,0-0.4,0.1c0.3,0.3,0.4-0.2,0.6-0.2c-0.1,0.4,0.2,0.4,0.3,0.6c0,0.1-0.5,0-0.5-0.3
				c-0.2,0.2-0.4,0.5-0.2,0.6c0.2,0-0.1-0.1,0.1-0.2c0.2-0.1,0.4-0.1,0.4,0.3c-0.2-0.1-0.2,0.1-0.4,0.1c0.2,0.2,0.6-0.1,0.9,0
				c0,0.1-0.1,0.1-0.2,0.2c0.2-0.1,0.4-0.2,0.2,0.1c0.1,0,0.3-0.3,0-0.2c0.4-0.2,0.9,0,1,0.3c0.1-0.1,0.1-0.3,0.4-0.2
				c0,0.2-0.1,0.1-0.2,0.2c0.1,0.2,0.2,0.3,0.4,0.2c0,0.2,0,0.3,0.1,0.4c-0.3,0.1-0.7-0.4-1-0.6c-0.2,0.3-0.5,0.1-0.9,0.3
				c0,0.1,0.1,0.2,0.2,0.2c0,0.1-0.1-0.1-0.2,0.1c-0.2-0.1-0.1-0.2-0.1-0.5c0.1,0,0.1,0.1,0.2,0.1c-0.1-0.1-0.1-0.1-0.2-0.2
				c-0.2,0.1-0.4,0.2-0.4,0.5c0,0.1,0.2,0.1,0.2,0c0.1,0-0.1,0.1,0.1,0.2c-0.1,0.1-0.2,0-0.5,0.1c0.2-0.1,0.2-0.3-0.2-0.2
				c0-0.1,0.1-0.2,0.3-0.1c-0.2-0.2,0-0.1,0.1-0.2c0-0.1-0.1-0.1-0.1-0.2c-0.1,0-0.1,0.2-0.2,0.1c-0.1,0.3-0.3,0.5-0.7,0.5
				c0.2,0.2,0.4,0.1,0.6,0.2c0,0.2-0.5-0.1-0.5,0.1c-0.1,0,0-0.2-0.2-0.2c0.1-0.2,0.3-0.2,0.3-0.3c0-0.2-0.5,0.1-0.3-0.3
				c0.4,0.2,0.6,0.1,0.6-0.2c0,0.1-0.6-0.3-0.5,0c-0.1,0.2-0.1-0.2-0.2-0.2c0-0.1,0.3,0.1,0.2-0.2c0.2,0.1,0.2,0.1,0.1,0.2
				c0.3,0,0-0.3,0.3-0.3c-0.1-0.1-0.3-0.1-0.4-0.2c0.4,0.1-0.3,0.4-0.2,0c0.1,0,0.1,0,0.1,0.1c0.1,0,0-0.1,0-0.1
				c0-0.1,0.1-0.1,0.2-0.1c0.1-0.2-0.2-0.2-0.1-0.4C53.1,15.5,53.3,15.3,53.5,15.6z"/>
			<path class="st20" d="M54.6,16.1C54.6,16,54.6,16,54.6,16.1c0.2-0.2,0.4-0.3,0.6-0.1C54.9,16,54.8,16.2,54.6,16.1z"/>
			<path class="st20" d="M51.7,16.3c0.2-0.2-0.4,0.3,0,0.4c-0.2,0.4-0.2-0.4-0.2-0.1c-0.1,0,0.1-0.3-0.2-0.3
				C51.2,16.2,51.5,16.3,51.7,16.3z"/>
			<path class="st20" d="M51.1,17.2c-0.1,0-0.2,0-0.3,0c-0.1-0.1,0.1-0.1,0.2-0.1c0.1,0,0.2-0.1,0.2-0.2c0.1,0.2,0.1,0.1,0.3,0.2
				C51.3,17.4,51,16.8,51.1,17.2z"/>
			<path class="st20" d="M52.6,19.1c-0.2,0-0.6-0.1-0.4,0.1c0,0.1,0,0.1-0.1,0.1c-0.1,0-0.1,0-0.2,0c0-0.1,0.1-0.1,0.1-0.2
				c-0.3,0.2-0.2-0.4-0.5,0c-0.1-0.2-0.1-0.4-0.4-0.3c0-0.3,0.1-0.4,0.3-0.3c0.1,0.5,0-0.4,0.3-0.1c-0.3,0.2,0,0.2,0.1,0.5
				c0.1-0.1,0.2-0.3,0.4-0.2C52.6,18.9,52.3,18.5,52.6,19.1z"/>
			<path class="st20" d="M50.4,18.4c0-0.2,0.2,0.1,0.2-0.2c0.1,0,0,0.2,0.2,0.2c0,0.2-0.3-0.2-0.3,0.1
				C50.4,18.7,50.3,18.5,50.4,18.4C50.5,18.4,50.4,18.4,50.4,18.4z"/>
			<path class="st20" d="M51.5,19.1c0.2,0.1-0.1,0.1-0.1,0.2c-0.1-0.1-0.2-0.3-0.1-0.5C51.4,18.9,51.4,19,51.5,19.1
				C51.4,19.2,51.5,19.1,51.5,19.1z"/>
		</g>
		<path class="st21" d="M56.1,16.7c0.2,0.6,0.7-0.2,0.9-0.4c0.3-0.2,0.3,0,0.6,0c0.3,0,0.5-0.1,0.8-0.1c0.1,0,0.2,0.1,0.4,0.1
			c0.2,0,0.3-0.2,0.5-0.2c0.1,0.4,0.5,0,0.8,0c0.1,0,0.1,0.1,0.2,0.2c0.2,0,0.4-0.2,0.6-0.1c0.4,0.3,0.3,0.2,0.5,0.2
			c0.1,0.1,0.3,0,0.5,0c0.3,0,0.5,0.2,0.8,0c-0.2-0.1-0.4-0.1-0.5-0.3c-0.1-0.1-0.1,0.1-0.2,0c-0.3-0.1-0.9-0.3-1.2-0.3
			c-0.4,0-0.6,0.1-1,0c-0.3,0-0.7-0.2-1-0.2c-0.3,0-0.4,0-0.7,0.1c-0.4,0.3-0.6,0.2-1.1,0.2c-0.5,0-1-0.2-1.4-0.2
			c-0.2,0-0.5,0-0.7,0"/>
	</g>
	<path class="st22" d="M62.4,45.6c-0.3-0.4-0.6-0.6-1-0.9c-0.4-0.3-0.7-0.8-1-1.2c-0.4-0.5-1-0.9-1.5-1.4c-0.3-0.3-0.5-0.6-0.7-0.9
		c-0.4-0.4-0.2-0.6-0.4-1.2c-0.1-0.4-0.3-0.7-0.5-1.1c-0.1-0.4-0.4-0.6-0.6-0.9c-0.2-0.3-0.2-0.7-0.4-1c-0.1-0.3-0.1-0.9-0.3-1.1
		c0,0,0.1,0,0.1,0c0.1-0.4-0.2-0.7-0.1-1.1c-0.2,0-0.3,0-0.4-0.1c0.6-0.4-0.7-1.1-0.4-1.6c0.1-0.2,0.2-0.4,0.3-0.7
		c0.1-0.1,0.2-0.3,0.3-0.4c0.1-0.3,0.1-0.6,0.1-0.9c0-0.3,0.1-0.5,0-0.8c-0.1-0.4,0.2-0.6,0.3-0.9c0.1-0.2,0.1-0.4,0.1-0.5
		c0-0.2-0.2-0.4-0.1-0.6c0-0.2,0.2-0.4,0.3-0.6c0.2-0.5,0-0.8,0-1.3c0-0.2,0.2-0.3,0.2-0.5c0.1-0.2,0.1-0.5,0.2-0.8
		c0.1-0.6,0.2-1.2,0.6-1.7c0.1-0.2,0.2-0.3,0.2-0.5c0-0.2,0.1-0.4,0.2-0.5c0.3-0.4,0.7-0.7,0.7-1.3c0.1-0.5,0.1-1.1,0.3-1.5
		c0.2-0.3,1-0.9,0.9-1.2c0,0,0-0.8,2.4-1.3c-2.2-1-4.5-1.3-4.5-1.3c-3.7,0.2-4,1.4-4,1.4c-0.2,0-0.2,0.4-0.3,0.7
		c-0.1,0.1-0.3,0.4-0.3,0.5c-0.1,0.2-0.8,0.4-0.8,0.6c0,0.4-0.1,0.8-0.1,1.2c-0.1,0.5-0.3,0.8-0.5,1.2c-0.3,0.4-0.4,0.7-0.5,1.2
		c0,0.1,0,0.3-0.1,0.5c0,0.1-0.1,0.2-0.2,0.3c-0.1,0.2-0.1,0.4-0.1,0.6c-0.1,0.4,0.1,0.7-0.1,1.1c-0.2,0.3,0.3,0.7,0,1
		c-0.3,0.3-0.7,0.6-0.7,1c0,0.3,0.2,0.5,0.1,0.8c0,0.1-0.1,0.3-0.1,0.4c0,0.2,0.3,0.3,0.2,0.5c0,0.1-0.1,0.1-0.2,0.2
		c-0.1,0.1-0.7,0.1-0.7,0.2c-0.1,0.3,0.1,0.7,0,1c0,0.1-0.1,0.2-0.2,0.3c-0.2,0.2-0.5,0.1-0.6,0.4c-0.1,0.3,0.2,0.6,0.2,0.9
		c0,0.2-0.4,0.5-0.5,0.7c0,0.2-0.3,0.4-0.2,0.6c0.1,0.3,0.8,0.6,0.6,0.9c-0.1,0.2-0.4,0.4-0.6,0.3c-2.1-0.2-0.6,0.4-0.9,0.5
		c-0.1,0,1.4,0.5,1.5,0.6c0.2,0.3-0.1,1.2-0.2,1.6c-0.1,0.6-0.2,1.2-0.5,1.7c-0.3,0.5-0.7,1-1.1,1.4c-0.3,0.4-0.9,0.9-0.9,1.4
		c-0.1,0-0.1,0-0.1,0c0,0.3-0.1,0.2-0.3,0.3c-0.1,0.1-0.2,0.3-0.3,0.4c0,0-0.3,0.2-0.4,0.3c-0.1,0.1-0.3,0.2-0.4,0.3
		c-0.5,0.5-1,0.8-1.6,1.1c-0.5,0.3-1,0.7-1.5,1c-0.6,0.3-1.3,0.8-2,0.8"/>
	<g>
		<g>
			<path class="st23" d="M58.1,45.2c-0.3-0.1-0.5,0.1-0.8,0C57.4,45.1,58.1,45,58.1,45.2z"/>
			<path class="st23" d="M53,45.6c0.2,0.1,0.1,0,0.4,0c0,0.1-0.1,0.1-0.2,0.1c0.2,0.1-0.1,0.1-0.2,0.2c-0.2,0-0.1-0.1,0.1-0.1
				C53,45.7,53,45.6,53,45.6z"/>
			<path class="st23" d="M54.1,46.1c0,0-0.1,0-0.2,0C53.9,46.2,54,46.2,54.1,46.1c-0.5,0.3-0.7,0-1.3,0.1
				C53.3,46,53.5,46.2,54.1,46.1z"/>
			<path class="st23" d="M54.5,44.6c-0.2,0.1-0.3,0-0.5,0.1c0.4,0.2,0.5-0.2,0.7-0.1c-0.1,0.2,0.3,0.2,0.4,0.3c0,0.1-0.6,0-0.6-0.1
				c-0.2,0.1-0.5,0.3-0.2,0.4c0.2,0-0.1-0.1,0.1-0.1c0.2,0,0.5-0.1,0.5,0.1c-0.3,0-0.3,0.1-0.5,0c0.2,0.1,0.7-0.1,1.1,0
				c0,0.1-0.2,0.1-0.2,0.1c0.2-0.1,0.5-0.1,0.3,0c0.2,0,0.3-0.2,0-0.1c0.5-0.1,1.1,0,1.2,0.1c0.2,0,0.1-0.2,0.5-0.1
				c0,0.1-0.1,0.1-0.3,0.1c0.1,0.1,0.2,0.2,0.5,0.1c0,0.1,0.1,0.2,0.2,0.2c-0.4,0.1-0.9-0.2-1.3-0.3c-0.2,0.2-0.6,0.1-1.1,0.2
				c0.1,0.1,0.2,0.1,0.3,0.1c0,0.1-0.2,0-0.2,0c-0.3-0.1-0.1-0.1-0.2-0.3c0.1,0,0.2,0,0.3,0c-0.1,0-0.2-0.1-0.3-0.1
				c-0.2,0.1-0.5,0.1-0.5,0.3c0,0.1,0.3,0.1,0.3,0c0.2,0-0.1,0.1,0.1,0.1c-0.1,0-0.2,0-0.6,0c0.3-0.1,0.2-0.2-0.2-0.1
				c0-0.1,0.2-0.1,0.4-0.1c-0.2-0.1,0-0.1,0.1-0.1c0,0-0.1,0-0.1-0.1c-0.1,0-0.1,0.1-0.2,0c-0.1,0.2-0.3,0.3-0.8,0.3
				c0.2,0.1,0.5,0,0.7,0.1c0,0.1-0.6,0-0.6,0.1c-0.1,0,0-0.1-0.2-0.1c0.1-0.1,0.3-0.1,0.4-0.2c0-0.1-0.5,0-0.4-0.1
				c0.5,0.1,0.7,0.1,0.7-0.1c0,0.1-0.7-0.2-0.6,0c-0.1,0.1-0.2-0.1-0.3-0.1c0-0.1,0.3,0.1,0.3-0.1c0.2,0,0.2,0.1,0.1,0.1
				c0.4,0-0.1-0.2,0.4-0.2c-0.1-0.1-0.3-0.1-0.5-0.1c0.5,0.1-0.4,0.2-0.3,0c0.1,0,0.1,0,0.1,0c0.1,0,0.1,0,0,0c0-0.1,0.2,0,0.3,0
				c0.1-0.1-0.3-0.1-0.2-0.2C53.9,44.6,54.2,44.5,54.5,44.6z"/>
			<path class="st23" d="M55.8,44.9C55.8,44.8,55.9,44.9,55.8,44.9c0.3-0.1,0.5-0.2,0.7,0C56.2,44.8,56,45,55.8,44.9z"/>
			<path class="st23" d="M52.2,45.1c0.3-0.1-0.5,0.2,0,0.2c-0.2,0.2-0.2-0.2-0.3,0c-0.2,0,0.1-0.2-0.3-0.1
				C51.7,45,52.1,45.1,52.2,45.1z"/>
			<path class="st23" d="M51.5,45.7c-0.1,0-0.3,0-0.4,0c-0.2,0,0.1-0.1,0.2,0c0.1,0,0.2-0.1,0.2-0.1c0.2,0.1,0.2,0,0.4,0.1
				C51.9,45.7,51.4,45.4,51.5,45.7z"/>
			<path class="st23" d="M53.5,46.7c-0.3,0-0.7-0.1-0.5,0c0,0,0,0-0.1,0c-0.1,0-0.1,0-0.2,0c0-0.1,0.1-0.1,0.1-0.1
				c-0.4,0.1-0.2-0.2-0.6,0c-0.2-0.1-0.1-0.2-0.5-0.1c0-0.2,0.1-0.2,0.4-0.2c0.1,0.3,0-0.2,0.4-0.1c-0.3,0.1,0,0.1,0.1,0.3
				c0.2-0.1,0.2-0.2,0.5-0.1C53.5,46.6,53.1,46.4,53.5,46.7z"/>
			<path class="st23" d="M50.8,46.4c0-0.1,0.3,0.1,0.3-0.1c0.1,0,0,0.1,0.2,0.1C51.3,46.6,50.9,46.3,50.8,46.4
				C50.8,46.6,50.7,46.4,50.8,46.4C50.9,46.4,50.8,46.4,50.8,46.4z"/>
			<path class="st23" d="M52.1,46.8c0.3,0-0.2,0.1-0.1,0.1c-0.2,0-0.2-0.2-0.2-0.3C52,46.6,52.1,46.7,52.1,46.8
				C52.1,46.8,52.1,46.8,52.1,46.8z"/>
		</g>
		<g>
			<path class="st23" d="M61.1,46.1c-0.3-0.1-0.5,0.1-0.8,0C60.3,46,61.1,45.9,61.1,46.1z"/>
			<path class="st23" d="M56,46.5c0.2,0.1,0.1,0,0.4,0c0,0.1-0.1,0.1-0.2,0.1c0.2,0.1-0.1,0.1-0.2,0.2c-0.2,0-0.1-0.1,0.1-0.1
				C56,46.6,56,46.5,56,46.5z"/>
			<path class="st23" d="M57.4,45.5c-0.2,0.1-0.3,0-0.5,0.1c0.4,0.2,0.5-0.2,0.7-0.1c-0.1,0.2,0.3,0.2,0.4,0.3c0,0.1-0.6,0-0.6-0.1
				c-0.2,0.1-0.5,0.3-0.2,0.4c0.2,0-0.1-0.1,0.1-0.1c0.2,0,0.5-0.1,0.5,0.1c-0.3,0-0.3,0.1-0.5,0c0.2,0.1,0.7-0.1,1.1,0
				c0,0.1-0.2,0.1-0.2,0.1c0.2-0.1,0.5-0.1,0.3,0c0.2,0,0.3-0.2,0-0.1c0.5-0.1,1.1,0,1.2,0.1c0.2,0,0.1-0.2,0.5-0.1
				c0,0.1-0.1,0.1-0.3,0.1c0.1,0.1,0.2,0.2,0.5,0.1c0,0.1,0.1,0.2,0.2,0.2c-0.4,0.1-0.9-0.2-1.3-0.3c-0.2,0.2-0.6,0.1-1.1,0.2
				c0.1,0.1,0.2,0.1,0.3,0.1c0,0.1-0.2,0-0.2,0c-0.3-0.1-0.1-0.1-0.2-0.3c0.1,0,0.2,0,0.3,0c-0.1,0-0.2-0.1-0.3-0.1
				c-0.2,0.1-0.5,0.1-0.5,0.3c0,0.1,0.3,0.1,0.3,0c0.2,0-0.1,0.1,0.1,0.1c-0.1,0-0.2,0-0.6,0c0.3-0.1,0.2-0.2-0.2-0.1
				c0-0.1,0.2-0.1,0.4-0.1c-0.2-0.1,0-0.1,0.1-0.1c0,0-0.1,0-0.1-0.1c-0.1,0-0.1,0.1-0.2,0c-0.1,0.2-0.3,0.3-0.8,0.3
				c0.2,0.1,0.5,0,0.7,0.1c0,0.1-0.6,0-0.6,0.1c-0.1,0,0-0.1-0.2-0.1c0.1-0.1,0.3-0.1,0.4-0.2c0-0.1-0.6,0-0.4-0.1
				c0.5,0.1,0.7,0.1,0.7-0.1c0,0.1-0.7-0.2-0.6,0c-0.1,0.1-0.2-0.1-0.3-0.1c0-0.1,0.3,0.1,0.3-0.1c0.2,0,0.2,0.1,0.1,0.1
				c0.4,0-0.1-0.2,0.4-0.2c-0.1-0.1-0.3-0.1-0.5-0.1c0.5,0.1-0.4,0.2-0.3,0c0.1,0,0.1,0,0.1,0c0.1,0,0.1,0,0,0c0-0.1,0.2,0,0.3,0
				c0.1-0.1-0.3-0.1-0.2-0.2C56.9,45.5,57.1,45.4,57.4,45.5z"/>
			<path class="st23" d="M58.7,45.8C58.7,45.7,58.8,45.8,58.7,45.8c0.3-0.1,0.5-0.2,0.7,0C59.2,45.7,59,45.9,58.7,45.8z"/>
			<path class="st23" d="M55.2,46c0.3-0.1-0.5,0.2,0,0.2c-0.2,0.2-0.2-0.2-0.3,0c-0.2,0,0.1-0.2-0.3-0.1C54.6,45.9,55,46,55.2,46z"
				/>
			<path class="st23" d="M54.5,46.6c-0.1,0-0.3,0-0.4,0c-0.2,0,0.1-0.1,0.2,0c0.1,0,0.2-0.1,0.2-0.1c0.2,0.1,0.2,0,0.4,0.1
				C54.8,46.6,54.4,46.3,54.5,46.6z"/>
		</g>
		<g>
			<path class="st23" d="M55,44.6c-0.3-0.1-0.5,0.1-0.8,0C54.2,44.5,55,44.4,55,44.6z"/>
			<path class="st23" d="M49.9,45c0.2,0.1,0.1,0,0.4,0c0,0.1-0.1,0.1-0.2,0.1c0.2,0.1-0.1,0.1-0.2,0.2c-0.2,0-0.1-0.1,0.1-0.1
				C49.9,45.1,49.9,45.1,49.9,45z"/>
			<path class="st23" d="M50.9,45.6c0,0-0.1,0-0.2,0C50.7,45.7,50.9,45.6,50.9,45.6c-0.5,0.3-0.7,0-1.3,0.1
				C50.1,45.4,50.3,45.6,50.9,45.6z"/>
			<path class="st23" d="M51.3,44c-0.2,0.1-0.3,0-0.5,0.1c0.4,0.2,0.5-0.2,0.7-0.1c-0.1,0.2,0.3,0.2,0.4,0.3c0,0.1-0.6,0-0.6-0.1
				c-0.2,0.1-0.5,0.3-0.2,0.4c0.2,0-0.1-0.1,0.1-0.1c0.2,0,0.5-0.1,0.5,0.1c-0.3,0-0.3,0.1-0.5,0c0.2,0.1,0.7-0.1,1.1,0
				c0,0.1-0.2,0.1-0.2,0.1c0.2-0.1,0.5-0.1,0.3,0c0.2,0,0.3-0.2,0-0.1c0.5-0.1,1.1,0,1.2,0.1c0.2,0,0.1-0.2,0.5-0.1
				c0,0.1-0.1,0.1-0.3,0.1c0.1,0.1,0.2,0.2,0.5,0.1c0,0.1,0.1,0.2,0.2,0.2c-0.4,0.1-0.9-0.2-1.3-0.3c-0.2,0.2-0.6,0.1-1.1,0.2
				c0.1,0.1,0.2,0.1,0.3,0.1c0,0.1-0.2,0-0.2,0C51.9,45,52.1,45,52,44.8c0.1,0,0.2,0.1,0.3,0c-0.1,0-0.2-0.1-0.3-0.1
				c-0.2,0.1-0.5,0.1-0.5,0.3c0,0.1,0.3,0.1,0.3,0c0.2,0-0.1,0.1,0.1,0.1c-0.1,0-0.2,0-0.6,0c0.3-0.1,0.2-0.2-0.2-0.1
				c0-0.1,0.2-0.1,0.4-0.1c-0.2-0.1,0-0.1,0.1-0.1c0,0-0.1,0-0.1-0.1c-0.1,0-0.1,0.1-0.2,0C51.2,44.9,51,45,50.5,45
				c0.2,0.1,0.5,0,0.7,0.1c0,0.1-0.6,0-0.6,0.1c-0.1,0,0-0.1-0.2-0.1c0.1-0.1,0.3-0.1,0.4-0.2c0-0.1-0.5,0-0.4-0.1
				c0.5,0.1,0.7,0.1,0.7-0.1c0,0.1-0.7-0.2-0.6,0c-0.1,0.1-0.2-0.1-0.3-0.1c0-0.1,0.3,0.1,0.3-0.1c0.2,0,0.2,0.1,0.1,0.1
				c0.4,0-0.1-0.2,0.4-0.2c-0.1-0.1-0.3-0.1-0.5-0.1c0.5,0.1-0.4,0.2-0.3,0c0.1,0,0.1,0,0.1,0c0.1,0,0.1,0,0,0c0-0.1,0.2,0,0.3,0
				c0.1-0.1-0.3-0.1-0.2-0.2C50.8,44,51,43.9,51.3,44z"/>
			<path class="st23" d="M52.6,44.3C52.6,44.3,52.7,44.3,52.6,44.3c0.3-0.1,0.5-0.2,0.7,0C53.1,44.3,52.9,44.4,52.6,44.3z"/>
			<path class="st23" d="M49.1,44.5c0.3-0.1-0.5,0.2,0,0.2c-0.2,0.2-0.2-0.2-0.3,0c-0.2,0,0.1-0.2-0.3-0.1
				C48.5,44.4,48.9,44.5,49.1,44.5z"/>
			<path class="st23" d="M48.4,45.1c-0.1,0-0.3,0-0.4,0c-0.2,0,0.1-0.1,0.2,0c0.1,0,0.2-0.1,0.2-0.1c0.2,0.1,0.2,0,0.4,0.1
				C48.7,45.2,48.3,44.9,48.4,45.1z"/>
			<path class="st23" d="M50.4,46.1c-0.3,0-0.7-0.1-0.5,0c0,0,0,0-0.1,0c-0.1,0-0.1,0-0.2,0c0-0.1,0.1-0.1,0.1-0.1
				c-0.4,0.1-0.2-0.2-0.6,0c-0.2-0.1-0.1-0.2-0.5-0.1c0-0.2,0.1-0.2,0.4-0.2c0.1,0.3,0-0.2,0.4-0.1c-0.3,0.1,0,0.1,0.1,0.3
				c0.2-0.1,0.2-0.2,0.5-0.1C50.4,46.1,50,45.8,50.4,46.1z"/>
			<path class="st23" d="M47.6,45.8c0-0.1,0.3,0.1,0.3-0.1c0.1,0,0,0.1,0.2,0.1C48.1,46,47.7,45.7,47.6,45.8
				C47.6,46,47.5,45.8,47.6,45.8C47.7,45.8,47.7,45.8,47.6,45.8z"/>
			<path class="st23" d="M49,46.2c0.3,0-0.2,0.1-0.1,0.1c-0.2,0-0.2-0.2-0.2-0.3C48.9,46.1,48.9,46.1,49,46.2
				C49,46.2,49,46.2,49,46.2z"/>
		</g>
	</g>
	<g>
		<g>
			<path class="st24" d="M57.2,45.8c-0.3-0.1-0.4,0.1-0.7,0C56.6,45.7,57.3,45.6,57.2,45.8z"/>
			<path class="st24" d="M52.7,46.2c0.2,0.1,0.1,0,0.4,0c0,0.1-0.1,0.1-0.2,0.1c0.2,0.1-0.1,0.1-0.2,0.2c-0.1,0-0.1-0.1,0.1-0.1
				C52.7,46.3,52.6,46.3,52.7,46.2z"/>
			<path class="st24" d="M53.6,46.8c0,0-0.1,0-0.2,0C53.5,46.9,53.6,46.9,53.6,46.8c-0.4,0.3-0.6,0-1.1,0.1
				C52.9,46.6,53.1,46.8,53.6,46.8z"/>
			<path class="st24" d="M54,45.2c-0.1,0.1-0.3,0-0.4,0.1c0.4,0.2,0.5-0.2,0.6-0.1c-0.1,0.2,0.3,0.2,0.4,0.3c0,0.1-0.6,0-0.5-0.1
				c-0.2,0.1-0.4,0.3-0.2,0.4c0.2,0-0.1-0.1,0.1-0.1c0.2,0,0.5-0.1,0.4,0.1c-0.2,0-0.2,0.1-0.4,0c0.2,0.1,0.6-0.1,1,0
				c0,0.1-0.2,0.1-0.2,0.1c0.2-0.1,0.4-0.1,0.3,0c0.2,0,0.3-0.2,0-0.1c0.4-0.1,1,0,1.1,0.1c0.2,0,0.1-0.2,0.4-0.1
				c0,0.1-0.1,0.1-0.3,0.1c0.1,0.1,0.2,0.2,0.4,0.1c0,0.1,0,0.2,0.2,0.2c-0.4,0.1-0.8-0.2-1.1-0.3c-0.2,0.2-0.5,0.1-1,0.2
				c0,0.1,0.1,0.1,0.3,0.1c0,0.1-0.2,0-0.2,0c-0.3-0.1-0.1-0.1-0.2-0.3c0.1,0,0.1,0,0.3,0c-0.1,0-0.2-0.1-0.3-0.1
				c-0.2,0.1-0.4,0.1-0.4,0.3c0,0.1,0.3,0.1,0.3,0c0.1,0-0.1,0.1,0.1,0.1c-0.1,0-0.2,0-0.5,0c0.2-0.1,0.2-0.2-0.2-0.1
				c0-0.1,0.2-0.1,0.4-0.1c-0.2-0.1,0-0.1,0.1-0.1c0,0-0.1,0-0.1-0.1c-0.1,0-0.1,0.1-0.2,0c-0.1,0.2-0.3,0.3-0.7,0.3
				c0.2,0.1,0.5,0,0.6,0.1c0,0.1-0.5,0-0.5,0.1c-0.1,0,0-0.1-0.2-0.1c0.1-0.1,0.3-0.1,0.4-0.2c0-0.1-0.5,0-0.4-0.1
				c0.4,0.1,0.7,0.1,0.6-0.1c0,0.1-0.7-0.2-0.5,0c-0.1,0.1-0.1-0.1-0.3-0.1c0-0.1,0.3,0.1,0.3-0.1c0.2,0,0.2,0.1,0.1,0.1
				c0.4,0-0.1-0.2,0.4-0.2c-0.1-0.1-0.3-0.1-0.4-0.1c0.4,0.1-0.4,0.2-0.3,0c0.1,0,0.1,0,0.1,0c0.1,0,0,0,0,0c0-0.1,0.2,0,0.3,0
				c0.1-0.1-0.2-0.1-0.2-0.2C53.5,45.2,53.7,45.1,54,45.2z"/>
			<path class="st24" d="M55.1,45.5C55.1,45.5,55.2,45.5,55.1,45.5c0.3-0.1,0.4-0.2,0.6,0C55.5,45.5,55.4,45.6,55.1,45.5z"/>
			<path class="st24" d="M52,45.7c0.2-0.1-0.5,0.2,0,0.2c-0.2,0.2-0.2-0.2-0.3,0c-0.2,0,0.1-0.2-0.3-0.1
				C51.4,45.6,51.8,45.7,52,45.7z"/>
			<path class="st24" d="M51.3,46.3c-0.1,0-0.2,0-0.4,0c-0.2,0,0.1-0.1,0.2,0c0.1,0,0.2-0.1,0.2-0.1c0.2,0.1,0.1,0,0.4,0.1
				C51.6,46.4,51.2,46.1,51.3,46.3z"/>
			<path class="st24" d="M53.1,47.3c-0.3,0-0.6-0.1-0.4,0c0,0,0,0-0.1,0c-0.1,0-0.1,0-0.2,0c0-0.1,0.1-0.1,0.1-0.1
				c-0.3,0.1-0.2-0.2-0.5,0c-0.2-0.1-0.1-0.2-0.4-0.1c0-0.2,0.1-0.2,0.4-0.2c0.1,0.3,0-0.2,0.4-0.1c-0.3,0.1,0,0.1,0.1,0.3
				c0.1-0.1,0.2-0.2,0.4-0.1C53.1,47.3,52.8,47,53.1,47.3z"/>
			<path class="st24" d="M50.6,47c0-0.1,0.2,0.1,0.3-0.1c0.1,0,0,0.1,0.2,0.1C51.1,47.2,50.7,46.9,50.6,47
				C50.7,47.2,50.6,47.1,50.6,47C50.7,47,50.7,47,50.6,47z"/>
			<path class="st24" d="M51.9,47.4c0.3,0-0.1,0.1-0.1,0.1c-0.2,0-0.2-0.2-0.2-0.3C51.8,47.3,51.8,47.3,51.9,47.4
				C51.9,47.5,51.9,47.4,51.9,47.4z"/>
		</g>
		<g>
			<path class="st24" d="M59.9,46.7c-0.3-0.1-0.4,0.1-0.7,0C59.2,46.6,59.9,46.5,59.9,46.7z"/>
			<path class="st24" d="M55.3,47.1c0.2,0.1,0.1,0,0.4,0c0,0.1-0.1,0.1-0.2,0.1c0.2,0.1-0.1,0.1-0.2,0.2c-0.1,0-0.1-0.1,0.1-0.1
				C55.3,47.2,55.3,47.2,55.3,47.1z"/>
			<path class="st24" d="M56.6,46.1c-0.1,0.1-0.3,0-0.4,0.1c0.4,0.2,0.5-0.2,0.6-0.1c-0.1,0.2,0.3,0.2,0.4,0.3c0,0.1-0.6,0-0.5-0.1
				c-0.2,0.1-0.4,0.3-0.2,0.4c0.2,0-0.1-0.1,0.1-0.1c0.2,0,0.5-0.1,0.4,0.1c-0.2,0-0.2,0.1-0.4,0c0.2,0.1,0.6-0.1,1,0
				c0,0.1-0.2,0.1-0.2,0.1c0.2-0.1,0.4-0.1,0.3,0c0.2,0,0.3-0.2,0-0.1c0.4-0.1,1,0,1.1,0.1c0.2,0,0.1-0.2,0.4-0.1
				c0,0.1-0.1,0.1-0.3,0.1c0.1,0.1,0.2,0.2,0.4,0.1c0,0.1,0,0.2,0.2,0.2c-0.4,0.1-0.8-0.2-1.1-0.3c-0.2,0.2-0.5,0.1-1,0.2
				c0,0.1,0.1,0.1,0.3,0.1c0,0.1-0.2,0-0.2,0c-0.3-0.1-0.1-0.1-0.2-0.3c0.1,0,0.1,0,0.3,0c-0.1,0-0.2-0.1-0.3-0.1
				c-0.2,0.1-0.4,0.1-0.4,0.3c0,0.1,0.3,0.1,0.3,0c0.1,0-0.1,0.1,0.1,0.1c-0.1,0-0.2,0-0.5,0c0.2-0.1,0.2-0.2-0.2-0.1
				c0-0.1,0.2-0.1,0.4-0.1c-0.2-0.1,0-0.1,0.1-0.1c0,0-0.1,0-0.1-0.1c-0.1,0-0.1,0.1-0.2,0c-0.1,0.2-0.3,0.3-0.7,0.3
				c0.2,0.1,0.5,0,0.6,0.1c0,0.1-0.5,0-0.5,0.1c-0.1,0,0-0.1-0.2-0.1c0.1-0.1,0.3-0.1,0.4-0.2c0-0.1-0.5,0-0.4-0.1
				c0.4,0.1,0.7,0.1,0.6-0.1c0,0.1-0.7-0.2-0.5,0c-0.1,0.1-0.1-0.1-0.3-0.1c0-0.1,0.3,0.1,0.3-0.1c0.2,0,0.2,0.1,0.1,0.1
				c0.4,0-0.1-0.2,0.4-0.2c-0.1-0.1-0.3-0.1-0.4-0.1c0.4,0.1-0.4,0.2-0.3,0c0.1,0,0.1,0,0.1,0c0.1,0,0,0,0,0c0-0.1,0.2,0,0.3,0
				c0.1-0.1-0.2-0.1-0.2-0.2C56.1,46.1,56.4,46,56.6,46.1z"/>
			<path class="st24" d="M57.8,46.4C57.8,46.4,57.9,46.4,57.8,46.4c0.3-0.1,0.4-0.2,0.6,0C58.2,46.4,58,46.5,57.8,46.4z"/>
			<path class="st24" d="M54.6,46.6c0.2-0.1-0.5,0.2,0,0.2c-0.2,0.2-0.2-0.2-0.3,0c-0.2,0,0.1-0.2-0.3-0.1
				C54.1,46.5,54.5,46.6,54.6,46.6z"/>
			<path class="st24" d="M54,47.2c-0.1,0-0.2,0-0.4,0c-0.2,0,0.1-0.1,0.2,0c0.1,0,0.2-0.1,0.2-0.1c0.2,0.1,0.1,0,0.4,0.1
				C54.3,47.3,53.9,47,54,47.2z"/>
		</g>
		<g>
			<path class="st24" d="M54.4,45.2c-0.3-0.1-0.4,0.1-0.7,0C53.7,45.1,54.4,45,54.4,45.2z"/>
			<path class="st24" d="M49.8,45.6c0.2,0.1,0.1,0,0.4,0c0,0.1-0.1,0.1-0.2,0.1c0.2,0.1-0.1,0.1-0.2,0.2c-0.1,0-0.1-0.1,0.1-0.1
				C49.8,45.8,49.8,45.7,49.8,45.6z"/>
			<path class="st24" d="M50.8,46.2c0,0-0.1,0-0.2,0C50.6,46.3,50.7,46.3,50.8,46.2c-0.4,0.3-0.6,0-1.1,0.1
				C50,46,50.2,46.3,50.8,46.2z"/>
			<path class="st24" d="M51.1,44.6c-0.1,0.1-0.3,0-0.4,0.1c0.4,0.2,0.5-0.2,0.6-0.1c-0.1,0.2,0.3,0.2,0.4,0.3c0,0.1-0.6,0-0.5-0.1
				c-0.2,0.1-0.4,0.3-0.2,0.4c0.2,0-0.1-0.1,0.1-0.1c0.2,0,0.5-0.1,0.4,0.1c-0.2,0-0.2,0.1-0.4,0c0.2,0.1,0.6-0.1,1,0
				c0,0.1-0.2,0.1-0.2,0.1c0.2-0.1,0.4-0.1,0.3,0c0.2,0,0.3-0.2,0-0.1c0.4-0.1,1,0,1.1,0.1c0.2,0,0.1-0.2,0.4-0.1
				c0,0.1-0.1,0.1-0.3,0.1c0.1,0.1,0.2,0.2,0.4,0.1c0,0.1,0,0.2,0.2,0.2c-0.4,0.1-0.8-0.2-1.1-0.3c-0.2,0.2-0.5,0.1-1,0.2
				c0,0.1,0.1,0.1,0.3,0.1c0,0.1-0.2,0-0.2,0c-0.3-0.1-0.1-0.1-0.2-0.3c0.1,0,0.1,0.1,0.3,0c-0.1,0-0.2-0.1-0.3-0.1
				c-0.2,0.1-0.4,0.1-0.4,0.3c0,0.1,0.3,0.1,0.3,0c0.1,0-0.1,0.1,0.1,0.1c-0.1,0-0.2,0-0.5,0c0.2-0.1,0.2-0.2-0.2-0.1
				c0-0.1,0.2-0.1,0.4-0.1c-0.2-0.1,0-0.1,0.1-0.1c0,0-0.1,0-0.1-0.1c-0.1,0-0.1,0.1-0.2,0c-0.1,0.2-0.3,0.3-0.7,0.3
				c0.2,0.1,0.5,0,0.6,0.1c0,0.1-0.5,0-0.5,0.1c-0.1,0,0-0.1-0.2-0.1c0.1-0.1,0.3-0.1,0.4-0.2c0-0.1-0.5,0-0.4-0.1
				c0.4,0.1,0.7,0.1,0.6-0.1c0,0.1-0.7-0.2-0.5,0c-0.1,0.1-0.1-0.1-0.3-0.1c0-0.1,0.3,0.1,0.3-0.1c0.2,0,0.2,0.1,0.1,0.1
				c0.4,0-0.1-0.2,0.4-0.2c-0.1-0.1-0.3-0.1-0.4-0.1c0.4,0.1-0.4,0.2-0.3,0c0.1,0,0.1,0,0.1,0c0.1,0,0,0,0,0c0-0.1,0.2,0,0.3,0
				c0.1-0.1-0.2-0.1-0.2-0.2C50.6,44.6,50.9,44.5,51.1,44.6z"/>
			<path class="st24" d="M52.3,44.9C52.3,44.9,52.4,44.9,52.3,44.9c0.3-0.1,0.4-0.2,0.6,0C52.7,44.9,52.5,45,52.3,44.9z"/>
			<path class="st24" d="M49.1,45.1c0.2-0.1-0.5,0.2,0,0.2c-0.2,0.2-0.2-0.2-0.3,0c-0.2,0,0.1-0.2-0.3-0.1
				C48.6,45.1,49,45.2,49.1,45.1z"/>
			<path class="st24" d="M48.5,45.7c-0.1,0-0.2,0-0.4,0c-0.2,0,0.1-0.1,0.2,0c0.1,0,0.2-0.1,0.2-0.1c0.2,0.1,0.1,0,0.4,0.1
				C48.8,45.8,48.4,45.5,48.5,45.7z"/>
			<path class="st24" d="M50.3,46.8c-0.3,0-0.6-0.1-0.4,0c0,0,0,0-0.1,0c-0.1,0-0.1,0-0.2,0c0-0.1,0.1-0.1,0.1-0.1
				c-0.3,0.1-0.2-0.2-0.5,0c-0.2-0.1-0.1-0.2-0.4-0.1c0-0.2,0.1-0.2,0.4-0.2c0.1,0.3,0-0.2,0.4-0.1c-0.3,0.1,0,0.1,0.1,0.3
				c0.1-0.1,0.2-0.2,0.4-0.1C50.3,46.7,49.9,46.5,50.3,46.8z"/>
			<path class="st24" d="M47.8,46.4c0-0.1,0.2,0.1,0.3-0.1c0.1,0,0,0.1,0.2,0.1C48.3,46.6,47.9,46.4,47.8,46.4
				C47.8,46.6,47.8,46.5,47.8,46.4C47.9,46.4,47.9,46.4,47.8,46.4z"/>
			<path class="st24" d="M49,46.8c0.3,0-0.1,0.1-0.1,0.1c-0.2,0-0.2-0.2-0.2-0.3C48.9,46.7,49,46.8,49,46.8C49,46.9,49,46.8,49,46.8
				z"/>
		</g>
	</g>
	<g>
		<g>
			<path class="st25" d="M42.2,45.2c0.3-0.1,0.4,0.1,0.7,0C42.9,45.1,42.2,45,42.2,45.2z"/>
			<path class="st25" d="M46.8,45.6c-0.2,0.1-0.1,0-0.4,0c0,0.1,0.1,0.1,0.2,0.1c-0.2,0.1,0.1,0.1,0.2,0.2c0.2,0,0.1-0.1-0.1-0.1
				C46.8,45.7,46.8,45.6,46.8,45.6z"/>
			<path class="st25" d="M45.8,46.1c0,0,0.1,0,0.2,0C46,46.2,45.9,46.2,45.8,46.1c0.4,0.3,0.6,0,1.2,0.1
				C46.6,46,46.4,46.2,45.8,46.1z"/>
			<path class="st25" d="M45.5,44.6c0.1,0.1,0.3,0,0.4,0.1c-0.4,0.2-0.5-0.2-0.6-0.1c0.1,0.2-0.3,0.2-0.4,0.3c0,0.1,0.6,0,0.5-0.1
				c0.2,0.1,0.4,0.3,0.2,0.4c-0.2,0,0.1-0.1-0.1-0.1c-0.2,0-0.5-0.1-0.4,0.1c0.3,0,0.2,0.1,0.4,0c-0.2,0.1-0.6-0.1-1,0
				c0,0.1,0.2,0.1,0.2,0.1c-0.2-0.1-0.4-0.1-0.3,0c-0.2,0-0.3-0.2,0-0.1c-0.4-0.1-1,0-1.1,0.1c-0.2,0-0.1-0.2-0.4-0.1
				c0,0.1,0.1,0.1,0.3,0.1c-0.1,0.1-0.2,0.2-0.4,0.1c0,0.1,0,0.2-0.2,0.2c0.4,0.1,0.8-0.2,1.2-0.3c0.2,0.2,0.5,0.1,1,0.2
				c0,0.1-0.1,0.1-0.3,0.1c0,0.1,0.2,0,0.2,0c0.3-0.1,0.1-0.1,0.2-0.3c-0.1,0-0.1,0-0.3,0c0.1,0,0.2-0.1,0.3-0.1
				c0.2,0.1,0.4,0.1,0.4,0.3c0,0.1-0.3,0.1-0.3,0c-0.1,0,0.1,0.1-0.1,0.1c0.1,0,0.2,0,0.5,0c-0.2-0.1-0.2-0.2,0.2-0.1
				c0-0.1-0.2-0.1-0.4-0.1c0.2-0.1,0-0.1-0.1-0.1c0,0,0.1,0,0.1-0.1c0.1,0,0.1,0.1,0.2,0c0.1,0.2,0.3,0.3,0.7,0.3
				c-0.2,0.1-0.5,0-0.6,0.1c0,0.1,0.5,0,0.5,0.1c0.1,0,0-0.1,0.2-0.1c-0.1-0.1-0.3-0.1-0.4-0.2c0-0.1,0.5,0,0.4-0.1
				c-0.4,0.1-0.7,0.1-0.6-0.1c0,0.1,0.7-0.2,0.5,0c0.1,0.1,0.1-0.1,0.3-0.1c0-0.1-0.3,0.1-0.3-0.1C46,45,46,45,46.1,45.1
				c-0.4,0,0.1-0.2-0.4-0.2c0.1-0.1,0.3-0.1,0.4-0.1c-0.4,0.1,0.4,0.2,0.3,0c-0.1,0-0.1,0-0.1,0c-0.1,0,0,0,0,0c0-0.1-0.2,0-0.3,0
				c-0.1-0.1,0.2-0.1,0.2-0.2C46,44.6,45.8,44.5,45.5,44.6z"/>
			<path class="st25" d="M44.3,44.9C44.3,44.8,44.2,44.9,44.3,44.9c-0.3-0.1-0.4-0.2-0.6,0C43.9,44.8,44.1,45,44.3,44.9z"/>
			<path class="st25" d="M47.5,45.1c-0.2-0.1,0.5,0.2,0,0.2c0.2,0.2,0.2-0.2,0.3,0c0.2,0-0.1-0.2,0.3-0.1C48,45,47.7,45.1,47.5,45.1
				z"/>
			<path class="st25" d="M48.1,45.7c0.1,0,0.2,0,0.4,0c0.2,0-0.1-0.1-0.2,0c-0.1,0-0.2-0.1-0.2-0.1c-0.2,0.1-0.1,0-0.4,0.1
				C47.8,45.7,48.2,45.4,48.1,45.7z"/>
			<path class="st25" d="M46.4,46.7c0.3,0,0.6-0.1,0.4,0c0,0,0,0,0.1,0c0.1,0,0.1,0,0.2,0c0-0.1-0.1-0.1-0.1-0.1
				c0.3,0.1,0.2-0.2,0.5,0c0.2-0.1,0.1-0.2,0.4-0.1c0-0.2-0.1-0.2-0.4-0.2c-0.1,0.3,0-0.2-0.4-0.1c0.3,0.1,0,0.1-0.1,0.3
				c-0.1-0.1-0.2-0.2-0.4-0.1C46.3,46.6,46.7,46.4,46.4,46.7z"/>
			<path class="st25" d="M48.8,46.4c0-0.1-0.2,0.1-0.3-0.1c-0.1,0,0,0.1-0.2,0.1C48.4,46.6,48.7,46.3,48.8,46.4
				C48.8,46.6,48.9,46.4,48.8,46.4C48.7,46.4,48.8,46.4,48.8,46.4z"/>
			<path class="st25" d="M47.6,46.8c-0.3,0,0.1,0.1,0.1,0.1c0.2,0,0.2-0.2,0.2-0.3C47.7,46.6,47.7,46.7,47.6,46.8
				C47.6,46.8,47.6,46.8,47.6,46.8z"/>
		</g>
		<g>
			<path class="st25" d="M39.5,46.1c0.3-0.1,0.4,0.1,0.7,0C40.2,46,39.5,45.9,39.5,46.1z"/>
			<path class="st25" d="M44.1,46.5c-0.2,0.1-0.1,0-0.4,0c0,0.1,0.1,0.1,0.2,0.1c-0.2,0.1,0.1,0.1,0.2,0.2c0.2,0,0.1-0.1-0.1-0.1
				C44.1,46.6,44.1,46.5,44.1,46.5z"/>
			<path class="st25" d="M42.8,45.5c0.1,0.1,0.3,0,0.4,0.1c-0.4,0.2-0.5-0.2-0.6-0.1c0.1,0.2-0.3,0.2-0.4,0.3c0,0.1,0.6,0,0.5-0.1
				c0.2,0.1,0.4,0.3,0.2,0.4c-0.2,0,0.1-0.1-0.1-0.1c-0.2,0-0.5-0.1-0.4,0.1c0.3,0,0.2,0.1,0.4,0c-0.2,0.1-0.6-0.1-1,0
				c0,0.1,0.2,0.1,0.2,0.1c-0.2-0.1-0.4-0.1-0.3,0c-0.2,0-0.3-0.2,0-0.1c-0.4-0.1-1,0-1.1,0.1c-0.2,0-0.1-0.2-0.4-0.1
				c0,0.1,0.1,0.1,0.3,0.1c-0.1,0.1-0.2,0.2-0.4,0.1c0,0.1,0,0.2-0.2,0.2c0.4,0.1,0.8-0.2,1.2-0.3c0.2,0.2,0.5,0.1,1,0.2
				c0,0.1-0.1,0.1-0.3,0.1c0,0.1,0.2,0,0.2,0c0.3-0.1,0.1-0.1,0.2-0.3c-0.1,0-0.1,0-0.3,0c0.1,0,0.2-0.1,0.3-0.1
				c0.2,0.1,0.4,0.1,0.4,0.3c0,0.1-0.3,0.1-0.3,0c-0.1,0,0.1,0.1-0.1,0.1c0.1,0,0.2,0,0.5,0c-0.2-0.1-0.2-0.2,0.2-0.1
				c0-0.1-0.2-0.1-0.4-0.1c0.2-0.1,0-0.1-0.1-0.1c0,0,0.1,0,0.1-0.1c0.1,0,0.1,0.1,0.2,0c0.1,0.2,0.3,0.3,0.7,0.3
				c-0.2,0.1-0.5,0-0.6,0.1c0,0.1,0.5,0,0.5,0.1c0.1,0,0-0.1,0.2-0.1c-0.1-0.1-0.3-0.1-0.4-0.2c0-0.1,0.5,0,0.4-0.1
				c-0.4,0.1-0.7,0.1-0.6-0.1c0,0.1,0.7-0.2,0.5,0c0.1,0.1,0.1-0.1,0.3-0.1c0-0.1-0.3,0.1-0.3-0.1c-0.2,0-0.2,0.1-0.1,0.1
				c-0.4,0,0.1-0.2-0.4-0.2c0.1-0.1,0.3-0.1,0.4-0.1c-0.4,0.1,0.4,0.2,0.3,0c-0.1,0-0.1,0-0.1,0c-0.1,0,0,0,0,0c0-0.1-0.2,0-0.3,0
				c-0.1-0.1,0.2-0.1,0.2-0.2C43.3,45.5,43.1,45.4,42.8,45.5z"/>
			<path class="st25" d="M41.6,45.8C41.6,45.7,41.5,45.8,41.6,45.8c-0.3-0.1-0.4-0.2-0.6,0C41.2,45.7,41.4,45.9,41.6,45.8z"/>
			<path class="st25" d="M44.8,46c-0.2-0.1,0.5,0.2,0,0.2c0.2,0.2,0.2-0.2,0.3,0c0.2,0-0.1-0.2,0.3-0.1C45.3,45.9,45,46,44.8,46z"/>
			<path class="st25" d="M45.4,46.6c0.1,0,0.2,0,0.4,0c0.2,0-0.1-0.1-0.2,0c-0.1,0-0.2-0.1-0.2-0.1c-0.2,0.1-0.1,0-0.4,0.1
				C45.1,46.6,45.5,46.3,45.4,46.6z"/>
		</g>
		<g>
			<path class="st25" d="M45,44.6c0.3-0.1,0.4,0.1,0.7,0C45.7,44.5,45,44.4,45,44.6z"/>
			<path class="st25" d="M49.6,45c-0.2,0.1-0.1,0-0.4,0c0,0.1,0.1,0.1,0.2,0.1c-0.2,0.1,0.1,0.1,0.2,0.2c0.2,0,0.1-0.1-0.1-0.1
				C49.6,45.1,49.7,45.1,49.6,45z"/>
			<path class="st25" d="M48.7,45.6c0,0,0.1,0,0.2,0C48.8,45.7,48.7,45.6,48.7,45.6c0.4,0.3,0.6,0,1.2,0.1
				C49.4,45.4,49.2,45.6,48.7,45.6z"/>
			<path class="st25" d="M48.3,44c0.1,0.1,0.3,0,0.4,0.1c-0.4,0.2-0.5-0.2-0.6-0.1c0.1,0.2-0.3,0.2-0.4,0.3c0,0.1,0.6,0,0.5-0.1
				c0.2,0.1,0.5,0.3,0.2,0.4c-0.2,0,0.1-0.1-0.1-0.1c-0.2,0-0.5-0.1-0.4,0.1c0.3,0,0.2,0.1,0.4,0c-0.2,0.1-0.6-0.1-1,0
				c0,0.1,0.2,0.1,0.2,0.1c-0.2-0.1-0.4-0.1-0.3,0c-0.2,0-0.3-0.2,0-0.1c-0.4-0.1-1,0-1.1,0.1c-0.2,0-0.1-0.2-0.4-0.1
				c0,0.1,0.1,0.1,0.3,0.1c-0.1,0.1-0.2,0.2-0.4,0.1c0,0.1,0,0.2-0.2,0.2c0.4,0.1,0.8-0.2,1.2-0.3c0.2,0.2,0.5,0.1,1,0.2
				c0,0.1-0.1,0.1-0.3,0.1c0,0.1,0.2,0,0.2,0c0.3-0.1,0.1-0.1,0.2-0.3c-0.1,0-0.1,0.1-0.3,0c0.1,0,0.2-0.1,0.3-0.1
				c0.2,0.1,0.4,0.1,0.4,0.3c0,0.1-0.3,0.1-0.3,0c-0.1,0,0.1,0.1-0.1,0.1c0.1,0,0.2,0,0.5,0c-0.2-0.1-0.2-0.2,0.2-0.1
				c0-0.1-0.2-0.1-0.4-0.1c0.2-0.1,0-0.1-0.1-0.1c0,0,0.1,0,0.1-0.1c0.1,0,0.1,0.1,0.2,0c0.1,0.2,0.3,0.3,0.7,0.3
				c-0.2,0.1-0.5,0-0.6,0.1c0,0.1,0.5,0,0.5,0.1c0.1,0,0-0.1,0.2-0.1c-0.1-0.1-0.3-0.1-0.4-0.2c0-0.1,0.5,0,0.4-0.1
				c-0.4,0.1-0.7,0.1-0.6-0.1c0,0.1,0.7-0.2,0.5,0c0.1,0.1,0.1-0.1,0.3-0.1c0-0.1-0.3,0.1-0.3-0.1c-0.2,0-0.2,0.1-0.1,0.1
				c-0.4,0,0.1-0.2-0.4-0.2c0.1-0.1,0.3-0.1,0.4-0.1c-0.4,0.1,0.4,0.2,0.3,0c-0.1,0-0.1,0-0.1,0c-0.1,0,0,0,0,0c0-0.1-0.2,0-0.3,0
				c-0.1-0.1,0.2-0.1,0.2-0.2C48.8,44,48.6,43.9,48.3,44z"/>
			<path class="st25" d="M47.2,44.3C47.1,44.3,47.1,44.3,47.2,44.3c-0.3-0.1-0.4-0.2-0.6,0C46.7,44.3,46.9,44.4,47.2,44.3z"/>
			<path class="st25" d="M50.4,44.5c-0.2-0.1,0.5,0.2,0,0.2c0.2,0.2,0.2-0.2,0.3,0c0.2,0-0.1-0.2,0.3-0.1
				C50.9,44.4,50.5,44.5,50.4,44.5z"/>
			<path class="st25" d="M51,45.1c0.1,0,0.2,0,0.4,0c0.2,0-0.1-0.1-0.2,0C51,45,51,45,51,44.9c-0.2,0.1-0.1,0-0.4,0.1
				C50.7,45.2,51.1,44.9,51,45.1z"/>
			<path class="st25" d="M49.2,46.1c0.3,0,0.6-0.1,0.4,0c0,0,0,0,0.1,0c0.1,0,0.1,0,0.2,0c0-0.1-0.1-0.1-0.1-0.1
				c0.3,0.1,0.2-0.2,0.5,0c0.2-0.1,0.1-0.2,0.4-0.1c0-0.2-0.1-0.2-0.4-0.2c-0.1,0.3,0-0.2-0.4-0.1c0.3,0.1,0,0.1-0.1,0.3
				c-0.1-0.1-0.2-0.2-0.4-0.1C49.2,46.1,49.5,45.8,49.2,46.1z"/>
			<path class="st25" d="M51.7,45.8c0-0.1-0.2,0.1-0.3-0.1c-0.1,0,0,0.1-0.2,0.1C51.2,46,51.6,45.7,51.7,45.8
				C51.7,46,51.7,45.8,51.7,45.8C51.6,45.8,51.6,45.8,51.7,45.8z"/>
			<path class="st25" d="M50.4,46.2c-0.3,0,0.1,0.1,0.1,0.1c0.2,0,0.2-0.2,0.2-0.3C50.6,46.1,50.5,46.1,50.4,46.2
				C50.5,46.2,50.4,46.2,50.4,46.2z"/>
		</g>
	</g>
	<g>
		<g>
			<path class="st25" d="M43.3,45.8c0.3-0.1,0.4,0.1,0.7,0C44,45.7,43.3,45.6,43.3,45.8z"/>
			<path class="st25" d="M47.9,46.2c-0.2,0.1-0.1,0-0.4,0c0,0.1,0.1,0.1,0.2,0.1c-0.2,0.1,0.1,0.1,0.2,0.2c0.2,0,0.1-0.1-0.1-0.1
				C47.9,46.4,47.9,46.3,47.9,46.2z"/>
			<path class="st25" d="M47,46.8c0,0,0.1,0,0.2,0C47.1,46.9,47,46.9,47,46.8c0.4,0.3,0.6,0,1.2,0.1C47.7,46.6,47.5,46.9,47,46.8z"
				/>
			<path class="st25" d="M46.6,45.2c0.1,0.1,0.3,0,0.4,0.1c-0.4,0.2-0.5-0.2-0.6-0.1c0.1,0.2-0.3,0.2-0.4,0.3c0,0.1,0.6,0,0.5-0.1
				c0.2,0.1,0.4,0.3,0.2,0.4c-0.2,0,0.1-0.1-0.1-0.1c-0.2,0-0.5-0.1-0.4,0.1c0.3,0,0.2,0.1,0.4,0c-0.2,0.1-0.6-0.1-1,0
				c0,0.1,0.2,0.1,0.2,0.1c-0.2-0.1-0.4-0.1-0.3,0c-0.2,0-0.3-0.2,0-0.1c-0.4-0.1-1,0-1.1,0.1c-0.2,0-0.1-0.2-0.4-0.1
				c0,0.1,0.1,0.1,0.3,0.1c-0.1,0.1-0.2,0.2-0.4,0.1c0,0.1,0,0.2-0.2,0.2c0.4,0.1,0.8-0.2,1.2-0.3c0.2,0.2,0.5,0.1,1,0.2
				c0,0.1-0.1,0.1-0.3,0.1c0,0.1,0.2,0,0.2,0c0.3-0.1,0.1-0.1,0.2-0.3c-0.1,0-0.1,0-0.3,0c0.1,0,0.2-0.1,0.3-0.1
				c0.2,0.1,0.4,0.1,0.4,0.3c0,0.1-0.3,0.1-0.3,0c-0.1,0,0.1,0.1-0.1,0.1c0.1,0,0.2,0,0.5,0c-0.2-0.1-0.2-0.2,0.2-0.1
				c0-0.1-0.2-0.1-0.4-0.1c0.2-0.1,0-0.1-0.1-0.1c0,0,0.1,0,0.1-0.1c0.1,0,0.1,0.1,0.2,0c0.1,0.2,0.3,0.3,0.7,0.3
				c-0.2,0.1-0.5,0-0.6,0.1c0,0.1,0.5,0,0.5,0.1c0.1,0,0-0.1,0.2-0.1c-0.1-0.1-0.3-0.1-0.4-0.2c0-0.1,0.5,0,0.4-0.1
				c-0.4,0.1-0.7,0.1-0.6-0.1c0,0.1,0.7-0.2,0.5,0c0.1,0.1,0.1-0.1,0.3-0.1c0-0.1-0.3,0.1-0.3-0.1c-0.2,0-0.2,0.1-0.1,0.1
				c-0.4,0,0.1-0.2-0.4-0.2c0.1-0.1,0.3-0.1,0.4-0.1c-0.4,0.1,0.4,0.2,0.3,0c-0.1,0-0.1,0-0.1,0c-0.1,0,0,0,0,0c0-0.1-0.2,0-0.3,0
				c-0.1-0.1,0.2-0.1,0.2-0.2C47.1,45.2,46.9,45.1,46.6,45.2z"/>
			<path class="st25" d="M45.4,45.5C45.4,45.5,45.4,45.5,45.4,45.5c-0.3-0.1-0.4-0.2-0.6,0C45,45.5,45.2,45.6,45.4,45.5z"/>
			<path class="st25" d="M48.6,45.7c-0.2-0.1,0.5,0.2,0,0.2c0.2,0.2,0.2-0.2,0.3,0c0.2,0-0.1-0.2,0.3-0.1
				C49.2,45.7,48.8,45.8,48.6,45.7z"/>
			<path class="st25" d="M49.3,46.3c0.1,0,0.2,0,0.4,0c0.2,0-0.1-0.1-0.2,0c-0.1,0-0.2-0.1-0.2-0.1c-0.2,0.1-0.1,0-0.4,0.1
				C49,46.4,49.4,46.1,49.3,46.3z"/>
			<path class="st25" d="M47.5,47.4c0.3,0,0.6-0.1,0.4,0c0,0,0,0,0.1,0c0.1,0,0.1,0,0.2,0c0-0.1-0.1-0.1-0.1-0.1
				c0.3,0.1,0.2-0.2,0.5,0c0.2-0.1,0.1-0.2,0.4-0.1c0-0.2-0.1-0.2-0.4-0.2c-0.1,0.3,0-0.2-0.4-0.1c0.3,0.1,0,0.1-0.1,0.3
				c-0.1-0.1-0.2-0.2-0.4-0.1C47.5,47.3,47.8,47.1,47.5,47.4z"/>
			<path class="st25" d="M50,47c0-0.1-0.2,0.1-0.3-0.1c-0.1,0,0,0.1-0.2,0.1C49.5,47.2,49.9,47,50,47C49.9,47.2,50,47.1,50,47
				C49.9,47,49.9,47,50,47z"/>
			<path class="st25" d="M48.7,47.4c-0.3,0,0.1,0.1,0.1,0.1c0.2,0,0.2-0.2,0.2-0.3C48.8,47.3,48.8,47.4,48.7,47.4
				C48.7,47.5,48.7,47.4,48.7,47.4z"/>
		</g>
		<g>
			<path class="st25" d="M40.6,46.7c0.3-0.1,0.4,0.1,0.7,0C41.3,46.6,40.6,46.5,40.6,46.7z"/>
			<path class="st25" d="M45.3,47.1c-0.2,0.1-0.1,0-0.4,0c0,0.1,0.1,0.1,0.2,0.1c-0.2,0.1,0.1,0.1,0.2,0.2c0.2,0,0.1-0.1-0.1-0.1
				C45.2,47.2,45.3,47.2,45.3,47.1z"/>
			<path class="st25" d="M43.9,46.1c0.1,0.1,0.3,0,0.4,0.1c-0.4,0.2-0.5-0.2-0.6-0.1c0.1,0.2-0.3,0.2-0.4,0.3c0,0.1,0.6,0,0.5-0.1
				c0.2,0.1,0.4,0.3,0.2,0.4c-0.2,0,0.1-0.1-0.1-0.1c-0.2,0-0.5-0.1-0.4,0.1c0.3,0,0.2,0.1,0.4,0c-0.2,0.1-0.6-0.1-1,0
				c0,0.1,0.2,0.1,0.2,0.1c-0.2-0.1-0.4-0.1-0.3,0c-0.2,0-0.3-0.2,0-0.1c-0.4-0.1-1,0-1.1,0.1c-0.2,0-0.1-0.2-0.4-0.1
				c0,0.1,0.1,0.1,0.3,0.1c-0.1,0.1-0.2,0.2-0.4,0.1c0,0.1,0,0.2-0.2,0.2c0.4,0.1,0.8-0.2,1.2-0.3c0.2,0.2,0.5,0.1,1,0.2
				c0,0.1-0.1,0.1-0.3,0.1c0,0.1,0.2,0,0.2,0c0.3-0.1,0.1-0.1,0.2-0.3c-0.1,0-0.1,0-0.3,0c0.1,0,0.2-0.1,0.3-0.1
				c0.2,0.1,0.4,0.1,0.4,0.3c0,0.1-0.3,0.1-0.3,0c-0.1,0,0.1,0.1-0.1,0.1c0.1,0,0.2,0,0.5,0c-0.2-0.1-0.2-0.2,0.2-0.1
				c0-0.1-0.2-0.1-0.4-0.1c0.2-0.1,0-0.1-0.1-0.1c0,0,0.1,0,0.1-0.1c0.1,0,0.1,0.1,0.2,0c0.1,0.2,0.3,0.3,0.7,0.3
				c-0.2,0.1-0.5,0-0.6,0.1c0,0.1,0.5,0,0.5,0.1c0.1,0,0-0.1,0.2-0.1c-0.1-0.1-0.3-0.1-0.4-0.2c0-0.1,0.5,0,0.4-0.1
				c-0.4,0.1-0.7,0.1-0.6-0.1c0,0.1,0.7-0.2,0.5,0c0.1,0.1,0.1-0.1,0.3-0.1c0-0.1-0.3,0.1-0.3-0.1c-0.2,0-0.2,0.1-0.1,0.1
				c-0.4,0,0.1-0.2-0.4-0.2c0.1-0.1,0.3-0.1,0.4-0.1c-0.4,0.1,0.4,0.2,0.3,0c-0.1,0-0.1,0-0.1,0c-0.1,0,0,0,0,0c0-0.1-0.2,0-0.3,0
				c-0.1-0.1,0.2-0.1,0.2-0.2C44.4,46.1,44.2,46,43.9,46.1z"/>
			<path class="st25" d="M42.8,46.4C42.8,46.4,42.7,46.4,42.8,46.4c-0.3-0.1-0.4-0.2-0.6,0C42.3,46.4,42.5,46.5,42.8,46.4z"/>
			<path class="st25" d="M46,46.6c-0.2-0.1,0.5,0.2,0,0.2c0.2,0.2,0.2-0.2,0.3,0c0.2,0-0.1-0.2,0.3-0.1C46.5,46.6,46.1,46.6,46,46.6
				z"/>
			<path class="st25" d="M46.6,47.2c0.1,0,0.2,0,0.4,0c0.2,0-0.1-0.1-0.2,0c-0.1,0-0.2-0.1-0.2-0.1c-0.2,0.1-0.1,0-0.4,0.1
				C46.3,47.3,46.7,47,46.6,47.2z"/>
		</g>
		<g>
			<path class="st25" d="M46.2,45.2c0.3-0.1,0.4,0.1,0.7,0C46.9,45.2,46.1,45.1,46.2,45.2z"/>
			<path class="st25" d="M50.8,45.6c-0.2,0.1-0.1,0-0.4,0c0,0.1,0.1,0.1,0.2,0.1c-0.2,0.1,0.1,0.1,0.2,0.2c0.2,0,0.1-0.1-0.1-0.1
				C50.8,45.8,50.8,45.7,50.8,45.6z"/>
			<path class="st25" d="M49.8,46.2c0,0,0.1,0,0.2,0C50,46.3,49.9,46.3,49.8,46.2c0.4,0.3,0.6,0,1.2,0.1
				C50.6,46.1,50.4,46.3,49.8,46.2z"/>
			<path class="st25" d="M49.5,44.7c0.1,0.1,0.3,0,0.4,0.1c-0.4,0.2-0.5-0.2-0.6-0.1c0.1,0.2-0.3,0.2-0.4,0.3c0,0.1,0.6,0,0.5-0.1
				c0.2,0.1,0.5,0.3,0.2,0.4c-0.2,0,0.1-0.1-0.1-0.1c-0.2,0-0.5-0.1-0.4,0.1c0.3,0,0.2,0.1,0.4,0c-0.2,0.1-0.6-0.1-1,0
				c0,0.1,0.2,0.1,0.2,0.1c-0.2-0.1-0.4-0.1-0.3,0c-0.2,0-0.3-0.2,0-0.1c-0.4-0.1-1,0-1.1,0.1c-0.2,0-0.1-0.2-0.4-0.1
				c0,0.1,0.1,0.1,0.3,0.1c-0.1,0.1-0.2,0.2-0.4,0.1c0,0.1,0,0.2-0.2,0.2c0.4,0.1,0.8-0.2,1.2-0.3c0.2,0.2,0.5,0.1,1,0.2
				c0,0.1-0.1,0.1-0.3,0.1c0,0.1,0.2,0,0.2,0c0.3-0.1,0.1-0.1,0.2-0.3c-0.1,0-0.1,0.1-0.3,0c0.1,0,0.2-0.1,0.3-0.1
				c0.2,0.1,0.4,0.1,0.4,0.3c0,0.1-0.3,0.1-0.3,0c-0.1,0,0.1,0.1-0.1,0.1c0.1,0,0.2,0,0.5,0c-0.2-0.1-0.2-0.2,0.2-0.1
				c0-0.1-0.2-0.1-0.4-0.1c0.2-0.1,0-0.1-0.1-0.1c0,0,0.1,0,0.1-0.1c0.1,0,0.1,0.1,0.2,0c0.1,0.2,0.3,0.3,0.7,0.3
				c-0.2,0.1-0.5,0-0.6,0.1c0,0.1,0.5,0,0.5,0.1c0.1,0,0-0.1,0.2-0.1c-0.1-0.1-0.3-0.1-0.4-0.2c0-0.1,0.5,0,0.4-0.1
				c-0.4,0.1-0.7,0.1-0.6-0.1c0,0.1,0.7-0.2,0.5,0c0.1,0.1,0.1-0.1,0.3-0.1c0-0.1-0.3,0.1-0.3-0.1c-0.2,0-0.2,0.1-0.1,0.1
				c-0.4,0,0.1-0.2-0.4-0.2c0.1-0.1,0.3-0.1,0.4-0.1c-0.4,0.1,0.4,0.2,0.3,0c-0.1,0-0.1,0-0.1,0c-0.1,0,0,0,0,0c0-0.1-0.2,0-0.3,0
				c-0.1-0.1,0.2-0.1,0.2-0.2C50,44.7,49.7,44.5,49.5,44.7z"/>
			<path class="st25" d="M48.3,45C48.3,44.9,48.2,44.9,48.3,45c-0.3-0.1-0.4-0.2-0.6,0C47.9,44.9,48,45,48.3,45z"/>
			<path class="st25" d="M51.5,45.1c-0.2-0.1,0.5,0.2,0,0.2c0.2,0.2,0.2-0.2,0.3,0c0.2,0-0.1-0.2,0.3-0.1
				C52,45.1,51.6,45.2,51.5,45.1z"/>
			<path class="st25" d="M52.1,45.7c0.1,0,0.2,0,0.4,0c0.2,0-0.1-0.1-0.2,0c-0.1,0-0.2-0.1-0.2-0.1c-0.2,0.1-0.1,0-0.4,0.1
				C51.8,45.8,52.2,45.5,52.1,45.7z"/>
			<path class="st25" d="M50.3,46.8c0.3,0,0.6-0.1,0.4,0c0,0,0,0,0.1,0c0.1,0,0.1,0,0.2,0c0-0.1-0.1-0.1-0.1-0.1
				c0.3,0.1,0.2-0.2,0.5,0c0.2-0.1,0.1-0.2,0.4-0.1c0-0.2-0.1-0.2-0.4-0.2c-0.1,0.3,0-0.2-0.4-0.1c0.3,0.1,0,0.1-0.1,0.3
				c-0.1-0.1-0.2-0.2-0.4-0.1C50.3,46.7,50.7,46.5,50.3,46.8z"/>
			<path class="st25" d="M52.8,46.4c0-0.1-0.2,0.1-0.3-0.1c-0.1,0,0,0.1-0.2,0.1C52.3,46.6,52.7,46.4,52.8,46.4
				C52.8,46.6,52.9,46.5,52.8,46.4C52.7,46.5,52.8,46.5,52.8,46.4z"/>
			<path class="st25" d="M51.6,46.8c-0.3,0,0.1,0.1,0.1,0.1c0.2,0,0.2-0.2,0.2-0.3C51.7,46.7,51.6,46.8,51.6,46.8
				C51.6,46.9,51.6,46.9,51.6,46.8z"/>
		</g>
	</g>
	<g>
		<g>
			<path class="st25" d="M48.7,34.8c0.3-0.1,0.4,0.1,0.7,0C49.3,34.7,48.6,34.6,48.7,34.8z"/>
			<path class="st25" d="M53.3,35.2c-0.2,0.1-0.1,0-0.4,0c0,0.1,0.1,0.1,0.2,0.1c-0.2,0.1,0.1,0.1,0.2,0.2c0.2,0,0.1-0.1-0.1-0.1
				C53.2,35.3,53.3,35.3,53.3,35.2z"/>
			<path class="st25" d="M52.3,35.8c0,0,0.1,0,0.2,0C52.5,35.9,52.4,35.9,52.3,35.8c0.4,0.3,0.6,0,1.2,0.1
				C53,35.6,52.9,35.8,52.3,35.8z"/>
			<path class="st25" d="M51.9,34.2c0.1,0.1,0.3,0,0.4,0.1c-0.4,0.2-0.5-0.2-0.6-0.1c0.1,0.2-0.3,0.2-0.4,0.3c0,0.1,0.6,0,0.5-0.1
				c0.2,0.1,0.5,0.3,0.2,0.4c-0.2,0,0.1-0.1-0.1-0.1c-0.2,0-0.5-0.1-0.4,0.1c0.3,0,0.2,0.1,0.4,0c-0.2,0.1-0.6-0.1-1,0
				c0,0.1,0.2,0.1,0.2,0.1c-0.2-0.1-0.4-0.1-0.3,0c-0.2,0-0.3-0.2,0-0.1c-0.4-0.1-1,0-1.1,0.1c-0.2,0-0.1-0.2-0.4-0.1
				c0,0.1,0.1,0.1,0.3,0.1c-0.1,0.1-0.2,0.2-0.4,0.1c0,0.1,0,0.2-0.2,0.2c0.4,0.1,0.8-0.2,1.2-0.3c0.2,0.2,0.5,0.1,1,0.2
				c0,0.1-0.1,0.1-0.3,0.1c0,0.1,0.2,0,0.2,0c0.3-0.1,0.1-0.1,0.2-0.3c-0.1,0-0.1,0-0.3,0c0.1,0,0.2-0.1,0.3-0.1
				c0.2,0.1,0.4,0.1,0.4,0.3c0,0.1-0.3,0.1-0.3,0c-0.1,0,0.1,0.1-0.1,0.1c0.1,0,0.2,0,0.5,0c-0.2-0.1-0.2-0.2,0.2-0.1
				c0-0.1-0.2-0.1-0.4-0.1c0.2-0.1,0-0.1-0.1-0.1c0,0,0.1,0,0.1-0.1c0.1,0,0.1,0.1,0.2,0c0.1,0.2,0.3,0.3,0.7,0.3
				c-0.2,0.1-0.5,0-0.6,0.1c0,0.1,0.5,0,0.5,0.1c0.1,0,0-0.1,0.2-0.1c-0.1-0.1-0.3-0.1-0.4-0.2c0-0.1,0.5,0,0.4-0.1
				c-0.4,0.1-0.7,0.1-0.6-0.1c0,0.1,0.7-0.2,0.5,0c0.1,0.1,0.1-0.1,0.3-0.1c0-0.1-0.3,0.1-0.3-0.1c-0.2,0-0.2,0.1-0.1,0.1
				c-0.4,0,0.1-0.2-0.4-0.2c0.1-0.1,0.3-0.1,0.4-0.1c-0.4,0.1,0.4,0.2,0.3,0c-0.1,0-0.1,0-0.1,0c-0.1,0,0,0,0,0c0-0.1-0.2,0-0.3,0
				c-0.1-0.1,0.2-0.1,0.2-0.2C52.4,34.2,52.2,34.1,51.9,34.2z"/>
			<path class="st25" d="M50.8,34.5C50.8,34.5,50.7,34.5,50.8,34.5c-0.3-0.1-0.4-0.2-0.6,0C50.4,34.5,50.5,34.6,50.8,34.5z"/>
			<path class="st25" d="M54,34.7c-0.2-0.1,0.5,0.2,0,0.2c0.2,0.2,0.2-0.2,0.3,0c0.2,0-0.1-0.2,0.3-0.1C54.5,34.7,54.1,34.7,54,34.7
				z"/>
			<path class="st25" d="M54.6,35.3c0.1,0,0.2,0,0.4,0c0.2,0-0.1-0.1-0.2,0c-0.1,0-0.2-0.1-0.2-0.1c-0.2,0.1-0.1,0-0.4,0.1
				C54.3,35.4,54.7,35.1,54.6,35.3z"/>
			<path class="st25" d="M52.8,36.4c0.3,0,0.6-0.1,0.4,0c0,0,0,0,0.1,0c0.1,0,0.1,0,0.2,0c0-0.1-0.1-0.1-0.1-0.1
				c0.3,0.1,0.2-0.2,0.5,0c0.2-0.1,0.1-0.2,0.4-0.1c0-0.2-0.1-0.2-0.4-0.2c-0.1,0.3,0-0.2-0.4-0.1c0.3,0.1,0,0.1-0.1,0.3
				c-0.1-0.1-0.2-0.2-0.4-0.1C52.8,36.3,53.2,36,52.8,36.4z"/>
			<path class="st25" d="M55.3,36c0-0.1-0.2,0.1-0.3-0.1c-0.1,0,0,0.1-0.2,0.1C54.8,36.2,55.2,35.9,55.3,36
				C55.3,36.2,55.4,36.1,55.3,36C55.2,36,55.3,36,55.3,36z"/>
			<path class="st25" d="M54.1,36.4c-0.3,0,0.1,0.1,0.1,0.1c0.2,0,0.2-0.2,0.2-0.3C54.2,36.3,54.1,36.3,54.1,36.4
				C54.1,36.5,54.1,36.4,54.1,36.4z"/>
		</g>
		<g>
			<path class="st25" d="M46,35.7c0.3-0.1,0.4,0.1,0.7,0C46.7,35.6,45.9,35.5,46,35.7z"/>
			<path class="st25" d="M50.6,36.1c-0.2,0.1-0.1,0-0.4,0c0,0.1,0.1,0.1,0.2,0.1c-0.2,0.1,0.1,0.1,0.2,0.2c0.2,0,0.1-0.1-0.1-0.1
				C50.6,36.2,50.6,36.2,50.6,36.1z"/>
			<path class="st25" d="M49.3,35.1c0.1,0.1,0.3,0,0.4,0.1c-0.4,0.2-0.5-0.2-0.6-0.1c0.1,0.2-0.3,0.2-0.4,0.3c0,0.1,0.6,0,0.5-0.1
				c0.2,0.1,0.4,0.3,0.2,0.4c-0.2,0,0.1-0.1-0.1-0.1c-0.2,0-0.5-0.1-0.4,0.1c0.3,0,0.2,0.1,0.4,0c-0.2,0.1-0.6-0.1-1,0
				c0,0.1,0.2,0.1,0.2,0.1c-0.2-0.1-0.4-0.1-0.3,0c-0.2,0-0.3-0.2,0-0.1c-0.4-0.1-1,0-1.1,0.1c-0.2,0-0.1-0.2-0.4-0.1
				c0,0.1,0.1,0.1,0.3,0.1c-0.1,0.1-0.2,0.2-0.4,0.1c0,0.1,0,0.2-0.2,0.2c0.4,0.1,0.8-0.2,1.2-0.3c0.2,0.2,0.5,0.1,1,0.2
				c0,0.1-0.1,0.1-0.3,0.1c0,0.1,0.2,0,0.2,0c0.3-0.1,0.1-0.1,0.2-0.3c-0.1,0-0.1,0-0.3,0c0.1,0,0.2-0.1,0.3-0.1
				c0.2,0.1,0.4,0.1,0.4,0.3c0,0.1-0.3,0.1-0.3,0c-0.1,0,0.1,0.1-0.1,0.1c0.1,0,0.2,0,0.5,0c-0.2-0.1-0.2-0.2,0.2-0.1
				c0-0.1-0.2-0.1-0.4-0.1c0.2-0.1,0-0.1-0.1-0.1c0,0,0.1,0,0.1-0.1c0.1,0,0.1,0.1,0.2,0c0.1,0.2,0.3,0.3,0.7,0.3
				c-0.2,0.1-0.5,0-0.6,0.1c0,0.1,0.5,0,0.5,0.1c0.1,0,0-0.1,0.2-0.1c-0.1-0.1-0.3-0.1-0.4-0.2c0-0.1,0.5,0,0.4-0.1
				c-0.4,0.1-0.7,0.1-0.6-0.1c0,0.1,0.7-0.2,0.5,0c0.1,0.1,0.1-0.1,0.3-0.1c0-0.1-0.3,0.1-0.3-0.1c-0.2,0-0.2,0.1-0.1,0.1
				c-0.4,0,0.1-0.2-0.4-0.2c0.1-0.1,0.3-0.1,0.4-0.1c-0.4,0.1,0.4,0.2,0.3,0c-0.1,0-0.1,0-0.1,0c-0.1,0,0,0,0,0c0-0.1-0.2,0-0.3,0
				c-0.1-0.1,0.2-0.1,0.2-0.2C49.8,35.1,49.5,35,49.3,35.1z"/>
			<path class="st25" d="M48.1,35.4C48.1,35.4,48,35.4,48.1,35.4c-0.3-0.1-0.4-0.2-0.6,0C47.7,35.4,47.8,35.5,48.1,35.4z"/>
			<path class="st25" d="M51.3,35.6c-0.2-0.1,0.5,0.2,0,0.2c0.2,0.2,0.2-0.2,0.3,0c0.2,0-0.1-0.2,0.3-0.1
				C51.8,35.5,51.5,35.6,51.3,35.6z"/>
			<path class="st25" d="M51.9,36.2c0.1,0,0.2,0,0.4,0c0.2,0-0.1-0.1-0.2,0c-0.1,0-0.2-0.1-0.2-0.1c-0.2,0.1-0.1,0-0.4,0.1
				C51.6,36.3,52,36,51.9,36.2z"/>
		</g>
		<g>
			<path class="st25" d="M51.5,34.2c0.3-0.1,0.4,0.1,0.7,0C52.2,34.1,51.5,34,51.5,34.2z"/>
			<path class="st25" d="M56.1,34.6c-0.2,0.1-0.1,0-0.4,0c0,0.1,0.1,0.1,0.2,0.1c-0.2,0.1,0.1,0.1,0.2,0.2c0.2,0,0.1-0.1-0.1-0.1
				C56.1,34.8,56.1,34.7,56.1,34.6z"/>
			<path class="st25" d="M55.1,35.2c0,0,0.1,0,0.2,0C55.3,35.3,55.2,35.3,55.1,35.2c0.4,0.3,0.6,0,1.2,0.1
				C55.9,35.1,55.7,35.3,55.1,35.2z"/>
			<path class="st25" d="M54.8,33.7c0.1,0.1,0.3,0,0.4,0.1c-0.4,0.2-0.5-0.2-0.6-0.1c0.1,0.2-0.3,0.2-0.4,0.3c0,0.1,0.6,0,0.5-0.1
				c0.2,0.1,0.4,0.3,0.2,0.4c-0.2,0,0.1-0.1-0.1-0.1c-0.2,0-0.5-0.1-0.4,0.1c0.3,0,0.2,0.1,0.4,0c-0.2,0.1-0.6-0.1-1,0
				c0,0.1,0.2,0.1,0.2,0.1c-0.2-0.1-0.4-0.1-0.3,0c-0.2,0-0.3-0.2,0-0.1c-0.4-0.1-1,0-1.1,0.1c-0.2,0-0.1-0.2-0.4-0.1
				c0,0.1,0.1,0.1,0.3,0.1c-0.1,0.1-0.2,0.2-0.4,0.1c0,0.1,0,0.2-0.2,0.2c0.4,0.1,0.8-0.2,1.2-0.3c0.2,0.2,0.5,0.1,1,0.2
				c0,0.1-0.1,0.1-0.3,0.1c0,0.1,0.2,0,0.2,0c0.3-0.1,0.1-0.1,0.2-0.3c-0.1,0-0.1,0.1-0.3,0c0.1,0,0.2-0.1,0.3-0.1
				c0.2,0.1,0.4,0.1,0.4,0.3c0,0.1-0.3,0.1-0.3,0c-0.1,0,0.1,0.1-0.1,0.1c0.1,0,0.2,0,0.5,0c-0.2-0.1-0.2-0.2,0.2-0.1
				c0-0.1-0.2-0.1-0.4-0.1c0.2-0.1,0-0.1-0.1-0.1c0,0,0.1,0,0.1-0.1c0.1,0,0.1,0.1,0.2,0c0.1,0.2,0.3,0.3,0.7,0.3
				c-0.2,0.1-0.5,0-0.6,0.1c0,0.1,0.5,0,0.5,0.1c0.1,0,0-0.1,0.2-0.1c-0.1-0.1-0.3-0.1-0.4-0.2c0-0.1,0.5,0,0.4-0.1
				c-0.4,0.1-0.7,0.1-0.6-0.1c0,0.1,0.7-0.2,0.5,0c0.1,0.1,0.1-0.1,0.3-0.1c0-0.1-0.3,0.1-0.3-0.1c-0.2,0-0.2,0.1-0.1,0.1
				c-0.4,0,0.1-0.2-0.4-0.2c0.1-0.1,0.3-0.1,0.4-0.1c-0.4,0.1,0.4,0.2,0.3,0c-0.1,0-0.1,0-0.1,0c-0.1,0,0,0,0,0c0-0.1-0.2,0-0.3,0
				c-0.1-0.1,0.2-0.1,0.2-0.2C55.3,33.6,55.1,33.5,54.8,33.7z"/>
			<path class="st25" d="M53.6,33.9C53.6,33.9,53.5,33.9,53.6,33.9c-0.3-0.1-0.4-0.2-0.6,0C53.2,33.9,53.4,34,53.6,33.9z"/>
			<path class="st25" d="M56.8,34.1c-0.2-0.1,0.5,0.2,0,0.2c0.2,0.2,0.2-0.2,0.3,0c0.2,0-0.1-0.2,0.3-0.1
				C57.3,34.1,57,34.2,56.8,34.1z"/>
			<path class="st25" d="M57.4,34.7c0.1,0,0.2,0,0.4,0c0.2,0-0.1-0.1-0.2,0c-0.1,0-0.2-0.1-0.2-0.1c-0.2,0.1-0.1,0-0.4,0.1
				C57.1,34.8,57.5,34.5,57.4,34.7z"/>
			<path class="st25" d="M55.7,35.8c0.3,0,0.6-0.1,0.4,0c0,0,0,0,0.1,0c0.1,0,0.1,0,0.2,0c0-0.1-0.1-0.1-0.1-0.1
				c0.3,0.1,0.2-0.2,0.5,0c0.2-0.1,0.1-0.2,0.4-0.1c0-0.2-0.1-0.2-0.4-0.2c-0.1,0.3,0-0.2-0.4-0.1c0.3,0.1,0,0.1-0.1,0.3
				c-0.1-0.1-0.2-0.2-0.4-0.1C55.6,35.7,56,35.5,55.7,35.8z"/>
			<path class="st25" d="M58.2,35.4c0-0.1-0.2,0.1-0.3-0.1c-0.1,0,0,0.1-0.2,0.1C57.7,35.6,58,35.4,58.2,35.4
				C58.1,35.6,58.2,35.5,58.2,35.4C58.1,35.4,58.1,35.4,58.2,35.4z"/>
			<path class="st25" d="M56.9,35.8c-0.3,0,0.1,0.1,0.1,0.1c0.2,0,0.2-0.2,0.2-0.3C57,35.7,57,35.8,56.9,35.8
				C56.9,35.9,56.9,35.9,56.9,35.8z"/>
		</g>
	</g>
	<g>
		<g>
			<path class="st24" d="M55.6,34.8c-0.3-0.1-0.4,0.1-0.7,0C54.9,34.7,55.6,34.6,55.6,34.8z"/>
			<path class="st24" d="M51,35.2c0.2,0.1,0.1,0,0.4,0c0,0.1-0.1,0.1-0.2,0.1c0.2,0.1-0.1,0.1-0.2,0.2c-0.1,0-0.1-0.1,0.1-0.1
				C51,35.3,51,35.3,51,35.2z"/>
			<path class="st24" d="M51.9,35.8c0,0-0.1,0-0.2,0C51.8,35.9,51.9,35.9,51.9,35.8c-0.4,0.3-0.6,0-1.1,0.1
				C51.2,35.6,51.4,35.8,51.9,35.8z"/>
			<path class="st24" d="M52.3,34.2c-0.1,0.1-0.3,0-0.4,0.1c0.4,0.2,0.5-0.2,0.6-0.1c-0.1,0.2,0.3,0.2,0.4,0.3c0,0.1-0.6,0-0.5-0.1
				c-0.2,0.1-0.4,0.3-0.2,0.4c0.2,0-0.1-0.1,0.1-0.1c0.2,0,0.5-0.1,0.4,0.1c-0.2,0-0.2,0.1-0.4,0c0.2,0.1,0.6-0.1,1,0
				c0,0.1-0.2,0.1-0.2,0.1c0.2-0.1,0.4-0.1,0.3,0c0.2,0,0.3-0.2,0-0.1c0.4-0.1,1,0,1.1,0.1c0.2,0,0.1-0.2,0.4-0.1
				c0,0.1-0.1,0.1-0.3,0.1c0.1,0.1,0.2,0.2,0.4,0.1c0,0.1,0,0.2,0.2,0.2c-0.4,0.1-0.8-0.2-1.1-0.3c-0.2,0.2-0.5,0.1-1,0.2
				c0,0.1,0.1,0.1,0.3,0.1c0,0.1-0.2,0-0.2,0c-0.3-0.1-0.1-0.1-0.2-0.3c0.1,0,0.1,0,0.3,0C53.1,35,53,35,52.9,35
				c-0.2,0.1-0.4,0.1-0.4,0.3c0,0.1,0.3,0.1,0.3,0c0.1,0-0.1,0.1,0.1,0.1c-0.1,0-0.2,0-0.5,0c0.2-0.1,0.2-0.2-0.2-0.1
				c0-0.1,0.2-0.1,0.4-0.1c-0.2-0.1,0-0.1,0.1-0.1c0,0-0.1,0-0.1-0.1c-0.1,0-0.1,0.1-0.2,0c-0.1,0.2-0.3,0.3-0.7,0.3
				c0.2,0.1,0.5,0,0.6,0.1c0,0.1-0.5,0-0.5,0.1c-0.1,0,0-0.1-0.2-0.1c0.1-0.1,0.3-0.1,0.4-0.2c0-0.1-0.5,0-0.4-0.1
				c0.4,0.1,0.7,0.1,0.6-0.1c0,0.1-0.7-0.2-0.5,0c-0.1,0.1-0.1-0.1-0.3-0.1c0-0.1,0.3,0.1,0.3-0.1c0.2,0,0.2,0.1,0.1,0.1
				c0.4,0-0.1-0.2,0.4-0.2c-0.1-0.1-0.3-0.1-0.4-0.1c0.4,0.1-0.4,0.2-0.3,0c0.1,0,0.1,0,0.1,0c0.1,0,0,0,0,0c0-0.1,0.2,0,0.3,0
				c0.1-0.1-0.2-0.1-0.2-0.2C51.8,34.2,52,34.1,52.3,34.2z"/>
			<path class="st24" d="M53.4,34.5C53.5,34.5,53.5,34.5,53.4,34.5c0.3-0.1,0.4-0.2,0.6,0C53.9,34.5,53.7,34.6,53.4,34.5z"/>
			<path class="st24" d="M50.3,34.7c0.2-0.1-0.5,0.2,0,0.2c-0.2,0.2-0.2-0.2-0.3,0c-0.2,0,0.1-0.2-0.3-0.1
				C49.8,34.7,50.1,34.7,50.3,34.7z"/>
			<path class="st24" d="M49.7,35.3c-0.1,0-0.2,0-0.4,0c-0.2,0,0.1-0.1,0.2,0c0.1,0,0.2-0.1,0.2-0.1c0.2,0.1,0.1,0,0.4,0.1
				C50,35.4,49.6,35.1,49.7,35.3z"/>
			<path class="st24" d="M51.4,36.4c-0.3,0-0.6-0.1-0.4,0c0,0,0,0-0.1,0c-0.1,0-0.1,0-0.2,0c0-0.1,0.1-0.1,0.1-0.1
				c-0.3,0.1-0.2-0.2-0.5,0c-0.2-0.1-0.1-0.2-0.4-0.1c0-0.2,0.1-0.2,0.4-0.2c0.1,0.3,0-0.2,0.4-0.1c-0.3,0.1,0,0.1,0.1,0.3
				c0.1-0.1,0.2-0.2,0.4-0.1C51.4,36.3,51.1,36,51.4,36.4z"/>
			<path class="st24" d="M49,36c0-0.1,0.2,0.1,0.3-0.1c0.1,0,0,0.1,0.2,0.1C49.4,36.2,49.1,35.9,49,36C49,36.2,48.9,36.1,49,36
				C49.1,36,49,36,49,36z"/>
			<path class="st24" d="M50.2,36.4c0.3,0-0.1,0.1-0.1,0.1c-0.2,0-0.2-0.2-0.2-0.3C50.1,36.3,50.1,36.3,50.2,36.4
				C50.2,36.5,50.2,36.4,50.2,36.4z"/>
		</g>
		<g>
			<path class="st24" d="M58.2,35.7c-0.3-0.1-0.4,0.1-0.7,0C57.5,35.6,58.2,35.5,58.2,35.7z"/>
			<path class="st24" d="M53.6,36.1c0.2,0.1,0.1,0,0.4,0c0,0.1-0.1,0.1-0.2,0.1c0.2,0.1-0.1,0.1-0.2,0.2c-0.1,0-0.1-0.1,0.1-0.1
				C53.7,36.2,53.6,36.2,53.6,36.1z"/>
			<path class="st24" d="M55,35.1c-0.1,0.1-0.3,0-0.4,0.1c0.4,0.2,0.5-0.2,0.6-0.1c-0.1,0.2,0.3,0.2,0.4,0.3c0,0.1-0.6,0-0.5-0.1
				c-0.2,0.1-0.4,0.3-0.2,0.4c0.2,0-0.1-0.1,0.1-0.1c0.2,0,0.5-0.1,0.4,0.1c-0.2,0-0.2,0.1-0.4,0c0.2,0.1,0.6-0.1,1,0
				c0,0.1-0.2,0.1-0.2,0.1c0.2-0.1,0.4-0.1,0.3,0c0.2,0,0.3-0.2,0-0.1c0.4-0.1,1,0,1.1,0.1c0.2,0,0.1-0.2,0.4-0.1
				c0,0.1-0.1,0.1-0.3,0.1c0.1,0.1,0.2,0.2,0.4,0.1c0,0.1,0,0.2,0.2,0.2c-0.4,0.1-0.8-0.2-1.1-0.3c-0.2,0.2-0.5,0.1-1,0.2
				c0,0.1,0.1,0.1,0.3,0.1c0,0.1-0.2,0-0.2,0c-0.3-0.1-0.1-0.1-0.2-0.3c0.1,0,0.1,0,0.3,0c-0.1,0-0.2-0.1-0.3-0.1
				c-0.2,0.1-0.4,0.1-0.4,0.3c0,0.1,0.3,0.1,0.3,0c0.1,0-0.1,0.1,0.1,0.1c-0.1,0-0.2,0-0.5,0c0.2-0.1,0.2-0.2-0.2-0.1
				c0-0.1,0.2-0.1,0.4-0.1c-0.2-0.1,0-0.1,0.1-0.1c0,0-0.1,0-0.1-0.1c-0.1,0-0.1,0.1-0.2,0c-0.1,0.2-0.3,0.3-0.7,0.3
				c0.2,0.1,0.5,0,0.6,0.1c0,0.1-0.5,0-0.5,0.1c-0.1,0,0-0.1-0.2-0.1c0.1-0.1,0.3-0.1,0.4-0.2c0-0.1-0.5,0-0.4-0.1
				c0.4,0.1,0.7,0.1,0.6-0.1c0,0.1-0.7-0.2-0.5,0c-0.1,0.1-0.1-0.1-0.3-0.1c0-0.1,0.3,0.1,0.3-0.1c0.2,0,0.2,0.1,0.1,0.1
				c0.4,0-0.1-0.2,0.4-0.2c-0.1-0.1-0.3-0.1-0.4-0.1c0.4,0.1-0.4,0.2-0.3,0c0.1,0,0.1,0,0.1,0c0.1,0,0,0,0,0c0-0.1,0.2,0,0.3,0
				c0.1-0.1-0.2-0.1-0.2-0.2C54.4,35.1,54.7,35,55,35.1z"/>
			<path class="st24" d="M56.1,35.4C56.1,35.4,56.2,35.4,56.1,35.4c0.3-0.1,0.4-0.2,0.6,0C56.5,35.4,56.4,35.5,56.1,35.4z"/>
			<path class="st24" d="M52.9,35.6c0.2-0.1-0.5,0.2,0,0.2c-0.2,0.2-0.2-0.2-0.3,0c-0.2,0,0.1-0.2-0.3-0.1
				C52.4,35.5,52.8,35.6,52.9,35.6z"/>
			<path class="st24" d="M52.3,36.2c-0.1,0-0.2,0-0.4,0c-0.2,0,0.1-0.1,0.2,0c0.1,0,0.2-0.1,0.2-0.1c0.2,0.1,0.1,0,0.4,0.1
				C52.6,36.3,52.2,36,52.3,36.2z"/>
		</g>
		<g>
			<path class="st24" d="M52.7,34.2c-0.3-0.1-0.4,0.1-0.7,0C52,34.1,52.8,34,52.7,34.2z"/>
			<path class="st24" d="M48.1,34.6c0.2,0.1,0.1,0,0.4,0c0,0.1-0.1,0.1-0.2,0.1c0.2,0.1-0.1,0.1-0.2,0.2c-0.1,0-0.1-0.1,0.1-0.1
				C48.2,34.8,48.1,34.7,48.1,34.6z"/>
			<path class="st24" d="M49.1,35.2c0,0-0.1,0-0.2,0C48.9,35.3,49,35.3,49.1,35.2c-0.4,0.3-0.6,0-1.1,0.1
				C48.4,35.1,48.6,35.3,49.1,35.2z"/>
			<path class="st24" d="M49.5,33.7c-0.1,0.1-0.3,0-0.4,0.1c0.4,0.2,0.5-0.2,0.6-0.1c-0.1,0.2,0.3,0.2,0.4,0.3c0,0.1-0.6,0-0.5-0.1
				c-0.2,0.1-0.4,0.3-0.2,0.4c0.2,0-0.1-0.1,0.1-0.1c0.2,0,0.5-0.1,0.4,0.1c-0.2,0-0.2,0.1-0.4,0c0.2,0.1,0.6-0.1,1,0
				c0,0.1-0.2,0.1-0.2,0.1c0.2-0.1,0.4-0.1,0.3,0c0.2,0,0.3-0.2,0-0.1c0.4-0.1,1,0,1.1,0.1c0.2,0,0.1-0.2,0.4-0.1
				c0,0.1-0.1,0.1-0.3,0.1c0.1,0.1,0.2,0.2,0.4,0.1c0,0.1,0,0.2,0.2,0.2c-0.4,0.1-0.8-0.2-1.1-0.3c-0.2,0.2-0.5,0.1-1,0.2
				c0,0.1,0.1,0.1,0.3,0.1c0,0.1-0.2,0-0.2,0c-0.3-0.1-0.1-0.1-0.2-0.3c0.1,0,0.1,0.1,0.3,0c-0.1,0-0.2-0.1-0.3-0.1
				c-0.2,0.1-0.4,0.1-0.4,0.3c0,0.1,0.3,0.1,0.3,0c0.1,0-0.1,0.1,0.1,0.1c-0.1,0-0.2,0-0.5,0c0.2-0.1,0.2-0.2-0.2-0.1
				c0-0.1,0.2-0.1,0.4-0.1c-0.2-0.1,0-0.1,0.1-0.1c0,0-0.1,0-0.1-0.1c-0.1,0-0.1,0.1-0.2,0c-0.1,0.2-0.3,0.3-0.7,0.3
				c0.2,0.1,0.5,0,0.6,0.1c0,0.1-0.5,0-0.5,0.1c-0.1,0,0-0.1-0.2-0.1c0.1-0.1,0.3-0.1,0.4-0.2c0-0.1-0.5,0-0.4-0.1
				c0.4,0.1,0.7,0.1,0.6-0.1c0,0.1-0.7-0.2-0.5,0c-0.1,0.1-0.1-0.1-0.3-0.1c0-0.1,0.3,0.1,0.3-0.1c0.2,0,0.2,0.1,0.1,0.1
				c0.4,0-0.1-0.2,0.4-0.2c-0.1-0.1-0.3-0.1-0.4-0.1c0.4,0.1-0.4,0.2-0.3,0c0.1,0,0.1,0,0.1,0c0.1,0,0,0,0,0c0-0.1,0.2,0,0.3,0
				c0.1-0.1-0.2-0.1-0.2-0.2C49,33.6,49.2,33.5,49.5,33.7z"/>
			<path class="st24" d="M50.6,33.9C50.6,33.9,50.7,33.9,50.6,33.9c0.3-0.1,0.4-0.2,0.6,0C51,33.9,50.9,34,50.6,33.9z"/>
			<path class="st24" d="M47.4,34.1c0.2-0.1-0.5,0.2,0,0.2c-0.2,0.2-0.2-0.2-0.3,0c-0.2,0,0.1-0.2-0.3-0.1
				C46.9,34.1,47.3,34.2,47.4,34.1z"/>
			<path class="st24" d="M46.8,34.7c-0.1,0-0.2,0-0.4,0c-0.2,0,0.1-0.1,0.2,0c0.1,0,0.2-0.1,0.2-0.1c0.2,0.1,0.1,0,0.4,0.1
				C47.1,34.8,46.7,34.5,46.8,34.7z"/>
			<path class="st24" d="M48.6,35.8c-0.3,0-0.6-0.1-0.4,0c0,0,0,0-0.1,0c-0.1,0-0.1,0-0.2,0c0-0.1,0.1-0.1,0.1-0.1
				c-0.3,0.1-0.2-0.2-0.5,0c-0.2-0.1-0.1-0.2-0.4-0.1c0-0.2,0.1-0.2,0.4-0.2c0.1,0.3,0-0.2,0.4-0.1c-0.3,0.1,0,0.1,0.1,0.3
				c0.1-0.1,0.2-0.2,0.4-0.1C48.6,35.7,48.3,35.5,48.6,35.8z"/>
			<path class="st24" d="M46.1,35.4c0-0.1,0.2,0.1,0.3-0.1c0.1,0,0,0.1,0.2,0.1C46.6,35.6,46.2,35.4,46.1,35.4
				C46.1,35.6,46.1,35.5,46.1,35.4C46.2,35.4,46.2,35.4,46.1,35.4z"/>
			<path class="st24" d="M47.4,35.8c0.3,0-0.1,0.1-0.1,0.1c-0.2,0-0.2-0.2-0.2-0.3C47.2,35.7,47.3,35.8,47.4,35.8
				C47.3,35.9,47.3,35.9,47.4,35.8z"/>
		</g>
	</g>
</g>
</svg>
