<?xml version="1.0" encoding="utf-8"?>
<!-- Generator: Adobe Illustrator 19.0.1, SVG Export Plug-In . SVG Version: 6.00 Build 0)  -->
<svg version="1.1" id="Layer_1" xmlns="http://www.w3.org/2000/svg" xmlns:xlink="http://www.w3.org/1999/xlink" x="0px" y="0px"
	 viewBox="-249 251 100 100" style="enable-background:new -249 251 100 100;" xml:space="preserve">
<style type="text/css">
	.st0{fill:#0096D6;}
	.st1{fill:#FFFFFF;}
	.st2{fill:#C4DEF0;}
	.st3{fill:#D1D3D4;}
	.st4{fill:#EE3124;}
	.st5{clip-path:url(#SVGID_4_);}
	.st6{fill:#DCB208;}
	.st7{fill:#002F67;}
</style>
<g>
	<g>
		<path d="M-198.7,340.3c40.6-22.2,39.8-58.1,35.7-82.2l-0.9-5l-3.9,3.2c-0.2,0.2-4.1,3.3-12.3,3.3c-10.1,0-16.4-5.9-16.5-5.9
			l-2-1.9l-2,1.9c-0.1,0.1-6.4,5.9-16.5,5.9c-8.3,0-12.2-3.1-12.3-3.2l-3.9-3.2l-0.9,5C-238.4,282.2-239.3,318.1-198.7,340.3z"/>
	</g>
	<g>
		<g>
			<g id="SVGID_1_">
				<path class="st0" d="M-198.7,337.2c36.4-21.4,37-53.5,32.7-78.6c0,0-4.6,3.9-14.2,3.9c-11.5,0-18.5-6.7-18.5-6.7
					s-7,6.7-18.5,6.7c-9.6,0-14.2-3.9-14.2-3.9C-235.7,283.8-235.1,315.8-198.7,337.2z"/>
			</g>
		</g>
		<g>
			<g id="SVGID_2_">
				<path class="st1" d="M-198.7,337.9l-0.3-0.2c-37.9-22.3-37-55.9-33-79.2l0.2-1l0.8,0.6c0,0,4.6,3.8,13.8,3.8
					c11.1,0,18-6.5,18.1-6.5l0.4-0.4l0.4,0.4c0.1,0.1,7,6.5,18.1,6.5c9.2,0,13.8-3.7,13.8-3.8l0.8-0.6l0.2,1
					c4,23.3,4.9,56.9-33,79.2L-198.7,337.9z M-231,259.6c-3.8,22.9-4.2,55.3,32.3,76.9c36.5-21.6,36.1-54,32.3-76.9
					c-1.7,1.1-6.2,3.5-13.8,3.5c-10.2,0-16.8-5.1-18.5-6.5c-1.7,1.4-8.3,6.5-18.5,6.5C-224.8,263.1-229.3,260.7-231,259.6z"/>
			</g>
		</g>
	</g>
	<g>
		<path class="st2" d="M-227.1,308.9c5,11.1,17.5,0.5,27.7-0.2c14.3,0.7,18.2,1.5,28.9,0.5c7.3-16.1,7.2-33.8,5-47.1l-0.4-3.4
			l-4,1.8c-0.2,0.1-4.2,2-11.8,2c-9.4,0-13.4-4-13.5-4.1l-3.4-2.2l-3.2,1.9c-0.1,0.1-6,4.5-15.4,4.5c-7.7,0-9.5-1.2-9.7-1.3
			l-4.6-2.6l-1,5.1C-234.7,276.9-234.3,292.9-227.1,308.9z"/>
	</g>
	<g>
		<g>
			<path d="M-197.8,287.9l0.3-9l-1.5-0.5l0.2-4.6l-0.7-0.3l0.1-3.6l-1.5-0.6c0-1.7-1.4-3.1-3-3.1c-1.7,0-3,1.4-3,3.1l-1.4,0.6
				l0.1,3.6l-0.7,0.3l0.2,4.8h-0.1v-0.2l-1.4,0.5l0.3,8.9l-0.8,0.3l0.4,24l6.4,0.7v-6.2h6.3l0.5-18.5L-197.8,287.9z M-203.9,264.8
				l-0.3,1.3l0.5,0.1L-203.9,264.8c0.3,0,0.5-0.2,0.5-0.4c0-0.2-0.2-0.4-0.4-0.4s-0.4,0.2-0.4,0.4
				C-204.3,264.6-204.1,264.8-203.9,264.8z"/>
			<path d="M-203.6,313.1l-7-0.8l-0.4-24.5l0.8-0.3l-0.3-8.9l1.5-0.5l-0.2-4.6l0.7-0.3l-0.1-3.6l1.4-0.6c0.1-1.6,1.2-2.9,2.7-3.2
				l0.2-1c-0.1-0.1-0.1-0.1-0.2-0.2c-0.1-0.1-0.1-0.3-0.1-0.5c0-0.3,0.4-0.6,0.7-0.6c0.4,0,0.7,0.3,0.7,0.7c0,0.3-0.2,0.5-0.5,0.6
				l0.1,0.9c1.5,0.2,2.7,1.6,2.8,3.2l1.5,0.6l-0.1,3.6l0.7,0.3l-0.2,4.6l1.5,0.5l-0.3,9l0.7,0.2l-0.5,19h-6.3V313.1z M-210,311.8
				l5.8,0.6v-6.2h6.3l0.5-18l-0.7-0.2l0.3-9l-1.5-0.5l0.2-4.6l-0.7-0.3l0.1-3.6l-1.5-0.6v-0.2c0-1.3-0.9-2.5-2.1-2.7l0,0l-0.3-0.1
				c-0.1,0-0.1,0-0.2,0c-1.5,0-2.7,1.2-2.7,2.8v0.2l-1.4,0.6l0.1,3.6l-0.7,0.3l0.2,4.9h-0.7v-0.1l-0.8,0.3l0.3,8.9l-0.8,0.3
				L-210,311.8z"/>
		</g>
		<g>
			<g>
				<ellipse class="st3" cx="-203.9" cy="269.3" rx="3" ry="3.2"/>
				<path d="M-203.9,272.7c-1.8,0-3.2-1.5-3.2-3.4c0-1.9,1.4-3.4,3.2-3.4s3.2,1.5,3.2,3.4C-200.7,271.2-202.1,272.7-203.9,272.7z
					 M-203.9,266.3c-1.6,0-2.8,1.4-2.8,3s1.3,3,2.8,3s2.8-1.4,2.8-3S-202.3,266.3-203.9,266.3z"/>
			</g>
			<g>
				<polygon class="st3" points="-203.8,278.5 -207.9,278.5 -208.3,269.8 -203.8,268 				"/>
				<path d="M-203.8,278.7h-4.1c-0.1,0-0.2-0.1-0.2-0.2l-0.4-8.7c0-0.1,0-0.2,0.1-0.2l4.5-1.8c0.1,0,0.1,0,0.2,0
					c0.1,0,0.1,0.1,0.1,0.2v10.5C-203.6,278.6-203.7,278.7-203.8,278.7z M-207.7,278.3h3.7v-10l-4.1,1.6L-207.7,278.3z"/>
			</g>
			<g>
				<polygon class="st3" points="-203.8,278.5 -199.7,278.5 -199.4,269.8 -203.8,268 				"/>
				<path d="M-199.7,278.7h-4.1c-0.1,0-0.2-0.1-0.2-0.2V268c0-0.1,0-0.1,0.1-0.2c0.1,0,0.1,0,0.2,0l4.4,1.8c0.1,0,0.1,0.1,0.1,0.2
					l-0.3,8.7C-199.5,278.6-199.6,278.7-199.7,278.7z M-203.6,278.3h3.7l0.3-8.3l-4-1.6V278.3z"/>
			</g>
			<g>
				<path d="M-200.9,271.1c0-0.4-0.4-0.9-0.8-0.9c-0.4-0.1-0.8,0.2-0.8,0.6l0,0l0,0v3.7l1.6,0.3v-3.4
					C-200.9,271.2-200.9,271.2-200.9,271.1z"/>
			</g>
			<g>
				<path d="M-206.8,271.1c0-0.4,0.4-0.9,0.8-0.9c0.4-0.1,0.8,0.2,0.8,0.6l0,0l0,0v3.7l-1.6,0.3v-3.4
					C-206.8,271.2-206.8,271.2-206.8,271.1z"/>
			</g>
			<g>
				<polygon class="st3" points="-203.8,283.7 -208.5,283.7 -208.9,273.8 -203.8,271.7 				"/>
				<path d="M-203.8,283.9h-4.7c-0.1,0-0.2-0.1-0.2-0.2l-0.4-9.9c0-0.1,0-0.1,0.1-0.2l5.1-2.1c0.1,0,0.1,0,0.2,0
					c0.1,0,0.1,0.1,0.1,0.2v12C-203.6,283.8-203.7,283.9-203.8,283.9z M-208.3,283.5h4.3V272l-4.7,1.9L-208.3,283.5z"/>
			</g>
			<g>
				<polygon class="st3" points="-203.8,283.7 -199.1,283.7 -198.8,273.8 -203.8,271.7 				"/>
				<path d="M-199.1,283.9h-4.7c-0.1,0-0.2-0.1-0.2-0.2v-12c0-0.1,0-0.1,0.1-0.2c0.1,0,0.1,0,0.2,0l5,2.1c0.1,0,0.1,0.1,0.1,0.2
					l-0.3,9.9C-198.9,283.8-199,283.9-199.1,283.9z M-203.6,283.5h4.3l0.3-9.6l-4.6-1.9V283.5z"/>
			</g>
			<g>
				<path d="M-200.1,275.2c0-0.5-0.4-1-0.9-1.1s-1,0.3-1,0.8l0,0l0,0v4.4l1.9,0.3v-4.1C-200,275.4-200.1,275.3-200.1,275.2z"/>
			</g>
			<g>
				<path d="M-207.4,275.2c0-0.5,0.4-1,0.9-1.1s0.9,0.2,0.9,0.8l0,0l0,0v4.4l-1.9,0.3v-4.1C-207.5,275.4-207.4,275.3-207.4,275.2z"
					/>
			</g>
			<g>
				<polygon class="st3" points="-205.3,277.2 -205.3,277.4 -208.8,278.6 -208.8,278.4 -210.2,278.9 -209.7,291.7 -203.8,291.7 
					-203.8,276.7 				"/>
				<path d="M-203.8,291.9h-5.9c-0.1,0-0.2-0.1-0.2-0.2l-0.5-12.8c0-0.1,0.1-0.2,0.1-0.2l1.4-0.5c0.1,0,0.1,0,0.2,0
					c0,0,0.1,0.1,0.1,0.1l3.1-1.1v0c0-0.1,0.1-0.2,0.1-0.2l1.5-0.5c0.1,0,0.1,0,0.2,0c0.1,0,0.1,0.1,0.1,0.2v15
					C-203.6,291.8-203.7,291.9-203.8,291.9z M-209.5,291.5h5.5V277l-1.1,0.4v0c0,0.1-0.1,0.2-0.1,0.2l-3.5,1.2c-0.1,0-0.1,0-0.2,0
					c0,0-0.1,0-0.1-0.1l-1,0.4L-209.5,291.5z"/>
			</g>
			<g>
				<polygon class="st3" points="-199,278.3 -199,278.6 -202.4,277.4 -202.4,277.1 -203.8,276.7 -203.8,291.7 -197.9,291.7 
					-197.5,278.9 				"/>
				<path d="M-197.9,291.9h-5.9c-0.1,0-0.2-0.1-0.2-0.2v-15c0-0.1,0-0.1,0.1-0.2c0.1,0,0.1-0.1,0.2,0l1.4,0.4c0.1,0,0.2,0.1,0.2,0.2
					v0.2l3,1.1v0c0-0.1,0-0.1,0.1-0.2c0.1,0,0.1,0,0.2,0l1.5,0.6c0.1,0,0.1,0.1,0.1,0.2l-0.4,12.8
					C-197.7,291.8-197.8,291.9-197.9,291.9z M-203.6,291.5h5.5l0.4-12.4l-1.1-0.4c0,0.1,0,0.1-0.1,0.2c-0.1,0-0.1,0.1-0.2,0
					l-3.4-1.2c-0.1,0-0.1-0.1-0.1-0.2v-0.1l-1-0.3V291.5z"/>
			</g>
			<g>
				<path d="M-199.4,282.8c0-0.6-0.5-1.2-1.1-1.3s-1.1,0.3-1.1,0.9l0,0l0,0v5.1l2.2,0.3V283C-199.4,283-199.4,282.9-199.4,282.8z"/>
			</g>
			<g>
				<path d="M-208.3,282.8c0-0.6,0.5-1.2,1.1-1.3c0.6-0.1,1.1,0.3,1.1,0.9l0,0l0,0v5.1l-2.2,0.3V283
					C-208.4,283-208.3,282.9-208.3,282.8z"/>
			</g>
			<g>
				<polygon class="st3" points="-205.5,286.3 -205.5,286.7 -209.2,288 -209.2,287.6 -209.2,287.6 -210.6,288.1 -210.3,312 
					-203.9,312.8 -203.9,285.8 				"/>
				<path d="M-203.9,313C-203.9,313-203.9,313-203.9,313l-6.4-0.8c-0.1,0-0.2-0.1-0.2-0.2l-0.3-23.9c0-0.1,0-0.2,0.1-0.2l1.4-0.5
					c0.1,0,0.1,0,0.2,0c0,0,0.1,0.1,0.1,0.2v0.1l3.3-1.2v-0.3c0-0.1,0.1-0.2,0.1-0.2l1.6-0.5c0.1,0,0.1,0,0.2,0c0,0,0.1,0.1,0.1,0.2
					v27c0,0.1,0,0.1-0.1,0.1C-203.8,313-203.9,313-203.9,313z M-210.1,311.8l6,0.8v-26.5l-1.2,0.4v0.3c0,0.1,0,0.1-0.1,0.2l-3.7,1.3
					c-0.1,0-0.1,0-0.2,0s-0.1-0.1-0.1-0.2v-0.1l-1,0.4L-210.1,311.8z"/>
			</g>
			<g>
				<polygon class="st3" points="-198.6,287.6 -198.6,287.6 -198.6,288 -202.3,286.7 -202.3,286.3 -202.3,286.3 -203.9,285.8 
					-203.9,306.6 -197.6,306.6 -197.1,288.1 				"/>
				<path d="M-197.6,306.8h-6.3c-0.1,0-0.2-0.1-0.2-0.2v-20.8c0-0.1,0-0.1,0.1-0.2c0.1,0,0.1-0.1,0.2,0l1.6,0.5
					c0.1,0,0.1,0.1,0.1,0.2v0.3l3.3,1.2v-0.1c0-0.1,0-0.1,0.1-0.2c0.1,0,0.1-0.1,0.2,0l1.5,0.5c0.1,0,0.1,0.1,0.1,0.2l-0.5,18.5
					C-197.4,306.7-197.5,306.8-197.6,306.8z M-203.7,306.4h5.9l0.5-18.1l-1.1-0.4v0.1c0,0.1,0,0.1-0.1,0.2c-0.1,0-0.1,0.1-0.2,0
					l-3.7-1.3c-0.1,0-0.1-0.1-0.1-0.2v-0.2l-1.2-0.4V306.4z"/>
			</g>
			<g>
				<path d="M-208.3,291.1c0-0.6,0.5-1.2,1.1-1.3c0.6-0.1,1.1,0.3,1.1,0.9l0,0l0,0v5.1l-2.2,0.3v-4.8
					C-208.4,291.2-208.3,291.2-208.3,291.1z"/>
				<path d="M-208.4,296.2v-4.9c-0.1-0.1-0.1-0.1,0-0.2c0,0,0,0,0,0c0-0.6,0.5-1.3,1.2-1.4c0.3-0.1,0.6,0,0.8,0.2
					c0.2,0.2,0.3,0.5,0.3,0.8v5.2L-208.4,296.2z M-207,289.9c-0.1,0-0.1,0-0.2,0c-0.6,0.1-1,0.7-1,1.2c0,0.1,0,0.1,0,0.1
					c0,0,0,0,0,0l0,0v4.8l2.1-0.3v-5c0-0.3-0.1-0.5-0.3-0.6C-206.6,289.9-206.8,289.9-207,289.9z"/>
			</g>
			<g>
				<polyline points="-203.8,287.8 -203.8,288.4 -210.5,290.4 -211,290.1 -210.6,289.8 -203.8,287.8 -203.8,288.4 -197.2,290.3 
					-196.7,290.1 -197.2,289.6 -203.8,287.8 				"/>
				<path d="M-210.5,290.5C-210.5,290.5-210.5,290.5-210.5,290.5l-0.5-0.3c0,0,0,0,0-0.1c0,0,0,0,0-0.1l0.4-0.3c0,0,0,0,0,0l6.8-2
					l0,0l0,0c0,0,0,0,0,0l0,0c0,0,0,0,0,0l6.6,1.8c0,0,0,0,0,0l0.5,0.5c0,0,0,0,0,0.1c0,0,0,0,0,0l-0.5,0.2c0,0,0,0,0,0l-6.6-1.9
					L-210.5,290.5C-210.5,290.5-210.5,290.5-210.5,290.5z M-210.9,290.1l0.4,0.2l6.6-2v-0.5l-6.7,2L-210.9,290.1z M-203.7,288.3
					l6.5,1.9l0.4-0.2l-0.4-0.4l-6.5-1.8V288.3z"/>
			</g>
			<g>
				<polyline points="-203.8,277.9 -203.8,278.4 -210.2,280.4 -210.6,280 -210.2,279.8 -203.8,277.8 -203.8,278.4 -197.5,280.4 
					-197,280.2 -197.5,279.8 -203.8,277.8 				"/>
				<path d="M-210.2,280.5C-210.2,280.5-210.2,280.5-210.2,280.5l-0.4-0.4c0,0,0,0,0-0.1c0,0,0,0,0,0l0.4-0.2l6.4-2c0,0,0,0,0,0l0,0
					l0,0l6.3,2c0,0,0,0,0,0l0.5,0.4c0,0,0,0,0,0.1c0,0,0,0,0,0.1l-0.5,0.2c0,0,0,0,0,0l-6.3-2L-210.2,280.5
					C-210.2,280.5-210.2,280.5-210.2,280.5z M-203.7,278.4l6.2,2l0.4-0.1l-0.4-0.3l-6.2-2V278.4z M-210.5,280l0.3,0.3l6.3-2v-0.5
					l-6.3,2L-210.5,280z"/>
			</g>
			<g>
				<path d="M-199.4,291.1c0-0.6-0.5-1.2-1.1-1.3c-0.6-0.1-1.1,0.3-1.1,0.9l0,0l0,0v5.1l2.2,0.3v-4.8
					C-199.4,291.2-199.4,291.2-199.4,291.1z"/>
				<path d="M-199.3,296.2l-2.3-0.3v-5.2c0-0.3,0.1-0.6,0.3-0.8c0.2-0.2,0.5-0.3,0.8-0.2c0.6,0.1,1.2,0.7,1.2,1.4V296.2z
					 M-201.5,295.7l2.1,0.3v-4.9c0-0.6-0.5-1.1-1-1.2c-0.3,0-0.5,0-0.7,0.2c-0.2,0.2-0.3,0.4-0.3,0.6V295.7z"/>
			</g>
			<g>
				<ellipse cx="-200.6" cy="297.4" rx="2" ry="2.7"/>
				<path class="st3" d="M-200.6,300.4c-1.3,0-2.3-1.3-2.3-3s1-3,2.3-3s2.3,1.3,2.3,3S-199.3,300.4-200.6,300.4z M-200.6,295
					c-0.9,0-1.7,1.1-1.7,2.4s0.8,2.4,1.7,2.4s1.7-1.1,1.7-2.4S-199.7,295-200.6,295z"/>
			</g>
			<g>
				<ellipse cx="-207.1" cy="297.7" rx="2" ry="2.7"/>
				<path class="st3" d="M-207.1,300.7c-1.3,0-2.3-1.3-2.3-3s1-3,2.3-3s2.3,1.3,2.3,3S-205.8,300.7-207.1,300.7z M-207.1,295.3
					c-0.9,0-1.7,1.1-1.7,2.4s0.8,2.4,1.7,2.4s1.7-1.1,1.7-2.4S-206.2,295.3-207.1,295.3z"/>
			</g>
			<g>
				<path class="st1" d="M-199.6,298.9c-0.1,0-0.1,0-0.2-0.1l-1-1.3c0,0,0-0.1,0-0.1v-1.8c0-0.1,0.1-0.2,0.2-0.2s0.2,0.1,0.2,0.2
					v1.7l1,1.2c0.1,0.1,0,0.2,0,0.3C-199.5,298.9-199.6,298.9-199.6,298.9z"/>
			</g>
			<g>
				<path class="st1" d="M-206.1,299.4c-0.1,0-0.1,0-0.2-0.1l-1.2-1.6c0,0,0-0.1,0-0.1v-1.8c0-0.1,0.1-0.2,0.2-0.2s0.2,0.1,0.2,0.2
					v1.7l1.2,1.5c0.1,0.1,0,0.2,0,0.3C-206,299.4-206.1,299.4-206.1,299.4z"/>
			</g>
			<g>
				<polygon points="-203.7,266.2 -203.9,264.7 -204.2,266.1 				"/>
				<path d="M-203.6,266.3l-0.7-0.1l0.3-1.5l0.1,0L-203.6,266.3z M-204.1,266l0.3,0.1l-0.1-1L-204.1,266z"/>
			</g>
			<g>
				<circle cx="-203.9" cy="264.3" r="0.4"/>
				<path d="M-203.9,264.8c-0.3,0-0.5-0.2-0.5-0.5s0.2-0.5,0.5-0.5s0.5,0.2,0.5,0.5S-203.6,264.8-203.9,264.8z M-203.9,264
					c-0.2,0-0.3,0.1-0.3,0.3c0,0.2,0.1,0.3,0.3,0.3s0.3-0.1,0.3-0.3C-203.6,264.1-203.7,264-203.9,264z"/>
			</g>
		</g>
		<g>
			<polygon points="-198.8,273.8 -203.8,271.7 -208.9,273.8 -208.9,274.2 -203.8,272.4 -198.8,274.2 			"/>
		</g>
	</g>
	<g>
		<g>
			<path class="st4" d="M-213.6,284v-3.4h-2.4v1.6h-1.7v-1.6h-2.5v1.6h-2.1v-1.7h-2v3.5l2.4,2l-2.4,22.5c1.3,0.1,7.7-0.9,7.7-0.9
				c0.7,0,2.7,0,3.3,0l-2.1-21.6L-213.6,284z"/>
		</g>
		<g>
			<rect x="-220.1" y="290.1" width="2.9" height="3.2"/>
		</g>
		<g>
			<path d="M-220.5,307.4V305c0-1.8,3.1-1.6,3.1,0v2.5L-220.5,307.4z"/>
		</g>
		<g>
			<path d="M-224.2,308.9C-224.2,308.9-224.2,308.9-224.2,308.9c-0.3,0-0.4-0.2-0.4-0.4l2.4-22.5c0-0.2,0.2-0.4,0.4-0.4h6.4
				c0.2,0,0.4,0.2,0.4,0.4l2.2,21.6c0,0.2-0.1,0.4-0.4,0.4c-0.2,0-0.4-0.1-0.4-0.4l-2.2-21.2h-5.7l-2.4,22.1
				C-223.8,308.7-224,308.9-224.2,308.9z"/>
		</g>
		<g>
			<path d="M-214.2,302h-8.8c-0.2,0-0.4-0.2-0.4-0.4s0.2-0.4,0.4-0.4h8.8c0.2,0,0.4,0.2,0.4,0.4S-214,302-214.2,302z"/>
		</g>
		<g>
			<path d="M-214.2,298.8h-8.8c-0.2,0-0.4-0.2-0.4-0.4s0.2-0.4,0.4-0.4h8.8c0.2,0,0.4,0.2,0.4,0.4S-214,298.8-214.2,298.8z"/>
		</g>
		<g>
			<path d="M-221.8,286.4c-0.1,0-0.2,0-0.3-0.1l-2.4-2c-0.1-0.1-0.1-0.2-0.1-0.3v-3.5c0-0.2,0.2-0.4,0.4-0.4h2
				c0.2,0,0.4,0.2,0.4,0.4v1.3h1.3v-1.2c0-0.2,0.2-0.4,0.4-0.4h2.4c0.2,0,0.4,0.2,0.4,0.4v1.2h0.9v-1.2c0-0.2,0.2-0.4,0.4-0.4h2.4
				c0.2,0,0.4,0.2,0.4,0.4v3.4c0,0.1,0,0.2-0.1,0.3l-1.8,2c-0.1,0.2-0.4,0.2-0.6,0c-0.2-0.1-0.2-0.4,0-0.6l1.7-1.9V281h-1.6v1.2
				c0,0.2-0.2,0.4-0.4,0.4h-1.7c-0.2,0-0.4-0.2-0.4-0.4V281h-1.6v1.2c0,0.2-0.2,0.4-0.4,0.4h-2.1c-0.2,0-0.4-0.2-0.4-0.4v-1.3h-1.2
				v2.9l2.3,1.9c0.2,0.1,0.2,0.4,0.1,0.6C-221.6,286.3-221.7,286.4-221.8,286.4z"/>
		</g>
		<g>
			<path d="M-213.7,284.4h-10.5c-0.2,0-0.4-0.2-0.4-0.4s0.2-0.4,0.4-0.4h10.5c0.2,0,0.4,0.2,0.4,0.4S-213.5,284.4-213.7,284.4z"/>
		</g>
	</g>
	<g>
		<g>
			<path class="st4" d="M-173.8,284.2v-3.4h-2.4v1.6h-1.7v-1.6h-2.5v1.6h-2v-1.7h-2v3.5l2.4,2l-2.4,21.6c1.3,0.1,7.6-0.3,7.6-0.3
				c0.7,0,3.5,1.9,4.1,2l-3-23.3L-173.8,284.2z"/>
		</g>
		<g>
			<rect x="-180.3" y="290.3" width="2.9" height="3.2"/>
		</g>
		<g>
			<path d="M-180.7,307.7v-2.4c0-1.8,3.1-1.6,3.1,0v2.5L-180.7,307.7z"/>
		</g>
		<g>
			<path d="M-172.6,309.9c-0.2,0-0.4-0.1-0.4-0.3l-3-23h-5.7l-2.4,21.2c0,0.2-0.2,0.4-0.4,0.3c-0.2,0-0.4-0.2-0.3-0.4l2.4-21.6
				c0-0.2,0.2-0.4,0.4-0.4h6.4c0.2,0,0.4,0.1,0.4,0.3l3,23.3C-172.2,309.7-172.3,309.9-172.6,309.9
				C-172.6,309.9-172.6,309.9-172.6,309.9z"/>
		</g>
		<g>
			<path d="M-174.4,302.2h-8.8c-0.2,0-0.4-0.2-0.4-0.4s0.2-0.4,0.4-0.4h8.8c0.2,0,0.4,0.2,0.4,0.4S-174.2,302.2-174.4,302.2z"/>
		</g>
		<g>
			<path d="M-174.4,299.1h-8.8c-0.2,0-0.4-0.2-0.4-0.4s0.2-0.4,0.4-0.4h8.8c0.2,0,0.4,0.2,0.4,0.4S-174.2,299.1-174.4,299.1z"/>
		</g>
		<g>
			<path d="M-182,286.6c-0.1,0-0.2,0-0.3-0.1l-2.4-2c-0.1-0.1-0.1-0.2-0.1-0.3v-3.5c0-0.2,0.2-0.4,0.4-0.4h2c0.2,0,0.4,0.2,0.4,0.4
				v1.3h1.2v-1.2c0-0.2,0.2-0.4,0.4-0.4h2.5c0.2,0,0.4,0.2,0.4,0.4v1.2h0.9v-1.2c0-0.2,0.2-0.4,0.4-0.4h2.4c0.2,0,0.4,0.2,0.4,0.4
				v3.4c0,0.1,0,0.2-0.1,0.3l-1.8,2c-0.1,0.2-0.4,0.2-0.6,0c-0.2-0.1-0.2-0.4,0-0.6l1.7-1.9v-2.9h-1.6v1.2c0,0.2-0.2,0.4-0.4,0.4
				h-1.7c-0.2,0-0.4-0.2-0.4-0.4v-1.2h-1.7v1.2c0,0.2-0.2,0.4-0.4,0.4h-2c-0.2,0-0.4-0.2-0.4-0.4v-1.3h-1.2v2.9l2.3,1.9
				c0.2,0.1,0.2,0.4,0,0.6C-181.8,286.5-181.9,286.6-182,286.6z"/>
		</g>
		<g>
			<path d="M-174,284.6h-10.4c-0.2,0-0.4-0.2-0.4-0.4s0.2-0.4,0.4-0.4h10.4c0.2,0,0.4,0.2,0.4,0.4S-173.8,284.6-174,284.6z"/>
		</g>
	</g>
	<g>
		<g>
			<g>
				<defs>
					<path id="SVGID_3_" d="M-198.7,337.2c36.4-21.4,37-53.5,32.7-78.6c0,0-4.6,3.9-14.2,3.9c-11.5,0-18.5-6.7-18.5-6.7
						s-7,6.7-18.5,6.7c-9.6,0-14.2-3.9-14.2-3.9C-235.7,283.8-235.1,315.8-198.7,337.2z"/>
				</defs>
				<clipPath id="SVGID_4_">
					<use xlink:href="#SVGID_3_"  style="overflow:visible;"/>
				</clipPath>
				<g class="st5">
					<g>
						<path class="st3" d="M-198.5,316.7c3.8,0,20.5,0.9,27.2,2.4c0,0,0-8.6,0-10.5c-5-2.1-18.8-6.7-27.2-6.7s-22.2,4.6-27.2,6.7
							c0,1.9,0,10.5,0,10.5C-218.9,317.6-202.3,316.7-198.5,316.7z"/>
						<path d="M-170.9,319.6l-0.5-0.1c-6.8-1.5-23.6-2.4-27.1-2.4c-3.5,0-20.2,0.9-27.1,2.4l-0.5,0.1v-11.2l0.2-0.1
							c5-2.1,18.9-6.7,27.3-6.7s22.3,4.6,27.3,6.7l0.2,0.1V319.6z M-225.3,308.9v9.8c7.2-1.5,23.4-2.3,26.8-2.3
							c3.5,0,19.7,0.8,26.8,2.3v-9.8c-5.2-2.1-18.6-6.6-26.8-6.6C-206.7,302.3-220.2,306.7-225.3,308.9z"/>
					</g>
					<g>
						<path d="M-196.7,316.8v-7.3c0-1.5-0.9-2.8-1.8-2.8s-1.8,1.3-1.8,2.8v7.3C-199.3,316.8-197.5,316.7-196.7,316.8z"/>
					</g>
					<g>
						<g>
							<path d="M-219.7,311.5c-0.9,0-1.8,1.3-1.8,2.8v4.1c1.1-0.2,2.3-0.3,3.6-0.4v-3.6C-217.9,312.8-218.8,311.5-219.7,311.5z"/>
						</g>
						<g>
							<path d="M-212.6,309.3c-0.9,0-1.8,1.3-1.8,2.8v5.5c1.2-0.1,2.4-0.2,3.6-0.3v-5.2C-210.8,310.7-211.7,309.3-212.6,309.3z"/>
						</g>
						<g>
							<path d="M-205.6,307.7c-0.9,0-1.8,1.3-1.8,2.8v6.6c1.3-0.1,2.5-0.2,3.6-0.2v-6.4C-203.8,309-204.6,307.7-205.6,307.7z"/>
						</g>
					</g>
					<g>
						<path d="M-171.3,310.8c-5-2.1-18.7-6.7-27.1-6.7s-22.1,4.6-27.1,6.7l-0.3-0.7c5-2.1,18.9-6.7,27.3-6.7
							c8.5,0,22.3,4.6,27.3,6.7L-171.3,310.8z"/>
					</g>
					<g>
						<g>
							<path d="M-177.3,311.5c0.9,0,1.8,1.3,1.8,2.8v4.1c-1.1-0.2-2.3-0.3-3.6-0.4v-3.6C-179.1,312.8-178.2,311.5-177.3,311.5z"/>
						</g>
						<g>
							<path d="M-184.3,309.3c0.9,0,1.8,1.3,1.8,2.8v5.5c-1.2-0.1-2.4-0.2-3.6-0.3v-5.2C-186.1,310.7-185.3,309.3-184.3,309.3z"/>
						</g>
						<g>
							<path d="M-191.4,307.7c0.9,0,1.8,1.3,1.8,2.8v6.6c-1.3-0.1-2.5-0.2-3.6-0.2v-6.4C-193.2,309-192.3,307.7-191.4,307.7z"/>
						</g>
					</g>
				</g>
			</g>
		</g>
	</g>
	<g>
		<g>
			<g>
				<path d="M-193.8,303.9C-193.8,303.9-193.8,303.9-193.8,303.9c-0.3,0-0.4-0.2-0.4-0.4l1-10c0-0.2,0.2-0.4,0.4-0.4
					c0.2,0,0.4,0.2,0.4,0.4l-1,10C-193.4,303.7-193.6,303.9-193.8,303.9z"/>
			</g>
			<g>
				<path d="M-199.9,306.3c-0.2,0-0.4-0.2-0.4-0.4v-9.8c0-0.2,0.2-0.4,0.4-0.4s0.4,0.2,0.4,0.4v9.8
					C-199.5,306.1-199.7,306.3-199.9,306.3z"/>
			</g>
			<g>
				<path d="M-195.6,319.7C-195.6,319.7-195.6,319.7-195.6,319.7c-0.3,0-0.4-0.2-0.4-0.4l0.6-5.6c0-0.2,0.2-0.4,0.4-0.4
					c0.2,0,0.4,0.2,0.4,0.4l-0.6,5.6C-195.2,319.5-195.4,319.7-195.6,319.7z"/>
			</g>
		</g>
		<g>
			<path class="st1" d="M-187.4,303.1c-1.2-0.2-6.2-0.2-9.5,1.4c-0.3,1-0.4,3.2,0.5,8.5c0.6-0.1,6.3-2,9.1-2
				C-187.6,310.1-188.3,308-187.4,303.1z"/>
			<path d="M-196.4,313.4c-0.2,0-0.4-0.1-0.4-0.3c-0.8-4.4-0.9-7.3-0.5-8.7c0-0.1,0.1-0.2,0.2-0.2c3.5-1.7,8.7-1.6,9.7-1.4
				c0.1,0,0.2,0.1,0.3,0.2c0.1,0.1,0.1,0.2,0.1,0.3c-0.9,4.8-0.2,6.8,0.1,7.7c0,0.1,0,0.3-0.1,0.4s-0.2,0.2-0.3,0.2
				c-2.1,0-6,1.1-7.8,1.7C-195.8,313.3-196.2,313.4-196.4,313.4C-196.4,313.4-196.4,313.4-196.4,313.4z M-196.6,304.8
				c-0.3,1.3-0.1,3.9,0.5,7.7c0.2-0.1,0.4-0.1,0.7-0.2c1.9-0.5,5.3-1.5,7.5-1.7c-0.3-1.1-0.7-3.2,0-7.2
				C-189.4,303.3-193.6,303.4-196.6,304.8z"/>
		</g>
		<g>
			<path class="st1" d="M-189.3,296.2c-0.3,0.8-0.8,3.9-0.6,4.6c-1.2-0.7-3.1-1.9-6.7,1c-0.4-1-1.3-2.9-0.3-4.6
				C-196,296.8-193.7,295.6-189.3,296.2z"/>
			<path d="M-196.6,302.2c0,0-0.1,0-0.1,0c-0.1,0-0.2-0.1-0.3-0.2l-0.1-0.2c-0.4-1-1.2-3-0.2-4.7c0-0.1,0.1-0.1,0.2-0.2l0.2-0.1
				c1-0.5,3.4-1.5,7.7-1c0.1,0,0.2,0.1,0.3,0.2c0.1,0.1,0.1,0.2,0,0.3c-0.3,0.8-0.8,3.8-0.6,4.4c0,0.2,0,0.3-0.1,0.4
				c-0.1,0.1-0.3,0.1-0.4,0c-1.2-0.7-2.9-1.7-6.2,1C-196.4,302.2-196.5,302.2-196.6,302.2z M-196.6,297.5c-0.7,1.3-0.2,2.7,0.2,3.7
				c3-2.2,4.9-1.7,6.1-1.1c0-1,0.3-2.7,0.5-3.6C-193.6,296.1-195.7,297.1-196.6,297.5L-196.6,297.5z"/>
		</g>
		<g>
			<polygon class="st1" points="-195,315 -192.4,318.5 -190.6,314.8 -193.3,312.1 			"/>
			<path d="M-192.4,318.9c-0.1,0-0.2-0.1-0.3-0.2l-2.6-3.5c-0.1-0.1-0.1-0.3,0-0.4l1.7-2.9c0.1-0.1,0.2-0.2,0.3-0.2
				c0.1,0,0.2,0,0.3,0.1l2.7,2.7c0.1,0.1,0.2,0.3,0.1,0.5l-1.8,3.7C-192.1,318.8-192.2,318.9-192.4,318.9
				C-192.4,318.9-192.4,318.9-192.4,318.9z M-194.5,315l2.1,2.8l1.4-2.9l-2.1-2.1L-194.5,315z"/>
		</g>
		<g>
			<polygon class="st1" points="-187.1,312.9 -187.5,317.2 -190.9,320.1 -192.4,318.5 -190.6,314.8 -192.7,312.7 			"/>
			<path d="M-190.9,320.5c-0.1,0-0.2,0-0.3-0.1l-1.5-1.6c-0.1-0.1-0.1-0.3-0.1-0.4l1.7-3.4l-1.9-1.9c-0.1-0.1-0.1-0.3-0.1-0.4
				c0.1-0.1,0.3-0.2,0.4-0.2l5.6,0.2c0.1,0,0.2,0.1,0.3,0.1s0.1,0.2,0.1,0.3l-0.4,4.3c0,0.1-0.1,0.2-0.1,0.3l-3.4,2.9
				C-190.7,320.5-190.8,320.5-190.9,320.5z M-191.9,318.4l1.1,1.1l3-2.5l0.3-3.7l-4.2-0.1l1.4,1.4c0.1,0.1,0.2,0.3,0.1,0.5
				L-191.9,318.4z"/>
		</g>
		<g>
			<path class="st1" d="M-196.4,298.7c-0.3,0.8-0.8,3.9-0.6,4.6c-1.2-0.7-3.1-1.9-6.7,1c-0.4-1-1.3-2.9-0.3-4.6
				C-203.1,299.3-200.7,298.2-196.4,298.7z"/>
			<path d="M-203.7,304.7c0,0-0.1,0-0.1,0c-0.1,0-0.2-0.1-0.3-0.2l-0.1-0.2c-0.4-1-1.2-3-0.2-4.7c0-0.1,0.1-0.1,0.2-0.2
				c1-0.4,3.4-1.5,7.8-1c0.1,0,0.2,0.1,0.3,0.2s0.1,0.2,0,0.3c-0.3,0.8-0.7,3.8-0.6,4.4c0,0.2,0,0.3-0.1,0.4c-0.1,0.1-0.3,0.1-0.4,0
				c-1.2-0.7-2.9-1.7-6.3,1C-203.5,304.7-203.6,304.7-203.7,304.7z M-203.7,300c-0.7,1.3-0.2,2.7,0.2,3.7c3-2.2,4.9-1.7,6.1-1.1
				c0-1,0.3-2.6,0.5-3.6C-200.6,298.7-202.8,299.6-203.7,300z"/>
		</g>
		<g>
			<path class="st1" d="M-194.5,305.7c-1.2-0.2-6.2-0.2-9.5,1.4c-0.3,1-0.4,3.2,0.5,8.5c0.6-0.1,6.3-2,9.1-2
				C-194.7,312.6-195.4,310.6-194.5,305.7z"/>
			<path d="M-203.5,316c-0.2,0-0.4-0.1-0.4-0.3c-0.8-4.4-0.9-7.3-0.5-8.7c0-0.1,0.1-0.2,0.2-0.2c3.5-1.7,8.7-1.6,9.7-1.4
				c0.1,0,0.2,0.1,0.3,0.2c0.1,0.1,0.1,0.2,0.1,0.3c-0.8,4.6-0.3,6.6,0.1,7.6l0,0.1c0,0.1,0,0.2-0.1,0.4c-0.1,0.1-0.2,0.2-0.3,0.2
				c-2.1,0-6,1.1-7.8,1.7C-202.9,315.9-203.3,316-203.5,316C-203.5,316-203.5,316-203.5,316z M-203.7,307.4
				c-0.3,1.3-0.1,3.9,0.5,7.7c0.2-0.1,0.4-0.1,0.7-0.2c1.9-0.5,5.3-1.5,7.5-1.7c-0.3-1.1-0.7-3.1,0-7.2
				C-196.5,305.9-200.7,306-203.7,307.4z"/>
		</g>
		<g>
			<path class="st1" d="M-200.4,310.6c-0.3,0.8-0.8,3.9-0.6,4.6c-1.2-0.7-3.1-1.9-6.7,1c-0.4-1-1.3-2.9-0.3-4.7
				C-207,311.2-204.7,310.1-200.4,310.6z"/>
			<path d="M-207.7,316.6c0,0-0.1,0-0.1,0c-0.1,0-0.2-0.1-0.3-0.2l-0.1-0.2c-0.4-1-1.2-3-0.2-4.8c0.1-0.1,0.1-0.2,0.2-0.2
				c0.1,0,0.3-0.1,0.5-0.2c1.2-0.4,3.5-1.2,7.3-0.8c0.1,0,0.2,0.1,0.3,0.2c0.1,0.1,0.1,0.2,0,0.3c-0.3,0.8-0.8,3.8-0.6,4.4
				c0,0.2,0,0.3-0.1,0.4c-0.1,0.1-0.3,0.1-0.4,0c-1.2-0.7-2.9-1.7-6.3,1C-207.5,316.6-207.6,316.6-207.7,316.6z M-207.7,311.8
				c-0.7,1.3-0.2,2.8,0.2,3.7c3-2.2,4.9-1.7,6.1-1.1c0-1,0.3-2.7,0.5-3.6c-3.4-0.3-5.4,0.4-6.5,0.8
				C-207.5,311.8-207.6,311.8-207.7,311.8z"/>
		</g>
		<g>
			<path class="st6" d="M-189,323.8c1.1-3.8-1.5-3.8-2.2-3.7c-5.1,0-8.7-3.4-9.6-4.2l-2.6,2c-4,2.7-2.6,4.5-2,6.4
				c0.2,0.1,0.5,0.3,0.6,0.6c0.2,0.2,0.7,1.4,3-0.3c0.3-0.3,1.4-1.2,2.1-0.1c0.2,0.2,1.5,1.8,3.8,0.1c0.4-0.3,1.3-1.1,2.1,0.2
				c0.2,0.2,0.6,1.3,2.8-0.3C-190.8,324.3-190.1,323.6-189,323.8z"/>
			<path d="M-203.8,325.9c-0.5,0-0.9-0.2-1.2-0.6l-0.1-0.1l-0.1-0.1c0-0.1-0.2-0.3-0.4-0.4l-0.1-0.1l0-0.2c-0.1-0.2-0.2-0.5-0.2-0.7
				c-0.6-1.7-1.3-3.6,2.4-6.1l2.8-2.2l0.3,0.3c3,2.7,6.1,4,9.2,4c0.2,0,1.5-0.2,2.3,0.7c0.6,0.7,0.7,1.9,0.3,3.4l-0.1,0.3l-0.3-0.1
				c-0.9-0.2-1.5,0.4-1.7,0.6c-2.1,1.5-2.9,0.9-3.3,0.4l-0.1-0.1c-0.2-0.3-0.4-0.5-0.6-0.5c-0.3-0.1-0.7,0.2-0.9,0.4l-0.1,0.1
				c-1.6,1.2-3.1,1.1-4.3-0.1l-0.1-0.1c-0.1-0.2-0.3-0.3-0.5-0.4c-0.4,0-0.8,0.3-1,0.5C-202.4,325.5-203.2,325.9-203.8,325.9z
				 M-204.5,324.7C-204.5,324.7-204.4,324.7-204.5,324.7c0.2,0.3,0.7,0.9,2.5-0.4c0.2-0.2,0.8-0.8,1.6-0.7c0.3,0,0.7,0.2,1,0.7
				c0.9,0.9,2,0.9,3.3,0c0.4-0.3,0.9-0.7,1.5-0.6c0.4,0.1,0.8,0.4,1.1,0.9c0,0,0,0,0.1,0.1c0.2,0.2,0.5,0.7,2.2-0.5
				c0.6-0.6,1.2-0.8,1.9-0.8c0.3-1.1,0.2-2-0.2-2.4c-0.5-0.6-1.6-0.5-1.7-0.5c0,0,0,0,0,0c-3.4,0-6.6-1.4-9.7-4.1l-2.4,1.8
				c-3.3,2.2-2.7,3.6-2.1,5.3c0.1,0.2,0.1,0.4,0.2,0.6C-204.9,324.2-204.6,324.4-204.5,324.7z"/>
		</g>
		<g>
			<g>
				<path d="M-205.5,324.7c-0.2,0-0.3-0.1-0.4-0.3c-0.1-0.2-0.2-0.5-0.2-0.7c-0.6-1.7-1.3-3.6,2.4-6.1l2.6-2c0.1-0.1,0.3-0.1,0.5,0
					c0.1,0.1,0.2,0.2,0.4,0.3c1.4,1.1,4.5,3.8,9,3.8c0.4,0,1.8,0,2.5,1c0.5,0.7,0.6,1.8,0.1,3.3c-0.1,0.2-0.3,0.3-0.5,0.3
					c-0.2-0.1-0.3-0.3-0.3-0.5c0.4-1.2,0.4-2,0-2.5c-0.5-0.6-1.5-0.6-1.8-0.6c-4.8,0-8.2-2.9-9.5-4c0,0-0.1-0.1-0.1-0.1l-2.3,1.8
					c-3.3,2.2-2.7,3.6-2.1,5.2c0.1,0.2,0.2,0.5,0.3,0.7c0.1,0.2,0,0.4-0.3,0.5C-205.4,324.7-205.5,324.7-205.5,324.7z"/>
			</g>
			<g>
				<path d="M-191.2,324.6c-5.1,0-8.6-1.5-10.1-2.2l0,0c-0.2,0.1-0.5,0.3-0.8,0.5c-1.9,1.1-3,1.7-3.4,1.7c-0.2,0-0.3-0.1-0.3-0.3
					s0.1-0.3,0.3-0.3c0.4,0,2.3-1.1,3.1-1.6c0.4-0.3,0.8-0.5,1-0.6c0.1,0,0.2,0,0.3,0l0.2,0.1c1.5,0.7,5.1,2.2,10.3,2.1
					c0.2,0,0.3,0.1,0.3,0.3c0,0.2-0.1,0.3-0.3,0.3C-190.9,324.6-191,324.6-191.2,324.6z"/>
			</g>
			<g>
				<path d="M-206.2,322.3c-0.1,0-0.3-0.1-0.3-0.2c0-0.2,0.1-0.3,0.2-0.3c0.3,0,1.5-0.8,2.4-1.4c0.9-0.6,1.7-1.1,2.1-1.3
					c0.1,0,0.2,0,0.3,0c0.1,0,0.2,0.1,0.3,0.2c1.2,0.8,5,3.1,12.3,2.1c0.2,0,0.3,0.1,0.3,0.3c0,0.2-0.1,0.3-0.3,0.3
					c-7.5,1-11.4-1.4-12.7-2.2c-0.1,0-0.1-0.1-0.2-0.1c-0.4,0.2-1.2,0.7-1.9,1.2C-204.9,321.7-205.8,322.2-206.2,322.3
					C-206.2,322.3-206.2,322.3-206.2,322.3z"/>
			</g>
			<g>
				<path d="M-200.8,324.3c-0.2,0-0.3-0.1-0.4-0.3c-1.4-4-0.8-7.2-0.1-8.3c0.1-0.2,0.4-0.2,0.5-0.1c0.2,0.1,0.2,0.4,0.1,0.5
					c-0.5,0.8-1.2,3.8,0.1,7.7c0.1,0.2,0,0.4-0.2,0.5C-200.7,324.3-200.8,324.3-200.8,324.3z"/>
			</g>
		</g>
	</g>
	<g>
		<g>
			<g id="SVGID_5_">
				<path class="st1" d="M-198.7,337.9l-0.3-0.2c-37.9-22.3-37-55.9-33-79.2l0.2-1l0.8,0.6c0,0,4.6,3.8,13.8,3.8
					c11.1,0,18-6.5,18.1-6.5l0.4-0.4l0.4,0.4c0.1,0.1,7,6.5,18.1,6.5c9.2,0,13.8-3.7,13.8-3.8l0.8-0.6l0.2,1
					c4,23.3,4.9,56.9-33,79.2L-198.7,337.9z M-231,259.6c-3.8,22.9-4.2,55.3,32.3,76.9c36.5-21.6,36.1-54,32.3-76.9
					c-1.7,1.1-6.2,3.5-13.8,3.5c-10.2,0-16.8-5.1-18.5-6.5c-1.7,1.4-8.3,6.5-18.5,6.5C-224.8,263.1-229.3,260.7-231,259.6z"/>
			</g>
		</g>
	</g>
	<g>
		<g>
			<g>
				<path class="st6" d="M-210.7,328.1l2.3-3.7l29.1,17.7c1.8,0.9,4.3,2.5,8.7,0.5c2.2-1,3.6,0.5,4.4,1.4c0.4,0.9,0.7,2.2-1.8,3.8
					c-2.9,2.2-5.4,3.6-8.9,0.9l-29-20.2c-1.1-0.4-2.9-1.4-4.1,0L-210.7,328.1z"/>
				<path d="M-173.2,350.5c-1.2,0-2.5-0.4-3.9-1.6l-29-20.2c-0.1,0-0.3-0.1-0.4-0.2c-1.1-0.4-2.4-1-3.3,0.1l-0.2,0.2l-1.2-0.7
					l2.7-4.3l0.3,0.2l29.1,17.7l0.4,0.2c1.7,0.9,4.1,2.1,8,0.3c2.5-1.1,4,0.6,4.8,1.5l0.1,0.1c0.5,1.1,0.7,2.5-1.9,4.2
					C-169.6,349.4-171.3,350.5-173.2,350.5z M-208.4,327.4c0.8,0,1.6,0.3,2.2,0.6c0.2,0.1,0.3,0.1,0.4,0.2l0.1,0l29,20.2
					c3.4,2.6,5.7,1.2,8.5-0.9c2.4-1.6,2-2.7,1.7-3.4c-1-1.1-2.1-2.1-4-1.3c-4.2,1.9-6.8,0.6-8.6-0.3l-0.4-0.2l-28.8-17.5l-1.9,3.1
					l0.2,0.1C-209.6,327.6-209,327.4-208.4,327.4z"/>
			</g>
		</g>
		<g>
			<g>
				<path class="st6" d="M-187.2,328.1l-2.3-3.7l-29.1,17.7c-1.8,0.9-4.3,2.5-8.7,0.5c-2.2-1-3.6,0.5-4.4,1.4
					c-0.4,0.9-0.7,2.2,1.8,3.8c2.9,2.2,5.4,3.6,8.9,0.9l29-20.2c1.1-0.4,2.9-1.4,4.1,0L-187.2,328.1z"/>
				<path d="M-224.7,350.5c-1.9,0-3.6-1.1-5.4-2.5c-2.6-1.7-2.4-3.1-1.9-4.2l0.1-0.1c0.8-0.8,2.3-2.6,4.8-1.5c4,1.8,6.3,0.6,8-0.3
					l0.4-0.2l29.4-17.9l2.7,4.3l-1.2,0.7l-0.2-0.2c-0.9-1-2.2-0.5-3.3-0.1c-0.2,0.1-0.3,0.1-0.4,0.2l-29,20.2
					C-222.2,350.1-223.5,350.5-224.7,350.5z M-231.4,344.2c-0.3,0.6-0.7,1.8,1.7,3.3c2.8,2.1,5.2,3.5,8.5,0.9l29.1-20.2
					c0.1-0.1,0.3-0.1,0.4-0.2c1.1-0.4,2.6-1.1,3.8,0.1l0.2-0.1l-1.9-3.1l-28.8,17.5l-0.4,0.2c-1.8,0.9-4.4,2.2-8.6,0.3
					C-229.3,342.1-230.5,343.1-231.4,344.2z"/>
			</g>
		</g>
	</g>
	<g>
		<path class="st1" d="M-198.5,345.3c17.2,0,30.5-11.5,35.6-18.1c2.1-2.7,1.5-2.9,1-3.5c-1.4-1-4.3-3.4-4.8-4.6
			c1.2-1.9,2.6-1.6,4.1-1.7c0.8,0.7,1,2.6,1.2,3.7c2.8,1,3.9-1.2,4.1-1.8c-2.3-2.7-2.3-7.2-2.5-8.7c-1.8-3-8.2-0.2-9.7,0.7
			c-5.3,3.8-4,6.8-3.8,7.2c0.4,0.3,1.8,1.7,2.6,2.5c-4.5,6.6-15.3,14.6-27.8,14.7c-12.4-0.1-23.2-8.1-27.8-14.7
			c0.8-0.8,2.2-2.2,2.6-2.5c0.1-0.4,1.5-3.4-3.8-7.2c-1.5-1-7.9-3.8-9.7-0.7c-0.2,1.5-0.2,6-2.5,8.7c0.2,0.6,1.3,2.7,4.1,1.8
			c0.2-1,0.4-3,1.2-3.7c1.5,0.1,2.9-0.2,4.1,1.7c-0.5,1.2-3.4,3.5-4.8,4.6c-0.5,0.6-1.1,0.8,1,3.5
			C-229,333.8-215.7,345.3-198.5,345.3z"/>
	</g>
	<g>
		<path class="st1" d="M-198.5,335.7c-14-0.1-26.7-10.8-29.8-18.6c-0.6,0.4-1.2,1.4-1.6,2.1c-0.5,1.2-3.8,3.4-5.2,4.4
			c-0.5,0.6-1.1,0.8,1,3.5c5.1,6.6,18.4,18.1,35.6,18.1s30-11.5,35.1-18.1c2.1-2.7,1.5-2.9,1-3.5c-1.4-1-4.2-3.2-4.7-4.4
			c-0.4-0.7-1-1.6-1.6-2C-171.4,325-184.7,335.8-198.5,335.7z"/>
	</g>
	<g>
		<g>
			<path d="M-169.5,311.3c1.5-1,7.9-3.8,9.7-0.7c0.4,0.6,0.1,3.2-4.4,3.5c1,1.1,1.9,2.7,2,3.2c-1.5,0.1-3.7,0-4.9,1.9
				c-0.7-1.2-2-3.3-3-1.8c-0.6,0.6-2.7,2.6-3.8,1.1C-174,318-174.8,315.1-169.5,311.3z"/>
		</g>
		<g>
			<path d="M-170.7,321.2c-0.1,0-0.2,0-0.2-0.1c0,0-1.9-1.9-2.6-2.4c-0.1-0.1-0.2-0.3-0.1-0.5c0.1-0.2,0.3-0.2,0.5-0.1
				c0.7,0.5,2.6,2.4,2.6,2.4c0.1,0.1,0.1,0.3,0,0.5C-170.5,321.2-170.6,321.2-170.7,321.2z"/>
		</g>
		<g>
			<path d="M-160.1,321.6c-0.4,0-0.9-0.1-1.4-0.2c-0.1,0-0.2-0.1-0.2-0.3l-0.1-0.3c-0.2-1-0.6-3-1.2-3.5c-0.1-0.1-0.2-0.3-0.1-0.5
				c0.1-0.1,0.3-0.2,0.5-0.1c0.8,0.6,1.2,2.3,1.5,3.9l0,0.1c2.3,0.6,3.2-0.9,3.4-1.5c-1.9-2.3-2.1-5.2-2.3-6.9
				c0-0.3-0.1-0.6-0.1-0.8c0-0.2,0.1-0.3,0.3-0.4c0.2,0,0.3,0.1,0.4,0.3c0,0.2,0.1,0.5,0.1,0.9c0.1,1.7,0.4,4.5,2.2,6.7
				c0.1,0.1,0.1,0.2,0.1,0.3C-157.3,320.2-158.3,321.5-160.1,321.6z"/>
		</g>
		<g>
			<path d="M-198.3,336c-0.1,0-0.1,0-0.2,0c-15.4-0.1-27.7-12.1-30-18.5c-0.1-0.2,0-0.4,0.2-0.4c0.2-0.1,0.4,0,0.4,0.2
				c4.2,11.6,21.6,18,29.4,18.1c0.1,0,0.1,0,0.2,0c14.9,0,27.1-11.9,29.2-18.1c0.1-0.2,0.2-0.3,0.4-0.2c0.2,0.1,0.3,0.2,0.2,0.4
				C-171,324.9-184.2,336-198.3,336z"/>
		</g>
		<g>
			<path d="M-227.5,311.3c-1.5-1-7.9-3.8-9.7-0.7c-0.4,0.6-0.1,3.2,4.4,3.5c-1,1.1-1.9,2.7-2,3.2c1.5,0.1,3.7,0,4.9,1.9
				c0.7-1.2,2-3.3,3-1.8c0.6,0.6,2.7,2.6,3.8,1.1C-223,318-222.2,315.1-227.5,311.3z"/>
		</g>
		<g>
			<path d="M-226.2,321.3c-0.1,0-0.2,0-0.2-0.1c-0.1-0.1-0.1-0.3,0-0.5c0.1-0.1,1.9-2,2.6-2.5c0.1-0.1,0.4-0.1,0.5,0.1
				c0.1,0.1,0.1,0.4-0.1,0.5c-0.7,0.5-2.5,2.4-2.6,2.5C-226,321.3-226.1,321.3-226.2,321.3z"/>
		</g>
		<g>
			<path d="M-236.9,321.6c-1.8,0-2.8-1.4-3.1-2.2c0-0.1,0-0.2,0.1-0.3c1.9-2.2,2.1-5,2.2-6.7c0-0.3,0.1-0.6,0.1-0.9
				c0-0.2,0.2-0.3,0.4-0.3c0.2,0,0.3,0.2,0.3,0.4c0,0.2-0.1,0.5-0.1,0.8c-0.1,1.7-0.4,4.6-2.3,6.9c0.2,0.5,1.2,2.1,3.4,1.5l0-0.1
				c0.3-1.6,0.7-3.3,1.5-3.9c0.1-0.1,0.4-0.1,0.5,0.1c0.1,0.1,0.1,0.4-0.1,0.5c-0.6,0.5-1,2.5-1.2,3.5l-0.1,0.3
				c0,0.1-0.1,0.2-0.2,0.2C-236,321.5-236.5,321.6-236.9,321.6z"/>
		</g>
		<g>
			<path d="M-198.5,345.5c-17.2,0-30.6-11.5-35.9-18.2c-1.9-2.4-1.8-3-1.1-3.8l0.1-0.1c1.9-1.5,4.7-4,5.1-5c0.1-0.2,0.3-0.2,0.4-0.2
				c0.2,0.1,0.2,0.3,0.2,0.4c-0.7,1.6-5.3,5.2-5.3,5.2l-0.1,0.1c-0.4,0.4-0.6,0.7,1.1,2.9c5.2,6.7,18.4,18,35.3,18
				c15.5,0,28.4-9.7,34.8-18c1.8-2.3,1.5-2.5,1.1-2.9l-0.1-0.1c-1.4-1-4.2-3.9-4.8-5.2c-0.1-0.2,0-0.4,0.2-0.4
				c0.2-0.1,0.4,0,0.4,0.2c0.5,1.1,3.2,3.9,4.6,5c0,0,0,0,0.1,0.1l0.1,0.1c0.7,0.7,0.8,1.4-1.1,3.8
				C-169.6,335.7-182.8,345.5-198.5,345.5z"/>
		</g>
	</g>
	<g>
		<g>
			<path class="st4" d="M-215.3,334l-1-0.1c-0.1-0.3-0.3-0.6-0.4-0.9c-0.2-0.3-0.4-0.5-0.7-0.7c-0.3-0.3-0.7-0.3-1.1-0.1
				c-0.3,0.1-0.6,0.4-0.9,0.7c-0.6,0.8-0.9,1.6-0.8,2.3c0.1,0.6,0.4,1.2,1,1.7c0.2,0.2,0.4,0.3,0.6,0.4c0.2,0.1,0.3,0.2,0.5,0.2
				l-1.3,0.3l-0.7-0.6c-0.8-0.7-1.2-1.5-1.2-2.4c0-0.7,0.3-1.3,0.7-1.9c0.5-0.6,1.1-1,1.9-1.2c0.9-0.2,1.8-0.1,2.5,0.5
				c0.4,0.3,0.6,0.6,0.7,0.9C-215.4,333.4-215.3,333.7-215.3,334z"/>
			<path class="st4" d="M-219.5,338l-0.8-0.7c-0.8-0.7-1.3-1.6-1.3-2.6c0-0.8,0.4-1.5,0.7-2c0.6-0.7,1.2-1.1,2-1.3
				c1.1-0.2,2,0,2.7,0.5c0.4,0.3,0.6,0.6,0.8,1c0.1,0.3,0.2,0.6,0.2,1v0.2l-1.4-0.1l0-0.1c0-0.1-0.1-0.3-0.2-0.4
				c-0.1-0.1-0.1-0.3-0.2-0.4c-0.2-0.3-0.4-0.4-0.6-0.6c-0.3-0.3-0.7-0.2-0.9-0.1c-0.3,0.1-0.6,0.4-0.8,0.7
				c-0.6,0.8-0.8,1.5-0.7,2.1c0.1,0.6,0.4,1.1,0.9,1.6c0.2,0.2,0.4,0.3,0.6,0.4c0.1,0,0.1,0.1,0.2,0.1c0.1,0.1,0.2,0.1,0.3,0.1
				l0,0.4L-219.5,338z M-217.9,331.8c-0.3,0-0.5,0-0.8,0.1c-0.7,0.2-1.3,0.5-1.8,1.1c-0.3,0.5-0.7,1.1-0.7,1.8
				c0,0.8,0.4,1.6,1.1,2.2l0.6,0.5l0.6-0.1c-0.2-0.1-0.4-0.2-0.6-0.4c-0.6-0.5-0.9-1.1-1.1-1.8c-0.1-0.7,0.2-1.6,0.8-2.5
				c0.3-0.3,0.7-0.7,1-0.8c0.5-0.2,1-0.2,1.3,0.1c0.3,0.2,0.5,0.4,0.7,0.7l0,0c0,0.1,0.1,0.3,0.2,0.4c0.1,0.1,0.1,0.2,0.2,0.4
				l0.6,0.1c0-0.2-0.1-0.4-0.2-0.6c-0.1-0.3-0.3-0.6-0.6-0.8C-216.8,331.9-217.4,331.8-217.9,331.8z"/>
		</g>
		<g>
			<path class="st4" d="M-210,339.1c-0.3,0.8-1,1.3-1.9,1.6c-0.9,0.3-1.7,0.3-2.4-0.1c-0.8-0.4-1.3-0.9-1.6-1.8
				c-0.3-0.8-0.2-1.6,0.2-2.5c0.3-0.7,0.9-1.2,1.7-1.4c0.8-0.3,1.6-0.3,2.3,0.1c0.7,0.3,1.3,0.9,1.7,1.6
				C-209.7,337.5-209.7,338.3-210,339.1z M-211,339.2c0.4-0.8,0.4-1.6,0-2.4c-0.3-0.6-0.9-1.2-1.8-1.6c-0.4-0.2-0.8-0.2-1.1,0.1
				c-0.3,0.2-0.5,0.5-0.8,0.9c-0.4,0.9-0.5,1.7-0.3,2.3c0.2,0.7,0.8,1.3,1.8,1.8c0.4,0.2,0.8,0.2,1.2,0
				C-211.6,340.2-211.3,339.8-211,339.2z"/>
			<path class="st4" d="M-213.1,341.1c-0.5,0-0.9-0.1-1.3-0.3c-0.9-0.4-1.4-1-1.7-1.9c-0.3-0.8-0.2-1.6,0.2-2.6
				c0.3-0.8,1-1.3,1.8-1.5c0.9-0.3,1.7-0.3,2.5,0.1c0.7,0.3,1.3,0.9,1.8,1.7c0.3,1,0.3,1.8,0,2.7l0,0c0,0,0,0,0,0
				c-0.3,0.8-1,1.4-2,1.7C-212.3,341-212.7,341.1-213.1,341.1z M-214,335.1c-0.7,0.2-1.3,0.6-1.5,1.3c-0.4,0.9-0.5,1.6-0.2,2.3
				c0.3,0.8,0.7,1.3,1.5,1.7c0.5,0.3,1,0.4,1.7,0.2c-0.2,0-0.5,0-0.8-0.2c-1-0.5-1.7-1.2-1.9-1.9c-0.2-0.6-0.1-1.5,0.3-2.4l0.1-0.2
				C-214.5,335.6-214.3,335.3-214,335.1C-214,335.1-214,335.1-214,335.1z M-213,334.9c0.1,0,0.2,0.1,0.3,0.1c0.9,0.4,1.5,1,1.9,1.7
				c0.4,0.9,0.4,1.7,0,2.6c-0.2,0.5-0.5,1-1,1.2c0.8-0.3,1.4-0.8,1.6-1.4l0,0c0.3-0.8,0.3-1.5,0-2.4c-0.4-0.7-1-1.2-1.6-1.5
				C-212.2,335-212.6,334.9-213,334.9z M-213.3,335.3c-0.1,0-0.3,0-0.4,0.2c-0.3,0.2-0.4,0.4-0.7,0.7l-0.1,0.2
				c-0.3,0.8-0.5,1.6-0.3,2.1c0.2,0.6,0.8,1.2,1.7,1.7c0.3,0.2,0.7,0.2,1,0c0.3-0.1,0.6-0.4,0.9-1c0.4-0.7,0.4-1.5,0-2.2
				c-0.3-0.6-0.9-1.2-1.7-1.5C-213,335.3-213.2,335.3-213.3,335.3z"/>
		</g>
		<g>
			<path class="st4" d="M-203.3,343.3c-0.3,0.2-0.4,0.2-0.5,0.3c-0.1,0.1-0.3,0.2-0.5,0.2c-0.1-0.8-0.4-1.6-0.7-2.2
				c-0.4-0.7-0.9-1.2-1.6-1.6l0.3-0.2l2.1-0.7c0-0.3-0.2-0.5-0.6-0.8c-0.3-0.3-0.7-0.4-1.1-0.5c-0.2,0-0.5-0.1-0.7,0
				c-0.2,0-0.4,0.1-0.6,0.3l-1.2,4.7l-0.8-0.2l0.9-5.1l-0.3-0.2c0.1-0.1,0.2-0.2,0.3-0.3c0.1-0.1,0.3-0.2,0.5-0.3l0.4,0.2l0.4,0.8
				c0.6-0.2,0.9-0.3,1-0.3c0.4-0.1,0.7-0.1,1.1,0c0.6,0.1,1,0.3,1.4,0.6c0.3,0.2,0.5,0.5,0.7,0.8l-0.3,0.3l-1.9,0.6v0.3
				c0.3,0.2,0.7,0.7,1,1.3C-203.6,342-203.4,342.7-203.3,343.3z"/>
			<path class="st4" d="M-204.3,344h-0.2l0-0.2c-0.1-0.9-0.5-1.7-0.7-2.1c-0.4-0.7-0.8-1.1-1.5-1.5l-0.3-0.2l0.6-0.4l1.9-0.6
				c-0.1-0.1-0.2-0.3-0.5-0.5c-0.3-0.3-0.6-0.4-1-0.5c0,0-0.1,0-0.2,0c-0.1,0-0.3,0-0.4,0l-0.1,0c-0.1,0-0.3,0.1-0.4,0.2l-1.2,4.8
				l-1.2-0.3l0.9-5.2l-0.4-0.3l0.5-0.5c0.1-0.1,0.3-0.2,0.6-0.3l0.1,0l0.6,0.3l0.4,0.7c0.6-0.2,0.8-0.3,0.9-0.3
				c0.4-0.1,0.7-0.1,1.1,0c0.6,0.1,1,0.3,1.5,0.6c0.3,0.2,0.5,0.5,0.7,0.9l0.1,0.1l-0.5,0.5l-1.8,0.6v0c0.3,0.3,0.7,0.8,1,1.3
				c0.4,0.6,0.6,1.3,0.7,2.1l0,0.1l-0.1,0.1c-0.2,0.1-0.3,0.2-0.3,0.2c-0.1,0-0.1,0-0.1,0.1C-203.8,343.9-204,344-204.3,344z
				 M-206.2,340c0.6,0.4,1,0.9,1.4,1.5c0.2,0.4,0.5,1.2,0.7,2.1c0.1,0,0.1-0.1,0.2-0.1c0.1-0.1,0.1-0.1,0.2-0.2c0,0,0.1-0.1,0.2-0.1
				c-0.1-0.7-0.3-1.3-0.7-1.8c-0.3-0.6-0.7-1.1-0.9-1.2l-0.1-0.1v-0.5L-206.2,340z M-209,342.4l0.4,0.1l1.2-4.6l0,0
				c0.1-0.1,0.1-0.1,0.2-0.1l-0.4-0.8l-0.2-0.1c-0.1,0.1-0.3,0.2-0.4,0.2l-0.1,0.1l0.2,0.1L-209,342.4z M-205.9,337.6
				C-205.9,337.6-205.9,337.6-205.9,337.6L-205.9,337.6c0.5,0.1,0.9,0.2,1.3,0.6c0.4,0.3,0.7,0.5,0.7,0.9v0.1l0.8-0.2l0.1-0.1
				c-0.2-0.2-0.3-0.5-0.6-0.6c-0.4-0.3-0.8-0.5-1.3-0.6C-205.3,337.5-205.6,337.5-205.9,337.6z"/>
		</g>
		<g>
			<path class="st4" d="M-197,338.5l-0.9,0.5c-0.3-0.2-0.6-0.4-0.9-0.5s-0.7-0.2-1-0.2c-0.4,0-0.7,0.2-0.9,0.6
				c-0.2,0.3-0.3,0.7-0.3,1.1c0,1,0.2,1.8,0.7,2.3s1.1,0.7,1.8,0.7c0.3,0,0.5,0,0.7,0s0.4-0.1,0.5-0.1l-0.8,1.1h-0.9
				c-1.1,0-1.9-0.4-2.4-1.2c-0.4-0.6-0.6-1.2-0.6-1.9c0-0.8,0.3-1.4,0.8-2.1c0.6-0.7,1.4-1.1,2.4-1.1c0.5,0,0.8,0.1,1.1,0.3
				C-197.5,338-197.3,338.2-197,338.5z"/>
			<path class="st4" d="M-198,344.2h-1c-1.2,0-2-0.4-2.6-1.3c-0.4-0.6-0.6-1.3-0.6-2c0-0.9,0.3-1.5,0.8-2.2c0.7-0.8,1.5-1.2,2.6-1.2
				c0.5,0,0.8,0.1,1.2,0.3c0.3,0,0.5,0.2,0.8,0.6l0.2,0.2l-1.2,0.7l-0.1-0.1c-0.3-0.2-0.6-0.4-0.9-0.5c-0.4-0.1-0.7-0.2-0.9-0.2
				c-0.3,0-0.6,0.2-0.7,0.5c-0.2,0.3-0.3,0.6-0.3,1c0,1,0.2,1.7,0.6,2.2c0.4,0.4,1,0.6,1.7,0.6h0.7c0.1,0,0.2,0,0.3-0.1
				c0.1,0,0.2,0,0.2,0h0.4L-198,344.2z M-200.8,338.7c-0.1,0.1-0.2,0.2-0.2,0.2c-0.5,0.6-0.8,1.2-0.8,2c0,0.6,0.2,1.2,0.6,1.8
				c0.5,0.7,1.2,1.1,2.2,1.1h0.8l0.4-0.6c0,0,0,0,0,0h-0.7c-0.8,0-1.4-0.2-1.9-0.8c-0.5-0.5-0.8-1.3-0.8-2.4
				C-201.2,339.5-201.1,339.1-200.8,338.7C-200.9,338.8-200.8,338.7-200.8,338.7z M-199.8,338.1c0.4,0,0.9,0.1,1.1,0.2
				c0.3,0.1,0.6,0.3,0.8,0.5l0.6-0.3c-0.2-0.1-0.3-0.2-0.4-0.2h-0.1l-0.1,0c-0.2-0.2-0.5-0.3-1-0.3
				C-199.2,337.9-199.6,338-199.8,338.1C-199.9,338.1-199.8,338.1-199.8,338.1z"/>
		</g>
		<g>
			<path class="st4" d="M-190.1,342.8l-0.6,0.7h-0.2l-0.6-0.3l-0.5-2.4l-3.2,0.4l-0.2,2.3l-0.6,0.5l0.2-0.9l-0.2-3.5
				c0.5-0.9,0.9-1.5,1.1-1.7c0.2-0.3,0.5-0.5,0.7-0.5c0.5-0.1,1,0,1.6,0.1c0.5,0.1,1,0.4,1.4,0.6l0.7,4.6L-190.1,342.8z M-192,340.3
				l-0.4-1.7c-0.3-0.1-0.6-0.2-0.7-0.3c-0.5-0.2-0.9-0.2-1.1-0.2c-0.5,0.1-0.8,0.3-0.9,0.6c-0.1,0.2-0.1,0.6,0,1.1
				c0,0.1,0,0.2,0,0.3s0,0.1,0,0.1c0,0.1,0,0.2,0,0.3L-192,340.3z"/>
			<path class="st4" d="M-196.3,344.5l0.3-1.5l-0.2-3.5l0-0.1c0.5-0.9,0.9-1.5,1.1-1.7c0.2-0.3,0.6-0.6,0.8-0.6
				c0.5-0.1,0.9,0,1.5,0.1l0.1,0c0.4,0.1,0.9,0.3,1.2,0.5c0.1,0,0.2,0.1,0.2,0.1l0.1,0l0.7,4.6l0.6,0.1l-0.9,1l-0.4,0l-0.7-0.3
				l-0.5-2.3l-2.8,0.4l-0.2,2.2L-196.3,344.5z M-195.8,339.6l0.2,3.5l-0.1,0.3l0.1-0.1l0.2-2.4l3.6-0.4l0.5,2.5l0.5,0.2h0.1l0.3-0.4
				l-0.2-0.1l-0.7-4.6c0,0-0.1-0.1-0.2-0.1c-0.3-0.2-0.7-0.4-1.1-0.5l-0.1,0c-0.5-0.1-1-0.2-1.4-0.1c-0.1,0-0.4,0.1-0.6,0.4
				c0,0,0,0-0.1,0.1c0.2-0.1,0.3-0.1,0.6-0.2c0.2,0,0.7,0,1.2,0.2l0.1,0c0.1,0.1,0.4,0.2,0.6,0.2l0.1,0l0.5,2l-3.6,0.2v-0.9
				c-0.1-0.2-0.1-0.6-0.1-0.9C-195.5,339.1-195.6,339.4-195.8,339.6z M-194.2,338.3c-0.4,0.1-0.6,0.2-0.7,0.5c-0.1,0.1-0.1,0.5,0,1
				l0,0.5l2.6-0.2l-0.3-1.4c-0.3-0.1-0.5-0.2-0.6-0.3C-193.7,338.3-194,338.3-194.2,338.3z"/>
		</g>
		<g>
			<path class="st4" d="M-187.7,342.6l-1,0.2l-1.5-6l1-0.3L-187.7,342.6z"/>
			<path class="st4" d="M-188.9,343l-1.6-6.4l1.4-0.4l1.6,6.5L-188.9,343z M-190,336.9l1.4,5.6l0.6-0.1l-1.4-5.7L-190,336.9z"/>
		</g>
		<g>
			<path class="st4" d="M-181.5,337.6c0.3,0.8,0.2,1.5-0.2,2.2c-0.4,0.6-0.9,1.1-1.7,1.4c-0.7,0.3-1.5,0.3-2.3-0.1
				c-0.8-0.3-1.3-0.9-1.6-1.6c-0.3-0.7-0.3-1.3-0.1-2c0.2-0.5,0.4-1,0.9-1.5c0.4-0.4,0.7-0.6,1.1-0.8c0.4-0.2,0.8-0.2,1.3-0.2
				s0.9,0.1,1.2,0.3l-0.8,1.4v0.1c0.5-0.2,1-0.2,1.4,0C-181.9,336.9-181.6,337.2-181.5,337.6z M-182,338.6c-0.2-0.5-0.5-0.8-1-0.9
				c-0.4-0.2-0.8-0.2-1.1,0c-0.1,0-0.2,0.1-0.4,0.3c-0.1,0-0.2,0.1-0.3,0.2l-0.2-0.3l1.1-1.6c-0.2-0.3-0.5-0.4-0.9-0.4
				s-0.8,0-1.2,0.1c-0.4,0.2-0.7,0.5-0.9,1.1c-0.1,0.5-0.1,1,0.1,1.4c0.3,0.8,0.8,1.3,1.6,1.7c0.7,0.3,1.4,0.4,2.2,0.1
				c0.4-0.1,0.6-0.4,0.8-0.6C-181.9,339.3-181.8,339-182,338.6z"/>
			<path class="st4" d="M-184.4,341.6c-0.5,0-0.9-0.1-1.4-0.3c-0.8-0.3-1.3-0.9-1.7-1.7c-0.3-0.7-0.3-1.3-0.1-2.1
				c0.2-0.5,0.4-1.1,1-1.6c0.4-0.4,0.8-0.6,1.2-0.8c0.4-0.2,0.9-0.2,1.4-0.2c0.5,0,1,0.1,1.3,0.3l0.2,0.1l-0.7,1.2
				c0.4-0.1,0.8,0,1.1,0.1c0.4,0.1,0.8,0.5,0.9,0.9c0.3,0.8,0.2,1.6-0.2,2.4c-0.5,0.8-1.1,1.2-1.8,1.5
				C-183.7,341.5-184.1,341.6-184.4,341.6z M-187.2,337.4c0,0,0,0.1-0.1,0.1c-0.2,0.7-0.2,1.2,0.1,1.8c0.3,0.7,0.8,1.2,1.5,1.5
				c0.7,0.4,1.5,0.4,2.1,0.1c0.7-0.3,1.2-0.7,1.6-1.3c0.4-0.7,0.4-1.3,0.2-2l0,0c-0.1-0.3-0.3-0.6-0.7-0.7c-0.4-0.2-0.8-0.2-1.3,0
				l-0.3,0.1v-0.4l-0.8,1.2c0,0,0.1,0,0.1-0.1c0.2-0.2,0.3-0.3,0.4-0.3c0.3-0.2,0.8-0.2,1.2,0c0.5,0.1,0.9,0.4,1.1,1
				c0.2,0.5,0.1,0.9-0.2,1.3c-0.1,0.1-0.1,0.1-0.1,0.1c-0.2,0.2-0.4,0.4-0.8,0.5c-0.7,0.3-1.5,0.2-2.3-0.1c-0.9-0.4-1.4-1-1.7-1.8
				C-187.1,338.3-187.2,337.9-187.2,337.4z M-184.8,336.1c-0.4,0-0.8,0-1.2,0.1c-0.4,0.2-0.6,0.5-0.8,1c-0.1,0.5-0.1,0.9,0.1,1.2
				c0.3,0.7,0.7,1.2,1.5,1.6c0.7,0.3,1.4,0.3,2,0.1c0.3-0.1,0.4-0.2,0.6-0.4c0,0,0.1-0.1,0.1-0.1c0.3-0.4,0.3-0.6,0.2-0.9l0,0
				c-0.2-0.5-0.4-0.7-0.8-0.8l-0.1,0c-0.3-0.2-0.7-0.2-0.9,0l-0.1,0h-0.1c0,0-0.1,0.1-0.3,0.2l-0.1,0.1h-0.1c0,0-0.1,0.1-0.2,0.1
				l-0.2,0.2l-0.4-0.6l1.1-1.6C-184.3,336.2-184.5,336.1-184.8,336.1z M-184.8,335.7c0.3,0,0.8,0.1,1.1,0.5l0,0.1l0.5-0.9
				c-0.2-0.1-0.6-0.2-0.9-0.2c-0.5,0-0.9,0-1.2,0.2c-0.2,0.1-0.4,0.2-0.6,0.4C-185.5,335.7-185.2,335.7-184.8,335.7z"/>
		</g>
		<g>
			<path class="st4" d="M-176.2,334.2c0.4,0.7,0.6,1.4,0.5,2c-0.1,0.6-0.3,1-0.7,1.2c-0.1,0.1-0.3,0.1-0.4,0.2c-0.1,0-0.3,0-0.5,0
				l0.1-0.9c0.5,0,0.8-0.1,0.9-0.2c0.1-0.1,0.2-0.3,0.1-0.5c-0.1-0.2-0.2-0.5-0.3-0.8c-0.4-0.6-0.8-0.9-1.4-1.1
				c-0.6-0.2-1.1-0.1-1.6,0.3c-0.2,0.1-0.3,0.3-0.5,0.4c-0.1,0.2-0.2,0.3-0.2,0.6l1.9,3.1l-0.8,0.5l-3.4-5l3.8-2.4v0.6
				c-0.1,0-0.1,0.1-0.1,0.1c-0.1,0.1-0.2,0.1-0.3,0l-2.3,1.3l1.1,1.5c0.1-0.3,0.2-0.5,0.4-0.8c0.2-0.3,0.4-0.5,0.5-0.6
				c0.6-0.4,1.2-0.5,1.7-0.5C-177.1,333.3-176.6,333.6-176.2,334.2z"/>
			<path class="st4" d="M-179.2,339.3l-3.6-5.3l4.3-2.7v1.2h-0.1l0,0c-0.1,0.1-0.2,0.1-0.3,0.1c0,0,0,0,0,0c-0.1,0-0.1,0-0.2,0
				l-2,1.1l0.7,1c0.1-0.2,0.2-0.3,0.3-0.5c0.2-0.3,0.4-0.5,0.5-0.6c0.6-0.4,1.2-0.6,1.8-0.6c0.7,0.1,1.3,0.5,1.7,1.1l0,0
				c0.4,0.8,0.6,1.5,0.5,2.1c-0.1,0.4-0.2,1-0.8,1.3c-0.1,0.1-0.2,0.1-0.3,0.1c0,0-0.1,0-0.1,0l-0.1,0.1h-0.8l0.1-1.3h0.2
				c0.5,0,0.7-0.1,0.8-0.1c0,0,0.1-0.1,0.1-0.3c-0.1-0.2-0.2-0.5-0.3-0.8c-0.4-0.5-0.7-0.8-1.3-1c-0.5-0.2-1-0.1-1.4,0.3
				c-0.1,0.1-0.2,0.1-0.2,0.2c-0.1,0.1-0.1,0.1-0.2,0.2c0,0,0,0,0,0.1c-0.1,0.1-0.1,0.2-0.1,0.3l2,3.2L-179.2,339.3z M-182.2,334.1
				l3.2,4.7l0.5-0.3l-1.8-3v-0.1c0,0,0-0.1,0-0.1l-1.2-1.6L-182.2,334.1z M-177.1,337.4h0.2c0.1,0,0.1-0.1,0.2-0.1c0,0,0.1,0,0.1,0
				l0.1,0c0.3-0.2,0.5-0.5,0.6-1.1c0.1-0.5-0.1-1.2-0.5-1.9c-0.3-0.5-0.8-0.8-1.4-0.9c-0.6,0-1.1,0.2-1.6,0.5
				c-0.1,0.1-0.2,0.2-0.3,0.3c0.5-0.4,1.1-0.5,1.7-0.3c0.7,0.2,1.1,0.6,1.5,1.2l0,0c0.1,0.3,0.2,0.6,0.3,0.8c0.1,0.3,0,0.6-0.1,0.7
				c-0.1,0.1-0.5,0.2-0.9,0.3L-177.1,337.4z"/>
		</g>
	</g>
	<g>
		<g>
			<circle class="st1" cx="-231.8" cy="327.5" r="6.3"/>
			<path class="st7" d="M-231.8,334.1c-3.6,0-6.6-2.9-6.6-6.6s2.9-6.6,6.6-6.6c3.6,0,6.6,2.9,6.6,6.6S-228.2,334.1-231.8,334.1z
				 M-231.8,321.5c-3.3,0-6,2.7-6,6s2.7,6,6,6c3.3,0,6-2.7,6-6S-228.5,321.5-231.8,321.5z"/>
		</g>
		<g>
			<path d="M-234.1,328.7c-0.1,0-0.2-0.1-0.3-0.2c-0.9-3.2,1-6.2,2.2-7.4c0.1-0.1,0.3-0.1,0.4,0c0.1,0.1,0.1,0.3,0,0.4
				c-1.1,1.1-2.9,3.9-2,6.8C-233.8,328.5-233.9,328.6-234.1,328.7C-234.1,328.7-234.1,328.7-234.1,328.7z"/>
		</g>
		<g>
			<path d="M-236.2,329.1c-0.1,0-0.2-0.1-0.3-0.2c-0.9-3.7,1.8-6.9,2.1-7.2c0.1-0.1,0.3-0.1,0.4,0c0.1,0.1,0.1,0.3,0,0.4
				c-1.1,1.2-2.6,3.9-1.9,6.8C-235.9,328.9-236,329-236.2,329.1C-236.2,329.1-236.2,329.1-236.2,329.1z"/>
		</g>
		<g>
			<path d="M-236.7,329.2c-0.6,0-1-0.1-1.3-0.2c-0.1,0-0.2-0.2-0.2-0.3c0-0.1,0.2-0.2,0.3-0.2c0.7,0.2,3.7,0.2,5.6-1.2
				c-0.7-3.4,1.4-5.5,2.1-6.1c0.1-0.1,0.3-0.1,0.4,0c0.1,0.1,0.1,0.3,0,0.4c-0.6,0.5-2.7,2.5-1.9,5.7c0,0.1,0,0.2-0.1,0.3
				C-233.2,328.8-235.2,329.2-236.7,329.2z"/>
		</g>
		<g>
			<path d="M-236.6,331.2c-0.2,0-0.3,0-0.4,0c-0.1,0-0.2-0.2-0.2-0.3c0-0.1,0.2-0.3,0.3-0.2c1.2,0.2,5.7-0.8,6.6-2
				c0.1-0.1,0.3-0.1,0.4,0c0.1,0.1,0.1,0.3,0,0.4C-230.9,330.3-235,331.2-236.6,331.2z"/>
		</g>
		<g>
			<path d="M-235.2,332.9c-0.2,0-0.3-0.1-0.3-0.3s0.1-0.3,0.3-0.3c1.6,0,5.3-0.8,6.5-2c0.1-0.1,0.3-0.1,0.4,0c0.1,0.1,0.1,0.3,0,0.4
				C-229.7,332.1-233.6,332.9-235.2,332.9z"/>
		</g>
		<g>
			<path d="M-227.8,332.3c-0.1,0-0.2-0.1-0.3-0.2c-0.5-2.8-3.8-4.2-3.9-4.3c-0.1-0.1-0.2-0.2-0.1-0.4c0.1-0.1,0.2-0.2,0.4-0.1
				c0.2,0.1,3.7,1.6,4.3,4.7C-227.5,332.1-227.6,332.2-227.8,332.3C-227.8,332.3-227.8,332.3-227.8,332.3z"/>
		</g>
		<g>
			<path d="M-226.1,329.9c-0.1,0-0.2-0.1-0.3-0.2c-0.9-2-2.8-3.5-5.6-4.4l0-0.3l0.1-0.3c3,1,5,2.6,6,4.8c0.1,0.1,0,0.3-0.1,0.4
				C-226,329.9-226.1,329.9-226.1,329.9z"/>
		</g>
		<g>
			<path d="M-225.8,326.9c-0.1,0-0.2,0-0.2-0.1c-1.5-2.2-3.8-3-4.8-3.4c-0.1,0-0.2-0.1-0.3-0.1c-0.1-0.1-0.2-0.2-0.2-0.4
				c0.1-0.1,0.2-0.2,0.4-0.2c0.1,0,0.2,0.1,0.3,0.1c1.1,0.4,3.5,1.2,5.1,3.6c0.1,0.1,0,0.3-0.1,0.4
				C-225.7,326.9-225.7,326.9-225.8,326.9z"/>
		</g>
		<g>
			<path d="M-231.8,334.1c-3.6,0-6.6-2.9-6.6-6.6s2.9-6.6,6.6-6.6c3.6,0,6.6,2.9,6.6,6.6S-228.2,334.1-231.8,334.1z M-231.8,321.5
				c-3.3,0-6,2.7-6,6s2.7,6,6,6c3.3,0,6-2.7,6-6S-228.5,321.5-231.8,321.5z"/>
		</g>
	</g>
	<g>
		<g>
			<circle class="st1" cx="-165.6" cy="328.1" r="6.3"/>
			<path class="st7" d="M-165.6,334.7c-3.6,0-6.6-2.9-6.6-6.6s2.9-6.6,6.6-6.6s6.6,2.9,6.6,6.6S-162,334.7-165.6,334.7z
				 M-165.6,322.1c-3.3,0-6,2.7-6,6s2.7,6,6,6s6-2.7,6-6S-162.3,322.1-165.6,322.1z"/>
		</g>
		<g>
			<path d="M-167.9,329.3c-0.1,0-0.2-0.1-0.3-0.2c-0.9-3.2,0.9-6.1,2.2-7.4c0.1-0.1,0.3-0.1,0.4,0c0.1,0.1,0.1,0.3,0,0.4
				c-1.1,1.1-2.9,3.9-2,6.8C-167.6,329.1-167.7,329.2-167.9,329.3C-167.9,329.3-167.9,329.3-167.9,329.3z"/>
		</g>
		<g>
			<path d="M-170,329.7c-0.1,0-0.2-0.1-0.3-0.2c-0.9-3.7,1.8-6.9,2.1-7.2c0.1-0.1,0.3-0.1,0.4,0c0.1,0.1,0.1,0.3,0,0.4
				c-1.1,1.2-2.6,3.9-1.9,6.8C-169.7,329.5-169.8,329.6-170,329.7C-170,329.7-170,329.7-170,329.7z"/>
		</g>
		<g>
			<path d="M-170.5,329.8c-0.6,0-1-0.1-1.3-0.2c-0.1,0-0.2-0.2-0.2-0.3c0-0.1,0.2-0.2,0.3-0.2c0.7,0.2,3.7,0.2,5.6-1.2
				c-0.7-3.4,1.4-5.5,2.1-6.1c0.1-0.1,0.3-0.1,0.4,0c0.1,0.1,0.1,0.3,0,0.4c-0.6,0.5-2.7,2.5-1.9,5.7c0,0.1,0,0.2-0.1,0.3
				C-167,329.4-169,329.8-170.5,329.8z"/>
		</g>
		<g>
			<path d="M-170.4,331.8c-0.2,0-0.3,0-0.4,0c-0.1,0-0.2-0.2-0.2-0.3c0-0.1,0.2-0.3,0.3-0.2c1.2,0.2,5.7-0.8,6.6-2
				c0.1-0.1,0.3-0.1,0.4,0c0.1,0.1,0.1,0.3,0,0.4C-164.7,330.9-168.8,331.8-170.4,331.8z"/>
		</g>
		<g>
			<path d="M-169,333.5c-0.2,0-0.3-0.1-0.3-0.3s0.1-0.3,0.3-0.3c1.6,0,5.3-0.8,6.5-2c0.1-0.1,0.3-0.1,0.4,0c0.1,0.1,0.1,0.3,0,0.4
				C-163.5,332.7-167.4,333.5-169,333.5z"/>
		</g>
		<g>
			<path d="M-161.6,332.9c-0.1,0-0.2-0.1-0.3-0.2c-0.5-2.8-3.8-4.2-3.9-4.3c-0.1-0.1-0.2-0.2-0.1-0.4c0.1-0.1,0.2-0.2,0.4-0.1
				c0.2,0.1,3.7,1.6,4.3,4.7C-161.3,332.7-161.4,332.8-161.6,332.9C-161.6,332.9-161.6,332.9-161.6,332.9z"/>
		</g>
		<g>
			<path d="M-159.9,330.6c-0.1,0-0.2-0.1-0.3-0.2c-0.9-2-2.8-3.5-5.6-4.4l0-0.3l0.1-0.3c3,1,5,2.6,6,4.8c0.1,0.1,0,0.3-0.1,0.4
				C-159.8,330.6-159.9,330.6-159.9,330.6z"/>
		</g>
		<g>
			<path d="M-159.6,327.5c-0.1,0-0.2,0-0.2-0.1c-1.5-2.2-3.7-3-4.8-3.4c-0.1,0-0.2-0.1-0.3-0.1c-0.1-0.1-0.2-0.2-0.2-0.4
				c0.1-0.1,0.2-0.2,0.4-0.2c0.1,0,0.2,0.1,0.3,0.1c1.1,0.4,3.5,1.2,5.1,3.6c0.1,0.1,0,0.3-0.1,0.4
				C-159.5,327.5-159.5,327.5-159.6,327.5z"/>
		</g>
		<g>
			<path d="M-165.6,334.7c-3.6,0-6.6-2.9-6.6-6.6s2.9-6.6,6.6-6.6s6.6,2.9,6.6,6.6S-162,334.7-165.6,334.7z M-165.6,322.1
				c-3.3,0-6,2.7-6,6s2.7,6,6,6s6-2.7,6-6S-162.3,322.1-165.6,322.1z"/>
		</g>
	</g>
</g>
</svg>
