<?xml version="1.0" encoding="utf-8"?>
<!-- Generator: Adobe Illustrator 19.0.1, SVG Export Plug-In . SVG Version: 6.00 Build 0)  -->
<svg version="1.1" id="Layer_3" xmlns="http://www.w3.org/2000/svg" xmlns:xlink="http://www.w3.org/1999/xlink" x="0px" y="0px"
	 viewBox="-249 251 100 100" style="enable-background:new -249 251 100 100;" xml:space="preserve">
<style type="text/css">
	.st0{fill:#FFFFFF;}
	.st1{clip-path:url(#SVGID_2_);}
	.st2{clip-path:url(#SVGID_4_);}
	.st3{fill:#ED1651;}
</style>
<g>
	<path class="st0" d="M-222.7,323.5c0,0.4,2.7,13.9,3.3,14.1c3.8,0.9,1.4-1.4,1.4-3.2c0,0,2.8-5.7,3-6.2
		C-214.4,326.1-222.7,322.8-222.7,323.5L-222.7,323.5z"/>
	<path d="M-218,338.4c-0.4,0-0.9-0.1-1.5-0.2c-0.5-0.1-0.8-0.2-2.3-7.4c-0.6-2.9-1.4-6.9-1.4-7.2v-0.4l0.4-0.2
		c1-0.4,5.6,1.6,7.3,3.1c1,0.8,1.3,1.6,1.1,2.3c-0.2,0.5-2.5,5.2-3,6.2c0,0.4,0.2,0.9,0.4,1.4c0.3,0.8,0.6,1.5,0.1,2.1
		C-217.2,338.3-217.5,338.4-218,338.4z M-219,337.1c0.8,0.2,1.1,0.1,1.2,0.1c0-0.2-0.2-0.6-0.3-0.9c-0.2-0.6-0.5-1.2-0.5-1.9v-0.1
		l0.1-0.1c1.1-2.3,2.8-5.8,3-6.2c0-0.1-0.1-0.3-0.3-0.5c-1.2-1.4-4.8-3-6.2-3.4C-221.6,326.7-219.7,335.7-219,337.1z"/>
</g>
<g>
	<g>
		<defs>
			<rect id="SVGID_1_" x="-238" y="251.5" width="93.1" height="127.3"/>
		</defs>
		<clipPath id="SVGID_2_">
			<use xlink:href="#SVGID_1_"  style="overflow:visible;"/>
		</clipPath>
		<g class="st1">
			<path class="st0" d="M-183.1,328.2c0,0.4,1.4,5.8,2,6c3.8,0.9,9.1,0.8,9.5-3.1c0.4-3.5-3.4-6.4-7-6
				C-180.7,325.4-183.1,327.5-183.1,328.2L-183.1,328.2z"/>
			<path d="M-177.2,335.3c-1.7,0-3.3-0.3-4-0.5c-1.2-0.4-2.5-6.5-2.5-6.6c0-1.1,2.8-3.4,5-3.7c2.1-0.2,4.4,0.6,6,2.1
				c1.3,1.3,1.9,2.9,1.7,4.5c-0.1,1.2-0.7,2.2-1.7,2.9C-174,335-175.7,335.3-177.2,335.3z M-180.8,333.7c2.4,0.6,5.7,0.7,7.4-0.5
				c0.7-0.5,1.1-1.2,1.2-2.1c0.1-1.3-0.3-2.5-1.4-3.6c-1.3-1.3-3.2-2-5-1.8c-1.8,0.3-3.8,2-4,2.5C-182.4,329-181.3,333-180.8,333.7z
				"/>
		</g>
	</g>
	<g>
		<defs>
			<rect id="SVGID_3_" x="-238" y="251.5" width="93.1" height="127.3"/>
		</defs>
		<clipPath id="SVGID_4_">
			<use xlink:href="#SVGID_3_"  style="overflow:visible;"/>
		</clipPath>
		<g class="st2">
			<path class="st3" d="M-228.3,319.2c7.7,3.8,11.1,6.9,13.4,8.4c2.6,1.7-10.4-2.2-8-0.2c8.7,7.4,30,11,46.3,0.7c1.9-1.2,0,0,0,0
				c-2.6-0.4-7.3-0.6-6.6-1c5.2-2.6,11.8-8.5,12.6-9.3c1.4-1.4-2.5,7.5-0.1,10.4c2.2,2.7,12.4,2.3,9.1,3.2c-1.3,0.3-5.8,4.6-9.5,6.9
				c-10.6,6.4-17.9,8.2-30.2,8c-14.8-0.3-38.1-14-35.5-14c2.5,0,6.8-1.9,8.5-4.4C-226.5,325.4-229,318.9-228.3,319.2L-228.3,319.2z"
				/>
			<path d="M-199.6,346.9c-0.6,0-1.1,0-1.7,0c-13.3-0.3-36.3-12.3-36.3-14.5c0-0.3,0.2-0.7,0.8-0.7c2.4,0,6.5-1.8,8-4.1
				c1-1.4,0.4-4.7,0-6.6c-0.3-1.4-0.4-1.9,0-2.2l0.3-0.2l0.4,0.1c5.9,2.9,9.3,5.4,11.6,7.1c0.7,0.5,1.3,1,1.9,1.3
				c0.2,0.1,0.8,0.5,0.6,1.1c-0.3,0.7-1,0.5-4.4-0.1c-1-0.2-2.5-0.5-3.5-0.6c8.3,6.4,27.7,10.1,43.6,1c-0.5-0.1-1-0.1-1.6-0.2
				c-3.3-0.3-3.8-0.4-3.9-1c0-0.2,0-0.5,0.4-0.7c5.2-2.6,11.8-8.5,12.5-9.2c0.4-0.4,0.7-0.4,1-0.2c0.5,0.3,0.4,0.8,0,2.6
				c-0.5,2.2-1.5,6.4-0.2,8c1.1,1.4,4.9,1.9,7.2,2.2c2,0.3,2.6,0.4,2.7,1c0,0.6-0.6,0.8-1.1,0.9c-0.6,0.1-2.2,1.4-3.8,2.7
				c-1.7,1.4-3.7,3-5.6,4.1C-180.8,344.8-188,346.9-199.6,346.9z M-235.8,332.8c3.7,2.9,22.2,12.7,34.6,12.9
				c12.4,0.2,19.6-1.7,29.9-7.9c1.8-1.1,3.7-2.7,5.4-4c1.5-1.2,2.5-2,3.3-2.5c-0.2,0-0.4,0-0.5-0.1c-2.6-0.4-6.6-0.9-8-2.6
				c-1.7-2-0.7-6.4-0.1-9c0-0.2,0.1-0.3,0.1-0.5c-2,1.8-6.5,5.6-10.6,7.9c0.6,0.1,1.3,0.1,1.9,0.2c1.1,0.1,2.2,0.2,3.1,0.3l0.7-0.4
				l0.6,1l-0.8,0.5c0,0,0,0,0,0l-0.2,0.1v0c-17,10.6-38.4,6.2-46.8-0.9c-0.5-0.4-0.6-0.8-0.4-1.1c0.3-0.7,1.4-0.6,5.5,0.2
				c0.6,0.1,1.2,0.2,1.8,0.3c-0.2-0.2-0.5-0.4-0.7-0.5c-2.1-1.6-5.3-3.9-10.6-6.6c0,0.2,0.1,0.4,0.1,0.6c0.4,2.2,1.1,5.6-0.2,7.5
				C-229.4,330.6-233.1,332.4-235.8,332.8z"/>
		</g>
	</g>
</g>
<g>
	<path class="st0" d="M-223.7,327.4c-1.7-0.8-6.2,13.8-6.2,13.8c21.9,15.8,58.6,6.1,58.6,1.9c0-5.1-4.2-15.6-5.3-15
		C-194.9,339.1-207.7,335-223.7,327.4L-223.7,327.4z"/>
	<path d="M-198.8,350.5c-10.5,0-22.2-2.2-31.4-8.8l-0.3-0.2l0.1-0.4c1-3.1,4.2-13.3,6.2-14.2c0.3-0.1,0.6-0.1,0.8,0h0
		c15.1,7.2,28.1,11.8,46.5,0.7c0.3-0.2,0.6-0.1,0.9,0c1.7,1,5.3,10.8,5.3,15.5c0,0.9-0.9,1.8-2.7,2.7
		C-177.8,348.1-187.7,350.5-198.8,350.5z M-229.2,341c18.5,13.1,47,8.1,55.2,3.8c1.7-0.9,2.1-1.5,2.1-1.7c0-4.7-3.5-13.3-4.6-14.4
		c-18.7,11.2-32,6.5-47.3-0.7C-224.9,328.6-227.4,335.1-229.2,341z"/>
</g>
<g>
	<path class="st3" d="M-237.1,289.3c0-20.4,16.6-37,37-37s37,16.6,37,37c0,20.4-16.6,37-37,37S-237.1,309.8-237.1,289.3
		L-237.1,289.3z"/>
	<path d="M-200.1,327.2c-20.9,0-37.9-17-37.9-37.9c0-20.9,17-37.9,37.9-37.9s37.9,17,37.9,37.9
		C-162.2,310.2-179.2,327.2-200.1,327.2z M-200.1,253.2c-19.9,0-36.1,16.2-36.1,36.1c0,19.9,16.2,36.1,36.1,36.1
		s36.1-16.2,36.1-36.1C-164,269.4-180.2,253.2-200.1,253.2z"/>
</g>
<g>
	<g>
		<path d="M-191.4,314.8c-0.4-0.5-3.9-2.2-6.6-2.3c-2.9,0-7.2,1.9-7,2.3c0.1,0.3-0.1,0.7,0.2,0.9c0.4,0.2,3.9-2.2,6.6-2.2
			c2.6,0,6.1,2.2,6.4,2.1C-191.4,315.5-191.2,315.1-191.4,314.8L-191.4,314.8z"/>
		<path d="M-204.7,316.6c-0.2,0-0.3,0-0.4-0.1l-0.1-0.1c-0.6-0.4-0.6-1-0.6-1.3c0,0,0,0,0-0.1l-0.2-0.3l0.3-0.5c0.6-1,5-2.6,7.7-2.6
			c2.8,0.1,6.7,1.8,7.3,2.6l0,0.1c0.2,0.4,0.3,0.8,0.1,1.2c-0.2,0.4-0.6,0.8-1.1,0.9c-0.4,0.1-0.7,0-1.7-0.5c-1.3-0.6-3.4-1.6-5-1.6
			c-1.5,0-3.5,0.9-4.8,1.6C-203.9,316.4-204.3,316.6-204.7,316.6z"/>
	</g>
	<g>
		<path d="M-197.7,307.4c1.9-0.8,0.8-3.3,0.3-5.4c-0.7-3.1-7-3.9-5.1-6.4c0.4-0.5,1-0.5,1.3-1.1c0.5-1.1-0.2-2-1-2.9
			c-1-1.2-3.6-0.2-3.6-1.8c0-1,1.3-1.2,1.6-2.1c0.4-1.1,0.5-1.8,0.2-2.9c-0.5-2-4.2-1.4-4.1-3.4c0.1-1.3,1.5-1.6,2-2.8
			c0.8-1.9,0.3-3.2,0.2-5.2c-0.1-1.6-1.7-2.9-0.7-4.1c1.1-1.3,2.9,0.3,4.3,0.3c3.3,0-1.8-7.2,0.2-7.5c1-0.2,1.6,0.5,2.6,0.2
			c2.1-0.7-0.2-5.4,2-5.2c1.6,0.1,2.3,3.3,2.8,5.7c0.2,1.3-1.1,2.9,0.2,3.3c1,0.3,1.3-2.2,2.3-1.6c0.8,0.4,0.1,1.5,0.7,2.1
			c1,1.1,3.4-1.6,3.9-0.2c0.8,2-3.7,3.9-4.3,7c-0.1,0.8-0.6,1.4-0.2,2.1c0.6,1.1,2-0.1,3.3,0.2c2.3,0.5-1,3.3-2.1,5.2
			c-0.7,1.3-1.7,1.7-2.1,3.1c-0.2,0.6-0.4,0.9-0.3,1.5c0.1,1.5,2.6,1.1,2.9,2.6c0.5,2.3-4.6,2.6-4.7,3.6c-0.2,1.3,0.8,2,1,3.3
			c0.3,2.4-0.8,3.8-1.1,6.2c-0.3,2.2-0.8,4.7-0.7,5.7c0.2,1,1.7-0.3,2.5-1c1.2-1.2,0.8-4.3,0.8-4.3c0.9-0.3,1.5,0.7,2.5,0.5
			c1.4-0.3,3.6,0.5,2.3-2.8c-0.5-1.3-2-2.5-1-3.4c0.9-0.8,0.7,1.3,3.1,0.5c3.4-1.1-3-5.6-0.7-6.2c1-0.3,2.2,1.4,2.6,0.5
			c0.7-1.3-6.3-7-3.1-8.4c0.8-0.3,1.5,0.1,2.3-0.3c2.1-1-1.3-6.2,1-5.9c1.8,0.2,0.8,3.3,2.5,3.9c2.1,0.8,5.1-4.7,5.1-2.5
			c0,1.2-1.1,1.5-1.5,2.6c-0.4,1.1-1,1.9-0.5,2.9c0.8,1.7,3.9-0.2,4.7,0.2c4.2,1.7-4.8,5.4-2.6,7.7c1,1.1,3.6,1.5,3.6,1.5
			c1.9,2.5-5.5,2.4-5.7,5.5c-0.2,2.5,4.7,3.9,2.9,5.6c-2.6,2.5-4.2-1.6-4.7,0.2c-0.3,0.9,0.2,1.4,0.3,2.3c0.2,1.4,1.4,2.2,0.8,3.5
			c-0.8,1.9-3.2,0.2-5.2,0c-2.8-0.3-4.1-2.4-6.9-2c-1.9,0.3-2.9,0.9-4.4,2c-4.2,2.9-0.8,7.6-5.4,11.9c-0.4,0.4-1.5,0.4-1.5-0.2
			c0.2-1.6,5.9-7.8,2.9-11.1c-1.2-1.4-2.4-1.8-4.3-2.3c-2.6-0.7-7,1.7-6.9,0.3c0.1-1.2,1.2-1.6,1.1-2.8c-0.2-2-8.4,2.4-8.7-1
			c-0.1-2,1.9-2.6,2.6-4.4c0.8-2-8.8-0.6-9.2-2.9c-0.3-2.3,6.1-1.3,6.9-4.4c1.1-4.5-11.3-0.2-11.6-1.8c-0.6-3.1,6.7-2.2,6.1-5.2
			c-0.7-3.3-10.4,2.1-8.7-0.8c0.5-0.8,1.5-0.7,1.6-1.6c0.1-0.6-0.4-0.9-0.3-1.5c0.2-1.9,3.9,0.8,4.7-0.8c0.4-0.9-0.5-1.8,0.2-2.5
			c1-1,1.6,1.8,2.9,2.3c2.5,1,1.4-3.6,3.1-3.3c1.9,0.3-0.2,3.5,1.3,4.7c0.8,0.7,1.6,1.2,2.6,1c1.2-0.3,0.6-3,1.8-2.6
			c1.2,0.3-1.3,3.3,0,3.3c0.7,0,0.8-0.7,1.5-1c2.9-1.2-1.1,6.7,0.3,8c0.9,0.8,2.5-1.1,3.8-0.3c1.5,1-0.6,3.2,0.5,4.6
			c0.7,1,1.8,0.8,2.6,1.6c1.6,1.7,0.8,3.1,1.5,5.9c0.2,0.9,2.2-0.3,2.5,0.3C-200.6,305-199.8,308.3-197.7,307.4L-197.7,307.4z"/>
		<path d="M-201.4,322.6c-0.3,0-0.5,0-0.7-0.1c-0.5-0.2-0.8-0.7-0.8-1.2l0-0.1c0.1-0.6,0.5-1.3,1.3-2.6c1.4-2.3,3.6-5.9,1.8-7.8
			c-1-1.2-2-1.5-3.9-2c-1.1-0.3-2.7,0.1-4,0.4c-1.5,0.4-2.5,0.6-3.1,0c-0.3-0.3-0.5-0.6-0.4-1.1c0.1-0.8,0.4-1.3,0.7-1.8
			c0.2-0.3,0.3-0.5,0.4-0.6c-0.5,0-1.6,0.2-2.4,0.4c-2.1,0.4-4.2,0.9-5.4,0c-0.3-0.3-0.8-0.7-0.9-1.6c-0.1-1.6,0.8-2.5,1.5-3.3
			c0.4-0.4,0.8-0.8,1-1.2c-0.6-0.2-2.1-0.3-3.1-0.4c-2.9-0.2-5.7-0.5-6-2.3c-0.2-1.9,1.8-2.4,3.4-2.8c1.6-0.4,3.2-0.8,3.5-1.9
			c0.1-0.4,0-0.5,0-0.6c-0.7-0.8-4.3-0.3-6.4,0c-3,0.4-4.9,0.6-5.2-0.8c-0.4-2.3,1.9-3.1,3.7-3.6c1.8-0.6,2.5-0.9,2.4-1.5
			c0-0.1-0.1-0.2-0.2-0.2c-0.7-0.5-3.1,0.1-4.6,0.5c-2.1,0.5-3.3,0.8-3.9,0c-0.3-0.5-0.3-1,0.1-1.7c0.4-0.6,0.8-0.8,1.2-1
			c0.1-0.1,0.3-0.2,0.3-0.2c0-0.1,0-0.2-0.1-0.3c-0.1-0.3-0.3-0.7-0.2-1.3c0.1-0.6,0.4-0.9,0.6-1.1c0.7-0.5,1.7-0.3,2.6-0.1
			c0.4,0.1,1.3,0.3,1.5,0.2c0-0.1,0-0.3-0.1-0.6c-0.1-0.5-0.3-1.4,0.4-2.1c0.4-0.4,0.9-0.5,1.2-0.5c0.8,0.1,1.2,0.8,1.7,1.5
			c0.3,0.4,0.7,1,1,1.1c0.3,0.1,0.3,0.1,0.4,0.1c0.2-0.1,0.3-0.8,0.4-1.2c0.2-0.9,0.6-2.5,2.2-2.2c1.8,0.3,1.6,2.1,1.5,3.1
			c-0.1,0.9-0.1,1.5,0.2,1.8c0.8,0.7,1.3,0.9,1.9,0.8c0-0.1,0.1-0.6,0.2-0.8c0.1-0.6,0.3-1.3,0.9-1.7c0.2-0.1,0.6-0.3,1.1-0.1
			c0.3,0.1,0.6,0.3,0.8,0.6c0.3,0.5,0.1,1.2-0.1,1.8c0.1,0,0.1-0.1,0.2-0.1c0.9-0.4,1.5-0.1,1.8,0.1c0.9,0.8,0.5,2.4,0,4.6
			c-0.2,1-0.7,2.9-0.5,3.4c0.2,0,0.5-0.2,0.8-0.3c0.8-0.3,1.9-0.8,2.9-0.1c1.3,0.9,1,2.3,0.8,3.2c-0.2,0.8-0.3,1.3,0,1.6
			c0.2,0.3,0.5,0.5,1,0.6c0.5,0.2,1,0.4,1.5,0.9c1.2,1.3,1.3,2.5,1.4,3.8c0,0.6,0.1,1.3,0.3,2.1c0.1,0,0.3-0.1,0.4-0.1
			c0.6-0.1,1.7-0.3,2.1,0.5l0,0.1l0.2,0.6c0.4,1.2,1,3,1.7,3.4c0.1,0,0.2,0.1,0.5,0l0,0c0.8-0.3,0.6-1.2,0.1-3.3
			c-0.1-0.4-0.2-0.7-0.3-1.1c-0.2-1.1-1.6-1.9-2.8-2.7c-1.3-0.8-2.5-1.5-2.7-2.7c-0.1-0.6,0.1-1.2,0.5-1.8c0.3-0.4,0.6-0.6,0.9-0.7
			c0.2-0.1,0.3-0.2,0.3-0.3c0.2-0.5,0-0.9-0.9-1.9c-0.2-0.3-0.8-0.4-1.4-0.4c-0.8-0.1-2.4-0.3-2.4-1.9c0-1,0.7-1.5,1.1-1.9
			c0.2-0.2,0.5-0.4,0.5-0.5c0.4-1,0.4-1.5,0.2-2.4c-0.1-0.5-0.7-0.7-1.6-1.1c-1-0.4-2.6-0.9-2.5-2.6c0.1-1.1,0.8-1.7,1.3-2.2
			c0.3-0.3,0.6-0.6,0.8-0.9c0.5-1.2,0.4-2.1,0.3-3.3c-0.1-0.5-0.1-1-0.1-1.5c0-0.5-0.2-0.9-0.5-1.4c-0.4-0.9-1-2.1,0-3.3
			c1.1-1.3,2.7-0.7,3.7-0.4c0.5,0.2,0.9,0.3,1.3,0.3c0.1,0,0.2,0,0.2,0c0.2-0.4-0.4-2.2-0.7-3.1c-0.6-1.6-1-2.9-0.5-3.8
			c0.2-0.4,0.6-0.6,1-0.6c0.6-0.1,1.2,0,1.6,0.1c0.4,0.1,0.6,0.2,0.9,0.1c0.4-0.1,0.4-1,0.3-2c0-1.1-0.1-2.1,0.6-2.8
			c0.2-0.2,0.7-0.5,1.4-0.4c2.3,0.1,3,3.8,3.6,6.4c0.1,0.7-0.1,1.4-0.2,1.9c0,0,0,0.1,0,0.2c0.3-0.5,1.1-1.7,2.3-1
			c0.9,0.4,0.9,1.3,0.9,1.8c0,0.1,0,0.4,0,0.4c0.2,0,0.8-0.2,1.1-0.4c0.7-0.3,1.5-0.7,2.2-0.4c0.3,0.1,0.6,0.4,0.8,0.9
			c0.6,1.5-0.7,2.8-1.9,4.1c-1,1-2.1,2.1-2.3,3.4c0,0.3-0.1,0.6-0.2,0.8c-0.1,0.4-0.2,0.5-0.1,0.7c0.1,0.1,0.5,0,0.7-0.1
			c0.6-0.1,1.3-0.3,2-0.1c0.9,0.2,1.3,0.7,1.4,1.1c0.4,1.1-0.6,2.4-1.7,3.8c-0.5,0.6-0.9,1.2-1.2,1.6c-0.3,0.6-0.7,1.1-1.1,1.5
			c-0.4,0.5-0.7,0.8-0.9,1.4c-0.1,0.2-0.1,0.3-0.1,0.4c-0.1,0.4-0.2,0.5-0.1,0.7c0,0.3,0.2,0.4,0.9,0.6c0.8,0.3,1.8,0.7,2,1.9
			c0.5,2.2-1.9,3-3.5,3.6c-0.4,0.1-0.9,0.3-1.2,0.5c0,0.4,0.1,0.7,0.4,1.2c0.2,0.5,0.5,1,0.6,1.7c0.2,1.7-0.2,2.9-0.5,4.1
			c-0.2,0.7-0.5,1.5-0.6,2.3c-0.1,0.7-0.2,1.4-0.3,2c-0.2,1-0.3,2-0.4,2.8c0.3-0.2,0.6-0.5,1-0.8c0.6-0.6,0.6-2.7,0.5-3.5l-0.1-0.7
			l0.7-0.2c0.8-0.3,1.4,0,1.9,0.3c0.3,0.2,0.5,0.2,0.7,0.2c0.4-0.1,0.7-0.1,1.1-0.1c0.3,0,0.8,0,0.9-0.1c0,0,0.1-0.3-0.3-1.4
			c-0.1-0.3-0.4-0.7-0.6-1c-0.5-0.8-1.4-2.2-0.2-3.3c0.7-0.6,1.3-0.5,2,0.1c0.3,0.3,0.5,0.5,1.4,0.2c0.3-0.1,0.4-0.2,0.4-0.2
			c0.1-0.4-0.7-1.6-1.1-2.2c-0.7-1.1-1.4-2-1.1-2.9c0.1-0.3,0.4-0.7,1.1-0.9c0.5-0.2,1,0,1.4,0.2c-0.3-0.4-0.6-0.9-0.9-1.3
			c-1.4-1.9-2.9-3.8-2.4-5.3c0.1-0.4,0.4-1,1.3-1.4c0.6-0.2,1.1-0.2,1.5-0.2c0.4,0,0.6,0,0.8-0.1c0.4-0.2,0.1-1.6,0-2.5
			c-0.3-1.3-0.5-2.3,0.1-3c0.2-0.3,0.7-0.5,1.4-0.4c1.5,0.2,1.8,1.6,2,2.6c0.2,0.8,0.3,1.3,0.6,1.4c0.6,0.2,2-1.1,2.6-1.8
			c0.9-0.9,1.6-1.6,2.3-1.2c0.3,0.1,0.7,0.5,0.7,1.3c0,1-0.6,1.6-1,2.1c-0.2,0.3-0.5,0.5-0.6,0.8c-0.1,0.3-0.2,0.5-0.3,0.7
			c-0.3,0.8-0.4,1.1-0.2,1.5c0.2,0.4,1.1,0.2,2.1-0.1c0.9-0.2,1.6-0.4,2.2-0.1c0.9,0.4,1.4,0.9,1.6,1.6c0.3,1.3-0.9,2.5-2.2,3.7
			c-1.2,1.2-2.1,2.1-1.7,2.6c0.6,0.6,2.2,1.1,3.1,1.2l0.3,0.1l0.2,0.3c0.4,0.6,0.6,1.2,0.4,1.7c-0.3,1.1-1.5,1.6-3,2.2
			c-1.4,0.6-2.9,1.2-3,2.2c-0.1,0.8,0.8,1.6,1.6,2.3c0.9,0.8,1.7,1.5,1.7,2.5c0,0.5-0.2,1-0.7,1.4c-2,1.9-3.6,0.9-4.5,0.3
			c0,0.1,0.1,0.3,0.1,0.5c0.1,0.3,0.2,0.6,0.2,1c0.1,0.4,0.2,0.7,0.4,1.1c0.4,0.7,0.8,1.7,0.3,2.8c-0.9,2-3,1.4-4.4,0.9
			c-0.6-0.2-1.2-0.4-1.7-0.4c-1.4-0.1-2.5-0.7-3.4-1.2c-1.1-0.6-2-1-3.3-0.8c-1.7,0.3-2.6,0.8-4,1.8c-1.8,1.2-2,2.8-2.2,4.7
			c-0.3,2.2-0.6,4.7-3.1,7.1C-200.3,322.4-200.9,322.6-201.4,322.6z M-199.2,317.6c-0.3,0.6-0.7,1.2-1,1.8c-0.2,0.3-0.4,0.6-0.6,0.9
			C-199.9,319.4-199.5,318.5-199.2,317.6z M-204.6,306.8c0.5,0,0.9,0,1.3,0.2c2,0.5,3.4,1,4.7,2.6c0.4,0.4,0.7,0.9,0.9,1.4
			c0.4-0.8,1-1.5,2-2.2c1.5-1.1,2.6-1.8,4.8-2.1c1.9-0.3,3.1,0.4,4.4,1c0.9,0.4,1.7,0.9,2.8,1c0.7,0.1,1.4,0.3,2.1,0.5
			c1.7,0.5,2,0.5,2.2,0c0.2-0.4,0.1-0.7-0.3-1.3c-0.2-0.4-0.5-1-0.6-1.7c0-0.3-0.1-0.5-0.2-0.7c-0.2-0.5-0.4-1.1-0.1-2
			c0.1-0.5,0.4-0.8,0.8-1c0.6-0.2,1.2,0.1,1.7,0.5c0.9,0.6,1.5,0.9,2.4,0c0.1-0.1,0.1-0.1,0.1-0.2c0-0.2-0.7-0.8-1.1-1.2
			c-1-0.9-2.3-2.1-2.2-3.7c0.1-2.1,2.3-3,4.1-3.7c0.6-0.3,1.7-0.7,1.9-1c-0.9-0.2-2.7-0.7-3.7-1.7c-1.6-1.7,0.4-3.6,1.8-5
			c0.6-0.6,1.8-1.7,1.7-2.1c0,0-0.1-0.2-0.6-0.4h0c-0.2,0-0.7,0.1-1,0.2c-1.2,0.3-3.3,0.9-4.2-0.9c-0.6-1.1-0.2-2.1,0.2-2.9
			c0.1-0.1,0.1-0.3,0.2-0.5c-0.9,0.7-2,1.2-3,0.8c-1.3-0.4-1.5-1.7-1.7-2.7c-0.2-0.8-0.3-1-0.4-1.1c0,0.4,0.1,0.9,0.2,1.3
			c0.3,1.5,0.8,3.6-0.9,4.5c-0.6,0.3-1.2,0.3-1.6,0.3c-0.3,0-0.5,0-0.7,0.1c-0.2,0.1-0.2,0.2-0.3,0.2c-0.2,0.7,1.3,2.7,2.1,3.8
			c1.3,1.8,2.2,2.9,1.7,3.9c-0.2,0.4-0.5,0.6-0.7,0.7c-0.6,0.2-1.2-0.1-1.6-0.4c-0.1-0.1-0.3-0.2-0.5-0.3c0.2,0.3,0.5,0.8,0.7,1.1
			c0.8,1.2,1.7,2.5,1.3,3.7c-0.2,0.6-0.7,1.1-1.5,1.3c-1.3,0.4-2.1,0.2-2.7-0.2c0.1,0.2,0.3,0.4,0.4,0.6c0.3,0.4,0.6,0.9,0.7,1.4
			c0.6,1.4,0.6,2.3,0.2,3c-0.5,0.8-1.5,0.9-2.3,0.9c-0.3,0-0.6,0-0.8,0.1c-0.7,0.1-1.3-0.1-1.7-0.3c0,1.2-0.2,2.9-1.1,3.9
			c-1.2,1.1-2.2,1.9-3.2,1.6c-0.2-0.1-0.4-0.2-0.6-0.4c-0.2,0.2-0.5,0.4-0.9,0.5c-0.8,0.4-1.5,0.2-1.9,0c-1.4-0.6-2.1-2.7-2.6-4.4
			l-0.1-0.2c-0.1,0-0.2,0-0.3,0.1c-0.6,0.1-2.1,0.4-2.4-0.9c-0.3-1.1-0.3-2-0.4-2.8c-0.1-1.2-0.1-1.9-0.9-2.7
			c-0.2-0.2-0.5-0.3-0.9-0.5c-0.6-0.2-1.3-0.5-1.8-1.2c-0.8-1-0.5-2.2-0.3-3c0.2-1,0.2-1.2,0-1.3c-0.2-0.1-0.7,0-1.3,0.3
			c-0.7,0.3-1.8,0.7-2.6,0c-1-0.9-0.5-2.9,0-5.2c0.2-0.8,0.5-2,0.5-2.6c-0.1,0.1-0.1,0.1-0.2,0.2c-0.3,0.3-0.7,0.8-1.5,0.8
			c-0.6,0-0.9-0.3-1.1-0.5c-0.1-0.1-0.1-0.2-0.2-0.3c-0.1,0.1-0.2,0.1-0.4,0.1c-1.5,0.3-2.5-0.4-3.4-1.2c-1.1-0.8-0.9-2.3-0.8-3.3
			c0-0.4,0.1-1,0-1.2c-0.1,0.2-0.2,0.6-0.3,0.9c-0.2,0.9-0.5,1.9-1.3,2.3c-0.5,0.3-1.1,0.3-1.8,0c-0.8-0.3-1.4-1.1-1.8-1.8
			c0,0-0.1-0.1-0.1-0.2c0.1,0.4,0.2,1-0.1,1.7c-0.7,1.4-2.4,1.1-3.5,0.8c-0.3-0.1-0.9-0.2-1.1-0.2c0,0.1,0,0.1,0.1,0.2
			c0.1,0.3,0.3,0.7,0.2,1.2c-0.1,0.6-0.4,1-0.7,1.2c0.3-0.1,0.6-0.2,0.9-0.2c2.1-0.5,4.6-1.2,6-0.3c0.5,0.3,0.8,0.8,1,1.4
			c0.5,2.3-1.9,3-3.6,3.6c-1.5,0.5-2.3,0.8-2.5,1.3c0.7,0,2.1-0.2,3.2-0.3c3.2-0.4,6.6-0.9,7.9,0.6c0.3,0.4,0.7,1.1,0.4,2.2
			c-0.6,2.1-2.9,2.7-4.7,3.2c-0.8,0.2-2.2,0.6-2.1,0.9c0.3,0.5,3.1,0.7,4.4,0.8c2.6,0.2,4.1,0.4,4.6,1.3c0.2,0.4,0.3,0.8,0.1,1.2
			c-0.4,0.9-1,1.5-1.5,2.1c-0.7,0.7-1.1,1.2-1.1,1.9c0,0.2,0.1,0.3,0.1,0.3c0.6,0.4,2.7,0,4-0.3c1.8-0.4,3.2-0.7,4-0.1
			c0.3,0.2,0.5,0.6,0.6,1c0.1,1-0.4,1.6-0.7,2.1c-0.1,0.1-0.2,0.2-0.2,0.3c0.4-0.1,0.8-0.2,1.2-0.3
			C-207.1,307.1-205.8,306.8-204.6,306.8z M-205.5,269.7c-0.2,0-0.3,0.1-0.4,0.2c-0.2,0.2-0.2,0.5,0.3,1.4c0.3,0.6,0.6,1.3,0.6,2.1
			c0,0.5,0.1,1,0.1,1.4c0.1,1.3,0.3,2.6-0.4,4.2c-0.3,0.7-0.8,1.2-1.2,1.5c-0.5,0.4-0.7,0.6-0.7,1c0,0.3,0.2,0.4,1.3,0.8
			c1,0.4,2.4,0.9,2.7,2.3c0.4,1.3,0.2,2.2-0.2,3.4c-0.2,0.6-0.7,1-1.1,1.3c-0.3,0.3-0.5,0.4-0.5,0.5c0.1,0.1,0.6,0.2,0.9,0.2
			c0.8,0.1,1.8,0.2,2.5,1c0.7,0.8,1.9,2.1,1.1,3.8c-0.3,0.6-0.7,0.9-1.1,1c-0.2,0.1-0.3,0.2-0.4,0.3c-0.1,0.1-0.2,0.3-0.2,0.4
			c0.1,0.4,1.1,1,1.9,1.5c1.5,0.9,3.2,2,3.6,3.8c0.1,0.3,0.2,0.6,0.2,0.9c0.1-0.5,0.2-1.1,0.2-1.6c0.1-1,0.4-1.9,0.6-2.6
			c0.3-1.1,0.6-2.1,0.5-3.3c-0.1-0.4-0.2-0.7-0.4-1.1c-0.3-0.6-0.7-1.4-0.6-2.4c0.1-0.9,1.1-1.2,2.3-1.7c1.3-0.5,2.5-1,2.4-1.6
			c-0.1-0.3-0.4-0.4-1-0.7c-0.7-0.3-1.9-0.8-1.9-2.1c-0.1-0.6,0.1-1.1,0.2-1.5c0-0.1,0.1-0.2,0.1-0.3c0.3-1,0.8-1.6,1.3-2.1
			c0.3-0.4,0.6-0.7,0.9-1.1c0.4-0.6,0.9-1.3,1.4-1.9c0.5-0.6,1.2-1.6,1.4-2c0,0,0,0-0.1,0c-0.3-0.1-0.8,0-1.2,0.1
			c-0.7,0.2-2,0.5-2.7-0.8c-0.5-0.8-0.2-1.5-0.1-2c0.1-0.2,0.1-0.4,0.1-0.6c0.4-1.8,1.7-3.2,2.8-4.3c0.7-0.8,1.5-1.5,1.6-2
			c-0.2,0.1-0.4,0.2-0.6,0.3c-0.9,0.4-2.2,1-3.1,0c-0.4-0.4-0.5-1-0.5-1.5c-0.3,0.5-1,1.5-2.1,1.2c-1.6-0.5-1.2-2.1-1-2.8
			c0.1-0.4,0.2-0.9,0.2-1.2c-0.3-1.3-1-4.9-2-5l-0.1,0c-0.1,0.3-0.1,1-0.1,1.4c0,1.4,0.1,3.2-1.6,3.8c-0.8,0.2-1.4,0.1-1.9-0.1
			c-0.3-0.1-0.4-0.1-0.6-0.1c0,0.5,0.4,1.4,0.6,2.1c0.6,1.8,1.2,3.6,0.4,4.7c-0.2,0.3-0.7,0.8-1.6,0.8c-0.7,0-1.3-0.2-1.9-0.5
			C-204.8,269.8-205.2,269.7-205.5,269.7z"/>
	</g>
	<g>
		<path d="M-199.2,308.6c-11-7.1-12.6-10.4-14.6-14.6c-0.9-2-2-4.2-4.3-7c-4.4-5.6-7.1-4.9-11.1-3.9c-0.3,0.1-0.7,0.2-1.1,0.3
			l-0.1-0.6c0.4-0.1,0.7-0.2,1-0.3c4.1-1,7-1.7,11.7,4.2c2.3,2.9,3.4,5.1,4.3,7.1c2,4.1,3.6,7.4,14.4,14.4L-199.2,308.6z
			 M-192.2,308.1l-0.2-0.5c5.5-2.4,12.1-6.4,11.9-12.4c-0.2-5.7-0.9-8.4-1.8-11.6c-0.5-1.7-0.9-3.5-1.3-5.9l0.6-0.1
			c0.4,2.4,0.9,4.1,1.3,5.8c0.8,3.1,1.6,6,1.8,11.7C-179.7,300.1-184,304.6-192.2,308.1z M-196.8,301.5c-2.3-5.9-4-23.4-0.2-43.8
			l0.6,0.1c-3.7,20.3-2.1,37.6,0.2,43.4L-196.8,301.5z"/>
	</g>
	<g>
		<path d="M-187.7,312.7c-2.6,0.2-4,4.1-2.5,6.2s4.3,0.9,6.6-0.3c0.8-0.4,1.5-0.5,1.8-1.3c0.4-1.2-1.3-1.6-2.3-2.5
			C-185.3,313.8-186.1,312.6-187.7,312.7L-187.7,312.7z"/>
		<path d="M-187.9,320.9c-1.1,0-2.2-0.4-3-1.5c-0.9-1.3-1-3.3-0.2-5c0.7-1.5,2-2.5,3.4-2.6l0,0c1.6-0.1,2.6,0.8,3.5,1.7
			c0.2,0.2,0.5,0.4,0.7,0.6c0.3,0.2,0.6,0.5,0.9,0.7c0.8,0.5,2.1,1.3,1.6,2.8c-0.4,1-1.1,1.3-1.8,1.6c-0.2,0.1-0.3,0.1-0.5,0.2
			C-184.3,320-186.2,320.9-187.9,320.9z M-187.6,313.6c-0.8,0.1-1.5,0.7-1.9,1.6c-0.5,1.1-0.5,2.4,0.1,3.2c0.8,1.2,2.4,1,5.5-0.6
			c0.2-0.1,0.4-0.2,0.6-0.3c0.6-0.2,0.7-0.3,0.8-0.6c0-0.2-0.6-0.5-0.9-0.7c-0.4-0.2-0.8-0.5-1.2-0.8c-0.3-0.2-0.5-0.4-0.8-0.7
			C-186.3,314-186.8,313.5-187.6,313.6z"/>
	</g>
	<g>
		<path d="M-210.9,314c1.8-0.6,3.3,4.3,1.5,4.6c-2,0.3-2.7,0.4-4.4,0.2c-2.1-0.3-1.5-1.2-1-1.8C-213.6,315.6-213.1,314.6-210.9,314
			L-210.9,314z"/>
		<path d="M-212.3,319.8c-0.5,0-1,0-1.6-0.1c-0.8-0.1-1.8-0.4-2.2-1.2c-0.3-0.9,0.3-1.7,0.6-2c0.2-0.2,0.4-0.4,0.5-0.6
			c0.9-1.1,1.7-2.1,3.8-2.7c0.7-0.2,1.4,0,2.1,0.6c1.1,1,1.6,3.1,1.2,4.4c-0.2,0.7-0.7,1.2-1.4,1.3
			C-210.6,319.7-211.4,319.8-212.3,319.8z M-214.3,317.8c0.1,0,0.3,0.1,0.6,0.1c1.6,0.2,2.2,0.1,4.1-0.2c0.2-0.2,0.1-1.4-0.5-2.4
			c-0.2-0.4-0.5-0.6-0.6-0.5l0,0c-1.6,0.4-2.1,1.1-2.9,2.1c-0.2,0.2-0.3,0.4-0.5,0.6C-214.2,317.7-214.3,317.7-214.3,317.8z"/>
	</g>
	<g>
		<path d="M-191.5,312.5c-1.9,1-2.7,3.9-1.1,5.4c0.9,0.9,3.5,2.6,3.3,0.8c-0.2-1.3,0-4.7,1.6-6.1
			C-186.5,311.8-190.2,311.8-191.5,312.5L-191.5,312.5z"/>
		<path d="M-189.8,320.4c-1.5,0-3.4-1.8-3.4-1.8c-0.8-0.8-1.2-2-1.1-3.3c0.2-1.5,1.1-2.8,2.4-3.5c1-0.5,4.5-1.1,5.2,0.1
			c0.2,0.3,0.3,1-0.4,1.5c-1.2,1.1-1.5,4-1.3,5.3c0.1,1.1-0.5,1.5-0.7,1.7C-189.4,320.3-189.6,320.4-189.8,320.4z M-189.1,312.9
			c-0.7,0-1.6,0.2-2,0.4l0,0c-0.8,0.4-1.3,1.3-1.5,2.2c-0.1,0.4-0.1,1.2,0.6,1.8c0.5,0.5,1.3,1,1.8,1.2
			C-190.3,317.2-190.2,314.6-189.1,312.9z"/>
	</g>
	<g>
		<path d="M-210,313.5c-1.5-1.5,3.7-2,5.2-0.7c1.7,1.4,1.7,4.3,0,5.6c-1,0.8-3,1.8-3.3,0.5C-208.3,317.4-208.2,315.3-210,313.5
			L-210,313.5z"/>
		<path d="M-207.3,320.4c-0.2,0-0.4,0-0.6-0.1c-0.5-0.2-0.9-0.6-1-1.2c0-0.3-0.1-0.6-0.1-0.9c-0.1-1.3-0.3-2.8-1.6-4.1
			c-0.7-0.7-0.6-1.6-0.1-2.1c1.1-1.2,5.1-1.2,6.5,0.1c1,0.8,1.6,2.2,1.6,3.6c0,1.4-0.6,2.6-1.6,3.4
			C-204.4,319.2-205.9,320.4-207.3,320.4z M-209.2,313.1c1.5,1.7,1.7,3.6,1.9,5c0,0.2,0,0.4,0.1,0.6c0.3,0,1.2-0.4,1.9-0.9
			c0.6-0.5,0.9-1.2,0.9-2c0-0.9-0.3-1.7-1-2.2C-206.1,312.8-208.3,312.8-209.2,313.1z"/>
	</g>
</g>
<g>
	<g>
		<path class="st0" d="M-191.7,314.5c-0.4-0.5-3.9-2.2-6.6-2.3c-2.9,0-7.2,1.9-7,2.3c0.1,0.3-0.1,0.7,0.2,0.9
			c0.4,0.2,3.9-2.2,6.6-2.2c2.6,0,6.1,2.2,6.4,2.1C-191.7,315.2-191.5,314.8-191.7,314.5L-191.7,314.5z"/>
		<path d="M-205,315.7c-0.1,0-0.1,0-0.2,0c-0.4-0.2-0.3-0.6-0.3-0.8c0-0.1,0-0.2,0-0.3c0-0.1,0-0.2,0-0.3c0.4-0.7,4.5-2.3,7.2-2.3
			c2.8,0.1,6.3,1.8,6.8,2.4l0,0c0.1,0.2,0.2,0.5,0.1,0.7c-0.1,0.3-0.3,0.5-0.6,0.5c-0.2,0.1-0.4,0-1.3-0.4c-1.3-0.6-3.5-1.6-5.2-1.6
			c-1.7,0-3.7,1-5.1,1.6C-204.4,315.5-204.8,315.7-205,315.7z M-205,314.5c0,0.1,0,0.3,0,0.4c0,0.1,0,0.2,0,0.2
			c0.2-0.1,0.7-0.3,1.2-0.5c1.4-0.7,3.5-1.7,5.3-1.7c1.9,0,4.1,1.1,5.5,1.7c0.4,0.2,0.8,0.4,0.9,0.4c0.1,0,0.2-0.1,0.2-0.2
			c0-0.1,0-0.1,0-0.2c-0.4-0.4-3.7-2.1-6.4-2.2C-200.8,312.5-204.5,314-205,314.5z"/>
	</g>
	<g>
		<path class="st0" d="M-198,307.2c1.9-0.8,0.8-3.3,0.3-5.4c-0.7-3.1-7-3.9-5.1-6.4c0.4-0.5,1-0.5,1.3-1.1c0.5-1.1-0.2-2-1-2.9
			c-0.9-1.4-3.5-0.4-3.5-1.9c0-1,1.3-1.2,1.6-2.1c0.4-1.1,0.5-1.8,0.2-2.9c-0.5-2-4.2-1.4-4.1-3.4c0.1-1.3,1.5-1.6,2-2.8
			c0.8-1.9,0.3-3.2,0.2-5.2c-0.1-1.6-1.7-2.9-0.7-4.1c1.1-1.3,2.9,0.3,4.3,0.3c3.3,0-1.8-7.2,0.2-7.5c1-0.2,1.6,0.5,2.6,0.2
			c2.1-0.7-0.2-5.4,2-5.2c1.6,0.1,2.3,3.3,2.8,5.7c0.2,1.3-1.1,2.9,0.2,3.3c1,0.3,1.3-2.2,2.3-1.6c0.8,0.4,0.1,1.5,0.7,2.1
			c1,1.1,3.4-1.6,3.9-0.2c0.8,2-3.7,3.9-4.3,7c-0.1,0.8-0.6,1.4-0.2,2.1c0.6,1.1,2-0.1,3.3,0.2c2.3,0.5-1,3.3-2.1,5.2
			c-0.7,1.3-1.7,1.7-2.1,3.1c-0.2,0.6-0.4,0.9-0.3,1.5c0.1,1.5,2.6,1.1,2.9,2.6c0.5,2.3-4.6,2.6-4.7,3.6c-0.2,1.3,0.8,2,1,3.3
			c0.3,2.4-0.8,3.8-1.1,6.2c-0.3,2.2-0.8,4.7-0.7,5.7c0.2,1,1.7-0.3,2.5-1c1.2-1.2,0.8-4.3,0.8-4.3c0.9-0.3,1.5,0.7,2.5,0.5
			c1.4-0.3,3.6,0.5,2.3-2.8c-0.5-1.3-2-2.5-1-3.4c0.9-0.8,0.7,1.3,3.1,0.5c3.4-1.1-3-5.6-0.7-6.2c1-0.3,2.2,1.4,2.6,0.5
			c0.7-1.3-6.3-7-3.1-8.4c0.8-0.3,1.5,0.1,2.3-0.3c2.1-1-1.3-6.2,1-5.9c1.8,0.2,0.8,3.3,2.5,3.9c2.1,0.8,5.1-4.7,5.1-2.5
			c0,1.2-1.1,1.5-1.5,2.6c-0.4,1.1-1,1.9-0.5,2.9c0.8,1.7,3.9-0.2,4.7,0.2c4.2,1.7-4.8,5.4-2.6,7.7c1,1.1,3.6,1.5,3.6,1.5
			c1.9,2.5-5.5,2.4-5.7,5.5c-0.2,2.5,4.7,3.9,2.9,5.6c-2.6,2.5-4.2-1.6-4.7,0.2c-0.3,0.9,0.2,1.4,0.3,2.3c0.2,1.4,1.4,2.2,0.8,3.5
			c-0.8,1.9-3.2,0.2-5.2,0c-2.8-0.3-4.1-2.4-6.9-2c-1.9,0.3-2.9,0.9-4.4,2c-4.2,2.9-0.8,7.6-5.4,11.9c-0.4,0.4-1.5,0.4-1.5-0.2
			c0.2-1.6,5.9-7.8,2.9-11.1c-1.2-1.4-2.4-1.8-4.3-2.3c-2.6-0.7-7,1.7-6.9,0.3c0.1-1.2,1.2-1.6,1.1-2.8c-0.2-2-8.4,2.4-8.7-1
			c-0.1-2,1.9-2.6,2.6-4.4c0.8-2-8.8-0.6-9.2-2.9c-0.3-2.3,6.1-1.3,6.9-4.4c1.1-4.5-11.3-0.2-11.6-1.8c-0.6-3.1,6.7-2.2,6.1-5.2
			c-0.7-3.3-10.4,2.1-8.7-0.8c0.5-0.8,1.5-0.7,1.6-1.6c0.1-0.6-0.4-0.9-0.3-1.5c0.2-1.9,3.9,0.8,4.7-0.8c0.4-0.9-0.5-1.8,0.2-2.5
			c1-1,1.6,1.8,2.9,2.3c2.5,1,1.4-3.6,3.1-3.3c1.9,0.3-0.2,3.5,1.3,4.7c0.8,0.7,1.6,1.2,2.6,1c1.2-0.3,0.6-3,1.8-2.6
			c1.2,0.3-1.3,3.3,0,3.3c0.7,0,0.8-0.7,1.5-1c2.9-1.2-1.1,6.7,0.3,8c0.9,0.8,2.5-1.1,3.8-0.3c1.5,1-0.6,3.2,0.5,4.6
			c0.7,1,1.8,0.8,2.6,1.6c1.6,1.7,0.8,3.1,1.5,5.9c0.2,0.9,2.2-0.3,2.5,0.3C-200.9,304.7-200.1,308-198,307.2L-198,307.2z"/>
		<path d="M-201.6,321.7c-0.2,0-0.4,0-0.5-0.1c-0.3-0.1-0.5-0.4-0.5-0.7c0.1-0.5,0.5-1.3,1.2-2.4c1.5-2.5,3.8-6.3,1.8-8.5
			c-1.1-1.3-2.2-1.7-4.2-2.2c-1.2-0.3-2.9,0.1-4.3,0.4c-1.3,0.3-2.2,0.5-2.6,0.2c-0.1-0.1-0.2-0.3-0.2-0.6c0.1-0.6,0.4-1.1,0.6-1.5
			c0.3-0.4,0.5-0.8,0.5-1.3c0-0.1,0-0.1-0.1-0.2c-0.4-0.3-1.8,0-3,0.3c-1.9,0.4-3.9,0.8-4.9,0.1c-0.4-0.3-0.6-0.7-0.6-1.2
			c-0.1-1.3,0.7-2.1,1.4-2.8c0.5-0.5,1-1,1.2-1.7c0-0.1,0-0.2,0-0.2c-0.3-0.5-2.2-0.6-3.7-0.7c-2.6-0.2-5.2-0.4-5.5-1.8
			c-0.2-1.4,1.4-1.8,3-2.2c1.7-0.4,3.5-0.9,3.9-2.4c0.1-0.5,0.1-0.9-0.2-1.1c-0.9-1-4.2-0.6-6.9-0.2c-2.6,0.3-4.3,0.6-4.5-0.3
			c-0.4-1.8,1.6-2.4,3.3-3c1.9-0.6,3-1.1,2.8-2.2c-0.1-0.3-0.2-0.5-0.4-0.6c-1-0.6-3.2,0-5,0.4c-1.9,0.5-2.9,0.7-3.3,0.2
			c-0.3-0.4,0-0.9,0.1-1.1c0.3-0.4,0.6-0.6,0.9-0.8c0.4-0.2,0.6-0.3,0.6-0.7c0-0.2,0-0.4-0.1-0.6c-0.1-0.2-0.2-0.5-0.2-0.9
			c0-0.3,0.2-0.6,0.4-0.7c0.5-0.4,1.3-0.2,2.1,0c1.1,0.3,1.9,0.4,2.2-0.1c0.1-0.3,0.1-0.7,0-1c-0.1-0.5-0.2-1.1,0.3-1.6
			c0.2-0.2,0.5-0.3,0.7-0.3c0.5,0,0.9,0.6,1.3,1.2c0.4,0.5,0.8,1.2,1.2,1.3c0.4,0.1,0.6,0.2,0.8,0.1c0.4-0.2,0.6-0.9,0.7-1.6
			c0.2-0.9,0.5-2,1.5-1.8c1.3,0.2,1.1,1.4,1,2.5c-0.1,0.9-0.2,1.8,0.4,2.3c0.8,0.7,1.5,1.1,2.4,0.9c0.4-0.1,0.5-0.7,0.7-1.3
			c0.1-0.5,0.2-1.1,0.6-1.3c0.2-0.1,0.4-0.1,0.7,0c0.3,0.1,0.4,0.2,0.4,0.4c0.2,0.4,0,1.1-0.3,1.8c-0.1,0.3-0.4,1-0.3,1.1
			c0,0,0,0,0.1,0c0.3,0,0.4-0.1,0.6-0.4c0.2-0.2,0.4-0.4,0.8-0.6c0.5-0.2,0.9-0.2,1.1,0c0.6,0.5,0.3,1.9-0.2,4
			c-0.4,1.6-0.8,3.6-0.3,4c0.3,0.2,0.7,0.1,1.4-0.2c0.7-0.3,1.6-0.6,2.4-0.2c1,0.6,0.7,1.7,0.5,2.6c-0.2,0.8-0.4,1.5,0.1,2.1
			c0.3,0.5,0.8,0.6,1.3,0.8c0.4,0.2,0.9,0.3,1.3,0.7c1.1,1.1,1.1,2.2,1.2,3.5c0,0.7,0.1,1.6,0.4,2.6c0,0.2,0.5,0.1,1,0
			c0.6-0.1,1.2-0.3,1.5,0.2l0.1,0.4c0.4,1.5,1,3.5,2,4c0.3,0.2,0.6,0.2,1,0c1.3-0.5,1-1.9,0.4-4c-0.1-0.4-0.2-0.7-0.3-1.1
			c-0.3-1.3-1.8-2.2-3-3c-1.2-0.7-2.2-1.4-2.4-2.3c-0.1-0.4,0.1-0.9,0.4-1.3c0.2-0.3,0.5-0.4,0.7-0.5c0.3-0.1,0.4-0.3,0.6-0.5
			c0.4-0.9-0.2-1.7-1-2.6c-0.4-0.6-1.1-0.7-1.8-0.8c-0.8-0.1-1.8-0.3-1.8-1.3c0-0.7,0.5-1.1,0.9-1.4c0.3-0.2,0.6-0.5,0.7-0.8
			c0.4-1,0.5-1.7,0.2-2.7c-0.2-0.8-1.1-1.1-2-1.5c-1-0.4-2.2-0.8-2.1-2c0.1-0.9,0.6-1.3,1.1-1.8c0.4-0.3,0.7-0.7,0.9-1.1
			c0.6-1.3,0.5-2.3,0.3-3.6c-0.1-0.5-0.1-0.9-0.1-1.5c0-0.6-0.3-1.1-0.5-1.6c-0.4-0.9-0.8-1.8-0.1-2.7c0.8-1,2-0.6,3-0.2
			c0.5,0.2,1,0.4,1.5,0.4c0.3,0,0.6-0.1,0.7-0.3c0.4-0.6-0.1-2.3-0.6-3.6c-0.5-1.4-0.9-2.6-0.5-3.3c0.1-0.2,0.3-0.3,0.6-0.4
			c0.5-0.1,1,0,1.4,0.1c0.4,0.1,0.8,0.2,1.2,0.1c0.8-0.3,0.8-1.2,0.8-2.6c0-1-0.1-1.9,0.4-2.3c0.2-0.2,0.5-0.3,0.9-0.3
			c1.8,0.1,2.5,3.5,3.1,5.9c0.1,0.6-0.1,1.2-0.2,1.7c-0.3,1-0.3,1.3,0.2,1.4c0.3,0.1,0.5-0.2,0.8-0.7c0.3-0.5,0.8-1.3,1.6-0.8
			c0.6,0.3,0.6,0.9,0.6,1.3c0,0.3,0,0.6,0.2,0.8c0.3,0.4,1,0.1,1.8-0.3c0.6-0.3,1.2-0.6,1.7-0.4c0.2,0.1,0.4,0.3,0.5,0.5
			c0.5,1.2-0.6,2.3-1.8,3.5c-1,1.1-2.2,2.2-2.5,3.7c0,0.3-0.1,0.5-0.2,0.8c-0.2,0.5-0.2,0.8,0,1.1c0.2,0.4,0.6,0.4,1.4,0.2
			c0.5-0.1,1.1-0.3,1.7-0.1c0.5,0.1,0.8,0.3,1,0.7c0.3,0.8-0.6,2-1.6,3.2c-0.5,0.6-1,1.2-1.3,1.7c-0.3,0.6-0.7,1-1,1.4
			c-0.5,0.5-0.8,0.9-1,1.7c0,0.1-0.1,0.3-0.1,0.4c-0.1,0.4-0.2,0.6-0.2,1c0,0.6,0.5,0.8,1.2,1.1c0.7,0.3,1.5,0.6,1.7,1.5
			c0.4,1.7-1.7,2.4-3.2,2.9c-0.6,0.2-1.5,0.5-1.5,0.7c-0.1,0.7,0.1,1.2,0.4,1.7c0.2,0.4,0.5,0.9,0.6,1.5c0.2,1.5-0.2,2.7-0.5,3.8
			c-0.2,0.7-0.5,1.5-0.6,2.4c-0.1,0.7-0.2,1.3-0.3,2c-0.2,1.5-0.5,3-0.4,3.6c0,0,0,0.1,0.1,0.1c0.2,0.1,0.9-0.4,2-1.3
			c1.1-1.1,0.7-4,0.7-4l0-0.2l0.2-0.1c0.6-0.2,1,0,1.5,0.2c0.4,0.2,0.7,0.3,1.1,0.3c0.3-0.1,0.7-0.1,1-0.1c0.6,0,1.2-0.1,1.4-0.4
			c0.1-0.2,0.2-0.7-0.3-1.9c-0.1-0.4-0.4-0.8-0.6-1.1c-0.5-0.8-1.2-1.8-0.3-2.6c0.6-0.5,1-0.1,1.2,0.1c0.3,0.3,0.8,0.7,2,0.3
			c0.4-0.1,0.7-0.3,0.8-0.6c0.2-0.6-0.5-1.7-1.1-2.7c-0.7-1-1.2-1.8-1-2.4c0.1-0.3,0.3-0.4,0.7-0.5c0.6-0.2,1.2,0.2,1.7,0.5
			c0.2,0.1,0.6,0.3,0.7,0.3c0,0,0,0,0.1-0.1c0.2-0.4-0.8-1.7-1.6-2.7c-1.3-1.7-2.7-3.5-2.3-4.8c0.1-0.5,0.4-0.8,1-1
			c0.4-0.2,0.8-0.2,1.2-0.1c0.4,0,0.7,0,1.1-0.2c0.9-0.4,0.5-1.9,0.3-3.2c-0.2-1.1-0.4-2,0-2.5c0.2-0.2,0.5-0.3,0.9-0.3
			c1.1,0.1,1.4,1.2,1.6,2.1c0.2,0.8,0.3,1.6,1,1.8c1,0.4,2.3-0.9,3.2-1.9c0.8-0.8,1.3-1.3,1.7-1.1c0.3,0.1,0.3,0.6,0.3,0.8
			c0,0.8-0.4,1.3-0.8,1.7c-0.3,0.3-0.5,0.6-0.7,1c-0.1,0.2-0.2,0.5-0.3,0.7c-0.3,0.8-0.6,1.3-0.2,2c0.4,0.8,1.4,0.6,2.8,0.2
			c0.8-0.2,1.4-0.4,1.8-0.2c0.7,0.3,1.2,0.7,1.3,1.2c0.2,1-0.9,2-2,3.2c-1.6,1.5-2.5,2.6-1.8,3.4c0.9,1,3.4,1.4,3.4,1.4l0.1,0
			l0.1,0.1c0.3,0.4,0.4,0.8,0.3,1.2c-0.2,0.8-1.3,1.3-2.6,1.8c-1.5,0.6-3.3,1.3-3.4,2.7c-0.1,1,0.9,1.9,1.8,2.7
			c0.8,0.7,1.5,1.3,1.5,2.1c0,0.4-0.2,0.7-0.5,1c-1.7,1.6-3.1,0.7-3.9,0.1c-0.2-0.1-0.5-0.3-0.6-0.3l0,0c0,0-0.1,0-0.1,0.3
			c-0.2,0.5-0.1,0.8,0.1,1.3c0.1,0.3,0.2,0.6,0.2,0.9c0.1,0.5,0.3,0.9,0.5,1.3c0.3,0.7,0.7,1.4,0.3,2.3c-0.7,1.6-2.2,1.1-3.7,0.6
			c-0.6-0.2-1.3-0.4-1.8-0.4c-1.3-0.1-2.3-0.6-3.2-1.1c-1.1-0.6-2.2-1.1-3.6-0.9c-1.8,0.3-2.7,0.8-4.3,1.9c-2,1.4-2.2,3.1-2.4,5.1
			c-0.3,2.1-0.5,4.5-3,6.7C-200.8,321.5-201.2,321.7-201.6,321.7z M-202,320.9c0,0,0,0.1,0.1,0.1c0.3,0.1,0.7,0,0.9-0.1
			c2.3-2.1,2.5-4.3,2.8-6.4c0.2-2.1,0.5-4,2.7-5.5c1.6-1.2,2.6-1.8,4.5-2c1.7-0.2,2.9,0.4,4,1c0.9,0.5,1.8,0.9,3,1
			c0.6,0.1,1.3,0.3,2,0.5c1.5,0.5,2.5,0.7,2.9-0.3c0.3-0.7,0.1-1.2-0.3-1.8c-0.2-0.4-0.5-0.9-0.5-1.5c0-0.3-0.1-0.6-0.2-0.8
			c-0.2-0.5-0.3-1-0.1-1.6c0-0.1,0.1-0.5,0.5-0.6c0.4-0.1,0.7,0.1,1.1,0.4c0.8,0.5,1.8,1.2,3.2-0.1c0.2-0.2,0.3-0.4,0.3-0.6
			c0-0.5-0.6-1-1.3-1.6c-1-0.9-2.1-1.9-2-3.2c0.1-1.7,2-2.5,3.7-3.2c1-0.4,2.1-0.9,2.3-1.4c0-0.2,0-0.4-0.2-0.6
			c-0.5-0.1-2.7-0.5-3.6-1.6c-1.2-1.3,0.4-2.8,1.8-4.2c1-1,2-2,1.9-2.6c-0.1-0.3-0.4-0.6-0.9-0.8c-0.2-0.1-0.9,0.1-1.4,0.2
			c-1.2,0.3-2.9,0.8-3.5-0.5c-0.4-0.9-0.1-1.7,0.2-2.5c0.1-0.2,0.2-0.4,0.3-0.7c0.2-0.5,0.5-0.9,0.8-1.2c0.4-0.4,0.7-0.7,0.7-1.3
			c0-0.1,0-0.2,0-0.2c-0.2,0.1-0.7,0.6-1,0.9c-1.1,1.1-2.6,2.5-3.8,2c-1-0.3-1.2-1.4-1.4-2.2c-0.2-1-0.4-1.6-1-1.6
			c-0.2,0-0.3,0-0.4,0.1c-0.2,0.3,0,1.2,0.1,2c0.3,1.4,0.7,3.2-0.6,3.8c-0.5,0.2-1,0.2-1.4,0.2c-0.3,0-0.6,0-1,0.1
			c-0.3,0.1-0.5,0.4-0.6,0.6c-0.3,1,1.1,2.9,2.2,4.3c1.3,1.7,2,2.7,1.6,3.3c-0.1,0.2-0.2,0.3-0.4,0.4c-0.4,0.1-0.7-0.1-1.2-0.4
			c-0.4-0.2-0.9-0.5-1.2-0.4c-0.2,0-0.3,0.1-0.3,0.2c-0.1,0.3,0.5,1.2,0.9,1.9c0.8,1.1,1.5,2.3,1.2,3.2c-0.2,0.4-0.5,0.8-1.1,1
			c-1.6,0.5-2.2-0.1-2.6-0.5c-0.3-0.2-0.3-0.2-0.4-0.1c-0.5,0.4-0.2,0.9,0.4,1.8c0.3,0.4,0.5,0.8,0.7,1.2c0.5,1.2,0.5,2,0.2,2.5
			c-0.4,0.6-1.1,0.6-1.8,0.6c-0.3,0-0.6,0-0.9,0.1c-0.6,0.1-1-0.1-1.5-0.3c-0.3-0.2-0.6-0.3-0.8-0.2c0.1,0.8,0.2,3.2-0.9,4.3
			c-1,0.9-1.9,1.6-2.6,1.4c-0.2-0.1-0.4-0.2-0.4-0.6c-0.1-0.8,0.1-2.2,0.4-3.8c0.1-0.7,0.2-1.3,0.3-2c0.1-1,0.4-1.8,0.6-2.5
			c0.3-1.1,0.7-2.2,0.5-3.6c-0.1-0.5-0.3-0.9-0.5-1.3c-0.3-0.6-0.6-1.2-0.5-2.1c0.1-0.6,0.8-0.8,1.9-1.2c1.7-0.6,3-1.2,2.8-2.3
			c-0.1-0.6-0.7-0.8-1.3-1.1c-0.7-0.3-1.5-0.6-1.6-1.6c-0.1-0.5,0-0.9,0.2-1.3c0-0.1,0.1-0.2,0.1-0.3c0.2-0.9,0.7-1.4,1.2-1.9
			c0.3-0.4,0.7-0.7,0.9-1.3c0.3-0.6,0.8-1.2,1.3-1.8c0.8-1,1.7-2.1,1.5-2.7c-0.1-0.1-0.2-0.3-0.5-0.3c-0.5-0.1-1,0-1.5,0.1
			c-0.7,0.2-1.6,0.4-2-0.5c-0.3-0.6-0.2-1.1,0-1.6c0.1-0.2,0.1-0.5,0.2-0.7c0.3-1.6,1.6-2.9,2.7-4c1.1-1.1,2-2,1.7-2.9
			c-0.1-0.2-0.1-0.2-0.2-0.2c-0.2-0.1-0.8,0.1-1.2,0.4c-0.8,0.4-1.8,0.8-2.5,0.1c-0.4-0.4-0.4-0.8-0.4-1.2c0-0.5,0-0.7-0.3-0.8
			c-0.2-0.1-0.4,0-0.8,0.6c-0.3,0.5-0.8,1.2-1.4,1c-1.1-0.3-0.8-1.3-0.6-2.1c0.1-0.5,0.3-1,0.2-1.4c-0.4-2-1.1-5.4-2.5-5.5
			c-0.3,0-0.4,0.1-0.5,0.1c-0.3,0.3-0.3,1.1-0.2,1.9c0,1.3,0.1,2.8-1.2,3.2c-0.6,0.2-1.1,0-1.5-0.1c-0.4-0.1-0.7-0.2-1.1-0.1
			c-0.1,0-0.2,0.1-0.2,0.1c-0.2,0.4,0.2,1.6,0.6,2.8c0.6,1.6,1.1,3.3,0.5,4.1c-0.2,0.3-0.6,0.5-1.2,0.5c-0.5,0-1.1-0.2-1.7-0.4
			c-1.1-0.4-1.8-0.6-2.4,0c-0.5,0.6-0.2,1.1,0.2,2c0.3,0.6,0.5,1.2,0.6,1.9c0,0.5,0.1,1,0.1,1.4c0.1,1.3,0.3,2.4-0.3,3.9
			c-0.2,0.6-0.7,1-1.1,1.3c-0.5,0.4-0.9,0.8-0.9,1.4c0,0.8,0.6,1,1.7,1.4c1,0.4,2.1,0.8,2.4,1.9c0.3,1.2,0.2,2-0.2,3.1
			c-0.2,0.5-0.6,0.8-0.9,1.1c-0.4,0.3-0.7,0.6-0.7,0.9c0,0.5,0.3,0.6,1.3,0.7c0.8,0.1,1.7,0.2,2.2,1c0.8,0.9,1.6,1.9,1,3.2
			c-0.2,0.4-0.5,0.6-0.8,0.8c-0.2,0.1-0.4,0.2-0.5,0.4c-0.2,0.3-0.3,0.6-0.3,0.9c0.1,0.7,1.1,1.3,2.1,1.9c1.4,0.9,3,1.8,3.3,3.4
			c0.1,0.3,0.2,0.7,0.3,1c0.5,1.8,1.1,3.9-0.7,4.7l0,0c-0.5,0.2-1,0.2-1.5,0c-1.2-0.6-1.8-2.7-2.3-4.4l-0.1-0.3
			c-0.1,0-0.5,0.1-0.8,0.1c-0.6,0.1-1.5,0.3-1.7-0.5c-0.3-1.1-0.3-1.9-0.4-2.7c-0.1-1.2-0.1-2.1-1.1-3.1c-0.3-0.3-0.7-0.5-1.1-0.6
			c-0.5-0.2-1.1-0.4-1.5-1c-0.6-0.8-0.4-1.7-0.2-2.6c0.2-1,0.3-1.6-0.2-2c-0.5-0.3-1.2-0.1-1.8,0.2c-0.7,0.3-1.4,0.6-2,0.1
			c-0.8-0.7-0.3-2.6,0.2-4.6c0.3-1.3,0.7-3.1,0.4-3.4c-0.1-0.1-0.3,0-0.5,0.1c-0.2,0.1-0.4,0.3-0.6,0.5c-0.2,0.3-0.5,0.6-1,0.6
			c-0.3,0-0.5-0.1-0.6-0.3c-0.3-0.4,0-1,0.3-1.7c0.2-0.4,0.4-1.1,0.3-1.3c0,0,0,0-0.1-0.1c-0.1,0-0.2,0-0.2,0
			c-0.2,0.1-0.3,0.5-0.3,0.9c-0.2,0.7-0.3,1.5-1.1,1.7c-1.2,0.2-2.1-0.4-2.9-1.1c-0.8-0.7-0.7-1.8-0.6-2.8c0.1-1.2,0.1-1.7-0.5-1.8
			c-0.4-0.1-0.6,0.4-0.8,1.4c-0.2,0.8-0.4,1.6-1,1.9c-0.4,0.2-0.8,0.2-1.3,0c-0.6-0.2-1.1-0.9-1.5-1.6c-0.3-0.4-0.6-0.9-0.8-0.9
			c-0.1,0-0.1,0-0.2,0.1c-0.3,0.3-0.2,0.5-0.1,1c0.1,0.4,0.2,0.9,0,1.4c-0.5,1-1.7,0.7-2.8,0.5c-0.7-0.1-1.4-0.3-1.7-0.1
			c0,0-0.1,0.1-0.2,0.4c0,0.2,0,0.4,0.1,0.6c0.1,0.2,0.2,0.5,0.2,0.9c-0.1,0.6-0.5,0.9-0.9,1.1c-0.3,0.2-0.5,0.3-0.7,0.6
			c-0.2,0.3-0.2,0.4-0.2,0.4c0.2,0.2,1.7-0.2,2.7-0.4c2-0.5,4.3-1.1,5.5-0.4c0.4,0.2,0.6,0.6,0.7,1c0.3,1.7-1.5,2.4-3.2,2.9
			c-1.9,0.6-3.1,1.1-2.9,2.3c0.2,0.3,2.4,0,3.9-0.2c3-0.4,6.3-0.8,7.4,0.4c0.4,0.4,0.5,1,0.3,1.7c-0.5,1.8-2.5,2.3-4.3,2.8
			c-1.7,0.4-2.7,0.7-2.6,1.5c0.2,0.9,2.8,1.2,4.9,1.3c2.3,0.2,3.8,0.3,4.2,1c0.1,0.1,0.2,0.4,0,0.7c-0.3,0.8-0.8,1.4-1.4,1.9
			c-0.7,0.7-1.3,1.3-1.2,2.4c0,0.3,0.2,0.6,0.4,0.8c0.8,0.6,2.8,0.2,4.5-0.2c1.6-0.3,2.9-0.6,3.5-0.2c0.2,0.1,0.3,0.3,0.3,0.6
			c0.1,0.7-0.3,1.2-0.6,1.7c-0.2,0.4-0.5,0.7-0.5,1.2c0,0,0,0.1,0,0.1c0.2,0.2,1.3-0.1,2.1-0.3c1.4-0.3,3.2-0.8,4.6-0.4
			c1.9,0.5,3.2,0.9,4.4,2.4c2.3,2.5-0.1,6.5-1.7,9.2C-201.5,319.7-202,320.5-202,320.9C-202,320.9-202,320.9-202,320.9z"/>
	</g>
	<g>
		<path d="M-199.5,308.3c-10.9-7.1-12.6-10.5-14.5-14.6c-1-2.1-2-4.2-4.3-7.1c-4.4-5.6-7.1-4.9-11.1-4c-0.3,0.1-0.7,0.2-1.1,0.3
			l-0.1-0.6c0.4-0.1,0.7-0.2,1-0.3c4.1-1,7-1.7,11.6,4.2c2.3,2.9,3.4,5.2,4.4,7.2c2,4.1,3.6,7.4,14.3,14.3L-199.5,308.3z
			 M-192.5,307.8l-0.2-0.5c5.5-2.4,12.1-6.4,11.9-12.4c-0.2-5.7-0.9-8.4-1.7-11.6c-0.5-1.7-0.9-3.5-1.3-5.9l0.6-0.1
			c0.4,2.4,0.9,4.1,1.3,5.8c0.8,3.1,1.6,6,1.8,11.7C-180,299.8-184.3,304.3-192.5,307.8z M-197.1,301.2c-2.3-5.9-4-23.4-0.2-43.8
			l0.6,0.1c-3.7,20.3-2.1,37.6,0.2,43.4L-197.1,301.2z"/>
	</g>
	<g>
		<path class="st0" d="M-188,312.4c-2.6,0.2-4,4.1-2.5,6.2s4.3,0.9,6.6-0.3c0.8-0.4,1.5-0.5,1.8-1.3c0.4-1.2-1.3-1.6-2.3-2.5
			C-185.6,313.5-186.4,312.3-188,312.4L-188,312.4z"/>
		<path d="M-188.2,320c-1,0-1.9-0.3-2.5-1.3c-0.8-1.2-0.9-2.9-0.2-4.4c0.6-1.3,1.7-2.2,2.9-2.3l0,0c1.4-0.1,2.2,0.7,3.1,1.5
			c0.2,0.2,0.5,0.4,0.7,0.7c0.3,0.3,0.7,0.5,1,0.7c0.8,0.5,1.7,1.1,1.4,2.1c-0.3,0.7-0.8,1-1.4,1.2c-0.2,0.1-0.3,0.1-0.5,0.2
			C-184.8,319.1-186.6,320-188.2,320z M-188,312.7c-1,0.1-1.9,0.8-2.4,1.9c-0.6,1.3-0.6,2.9,0.1,3.8c1.3,1.8,3.8,0.9,6.2-0.4
			c0.2-0.1,0.4-0.2,0.5-0.2c0.6-0.2,0.9-0.4,1.1-0.9c0.2-0.5-0.2-0.8-1.1-1.4c-0.4-0.2-0.8-0.5-1.1-0.8c-0.3-0.2-0.5-0.4-0.7-0.7
			C-186.2,313.3-186.9,312.6-188,312.7z"/>
	</g>
	<g>
		<path class="st0" d="M-211.2,313.7c1.8-0.6,3.3,4.3,1.5,4.6c-2,0.3-2.7,0.4-4.4,0.2c-2.1-0.3-1.5-1.2-1-1.8
			C-213.9,315.3-213.4,314.4-211.2,313.7L-211.2,313.7z"/>
		<path d="M-212.6,318.9c-0.5,0-1,0-1.6-0.1c-1-0.1-1.5-0.4-1.7-0.9c-0.2-0.6,0.3-1.1,0.5-1.4c0.2-0.2,0.3-0.4,0.4-0.5
			c0.9-1.1,1.6-1.9,3.6-2.6c0.5-0.2,1,0,1.5,0.4c0.9,0.9,1.4,2.7,1.1,3.8c-0.2,0.5-0.5,0.8-1,0.9
			C-210.9,318.8-211.7,318.9-212.6,318.9z M-210.9,313.9c-0.1,0-0.1,0-0.2,0l0,0c-1.8,0.6-2.4,1.3-3.3,2.4c-0.1,0.2-0.3,0.3-0.4,0.5
			c-0.1,0.2-0.5,0.6-0.4,0.8c0,0.1,0.2,0.4,1.2,0.5c1.7,0.2,2.3,0.1,4.3-0.2c0.2,0,0.4-0.2,0.5-0.5c0.3-0.9-0.2-2.5-0.9-3.2
			C-210.4,314.1-210.7,313.9-210.9,313.9z"/>
	</g>
	<g>
		<path class="st0" d="M-191.7,312.2c-1.9,1-2.7,3.9-1.1,5.4c0.9,0.9,3.5,2.6,3.3,0.8c-0.2-1.3,0-4.7,1.6-6.1
			C-186.8,311.5-190.5,311.5-191.7,312.2L-191.7,312.2z"/>
		<path d="M-190,319.5c-1,0-2.5-1.2-3-1.7c-0.7-0.7-1.1-1.7-0.9-2.8c0.2-1.3,1-2.5,2.1-3.1c0.9-0.5,3.9-0.8,4.4-0.1
			c0.1,0.1,0.2,0.4-0.3,0.7c-1.5,1.3-1.7,4.6-1.5,5.8c0.1,0.7-0.2,0.9-0.4,1C-189.7,319.5-189.9,319.5-190,319.5z M-189,312
			c-0.8,0-2,0.1-2.5,0.5l0,0c-0.9,0.5-1.6,1.5-1.8,2.6c-0.1,0.9,0.1,1.7,0.7,2.3c0.8,0.8,2.3,1.7,2.7,1.5c0.1-0.1,0.1-0.3,0.1-0.4
			c-0.2-1.1-0.1-4.8,1.7-6.4c0,0,0,0,0,0C-188.3,312-188.6,312-189,312z"/>
	</g>
	<g>
		<path class="st0" d="M-210.3,313.2c-1.5-1.5,3.7-2,5.2-0.7c1.7,1.4,1.7,4.3,0,5.6c-1,0.8-3,1.8-3.3,0.5
			C-208.6,317.1-208.5,315-210.3,313.2L-210.3,313.2z"/>
		<path d="M-207.6,319.5c-0.2,0-0.3,0-0.4-0.1c-0.2-0.1-0.6-0.3-0.7-0.8c0-0.3-0.1-0.5-0.1-0.8c-0.1-1.4-0.3-3-1.7-4.5
			c-0.6-0.6-0.3-1.1-0.1-1.2c0.9-0.9,4.4-1,5.7,0.1c0.9,0.7,1.4,1.9,1.4,3.1c0,1.2-0.5,2.3-1.4,2.9
			C-205.5,318.8-206.7,319.5-207.6,319.5z M-208,312c-1,0-2,0.2-2.3,0.5c-0.1,0.1-0.2,0.2,0.1,0.4c1.6,1.6,1.8,3.4,1.9,4.8
			c0,0.3,0,0.5,0.1,0.7c0.1,0.2,0.2,0.3,0.3,0.3c0.5,0.2,1.7-0.4,2.5-1c0.7-0.6,1.1-1.5,1.2-2.5c0-1.1-0.4-2.1-1.2-2.7
			C-205.8,312.2-206.9,312-208,312z"/>
	</g>
</g>
<g>
	<g>
		<g>
			<g>
				<path class="st3" d="M-206.6,339c0,0-1.7-0.1-3.3,0c-5.8,0.2-4.5,7.7-1.3,7.7c0.6,0.1,0.9,0.1,3.1,0c2.6-0.2,3.7-1.9,3.7-3.8
					C-204.3,341-205.5,339-206.6,339z M-209.1,345.7c-3.1,0-3-5.6,0-5.7C-205.9,340.1-206.5,345.7-209.1,345.7z"/>
			</g>
		</g>
	</g>
	<g>
		<g>
			<g>
				<path class="st3" d="M-216,337.8c0,0-1.7-0.7-3.4-1.2c-6.9-2.3-6,6.2-3.7,7c0.6,0.3,0.9,0.4,3.2,1c2.8,0.7,4.5-0.6,5.1-2.3
					C-214.2,340.4-214.8,338.2-216,337.8z M-220.6,343.2c-2.4-0.8-1.5-6.2,1.6-5.2C-215.6,339.1-217.8,344.1-220.6,343.2z"/>
			</g>
		</g>
	</g>
	<g>
		<path class="st3" d="M-203.1,339.8c1.1,0.1,3.3,0,3.7-0.2c0,0-0.3,7.4,0.4,8.1h-3.5c0.3-0.4,0.4-4.5,0.5-6.3
			C-202.2,340.7-203,340.3-203.1,339.8z"/>
	</g>
	<g>
		<path class="st3" d="M-202.4,338.4c0.4-1,1.8-1.9,2.3-2.1c0.7-0.1,1.8,0.9,1.9,0.9c-0.4,0.3-1.8,1.5-2.1,1.7
			C-200.6,338.8-201.8,338.9-202.4,338.4z"/>
	</g>
	<g>
		<g>
			<g>
				<path class="st3" d="M-189.4,343.8c4.1-3.3,1-5.6-0.1-5.7c-1.2-0.3-3.7,1-4.6,1.9l-0.3-1c-0.3,0.4-3,0.5-3.7,0.6
					c0.3,0.1,1.7,1.4,2,2l0.1,5.8l2.8-0.3c-0.4-0.2-0.3-1.8-0.3-1.8c0.2,0,2.5,0.9,3.6,1.1c0.9,0.1,3.5,0,4.2-0.9
					C-186.5,345.5-188.5,344.3-189.4,343.8z M-193.6,344.4c-0.2-2.3,1.4-5.1,3.1-4C-188.9,341.4-191.5,344.3-193.6,344.4z"/>
			</g>
		</g>
	</g>
	<g>
		<g>
			<g>
				<path class="st3" d="M-179.4,342.7c-0.8,0.2-3.2,0.7-3.2-1.8l4.4-1.6c0.4-0.1,1.4-0.4,1.6-0.4c0.1-1.8-0.4-3.7-2.8-3.5
					c-2.3,0.2-7,2.6-5.8,6.9c1.1,3.2,3,2.6,4.4,2.2c0.3-0.1,3.9-1.7,4.4-1.6c0.2-0.9,0.4-3.4,0.5-3.6
					C-176.3,339.8-178.6,342.5-179.4,342.7z M-180.7,337.2c0.4,0,1.7,0.3,1.6,1.3c-0.2,0.3-3,1-3.6,1.2
					C-182.6,338.1-181.2,337.2-180.7,337.2z"/>
			</g>
		</g>
	</g>
	<g>
		<path class="st3" d="M-222.3,331.5c0,0,3.9,1.4,4,1.4l3.4,6l-3.3-1.4L-222.3,331.5z"/>
	</g>
</g>
</svg>
