<?xml version="1.0" encoding="utf-8"?>
<!-- Generator: Adobe Illustrator 19.0.1, SVG Export Plug-In . SVG Version: 6.00 Build 0)  -->
<svg version="1.1" id="Layer_15" xmlns="http://www.w3.org/2000/svg" xmlns:xlink="http://www.w3.org/1999/xlink" x="0px" y="0px"
	 viewBox="-249 251 100 100" style="enable-background:new -249 251 100 100;" xml:space="preserve">
<style type="text/css">
	.st0{fill:#EC1C24;stroke:#231F20;stroke-width:0.6636;}
	.st1{fill:#231F20;}
	.st2{fill:#A6A8AB;}
	.st3{fill:#D0D2D3;stroke:#231F20;stroke-width:0.6636;}
	.st4{fill:#FFFFFF;stroke:#231F20;stroke-width:0.6636;}
	.st5{fill:#D0D2D3;stroke:#000000;stroke-width:0.6636;}
	.st6{fill:#FFFFFF;}
	.st7{fill:#8DD7F7;stroke:#231F20;stroke-width:0.6636;}
	.st8{fill:none;stroke:#231F20;stroke-width:0.6741;}
	.st9{fill:none;stroke:#231F20;stroke-width:0.6739;}
	.st10{fill:none;stroke:#231F20;stroke-width:0.6792;}
	.st11{fill:none;stroke:#231F20;stroke-width:0.6706;}
	.st12{fill:none;stroke:#231F20;stroke-width:0.6636;}
	.st13{fill:#A6A8AB;stroke:#231F20;stroke-width:0.6636;}
	.st14{fill:#A6A8AB;stroke:#000000;stroke-width:0.2373;stroke-linecap:round;stroke-linejoin:round;}
	.st15{fill:none;stroke:#000000;stroke-width:0.1846;stroke-linecap:round;stroke-linejoin:round;}
	.st16{fill:#231F20;stroke:#000000;stroke-width:0.2636;stroke-linecap:round;stroke-linejoin:round;}
	.st17{fill:#FFFFFF;stroke:#000000;stroke-width:0.3318;stroke-linecap:round;stroke-linejoin:round;}
	.st18{fill:none;stroke:#000000;stroke-width:0.3318;stroke-linecap:round;stroke-linejoin:round;}
	.st19{fill:none;stroke:#000000;stroke-width:0.2636;stroke-linecap:round;stroke-linejoin:round;}
	.st20{fill:#C6E9FA;stroke:#58595B;stroke-width:0.4278;}
	.st21{fill:#C6E9FA;stroke:#58595B;stroke-width:0.4216;}
	.st22{fill:none;stroke:#231F20;stroke-width:0.209;}
</style>
<path class="st0" d="M-215.5,271.9c-3.3-3.8-2.8-6.1,1.1-9.6c0,0.1-0.5,1.6-0.1,3.2c0.9-1.8,1.8-3,2.9-3.5c-0.7,1.2-0.6,3.9-0.1,4.6
	C-211,267.6-211.8,271.6-215.5,271.9z"/>
<path class="st0" d="M-182.9,271.9c-3.3-3.8-2.8-6.1,1.1-9.6c0,0.1-0.5,1.6-0.1,3.2c0.9-1.8,1.8-3,2.9-3.5c-0.7,1.2-0.6,3.9-0.1,4.6
	C-178.4,267.6-179.2,271.6-182.9,271.9z"/>
<path class="st1" d="M-194.9,266.6h1.6l-1.6,0.6c0,0.4-0.4,0.7-0.6,0.8c0.2,0.5,0.9,4.8-4.8,6.5c-1,0.3-2.3,0.5-3.8,0.6
	c1.4-1.5,5.1-6.6,6.5-7.2c0-1,0.5-2,1.5-2.1C-195.2,265.8-194.9,266.5-194.9,266.6z"/>
<path class="st2" d="M-197.2,269.8c0.5,0.9,0.4,4.2-5.2,4.7c0.3-1,1.5-1.7,2.5-2.7c0.5-0.1-0.6,1-1.1,1.8
	C-200.2,273.5-197.7,271.9-197.2,269.8z"/>
<ellipse class="st2" cx="-195.5" cy="266.8" rx="0.3" ry="0.3"/>
<path class="st1" d="M-200,275.2c0.5,0.1,0.4-0.7,0.5-1c-0.7,0.1-0.9,0.2-0.9,0.2S-200.4,275.1-200,275.2z"/>
<path class="st1" d="M-198.3,274.6c0.5,0.1,0.4-0.7,0.5-1c-0.7,0.1-0.9,0.2-0.9,0.2S-198.7,274.5-198.3,274.6z"/>
<rect x="-198.4" y="274.4" class="st1" width="0.3" height="2.6"/>
<rect x="-200.1" y="275" class="st1" width="0.4" height="1.9"/>
<polygon class="st3" points="-210,286.7 -221,286.7 -223.6,298.5 -209.3,298.5 "/>
<polygon class="st3" points="-210.5,279 -219.4,279 -221,286.7 -210,286.7 "/>
<polygon class="st3" points="-208.3,313.7 -209.3,298.5 -223.6,298.5 -226.2,310.9 "/>
<path class="st4" d="M-218.9,308.1h4.9v-4.1c0,0-0.6-1.7-2.4-1.7s-2.3,1.3-2.4,1.7L-218.9,308.1z"/>
<path class="st4" d="M-217.2,285h3.6V282c0,0-0.4-1.2-1.8-1.2c-1.4,0-1.7,0.9-1.8,1.3L-217.2,285z"/>
<polygon class="st3" points="-187.5,286.7 -176.5,286.7 -173.9,298.5 -188.2,298.5 "/>
<polygon class="st5" points="-178.8,272.1 -178.8,274.5 -181.1,274.5 -181.1,272.1 -183.7,272.1 -183.7,274.5 -186.2,274.5 
	-186.2,272.1 -189.2,272.1 -189.2,276.4 -187,279 -178.1,279 -175.8,276.4 -175.8,272.1 "/>
<polygon class="st5" points="-211.2,272.1 -211.2,274.5 -213.5,274.5 -213.5,272.1 -216.1,272.1 -216.1,274.5 -218.7,274.5 
	-218.7,272.1 -221.7,272.1 -221.7,276.4 -219.4,279 -210.5,279 -208.2,276.4 -208.2,272.1 "/>
<polygon class="st5" points="-195.1,277 -195.1,279.5 -197.4,279.5 -197.4,277 -200,277 -200,279.5 -202.5,279.5 -202.5,277 
	-205.5,277 -205.5,281.4 -203.3,284 -194.4,284 -192.1,281.4 -192.1,277 "/>
<polygon class="st3" points="-187,279 -178.1,279 -176.5,286.7 -187.5,286.7 "/>
<polygon class="st3" points="-189.2,313.7 -188.2,298.5 -173.9,298.5 -171.3,310.9 "/>
<path class="st4" d="M-178.6,308.1h-4.9v-4.1c0,0,0.6-1.7,2.4-1.7s2.3,1.3,2.4,1.7L-178.6,308.1z"/>
<path class="st4" d="M-180.3,285h-3.6V282c0,0,0.4-1.2,1.8-1.2c1.4,0,1.7,0.9,1.8,1.3L-180.3,285z"/>
<polygon class="st3" points="-203.4,284.2 -194.5,284.2 -192.8,291.8 -203.9,291.8 "/>
<polygon class="st3" points="-208.2,313.7 -209.1,300.8 -188.3,300.9 -189.2,313.8 "/>
<rect x="-189.2" y="275.9" width="13.5" height="0.8"/>
<rect x="-221.8" y="275.9" width="13.5" height="0.8"/>
<rect x="-205.5" y="280.8" width="13.5" height="0.8"/>
<polyline class="st6" points="-206.9,306.5 -190.9,306 -198.9,302.9 -206.9,306.5 "/>
<path class="st7" d="M-242.1,299.5c27.6,19,58,19.9,86.7,0c-8,8.4-10.6,15.3-11.7,24.8c-23.2,21.3-45.1,16.8-64.1-0.7
	C-233.2,318.8-233,304.2-242.1,299.5z"/>
<path class="st4" d="M-188.8,320l-16.8,1.1c-4.1-1.8-5.8-10.7-2-14.5l15-0.4l3.1-0.1C-191.7,308-193,316.9-188.8,320z"/>
<path class="st8" d="M-192.7,320.1c-2-1.9-4.1-9.5,0-14"/>
<path class="st9" d="M-195.7,320.4c-2-1.9-3.9-9.7,0.2-14.2"/>
<path class="st10" d="M-198.5,320.6c-2-1.9-4.1-9.7,0-14.2"/>
<path class="st11" d="M-201.4,320.2c-2-1.9-4.1-9.4,0-13.9"/>
<path class="st12" d="M-204.1,320.1c-2-1.8-4.1-9.3,0-13.6"/>
<path class="st13" d="M-188.2,321.3c0-1.8,1.4-3.4,1.7-0.6c0.1,2.9-0.7,4-1.2,5C-188.7,325.7-188.2,321.3-188.2,321.3z"/>
<path class="st13" d="M-206.1,327c-1.1-1.5,0.5-2.5,2.1-3c1.4,0.1,5.9,1.3,7.8,1.3s6.9,0.1,8.7-1.1c0.1-0.1-0.6,2.2-0.6,2.2
	C-193.2,328.8-203.5,328.5-206.1,327z"/>
<path class="st13" d="M-203.8,321.7c2.3,0.1,12.3,3.2,17,0.7c0.3,0.5-0.3,1.4-0.6,1.8c-5.4,2.7-14.8-0.2-16.6-0.2
	c-1.2,0.2-2.2,1.1-2.3,1.6C-206.8,324.5-208,322.4-203.8,321.7z"/>
<path class="st13" d="M-186.7,320.7c-6.2,2.9-13.7-0.8-16.8-0.7c-3.2,0.3-3.5,1.7-3.3,3c0.8-0.6,3.3-1.5,5.1-0.8
	c2.1,0.6,12.5,2.1,15,0.1C-186.7,322.1-186.2,321.3-186.7,320.7z"/>
<path class="st13" d="M-202.2,328.4c-0.4-5,0.6-9,0.8-12.8c0-3.8-4.2-3.9-4.9-1.8c-0.4,2,1.4,2.3,2.2,1.7c0.8-0.3,1.1,0.6,0.7,1.1
	c-0.6,0.8-2.4,7.5-0.4,11.2C-202.9,329.8-202.2,328.4-202.2,328.4z"/>
<path class="st4" d="M-207.6,306.6c-0.4-3.1,3.5-5.8,8.7-5.8s9.4,2.7,8.7,5.1c-1.8,0.3-8.7-2.9-8.7-2.9S-206.2,306.7-207.6,306.6z"
	/>
<rect x="-199.1" y="300.4" class="st1" width="0.5" height="5.9"/>
<path class="st4" d="M-248.1,306.4c3.7,4.5,10.8,8,12.3,21.8c0.2,5.2,7.3,3.2,7.8-2.6c0.4-5.8-2.1-20.3-14.5-26.1
	c3.7,3.9,7.5,9.9,7.6,12.5C-236.8,309.8-240.5,306.1-248.1,306.4z"/>
<path class="st4" d="M-149.7,306.4c-3.7,4.5-10.8,8-12.3,21.8c-0.2,5.2-7.3,3.2-7.8-2.6c-0.4-5.8,2.1-20.3,14.5-26.1
	c-3.7,3.9-7.5,9.9-7.6,12.5C-161,309.8-157.3,306.1-149.7,306.4z"/>
<path class="st4" d="M-226.4,314.4c11.1,13.2,33.3,21.4,55.6,0.6c0,0.2,6.4,7.2,6.4,7.2c-27,25.2-47.9,18.3-69,0.2L-226.4,314.4z"/>
<g>
	<path class="st1" d="M-173.4,319.6c0-1.1,0.9-1.9,1.9-1.9c1.1,0,1.9,0.9,1.9,1.9s-0.9,1.9-1.9,1.9
		C-172.5,321.5-173.4,320.7-173.4,319.6z M-172.8,319.6c0,0.8,0.7,1.4,1.4,1.4c0.7,0,1.4-0.6,1.4-1.4c0-0.8-0.7-1.4-1.4-1.4
		C-172.2,318.2-172.8,318.8-172.8,319.6z M-171.8,320.6h-0.5v-2.1h1c0.2,0,0.4,0,0.6,0.1c0.2,0.1,0.2,0.4,0.2,0.6
		c0,0.4-0.2,0.5-0.6,0.6l0.5,0.9h-0.5l-0.5-0.9h-0.3V320.6z M-171.2,319.4c0.2,0,0.3-0.1,0.3-0.3c0-0.2-0.2-0.2-0.4-0.2h-0.5v0.5
		H-171.2z"/>
</g>
<g>
	<g>
		<g>
			<rect x="-186" y="289.3" class="st14" width="1.8" height="1.5"/>
			<rect x="-184.2" y="288.8" class="st14" width="0.4" height="2.3"/>
		</g>
		<circle class="st15" cx="-185" cy="290" r="0.4"/>
		<g>
			<rect x="-186" y="296.1" class="st14" width="1.8" height="1.4"/>
			<rect x="-184.2" y="295.7" class="st14" width="0.4" height="2.3"/>
		</g>
		<circle class="st15" cx="-185" cy="296.8" r="0.4"/>
		<g>
			<rect x="-213.5" y="289.3" class="st14" width="1.8" height="1.5"/>
			<rect x="-213.9" y="288.8" class="st14" width="0.4" height="2.3"/>
		</g>
		<circle class="st15" cx="-212.6" cy="290" r="0.4"/>
		<g>
			<rect x="-213.5" y="296.1" class="st14" width="1.8" height="1.4"/>
			<rect x="-213.9" y="295.7" class="st14" width="0.4" height="2.3"/>
		</g>
		<circle class="st15" cx="-212.6" cy="296.8" r="0.4"/>
		<path class="st16" d="M-198.8,301.5c-0.8,0-1-0.4-1.2-0.5h-11.7v-15.1h2.2l9.3,1.2h2.7l9.3-1.2h2.2V301h-11.7
			C-197.8,301.1-198,301.5-198.8,301.5z"/>
		<path class="st17" d="M-198.8,298.4l-1,1.5c-3.8-3-6.9,1-10.4-0.5l0.1-12.4l1-1.6c2.4,1.8,6.9-1.8,10.2,0.6h0.2
			c3.4-2.4,7.8,1.1,10.2-0.6l1,1.6l0.1,12.4c-3.5,1.5-6.5-2.5-10.4,0.5L-198.8,298.4z"/>
		<g>
			<path class="st18" d="M-188.5,285.5l0,12.9c-2.5,0.3-6.2-2.7-10.2-0.1"/>
			<path class="st18" d="M-209.1,285.5l0,12.9c2.5,0.3,6.2-2.7,10.2-0.1"/>
		</g>
		<line class="st18" x1="-198.8" y1="286.1" x2="-198.8" y2="298.1"/>
		<path class="st18" d="M-209.1,298.4c0,0-0.7,1-1.1,1.1"/>
		<path class="st18" d="M-188.6,298.4c0.1,0.2,0.8,0.9,1.1,1.1"/>
		<path class="st19" d="M-209.8,286.3h-1.3v13.9h11.2c0.2,0.2,0.5,0.7,1,0.7c0.5,0,0.8-0.4,1-0.7h11.2v-13.9h-1.3"/>
	</g>
	<path class="st20" d="M-196.9,295.1c1.4-0.5,5-0.8,6.4,0.2c0,0.1,1-5,1-5s-1.2,0.2-1.6,1c-0.2,0.6,0.4,2.7-0.6,2.5
		c-1-0.4-1-3.4-0.3-3.8l-1.7-2.7l-1.8,2.4c1.3,1.2,0.9,4-0.3,4c-0.7,0-0.9-1.8-0.5-2.4c-0.1-0.7-0.9-0.9-1.7-1.2
		C-198,290.2-196.9,295.1-196.9,295.1z"/>
	<g>
		<path class="st21" d="M-204,287.9c-2,0-3.6,1.6-3.6,3.6c0,2,1.6,3.6,3.6,3.6c2,0,3.6-1.6,3.6-3.6
			C-200.4,289.5-202,287.9-204,287.9z M-204,293.8c-1.3,0-2.4-1.1-2.4-2.4c0-1.3,1.1-2.4,2.4-2.4c1.3,0,2.4,1.1,2.4,2.4
			C-201.6,292.7-202.7,293.8-204,293.8z"/>
		<path class="st21" d="M-201.9,290.5c-0.1,0.3-0.5,0.5-0.8,0.4c-0.1-0.3-0.3-0.6-0.6-0.8c0-0.4,0.1-0.7,0.4-0.7c-0.1,0,0-2.2,0-2.2
			h-2.2v2.1c0.2,0.2,0.3,0.4,0.4,0.7c-0.3,0.2-0.5,0.4-0.6,0.7c-0.3,0-0.6,0.1-0.7-0.2c0,0-2,0-2,0v1.9h2c0.1-0.4,0.4-0.6,0.6-0.7
			c0.1,0.4,0.5,0.8,0.9,0.9c-0.1,0.4-0.3,0.8-0.6,0.8c0.1,0,0,1.9,0,1.9h2l0.1-1.9c-0.3-0.1-0.5-0.5-0.5-0.8
			c0.3-0.1,0.6-0.4,0.8-0.7c0.4-0.1,0.8-0.1,0.9,0.4c0,0.1,1.9,0,1.9,0l0-1.8H-201.9z"/>
	</g>
</g>
<g>
	<g>
		<g>
			<path class="st1" d="M-220.4,321.2c-0.4,0.1-1.7-0.2-2.5-0.1c0,0-0.4,0.4,0,0.4c0.6,0.1,2,0.1,2.3,0.1
				C-220.3,321.6-220.1,321.2-220.4,321.2z M-215.7,326.5c-0.6,0-3.3-1.7-3.7-2c-0.3-0.3-0.8-0.5-1.2-0.2c0,0-0.6,0.3,0.7,0.9
				c0.2,0.1,0.6,0.4,1.1,0.7c-0.1,0.7-1.3,3.7-1.8,4.4c-0.4,0.4,0,0.8,0.3,0.6c0.5-0.4,2-3.6,2.3-4.5c0.9,0.5,1.9,1,2.2,1
				C-215.2,327.2-215.1,326.5-215.7,326.5z M-182.5,325.9c-0.4,0.4-3.5,1.3-4,1.4c-0.4,0.1-0.9,0.2-1,0.7c0,0,0,0.4,1.2,0
				c0.2,0,0.7-0.2,1.3-0.4c0.5,0.7,1.6,3.5,1.7,4.3c0,0.6,0.5,0.6,0.6,0.2c0.1-0.7-1-3.9-1.4-4.8c1-0.3,2.1-0.7,2.3-1
				C-181.6,326-182.1,325.5-182.5,325.9z M-193.8,330.1c0.4,1,0.9,4.7,0.8,5.4c-0.2,0.5,0.6,0.5,0.7,0c0.1-0.6-0.5-5-0.6-5.4
				C-193.1,329.6-194,329.9-193.8,330.1z M-210.6,328.7c0,0.4-0.1,1-0.2,1.8c-0.6-0.2-2.8-0.8-3.8-1.1c0.2-0.8,0.3-1.5,0.3-1.7
				c0-0.5-0.9-0.5-0.8-0.2c0,1.1-0.8,4.7-1.2,5.3c-0.3,0.4,0.4,0.7,0.7,0.2c0.2-0.3,0.5-1.6,0.8-2.9c0.9,0.2,3.4,0.9,3.7,1.2
				c0,0,0.1,0,0.1,0c-0.3,1.2-0.6,2.4-0.8,2.8c-0.3,0.4,0.4,0.7,0.7,0.2c0.3-0.5,1.3-4.8,1.3-5.3
				C-209.8,328.4-210.7,328.4-210.6,328.7z M-174.2,327.5c-0.3-0.5-2.3-4.5-2.6-4.8c-0.3-0.7-1-0.2-1,0.2c0,0.1,0,0.2,0.2,0.2
				c0.3,0.3,0.6,0.8,1,1.5c-0.6,0.3-2.6,1.3-3.6,1.7c-0.4-0.7-0.8-1.3-0.9-1.5c-0.1-0.6-1.3,0.2-0.8,0.4c0.7,0.8,2.5,4,2.7,4.7
				c0,0.5,0.8,0.2,0.7-0.3c-0.1-0.3-0.7-1.6-1.4-2.7c0.8-0.5,3.1-1.6,3.5-1.6c0,0,0.1,0,0.1,0c0.4,0.8,0.9,1.6,1.1,2.1l0.2,0.5
				C-175,328.6-173.8,328.1-174.2,327.5z M-200.4,335c-0.4,0.5-4.6,1.3-4.8-2c-0.1-1.9,3.6-2.5,4.1-2.2c0.4,0.2,0.8-0.2,0.4-0.4
				c-0.8-0.7-5,0-5.1,2.5c-0.1,2.7,3.9,4.8,6.1,2.3C-199.4,334.8-200.2,334.7-200.4,335z M-194.9,335c-0.3,0.4-2.3,0.5-2.7,0.5
				c0-1.3-0.5-5.3-1.3-5.3c-0.4,0.3,0.9,4.5,0.6,5.7c-0.2,0.6,4.1-0.1,4.3-0.9C-193.9,334.5-194.6,334.6-194.9,335z M-222,322.1
				c-0.3,0.1-4.3,2.8-6.1,3c0,0,0,0.8,0.7,0.7c0.3-0.1,1.1-0.4,2-0.9c0.5,0.4,2.1,1.4,2.5,1.5c-0.1,1.2-0.3,2.2-0.3,2.5
				c0,0.6,1.1,0.3,1-0.2C-222.3,327.7-221.7,322.8-222,322.1z M-222.8,325.8c-0.5-0.2-1.3-0.9-1.9-1.2c0.8-0.4,1.6-0.9,2.2-1.2
				C-222.6,323.8-222.7,324.7-222.8,325.8z M-184.8,332.5c-0.8-0.5-4.4-3.9-5.1-4.1c-0.1,0.3-0.3,5.1-1.3,6.7c0,0,0.7,0.5,1-0.1
				c0.2-0.3,0.3-1.2,0.5-2.2c0.6-0.1,2.4-0.9,2.7-1.1c0.8,0.8,1.6,1.6,1.8,1.7C-184.8,333.8-184.3,332.8-184.8,332.5z M-189.6,332.1
				c0.1-0.9,0.2-1.8,0.3-2.5c0.3,0.3,1,0.9,1.8,1.6C-188,331.5-189,331.8-189.6,332.1z"/>
		</g>
		<g>
			<path class="st22" d="M-220.4,321.2c-0.4,0.1-1.7-0.2-2.5-0.1c0,0-0.4,0.4,0,0.4c0.6,0.1,2,0.1,2.3,0.1
				C-220.3,321.6-220.1,321.2-220.4,321.2z M-215.7,326.5c-0.6,0-3.3-1.7-3.7-2c-0.3-0.3-0.8-0.5-1.2-0.2c0,0-0.6,0.3,0.7,0.9
				c0.2,0.1,0.6,0.4,1.1,0.7c-0.1,0.7-1.3,3.7-1.8,4.4c-0.4,0.4,0,0.8,0.3,0.6c0.5-0.4,2-3.6,2.3-4.5c0.9,0.5,1.9,1,2.2,1
				C-215.2,327.2-215.1,326.5-215.7,326.5z M-182.5,325.9c-0.4,0.4-3.5,1.3-4,1.4c-0.4,0.1-0.9,0.2-1,0.7c0,0,0,0.4,1.2,0
				c0.2,0,0.7-0.2,1.3-0.4c0.5,0.7,1.6,3.5,1.7,4.3c0,0.6,0.5,0.6,0.6,0.2c0.1-0.7-1-3.9-1.4-4.8c1-0.3,2.1-0.7,2.3-1
				C-181.6,326-182.1,325.5-182.5,325.9z M-193.8,330.1c0.4,1,0.9,4.7,0.8,5.4c-0.2,0.5,0.6,0.5,0.7,0c0.1-0.6-0.5-5-0.6-5.4
				C-193.1,329.6-194,329.9-193.8,330.1z M-210.6,328.7c0,0.4-0.1,1-0.2,1.8c-0.6-0.2-2.8-0.8-3.8-1.1c0.2-0.8,0.3-1.5,0.3-1.7
				c0-0.5-0.9-0.5-0.8-0.2c0,1.1-0.8,4.7-1.2,5.3c-0.3,0.4,0.4,0.7,0.7,0.2c0.2-0.3,0.5-1.6,0.8-2.9c0.9,0.2,3.4,0.9,3.7,1.2
				c0,0,0.1,0,0.1,0c-0.3,1.2-0.6,2.4-0.8,2.8c-0.3,0.4,0.4,0.7,0.7,0.2c0.3-0.5,1.3-4.8,1.3-5.3
				C-209.8,328.4-210.7,328.4-210.6,328.7z M-174.2,327.5c-0.3-0.5-2.3-4.5-2.6-4.8c-0.3-0.7-1-0.2-1,0.2c0,0.1,0,0.2,0.2,0.2
				c0.3,0.3,0.6,0.8,1,1.5c-0.6,0.3-2.6,1.3-3.6,1.7c-0.4-0.7-0.8-1.3-0.9-1.5c-0.1-0.6-1.3,0.2-0.8,0.4c0.7,0.8,2.5,4,2.7,4.7
				c0,0.5,0.8,0.2,0.7-0.3c-0.1-0.3-0.7-1.6-1.4-2.7c0.8-0.5,3.1-1.6,3.5-1.6c0,0,0.1,0,0.1,0c0.4,0.8,0.9,1.6,1.1,2.1l0.2,0.5
				C-175,328.6-173.8,328.1-174.2,327.5z M-200.4,335c-0.4,0.5-4.6,1.3-4.8-2c-0.1-1.9,3.6-2.5,4.1-2.2c0.4,0.2,0.8-0.2,0.4-0.4
				c-0.8-0.7-5,0-5.1,2.5c-0.1,2.7,3.9,4.8,6.1,2.3C-199.4,334.8-200.2,334.7-200.4,335z M-194.9,335c-0.3,0.4-2.3,0.5-2.7,0.5
				c0-1.3-0.5-5.3-1.3-5.3c-0.4,0.3,0.9,4.5,0.6,5.7c-0.2,0.6,4.1-0.1,4.3-0.9C-193.9,334.5-194.6,334.6-194.9,335z M-222,322.1
				c-0.3,0.1-4.3,2.8-6.1,3c0,0,0,0.8,0.7,0.7c0.3-0.1,1.1-0.4,2-0.9c0.5,0.4,2.1,1.4,2.5,1.5c-0.1,1.2-0.3,2.2-0.3,2.5
				c0,0.6,1.1,0.3,1-0.2C-222.3,327.7-221.7,322.8-222,322.1z M-222.8,325.8c-0.5-0.2-1.3-0.9-1.9-1.2c0.8-0.4,1.6-0.9,2.2-1.2
				C-222.6,323.8-222.7,324.7-222.8,325.8z M-184.8,332.5c-0.8-0.5-4.4-3.9-5.1-4.1c-0.1,0.3-0.3,5.1-1.3,6.7c0,0,0.7,0.5,1-0.1
				c0.2-0.3,0.3-1.2,0.5-2.2c0.6-0.1,2.4-0.9,2.7-1.1c0.8,0.8,1.6,1.6,1.8,1.7C-184.8,333.8-184.3,332.8-184.8,332.5z M-189.6,332.1
				c0.1-0.9,0.2-1.8,0.3-2.5c0.3,0.3,1,0.9,1.8,1.6C-188,331.5-189,331.8-189.6,332.1z"/>
		</g>
	</g>
</g>
</svg>
