<?xml version="1.0" encoding="utf-8"?>
<!-- Generator: Adobe Illustrator 19.0.1, SVG Export Plug-In . SVG Version: 6.00 Build 0)  -->
<svg version="1.1" id="Layer_1" xmlns="http://www.w3.org/2000/svg" xmlns:xlink="http://www.w3.org/1999/xlink" x="0px" y="0px"
	 viewBox="-249 251 100 100" style="enable-background:new -249 251 100 100;" xml:space="preserve">
<style type="text/css">
	.st0{fill:#FFFFFF;}
	.st1{fill:#0072BC;}
	.st2{fill:none;stroke:#000000;stroke-width:0.4129;}
	.st3{fill:#F3C727;}
	.st4{fill:#00539F;}
	.st5{fill:none;stroke:#000000;stroke-width:0.4129;stroke-linecap:round;stroke-linejoin:round;}
</style>
<g>
	<g>
		<g>
			<path class="st0" d="M-172.7,278.4v30.5c-0.1,3.4,1,23.5-26.7,31.2l0,0c-27.6-7.7-26.5-27.9-26.7-31.3v-30.4
				c2.2,1,6.8,4.1,13.5,3.9c1.3-0.1,5.2,0.3,13.2-4.8c1.4,0.9,7.7,5,13.6,4.8C-181.7,282.3-177.1,280.9-172.7,278.4z"/>
		</g>
		<g>
			<path d="M-199.4,340.6l-0.1-0.4l-0.1,0.4c-12.2-3.4-26.9-11.5-27.1-31.2c0-0.2,0-0.4,0-0.6v-31.4l0.9,0.4
				c0.4,0.2,0.8,0.4,1.4,0.7c2.4,1.2,6.5,3.3,11.9,3.1c0.1,0,0.2,0,0.4,0c1.6-0.1,5.3-0.2,12.5-4.7l0.3-0.2l0.7,0.4
				c1.9,1.2,7.6,4.7,12.9,4.5c0,0,0,0,0.1,0c3.9,0,8.3-1.3,12.8-3.8l0.9-0.5v31.5c0,0.2,0,0.4,0,0.6c-0.5,19.7-15.1,27.8-27.3,31.2
				l-0.1-0.4L-199.4,340.6z M-225.5,279.4v29.5c0,0.1,0,0.4,0,0.6c0.3,18.8,14.3,26.7,26.1,30c11.8-3.3,25.8-11.2,26.1-30
				c0-0.2,0-0.5,0-0.6v-29.5c-4.4,2.3-8.6,3.5-12.5,3.5c-5.6,0.2-11.6-3.5-13.5-4.7l0,0c-7.2,4.5-11.1,4.7-12.8,4.7
				c-0.2,0-0.3,0-0.4,0c-5.8,0.2-10-2-12.5-3.3C-225.2,279.5-225.3,279.4-225.5,279.4z"/>
		</g>
	</g>
	<g>
		<g>
			<g>
				<polygon class="st1" points="-206.8,305.5 -203.3,305.5 -202.6,307.4 -206.1,307.4 				"/>
			</g>
		</g>
		<g>
			<g>
				<polygon class="st1" points="-201,305.5 -197.8,305.5 -197.1,307.4 -200.2,307.4 				"/>
			</g>
		</g>
		<g>
			<g>
				<polygon class="st1" points="-195.7,305.5 -192.5,305.5 -191.7,307.4 -194.9,307.4 				"/>
			</g>
		</g>
	</g>
	<g>
		<g>
			<g>
				<g>
					<g>
						<path d="M-222.9,300.1h-0.2v-0.2c0-0.7,0.1-4,2-5.8c1-0.9,2.3-1.3,3.8-1.2v0.4c-1.4-0.1-2.6,0.3-3.5,1.1
							c-1.7,1.6-1.9,4.4-1.9,5.3c1.8-0.1,3.3-0.9,4.2-1.5c0.1-0.1,0.2-0.1,0.3-0.2l-0.6-0.6c-0.7,0.4-1.8,0.7-2.6,0.8h-0.3l0.1-0.3
							c0.1-0.5,1.5-4,4.1-3.6l-0.1,0.4c-2-0.3-3.2,2.1-3.6,3c0.8-0.1,1.7-0.4,2.2-0.8l0.1-0.1l1.3,1.3l-0.3,0.1
							c-0.1,0.1-0.3,0.2-0.5,0.3C-219.2,299.1-220.9,300.1-222.9,300.1z"/>
					</g>
				</g>
				<g>
					<g>
						<path d="M-211.9,300.3h-0.2c-3.7-0.1-6.4-1.7-7.8-4.8l0.4-0.2c1.6,3.6,4.7,4.5,7.2,4.5v-0.1c0-1.4,0.1-5-3.1-6.5
							c0,0.4-0.1,1.1-0.2,1.4c0.8,0.4,2.1,1.2,2.3,3.5v0.3l-0.4-0.1c-1.2-0.1-3.2-0.4-5.1-3.7l0.4-0.2c1.7,3,3.5,3.3,4.6,3.4
							c-0.3-2-1.5-2.7-2.2-3l-0.2,0.2l0.1-0.2c0.1-0.3,0.3-1.4,0.3-1.8v-0.3l0.3,0.1c3.7,1.5,3.6,5.5,3.6,7c0,0.1,0,0.2,0,0.3
							L-211.9,300.3z"/>
					</g>
				</g>
				<g>
					<g>
						<path d="M-216.7,296.9l-0.3-0.2c2-3.4,1.1-7.2,0.5-8.6c-3.8,0.8-3.6,5.4-3.6,5.6h-0.4c0-0.2-0.3-5.2,4.1-6h0.2l0.1,0.1
							C-216.2,287.8-214.1,292.5-216.7,296.9z"/>
					</g>
				</g>
				<g>
					<g>
						<path d="M-217.8,296l-0.4-0.2c1.2-2.3,1-4.4,0.8-5.6c-1,0.9-1.2,2.4-1.1,2.9l-0.4,0.1c-0.1-0.6,0.1-2.4,1.5-3.5l0.3-0.2
							l0.1,0.7C-216.8,291.4-216.5,293.6-217.8,296z"/>
					</g>
				</g>
			</g>
			<g>
				<g>
					<g>
						<path d="M-217.7,321.6c-1.3,0-2.5-0.4-3.3-1.2c-2-1.8-2-5.2-2-5.8v-0.2h0.2c2,0,3.6,0.9,4.6,1.5c0.2,0.1,0.4,0.2,0.5,0.3
							l0.3,0.1l-1.3,1.3l-0.1-0.1c-0.5-0.4-1.4-0.7-2.2-0.8c0.4,0.9,1.6,3.3,3.6,3l0.1,0.4c-2.6,0.3-4-3.1-4.1-3.6l-0.1-0.3h0.3
							c0.8,0.1,1.9,0.3,2.6,0.8l0.6-0.6c-0.1,0-0.2-0.1-0.3-0.2c-0.9-0.5-2.4-1.4-4.2-1.5c0,0.9,0.2,3.8,1.9,5.3
							c0.9,0.8,2.1,1.2,3.5,1.1v0.4C-217.4,321.6-217.6,321.6-217.7,321.6z"/>
					</g>
				</g>
				<g>
					<g>
						<path d="M-215.8,321.6v-0.3c0-0.4-0.2-1.5-0.3-1.8l-0.1-0.2l0.2-0.1c0.7-0.4,2-1,2.2-3c-1.1,0.1-3,0.5-4.6,3.4l-0.4-0.2
							c1.8-3.3,3.8-3.5,5.1-3.7l0.4-0.1v0.3c-0.2,2.3-1.5,3.1-2.3,3.5c0.1,0.4,0.2,1.1,0.2,1.4c3.2-1.5,3.1-5.1,3.1-6.5v-0.1
							c-2.4,0.1-5.6,1-7.2,4.5l-0.4-0.2c1.4-3.1,4.1-4.7,7.8-4.8h0.2v0.2c0,0.1,0,0.2,0,0.3c0,1.5,0.1,5.5-3.6,7L-215.8,321.6z"/>
					</g>
				</g>
				<g>
					<g>
						<path d="M-216.3,326.7h-0.2c-4.4-0.8-4.1-5.8-4.1-6h0.4c0,0.2-0.3,4.8,3.6,5.6c0.6-1.4,1.5-5.2-0.5-8.6l0.4-0.2
							c2.6,4.4,0.5,9,0.5,9.1L-216.3,326.7z"/>
					</g>
				</g>
				<g>
					<g>
						<path d="M-217.1,324.9l-0.3-0.2c-1.4-1-1.6-2.9-1.5-3.5l0.4,0.1c-0.1,0.4,0.1,1.9,1.1,2.9c0.2-1.2,0.5-3.3-0.8-5.6l0.4-0.2
							c1.3,2.5,1,4.6,0.8,5.9L-217.1,324.9z"/>
					</g>
				</g>
			</g>
			<g>
				<g>
					<g>
						<path d="M-175.7,300.1h-0.2c-2,0-3.6-0.9-4.6-1.5c-0.2-0.1-0.4-0.2-0.5-0.3l-0.3-0.1l1.3-1.3l0.1,0.1c0.5,0.4,1.4,0.7,2.2,0.8
							c-0.4-0.9-1.6-3.3-3.6-3l-0.1-0.4c2.6-0.4,4,3.1,4.1,3.6l0.1,0.3h-0.3c-0.8-0.1-1.9-0.3-2.6-0.8l-0.4,0.5
							c0.1,0,0.2,0.1,0.3,0.2c0.9,0.5,2.4,1.4,4.2,1.5c0-0.9-0.2-3.8-1.9-5.3c-0.9-0.8-2.1-1.2-3.5-1.1v-0.4
							c1.6-0.1,2.8,0.3,3.8,1.2c2,1.8,2,5.2,2,5.8L-175.7,300.1z"/>
					</g>
				</g>
				<g>
					<g>
						<path d="M-186.8,300.3v-0.2c0-0.1,0-0.2,0-0.3c0-1.5-0.1-5.5,3.6-7l0.3-0.1v0.3c0,0.4,0.2,1.5,0.3,1.8l0.1,0.2h-0.2
							c-0.7,0.4-2,1-2.2,3c1.1-0.1,3-0.5,4.6-3.4l0.4,0.2c-1.8,3.3-3.8,3.5-5.1,3.7l-0.4,0.1v-0.3c0.2-2.3,1.5-3.1,2.3-3.5
							c-0.1-0.4-0.2-1.1-0.2-1.4c-3.2,1.5-3.1,5.1-3.1,6.5v0.1c2.4-0.1,5.6-1,7.2-4.5l0.4,0.2c-1.4,3.1-4.1,4.7-7.8,4.8
							L-186.8,300.3z"/>
					</g>
				</g>
				<g>
					<g>
						<path d="M-182,296.9c-2.2-3.6-1.1-7.8-0.5-9.1l0.1-0.1h0.2c4.4,0.8,4.1,5.8,4.1,6h-0.4c0-0.2,0.3-4.8-3.6-5.6
							c-0.6,1.4-1.5,5.2,0.5,8.6L-182,296.9z"/>
					</g>
				</g>
				<g>
					<g>
						<path d="M-180.9,296c-1.3-2.5-1-4.6-0.8-5.9l0.1-0.7l0.3,0.2c1.4,1,1.6,2.9,1.5,3.5l-0.4-0.1c0.1-0.4-0.1-1.9-1.1-2.9
							c-0.2,1.2-0.5,3.3,0.8,5.6L-180.9,296z"/>
					</g>
				</g>
			</g>
			<g>
				<g>
					<g>
						<path d="M-181,321.6c-0.2,0-0.3,0-0.5,0v-0.4c1.4,0.1,2.6-0.3,3.5-1.1c1.7-1.6,1.9-4.4,1.9-5.3c-1.8,0.1-3.3,0.9-4.2,1.5
							c-0.1,0.1-0.2,0.1-0.3,0.2l0.6,0.6c0.7-0.4,1.8-0.7,2.6-0.8h0.3l-0.1,0.3c-0.1,0.5-1.6,3.9-4.1,3.6l0.1-0.4
							c1.9,0.3,3.2-2.1,3.6-3c-0.8,0.1-1.7,0.4-2.2,0.8l-0.2-0.1l-1.3-1.3l0.3-0.1c0.1-0.1,0.3-0.2,0.5-0.3c1-0.6,2.6-1.5,4.6-1.5
							h0.2v0.2c0,0.7-0.1,4-2,5.8C-178.5,321.1-179.7,321.6-181,321.6z"/>
					</g>
				</g>
				<g>
					<g>
						<path d="M-182.9,321.6l-0.3-0.1c-3.7-1.5-3.6-5.5-3.6-7c0-0.1,0-0.2,0-0.3V314h0.2c3.7,0.1,6.4,1.7,7.8,4.8l-0.4,0.2
							c-1.6-3.6-4.7-4.5-7.2-4.5v0.1c0,1.4-0.1,5,3.1,6.5c0-0.4,0.1-1.1,0.2-1.4c-0.8-0.4-2.1-1.2-2.3-3.5v-0.3l0.4,0.1
							c1.2,0.1,3.2,0.4,5.1,3.7l-0.4,0.2c-1.7-3-3.5-3.3-4.6-3.4c0.3,2,1.5,2.7,2.2,3l0.2,0.1l-0.1,0.2
							C-182.7,320.1-182.9,321.2-182.9,321.6L-182.9,321.6z"/>
					</g>
				</g>
				<g>
					<g>
						<path d="M-182.4,326.7l-0.1-0.1c-0.6-1.3-1.7-5.4,0.5-9.1l0.4,0.2c-2,3.4-1.1,7.2-0.5,8.6c3.8-0.8,3.6-5.4,3.6-5.6h0.4
							c0,0.2,0.3,5.2-4.1,6H-182.4z"/>
					</g>
				</g>
				<g>
					<g>
						<path d="M-181.6,324.9l-0.1-0.7c-0.2-1.3-0.5-3.4,0.8-5.9l0.4,0.2c-1.2,2.3-1,4.4-0.8,5.6c1-0.9,1.2-2.4,1.1-2.9l0.4-0.1
							c0.1,0.6-0.1,2.4-1.5,3.5L-181.6,324.9z"/>
					</g>
				</g>
			</g>
		</g>
		<g>
			<g>
				<g>
					<g>
						<g>
							<path d="M-217.6,312.8c-3.1,0-5.6-2.5-5.6-5.6c0-3.1,2.5-5.6,5.6-5.6c3.1,0,5.6,2.5,5.6,5.6
								C-212,310.3-214.5,312.8-217.6,312.8z M-217.6,301.9c-2.9,0-5.2,2.3-5.2,5.2s2.3,5.2,5.2,5.2c2.9,0,5.2-2.3,5.2-5.2
								C-212.4,304.3-214.7,301.9-217.6,301.9z"/>
						</g>
					</g>
					<g>
						<g>
							<path class="st2" d="M-217.6,307.2"/>
						</g>
					</g>
				</g>
				<g>
					<g>
						<path d="M-219.3,308.8l0.1-0.3c0-0.1,0-0.2,0.1-0.3c0.1-0.5,0.4-1.4-0.2-2.3l-0.3-0.6l0.7,0.3c0.3,0.2,1.1,0.5,2.7-0.1
							l0.4-0.2l-0.2,0.5c-0.1,0.3-0.4,1.7,0.1,2.7l0.2,0.4l-0.4-0.1c-0.1,0-0.2,0-0.3-0.1c-0.5-0.1-1.4-0.3-2.5,0L-219.3,308.8z
							 M-217.7,308.1c0.5,0,0.9,0.1,1.2,0.1c-0.2-0.8-0.1-1.7,0-2.2c-1.1,0.4-1.8,0.3-2.2,0.1c0.3,0.8,0.1,1.6,0,2
							C-218.4,308.1-218,308.1-217.7,308.1z"/>
					</g>
				</g>
				<g>
					<g>
						<path d="M-217.5,305.2c-0.7,0-1.4-0.2-2.1-0.8l-0.2-0.1l0.1-0.2c0.3-0.4,1-0.9,1.9-1c0.8-0.1,1.7,0.2,2.4,0.9l0.2,0.1
							l-0.2,0.2C-215.8,304.7-216.6,305.2-217.5,305.2z M-219.2,304.2c1.4,1,2.8,0.5,3.4,0c-0.6-0.5-1.3-0.7-1.9-0.6
							C-218.3,303.5-218.9,303.8-219.2,304.2z"/>
					</g>
				</g>
				<g>
					<g>
						<path d="M-217.5,311.5c-0.7,0-1.4-0.2-2.1-0.8l-0.2-0.1l0.1-0.2c0.3-0.4,1-0.9,1.9-1c0.8-0.1,1.7,0.2,2.4,0.9l0.2,0.1
							l-0.2,0.2C-215.8,311-216.6,311.5-217.5,311.5z M-219.2,310.4c1.4,1,2.8,0.5,3.4,0c-0.6-0.5-1.3-0.7-1.9-0.6
							C-218.3,309.8-218.9,310.1-219.2,310.4z"/>
					</g>
				</g>
				<g>
					<g>
						<path d="M-221,309.4l-0.2-0.1c-0.4-0.3-0.9-1-1-1.9c-0.1-0.8,0.2-1.7,0.9-2.4l0.1-0.2l0.2,0.2c0.7,0.7,1.6,2.5,0.1,4.3
							L-221,309.4z M-221.1,305.4c-0.5,0.6-0.7,1.3-0.6,1.9c0.1,0.6,0.4,1.2,0.7,1.5C-220,307.4-220.5,306.1-221.1,305.4z"/>
					</g>
				</g>
				<g>
					<g>
						<path d="M-214,309.4l-0.2-0.1c-0.4-0.3-0.9-1-1-1.9c-0.1-0.8,0.2-1.7,0.9-2.4l0.1-0.2l0.2,0.2c0.7,0.7,1.6,2.5,0.1,4.3
							L-214,309.4z M-214.1,305.4c-0.5,0.6-0.7,1.3-0.6,1.9c0.1,0.6,0.4,1.2,0.7,1.5C-213,307.4-213.5,306.1-214.1,305.4z"/>
					</g>
				</g>
			</g>
			<g>
				<g>
					<g>
						<g>
							<path d="M-181.1,312.8c-3.1,0-5.6-2.5-5.6-5.6c0-3.1,2.5-5.6,5.6-5.6c3.1,0,5.6,2.5,5.6,5.6
								C-175.5,310.3-178,312.8-181.1,312.8z M-181.1,301.9c-2.9,0-5.2,2.3-5.2,5.2s2.3,5.2,5.2,5.2c2.9,0,5.2-2.3,5.2-5.2
								C-175.9,304.3-178.2,301.9-181.1,301.9z"/>
						</g>
					</g>
					<g>
						<g>
							<path class="st2" d="M-181.1,307.2"/>
						</g>
					</g>
				</g>
				<g>
					<g>
						<path d="M-179.5,308.8l-0.3-0.1c-1.1-0.3-1.9-0.1-2.5,0c-0.1,0-0.2,0-0.3,0.1l-0.4,0.1l0.2-0.4c0.4-0.9,0.2-2.4,0.1-2.7
							l-0.1-0.4l0.4,0.2c1.6,0.6,2.3,0.3,2.7,0.1l0.7-0.3l-0.3,0.6c-0.6,0.9-0.3,1.8-0.2,2.3c0,0.1,0.1,0.2,0.1,0.3L-179.5,308.8z
							 M-182.2,306c0.1,0.5,0.2,1.4,0,2.2c0.5-0.1,1.3-0.3,2.2,0c-0.1-0.5-0.3-1.2,0-2C-180.4,306.3-181.1,306.4-182.2,306z"/>
					</g>
				</g>
				<g>
					<g>
						<path d="M-181.2,305.2c-1,0-1.8-0.5-2.2-0.9l-0.2-0.2l0.2-0.1c0.7-0.6,1.6-1,2.4-0.9c0.9,0.1,1.6,0.6,1.9,1l0.1,0.2l-0.2,0.1
							C-179.8,305-180.5,305.2-181.2,305.2z M-182.9,304.1c0.7,0.6,2,1.1,3.4,0c-0.3-0.3-0.9-0.6-1.5-0.7
							C-181.7,303.4-182.3,303.6-182.9,304.1z"/>
					</g>
				</g>
				<g>
					<g>
						<path d="M-181.2,311.5c-1,0-1.8-0.5-2.2-0.9l-0.2-0.2l0.2-0.1c0.7-0.6,1.6-1,2.4-0.9c0.9,0.1,1.6,0.6,1.9,1l0.1,0.2l-0.2,0.1
							C-179.8,311.2-180.5,311.5-181.2,311.5z M-182.9,310.4c0.7,0.6,2,1.1,3.4,0c-0.3-0.3-0.9-0.6-1.5-0.7
							C-181.7,309.7-182.3,309.9-182.9,310.4z"/>
					</g>
				</g>
				<g>
					<g>
						<path d="M-177.8,309.4l-0.1-0.2c-1.5-1.8-0.7-3.6,0.1-4.3l0.2-0.2l0.1,0.2c0.6,0.7,1,1.6,0.9,2.4c-0.1,0.9-0.6,1.6-1,1.9
							L-177.8,309.4z M-177.7,305.4c-0.6,0.7-1.1,2,0,3.4c0.3-0.3,0.6-0.9,0.7-1.5C-177,306.6-177.2,306-177.7,305.4z"/>
					</g>
				</g>
				<g>
					<g>
						<path d="M-184.7,309.4l-0.1-0.2c-1.5-1.8-0.7-3.6,0.1-4.3l0.2-0.2l0.1,0.2c0.6,0.7,1,1.6,0.9,2.4c-0.1,0.9-0.6,1.6-1,1.9
							L-184.7,309.4z M-184.6,305.4c-0.6,0.7-1.1,2,0,3.4c0.3-0.3,0.6-0.9,0.7-1.5C-183.9,306.6-184.1,306-184.6,305.4z"/>
					</g>
				</g>
			</g>
		</g>
	</g>
	<g>
		<g>
			<polygon class="st3" points="-188.4,307.4 -188.4,328.1 -199.4,338.3 -210.5,327.9 -210.5,307.4 			"/>
		</g>
	</g>
	<g>
		<g>
			<path d="M-199.4,338.4h-0.1l-11.1-10.4v-0.1v-20.5c0-0.1,0.1-0.2,0.2-0.2h22.1c0.1,0,0.2,0.1,0.2,0.2V328v0.1l-11,10.2
				C-199.3,338.4-199.3,338.4-199.4,338.4z M-210.4,327.8l11,10.2l10.8-10v-20.4h-21.8V327.8z"/>
		</g>
	</g>
	<g>
		<g>
			<polygon class="st4" points="-189.7,309 -209,309 -209,327.5 -199.4,336.6 -189.7,327.5 			"/>
		</g>
	</g>
	<g>
		<g>
			<path d="M-199.4,336.8h-0.1l-9.7-9.1v-0.1V309c0-0.1,0.1-0.2,0.2-0.2h19.3c0.1,0,0.2,0.1,0.2,0.2v18.5v0.1l-9.7,9.1
				C-199.3,336.8-199.3,336.8-199.4,336.8z M-208.9,327.5l9.5,9l9.5-9v-18.3h-19V327.5z"/>
		</g>
	</g>
	<g>
		<g>
			<g>
				<rect x="-203.9" y="306.2" transform="matrix(-0.333 -0.9429 0.9429 -0.333 -559.3489 217.1283)" width="2.1" height="0.4"/>
			</g>
		</g>
		<g>
			<g>
				<rect x="-201.6" y="306.2" transform="matrix(-0.3328 -0.943 0.943 -0.3328 -556.2478 219.2122)" width="2.1" height="0.4"/>
			</g>
		</g>
		<g>
			<g>
				<rect x="-198.5" y="306.2" transform="matrix(-0.3328 -0.943 0.943 -0.3328 -552.0646 222.2585)" width="2.1" height="0.4"/>
			</g>
		</g>
		<g>
			<g>
				<rect x="-196.3" y="306.2" transform="matrix(-0.333 -0.9429 0.9429 -0.333 -549.1833 224.2818)" width="2.1" height="0.4"/>
			</g>
		</g>
		<g>
			<g>
				<polygon points="-206.3,307.5 -207.1,305.2 -192.4,305.2 -191.5,307.3 -191.9,307.5 -192.7,305.7 -206.5,305.7 -205.9,307.4 
									"/>
			</g>
		</g>
	</g>
	<g>
		<g>
			<path class="st0" d="M-201.3,310.9c0-0.3-0.1-0.6-0.2-0.7l-0.2,0.3c-0.9-0.1-1.2,0-1.5,0.2l-0.5-0.2c-0.1,0.1-0.2,0.2-0.2,0.4
				c-0.5,0.7-0.2,1.2,0,1.4c-0.2,0.4,0,0.8,0.1,0.9c0,0.6-0.2,0.8-0.3,1c0-0.8-0.5-1-0.7-1l0.4-0.5l-0.6-0.4l0.2-0.7l-0.9-0.6
				l-0.9,0.6l0.7,0.6l-0.7,0.8l1.1,0.4l-0.5,0.3c0.4,0.1,0.7,0.4,0.7,0.8c-1.4,0.1-1.1,1.3-1.1,1.6c0.2-0.4,0.5-0.5,0.7-0.5
				c0,0.2,0.2,0.5,0.3,0.6l0.5-0.5l0.6,0.5l0.3-0.7l0.6,0.5l0.2-0.7l0.7,0.4v-0.6c0.8,0.3,0.7-0.9,0.7-1.3c0.3,0.6,0.5,0.8,0.6,0.9
				c2-0.4,3-1,3.2-1.1c1.4,0.7,1.4,0.6,1.6,0.7c-0.6,0.5-1,0.5-1.1,0.5c-0.8,0.3-0.7,1-0.5,1.1c0.4-0.5,0.7-0.7,0.9-0.7l0.2,0.6
				l0.5-0.5l0.5,0.5l0.3-0.6l0.4,0.3c0.5-0.7,0.3-1.2,0.3-1.4c0.2,0.1,0.9,0.1,1.2,0.1c1,0,0.7,0.5,0.2,0.6
				c-0.7,0.3-0.7,0.8-0.5,1.1c0.2-0.5,0.6-0.7,0.7-0.8v0.5l0.4-0.5l0.3,0.5l0.3-0.5l0.4,0.5c-0.1-0.5,0.3-0.9,0.4-1
				c-0.1-0.3,0-0.6,0.1-0.8c-1-0.9-0.6-1.2-0.4-1.4c0.8-0.7,0.6-1.1,0.2-1.3c-0.1-0.1-0.6-0.1-0.8-0.2c-1-0.3-1.6-0.2-2,0l-0.4-0.6
				l-1,0.6l-0.7-0.5l-0.5,0.5c-0.4-0.1-1.5-0.5-1.6,0.1c0,0.3,0.6,0.8,3.3,0.6c0.9-0.1,2.4-0.2,2.5,0.1c0,0.6-1.3,0.5-1.8,0.6
				c-0.5,0-2.3-0.2-3.7-0.1c-0.3,0-1.1,0.1-1.5-0.1c-0.1-0.1-0.5-0.2-0.9-0.2c0-0.1,0-0.6-0.4-0.8
				C-201.1,311.2-201.3,310.9-201.3,310.9z"/>
		</g>
	</g>
	<g>
		<g>
			<path class="st0" d="M-201.3,317.5c0-0.3-0.1-0.6-0.2-0.7l-0.3,0.2c-0.9-0.1-1.2,0-1.5,0.2l-0.4-0.2c-0.1,0.1-0.2,0.2-0.2,0.4
				c-0.5,0.7-0.2,1.2,0,1.4c-0.2,0.4,0,0.8,0.1,0.9c0,0.6-0.2,0.8-0.3,1c0-0.8-0.5-0.9-0.7-1l0.4-0.5l-0.6-0.4l0.2-0.7l-0.8-0.5
				l-0.9,0.6l0.7,0.6l-0.7,0.8l1.1,0.4l-0.6,0.3c0.4,0.1,0.7,0.4,0.7,0.8c-1.4,0.1-1.1,1.3-1.1,1.6c0.2-0.4,0.5-0.5,0.7-0.5
				c0,0.2,0.2,0.5,0.3,0.6l0.5-0.5l0.6,0.5l0.3-0.7l0.6,0.5l0.2-0.7l0.7,0.4v-0.6c0.8,0.3,0.7-0.9,0.7-1.3c0.3,0.6,0.5,0.8,0.6,0.9
				c2-0.4,3-1,3.2-1.1c1.4,0.7,1.4,0.6,1.6,0.7c-0.6,0.5-1,0.5-1.1,0.5c-0.8,0.3-0.7,1-0.5,1.1c0.4-0.5,0.7-0.7,0.9-0.7l0.2,0.6
				l0.5-0.5l0.5,0.5l0.3-0.6l0.4,0.3c0.5-0.7,0.3-1.2,0.3-1.4c0.2,0.1,0.9,0.1,1.2,0.1c1,0,0.7,0.5,0.2,0.6
				c-0.7,0.3-0.7,0.8-0.5,1.1c0.2-0.5,0.6-0.7,0.7-0.8v0.5l0.4-0.5l0.3,0.5l0.3-0.5l0.4,0.5c-0.1-0.5,0.3-0.9,0.4-1
				c-0.1-0.3,0-0.6,0.1-0.8c-1-0.9-0.6-1.2-0.4-1.4c0.8-0.7,0.6-1.1,0.2-1.3c-0.1-0.1-0.6-0.1-0.8-0.2c-1-0.3-1.6-0.2-2,0l-0.4-0.6
				l-1,0.6l-0.6-0.5l-0.5,0.5c-0.4-0.1-1.5-0.5-1.6,0.1c0,0.3,0.6,0.8,3.3,0.6c0.9-0.1,2.4-0.2,2.5,0.1c0,0.6-1.3,0.5-1.8,0.6
				c-0.5,0-2.3-0.2-3.7-0.1c-0.3,0-1.1,0.1-1.5-0.1c-0.1-0.1-0.5-0.2-0.9-0.2c0-0.1,0-0.6-0.4-0.8
				C-201.1,317.8-201.3,317.5-201.3,317.5z"/>
		</g>
	</g>
	<g>
		<g>
			<path class="st0" d="M-201.3,324.1c0-0.3-0.1-0.6-0.2-0.7l-0.2,0.3c-0.9-0.1-1.2,0-1.5,0.2l-0.5-0.2c-0.1,0.1-0.2,0.2-0.2,0.4
				c-0.5,0.7-0.2,1.2,0,1.4c-0.2,0.4,0,0.8,0.1,0.9c0,0.6-0.2,0.8-0.3,1c0-0.8-0.5-0.9-0.7-1l0.4-0.5l-0.6-0.4l0.2-0.7l-0.8-0.5
				l-0.9,0.6l0.7,0.6l-0.7,0.8l1.1,0.4l-0.6,0.2c0.4,0.1,0.7,0.4,0.7,0.8c-1.4,0.1-1.1,1.3-1.1,1.6c0.2-0.4,0.5-0.5,0.7-0.5
				c0,0.2,0.2,0.5,0.3,0.6l0.5-0.5l0.6,0.5l0.3-0.7l0.6,0.5l0.2-0.7l0.7,0.4v-0.6c0.8,0.3,0.7-0.9,0.7-1.3c0.3,0.6,0.5,0.8,0.6,0.9
				c2-0.4,3-1,3.2-1.1c1.4,0.7,1.4,0.6,1.6,0.7c-0.6,0.5-1,0.5-1.1,0.5c-0.8,0.3-0.7,1-0.5,1.1c0.4-0.5,0.7-0.7,0.9-0.7l0.2,0.6
				l0.5-0.5l0.5,0.5l0.3-0.6l0.4,0.3c0.5-0.7,0.3-1.2,0.3-1.4c0.2,0.1,0.9,0.1,1.2,0.1c1,0,0.7,0.5,0.2,0.6
				c-0.7,0.3-0.7,0.8-0.5,1.1c0.2-0.5,0.6-0.7,0.7-0.8v0.5l0.4-0.5l0.3,0.5l0.3-0.5l0.4,0.5c-0.1-0.5,0.3-0.9,0.4-1
				c-0.1-0.3,0-0.6,0.1-0.8c-1-0.9-0.6-1.2-0.4-1.4c0.8-0.7,0.6-1.1,0.2-1.3c-0.1-0.1-0.6-0.1-0.8-0.2c-1-0.3-1.6-0.2-2,0l-0.4-0.6
				l-1,0.6l-0.7-0.5l-0.5,0.5c-0.4-0.1-1.5-0.5-1.6,0.1c0,0.3,0.6,0.8,3.3,0.6c0.9-0.1,2.4-0.2,2.5,0.1c0,0.6-1.3,0.5-1.8,0.6
				c-0.5,0-2.3-0.2-3.7-0.1c-0.3,0-1.1,0.1-1.5-0.1c-0.1-0.1-0.5-0.2-0.9-0.2c0-0.1,0-0.6-0.4-0.8
				C-201.1,324.4-201.3,324.1-201.3,324.1z"/>
		</g>
	</g>
	<g>
		<g>
			<g>
				<g>
					<path d="M-205.3,316.3L-205.3,316.3C-205.4,316.3-205.4,316.2-205.3,316.3c-0.2-0.2-0.4-0.4-0.4-0.6c-0.2,0.1-0.4,0.3-0.5,0.5
						l-0.1,0.1c0,0-0.1,0-0.1-0.1c-0.1-0.5-0.1-0.9,0.1-1.2c0.3-0.4,0.8-0.5,1-0.5c0.5,0,0.8-0.1,1-0.3c0.3-0.3,0.3-0.6,0.3-0.9
						c0-0.1,0-0.1,0.1-0.1l0,0c0.1,0,0.1,0,0.1,0.1c0,0.2,0,0.7-0.3,1c-0.2,0.3-0.6,0.4-1.1,0.4c-0.2,0-0.6,0.1-0.9,0.4
						c-0.1,0.2-0.2,0.4-0.2,0.7c0.1-0.2,0.3-0.3,0.6-0.4h0.1v0.1c0,0,0.1,0.2,0.2,0.4l0.5-0.4h0.1l0.5,0.4l0.3-0.6c0,0,0,0,0.1-0.1
						h0.1l0.5,0.4l0.2-0.6c0,0,0-0.1,0.1-0.1h0.1l0.5,0.3v-0.4c0,0,0-0.1,0.1-0.1c0.1,0,0.1,0,0.2,0c0.1,0,0.2,0,0.3,0
						c0.1-0.1,0.2-0.4,0.2-1.1c0,0,0-0.1,0.1-0.1c0,0,0.1,0,0.1,0.1c0.1,0.2,0.3,0.7,0.5,0.9c0.4-0.1,2.1-0.5,3.1-1.1h0.1
						c0.1,0,0.2,0.1,0.4,0.2c0.3,0.2,0.9,0.5,1.1,0.5l0,0c0,0,0.1,0,0.1,0.1v0.1c-0.2,0.2-0.9,0.6-1.2,0.6c-0.1,0-0.4,0.2-0.5,0.4
						c-0.1,0.1-0.1,0.3,0,0.4c0.2-0.2,0.6-0.6,0.9-0.6c0,0,0.1,0,0.1,0.1l0.2,0.4l0.3-0.4c0,0,0,0,0.1,0h0.1l0.3,0.4l0.2-0.5
						c0,0,0-0.1,0.1-0.1h0.1l0.3,0.3c0.2-0.2,0.4-0.8,0.2-1.2c0-0.1,0-0.1,0-0.1c0.1,0,0.1,0,0.1,0c0.3,0.5-0.1,1.3-0.3,1.5h-0.1
						l-0.3-0.2l-0.2,0.5c0,0,0,0.1-0.1,0.1h-0.1l-0.4-0.4l-0.4,0.5h-0.1c0,0-0.1,0-0.1-0.1l-0.1-0.6c-0.3,0.1-0.7,0.5-0.7,0.6
						l-0.1,0.1c0,0-0.1,0-0.1-0.1c-0.2-0.3-0.1-0.6,0-0.8c0.2-0.3,0.5-0.5,0.7-0.5s0.6-0.2,0.9-0.4c-0.3-0.1-0.6-0.3-1-0.5
						c-0.1-0.1-0.3-0.1-0.3-0.2c-1.1,0.7-3,1.1-3.2,1.1c0,0,0,0-0.1,0c-0.2-0.1-0.3-0.3-0.4-0.6c0,0.4-0.1,0.7-0.2,0.8
						c-0.1,0.1-0.3,0.1-0.5,0.1l0,0v0.5c0,0,0,0.1-0.1,0.1h-0.1l-0.6-0.3l-0.3,0.8c0,0,0,0.1-0.1,0.1h-0.1l-0.5-0.4l-0.2,0.5
						c0,0,0,0-0.1,0.1h-0.1l-0.6-0.4L-205.3,316.3L-205.3,316.3z"/>
				</g>
			</g>
			<g>
				<g>
					<path d="M-193.8,316C-193.9,316-193.9,315.9-193.8,316c-0.2-0.3-0.3-0.6-0.2-0.8c0.1-0.3,0.5-0.5,0.8-0.6
						c0.2-0.1,0.2-0.2,0.2-0.2c0-0.1-0.4-0.2-0.8-0.2l0,0c-1.6,0-2.2-0.8-2.5-1.2l-0.1-0.1v-0.1h0.1l0.1,0.1
						c0.3,0.4,0.8,1.1,2.3,1.1c0.4,0,0.9,0,1,0.3c0.1,0.2,0,0.3-0.3,0.5l0,0c-0.2,0.1-0.6,0.2-0.7,0.5c0,0.1,0,0.2,0,0.4
						c0.2-0.3,0.4-0.6,0.7-0.6l0,0c0.2-0.1,0.2-0.1,0.2,0v0.2l0.2-0.2h0.1c0,0,0.1,0,0.1,0.1l0.2,0.3l0.2-0.3c0,0,0,0,0.1,0h0.1
						l0.3,0.3c0-0.3,0.2-0.6,0.4-0.8c0-0.2-0.1-0.5,0-0.7c-0.2-0.2-0.7-0.6-0.7-1c0-0.2,0.1-0.4,0.3-0.5c0.2-0.2,0.5-0.5,0.5-0.8
						c0-0.1-0.1-0.2-0.2-0.3c-0.2,0-0.7-0.2-0.9-0.2c-0.1,0-0.2-0.1-0.2-0.1h-0.1c-0.3-0.1-1.1-0.2-1.7,0h-0.1l-0.4-0.5l-0.9,0.5
						h-0.1l-0.6-0.4l-0.4,0.3h-0.1h-0.2c-0.4-0.1-0.9-0.2-1.1-0.1c-0.1,0-0.1,0.1-0.1,0.2l0,0c0,0,0,0.1,0.1,0.1
						c0.2,0.2,0.9,0.5,3,0.4c0.4-0.1,2.3-0.2,2.6,0.1c0,0,0.1,0.1,0.1,0.2c0,0,0,0,0,0.1c0,0.3-0.1,0.6-1.9,0.6c-0.1,0-0.3,0-0.6,0
						c-0.7,0-2-0.1-2.7-0.1c-0.2,0-1.5,0.1-1.9-0.1c-0.4-0.1-0.7-0.2-0.9-0.2c-0.1,0-0.1,0-0.1-0.1s0-0.1,0.1-0.1
						c0.3,0,0.8,0.1,1,0.2c0.3,0.1,1.1,0.1,1.8,0.1c0.8-0.1,2,0,2.8,0.1c0.3,0,0.5,0,0.6,0c1.7,0,1.7-0.3,1.7-0.4v-0.1
						c-0.1-0.2-1.6-0.1-2.5,0c-2.1,0.1-2.8-0.2-3.1-0.5c-0.1-0.1-0.1-0.2-0.1-0.3s0.1-0.3,0.2-0.3c0.3-0.2,0.8-0.1,1.3,0h0.1
						l0.4-0.5h0.1l0.6,0.4l0.9-0.5h0.1l0.4,0.5c0.7-0.3,1.5-0.1,1.7,0h0.1c0,0,0.1,0,0.2,0.1c0.2,0.1,0.7,0.2,0.9,0.2l0,0
						c0.3,0.1,0.3,0.3,0.3,0.5c0,0.4-0.4,0.8-0.6,1c-0.2,0.1-0.2,0.2-0.2,0.3c0,0.3,0.4,0.7,0.6,0.9l0.1,0.1c0,0,0,0,0,0.1v0.1
						c-0.1,0.1-0.1,0.5,0,0.7c0,0,0,0.1-0.1,0.1c-0.3,0.1-0.4,0.7-0.4,0.9v0.1h-0.1l-0.4-0.4l-0.2,0.3c0,0,0,0-0.1,0
						c0,0-0.1,0-0.1-0.1l-0.2-0.4l-0.3,0.3h-0.1l-0.1-0.1v-0.3C-193.4,315.3-193.7,315.7-193.8,316
						C-193.8,315.9-193.8,316-193.8,316L-193.8,316z"/>
				</g>
			</g>
			<g>
				<g>
					<path d="M-205.2,314.6c-0.1,0-0.1,0-0.1-0.1c0-0.2-0.3-0.6-0.7-0.7c0,0-0.1,0-0.1-0.1v-0.1l0.3-0.3l-0.8-0.3c0,0-0.1,0-0.1-0.1
						v-0.1l0.6-0.7l-0.6-0.5v-0.1v-0.1l0.9-0.6h0.1l0.8,0.5c0,0,0.1,0.1,0,0.1l-0.1,0.8l0.5,0.4c0,0,0,0,0,0.1v0.1l-0.3,0.4
						c0.6,0.3,0.8,0.8,0.7,1.1c0,0.1-0.1,0.1-0.1,0.1c-0.1,0-0.1-0.1-0.1-0.1c0.1-0.2,0-0.7-0.7-0.9c0,0-0.1,0-0.1-0.1
						c0-0.1,0-0.1,0-0.1l0.3-0.4l-0.5-0.3c0,0-0.1-0.1,0-0.1l0.2-0.7l-0.7-0.4l-0.7,0.5l0.6,0.5c0,0,0,0,0,0.1s0,0.1,0,0.1l-0.6,0.6
						l0.9,0.4c0,0,0.1,0,0.1,0.1c0,0.1,0,0.1,0,0.1l-0.3,0.3c0.4,0.2,0.7,0.6,0.7,0.8C-205.1,314.6-205.2,314.6-205.2,314.6z"/>
				</g>
			</g>
			<g>
				<g>
					<path d="M-202.8,314.5C-202.9,314.5-202.9,314.4-202.8,314.5c-0.2-0.3-0.5-0.6-0.7-0.8c-0.1-0.1-0.2-0.2-0.2-0.3
						c-0.4-0.3-0.5-0.8-0.4-1.1c-0.4-0.5-0.2-1.1,0.1-1.5c0-0.2,0.2-0.4,0.2-0.5h0.1l0.5,0.2c0.5-0.2,1.2-0.2,1.4-0.2l0.2-0.2
						c0,0,0,0,0.1,0l0,0h0.1c0.1,0.2,0.3,0.5,0.2,0.6c0,0.2,0.3,0.5,0.4,0.5l0,0c0.7,1.1-0.3,2-0.6,2.3c-0.1,0.1-0.1,0.1-0.1,0.1
						s0,0-0.1,0c-0.4,0.1-1.2,0.3-1.1,0.6C-202.7,314.4-202.7,314.5-202.8,314.5L-202.8,314.5z M-203.7,310.5
						c-0.1,0.1-0.1,0.2-0.1,0.3v0.1c-0.1,0.1-0.5,0.8,0,1.3v0.1c-0.1,0.3-0.1,0.7,0.3,0.9l0,0c0,0.1,0.1,0.1,0.2,0.2
						c0.2,0.2,0.4,0.4,0.5,0.6c0.2-0.3,0.7-0.4,1.2-0.6l0.1-0.1c0.4-0.3,1.2-1,0.6-2c-0.2-0.1-0.5-0.4-0.5-0.7l0,0
						c0,0,0-0.2-0.1-0.4l-0.1,0.1c0,0-0.1,0.1-0.1,0c-0.1,0-0.9-0.1-1.4,0.2h-0.1H-203.7z"/>
				</g>
			</g>
			<g>
				<g>
					<path d="M-203.7,311.7c0,0-0.1,0-0.1-0.1s0-0.1,0.1-0.1c0.3-0.1,0.9-0.1,0.9-0.1c0.1,0,0.1,0,0.1,0.1s0,0.1-0.1,0.1
						C-202.8,311.5-203.4,311.6-203.7,311.7L-203.7,311.7z"/>
				</g>
			</g>
			<g>
				<g>
					<path d="M-202.3,311.7c0,0-0.1,0-0.1-0.1s0-0.1,0.1-0.1c0.3-0.1,0.9-0.1,0.9-0.1c0.1,0,0.1,0,0.1,0.1s0,0.1-0.1,0.1
						C-201.4,311.5-202,311.6-202.3,311.7L-202.3,311.7z"/>
				</g>
			</g>
			<g>
				<g>
					<path d="M-202.5,313.4C-202.6,313.4-202.6,313.3-202.5,313.4c-0.1,0-0.7-0.7-0.8-0.8v-0.1h0.1c0.1,0.1,0.5,0.5,0.6,0.7l0.9-0.8
						h0.1v0.1L-202.5,313.4C-202.5,313.3-202.5,313.4-202.5,313.4z"/>
				</g>
			</g>
			<g>
				<g>
					<path d="M-202.4,312.3C-202.5,312.3-202.5,312.3-202.4,312.3l-0.4-0.2c-0.1,0-0.1-0.1,0-0.1c0-0.1,0.1-0.1,0.1,0l0.3,0.1
						l0.2-0.2c0,0,0.1-0.1,0.1,0c0,0,0.1,0.1,0,0.1L-202.4,312.3L-202.4,312.3z"/>
				</g>
			</g>
		</g>
		<g>
			<g>
				<g>
					<path d="M-205.3,322.9L-205.3,322.9C-205.4,322.9-205.4,322.9-205.3,322.9c-0.2-0.2-0.4-0.4-0.4-0.6c-0.2,0.1-0.4,0.3-0.5,0.5
						l-0.1,0.1c0,0-0.1,0-0.1-0.1c-0.1-0.5-0.1-0.9,0.1-1.2c0.3-0.4,0.8-0.5,1-0.5c0.5,0,0.8-0.1,1-0.3c0.3-0.4,0.3-0.8,0.3-1
						c0-0.1,0-0.1,0.1-0.1c0.1,0,0.1,0,0.1,0.1c0,0.2,0,0.7-0.3,1c-0.2,0.3-0.6,0.4-1.1,0.4c-0.2,0-0.6,0.1-0.9,0.4
						c-0.1,0.2-0.2,0.4-0.2,0.7c0.1-0.2,0.3-0.3,0.6-0.4h0.1v0.1c0,0,0.1,0.2,0.2,0.4l0.5-0.4h0.1l0.5,0.4l0.3-0.6c0,0,0,0,0.1-0.1
						h0.1l0.5,0.4l0.2-0.6c0,0,0-0.1,0.1-0.1h0.1l0.5,0.3v-0.4c0,0,0-0.1,0.1-0.1c0.1,0,0.1,0,0.2,0c0.1,0,0.2,0,0.3,0
						c0.1-0.1,0.2-0.4,0.2-1.1c0,0,0-0.1,0.1-0.1c0,0,0.1,0,0.1,0.1c0.1,0.2,0.3,0.7,0.5,0.9c0.4-0.1,2.1-0.5,3.1-1.1h0.1
						c0.1,0,0.2,0.1,0.4,0.2c0.4,0.2,0.9,0.5,1.1,0.5l0,0c0,0,0.1,0,0.1,0.1v0.1c-0.2,0.2-0.9,0.6-1.2,0.6c-0.1,0-0.4,0.2-0.5,0.4
						c-0.1,0.1-0.1,0.3,0,0.4c0.2-0.2,0.6-0.6,0.9-0.6c0,0,0.1,0,0.1,0.1l0.2,0.4l0.3-0.4c0,0,0,0,0.1,0h0.1l0.3,0.4l0.2-0.5
						c0,0,0-0.1,0.1-0.1h0.1l0.3,0.3c0.2-0.2,0.4-0.8,0.2-1.2c0-0.1,0-0.1,0-0.1c0.1,0,0.1,0,0.1,0c0.3,0.5-0.1,1.3-0.3,1.5h-0.1
						l-0.3-0.2l-0.2,0.5c0,0,0,0.1-0.1,0.1h-0.1l-0.3-0.4l-0.4,0.5h-0.1c0,0-0.1,0-0.1-0.1l-0.2-0.5c-0.3,0.1-0.7,0.5-0.7,0.6
						l-0.1,0.1c0,0-0.1,0-0.1-0.1c-0.2-0.3-0.1-0.6,0-0.8c0.2-0.3,0.5-0.5,0.7-0.5s0.6-0.2,0.9-0.4c-0.3-0.1-0.6-0.3-1-0.5
						c-0.1-0.1-0.3-0.1-0.3-0.2c-1.1,0.7-3,1.1-3.2,1.1c0,0,0,0-0.1,0c-0.2-0.1-0.3-0.3-0.4-0.6c0,0.4-0.1,0.7-0.2,0.8
						c-0.1,0.1-0.3,0.1-0.5,0.1l0,0v0.5c0,0,0,0.1-0.1,0.1h-0.1l-0.6-0.3l-0.2,0.6c0,0,0,0.1-0.1,0.1h-0.1l-0.5-0.4l-0.3,0.7
						c0,0,0,0-0.1,0.1h-0.1l-0.6-0.4L-205.3,322.9L-205.3,322.9z"/>
				</g>
			</g>
			<g>
				<g>
					<path d="M-193.8,322.6C-193.9,322.6-193.9,322.5-193.8,322.6c-0.2-0.3-0.3-0.6-0.2-0.8c0.1-0.3,0.5-0.5,0.8-0.6
						c0.1-0.1,0.2-0.2,0.2-0.2c0-0.1-0.4-0.2-0.8-0.2l0,0c-1.6,0-2.2-0.8-2.5-1.2l-0.1-0.1v-0.1h0.1l0.1,0.1
						c0.3,0.4,0.8,1.1,2.3,1.1c0.4,0,0.9,0,1,0.3c0.1,0.2,0,0.3-0.3,0.5l0,0c-0.2,0.1-0.6,0.2-0.7,0.5c0,0.1,0,0.2,0,0.4
						c0.2-0.3,0.5-0.7,0.7-0.6c0.1,0,0.1,0.1,0.1,0.1v0.2l0.2-0.2h0.1c0,0,0.1,0,0.1,0.1l0.2,0.3l0.2-0.3c0,0,0,0,0.1,0h0.1l0.3,0.3
						c0-0.3,0.2-0.6,0.4-0.8c0-0.2-0.1-0.5,0-0.7c-0.2-0.2-0.7-0.6-0.7-1c0-0.2,0.1-0.4,0.3-0.5c0.2-0.2,0.5-0.5,0.5-0.8
						c0-0.1-0.1-0.2-0.2-0.3c-0.2,0-0.6-0.1-0.9-0.2c-0.1,0-0.2-0.1-0.2-0.1h-0.1c-0.3-0.1-1.1-0.3-1.7,0h-0.1l-0.3-0.8l-0.9,0.5
						h-0.1l-0.6-0.4l-0.4,0.5h-0.1h-0.2c-0.4-0.1-0.9-0.2-1.1-0.1c-0.1,0-0.1,0.1-0.1,0.2l0,0c0,0,0,0.1,0.1,0.1
						c0.2,0.2,0.8,0.5,3,0.4c0.4-0.1,2.3-0.2,2.6,0.1c0,0,0.1,0.1,0.1,0.2c0,0,0,0,0,0.1c0,0.3-0.1,0.6-1.9,0.6c-0.1,0-0.3,0-0.6,0
						c-0.7,0-2-0.1-2.7-0.1c-0.3,0-1.5,0.1-1.9-0.1c-0.4-0.1-0.7-0.2-0.9-0.2l0,0c-0.1,0-0.1,0-0.1-0.1c0-0.1,0-0.1,0.1-0.1
						c0.3,0,0.8,0.1,1,0.2c0.3,0.1,1.1,0.1,1.8,0.1c0.8-0.1,2,0,2.8,0.1c0.3,0,0.5,0,0.6,0c1.7,0,1.7-0.3,1.7-0.4v-0.1
						c-0.1-0.2-1.6-0.1-2.5,0c-2.1,0.1-2.8-0.2-3.1-0.5c-0.1-0.1-0.1-0.2-0.1-0.3s0.1-0.3,0.2-0.3c0.3-0.2,0.8-0.1,1.3,0h0.1
						l0.4-0.5h0.1l0.6,0.4l0.9-0.5h0.1l0.4,0.5c0.7-0.3,1.5-0.1,1.8,0h0.1c0,0,0.1,0,0.2,0.1c0.3,0.1,0.7,0.2,0.9,0.2l0,0
						c0.3,0.1,0.3,0.3,0.3,0.5c0,0.4-0.3,0.8-0.6,1c-0.2,0.1-0.2,0.2-0.2,0.3c0,0.3,0.4,0.7,0.6,0.9l0.1,0.1c0,0,0,0,0,0.1v0.1
						c-0.1,0.1-0.1,0.5,0,0.7c0,0,0,0.1-0.1,0.1c-0.3,0.1-0.4,0.7-0.4,0.9v0.1h-0.1l-0.4-0.4l-0.2,0.3c0,0,0,0.1-0.1,0
						c0,0-0.1,0-0.1-0.1l-0.2-0.4l-0.3,0.3h-0.1l-0.1-0.1v-0.3C-193.4,321.9-193.7,322.3-193.8,322.6
						C-193.8,322.5-193.8,322.6-193.8,322.6L-193.8,322.6z"/>
				</g>
			</g>
			<g>
				<g>
					<path d="M-205.2,321.2c-0.1,0-0.1,0-0.1-0.1c0-0.2-0.3-0.6-0.7-0.7c0,0-0.1,0-0.1-0.1v-0.1l0.3-0.3l-0.9-0.4c0,0-0.1,0-0.1-0.1
						v-0.1l0.6-0.7l-0.6-0.5V318v-0.1l0.9-0.6h0.1l0.8,0.5c0,0,0.1,0.1,0,0.1v0.9l0.5,0.4c0,0,0,0,0,0.1v0.1l-0.3,0.4
						c0.6,0.3,0.8,0.8,0.7,1.1c0,0.1-0.1,0.1-0.1,0.1c-0.1,0-0.1-0.1-0.1-0.1c0.1-0.2,0-0.7-0.7-0.9c0,0-0.1,0-0.1-0.1s0-0.1,0-0.1
						l0.3-0.4l-0.5-0.3c0,0-0.1-0.1,0-0.1l0.2-0.7l-0.7-0.4l-0.7,0.5l0.6,0.5c0,0,0,0,0,0.1v0.1l-0.6,0.6l0.9,0.4c0,0,0.1,0,0.1,0.1
						c0,0.1,0,0.1,0,0.1l-0.3,0.3c0.4,0.2,0.7,0.6,0.7,0.8C-205.1,321.2-205.2,321.2-205.2,321.2z"/>
				</g>
			</g>
			<g>
				<g>
					<path d="M-202.8,321.1C-202.9,321.1-202.9,321.1-202.8,321.1c-0.2-0.3-0.5-0.6-0.7-0.8c-0.1-0.1-0.2-0.2-0.2-0.3
						c-0.4-0.3-0.5-0.8-0.4-1.1c-0.4-0.5-0.2-1.1,0.1-1.5c0-0.2,0.2-0.4,0.2-0.5h0.1l0.5,0.2c0.5-0.2,1.2-0.2,1.4-0.2l0.2-0.2h0.1
						l0,0h0.1c0.1,0.2,0.3,0.5,0.2,0.6c0,0.2,0.3,0.5,0.4,0.5l0,0c0.7,1.1-0.3,2-0.6,2.3c-0.1,0.1-0.1,0.1-0.1,0.1s0,0-0.1,0
						c-0.4,0.1-1.2,0.3-1.1,0.6C-202.7,321-202.7,321.1-202.8,321.1L-202.8,321.1z M-203.7,317.1c-0.1,0.1-0.1,0.2-0.1,0.3v0.1
						c-0.1,0.1-0.5,0.8,0,1.3v0.1c-0.1,0.3-0.1,0.7,0.3,0.9l0,0c0,0.1,0.1,0.1,0.2,0.2c0.2,0.2,0.4,0.4,0.5,0.6
						c0.2-0.3,0.7-0.4,1.2-0.6l0.1-0.1c0.4-0.3,1.2-1,0.6-2c-0.2-0.1-0.5-0.4-0.5-0.7l0,0c0,0,0-0.2-0.1-0.4l-0.1,0.1
						c0,0-0.1,0.1-0.1,0c-0.1-0.1-0.9-0.1-1.4,0.2h-0.1H-203.7z"/>
				</g>
			</g>
			<g>
				<g>
					<path d="M-203.7,318.3c0,0-0.1,0-0.1-0.1c0-0.1,0-0.1,0.1-0.1c0.3-0.1,0.9-0.1,0.9-0.1l0,0c0.1,0,0.1,0,0.1,0.1s0,0.1-0.1,0.1
						C-202.8,318.2-203.4,318.2-203.7,318.3L-203.7,318.3z"/>
				</g>
			</g>
			<g>
				<g>
					<path d="M-202.3,318.3C-202.3,318.3-202.4,318.3-202.3,318.3c-0.1-0.2-0.1-0.2,0-0.2c0.3-0.1,0.9-0.1,0.9-0.1l0,0
						c0.1,0,0.1,0,0.1,0.1s0,0.1-0.1,0.1C-201.4,318.2-202,318.2-202.3,318.3L-202.3,318.3z"/>
				</g>
			</g>
			<g>
				<g>
					<path d="M-202.5,320C-202.6,320-202.6,320-202.5,320c-0.1,0-0.7-0.7-0.8-0.8v-0.1h0.1c0.1,0.1,0.5,0.5,0.6,0.7l0.9-0.8h0.1v0.1
						L-202.5,320L-202.5,320z"/>
				</g>
			</g>
			<g>
				<g>
					<path d="M-202.4,318.9C-202.5,318.9-202.5,318.9-202.4,318.9l-0.4-0.2c-0.1,0-0.1-0.1,0-0.1c0-0.1,0.1-0.1,0.1,0l0.3,0.1
						l0.2-0.2c0,0,0.1-0.1,0.1,0c0,0,0.1,0.1,0,0.1L-202.4,318.9L-202.4,318.9z"/>
				</g>
			</g>
		</g>
		<g>
			<g>
				<g>
					<path d="M-205.3,329.5L-205.3,329.5C-205.4,329.5-205.4,329.5-205.3,329.5c-0.2-0.2-0.4-0.5-0.4-0.6c-0.2,0.1-0.4,0.3-0.5,0.5
						l-0.1,0.1c0,0-0.1,0-0.1-0.1c-0.1-0.5-0.1-0.9,0.1-1.2c0.3-0.4,0.8-0.5,1-0.5c0.5,0,0.8-0.1,1-0.3c0.3-0.4,0.3-0.8,0.3-1
						c0-0.1,0-0.1,0.1-0.1c0.1,0,0.1,0,0.1,0.1c0,0.2,0,0.7-0.3,1c-0.2,0.3-0.6,0.4-1.1,0.4c-0.2,0-0.6,0.1-0.9,0.4
						c-0.1,0.2-0.2,0.4-0.2,0.7c0.1-0.2,0.3-0.3,0.6-0.4h0.1v0.1c0,0,0.1,0.2,0.2,0.4l0.5-0.4h0.1l0.5,0.4l0.3-0.6c0,0,0,0,0.1-0.1
						h0.1l0.5,0.4l0.2-0.6c0,0,0-0.1,0.1-0.1h0.1l0.5,0.3v-0.4c0,0,0-0.1,0.1-0.1c0.1,0,0.1,0,0.2,0c0.1,0,0.2,0,0.3,0
						c0.1-0.1,0.2-0.4,0.2-1.1c0,0,0-0.1,0.1-0.1c0,0,0.1,0,0.1,0.1c0.1,0.2,0.3,0.7,0.5,0.9c0.3-0.1,2.1-0.4,3.1-1.1h0.1
						c0.1,0,0.2,0.1,0.4,0.2c0.3,0.2,0.9,0.5,1.2,0.5l0,0c0,0,0.1,0,0.1,0.1v0.1c-0.2,0.2-0.9,0.6-1.2,0.6c-0.1,0-0.4,0.2-0.5,0.4
						c-0.1,0.1-0.1,0.3,0,0.4c0.2-0.2,0.6-0.6,0.9-0.6c0,0,0.1,0,0.1,0.1l0.2,0.4l0.3-0.4h0.1h0.1l0.3,0.4l0.2-0.5
						c0,0,0-0.1,0.1-0.1h0.1l0.3,0.3c0.2-0.2,0.4-0.8,0.2-1.2c0-0.1,0-0.1,0-0.1c0.1,0,0.1,0,0.1,0c0.3,0.5-0.1,1.3-0.3,1.5h-0.1
						l-0.3-0.2l-0.3,0.6c0,0,0,0.1-0.1,0.1h-0.1l-0.4-0.4l-0.4,0.5h-0.1c0,0-0.1,0-0.1-0.1l-0.1-0.6c-0.3,0.1-0.7,0.5-0.7,0.6
						l-0.1,0.1l0,0c0,0-0.1,0-0.1-0.1c-0.2-0.3-0.1-0.6,0-0.8c0.2-0.3,0.5-0.5,0.7-0.5s0.6-0.2,0.9-0.4c-0.3-0.1-0.6-0.3-1-0.5
						c-0.1-0.1-0.3-0.1-0.3-0.2c-1.1,0.7-3,1.1-3.2,1.1c0,0,0,0-0.1,0c-0.2-0.1-0.3-0.3-0.4-0.6c0,0.4-0.1,0.7-0.2,0.8
						c-0.1,0.1-0.3,0.1-0.5,0.1l0,0v0.5c0,0,0,0.1-0.1,0.1h-0.1l-0.6-0.3l-0.2,0.6c0,0,0,0.1-0.1,0.1h-0.1l-0.5-0.4l-0.3,0.7
						c0,0,0,0-0.1,0.1h-0.1l-0.6-0.5L-205.3,329.5L-205.3,329.5z"/>
				</g>
			</g>
			<g>
				<g>
					<path d="M-193.8,329.2C-193.9,329.2-193.9,329.1-193.8,329.2c-0.2-0.3-0.3-0.6-0.2-0.8c0.1-0.3,0.5-0.5,0.8-0.6
						c0.2-0.1,0.2-0.2,0.2-0.2c0-0.1-0.4-0.2-0.8-0.2l0,0c-1.6,0-2.2-0.8-2.5-1.2l-0.1-0.1V326h0.1l0.1,0.1c0.3,0.4,0.8,1.1,2.3,1.1
						c0.4,0,0.9,0,1,0.3c0.1,0.2,0,0.3-0.3,0.5l0,0c-0.2,0.1-0.6,0.2-0.7,0.5c0,0.1,0,0.2,0,0.4c0.2-0.3,0.5-0.7,0.7-0.6
						c0.1,0,0.1,0.1,0.1,0.1v0.2l0.2-0.2h0.1c0,0,0.1,0,0.1,0.1l0.2,0.3l0.2-0.3c0,0,0,0,0.1,0h0.1l0.3,0.3c0-0.3,0.2-0.6,0.4-0.8
						c0-0.2-0.1-0.5,0-0.7c-0.2-0.2-0.7-0.6-0.7-1c0-0.2,0.1-0.4,0.3-0.5c0.2-0.2,0.5-0.5,0.5-0.8c0-0.1-0.1-0.2-0.2-0.3
						c-0.2,0-0.6-0.1-0.9-0.2c-0.1,0-0.2-0.1-0.2-0.1h-0.1c-0.3-0.1-1.1-0.2-1.7,0h-0.1l-0.4-0.5l-0.9,0.5h-0.1l-0.6-0.4l-0.4,0.5
						h-0.1h-0.2c-0.4-0.1-0.9-0.2-1.1-0.1c-0.1,0-0.1,0.1-0.1,0.2l0,0c0,0,0,0.1,0.1,0.1c0.2,0.2,0.8,0.5,3,0.4
						c0.4-0.1,2.3-0.2,2.6,0.1c0,0,0.1,0.1,0.1,0.2c0,0,0,0,0,0.1c0,0.3-0.1,0.6-1.9,0.6c-0.1,0-0.3,0-0.6,0c-0.7,0-2-0.1-2.8-0.1
						c-0.3,0-1.5,0.1-1.9-0.1c-0.4-0.1-0.7-0.2-0.9-0.2c-0.1,0-0.1,0-0.1-0.1s0-0.1,0.1-0.1c0.3,0,0.7,0.1,1,0.2
						c0.3,0.1,1.1,0.1,1.8,0.1c0.8-0.1,2,0,2.8,0.1c0.3,0,0.5,0,0.6,0c1.7,0,1.7-0.3,1.7-0.4v-0.1c-0.1-0.2-1.6-0.1-2.5,0
						c-2.1,0.1-2.8-0.2-3.1-0.5c-0.1-0.1-0.1-0.2-0.1-0.3s0.1-0.3,0.2-0.3c0.3-0.2,0.8-0.1,1.3,0h0.1l0.4-0.5h0.1l0.6,0.4l0.9-0.5
						h0.1l0.4,0.5c0.7-0.3,1.5-0.1,1.8,0h0.1c0,0,0.1,0,0.2,0.1c0.3,0.1,0.7,0.2,0.9,0.2l0,0c0.3,0.1,0.3,0.3,0.3,0.5
						c0,0.4-0.3,0.8-0.6,1c-0.2,0.1-0.2,0.2-0.2,0.3c0,0.3,0.4,0.7,0.6,0.9l0.1,0.1c0,0,0,0,0,0.1v0.1c-0.1,0.1-0.1,0.5,0,0.7
						c0,0,0,0.1-0.1,0.1c-0.3,0.1-0.4,0.7-0.4,0.9v0.1h-0.1l-0.4-0.4l-0.2,0.3h-0.1c0,0-0.1,0-0.1-0.1l-0.2-0.4l-0.3,0.3h-0.1
						l-0.1-0.1v-0.3C-193.4,328.5-193.7,328.9-193.8,329.2C-193.8,329.1-193.8,329.2-193.8,329.2L-193.8,329.2z"/>
				</g>
			</g>
			<g>
				<g>
					<path d="M-205.2,327.8c-0.1,0-0.1,0-0.1-0.1c0-0.2-0.3-0.6-0.7-0.7c0,0-0.1,0-0.1-0.1v-0.1l0.3-0.3l-0.9-0.4c0,0-0.1,0-0.1-0.1
						v-0.1l0.6-0.7l-0.6-0.5v-0.1v-0.1l0.9-0.6h0.1l0.8,0.5c0,0,0.1,0.1,0,0.1v0.9l0.5,0.4c0,0,0,0,0,0.1v0.1l-0.3,0.4
						c0.6,0.3,0.8,0.8,0.7,1.1c0,0.1-0.1,0.1-0.1,0.1c-0.1,0-0.1-0.1-0.1-0.1c0.1-0.2,0-0.7-0.7-0.9c0,0-0.1,0-0.1-0.1s0-0.1,0-0.1
						l0.3-0.4l-0.5-0.3c0,0-0.1-0.1,0-0.1l0.2-0.7l-0.7-0.4l-0.7,0.5l0.6,0.5c0,0,0,0,0,0.1s0,0.1,0,0.1l-0.6,0.6l0.9,0.4
						c0,0,0.1,0,0.1,0.1c0,0.1,0,0.1,0,0.1l-0.3,0.3c0.4,0.2,0.7,0.6,0.7,0.8C-205.1,327.8-205.2,327.8-205.2,327.8z"/>
				</g>
			</g>
			<g>
				<g>
					<path d="M-202.8,327.7C-202.9,327.7-202.9,327.7-202.8,327.7c-0.2-0.3-0.5-0.6-0.7-0.8c-0.1-0.1-0.2-0.2-0.2-0.3
						c-0.4-0.3-0.5-0.8-0.4-1.1c-0.4-0.5-0.2-1.1,0.1-1.5c0-0.2,0.2-0.4,0.2-0.5h0.1l0.5,0.2c0.5-0.2,1.2-0.2,1.4-0.2l0.2-0.2
						c0,0,0,0,0.1,0l0,0h0.1c0.1,0.2,0.3,0.5,0.2,0.6c0,0.2,0.3,0.5,0.5,0.5l0,0c0.7,1.1-0.3,2-0.6,2.3c-0.1,0.1-0.1,0.1-0.1,0.1
						s0,0-0.1,0c-0.4,0.1-1.2,0.3-1.1,0.6C-202.7,327.6-202.7,327.7-202.8,327.7L-202.8,327.7z M-203.7,323.7
						c-0.1,0.1-0.1,0.2-0.1,0.3v0.1c-0.1,0.1-0.5,0.8,0,1.3v0.1c-0.1,0.3-0.1,0.7,0.3,0.9l0,0c0,0.1,0.1,0.1,0.2,0.2
						c0.2,0.2,0.4,0.4,0.5,0.6c0.2-0.3,0.7-0.4,1.2-0.6l0.1-0.1c0.4-0.3,1.2-1,0.6-2c-0.2-0.1-0.5-0.4-0.5-0.7l0,0
						c0,0,0-0.2-0.1-0.4l-0.1,0.1c0,0-0.1,0.1-0.1,0c-0.1,0-0.9-0.1-1.4,0.2h-0.1H-203.7z"/>
				</g>
			</g>
			<g>
				<g>
					<path d="M-203.7,324.9c0,0-0.1,0-0.1-0.1c0-0.1,0-0.1,0.1-0.1c0.3-0.1,0.9-0.1,0.9-0.1c0.1,0,0.1,0,0.1,0.1
						c0,0.1,0,0.1-0.1,0.1C-202.8,324.8-203.4,324.8-203.7,324.9L-203.7,324.9z"/>
				</g>
			</g>
			<g>
				<g>
					<path d="M-202.3,324.9c0,0-0.1,0-0.1-0.1c0-0.1,0-0.1,0.1-0.1c0.3-0.1,0.9-0.1,0.9-0.1c0.1,0,0.1,0,0.1,0.1
						c0,0.1,0,0.1-0.1,0.1C-201.4,324.8-202,324.8-202.3,324.9L-202.3,324.9z"/>
				</g>
			</g>
			<g>
				<g>
					<path d="M-202.5,326.6C-202.6,326.6-202.6,326.6-202.5,326.6c-0.1,0-0.7-0.7-0.8-0.8v-0.1h0.1c0.1,0.1,0.5,0.5,0.6,0.7l0.9-0.8
						h0.1v0.1L-202.5,326.6L-202.5,326.6z"/>
				</g>
			</g>
			<g>
				<g>
					<path d="M-202.4,325.5C-202.5,325.5-202.5,325.5-202.4,325.5l-0.4-0.2c-0.1,0-0.1-0.1,0-0.1c0-0.1,0.1-0.1,0.1,0l0.3,0.1
						l0.2-0.2c0,0,0.1-0.1,0.1,0c0,0,0.1,0.1,0,0.1L-202.4,325.5L-202.4,325.5z"/>
				</g>
			</g>
		</g>
	</g>
	<g>
		<g>
			<path class="st3" d="M-207.6,283.1l3.2,7.5c1.4,0.6,5,1.3,9.7,0.1l3-7.5l-3,2.4l-1.2-3l-1.9,2.3l-1.4-2.7l-2,2.8l-1.9-2.6l-1.3,3
				L-207.6,283.1z"/>
		</g>
	</g>
	<g>
		<g>
			<g>
				<path d="M-194.8,290.8L-194.8,290.8c-4.8-0.9-8-0.4-9.2-0.1c-0.2,0-0.3,0.1-0.4,0.1c0,0-0.1,0-0.1-0.1l-3.2-7.5v-0.1h0.1
					l3.1,2.2l1.3-2.8c0,0,0-0.1,0.1-0.1h0.1l1.8,2.5l1.7-2.8c0,0,0.1-0.1,0.1,0c0,0,0.1,0,0.1,0.1l1.4,2.6l1.8-2.2h0.1
					c0,0,0.1,0,0.1,0.1l1.1,2.9l2.9-2.3h0.1c0,0,0.1,0.1,0,0.1L-194.8,290.8C-194.7,290.8-194.7,290.8-194.8,290.8z M-199.9,290.1
					c1.4,0,3.1,0.1,5.1,0.5l2.9-7.1l-2.7,2.2h-0.1c0,0-0.1,0-0.1-0.1l-1.2-2.8l-1.8,2.2h-0.1c0,0-0.1,0-0.1-0.1l-1.4-2.6l-1.7,2.7
					c0,0,0,0-0.1,0l0,0h-0.1l-1.8-2.5l-1.3,2.8c0,0,0,0-0.1,0.1h-0.1l-2.9-2.1l3,7.1c0.1,0,0.2,0,0.3-0.1
					C-203.3,290.3-201.9,290.1-199.9,290.1z"/>
			</g>
		</g>
		<g>
			<g>
				<path d="M-202.3,290.3L-202.3,290.3c-0.1-0.1-0.1-0.1-0.1-0.2l1.2-1.2l-1.5-1.2v-0.1h0.1l1.5,1.3l1.4-1.4h0.1l0.1,0.1v2.7
					c0,0,0,0.1-0.1,0.1h-0.1l-1.3-1.3L-202.3,290.3C-202.2,290.3-202.3,290.3-202.3,290.3z M-200.8,288.9l1.2,1v-2.2L-200.8,288.9z"
					/>
			</g>
		</g>
		<g>
			<g>
				<path d="M-199.9,291.5c-2.2,0-3.7-0.4-4.6-0.8c0,0-0.1,0-0.1-0.1v-0.1l0.8-1.2l-1.7-1.2c0,0-0.1-0.1,0-0.1c0,0,0-0.1,0.1-0.1
					c0.1,0,0.2,0,0.4-0.1c1.5-0.3,5.9-1,11.3,0.2c0,0,0.1,0,0.1,0.1v0.1l-1.7,1.2l0.7,1.2v0.1c0,0,0,0.1-0.1,0.1
					C-196.8,291.3-198.5,291.5-199.9,291.5z M-204.3,290.5c1.5,0.6,4.6,1.2,9.3,0.1l-0.6-1l-1.2,0.8h-0.1v-0.1l1.2-0.8l-0.9-1.6
					c-2.3-0.3-4.3-0.2-5.8-0.1l0.2,2.5c0,0,0,0.1-0.1,0.1h-0.1l-1.2-0.9L-204.3,290.5z M-203.5,289.3l1.1,0.8l-0.2-2.1L-203.5,289.3
					z M-196.3,287.8l0.8,1.4l1.5-1C-194.8,288.1-195.6,287.9-196.3,287.8z M-205.1,288.1l1.5,1.1l0.9-1.4c-1,0.1-1.7,0.2-2.2,0.3
					C-205,288.1-205.1,288.1-205.1,288.1z"/>
			</g>
		</g>
		<g>
			<g>
				<path d="M-199.5,291.4c-0.1,0-0.1,0-0.1-0.1v-1.1v-0.1l1.4-1.1l-1.4-1.4v-0.1h0.1l1.4,1.4l1.5-1.2h0.1l0.1,0.1l-0.3,2.6
					c0,0,0,0.1-0.1,0.1c-0.1,0-0.1,0-0.1,0l-1.2-1.2l-1.3,1.1v1C-199.4,291.3-199.5,291.4-199.5,291.4z M-197.9,289l1,1.1l0.2-2.1
					L-197.9,289z"/>
			</g>
		</g>
		<g>
			<g>
				<g>
					<path d="M-203.8,287.1C-203.8,287.1-203.8,287-203.8,287.1c-0.1-0.1-0.1-0.1-0.1-0.1l0.8-2.8c0,0,0-0.1,0.1-0.1
						c0,0,0.1,0,0.1,0.1l1.4,2.6v0.1c0,0,0,0.1-0.1,0.1L-203.8,287.1C-203.7,287.1-203.8,287.1-203.8,287.1z M-203,284.4l-0.7,2.4
						l1.9-0.2L-203,284.4z"/>
				</g>
			</g>
			<g>
				<g>
					<path d="M-198.4,286.8L-198.4,286.8l-2.2-0.1h-0.1v-0.1l1.1-2.5l0.1-0.1l0,0c0,0,0.1,0,0.1,0.1L-198.4,286.8
						C-198.3,286.7-198.3,286.7-198.4,286.8C-198.3,286.8-198.4,286.8-198.4,286.8z M-200.5,286.5l1.9,0.1l-1-2.3L-200.5,286.5z"/>
				</g>
			</g>
			<g>
				<g>
					<path d="M-195.6,287.1L-195.6,287.1l-1.9-0.2c0,0-0.1,0-0.1-0.1c0-0.1,0-0.1,0-0.1l1.1-2.5l0.1-0.1c0,0,0.1,0,0.1,0.1l0.8,2.7
						C-195.4,287-195.5,287-195.6,287.1C-195.5,287.1-195.5,287.1-195.6,287.1z M-197.3,286.7l1.6,0.2l-0.7-2.3L-197.3,286.7z"/>
				</g>
			</g>
			<g>
				<g>
					<path d="M-194.2,287.3L-194.2,287.3l-1-0.2c0,0-0.1,0-0.1-0.1v-0.1l1.8-1.8h0.1c0,0,0.1,0.1,0,0.1L-194.2,287.3L-194.2,287.3z
						 M-195,286.9l0.7,0.1l0.6-1.4L-195,286.9z"/>
				</g>
			</g>
			<g>
				<g>
					<path d="M-205.2,287.4C-205.2,287.4-205.3,287.3-205.2,287.4l-0.8-2.1v-0.1h0.1l1.7,1.8v0.1c0,0,0,0.1-0.1,0.1L-205.2,287.4
						L-205.2,287.4z M-205.7,285.7l0.5,1.5l0.7-0.2L-205.7,285.7z"/>
				</g>
			</g>
		</g>
	</g>
	<g>
		<g>
			<g>
				<path d="M-195.8,296.2c-0.1,0-0.1,0-0.2,0c-0.3,0-0.9-0.3-1-1.2c-0.2,0-0.5-0.1-0.5-0.1c-0.1,0-0.1-0.1-0.1-0.1
					c0-0.1,0-0.1,0-0.2c0.2-0.5,0.1-1.1,0-1.3c0-0.1,0-0.1,0-0.2s0.1-0.1,0.1-0.1h0.1c-0.3-0.5-0.2-0.8-0.1-0.9
					c0.2-0.3,0.6-0.5,1-0.3c0.5,0.1,0.8,0.6,0.9,1.2l6.9-0.5c0,0,0,0,0.1,0l1.4,0.4c0.1,0,0.1,0.1,0.1,0.2s0,0.2-0.1,0.2l-1.2,0.7
					c0,0,0,0-0.1,0l-6.8,0.8c0.1,0.1,0.1,0.1,0.2,0.2c0.2,0.2,0.3,0.5,0.2,0.7C-195.1,296-195.5,296.2-195.8,296.2z M-196.9,294.5
					L-196.9,294.5c0.2,0,0.2,0.1,0.2,0.2c0.1,0.6,0.3,1,0.7,1c0.3,0.1,0.6-0.1,0.7-0.2c0,0,0-0.1-0.1-0.2l0,0c0,0-0.4-0.3-0.5-0.6
					c0-0.1,0-0.1,0-0.2s0.1-0.1,0.1-0.1l7.1-0.9l0.8-0.4l-0.9-0.3l-7.1,0.5c-0.1,0-0.1,0-0.2-0.1l-0.1-0.1c0-0.6-0.3-0.9-0.6-1
					c-0.2-0.1-0.5,0-0.6,0.2c-0.1,0.2,0,0.4,0.2,0.7c0,0.1,0.1,0.1,0,0.2c0,0.1-0.1,0.1-0.1,0.1l-0.2,0.1c0,0.2,0.1,0.7,0,1.1
					C-197.1,294.6-197,294.6-196.9,294.5C-197,294.5-196.9,294.5-196.9,294.5z"/>
			</g>
		</g>
		<g>
			<g>
				<path d="M-195.9,296.2c-0.1,0-0.1,0-0.2,0c-0.3,0-0.9-0.3-1.1-1.4l0,0c-0.1-0.2-0.4-0.6-0.2-1.6c-0.4-0.6-0.3-1-0.2-1.1
					c0.2-0.3,0.6-0.4,1-0.3c0.5,0.1,0.9,0.7,0.9,1.4c0.1,0.3,0.2,1,0.1,1.5c0.1,0.1,0.2,0.3,0.3,0.4c0.2,0.2,0.3,0.4,0.2,0.7
					C-195.1,296-195.5,296.2-195.9,296.2z M-196.8,292.1c-0.2,0-0.3,0.1-0.4,0.2c-0.1,0.2,0,0.4,0.2,0.7l0.1,0.1v0.1
					c-0.2,0.9,0,1.2,0.1,1.3c0,0.1,0.1,0.1,0.1,0.2l0,0c0.1,0.6,0.3,1,0.7,1.1c0.3,0,0.6-0.1,0.7-0.3c0-0.1,0-0.1-0.1-0.2
					c-0.2-0.2-0.4-0.5-0.5-0.5v-0.1v-0.1c0.1-0.4,0-1.2-0.1-1.4v-0.1c0-0.5-0.3-0.9-0.6-1C-196.6,292.1-196.7,292.1-196.8,292.1z"/>
			</g>
		</g>
		<g>
			<g>
				<g>
					<path d="M-193.2,305.5c-0.1,0-0.1,0-0.2-0.1c-0.1-0.1,0-0.2,0-0.3c0.3-0.2,0.4-0.4,0.4-0.7c0-0.2-0.2-0.4-0.5-0.5
						c-0.5-0.1-1,0.1-1.5,0.6c-0.1,0.1-0.2,0.1-0.3,0c-0.1-0.1-0.1-0.2,0-0.3c0.5-0.7,0.5-1.4,0.2-1.9c-0.3-0.4-1-0.6-1.6-0.4
						c-0.4,0.1-1.4,0.6-1.5,2.4c0,0.1,0,0.1,0,0.2s-0.1,0.2-0.2,0.2s-0.2-0.1-0.2-0.2s0-0.1,0-0.2c0-0.3-0.2-0.5-0.5-0.6
						c-0.4-0.2-0.8-0.1-1.2,0.3l-0.1,0.1c-0.1,0.1-0.2,0.1-0.3,0s-0.1-0.2,0-0.3l0.1-0.1c0.6-0.7,0.7-1.3,0.4-1.7
						c-0.4-0.5-1.3-0.6-1.9-0.3c-0.5,0.3-0.6,0.8-0.3,1.4c0,0.1,0,0.2-0.1,0.3c-0.1,0-0.2,0-0.3-0.1c-0.4-0.9-1.2-1-1.8-0.8
						c-0.8,0.3-1.3,1.2-0.8,2.6c0,0.1,0,0.2-0.1,0.3c-0.1,0-0.2,0-0.3-0.1c-0.6-1.7,0.1-2.8,1.1-3.2c0.6-0.2,1.2-0.2,1.7,0.3
						c0.1-0.6,0.4-0.9,0.6-1c0.8-0.4,1.9-0.3,2.4,0.4c0.2,0.3,0.4,0.7,0.1,1.5c0.3-0.1,0.6,0,0.9,0.1c0.2,0.1,0.3,0.2,0.4,0.3
						c0.2-1.1,0.9-1.8,1.7-2.1c0.8-0.2,1.6,0,2,0.6c0.3,0.4,0.4,1,0.2,1.6c0.4-0.2,0.9-0.3,1.3-0.2c0.4,0.1,0.7,0.4,0.8,0.8
						S-192.7,305.2-193.2,305.5C-193.1,305.5-193.2,305.5-193.2,305.5z"/>
				</g>
			</g>
			<g>
				<g>
					<path d="M-197.9,295c-0.2,0-0.3-0.1-0.4-0.1c-0.1-0.1-0.2-0.2-0.2-0.4c0-0.1,0.1-0.2,0.2-0.2s0.2,0.1,0.2,0.2s0,0.1,0,0.1
						c0.1,0.1,0.4,0.1,0.4-0.2c0-0.1,0-0.3,0-0.6c0-0.1,0-0.1,0-0.1c0-0.2-0.1-0.3-0.2-0.3h-0.1v0.1c0,0.1-0.1,0.2-0.2,0.2
						c-0.1,0-0.2-0.1-0.2-0.2c0-0.2,0.1-0.4,0.2-0.4c0.3-0.3,1-0.1,1,0.5c0,0,0,0.1,0,0.2c0,0.1,0,0.5,0,0.6
						C-197.3,294.8-197.6,295-197.9,295z"/>
				</g>
			</g>
			<g>
				<g>
					<path d="M-198.8,296.1L-198.8,296.1c-0.2-0.1-0.5-0.3-0.5-0.3l0.2-0.4c0,0,0.3,0.2,0.4,0.3c0.1,0.1,0.1,0.2,0.1,0.3
						C-198.7,296.1-198.8,296.1-198.8,296.1z"/>
				</g>
			</g>
			<g>
				<g>
					<path d="M-204.1,302.4c-0.1,0-0.2-0.1-0.2-0.1v-0.1c-0.2-0.5-0.4-1.1-0.6-1.9c-0.1-0.2-0.4-0.6-0.3-1c0.1-0.3,0.3-0.5,0.7-0.7
						c1-1.1,2.5-2.2,4.5-3.2l0,0c-0.1-0.3-0.2-0.7,0.1-1.7c0.2-0.3,0.5-0.6,0.9-0.5c0.2,0,0.4,0.2,0.4,0.5c0,0.1,0,0.7-0.1,1
						c0,0.2-0.2,0.5-0.6,0.6c-0.1,0-0.2,0-0.3,0l0,0c0,0.1,0.1,0.2,0.1,0.3s0,0.2-0.1,0.2c-2,1-3.6,2.1-4.5,3.2c0,0,0,0-0.1,0.1
						c-0.3,0.1-0.4,0.3-0.5,0.5c-0.1,0.2,0.1,0.5,0.3,0.7v0.1c0.2,0.8,0.4,1.4,0.6,1.9v0.1C-203.9,302.2-203.9,302.3-204.1,302.4
						C-204,302.4-204.1,302.4-204.1,302.4z M-199.8,294.5c0.1,0.1,0.2,0.2,0.3,0.2s0.2-0.2,0.2-0.3c0-0.2,0.1-0.7,0.1-0.9
						c0-0.1-0.1-0.1-0.1-0.1c-0.1,0-0.3,0.1-0.4,0.2C-199.8,294-199.8,294.3-199.8,294.5z"/>
				</g>
			</g>
			<g>
				<g>
					<path d="M-198.7,295c-0.2,0-0.3-0.1-0.4-0.1c-0.1-0.1-0.2-0.2-0.2-0.4c0-0.1,0.1-0.2,0.2-0.2s0.2,0.1,0.2,0.2s0,0.1,0,0.1
						c0.1,0.1,0.4,0.1,0.4-0.2c0-0.1,0-0.3,0-0.6c0-0.1,0-0.1,0-0.1c0-0.2-0.1-0.3-0.2-0.3h-0.1v0.1c0,0.1-0.1,0.2-0.2,0.2
						s-0.2-0.1-0.2-0.2c0-0.2,0.1-0.4,0.2-0.4c0.3-0.3,1-0.1,1,0.5c0,0,0,0.1,0,0.2c0,0.1,0,0.5,0,0.6
						C-198,294.8-198.4,295-198.7,295z"/>
				</g>
			</g>
			<g>
				<g>
					<path d="M-197.8,302.7L-197.8,302.7c-0.2-0.1-0.6-0.3-1.1-0.5c-0.1,0-0.1-0.1-0.1-0.1s0-0.1-0.1-0.2c-0.2-0.5-0.6-1.6-1.7-2
						c-0.1,0-0.1-0.1-0.1-0.2c0-0.1,0-0.1,0.1-0.2c0.3-0.2,2.2-1.9,2.6-3.6c0-0.1,0.1-0.2,0.2-0.2c0.6-0.1,1.2-0.2,1.4-0.4
						c0.1-0.1,0.2-0.1,0.3,0c0.1,0.1,0.1,0.2,0,0.3c-0.4,0.4-1,0.5-1.5,0.5c-0.4,1.5-1.8,2.9-2.4,3.5c1,0.6,1.5,1.6,1.7,2.1
						c0,0,0,0,0,0.1c0.6,0.2,0.9,0.4,1.1,0.6c0.1,0.1,0.1,0.2,0,0.3C-197.7,302.7-197.7,302.7-197.8,302.7z"/>
				</g>
			</g>
			<g>
				<g>
					<path d="M-200,294.9L-200,294.9h-1c-0.1,0-0.2-0.1-0.2-0.2v-0.9c0-0.1,0.1-0.2,0.2-0.2l1.1-0.2c0.1,0,0.2,0.1,0.2,0.2
						s-0.1,0.2-0.2,0.2l-1,0.1v0.5h0.8c0.1,0,0.2,0.1,0.2,0.2C-199.8,294.8-199.9,294.9-200,294.9z"/>
				</g>
			</g>
			<g>
				<g>
					<path d="M-195.8,296.2c-0.1,0-0.1,0-0.2,0c-0.3,0-0.9-0.3-1-1.2c-0.2,0-0.5-0.1-0.5-0.1c-0.1,0-0.1-0.1-0.1-0.1
						c0-0.1,0-0.1,0-0.2c0.2-0.5,0.1-1.1,0-1.3c0-0.1,0-0.1,0-0.2s0.1-0.1,0.1-0.1h0.1c-0.3-0.5-0.2-0.8-0.1-0.9
						c0.2-0.3,0.6-0.5,1-0.3c0.5,0.1,0.8,0.6,0.9,1.2l6.9-0.5c0,0,0,0,0.1,0l1.4,0.4c0.1,0,0.1,0.1,0.1,0.2s0,0.2-0.1,0.2l-1.2,0.7
						c0,0,0,0-0.1,0l-6.8,0.8c0.1,0.1,0.1,0.1,0.2,0.2c0.2,0.2,0.3,0.5,0.2,0.7C-195.1,296-195.5,296.2-195.8,296.2z M-196.9,294.5
						L-196.9,294.5c0.2,0,0.2,0.1,0.2,0.2c0.1,0.6,0.3,1,0.7,1c0.3,0.1,0.6-0.1,0.7-0.2c0,0,0-0.1-0.1-0.2l0,0c0,0-0.4-0.3-0.5-0.6
						c0-0.1,0-0.1,0-0.2s0.1-0.1,0.1-0.1l7.1-0.9l0.8-0.4l-0.9-0.3l-7.1,0.5c-0.1,0-0.1,0-0.2-0.1l-0.1-0.1c0-0.6-0.3-0.9-0.6-1
						c-0.2-0.1-0.5,0-0.6,0.2c-0.1,0.2,0,0.4,0.2,0.7c0,0.1,0.1,0.1,0,0.2c0,0.1-0.1,0.1-0.1,0.1l-0.2,0.1c0,0.2,0.1,0.7,0,1.1
						C-197.1,294.6-197,294.6-196.9,294.5C-197,294.5-196.9,294.5-196.9,294.5z"/>
				</g>
			</g>
		</g>
		<g>
			<g>
				<g>
					<path d="M-196.4,294.7c-0.5,0-1-0.4-1-0.9s0.4-0.9,1-0.9c0.6,0,1,0.4,1,0.9S-195.8,294.7-196.4,294.7z M-196.4,293.4
						c-0.3,0-0.6,0.2-0.6,0.4c0,0.2,0.3,0.4,0.6,0.4c0.3,0,0.6-0.2,0.6-0.4C-195.8,293.6-196.1,293.4-196.4,293.4z"/>
				</g>
			</g>
			<g>
				<g>
					<path class="st5" d="M-196.4,293.9"/>
				</g>
			</g>
		</g>
	</g>
	<g>
		<g>
			<g>
				<g>
					<path d="M-198.4,291.3c-0.1,0-0.2-0.1-0.2-0.1l-0.2-0.9c0-0.1,0-0.2,0.1-0.2c0.1,0,0.2,0,0.2,0.1l0.2,0.9
						C-198.2,291.2-198.2,291.3-198.4,291.3C-198.3,291.3-198.3,291.3-198.4,291.3z"/>
				</g>
			</g>
			<g>
				<g>
					<path d="M-196.9,291.1c-0.1,0-0.1,0-0.1-0.1l-0.6-0.6c-0.1-0.1-0.1-0.2,0-0.3c0.1-0.1,0.2-0.1,0.3,0l0.6,0.6
						c0.1,0.1,0.1,0.2,0,0.3C-196.8,291.1-196.9,291.1-196.9,291.1z"/>
				</g>
			</g>
			<g>
				<g>
					<path d="M-195.9,290.9h-0.1l-0.5-0.4c-0.1-0.1-0.1-0.2,0-0.3c0.1-0.1,0.2-0.1,0.3,0l0.5,0.4c0.1,0.1,0.1,0.2,0,0.3
						C-195.8,290.9-195.9,290.9-195.9,290.9z"/>
				</g>
			</g>
		</g>
		<g>
			<g>
				<g>
					<path d="M-200.7,291.3L-200.7,291.3c-0.1,0-0.2-0.1-0.2-0.2l0.2-0.9c0-0.1,0.1-0.2,0.2-0.1c0.1,0,0.2,0.1,0.1,0.2L-200.7,291.3
						C-200.5,291.2-200.6,291.3-200.7,291.3z"/>
				</g>
			</g>
			<g>
				<g>
					<path d="M-202.1,291.1L-202.1,291.1c-0.2-0.1-0.2-0.2-0.1-0.3l0.6-0.6c0.1-0.1,0.2-0.1,0.3,0c0.1,0.1,0.1,0.2,0,0.3l-0.7,0.5
						C-202,291.1-202.1,291.1-202.1,291.1z"/>
				</g>
			</g>
			<g>
				<g>
					<path d="M-203.1,290.9c-0.1,0-0.1,0-0.2-0.1c-0.1-0.1,0-0.2,0-0.3l0.5-0.4c0.1-0.1,0.2,0,0.3,0c0.1,0.1,0,0.2,0,0.3l-0.5,0.5
						C-203.1,290.9-203.1,290.9-203.1,290.9z"/>
				</g>
			</g>
		</g>
	</g>
	<g>
		<g>
			<g>
				<path class="st3" d="M-157.5,288.7c-2.1-20.7-20-36.9-41.8-36.9c-21.7,0-39.6,16.2-41.7,36.9l5.9,1.9v-0.1
					c2.2-18.2,17.4-32.2,35.8-32.2s33.7,14,35.9,32.2L-157.5,288.7z"/>
			</g>
		</g>
		<g>
			<g>
				<path class="st0" d="M-235.1,290.6c0,0.5,0.6,1.5,1.9,0c1.4-1.3,2.7,1.5,0.7,3.2c-0.9,1.6-4.3,1.6-3,8.8c-1-0.7-3.6-3-1.6-9.5
					c-1,2.2-2.7,2-2.9,5.8c-0.7-0.9-5-5.8,0.1-9.9"/>
			</g>
		</g>
		<g>
			<g>
				<path class="st3" d="M-163.6,290.6c0,0.5-0.6,1.5-1.9,0c-1.4-1.3-2.7,1.5-0.7,3.2c0.9,1.6,4.3,1.6,3,8.8c1-0.7,3.6-3,1.6-9.5
					c1,2.2,2.7,2,2.9,5.8c0.7-0.9,5-5.8-0.1-9.9"/>
			</g>
		</g>
	</g>
	<g>
		<g>
			<g>
				<path class="st3" d="M-184.7,344.6c-4.1,3.5-9.2,5.6-14.7,5.6s-10.6-2.1-14.7-5.6l4-5.6c3,2.7,6.7,4.4,10.7,4.4
					s7.7-1.6,10.7-4.4L-184.7,344.6z"/>
			</g>
		</g>
		<g>
			<g>
				<path class="st0" d="M-210.8,339.9c-1.5-1.8-3.8-4.5-9.8-2.1c0.9,0.5,3.6,1.1,3.7,2.4c0.1,0.5,0.4,1.6,1.6,2.2
					c-2.4-1.2-4.7-3-9.8-1c3.2,0.6,6.4,1.3,7.6,4.4c1,2.5,4.2,3,3.6,0.5c-0.5-0.6-1-1.1-0.3-1.8"/>
			</g>
		</g>
		<g>
			<g>
				<path class="st0" d="M-188,339.9c1.5-1.8,3.8-4.5,9.8-2.1c-0.9,0.5-3.6,1.1-3.7,2.4c-0.1,0.5-0.4,1.6-1.6,2.2
					c2.4-1.2,4.7-3,9.8-1c-3.2,0.6-6.4,1.3-7.6,4.4c-1,2.5-4.2,3-3.6,0.5c0.5-0.6,1-1.1,0.3-1.8"/>
			</g>
		</g>
	</g>
	<g>
		<g>
			<g>
				<g>
					<path class="st0" d="M-157.5,288.7c-2.1-20.7-20-36.9-41.8-36.9c-21.7,0-39.6,16.2-41.7,36.9l5.9,1.9v-0.1
						c2.2-18.2,17.4-32.2,35.8-32.2s33.7,14,35.9,32.2L-157.5,288.7z"/>
				</g>
				<g>
					<path d="M-235.2,290.9L-235.2,290.9l-6-1.9c-0.1,0-0.2-0.2-0.2-0.3c2.3-21.2,20.4-37.2,42.1-37.2c21.8,0,39.9,16,42.1,37.2
						c0,0.1-0.1,0.3-0.2,0.3l-5.9,1.8c-0.1,0-0.2,0-0.3,0c-0.1,0-0.1-0.1-0.1-0.2c-2.2-18.2-17.5-31.9-35.6-31.9
						c-18,0-33.3,13.7-35.5,31.8v0.1c0,0.1-0.1,0.2-0.1,0.2C-235,290.9-235.1,290.9-235.2,290.9z M-240.7,288.5l5.3,1.7
						c2.4-18.4,17.9-32.2,36.1-32.2c18.3,0,33.8,13.8,36.2,32.1l5.3-1.6c-2.3-20.8-20-36.4-41.4-36.4S-238.4,267.7-240.7,288.5z"/>
				</g>
			</g>
			<g>
				<g>
					<path d="M-235.5,303c-0.1,0-0.1,0-0.2-0.1c-2.2-1.6-3-4.4-2.2-8.1c-0.1,0.1-0.2,0.2-0.3,0.3c-0.8,0.8-1.4,1.5-1.6,3.9
						c0,0.1-0.1,0.2-0.2,0.3c-0.1,0-0.3,0-0.3-0.1l-0.1-0.2c-3.9-5-2-8.3,0.3-10.1c0.1-0.1,0.3-0.1,0.4,0c0.1,0.1,0.1,0.3,0,0.4
						c-2.9,2.3-3.1,5.3-0.6,8.8c0.2-1.9,1-2.7,1.7-3.4c0.4-0.4,0.9-0.9,1.2-1.6c0.1-0.1,0.2-0.2,0.4-0.2c0.2,0.1,0.2,0.2,0.2,0.4
						c-1.2,3.9-0.9,6.8,0.9,8.6c-0.7-4.9,1-6.2,2.2-7.2c0.4-0.3,0.7-0.6,0.9-0.9c0,0,0-0.1,0.1-0.1c0.8-0.7,1-1.7,0.9-2.3
						c-0.1-0.4-0.3-0.7-0.5-0.8s-0.5,0.1-0.7,0.2c-0.6,0.7-1.1,1-1.6,0.8c-0.5-0.2-0.7-0.7-0.7-1.1c0-0.2,0.1-0.3,0.3-0.3
						s0.3,0.1,0.3,0.3s0.1,0.5,0.3,0.5c0.2,0.1,0.6-0.2,1-0.7c0.4-0.4,0.9-0.5,1.3-0.4c0.5,0.1,0.8,0.6,0.9,1.2c0.2,0.8,0,1.9-1,2.8
						c-0.2,0.4-0.6,0.7-1.1,1.1c-1.3,1-2.8,2.3-1.8,7.5c0,0.1,0,0.3-0.1,0.3C-235.4,302.9-235.5,303-235.5,303z"/>
				</g>
			</g>
			<g>
				<g>
					<path class="st0" d="M-163.6,290.6c0,0.5-0.6,1.5-1.9,0c-1.4-1.3-2.7,1.5-0.7,3.2c0.9,1.6,4.3,1.6,3,8.8c1-0.7,3.6-3,1.6-9.5
						c1,2.2,2.7,2,2.9,5.8c0.7-0.9,5-5.8-0.1-9.9"/>
				</g>
				<g>
					<path d="M-163.2,303c-0.1,0-0.1,0-0.2,0c-0.1-0.1-0.2-0.2-0.1-0.3c1-5.2-0.6-6.5-1.8-7.5c-0.4-0.3-0.8-0.6-1.1-1.1
						c-1-0.9-1.2-2.1-1-2.8c0.1-0.6,0.5-1.1,0.9-1.2c0.4-0.1,0.9,0,1.3,0.4c0.4,0.5,0.8,0.8,1,0.7c0.2-0.1,0.3-0.3,0.3-0.5
						c0-0.2,0.1-0.3,0.3-0.3c0.2,0,0.3,0.2,0.3,0.3c0,0.3-0.2,0.9-0.7,1.1c-0.5,0.2-1.1-0.1-1.7-0.8c-0.1-0.1-0.4-0.3-0.6-0.2
						c-0.2,0.1-0.4,0.4-0.5,0.8c-0.1,0.6,0,1.5,0.9,2.3c0,0,0,0.1,0.1,0.1c0.2,0.3,0.5,0.6,0.9,0.9c1.2,1,2.9,2.3,2.2,7.2
						c1.8-1.8,2.1-4.7,0.9-8.6c0-0.2,0-0.3,0.2-0.4s0.3,0,0.4,0.2c0.3,0.7,0.8,1.2,1.2,1.6c0.7,0.7,1.4,1.5,1.7,3.5
						c2.5-3.5,2.3-6.5-0.6-8.8c-0.1-0.1-0.2-0.3,0-0.4c0.1-0.1,0.3-0.2,0.4,0c2.3,1.8,4.2,5.1,0.3,10.1l-0.1,0.2
						c-0.1,0.1-0.2,0.1-0.3,0.1s-0.4-0.5-0.4-0.6c-0.1-2.3-0.8-3-1.6-3.9c-0.1-0.1-0.2-0.2-0.3-0.3c1,4.6-0.6,6.9-2.2,8.1
						L-163.2,303z"/>
				</g>
			</g>
		</g>
		<g>
			<g>
				<g>
					<path class="st0" d="M-184.7,344.6c-4.1,3.5-9.2,5.6-14.7,5.6s-10.6-2.1-14.7-5.6l4-5.6c3,2.7,6.7,4.4,10.7,4.4
						s7.7-1.6,10.7-4.4L-184.7,344.6z"/>
				</g>
				<g>
					<path d="M-199.4,350.5c-5.4,0-10.5-2-14.9-5.7c-0.1-0.1-0.1-0.3-0.1-0.4l4-5.6c0.1-0.1,0.1-0.1,0.2-0.1c0.1,0,0.2,0,0.2,0.1
						c3.1,2.8,6.7,4.3,10.5,4.3s7.4-1.5,10.5-4.3c0.1-0.1,0.2-0.1,0.2-0.1c0.1,0,0.2,0.1,0.2,0.1l4,5.5c0.1,0.1,0.1,0.3-0.1,0.4
						C-188.8,348.5-194,350.5-199.4,350.5z M-213.6,344.5c4.2,3.5,9.1,5.3,14.3,5.3c5.1,0,10.1-1.8,14.3-5.3l-3.6-5
						c-3.1,2.8-6.8,4.2-10.6,4.2s-7.5-1.5-10.6-4.2L-213.6,344.5z"/>
				</g>
			</g>
			<g>
				<g>
					<path d="M-214.7,348.4c-1,0-2.3-0.9-2.9-2.4c-1.2-3.1-4.4-3.7-7.4-4.2c-0.1,0-0.2-0.1-0.3-0.3c-0.1-0.2,0.1-0.3,0.2-0.3
						c4.1-1.6,6.4-0.8,8.4,0.1c-0.2-0.4-0.3-0.8-0.4-1c-0.1-0.8-1.6-1.4-2.6-1.8c-0.4-0.2-0.7-0.3-1-0.4c-0.1-0.1-0.2-0.2-0.2-0.3
						s0.1-0.2,0.2-0.3c6.3-2.5,8.7,0.5,10.2,2.2c0.1,0.1,0.1,0.3,0,0.4s-0.3,0.1-0.4,0c-1.4-1.7-3.4-4.1-8.7-2.3
						c0.1,0,0.1,0.1,0.2,0.1c1.3,0.5,2.8,1.1,2.9,2.2c0.1,0.5,0.4,1.4,1.4,2c0.1,0.1,0.2,0.3,0.1,0.4c-0.1,0.2-0.3,0.2-0.4,0.1
						c-0.3-0.1-0.6-0.3-0.9-0.5c-1.9-1-3.9-2.1-7.6-0.9c2.7,0.6,5.6,1.4,6.8,4.4c0.6,1.5,2,2.2,2.6,1.9c0.5-0.2,0.4-0.8,0.4-1.1
						c-0.5-0.6-1.1-1.3-0.2-2.2c0.1-0.1,0.3-0.1,0.4,0c0.1,0.1,0.1,0.3,0,0.4c-0.5,0.4-0.4,0.7,0.3,1.4l0.1,0.1
						c0.4,1.5-0.5,1.9-0.8,1.9C-214.4,348.3-214.6,348.4-214.7,348.4z"/>
				</g>
			</g>
			<g>
				<g>
					<path d="M-184,348.4c-0.2,0-0.3,0-0.5-0.1c-0.3-0.1-1.1-0.5-0.8-1.9c0,0,0-0.1,0.1-0.1c0.6-0.7,0.7-1,0.3-1.4
						c-0.1-0.1-0.1-0.3,0-0.4c0.1-0.1,0.3-0.1,0.4,0c1,0.9,0.3,1.7-0.2,2.2c-0.1,0.4-0.1,1,0.4,1.1c0.7,0.2,2-0.4,2.6-1.9
						c1.2-3,4-3.9,6.8-4.4c-3.7-1.2-5.7-0.1-7.6,0.9c-0.3,0.2-0.6,0.3-0.9,0.5c-0.2,0.1-0.3,0-0.4-0.1c-0.1-0.2,0-0.3,0.1-0.4
						c1.1-0.6,1.3-1.6,1.4-2c0.1-1.1,1.7-1.7,2.9-2.2c0.1,0,0.2-0.1,0.2-0.1c-5.3-1.8-7.3,0.6-8.7,2.3c-0.1,0.1-0.3,0.1-0.4,0
						c-0.1-0.1-0.2-0.3,0-0.4c1.4-1.8,3.9-4.7,10.1-2.2c0.1,0,0.2,0.1,0.2,0.3c0,0.1-0.1,0.2-0.2,0.3c-0.2,0.1-0.6,0.3-1,0.4
						c-1,0.4-2.5,0.9-2.6,1.7c-0.1,0.3-0.2,0.7-0.4,1.1c2-1,4.3-1.8,8.4-0.1c0.1,0.1,0.2,0.2,0.2,0.3s-0.1,0.2-0.3,0.3
						c-3,0.6-6.2,1.2-7.4,4.2C-181.7,347.5-183,348.4-184,348.4z"/>
				</g>
			</g>
		</g>
	</g>
	<g>
		<g>
			<g>
				<path d="M-194.3,344h0.5c-0.3,0.3-1,0.8-1.2,1h-0.4C-195.3,344.9-194.6,344.4-194.3,344z"/>
			</g>
		</g>
		<g>
			<g>
				<path d="M-238.5,282.9c0.2,0.7,0.4,0.8,1.1,1.1c0.2,0.1,1.2,0.4,1.8,0.5l0.2,0.5c-0.4,0.2-1.1,0.3-1.7,0.5
					c-0.5,0.2-0.7,0.2-1.1,0.4c0.4,0.1,1.7,0.6,2.1,0.8c0.3,0.1,0.6,1,0.6,1c-0.1-0.3-0.5-0.6-0.9-0.7c-1-0.3-1.4-0.5-2.4-0.7
					c-0.2,0-0.3,0.1-0.4,0.2l-0.2-0.6c0.3-0.1,0.5-0.2,0.7-0.3c0.4-0.2,0.7-0.2,1.2-0.3c0.5-0.1,1.2-0.3,1.4-0.4
					c-0.2,0-1.6-0.4-1.8-0.5c-0.5-0.1-0.6-0.1-0.7-0.5C-238.6,283.6-238.7,283.2-238.5,282.9z"/>
			</g>
		</g>
		<g>
			<g>
				<path d="M-234.8,282.2c-0.3,0.1-0.6,0-0.8-0.1c0.1,0.1,0.2,0.4,0.3,0.6l0.1,0.7c0.1,0.5-0.8,0.5-1.3,0.2
					c-0.6-0.3-0.7-0.8-0.8-1.4l-0.1-0.8c0-0.3,0-0.5,0.1-0.6l-0.1-0.2c0.2,0.2,0.6,0.4,1.1,0.6c0.7,0.3,0.9,0.4,1.4,0.3
					L-234.8,282.2z M-237,281.6c-0.1-0.1-0.2-0.1-0.3,0.3c0.3,0.6,0.7,1,1.4,1c0.1,0,0.2-0.1,0.4-0.1c-0.1-0.4-0.2-0.5-0.3-0.8
					C-236.2,281.9-236.3,281.8-237,281.6z"/>
			</g>
		</g>
		<g>
			<g>
				<path d="M-234.9,276.4c0-0.2-0.5-0.2-0.7,0.1c-0.1,0.2-0.2,0.3-0.2,0.5c0.2,0.5,0.6,1,1.4,1.2c0.4,0.1,1,0,1.2-0.5
					c0.1-0.2,0.1-0.6,0-1.2c0.3,0.3,0.2,1.2,0.2,1.2c0,0.3,0,0.5-0.2,0.9c-0.4,0.6-1.2,0.6-1.9,0.2c-0.5-0.3-0.7-0.8-0.8-1.3
					c-0.1-0.9,0-1.3,0.2-1.5s0.3-0.4,0.6-0.4C-234.8,275.7-234.9,276.4-234.9,276.4z"/>
			</g>
		</g>
		<g>
			<g>
				<path d="M-232.6,274c0,0.2-0.1,0.5-0.3,0.7l-0.4,0.6v-0.5c0-0.5,0.7-0.9,0.7-1.3V274z M-231.5,275.3c0,0.5-1.4,1-1.9,0.6
					s-0.6-0.9-0.6-1.5v-0.8c0-0.3,0.3-0.6,0.5-0.6l0.1,0.7c-0.1-0.1-0.4,0.1-0.5,0.4c0,0.3,0.2,1.2,0.8,1.3c0.6,0.1,1.1-0.4,1.2-0.5
					c0.1-0.4-0.1-1-0.1-1C-231.7,274-231.5,275.3-231.5,275.3z"/>
			</g>
		</g>
		<g>
			<g>
				<path d="M-229.7,272.5c-0.3,0-0.6-0.2-0.8-0.3c0.1,0.2,0.1,0.4,0.2,0.7l-0.1,0.7c0,0.5-0.9,0.2-1.3-0.2
					c-0.5-0.4-0.4-0.9-0.4-1.6l0.1-0.8c0.1-0.3,0.2-0.5,0.3-0.5v-0.2c0.2,0.2,0.5,0.5,0.9,0.8c0.6,0.4,0.8,0.6,1.3,0.7L-229.7,272.5
					z M-231.7,271.4c-0.1-0.1-0.2-0.2-0.3,0.2c0.1,0.6,0.4,1.1,1,1.4c0.1,0.1,0.3,0,0.4,0c0-0.4,0-0.6-0.1-0.8
					C-231,271.9-231.2,271.7-231.7,271.4z"/>
			</g>
		</g>
		<g>
			<g>
				<path d="M-230,267.1c0.2,0.4,1,1,1.3,1.2c0.5,0.5,1.1,1,1.3,0.9l-0.2,0.8c-0.3-0.1-0.5-0.2-0.7-0.4c0,0.2-0.2,1.5-0.2,1.5
					c-0.1,0.5-0.9,0.2-1.3-0.3c-0.4-0.5-0.5-1-0.4-1.6v-0.6c0.1-0.3,0.2-0.4,0.3-0.4c0,0-0.6-0.5-0.7-0.9c0-0.2,0.5-0.7,0.5-0.7
					C-230.1,266.8-230,266.9-230,267.1z M-230.1,269.2c0,0.5,0.4,1,0.9,1.2c0.2,0.1,0.4,0.1,0.5,0.1c0.1-0.2,0.2-0.8,0.2-1
					c-0.3-0.3-0.8-0.7-0.9-0.7C-229.4,268.7-230,268.8-230.1,269.2z"/>
			</g>
		</g>
		<g>
			<g>
				<path d="M-225.6,267.7c-0.3-0.1-0.5-0.3-0.7-0.5c0,0.2,0,0.4,0,0.7l-0.2,0.7c-0.1,0.5-0.9,0.1-1.3-0.4c-0.4-0.5-0.3-1-0.1-1.6
					l0.2-0.8c0.1-0.3,0.2-0.5,0.4-0.4c0-0.1,0-0.2,0-0.2c0.1,0.3,0.4,0.6,0.7,1c0.5,0.5,0.7,0.7,1.1,0.9L-225.6,267.7z
					 M-227.3,266.2c0-0.1-0.2-0.2-0.3,0.1c0,0.7,0.2,1.2,0.8,1.5c0.1,0.1,0.2,0,0.4,0c0-0.4,0.1-0.6,0-0.8
					C-226.7,266.8-226.8,266.7-227.3,266.2z"/>
			</g>
		</g>
		<g>
			<g>
				<path d="M-223.3,262.5c-0.1-0.3-0.7,0.2-0.9,0.4c0,0.1,0,0.2,0.1,0.3c0.3,0,0.8-0.3,1.2-0.2c0.3,0,0.6,0.2,0.8,0.6
					c0.1,0.1,0,0.3,0,0.4l-0.3,0.7c-0.1,0.2-0.4,0.5-0.7,0.6c-0.2,0.1-0.3,0.2-0.5,0.2l0.3-0.7c0.2,0,0.3-0.1,0.5-0.2
					c0.1-0.1,0.2-0.2,0.3-0.3c-0.1-0.5-0.4-0.7-0.8-0.8c-0.5,0-1,0.4-1.3,0.3c-0.2-0.1-0.1-0.3-0.1-0.5l0.3-0.6
					c0.2-0.6,1.1-1.3,1.3-0.9L-223.3,262.5z"/>
			</g>
		</g>
		<g>
			<g>
				<path d="M-219.6,262.9c-0.3-0.2-0.4-0.4-0.6-0.6c0,0.2-0.1,0.4-0.1,0.7l-0.3,0.6c-0.2,0.5-0.9-0.1-1.2-0.6
					c-0.3-0.6-0.1-1,0.2-1.6l0.4-0.7c0.2-0.2,0.3-0.4,0.5-0.4l0.1-0.2c0.1,0.3,0.3,0.7,0.5,1.1c0.4,0.6,0.5,0.9,0.9,1.1
					L-219.6,262.9z M-221,261.1c0-0.1-0.1-0.2-0.4,0.1c-0.1,0.6,0,1.2,0.4,1.7c0.1,0.1,0.2,0.1,0.4,0.1c0.1-0.4,0.2-0.5,0.2-0.8
					C-220.5,261.8-220.6,261.6-221,261.1z"/>
			</g>
		</g>
		<g>
			<g>
				<path d="M-216.2,258.4c0.1-0.2-0.3-0.4-0.7-0.3c-0.2,0-0.3,0.1-0.5,0.2c-0.2,0.5-0.1,1.2,0.4,1.8c0.3,0.3,0.8,0.6,1.3,0.4
					c0.3-0.1,0.5-0.4,0.7-1c0,0.4-0.5,1.1-0.5,1.1c-0.2,0.3-0.3,0.4-0.7,0.5c-0.7,0.2-1.3-0.3-1.6-1c-0.2-0.6-0.1-1.1,0.2-1.6
					c0.5-0.7,0.8-1,1.1-1.1c0.2-0.1,0.5-0.1,0.7,0.1C-215.6,257.8-216.2,258.4-216.2,258.4z"/>
			</g>
		</g>
		<g>
			<g>
				<path d="M-212.5,259.4c-0.3-0.2-0.4-0.5-0.5-0.7c0,0.2-0.2,0.4-0.2,0.6l-0.4,0.5c-0.3,0.4-0.9-0.3-1-0.9c-0.1-0.6,0.2-1,0.6-1.5
					l0.5-0.6c0.2-0.2,0.4-0.3,0.5-0.2l0.1-0.2c0,0.3,0.1,0.7,0.3,1.2c0.2,0.7,0.3,1,0.7,1.3L-212.5,259.4z M-213.5,257.3
					c0-0.1-0.1-0.3-0.4,0c-0.3,0.6-0.3,1.2,0.1,1.7c0.1,0.1,0.2,0.1,0.4,0.2c0.2-0.3,0.3-0.5,0.4-0.7
					C-213.2,258.1-213.3,258-213.5,257.3z"/>
			</g>
		</g>
		<g>
			<g>
				<path d="M-210.2,256.6c-0.1,0.1-0.4,0.3-0.6,0.4c0.2,0.5,0.3,0.8,0.4,1.1c0.1,0.1,0,0.2,0.2,0.2c0.1,0.1,0.2-0.1,0.4-0.1
					c0,0-0.5,0.6-0.8,0.6c-0.1,0-0.2,0-0.3-0.3c-0.2-0.7-0.3-1-0.5-1.4c-0.3-0.1-0.6,0-0.6,0c0-0.1,0.2-0.3,0.3-0.4
					c0-0.1,0-0.2,0-0.4c-0.1-0.2-0.2-0.3-0.4-0.3l0.5-0.5c0.2-0.2,0.4,0,0.4,0.3c0.1,0.2,0.2,0.6,0.2,0.7c0.1,0,0.3,0,0.3,0
					c0.5,0,0.7-0.3,0.7-0.3C-210,256.3-210.2,256.6-210.2,256.6z"/>
			</g>
		</g>
		<g>
			<g>
				<path d="M-205.7,255.8c0.1,0.4,0.1,0.7,0.3,1.1c0.1,0.2,0.1,0.2,0.3,0.4l-0.5,0.4c-0.1-0.1-0.1-0.2-0.2-0.4
					c-0.2-0.4-0.3-0.8-0.4-1.2c-0.2,0.1-0.4,0.2-0.6,0.4s-0.2,0.2-0.3,0.4c0,0.2,0,0.4,0.1,0.7l-0.6,0.5c-0.1-0.4-0.1-0.7-0.1-1.1
					c0-0.6,0-0.8,0-1.4c0-0.1,0.4-0.6,0.4-0.6c-0.1,0.6,0,0.9,0,1.6c0.3-0.3,0.8-0.6,0.8-0.6c0.1-0.1,0.2-0.1,0.3-0.1
					c0-0.2-0.1-0.4-0.1-0.7c0-0.2,0-0.3,0-0.5c-0.2,0.1-0.3,0.2-0.6,0.3c-0.5,0-1.1-0.3-1.3,0c0.1-0.3,0.6-0.5,0.7-0.5
					c0.3,0,0.7,0.1,1,0s0.4-0.2,0.6-0.3c0,0.2,0,0.3,0,0.5c0.1,0.4,0.1,0.6,0.1,0.9c0.1-0.1,0.3-0.1,0.4-0.2L-205.7,255.8z"/>
			</g>
		</g>
		<g>
			<g>
				<path d="M-202.4,254.2c-0.1,0.4,0.1,2.3,0.2,2.8c-0.3,0.3-0.4,0.5-0.7,0.8c0,0-0.8,0.6-1.3,0.4c-0.2-0.1-0.4-0.2-0.5-0.3
					c0.3-0.2,0.7-0.5,0.7-0.6c0.2,0.7,0.9,0.5,1.2,0c0-0.3-0.1-1.2-0.1-1.3c-0.1,0.2-1.2,1.2-1.2,1.2c-0.5,0.3-0.8-0.5-0.8-1.1
					s0.4-0.9,0.9-1.3l0.7-0.5c0.2-0.1,0.5-0.2,0.6-0.1l0.5-0.4C-202.3,254.1-202.4,254.1-202.4,254.2z M-203.7,254.7
					c-0.4,0.5-0.6,0.9-0.3,1.7c0.1,0.1,0.2,0.2,0.3,0.3c0.2-0.1,0.7-0.5,0.8-0.8c0-0.5-0.1-0.7-0.1-1
					C-203,254.8-203.4,254.5-203.7,254.7z"/>
			</g>
		</g>
		<g>
			<g>
				<path d="M-198.8,254.7c0,0.4,0.1,1.1,0.1,1.3c0,0.2-0.3,0.4-0.5,0.5l-0.4,0.2c-0.5,0.3-1.3,0.6-1.4-0.2c0-0.4-0.1-1.4,0-1.8
					c0-0.2,0.1-0.5-0.4-0.4l0.4-0.2c0.3-0.1,0.6-0.2,0.6,0c0,0.1,0,0.2,0,0.4c0,0.4,0,1.1,0.1,1.6c0,0.7,0.3,0.7,0.6,0.5
					c0.1-0.1,0.3-0.1,0.3-0.3c0-0.3,0-1-0.1-1.4c0-0.3-0.1-0.3,0.1-0.6c0-0.1,0.8-0.5,0.8-0.5C-198.8,254.1-198.8,254.3-198.8,254.7
					z"/>
			</g>
		</g>
		<g>
			<g>
				<path d="M-195.8,254.6c0.1-0.3-0.6-0.3-1-0.3c-0.1,0.1-0.2,0.1-0.1,0.3c0.2,0.2,0.7,0.3,1,0.7c0.2,0.2,0.3,0.6,0.2,1
					c0,0.2-0.2,0.2-0.3,0.3l-0.7,0.3c-0.3,0.1-0.7,0.1-0.9,0c-0.2-0.1-0.3-0.1-0.5-0.2l0.7-0.3c0.2,0.1,0.3,0.2,0.5,0.2
					c0.1,0,0.3,0,0.4,0c0.3-0.4,0.2-0.8,0-1.1c-0.3-0.4-1.1-0.4-1.2-0.7c0-0.2,0.1-0.3,0.3-0.4l0.6-0.3c0.5-0.3,1.6-0.2,1.5,0.3
					L-195.8,254.6z"/>
			</g>
		</g>
		<g>
			<g>
				<path d="M-189.4,254.9c-0.7,0.2-0.8,0.5-1,1.1c-0.1,0.2-0.4,1.2-0.4,1.8l-0.5,0.2c-0.2-0.4-0.3-1.1-0.6-1.7
					c-0.2-0.5-0.3-0.7-0.4-1c-0.1,0.5-0.5,1.7-0.7,2.2c-0.1,0.3-0.9,0.7-0.9,0.7c0.3-0.1,0.6-0.7,0.7-1c0.3-1,0.4-1.3,0.6-2.3
					c0-0.2-0.1-0.3-0.2-0.4l0.6-0.2c0.2,0.3,0.3,0.5,0.4,0.7c0.2,0.4,0.3,0.7,0.4,1.1c0.2,0.5,0.3,1.1,0.4,1.4
					c0-0.2,0.4-1.6,0.4-1.8c0.1-0.5,0.1-0.6,0.5-0.8C-190.1,254.9-189.7,254.7-189.4,254.9z"/>
			</g>
		</g>
		<g>
			<g>
				<path d="M-188.5,258.6c-0.1-0.3,0-0.6,0.1-0.8c-0.1,0.1-0.4,0.2-0.6,0.3l-0.7,0.2c-0.5,0.1-0.5-0.8-0.3-1.3
					c0.3-0.6,0.8-0.7,1.4-0.9l0.8-0.2c0.3,0,0.5,0,0.6,0.1h0.2c-0.2,0.2-0.4,0.7-0.5,1.1c-0.2,0.7-0.3,1-0.2,1.4L-188.5,258.6z
					 M-188,256.4c0-0.1,0.1-0.2-0.3-0.2c-0.6,0.3-0.9,0.8-1,1.4c0,0.1,0.1,0.2,0.2,0.4c0.4-0.1,0.5-0.2,0.8-0.4
					C-188.3,257.2-188.2,257-188,256.4z"/>
			</g>
		</g>
		<g>
			<g>
				<path d="M-182.2,259.4c-0.3,0.4-0.7,0.7-1.1,0.7l-0.7,0.1c-0.4,0-0.8-0.1-1.1-0.4c-0.1-0.1-0.2-0.1-0.2-0.2h-0.5
					c0.5-0.3,0.7-0.8,0.9-1.5c0.1-0.3,0.2-0.5,0.4-0.8c0.1-0.3,0.1-0.5,0-0.5h0.3c0.1,0,0.5-0.1,0.6,0c0,0,0,0.1,0,0.2
					c0.2,0,0.5,0,0.5,0c0.3,0,0.6,0.1,0.8,0.4C-181.8,258-181.7,258.8-182.2,259.4L-182.2,259.4z M-182.9,257.5
					c-0.2-0.2-0.3-0.3-0.6-0.3c0,0-0.1,0-0.2,0c-0.3,0.5-0.3,0.5-0.4,0.9c-0.2,0.5-0.4,0.9-0.6,1.2c0.1,0.2,0.2,0.3,0.3,0.4
					c0.2,0.2,0.4,0.3,0.7,0.4c0.3-0.1,0.5-0.4,0.7-0.7C-182.5,258.8-182.4,258.1-182.9,257.5z"/>
			</g>
		</g>
		<g>
			<g>
				<path d="M-179.9,260.6c-0.2,0-0.5-0.1-0.7-0.2l-0.6-0.4h0.5c0.5,0,0.9,0.7,1.3,0.6H-179.9z M-181.2,261.7
					c-0.6,0-1.1-1.4-0.7-1.8c0.4-0.5,0.9-0.6,1.5-0.6h0.8c0.3,0,0.6,0.3,0.7,0.5l-0.7,0.1c0.1-0.1-0.1-0.4-0.4-0.5
					c-0.3,0-1.1,0.2-1.2,0.9c-0.1,0.6,0.4,1.1,0.5,1.2c0.4,0.1,1-0.2,1-0.2C-179.9,261.5-181.2,261.7-181.2,261.7z"/>
			</g>
		</g>
		<g>
			<g>
				<path d="M-179.2,263c-0.3-0.2-0.1-0.4-0.1-0.5c0.2-0.3,0.9-1.3,1-1.5c0.1-0.2,0.1-0.3-0.1-0.5c0,0,0.9,0,0.9,0.1
					c0.2,0.3,0.1,0.4-0.1,0.7c-0.2,0.2-0.7,1.1-1,1.5c-0.1,0.3-0.2,0.4,0.1,0.5C-178.4,263.1-179,263.1-179.2,263z"/>
			</g>
		</g>
		<g>
			<g>
				<path d="M-176.3,265.8c-0.1-0.3-0.1-0.5,0-0.8s0.5-1.4,0.2-1.7c0.5,0.1,1.1,0.3,1.4,0c0.2-0.3-0.2-0.7-0.9-0.9
					c-0.3,0.4-1,1.3-1.1,1.5c0,0.1,0,0.2,0.1,0.2c0,0-0.7-0.1-0.8-0.2c-0.1-0.1-0.1-0.2-0.1-0.3c0.2-0.2,1.1-1.4,1.3-1.7
					c0.2-0.3-0.1-0.4-0.2-0.5c0,0,1,0.1,1,0.2s0.4,0.2,0,0.6c0.5,0.1,1.1,0.2,1.2,0.3c0.9,0.7,0.2,1.1-0.2,1.1l-1-0.1
					c0.1,0.1,0.1,0.3,0.1,0.4c-0.1,0.9-0.5,1.4,0,2L-176.3,265.8z"/>
			</g>
		</g>
		<g>
			<g>
				<path d="M-172.5,266.1c-0.2,0-0.5-0.2-0.6-0.4l-0.5-0.6l0.5,0.1c0.5,0.1,0.7,0.9,1.1,0.9H-172.5z M-174.1,266.9
					c-0.5-0.2-0.7-1.6-0.3-2c0.5-0.4,1-0.4,1.6-0.3l0.8,0.2c0.3,0.1,0.5,0.5,0.5,0.6c0.1,0-0.7,0-0.7,0c0.1,0,0-0.4-0.3-0.5
					c-0.3,0-1.2-0.1-1.4,0.6c-0.2,0.6,0.1,1.2,0.3,1.3c0.3,0.2,1,0.1,1,0.1C-172.7,266.9-174.1,266.9-174.1,266.9z"/>
			</g>
		</g>
		<g>
			<g>
				<path d="M-171.7,269.2c0.1-0.3,0.3-0.5,0.5-0.7c-0.2,0-0.4,0-0.7,0l-0.7-0.2c-0.5-0.2,0-0.9,0.4-1.3c0.5-0.4,1-0.2,1.6-0.1
					l0.8,0.2c0.2,0.1,0.4,0.3,0.4,0.4c0.1,0,0.2,0,0.2,0c-0.3,0.1-0.6,0.4-1,0.7c-0.5,0.5-0.8,0.7-0.9,1.1L-171.7,269.2z
					 M-170.2,267.5c0.1,0,0.2-0.2-0.1-0.4c-0.7,0-1.2,0.2-1.6,0.7c-0.1,0.1-0.1,0.2,0,0.4c0.4,0.1,0.6,0.1,0.8,0.1
					C-170.8,268.1-170.7,267.9-170.2,267.5z"/>
			</g>
		</g>
		<g>
			<g>
				<path d="M-168.9,272l-0.8-0.5c0.5,0,1-0.2,1.4-0.5c0.4-0.2,1-0.9,0.4-1.3c-0.2-0.1-0.4-0.2-0.5-0.2c-0.5,0.3-1.3,1-1.6,1.2
					l-0.8-0.4c0.3-0.2,1.2-0.9,1.7-1.3c0.7-0.5,0.3-0.5,0.3-0.6c0,0,1.6,0.3,0.5,1.1l0.9,0.3c0.1,0,0.3,0.2,0.5,0.3
					c0.2,0.3,0.1,1-0.6,1.4C-168.2,271.8-168.5,271.9-168.9,272z"/>
			</g>
		</g>
		<g>
			<g>
				<path d="M-167.6,274.6c0.2-0.3,0.4-0.4,0.6-0.6c-0.2,0-0.4-0.1-0.7-0.1l-0.6-0.3c-0.5-0.3,0.1-0.9,0.7-1.2
					c0.6-0.3,1-0.1,1.6,0.2l0.7,0.4c0.2,0.2,0.4,0.3,0.3,0.5l0.2,0.1c-0.3,0.1-0.7,0.3-1.1,0.5c-0.6,0.4-0.9,0.5-1.1,0.9
					L-167.6,274.6z M-165.8,273.2c0.1,0,0.2-0.1-0.1-0.4c-0.6-0.2-1.2,0-1.7,0.4c-0.1,0.1-0.1,0.2-0.1,0.4c0.4,0.1,0.5,0.2,0.8,0.2
					C-166.5,273.7-166.3,273.6-165.8,273.2z"/>
			</g>
		</g>
		<g>
			<g>
				<path d="M-164,276.2c0.1,0,0.1-0.4-0.1-0.6c-0.3-0.1-1.1-0.4-1.5,0.1c-0.4,0.5-0.3,0.8-0.4,1c0.3,0.3,1,0.6,1,0.6
					c-0.2,0.1-1.4-0.4-1.4-0.4c-0.4-0.3,0-1.5,0.6-1.7c0.6-0.2,1-0.1,1.6,0.2l0.7,0.4c0.2,0.2,0.4,0.7,0.3,0.8
					C-163.3,276.5-164,276.2-164,276.2z"/>
			</g>
		</g>
		<g>
			<g>
				<path d="M-164.9,279.8c0.2-0.3,0.5-0.4,0.7-0.5c-0.2,0-0.4-0.2-0.7-0.2l-0.6-0.4c-0.4-0.3,0.3-0.9,0.8-1.1
					c0.6-0.2,1,0.1,1.5,0.5l0.7,0.5c0.2,0.2,0.3,0.4,0.3,0.5l0.2,0.1c-0.3,0-0.7,0.1-1.2,0.3c-0.6,0.3-0.9,0.4-1.2,0.8L-164.9,279.8
					z M-162.9,278.7c0.1,0,0.3-0.1,0-0.4c-0.6-0.2-1.2-0.2-1.7,0.2c-0.1,0.1-0.1,0.2-0.2,0.4c0.3,0.2,0.5,0.3,0.8,0.3
					C-163.7,279-163.5,279-162.9,278.7z"/>
			</g>
		</g>
		<g>
			<g>
				<path d="M-161.6,284.1c-0.4,0.2-0.7,0.2-1,0.5c-0.1,0.1-0.2,0.2-0.3,0.3l-0.5-0.5c0.1-0.1,0.2-0.2,0.4-0.3
					c0.4-0.3,0.8-0.4,1.2-0.5c-0.1-0.2-0.3-0.3-0.5-0.5c-0.2-0.1-0.2-0.2-0.4-0.2c-0.2,0-0.4,0.1-0.6,0.1l-0.7-0.5
					c0.4-0.1,0.7-0.1,1.1-0.2c0.6-0.1,0.8-0.1,1.4-0.1c0.1,0,0.6,0.4,0.6,0.4c-0.6-0.1-0.9,0.1-1.6,0.2c0.3,0.1,0.6,0.6,0.6,0.6
					c0.1,0.1,0.1,0.2,0.2,0.2c0.2-0.1,0.4-0.1,0.7-0.2c0.2-0.1,0.3,0,0.5-0.1c-0.2-0.2-0.2-0.3-0.3-0.6c-0.1-0.4,0.1-1-0.2-1.2
					c0.3,0.1,0.5,0.5,0.6,0.6c0,0.3,0,0.7,0.1,1c0.1,0.3,0.2,0.4,0.4,0.6c-0.2,0-0.3,0-0.5,0.1c-0.4,0.1-0.6,0.1-0.9,0.2
					c0.1,0.1,0.2,0.3,0.2,0.4L-161.6,284.1z"/>
			</g>
		</g>
		<g>
			<g>
				<path d="M-160.1,286.7c0.3,0,0.1-0.7,0-1c-0.1,0-0.2-0.1-0.3,0c-0.2,0.3-0.1,0.8-0.3,1.2c-0.2,0.3-0.4,0.5-0.9,0.5
					c-0.2,0-0.3-0.1-0.4-0.2l-0.5-0.6c-0.2-0.2-0.3-0.5-0.3-0.8c0-0.2,0-0.3,0-0.5l0.6,0.6c-0.1,0.2-0.1,0.3-0.1,0.5
					c0,0.1,0.1,0.3,0.1,0.4c0.5,0.1,0.8-0.1,1-0.4c0.2-0.4,0-1.1,0.3-1.3c0.2-0.1,0.4,0,0.5,0.2l0.5,0.5c0.4,0.4,0.7,1.5,0.2,1.5
					L-160.1,286.7z"/>
			</g>
		</g>
		<g>
			<g>
				<path d="M-207,345.3c-0.1,0.4-0.3,0.6-0.4,1.1c0,0.2,0,0.3,0,0.4h-0.7c0-0.2,0-0.3,0.1-0.4c0.1-0.5,0.3-0.8,0.4-1.2
					c-0.2,0-0.4,0-0.7,0c-0.2,0.1-0.2,0-0.5,0.2c-0.2,0.2-0.2,0.3-0.3,0.6h-0.8c0.2-0.3,0.4-0.6,0.6-0.9c0.4-0.5,0.5-0.7,0.9-1.1
					c0.1-0.1,0.7-0.2,0.7-0.2c-0.4,0.4-0.5,0.7-0.9,1.3c0.3-0.1,0.8,0,0.8,0c0.1,0,0.2,0,0.3,0c0.1-0.2,0.2-0.4,0.3-0.7
					c0.1-0.2,0.2-0.3,0.3-0.5c-0.2,0-0.3,0-0.6-0.1c-0.3-0.2-0.6-0.7-0.9-0.6c0.3-0.1,0.7-0.1,0.8,0c0.2,0.2,0.5,0.5,0.7,0.6
					c0.3,0.1,0.4,0.1,0.7,0.1c-0.1,0.2-0.2,0.3-0.3,0.5C-206.7,344.7-206.8,344.9-207,345.3c0.1-0.1,0.3,0,0.4,0L-207,345.3z"/>
			</g>
		</g>
		<g>
			<g>
				<path d="M-204.1,347.7l-0.9,0.1c0.4-0.3,0.6-0.8,0.8-1.2s0.3-1.3-0.4-1.3c-0.2,0-0.4,0.1-0.5,0.2c-0.2,0.5-0.5,1.5-0.6,1.8
					l-0.9,0.2c0.1-0.3,0.4-1.5,0.7-2.1c0.3-0.8,0-0.6-0.1-0.6c0,0,1.4-0.7,0.9,0.6l0.9-0.3c0.1,0,0.4-0.1,0.5,0
					c0.4,0.1,0.6,0.7,0.2,1.5C-203.6,347.1-203.8,347.3-204.1,347.7z"/>
			</g>
		</g>
		<g>
			<g>
				<path d="M-198.6,346.2c0.2-0.1,0-0.5-0.4-0.6c-0.2,0-0.3,0-0.5,0c-0.4,0.4-0.6,1-0.4,1.7c0.1,0.4,0.4,0.9,0.9,0.9
					c0.3,0,0.6-0.2,1-0.5c-0.1,0.4-0.9,0.7-0.9,0.7c-0.3,0.2-0.5,0.2-0.8,0.2c-0.7-0.1-1-0.9-0.9-1.6c0.1-0.6,0.4-1,0.8-1.3
					c0.7-0.4,1.1-0.5,1.4-0.5c0.2,0.1,0.5,0.1,0.6,0.4C-197.9,346-198.6,346.2-198.6,346.2z"/>
			</g>
		</g>
		<g>
			<g>
				<path d="M-196.7,348.5c-0.1,0-0.2-0.2-0.2-0.4c-0.1-0.9-0.3-2.1-0.3-2.6c0-0.3-0.2-0.4-0.5-0.5c0,0,0.6-0.6,0.7-0.5
					c0.3,0.1,0.4,0.4,0.4,0.7c0.1,0.7,0.3,2,0.3,2.6c0,0.2,0.2,0.3,0.3,0.2C-195.9,348-196.5,348.6-196.7,348.5z"/>
			</g>
		</g>
		<g>
			<g>
				<path d="M-193.1,347.6c-0.2-0.2-0.3-0.5-0.4-0.8c-0.1,0.2-0.2,0.4-0.3,0.6l-0.5,0.6c-0.4,0.4-0.8-0.4-0.9-1
					c-0.1-0.6,0.2-1,0.6-1.4l0.6-0.6c0.2-0.2,0.4-0.3,0.5-0.2l0.1-0.2c0,0.3,0.1,0.7,0.2,1.2c0.2,0.7,0.2,1,0.6,1.3L-193.1,347.6z
					 M-193.9,345.5c0-0.1,0-0.3-0.4-0.1c-0.3,0.6-0.3,1.1,0,1.7c0.1,0.1,0.2,0.2,0.3,0.2c0.2-0.3,0.3-0.5,0.4-0.7
					C-193.7,346.3-193.7,346.1-193.9,345.5z"/>
			</g>
		</g>
		<g>
			<g>
				<path d="M-189,346.7c-0.3-0.1-0.5-0.1-0.7-0.3c-0.2-0.2-1-1.1-1.4-1c0.3-0.4,0.7-0.8,0.6-1.2c-0.1-0.3-0.7-0.2-1.1,0.4
					c0.2,0.4,0.7,1.4,0.8,1.7c0.1,0.1,0.1,0.1,0.2,0.1c0,0-0.3,0.5-0.5,0.6c-0.1,0-0.2,0-0.2-0.1c-0.1-0.3-0.8-1.6-0.9-1.9
					c-0.2-0.3-0.4-0.1-0.5,0c0,0,0.5-0.8,0.6-0.8s0.3-0.2,0.5,0.3c0.3-0.4,0.6-0.9,0.7-0.9c1-0.5,1.1,0.3,0.9,0.7l-0.5,0.7
					c0.2-0.1,0.3,0.1,0.4,0.1c0.8,0.6,1,1.1,1.7,0.9L-189,346.7z"/>
			</g>
		</g>
		<g>
			<g>
				<path d="M-232.8,270.1l0.4-0.3c-0.1,0.4-0.4,1.2-0.5,1.5l-0.3,0.2C-233.1,271.4-232.9,270.6-232.8,270.1z"/>
			</g>
		</g>
		<g>
			<g>
				<circle cx="-214.3" cy="256" r="0.4"/>
			</g>
		</g>
		<g>
			<g>
				<circle cx="-162.9" cy="275.1" r="0.4"/>
			</g>
		</g>
		<g>
			<g>
				<circle cx="-211.9" cy="254.9" r="0.4"/>
			</g>
		</g>
	</g>
</g>
</svg>
