<?xml version="1.0" encoding="utf-8"?>
<!-- Generator: Adobe Illustrator 19.0.1, SVG Export Plug-In . SVG Version: 6.00 Build 0)  -->
<svg version="1.1" id="Layer_1" xmlns="http://www.w3.org/2000/svg" xmlns:xlink="http://www.w3.org/1999/xlink" x="0px" y="0px"
	 viewBox="-249 251 100 100" style="enable-background:new -249 251 100 100;" xml:space="preserve">
<style type="text/css">
	.st0{fill:#FFC20E;}
	.st1{fill:#ED1C24;}
	.st2{fill:#FFFFFF;}
	.st3{fill:#005BAA;}
</style>
<g>
	<path d="M-209.4,348.5l0.5-2c0.2-0.8-0.6-3-3.5-0.6c-0.1-1.5-2.3-0.9-2.8-0.6l-0.1,0.6l0.7-0.2c0.7-0.1,0.4,1,0.4,1l-0.7,3.4
		l1.8,0.1c0,0,0.8-3.5,0.8-3.6l0,0c0.9-0.7,2-1.2,1.8-0.2l-0.6,2c0,0-0.5,2.1,1.6,1.8c-0.1,0,1.3-0.4,1.3-0.4l0.1-0.6
		C-208.9,349.6-209.7,349.5-209.4,348.5z"/>
</g>
<g>
	<path d="M-175.6,348.4l0.5-2c0.2-0.8-0.6-3-3.5-0.6c-0.1-1.5-2.3-0.9-2.8-0.6l-0.1,0.6l0.7-0.2c0.7-0.1,0.4,1,0.4,1l-0.7,3.4
		l1.8,0.1c0,0,0.8-3.5,0.8-3.6l0,0c0.9-0.7,2-1.2,1.8-0.2l-0.6,2c0,0-0.5,2.1,1.6,1.8c-0.1,0,1.3-0.4,1.3-0.4l0.1-0.6
		C-175.1,349.5-175.9,349.4-175.6,348.4z"/>
</g>
<g>
	<path d="M-190.3,346.6l-0.5,2c-0.2,0.8,0.6,3,3.5,0.6c0.1,1.5,2.3,0.9,2.8,0.6l0.1-0.6l-0.7,0.2c-0.7,0.1-0.4-1-0.4-1l0.7-3.4
		l-1.8-0.1c0,0-0.8,3.5-0.8,3.6l0,0c-0.9,0.7-2,1.2-1.8,0.2l0.6-2c0,0,0.5-2.1-1.6-1.8c0.1,0-1.3,0.4-1.3,0.4l-0.1,0.6
		C-190.7,345.4-189.9,345.6-190.3,346.6z"/>
</g>
<g>
	<path d="M-188.5,344.2l1.4-1.9c0.7-0.5,2,0.1,0.8,1c-0.1,0.1-2,1.2-2,1.2L-188.5,344.2z"/>
</g>
<g>
	<path d="M-197.1,342.8h-4.3c0,0-0.1,0.4,0,0.5c0.4,0,0.8,0.2,0.7,0.6l-1.3,5.6c-0.2,0.2-1.1,0.3-1.1,0.3l-0.1,0.4
		c0,0,3.8,0.1,3.9,0.1c3.5-0.3,4.7-1.9,5.1-3.8C-193.8,344.5-195.1,343-197.1,342.8z M-198.3,349.4c-1.3,0.6-1.7-0.2-1.6-0.8
		l1.3-5.3c0.4-0.2,0.7-0.2,1.7,0.3C-195.3,346-196.6,348.7-198.3,349.4z"/>
</g>
<g>
	<path class="st0" d="M-237.5,251.9c0,15.4,0.2,41.9,0.2,42c1.5,14.9,16.6,38.1,38.3,45.7c13.3-6.6,34-18.2,38.4-45.7
		c0-0.1,0-26.6,0-42.1L-237.5,251.9z"/>
	<path d="M-199,340.1l-0.2-0.1c-23-8-37.2-31.9-38.6-46.1l0-0.5c-0.1-8.2-0.2-28.7-0.2-41.6v-0.4l77.8-0.1v42.5
		c-4.1,25.8-21.8,37.8-38.6,46.1L-199,340.1z M-237.1,252.3c0,12.9,0.1,33,0.2,41.1l0,0.5c1.6,15.6,17.5,38,37.8,45.2
		c16.6-8.2,34-20.1,38-45.3l0-41.6L-237.1,252.3z"/>
</g>
<g>
	<path d="M-234.8,279.6c0,8.5,0.1,15.3,0.1,15.4c1.4,13.9,15.5,35.7,35.9,42.8c12.3-6.2,31.7-17,35.8-42.8c0-0.1,0-6.8,0-15.4
		H-234.8z"/>
</g>
<g>
	<path class="st1" d="M-167,307c1.3-3.3,2.6-7.9,3.2-11.9c0-0.1,0-5.7,0-14h-70c0,8.3,0.1,13.5,0.1,13.6c0.1,3.7,1.9,8.5,3.6,12.4
		h63.1V307z"/>
</g>
<g>
	<path class="st0" d="M-198.9,284.7c-11.5,0-20.8,9.3-20.8,20.8s9.3,20.8,20.8,20.8s20.8-9.3,20.8-20.8
		C-178,294-187.4,284.7-198.9,284.7z M-199,319.1c-7.4,0-13.4-6-13.4-13.4c0-7.4,6-13.4,13.4-13.4s13.4,6,13.4,13.4
		C-185.6,313.1-191.6,319.1-199,319.1z"/>
	<path d="M-198.9,326.7c-11.7,0-21.2-9.5-21.2-21.2s9.5-21.2,21.2-21.2c5.7,0,11.1,2.2,15.1,6.3c4,4,6.1,9.3,6.1,14.9
		C-177.7,317.2-187.2,326.7-198.9,326.7z M-198.9,285.1c-11.2,0-20.4,9.1-20.4,20.4c0,11.2,9.1,20.4,20.4,20.4
		c11.2,0,20.4-9.1,20.4-20.4c0-5.4-2-10.5-5.8-14.3C-188.2,287.3-193.4,285.1-198.9,285.1z M-199,319.5c-7.6,0-13.8-6.2-13.8-13.8
		s6.2-13.8,13.8-13.8s13.8,6.2,13.8,13.8S-191.4,319.5-199,319.5z M-199,292.7c-7.1,0-13,5.8-13,13c0,7.1,5.8,13,13,13
		c7.1,0,13-5.8,13-13C-186,298.6-191.9,292.7-199,292.7z"/>
</g>
<g>
	<rect x="-236.4" y="253.6" width="21.8" height="24.4"/>
</g>
<g>
	<rect x="-213.3" y="253.6" width="27.7" height="24.6"/>
</g>
<g>
	<rect x="-184.1" y="253.6" width="21.3" height="24.1"/>
</g>
<g>
	<path class="st0" d="M-164.7,262.4c0-3.1-2.5-5.6-5.6-5.6c-1.6,0-3.1,0.7-4.2,1.8l0,0l-4,2.1l-0.3-3.2h-0.8l-0.4,9.9l-1.1,0.1
		l-1,1.8l1,1l1.7,0.2l-0.7,4.8l0.2,0.6h0.5l1.1-5.3l6.2,0.6l-1.7,4.7l0.5,0.5l0.7-0.2l1.6-5.2l1.1,0.1l1.2,4.9l0.6-0.1l0.4-0.4
		l-1-4.5l0.8,0.2l0.9-0.8l-0.5-2.7l-0.5-0.2C-166,266.6-164.7,264.7-164.7,262.4z M-166.6,261.7c0.1,0.1-2.3-0.2-2.3-0.2l1.6-1.8
		C-166.7,260.3-166.4,261.2-166.6,261.7z M-169.8,260.4v-2.2l1.3-0.1c0.5,0.1,0.7,0.7,0.2,1.3c0,0.1-1.5,1.1-1.5,1.1V260.4z
		 M-174.1,263.5c0.2-0.7,2.2-0.2,2.2-0.2c0,1.1-1.5,2.1-1.8,2C-173.9,265.2-174.4,264.2-174.1,263.5z M-170.7,266.8
		c-0.4,0.2-1.5-0.2-1.7-0.4c-0.3-0.4,1.4-2.3,1.8-2.4C-170.6,264.1-170.4,266.7-170.7,266.8z M-171.1,258.2c0.1,0.1,0.5,1.9,0.1,2.4
		s-1.5-1.1-1.7-1.6C-172.6,259-171.1,258-171.1,258.2z M-173.7,260.2c0.8,0,2.1,1.4,1.7,1.8s-2.1,0.1-2.1,0.1
		C-174.4,262.1-174.1,260.2-173.7,260.2z M-175.7,260.8c-0.2,0.5-0.2,1.1-0.2,1.6c0,0.4,0.1,0.8,0.1,1.3l-2.5-1.3L-175.7,260.8z
		 M-174.2,267.5c-0.1,0.1-3.4,0-3.4,0c-0.5,0.1-1.1-0.3-1.1-1.2c0,0.1,0.1-2.1,0.1-2.1h0.7l3.9,2.3c0.2,0.2,0.4,0.4,0.6,0.5
		C-173.5,267.2-173.7,267.4-174.2,267.5z M-169.4,266.9c-0.1-0.1,0.2-2.7,0.2-2.7l1.5,1.9C-167.9,266.7-168.9,267-169.4,266.9z
		 M-166.9,264.7c-0.4-0.1-1.5-1.8-1.5-1.8l2.1,0.1C-166.1,263.7-166.6,264.7-166.9,264.7z"/>
</g>
<g>
	<path class="st0" d="M-229.2,269.7c-0.3,1.3-1.6,3.6-2.1,4.5c-0.3,0.8,0.3,1,0.5,0.7c0.3-0.3,1.9-4,2-4.9
		C-228.7,269.3-229.2,269.7-229.2,269.7z"/>
</g>
<g>
	<path class="st0" d="M-228.6,269.7c0.3-0.1,0.7-0.2,0.8,0c0,0.4-1.2,4.6-2,5.8c-0.2,0.2-0.9-0.3-0.8-0.6
		C-230.5,274.7-228.5,270.4-228.6,269.7z"/>
</g>
<g>
	<path class="st0" d="M-229.7,275.7c0.4-0.7,2.1-5.6,2.1-5.9c0-0.1,0.7-0.2,0.7,0c0,1.4-0.7,6-1.1,6.7
		C-228.1,276.5-229.7,276-229.7,275.7z"/>
</g>
<g>
	<path class="st0" d="M-227.8,276.4c0.3-0.6,1.2-6.3,1.2-6.7h1.1c0.2,0.6,1.1,6,1.3,6.6C-224.3,276.9-227.6,277-227.8,276.4z"/>
</g>
<g>
	<path class="st0" d="M-224,276.2c-0.3-0.9-1.2-5.7-1.2-6c0.1-0.3,0.4-0.4,0.6-0.1c0.1,0.6,1.7,5.3,1.8,5.7
		C-222.8,276.1-223.7,276.6-224,276.2z"/>
</g>
<g>
	<path class="st0" d="M-224.4,270c0.1-0.3,0.6-0.3,0.7-0.1c0.1,0.6,1.7,4.6,1.9,5.2c0.1,0.3-0.5,0.8-0.8,0.7
		C-222.8,275.4-224.4,271-224.4,270z"/>
</g>
<g>
	<path class="st0" d="M-223.6,269.9c0-0.2,0.5-0.3,0.6,0c0.1,0.7,1.6,4,2,4.3c0.3,0.4-0.4,0.8-0.5,0.8c-0.2,0-0.2,0-0.3-0.2
		C-222.1,274.3-223.6,270.6-223.6,269.9"/>
</g>
<g>
	<path class="st1" d="M-229,269c0.4-0.1,2.1,0,2.3,0c0.2,0.2,0.5,0.5,0.3,0.6c-0.2,0.1-2.3,0-2.5-0.1
		C-229.1,269.4-229.1,269-229,269z"/>
</g>
<g>
	<path class="st1" d="M-228.9,268.3c0.2-0.2,1.9-0.3,2-0.1c0.1,0.3,0.1,0.4-0.2,0.5c-0.3,0.1-1.5,0.1-1.8,0.1
		C-229.2,268.6-229,268.3-228.9,268.3z"/>
</g>
<g>
	<path class="st1" d="M-226.3,268c-0.2-0.1-0.5,0-0.4,0.3c0.1,0.5,0.8,1.5,1.8,1.5c0.3-0.1,0.2-0.4,0.1-0.7c-0.2-0.3-0.7-1.3-1-1.1
		s0.1,0.6,0.2,1c0.1,0.3-0.1,0.2-0.2,0C-225.8,268.7-226.3,268-226.3,268z"/>
</g>
<g>
	<path class="st1" d="M-225,268.1c0.2,0,2-0.1,2,0.5c-0.1,0.3-1.1-0.2-1.7,0C-225,268.4-225.1,268.2-225,268.1z"/>
</g>
<g>
	<path class="st1" d="M-224.6,268.8c0.2-0.1,1.2,0.1,1.6,0.2c0.3,0.2,0.2,0.5-0.1,0.6c-0.2,0-1.3-0.1-1.4-0.3
		C-224.6,269-224.6,268.8-224.6,268.8z"/>
</g>
<g>
	<path class="st0" d="M-228.2,266.7c0.3-0.1,1.4,0.5,1.4,0.7c0.1,0.2,0,0.3-0.2,0.4c-0.2,0-1.1,0.1-1.1-0.2
		C-228.1,267.3-228.2,267-228.2,266.7C-228.2,266.6-228.2,266.7-228.2,266.7z"/>
</g>
<g>
	<path class="st0" d="M-228.4,267.8c0-0.7-0.4-1.7-1.1-2c-0.1,0.2-0.2,0.5-0.2,0.7c0.2,0.2,0.9,0.8,0.8,1.4
		C-228.8,268.2-228.4,268-228.4,267.8z"/>
</g>
<g>
	<polygon class="st0" points="-230.2,265.8 -230.2,265 -231.3,264.2 -231.2,265.3 	"/>
</g>
<g>
	<path class="st0" d="M-231.7,264.9c0-0.5-0.5-1.3-0.9-1.3c-0.4,0.2-0.8,1.4-0.4,1.4c0.4-0.1,0.9-0.3,1-0.1
		C-231.9,265.1-231.7,264.9-231.7,264.9z"/>
</g>
<g>
	<path class="st0" d="M-231.4,264.6h-0.2c-0.1-0.6-0.4-1.1-1-1.1l0.2-1l0.7,0.4h0.4v0.2l-0.3,0.1c0,0,0.8,1,0.7,1.3
		C-230.8,264.4-231.4,263.7-231.4,264.6z"/>
</g>
<g>
	<path class="st0" d="M-231.1,263.3l0.9,1.1c0,0,0.9,0.3,1,0.1c0.1-0.3-0.1-0.5-0.6-0.6S-230.7,263.1-231.1,263.3z"/>
</g>
<g>
	<path class="st0" d="M-230.3,262.2c0.4,0,1.1,1.1,0.8,1.5C-229.8,263.9-230.9,262.5-230.3,262.2z"/>
</g>
<g>
	<path class="st0" d="M-228.9,264.3h0.7c0.2,0.2,0.5,0.9,0.4,1.4C-228.1,265.8-229.2,264.8-228.9,264.3
		C-228.6,263.9-228.9,264.3-228.9,264.3z"/>
</g>
<g>
	<path class="st0" d="M-229.9,264.8l0.7,0.1v0.2c-0.4,0-0.5,0-0.6,0.6c0.1,0.1-0.2,0.2-0.2,0.2L-229.9,264.8z"/>
</g>
<g>
	<path class="st0" d="M-228.9,265.3c-0.2-0.2-0.5-0.1-0.4,0.2c0.1,0.1,0.9,1,0.9,1c0.6-0.1,1.8,0.6,1.8,1.1c0.2,0.2,0.3,0.1,0.3-0.1
		s-0.8-1.7-1-1.6c-0.2,0.2-0.8,0.2-0.8,0.1L-228.9,265.3z"/>
</g>
<g>
	<path class="st0" d="M-227.2,265.5c0.4,0.3,0.9,1.1,1,1.7c0.1,0.2,0.2-1.1,0.2-1.1s-0.8-1.3-1-1.4
		C-227,264.7-227.2,265.5-227.2,265.5z"/>
</g>
<g>
	<path class="st0" d="M-225.8,267.1v-0.9c0.2-0.3,0.8-1.9,0.9-1.4c0.1,0.5,0,0.9,0,1.1c-0.2,0.1-0.6,1-0.7,1.3
		C-225.7,267.3-225.8,267.1-225.8,267.1z"/>
</g>
<g>
	<path class="st0" d="M-225,266.2c0.3,0.1,1.1-0.2,1.4-0.4c0.2-0.1,0.8-0.1,0.4,0.3c-0.4,0.3-1,0.8-1.6,0.8c-0.2,0,0.1,0.2-0.1,0.3
		c-0.2,0.1-0.8,0.5-0.6,0.1C-225.3,267.1-225,266.2-225,266.2z"/>
</g>
<g>
	<path class="st0" d="M-223.6,266.7c0.4-0.1,0.6-0.6,0.7-0.8c0.2,0.1,0.2,0.4,0.2,0.7c-0.1,0.3-0.7,1-0.7,0.8L-223.6,266.7z"/>
</g>
<g>
	<path class="st0" d="M-223.6,267.8l-0.2-0.8c-0.2,0-1,0.4-1.4,0.8C-225.2,268-223.8,267.9-223.6,267.8z"/>
</g>
<g>
	<path class="st0" d="M-222.9,264.3c0.3,0.5-0.7,1.6-1.6,1.6c-0.2-0.1,0.2-1.1,0.5-1.2C-223.8,264.7-223,264.2-222.9,264.3z"/>
</g>
<g>
	<polygon class="st0" points="-224.3,264.3 -224.7,264.6 -224.6,265.7 -224.2,264.8 	"/>
</g>
<g>
	<path class="st0" d="M-225.8,265.5c0.5-0.3,0.4-2.4,0-2.4C-226.3,263.1-226.8,265.2-225.8,265.5z"/>
</g>
<g>
	<path class="st0" d="M-224.9,264.4c0.5-0.3,2.3-2.5,1.4-2.5C-224.2,262.7-226,264-224.9,264.4z"/>
</g>
<g>
	<path class="st0" d="M-222.7,262.5c0.1,0.5-0.3,2-0.8,1.9C-223.7,263.9-223,262.5-222.7,262.5z"/>
</g>
<g>
	<path class="st0" d="M-224.8,261.5c0.2,0.2-0.1,1.7-0.4,1.9c-0.3-0.1-0.5-0.7-0.5-0.9C-225.5,262.3-225,261.5-224.8,261.5z"/>
</g>
<g>
	<path class="st0" d="M-225.8,260c0.4,0.1,0.7,2-0.1,2.4c-0.6-0.2-0.7-1.6-0.6-1.7C-226.3,260.5-225.8,260-225.8,260z"/>
</g>
<g>
	<path class="st0" d="M-226.8,261.5c0.3,0.2,1.2,1.7,0.4,2.1C-227,263.4-227,261.9-226.8,261.5z"/>
</g>
<g>
	<path class="st0" d="M-228.5,260.4c0.3,0,0.8,0.5,0.8,0.8c0,0.2,0.1,0.9-0.3,0.7C-228.3,261.7-229.4,260.6-228.5,260.4z"/>
</g>
<g>
	<path class="st0" d="M-227.4,260.6c0.2,0,0.4,1.1,0.2,1.4c-0.2,0.1-0.2-0.9-0.3-1.1C-227.6,260.6-227.4,260.6-227.4,260.6z"/>
</g>
<g>
	<path class="st0" d="M-228.9,261.4c0.3,0.3,2,1.1,1.8,1.9C-227.7,262.9-228.7,263.1-228.9,261.4z"/>
</g>
<g>
	<path class="st0" d="M-227.7,263.9c0.4,0,0.6,0,0.5,0.5c-0.2,0.2-0.1,0.4-0.2,0.9c-0.1,0.2-0.7-0.7-0.4-1.3
		S-227.7,263.9-227.7,263.9z"/>
</g>
<g>
	<path class="st0" d="M-228.4,263.9c0,0,0.3,0.1,0.4-0.1c0.1-0.2,0.2-0.4,0.4-0.1c0.1,0.2,0.9,0.1,0.1-0.2c-0.7-0.3-0.7-0.4-0.7,0.1
		c-0.2,0.1-0.3,0.1-0.2-0.2c-0.2-0.4-0.3-1.1-0.5-1.2c-0.3,0.1-0.4,1.2-0.1,1.7C-228.7,264.2-228.4,263.9-228.4,263.9z"/>
</g>
<g>
	<path class="st0" d="M-232.1,260c0.4,0,1.4,0.6,1.3,1.6c-0.4,0-1.2-0.2-1.2-0.4C-232,260.9-232.2,260.1-232.1,260z"/>
</g>
<g>
	<path class="st0" d="M-232.6,261.6c0.6-0.1,1.8,0.6,1.9,1C-231.4,262.8-232.8,262.2-232.6,261.6z"/>
</g>
<g>
	<path class="st0" d="M-230.9,260.4c0.2,0.4,0.5,1.1,0.4,1.5c0.1,0.3,0.5,0.1,0.5-0.2c-0.2-0.7-0.5-1.2-0.8-1.2
		C-231,260.4-230.9,260.4-230.9,260.4z"/>
</g>
<g>
	<path class="st0" d="M-229.9,260.7l0.5,0.9c0,0.7-0.4,0.8-0.4,0.4c-0.1-0.4-0.2-0.8-0.4-1C-230.2,260.7-230,260.5-229.9,260.7z"/>
</g>
<g>
	<path class="st0" d="M-230.9,259.2c-0.4,0.1,0.1,0.8,0.4,1.1c0.2,0.1,0-0.3-0.1-0.4C-230.7,259.6-230.8,259.1-230.9,259.2z"/>
</g>
<g>
	<path class="st0" d="M-230.3,259c-0.1,0.3-0.1,1.4,0.8,1.7c0.1,0.2,0.2,1,0.4,0.1c0.1,0,0.5-0.4,0.2-0.7
		C-229.4,259.9-230,258.9-230.3,259C-230.6,259-230.3,259-230.3,259z"/>
</g>
<g>
	<path class="st0" d="M-229.8,258c0.5-0.1,0.8,0.5,0.9,0.8c0,0,0.1,0.8-0.2,1c-0.2,0-0.8-0.5-0.9-0.8C-230,258.6-230,258-229.8,258z
		"/>
</g>
<g>
	<path class="st0" d="M-228.4,258.5c0.3,0.1,0.4,0.3,0.4,0.7c0.1,0,0,1.1,0,1.1l-0.7-0.5L-228.4,258.5z"/>
</g>
<g>
	<polygon class="st0" points="-228.1,258 -227.1,258 -227.1,260.1 -227.6,260.2 -227.6,259.4 -228.2,258.3 	"/>
</g>
<g>
	<path class="st0" d="M-226.7,258.7l0.5,0.8c0.1,0.4,0,1.1-0.4,1C-226.9,260-227,258.8-226.7,258.7z"/>
</g>
<g>
	<path class="st0" d="M-226.5,257.8c-0.1,0,0,0.6,0.1,0.6C-226.3,258.4-226.4,257.8-226.5,257.8z"/>
</g>
<g>
	<path class="st0" d="M-225.5,256.8c0.3-0.1,0.6,2.3-0.1,2.6c-0.6,0.1-0.4-1.2-0.5-1.6C-226,257.4-225.7,256.9-225.5,256.8z"/>
</g>
<g>
	<path class="st0" d="M-224.6,258.5c0.2,0.4-0.1,2.2-0.4,2c-0.4-0.4-0.5-0.8-0.3-0.9c0.4-0.3,0.4-0.8,0.5-1
		C-224.7,258.4-224.6,258.5-224.6,258.5z"/>
</g>
<g>
	<polygon class="st0" points="-224.2,258.3 -223.6,258.3 -224.2,259.5 	"/>
</g>
<g>
	<path class="st0" d="M-224.4,260.2l-0.5,0.4l0.4,0.7C-224.5,261.3-224.1,260.4-224.4,260.2z"/>
</g>
<g>
	<path class="st0" d="M-224.5,262.3c0.3-0.5,0.5-1.4,1.1-1.6c0.1,0.5,0.3,0.7,0.1,0.9c-0.2,0.1-0.8,0.5-1,0.7
		C-224.4,262.5-224.6,262.5-224.5,262.3z"/>
</g>
<g>
	<path class="st0" d="M-223.2,260.5l0.1,0.9c0.6-0.3,2.2-1.9,1.6-1.9C-222,259.6-223.2,260.5-223.2,260.5z"/>
</g>
<g>
	<path class="st0" d="M-223.2,258.5v1.6c-0.2,0.5-0.4,0.5-0.7,0.5c0-0.1-0.1-1-0.1-1l0.7-1.1H-223.2z"/>
</g>
<g>
	<path class="st0" d="M-222,258.3l-0.9,0.8v0.8c0.5,0,1.2-0.8,1.1-1.5C-222,257.9-222,258.3-222,258.3z"/>
</g>
<g>
	<path class="st0" d="M-221.1,259.8c0,0-1.9,1.7-1.9,2.1c0.3,0,0.4,0.2,0.4,0.6c0.3,0,0.4-0.5,0.5-0.9
		C-221.9,261.2-220.7,259.9-221.1,259.8z"/>
</g>
<g>
	<path class="st0" d="M-220.9,260.2c0.1,0.4-0.1,1.9-0.7,2c-0.6,0.1-0.4-0.3-0.2-0.5C-221.7,261.4-221,260.3-220.9,260.2z"/>
</g>
<g>
	<path class="st0" d="M-220.8,261.6c-0.3-0.5,0.5-1.1,1.1-1C-219.4,261.2-220.5,261.9-220.8,261.6z"/>
</g>
<g>
	<path class="st0" d="M-222.5,263.8c-0.9-0.2,0.5-1.5,1.1-1.4C-221.1,262.9-221.8,263.9-222.5,263.8z"/>
</g>
<g>
	<path class="st0" d="M-222.6,264.2l1.3-0.1c-0.3,0.7-1,1.1-1.4,1C-222.6,264.7-222.5,264.4-222.6,264.2z"/>
</g>
<g>
	<path class="st0" d="M-220.9,264c0.1,0.5-0.5,1.7-1.1,1.9c-0.5,0.1-1.1-0.6-0.1-0.7c0,0,1.2-1.3,1.1-1.2
		C-221.2,264.1-220.9,264-220.9,264z"/>
</g>
<g>
	<path class="st0" d="M-220.4,264.7c0,0,1.2-0.1,1.3,0.1c0.1-0.5-0.2-1.1-0.6-1.1C-220.2,264.1-220.5,264.5-220.4,264.7z"/>
</g>
<g>
	<path class="st0" d="M-220.9,263.4l1.4-1c0,0.5-0.2,0.9-0.3,1c-0.5,0.2-0.8,0.7-0.8,1c0,0.1-0.2,0-0.2,0v-0.3
		C-220.5,264-220.7,263.3-220.9,263.4z"/>
</g>
<g>
	<path class="st0" d="M-221.1,262.4c0.3-0.3,1.1-0.5,1.5-0.4c-0.1,0.4-1,1-1.3,1.2C-221.3,263.2-221.3,262.5-221.1,262.4z"/>
</g>
<g>
	
		<ellipse transform="matrix(-0.6446 -0.7645 0.7645 -0.6446 -560.723 262.1764)" class="st0" cx="-219.4" cy="261.4" rx="0.1" ry="0.3"/>
</g>
<g>
	<polygon class="st1" points="-197.7,258.2 -195.3,257.6 -197.9,256.8 	"/>
</g>
<g>
	<polygon class="st1" points="-192.7,259.2 -190.5,258.6 -192.8,257.8 	"/>
</g>
<g>
	<polygon class="st1" points="-202.2,258.7 -199.8,258.2 -202.2,257.4 	"/>
</g>
<g>
	<polygon class="st0" points="-212.9,270.8 -207.6,272.8 -206.4,274.8 -190.2,275.1 -187.2,272.8 -206.6,272.6 -212.6,270.5 	"/>
</g>
<g>
	<polygon class="st0" points="-191.2,263.5 -187.2,272.8 -188,272.8 -191.4,263.8 -191.5,263.5 	"/>
</g>
<g>
	<rect x="-192.9" y="257.8" class="st0" width="0.2" height="15.2"/>
</g>
<g>
	<rect x="-197.8" y="256.7" class="st0" width="0.2" height="16"/>
</g>
<g>
	<rect x="-202.4" y="257.3" class="st0" width="0.3" height="15.6"/>
</g>
<g>
	<path class="st2" d="M-212.3,270.5c0.9-2.4,6.1-8.6,7.4-9.4c-0.7,1.7-4.9,7.3-4.4,10.2C-209.8,270.7-211.2,270.2-212.3,270.5z"/>
	<path class="st0" d="M-208.9,272.1l-0.5-0.6c-0.5-0.6-1.8-1-2.8-0.7l-0.4,0.1l0.1-0.4c0.9-2.4,6.1-8.7,7.5-9.5l0.6-0.4l-0.3,0.6
		c-0.2,0.5-0.6,1.2-1.2,2.2c-1.4,2.3-3.5,5.9-3.2,7.9L-208.9,272.1z M-211.6,270.2c0.7,0,1.5,0.2,2,0.6c0-2.2,1.9-5.3,3.3-7.7
		c0.2-0.4,0.5-0.8,0.7-1.1c-1.8,1.8-5.3,6.1-6.3,8.2C-211.8,270.2-211.7,270.2-211.6,270.2z"/>
</g>
<g>
	<path class="st2" d="M-204.1,259.3h3.7c-0.6,0.8-1,2.8-0.5,3.8c-1.1-0.5-3.1-0.9-3.9-0.4C-205.2,262.3-204.5,259.6-204.1,259.3z"/>
	<path class="st0" d="M-200.4,263.6l-0.6-0.3c-1.2-0.5-3-0.8-3.7-0.4l-0.1,0.1l-0.1-0.1c-0.2-0.2-0.2-0.4-0.2-0.9
		c0.1-0.9,0.5-2.5,0.9-2.8l0.1,0h4.2l-0.3,0.4c-0.6,0.8-0.9,2.7-0.5,3.6L-200.4,263.6z M-203.7,262.3c0.8,0,1.7,0.2,2.4,0.5
		c-0.2-1,0-2.3,0.5-3.2h-3.2c-0.2,0.3-0.6,1.4-0.7,2.3c0,0.3,0,0.4,0,0.5C-204.4,262.3-204.1,262.3-203.7,262.3z"/>
</g>
<g>
	<polygon class="st2" points="-206.6,266.9 -205.3,262.8 -200.9,263.1 -201.1,267 	"/>
	<path class="st0" d="M-200.9,267.2l-6-0.1l1.4-4.5l4.8,0.3L-200.9,267.2z M-206.3,266.7l5,0.1l0.2-3.5l-4-0.3L-206.3,266.7z"/>
</g>
<g>
	<path class="st2" d="M-206.4,267.3l5.4,0.4c-0.7,1.2-0.6,3.5-0.5,4.4c-0.8,0-4.5-0.7-5.7,0.1C-207.6,271.5-207.5,267.6-206.4,267.3
		z"/>
	<path class="st0" d="M-207.3,272.5l-0.1-0.2c-0.4-0.6-0.3-3.2,0.2-4.4c0.2-0.5,0.4-0.7,0.8-0.8l0,0l5.8,0.4l-0.2,0.3
		c-0.6,1.1-0.6,3.2-0.5,4.3l0,0.2h-0.2c-0.2,0-0.6,0-1-0.1c-1.3-0.1-3.7-0.4-4.6,0.2L-207.3,272.5z M-206.4,267.5
		c-0.2,0.1-0.3,0.3-0.4,0.6c-0.4,1.1-0.5,3.1-0.3,3.8c1.1-0.5,3.2-0.3,4.6-0.1c0.3,0,0.5,0.1,0.7,0.1c-0.1-0.7-0.2-2.7,0.4-4
		L-206.4,267.5z"/>
</g>
<g>
	<path class="st2" d="M-199.6,259.1h3.7c-0.4,1.3-0.2,2.7,0.2,3.6c-0.5-0.1-4.1-0.8-4.6-0.4C-200.6,261.9-200.1,259.3-199.6,259.1z"
		/>
	<path class="st0" d="M-195.3,263l-0.4-0.1c-2.2-0.4-4.2-0.6-4.4-0.4l-0.2,0.1l-0.1-0.2c-0.3-0.4,0-1.9,0.1-2.4
		c0.3-1,0.6-1.1,0.7-1.2l0.1,0h4l-0.1,0.3c-0.4,1.3-0.1,2.7,0.2,3.4L-195.3,263z M-199.5,262c0.9,0,2.4,0.2,3.5,0.4
		c-0.3-0.8-0.4-1.9-0.1-3.1h-3.4c-0.1,0.1-0.2,0.3-0.4,0.9c-0.2,0.7-0.3,1.5-0.2,1.8C-200,262-199.8,262-199.5,262z"/>
</g>
<g>
	<path class="st2" d="M-200.3,262.9l4.5,0.3c-0.6,1.3-0.3,3.3-0.1,4c-1-0.3-3.8-0.9-4.8-0.5C-200.9,265.8-200.5,263-200.3,262.9z"/>
	<path class="st0" d="M-195.6,267.5l-0.4-0.1c-1.1-0.3-3.8-0.9-4.7-0.5l-0.2,0.1l-0.1-0.3c-0.2-0.7,0.1-3.8,0.5-4l0.1,0l4.9,0.3
		l-0.1,0.3c-0.6,1.2-0.3,3.1-0.1,3.8L-195.6,267.5z M-199.7,266.3c1.2,0,2.7,0.3,3.5,0.5c-0.2-0.8-0.3-2.3,0.1-3.5l-4.1-0.3
		c-0.2,0.5-0.4,2.4-0.3,3.3C-200.3,266.4-200,266.3-199.7,266.3z"/>
</g>
<g>
	<path class="st2" d="M-200.4,267.6l4.6,0.3c-0.9,0.9-0.7,3.4-0.4,4.2c-1.4-0.2-4.2-0.3-4.7,0C-201,271.3-200.9,267.7-200.4,267.6z"
		/>
	<path class="st0" d="M-201.1,272.5l0-0.3c0-0.3-0.2-4.6,0.7-4.7l0,0l0,0l5.1,0.3l-0.3,0.3c-0.8,0.8-0.6,3.2-0.3,4l0.1,0.3l-0.4-0.1
		c-1.5-0.2-4.2-0.3-4.6,0L-201.1,272.5z M-199.1,271.7c0.9,0,1.9,0.1,2.6,0.1c-0.2-0.9-0.3-2.7,0.3-3.7l-4.1-0.3
		c-0.3,0.4-0.4,2.9-0.4,4C-200.3,271.7-199.8,271.7-199.1,271.7z"/>
</g>
<g>
	<path class="st2" d="M-194.9,260h3.7c-0.3,1.1-0.1,3,0.1,3.4c-2-0.6-3.3-0.8-4.2-0.4C-195.3,262.3-194.9,260.3-194.9,260z"/>
	<path class="st0" d="M-190.7,263.8l-0.5-0.1c-2.1-0.6-3.3-0.8-4-0.4l-0.3,0.1V263c0-0.4,0.1-1.3,0.3-2.1c0.1-0.4,0.1-0.8,0.1-0.9
		v-0.2h4.2l-0.1,0.3c-0.3,1-0.1,2.9,0.1,3.2L-190.7,263.8z M-194.2,262.6c0.8,0,1.7,0.2,2.8,0.5c-0.1-0.7-0.2-2-0.1-2.9h-3.2
		c0,0.2-0.1,0.4-0.1,0.8c-0.1,0.5-0.2,1.2-0.2,1.7C-194.8,262.6-194.5,262.6-194.2,262.6z"/>
</g>
<g>
	<path class="st2" d="M-195.3,263.4c0.7-0.3,4.1,0.7,4.3,0.7c0,0.5,0.3,3.6,0.3,3.6c-1-0.4-4-0.6-4.6-0.3
		C-195.9,266.9-195.7,263.6-195.3,263.4z"/>
	<path class="st0" d="M-190.4,268l-0.3-0.1c-1-0.4-3.9-0.6-4.4-0.3l-0.1,0.1l-0.1-0.1c-0.6-0.5-0.5-2.4-0.4-3.1
		c0.1-1.1,0.4-1.2,0.4-1.2l0,0c0.5-0.2,2.3,0.2,3.8,0.5c0.3,0.1,0.5,0.1,0.6,0.1h0.2l0,0.2c0,0.5,0.3,3.5,0.3,3.6L-190.4,268z
		 M-194,267c1,0,2.3,0.1,3.1,0.4c-0.1-0.7-0.2-2.5-0.3-3.1c-0.1,0-0.2-0.1-0.5-0.1c-0.8-0.2-3-0.7-3.5-0.6c-0.1,0.2-0.3,1.4-0.3,2.4
		c0,0.6,0.1,0.9,0.2,1.1C-195,267.1-194.5,267-194,267z"/>
</g>
<g>
	<path class="st2" d="M-195.2,268c0.8-0.3,4.2,0,4.2,0.3c-0.5,0.7-0.5,3.2-0.2,3.8c-1.1,0-3.6-0.1-4,0.2
		C-195.7,271.8-196,268.3-195.2,268z"/>
	<path class="st0" d="M-195.2,272.6l-0.1-0.1c-0.5-0.5-0.7-2.7-0.5-3.8c0.1-0.5,0.3-0.8,0.5-0.8c0.8-0.3,3.9-0.1,4.4,0.3
		c0.1,0.1,0.1,0.2,0.1,0.2v0.1l0,0.1c-0.4,0.6-0.5,3-0.2,3.6l0.2,0.3h-0.4c-0.2,0-0.4,0-0.7,0c-0.9,0-2.9,0-3.2,0.2L-195.2,272.6z
		 M-194,268.1c-0.5,0-0.9,0-1.1,0.1c-0.1,0-0.2,0.2-0.3,0.5c-0.2,1,0,2.8,0.3,3.3c0.5-0.2,1.7-0.2,3.2-0.2c0.1,0,0.3,0,0.4,0
		c-0.2-0.9-0.2-2.7,0.2-3.5C-191.7,268.2-193,268.1-194,268.1z"/>
</g>
<g>
	<polygon points="-192.1,270.4 -191.3,272.1 -192.9,271.2 -192.1,271.4 -192.8,270.6 -192,271.1 	"/>
</g>
<g>
	<polygon points="-191.6,265.8 -190.9,267.4 -192.5,266.6 -191.7,266.7 -192.4,265.9 -191.6,266.4 	"/>
</g>
<g>
	<polygon points="-192.2,261.5 -191.4,263.1 -193.1,262.3 -192.3,262.4 -192.9,261.6 -192.1,262.1 	"/>
</g>
<g>
	<polygon points="-197.2,270.4 -196.5,272 -198.1,271.2 -197.3,271.3 -198,270.5 -197.2,271 	"/>
</g>
<g>
	<polygon points="-196.9,265.2 -196.2,266.9 -197.8,266 -197,266.1 -197.7,265.3 -196.9,265.8 	"/>
</g>
<g>
	<polygon points="-196.8,260.8 -196,262.5 -197.7,261.6 -196.9,261.8 -197.5,261 -196.7,261.5 	"/>
</g>
<g>
	<polygon points="-202.6,270.1 -201.9,271.7 -203.5,270.9 -202.7,271 -203.4,270.2 -202.6,270.7 	"/>
</g>
<g>
	<polygon points="-202.2,265.4 -201.4,267.1 -203.1,266.2 -202.3,266.4 -202.9,265.6 -202.1,266.1 	"/>
</g>
<g>
	<polygon points="-201.9,261.2 -201.1,262.9 -202.8,262 -202,262.1 -202.6,261.3 -201.8,261.8 	"/>
</g>
<g>
	<path class="st3" d="M-208.5,274.4c1.5,0.1,1.7-0.5,3.4-0.6c1.6,0,2.3,1.6,3.1,1c2.6-2.1,4.7-0.4,5-0.2c1.7,0.4,1.3-0.8,3.3-0.9
		c2,0.2,1.8,1,3.4,0.9c1.5-0.4,3.7-1.1,5-0.8v4.8h-28v-4c0.9-0.6,1.6-0.8,2.3-0.8C-210.2,273.8-209,274.4-208.5,274.4z"/>
</g>
<g>
	<path class="st0" d="M-199,286.1c-10.8,0-19.5,8.7-19.5,19.5c0,10.8,8.7,19.6,19.5,19.6s19.5-8.7,19.5-19.5
		C-179.5,294.9-188.2,286.1-199,286.1z M-199,320.9c-8.4,0-15.3-6.8-15.3-15.3c0-8.4,6.8-15.3,15.3-15.3c8.4,0,15.3,6.8,15.3,15.3
		S-190.5,320.9-199,320.9z"/>
	<path d="M-199,325.6c-11,0-19.9-9-19.9-20c0-11,8.9-19.9,19.9-19.9s19.9,9,19.9,20C-179.1,316.7-188,325.6-199,325.6z M-199,286.5
		c-10.5,0-19.1,8.6-19.1,19.1c0,10.6,8.6,19.2,19.1,19.2c10.5,0,19.1-8.6,19.1-19.1C-179.9,295.1-188.5,286.5-199,286.5z
		 M-199,321.3c-8.7,0-15.7-7.1-15.7-15.7c0-8.7,7.1-15.7,15.7-15.7c8.7,0,15.7,7.1,15.7,15.7C-183.3,314.3-190.3,321.3-199,321.3z
		 M-199,290.7c-8.2,0-14.9,6.7-14.9,14.9c0,8.2,6.7,14.9,14.9,14.9s14.9-6.7,14.9-14.9C-184.1,297.4-190.8,290.7-199,290.7z"/>
</g>
<g>
	<path class="st0" d="M-186.2,300.1c-1.8,2.1-4.2,1.6-4.7-0.7c0.7,0.4,1.4,0.4,1.8,0c0.5-0.5,0.3-1.6-0.5-2.4
		c-0.8-0.8-1.9-1-2.4-0.5c-0.4,0.4-0.4,1-0.1,1.5c-2.6-0.5-2.9-2.5-1-4.3v-10.6h-11.7v10.6c2.5,2.2,1.9,3.4-0.8,3.9
		c0.1-0.4,0-0.8-0.3-1c-0.5-0.5-1.6-0.3-2.4,0.5c-0.8,0.8-1,1.9-0.5,2.4c0.3,0.3,0.6,0.3,1,0.3c-0.8,1.5-2.5,1.5-4,0h-10.6v11.7
		h10.6c1.8-2.1,4.1-1.6,4.7,0.7c-0.6-0.3-1.2-0.3-1.6,0.1c-0.5,0.5-0.3,1.6,0.5,2.4c0.8,0.8,1.9,1,2.4,0.5c0.4-0.4,0.4-1,0.1-1.6
		c2.4,0.5,2.6,2.5,0.8,4.3v10.6h11.7v-10.6c-2.4-2.1-1.9-3.3,0.6-3.8c-0.1,0.5-0.1,0.9,0.2,1.2c0.5,0.5,1.6,0.3,2.4-0.5
		c0.8-0.8,1-1.9,0.5-2.4c-0.2-0.2-0.5-0.3-0.9-0.3c0.7-1.7,2.5-1.8,4.1-0.2h10.6v-11.7L-186.2,300.1z"/>
	<path d="M-192.9,328.8h-12.3v-11.1l0.1-0.1c0.9-0.9,1.3-1.8,1-2.5c-0.1-0.5-0.5-0.8-1.1-1.1c0.1,0.5,0,1-0.4,1.3
		c-0.6,0.6-1.9,0.4-2.9-0.5c-0.9-0.9-1.1-2.2-0.5-2.9c0.3-0.3,0.8-0.5,1.3-0.4c-0.3-0.6-0.8-1-1.3-1.2c-0.8-0.2-1.8,0.2-2.6,1.2
		l-0.1,0.1h-11.1v-12.3h11.1l0.1,0.1c0.7,0.7,1.6,1.1,2.3,1c0.4-0.1,0.7-0.2,0.9-0.5c-0.2,0-0.4-0.1-0.6-0.4
		c-0.3-0.3-0.4-0.8-0.3-1.4c0.1-0.5,0.4-1,0.8-1.5s1-0.7,1.5-0.8c0.6-0.1,1.1,0,1.4,0.3c0.2,0.2,0.4,0.5,0.4,0.8
		c1-0.2,1.6-0.6,1.7-1c0.1-0.4-0.1-1-1.5-2.3l-0.1-0.1v-11.1h12.3v11.1l-0.1,0.1c-0.9,0.8-1.3,1.7-1.1,2.4c0.2,0.5,0.6,0.9,1.3,1.2
		c-0.1-0.5,0.1-0.9,0.4-1.3c0.6-0.6,1.9-0.4,2.9,0.5c0.9,0.9,1.2,2.2,0.5,2.9c-0.4,0.4-0.9,0.5-1.5,0.3c0.3,0.6,0.7,1,1.3,1.1
		c0.9,0.2,1.9-0.2,2.7-1.2l0.1-0.1l11,0.1v12.3h-11.1l-0.1-0.1c-0.8-0.8-1.7-1.2-2.4-1c-0.4,0.1-0.8,0.3-1,0.7
		c0.3,0.1,0.5,0.2,0.6,0.3c0.6,0.6,0.4,1.9-0.5,2.9c-0.9,0.9-2.2,1.1-2.9,0.5c-0.3-0.3-0.4-0.7-0.4-1c-0.8,0.2-1.3,0.5-1.4,0.9
		c-0.1,0.4,0.1,1,1.4,2.2l0.1,0.1V328.8z M-204.6,328.2h11.1V318c-1.2-1.1-1.7-2-1.5-2.8c0.2-0.7,1-1.2,2.4-1.5l0.5-0.1l-0.1,0.5
		c-0.1,0.5-0.1,0.7,0.1,0.9c0.3,0.3,1.2,0.2,1.9-0.5c0.7-0.7,0.8-1.6,0.5-1.9c-0.1-0.1-0.4-0.2-0.7-0.2h-0.5l0.2-0.4
		c0.3-0.8,0.9-1.3,1.7-1.5c0.9-0.2,1.9,0.2,2.9,1.1h10.1v-11.1l-10-0.1c-1,1.1-2.2,1.5-3.2,1.3c-1-0.2-1.7-1.1-1.9-2.2l-0.2-0.7
		l0.6,0.4c0.6,0.3,1.1,0.3,1.4,0.1c0.3-0.3,0.2-1.2-0.5-1.9c-0.7-0.7-1.6-0.8-1.9-0.5c-0.3,0.3-0.3,0.7-0.1,1.1l0.4,0.6l-0.7-0.1
		c-1.3-0.2-2.1-0.9-2.4-1.8c-0.3-0.9,0.1-2,1.1-3v-10.1h-11.1v10.1c1.2,1.1,1.8,2,1.5,2.8c-0.2,0.8-1.1,1.3-2.6,1.5l-0.5,0.1
		l0.1-0.5c0.1-0.3,0-0.5-0.2-0.7c-0.2-0.2-0.5-0.3-0.8-0.2c-0.4,0.1-0.8,0.3-1.1,0.6s-0.6,0.8-0.6,1.1c-0.1,0.3,0,0.6,0.1,0.8
		c0.2,0.2,0.4,0.2,0.8,0.2h0.5l-0.3,0.5c-0.4,0.7-1,1.2-1.7,1.3c-0.9,0.1-1.8-0.3-2.7-1.1h-10.1v11.1h10.1c0.9-1,2.1-1.5,3.1-1.3
		c1,0.2,1.7,1,2,2.2l0.2,0.7l-0.6-0.3c-0.2-0.1-0.8-0.4-1.2,0c-0.3,0.3-0.2,1.2,0.5,1.9c0.7,0.7,1.6,0.8,1.9,0.5
		c0.4-0.4,0.2-1,0-1.2l-0.3-0.6l0.7,0.1c1.1,0.2,1.9,0.8,2.2,1.7c0.3,0.9-0.1,2.1-1.1,3.1V328.2z"/>
</g>
<g>
	<path d="M-214.1,302.4h-4.5l-1.6,1.6v3.5l1.7,1.7h3.1l1.7-1.7h-1.7l-0.6,0.5h-1.9l-0.6-0.6v-1.3h3c0.2,0.6,0.6,0.4,0.8,0
		c0-0.1,0-1.2,0-1.2c-0.1-0.3-0.5-0.8-0.8,0h-3v-0.6l0.7-0.8h2.3l0.9,0.9c0.4,0.3,0.4,0.2,0.5-0.1
		C-214.1,304.2-214.1,302.4-214.1,302.4z"/>
</g>
<g>
	<path d="M-177.8,302.4h-4.5l-1.6,1.6v3.5l1.7,1.7h3.1l1.7-1.7h-1.7l-0.6,0.5h-1.9l-0.6-0.6v-1.3h3c0.2,0.6,0.6,0.4,0.8,0
		c0-0.1,0-1.2,0-1.2c-0.1-0.3-0.5-0.8-0.8,0h-3v-0.6l0.7-0.8h2.3l0.9,0.9c0.4,0.3,0.4,0.2,0.5-0.1
		C-177.8,304.2-177.8,302.4-177.8,302.4z"/>
</g>
<g>
	<polygon points="-210.3,309.1 -209,309.1 -209,302.7 -211.6,302.7 -210.3,303.9 	"/>
</g>
<g>
	<path d="M-187.6,306.2l1.4-1.4v-1.5l-0.9-0.9h-2.4l-0.5,0.5l-0.5-0.4h-2.1l1.4,1.2v4.6l-1,0.8h2.3v-2.8h0.4l1.5,1.7v1h2.4v-0.6
		L-187.6,306.2z M-188,304.8l-0.3,0.4h-1.5v-1.4l0.4-0.3h1.4V304.8z"/>
</g>
<g>
	<path d="M-195.7,285c-1.7-0.8-2.4,0-2.7,0.3c-0.2-0.1-1.1,0-1.1,0.1c-0.1-0.2-1-0.7-1.6-0.6c-0.7,0.1-3.1,1.2,0,5.5l-0.4,5.1
		c0,0,1.7-1,2.6-2.4c0.7,0.8,2.2,2.3,2.7,2.5l-0.5-5.4C-195.9,289.6-193.7,286.2-195.7,285z M-198.8,292.7c0.2-0.1,0.3-0.3,0.4-0.5
		c0.5,0.6,0.9,1.1,1.1,1.2l-0.4-4.5l0.6-0.2l0.5,6.2C-196.9,294.7-197.8,293.8-198.8,292.7z M-201,294.5l0.3-3.8l0.5,0.5
		c0,0,0,1.8,0,1.9c0.3-0.1,1.6-1.8,2.5-3c0,0,0.2,0.8,0.2,0.9C-199,292.8-200.5,294.4-201,294.5z M-198.9,290.9
		c-0.5-0.1-1-1.3-0.6-1.9c0,0,0.7,0,0.9,0c0.2,0,0.5,0.1,0.6,0.5S-198.5,290.8-198.9,290.9z M-199.5,287.5c-0.3,0.1-0.8-0.2-0.8-0.4
		c0.1-0.7-0.2-0.9-0.8-0.4c-0.5,0.6-0.1,1.7,0.4,2.3c0,0,0.8,1.3,1.7,2.5c-0.1,0.2-0.3,0.4-0.4,0.6c-1.4-1.7-2.8-3.8-2.9-4.5
		c-0.4-1.8,0.7-2.6,2.2-2.1C-198.9,286-199.3,287.2-199.5,287.5z M-200.1,289.4l-0.3-0.8l0.4,0.1L-200.1,289.4z M-198.6,285.8
		c0,0.2-0.1,0.3-0.3,0.3c-0.2,0-0.3-0.1-0.3-0.3c0-0.2,0.1-0.3,0.3-0.3C-198.7,285.5-198.6,285.6-198.6,285.8z M-198.9,287.5
		c-0.4,0-0.2-0.9,0.1-0.9C-198.6,286.6-198.4,287.5-198.9,287.5z M-196.9,286.9c0.2-0.1,0.4,0.1,0.3,0.7c-1.1,1.9-3.9,1-4.5,0.1
		c0,0-0.1-0.2,0.1-0.5c0.1-0.2,0.8,0.3,0.9,0.4C-198.1,288.3-197.5,287.6-196.9,286.9z M-195.3,287.2c0,0.5-0.6,1.6-1.5,2.7
		c0-0.3-0.1-0.7-0.1-1l0.1-0.1c0.5-0.6,0.9-1.9,0.4-2.4c-0.6-0.5-0.9-0.3-0.8,0.4c0,0.2-0.4,0.8-0.8,0.6c-0.3-0.3-0.7-1.7,0.5-2.3
		C-196,284.6-195,285.4-195.3,287.2z"/>
</g>
<g>
	<path d="M-202.2,326.7c1.7,0.8,2.4,0,2.7-0.3c0.2,0.1,1.1,0,1.1-0.1c0.1,0.2,1,0.7,1.6,0.6c0.7-0.1,3.1-1.2,0-5.5l0.4-5.1
		c0,0-1.7,1-2.6,2.4c-0.7-0.8-2.2-2.3-2.7-2.5l0.5,5.4C-201.9,322.1-204.2,325.4-202.2,326.7z M-199,319c-0.2,0.1-0.3,0.3-0.4,0.5
		c-0.5-0.6-0.9-1.1-1.1-1.2l0.4,4.5l-0.6,0.2l-0.5-6.2C-200.9,317-200,317.8-199,319z M-196.8,317.1l-0.3,3.8l-0.5-0.5
		c0,0,0-1.8,0-1.9c-0.3,0.1-1.6,1.8-2.5,3c0,0-0.2-0.8-0.2-0.9C-198.9,318.9-197.3,317.2-196.8,317.1z M-198.9,320.8
		c0.5,0.1,1,1.3,0.6,1.9c0,0-0.7,0-0.9,0c-0.2,0-0.5-0.1-0.6-0.5C-200,321.7-199.4,320.9-198.9,320.8z M-198.3,324.2
		c0.3-0.1,0.8,0.2,0.8,0.4c-0.1,0.7,0.2,0.9,0.8,0.4c0.5-0.6,0.1-1.7-0.4-2.3c0,0-0.8-1.3-1.7-2.5c0.1-0.2,0.3-0.4,0.4-0.6
		c1.4,1.7,2.8,3.8,2.9,4.5c0.4,1.8-0.7,2.6-2.2,2.1C-198.9,325.6-198.5,324.4-198.3,324.2z M-197.7,322.3l0.3,0.8l-0.4-0.1
		L-197.7,322.3z M-199.2,325.8c0-0.2,0.1-0.3,0.3-0.3c0.2,0,0.3,0.1,0.3,0.3c0,0.2-0.1,0.3-0.3,0.3
		C-199.1,326.2-199.2,326-199.2,325.8z M-199,324.1c0.4,0,0.2,0.9-0.1,0.9C-199.2,325-199.5,324.2-199,324.1z M-201,324.8
		c-0.2,0.1-0.4-0.1-0.3-0.7c1.1-1.9,3.9-1,4.5-0.1c0,0,0.1,0.2-0.1,0.5c-0.1,0.2-0.8-0.3-0.9-0.4C-199.7,323.3-200.4,324-201,324.8z
		 M-202.5,324.4c0-0.5,0.6-1.6,1.5-2.7c0,0.3,0.1,0.7,0.1,1l-0.1,0.1c-0.5,0.6-0.9,1.9-0.4,2.4c0.6,0.5,0.9,0.3,0.8-0.4
		c0-0.2,0.4-0.8,0.8-0.6c0.3,0.3,0.7,1.7-0.5,2.3C-201.8,327-202.9,326.2-202.5,324.4z"/>
</g>
<g>
	<path d="M-193,301.5c-0.5-3.2-5.2-0.1-9.3-3.7c0,0-2.7,2.1-2.6,2.1c0.5,0.2,0.9,0.8,0.8,1.1c-1.9,4.6,0.4,9.9,2.7,11.6v0.9h4.1
		l1.1-2.3l1.5-0.4l1-6.8c0,0-0.2-0.2,0.3-0.7C-192.9,303.1-192.8,303.3-193,301.5z M-203.6,300.9c0.5-0.1,1.5,0.3,1.6,0.5
		c-0.9,0.8-3.2,5.9,1.8,9.7l-0.9,1C-203.2,310-205.6,306.3-203.6,300.9z M-197.1,305.2c0,0.3-0.5,0.4-0.6,0.2c0-0.1-0.7-2.8-0.7-2.8
		c0-0.4,0.4-0.3,0.4-0.1C-197.9,302.3-197.1,305.2-197.1,305.2z M-197.7,306.6c0.1,0.3-0.4,0.3-0.5,0.1l-1.3-4
		c0-0.3,0.4-0.3,0.5-0.1C-198.8,302.6-197.7,306.6-197.7,306.6z M-198.6,307.7c0.1,0.5-0.5,0.4-0.5,0.1l-1.3-5.5
		c-0.1-0.5,0.4-0.3,0.4,0C-200.1,302.4-198.6,307.7-198.6,307.7z M-199.5,309c0.1,0.5-0.5,0.5-0.5,0.1l-1.4-5.9
		c-0.1-0.5,0.4-0.3,0.4,0C-201,303.2-199.5,309-199.5,309z M-200.7,308.7c0,0.2-0.2,0.7-0.6,0.3c-1.5-1-1.6-4.6-1.2-5.2
		c0,0,0.4,0,0.5,0.2L-200.7,308.7z M-195.3,309c-0.1,0.5-0.3,1-0.3,1s-0.5,0-0.4-0.5C-195.8,308.6-195.1,308.5-195.3,309z
		 M-194.8,304.1l-3.4,8.9h-2.5l5.2-9.1C-195.2,303.6-194.7,303.9-194.8,304.1z M-197.1,302.7c-0.1-0.5,0.5-0.5,0.6,0
		c0.1,0.4,0.1,1.9-0.2,1.3C-196.9,303.4-197.1,302.7-197.1,302.7z M-195.6,302.2c-0.1,0.4-0.4,0.5-0.5-0.1
		C-196.2,301.8-195.6,301.9-195.6,302.2z M-194.4,303.1c-0.3,0-0.5-0.2-0.5-0.4c0-0.2,0.2-0.4,0.5-0.4c0.3,0,0.5,0.2,0.5,0.4
		C-193.9,302.9-194.2,303.1-194.4,303.1z M-204.3,299.8l1.9-1.4c4.3,2.9,7.6,0.7,8.5,2.7l0.2,0.9
		C-195,300.3-200.3,302.1-204.3,299.8z"/>
</g>
<g>
	<path d="M-218.2,349.8c-0.6,0-0.9-0.3-1-0.7l-1.1-6.3h-1c0,0-4.1,6.4-4.2,6.4c-0.2,0.2-0.8,0.7-1.4,0.6l-0.1,0.4h3
		c0.3,0,0.3-0.4,0.2-0.5c-0.8,0-1-0.3-0.9-0.6l0.9-1.4h2.5c0.1,0.9,0.3,1.6,0.3,1.6c-0.1,0.2-0.6,0.3-1,0.3c-0.2,0-0.1,0.5-0.1,0.5
		h3.8C-218.2,350.1-218.1,349.9-218.2,349.8z M-223.4,347.2l1.6-2.5c0,0,0.2,1.3,0.4,2.5H-223.4z"/>
</g>
</svg>
