<svg id="Layer_1" data-name="Layer 1" xmlns="http://www.w3.org/2000/svg" viewBox="0 0 187.83 223.46"><defs><style>.cls-1,.cls-20,.cls-7{fill:#fff;}.cls-1,.cls-2,.cls-3{stroke:#fafbfb;stroke-width:5.95px;}.cls-1,.cls-11,.cls-2,.cls-3{stroke-linecap:round;stroke-linejoin:round;}.cls-1,.cls-14,.cls-16,.cls-17,.cls-2,.cls-3,.cls-5,.cls-7{fill-rule:evenodd;}.cls-2,.cls-22,.cls-5{fill:#1a2746;}.cls-17,.cls-3{fill:#fbba00;}.cls-11,.cls-12,.cls-15,.cls-19,.cls-21,.cls-4,.cls-6,.cls-9{fill:none;}.cls-4{stroke:#fff;stroke-width:8.96px;}.cls-15,.cls-19,.cls-21,.cls-4,.cls-6{stroke-miterlimit:2.61;}.cls-6{stroke:#6f0e31;stroke-width:2.93px;}.cls-10,.cls-18,.cls-8{fill:#fcbf00;}.cls-10,.cls-11,.cls-12,.cls-13,.cls-18,.cls-9{stroke:#15000f;}.cls-10,.cls-12,.cls-13,.cls-18,.cls-9{stroke-miterlimit:10;}.cls-18,.cls-9{stroke-width:0.65px;}.cls-10,.cls-11,.cls-12{stroke-width:0.93px;}.cls-13,.cls-14{fill:#6f0e31;}.cls-13{stroke-width:0.72px;}.cls-15{stroke:#1d1d1b;stroke-width:1.67px;}.cls-16{fill:#1d1d1b;}.cls-19,.cls-21{stroke:#1a2746;}.cls-19{stroke-width:1.19px;}.cls-21{stroke-width:1.91px;}</style></defs><title>Galway Crest2013</title><path class="cls-1" d="M497.82,377.19c-3.75,4.23-6.12,8.22-2.89,10.34,10.94,7,17.43-22.57,3.71-5,0,0,.57-1-.73-5.47Z" transform="translate(-328.1 -186.21)"/><path class="cls-2" d="M498,377c2-2.33,4.44-4.45,6.57-6.55l1.05,6.16c-1.16-.15-3.31,1.33-6.8,5.76A15.19,15.19,0,0,0,498,377" transform="translate(-328.1 -186.21)"/><path class="cls-2" d="M346.13,377.19c-1.92-2.24-4.34-4.37-6.5-6.58l-1,6.25c1.12-.08,3.31,1.24,6.67,5.69a18.33,18.33,0,0,1,.84-5.36" transform="translate(-328.1 -186.21)"/><path class="cls-1" d="M346.13,377.19c3.84,4.23,6.07,8.22,2.93,10.34-10.92,7-17.49-22.57-3.77-5,0,0-.46-1,.84-5.47Z" transform="translate(-328.1 -186.21)"/><path class="cls-1" d="M421.93,406.69s53.69-1.21,75-42.29c0,0,3.79-19,14.07-9.3l.26.45c-4.33-6.67-15.36-13.82-15.36-13.82-10.73-8.51-14.6,9.87-14.6,9.87-28.36,37.35-59.33,34.27-59.33,34.27S391,388.95,362.68,351.6c0,0-3.79-18.38-14.61-9.87,0,0-10.89,7.15-15.36,13.82l.37-.45c10.33-9.74,14.07,9.3,14.07,9.3,21.19,41.08,74.78,42.29,74.78,42.29" transform="translate(-328.1 -186.21)"/><path class="cls-3" d="M353.92,375c-1.59,1.82-2.91,8.08-3.42,10.2v-.87c-.41-3.77-6.07-9.22-10.87-13.76-4.43-4.07-7.58-7.68-7.58-7.68-1.46-1.83-1.13-4.08.09-6.5l.94-1.34c10.33-9.74,14.07,9.3,14.07,9.3a64.26,64.26,0,0,0,6.57,10.28Z" transform="translate(-328.1 -186.21)"/><path class="cls-3" d="M490,375c1.73,1.82,3.09,8.08,3.42,10.2l.09-.87c.46-3.77,6-9.22,10.91-13.76,4.43-4.07,7.6-7.68,7.6-7.68,1.49-1.83,1.11-4.08-.16-6.5l-.86-1.34c-10.28-9.74-14.07,9.3-14.07,9.3a75.1,75.1,0,0,1-6.58,10.28Z" transform="translate(-328.1 -186.21)"/><path class="cls-4" d="M422.2,403.79c25.23-15.25,39.65-25.84,54.13-44.75,15.25-20,28.83-56.45,28.83-71.82s-.59-81.22-.59-81.22c-26.52-10-58.33-15.31-82.37-15.31S366.25,196,339.69,206c0,0-.57,66-.57,81.22S352.64,339,368,359C382.39,377.94,396.85,388.54,422.2,403.79Z" transform="translate(-328.1 -186.21)"/><path class="cls-5" d="M422.2,403.79c25.23-15.25,39.65-25.84,54.13-44.75,15.25-20,28.83-56.45,28.83-71.82s-.59-81.22-.59-81.22c-26.52-10-58.33-15.31-82.37-15.31S366.25,196,339.69,206c0,0-.57,66-.57,81.22S352.64,339,368,359c14.38,18.91,28.83,29.5,54.18,44.75" transform="translate(-328.1 -186.21)"/><path class="cls-6" d="M422.2,403.79c25.23-15.25,39.65-25.84,54.13-44.75,15.25-20,28.83-56.45,28.83-71.82s-.59-81.22-.59-81.22c-26.52-10-58.33-15.31-82.37-15.31S366.25,196,339.69,206c0,0-.57,66-.57,81.22S352.64,339,368,359C382.39,377.94,396.85,388.54,422.2,403.79Z" transform="translate(-328.1 -186.21)"/><path class="cls-7" d="M422.2,393.67c23-14,36.17-23.55,49.3-40.76,14-18.28,26.31-51.52,26.31-65.5s-.53-71.77-.53-71.77c-24.13-9.12-53.16-13.94-75.08-13.94s-51.07,4.82-75.23,13.94c0,0-.46,57.84-.46,71.77s12.26,47.21,26.26,65.5c13.13,17.21,26.28,26.78,49.44,40.76" transform="translate(-328.1 -186.21)"/><path class="cls-8" d="M423.48,308.9a2.33,2.33,0,0,1-2.33-2.22l-4.54-90.29a2.34,2.34,0,0,1,4.67-.23l4.54,90.29a2.34,2.34,0,0,1-2.22,2.45Z" transform="translate(-328.1 -186.21)"/><path class="cls-9" d="M423.48,308.9a2.33,2.33,0,0,1-2.33-2.22l-4.54-90.29a2.34,2.34,0,0,1,4.67-.23l4.54,90.29a2.34,2.34,0,0,1-2.22,2.45Z" transform="translate(-328.1 -186.21)"/><path class="cls-10" d="M393.48,285.63s-17.91,8.83-18.92,17.9,7.31,31.53,68.34,28.75c0,0,49.68,4.29,37.32-33.29,0,0-.76-2.52,2.52-3.53a4.71,4.71,0,0,0-6.05,2A21.62,21.62,0,0,1,456,307.82l.51,6.05s-24,2.78-24.21-10.84a121.08,121.08,0,0,0-14.63-6.31c-10.09-3.78-18.15-8.32-18.66-12.11Z" transform="translate(-328.1 -186.21)"/><line class="cls-11" x1="92.11" y1="35.37" x2="153.14" y2="53.52"/><path class="cls-12" d="M418.14,219.9s-27.18,8.48-43.07,7.22c0,0-8.32,48.17,17.15,59.26" transform="translate(-328.1 -186.21)"/><path class="cls-12" d="M373.8,231.66s-19.17,31.53,8.83,60" transform="translate(-328.1 -186.21)"/><path class="cls-12" d="M416.17,235.44s-25.22,18.92-27,51.45" transform="translate(-328.1 -186.21)"/><path class="cls-12" d="M434.08,239s7.82,46.66,21.94,68.85" transform="translate(-328.1 -186.21)"/><path class="cls-12" d="M476.19,239.73s12.87,59.52-37.57,72.63" transform="translate(-328.1 -186.21)"/><path class="cls-11" d="M479,240.74s15.89,27.49,2.78,42.62-38.35-10.21-38.35-10.21" transform="translate(-328.1 -186.21)"/><path class="cls-12" d="M397.26,289.41s2,6.56,35.56,17.4" transform="translate(-328.1 -186.21)"/><path class="cls-12" d="M397.26,297.23s14.88,13.37,51.7,18.41c27.49,2.77,32-14.4,32-14.4" transform="translate(-328.1 -186.21)"/><path class="cls-12" d="M397.66,304s7.62,11.68,46.72,17.48c30,4,37.62-10.15,37.62-10.15" transform="translate(-328.1 -186.21)"/><path class="cls-12" d="M403.06,317.4s31,16.65,71.12,8.07" transform="translate(-328.1 -186.21)"/><path class="cls-12" d="M392.47,290.17s-17.91,12.36-17.65,18.16" transform="translate(-328.1 -186.21)"/><path class="cls-12" d="M392.47,296.73s-17.15,12.1-14.38,18.41" transform="translate(-328.1 -186.21)"/><path class="cls-12" d="M393,304s-16.14,12.61-7.57,17.91" transform="translate(-328.1 -186.21)"/><path class="cls-12" d="M395.24,311.35s-11.35,10.09-2.77,14.63" transform="translate(-328.1 -186.21)"/><path class="cls-12" d="M399.53,319.17s-7.06,6.81,2.27,10.09" transform="translate(-328.1 -186.21)"/><path class="cls-10" d="M394.48,281.59S378.09,332,437.1,332.79c0,0-49.93,0-38.08-49.68,0,0-1-3.53-2.27-3.53S394.48,281.59,394.48,281.59Z" transform="translate(-328.1 -186.21)"/><path class="cls-13" d="M418.81,216.27s-5.77-.69-10.17.89-8.48,2.24-12.45,1.05c0,0,5.13,6.54,11.25,5.7s10.94-1.15,11.66-.49Z" transform="translate(-328.1 -186.21)"/><path class="cls-14" d="M443.94,243.95c5.73,53.07-22.45,53.44-22.45,53.44s-29.88-1.62-24.48-52.5Z" transform="translate(-328.1 -186.21)"/><path class="cls-15" d="M443.94,243.95c5.73,53.07-22.45,53.44-22.45,53.44s-29.88-1.62-24.48-52.5Z" transform="translate(-328.1 -186.21)"/><path class="cls-16" d="M428.55,258.29c1.48-2.76-1-4.37-2.4-5.36a5,5,0,0,0-.86-1.52,10.43,10.43,0,0,0,0-1.21,2.66,2.66,0,0,0-.76-1.58,12.4,12.4,0,0,0-2,1.23l-2.11.22a2.41,2.41,0,0,0-1.19.8c-1-.6-2,.18-3.09.2.31,1.05-.63,2.29.37,3.14a9.16,9.16,0,0,0-2.45,1.08,1.73,1.73,0,0,0-.73,1.67c0,.22.23.22.47.21A3.12,3.12,0,0,1,417,256a3.17,3.17,0,0,1-.54,1.4,7.77,7.77,0,0,0-4,1.9c-1.09-.92-2.61-.89-3.9-1.27-1,0-.65-1.15-1.09-1.67.24-.17.61-.2.69-.6a1.56,1.56,0,0,0-.35-1.32c-.4-.51-1-.41-1.53-.67a2.36,2.36,0,0,0-2,1.27c-1-.29-1.26.94-2.22.68a2.28,2.28,0,0,0-1.12,1.88c.17.28.23.81.64.74l-.13.53c.66.64-.26,1.11-.17,1.8.22.43.23,1,.72,1.23.28-.31.13-.84.3-1.17s.52-.79.94-.71c.13.44.68.52.79.84,1,.14,1.69.91,2.64,1,.1.71,1.17.41,1.6.93-.13.85.53.72,1.09.75s.38,1.08.54,1.71c-.94.89-1.27,2.24-2.07,3.18-.6-.84-1.41-1.83-2.49-1.56-.71.43-2-.21-2.58.66-.23.25-.58.57-.46,1,.22-.13.39-.13.54-.32.23,0,.56-.25.86,0-.16,1.11-1.56,1.15-1.51,2.29,0,.41,0,1,.41,1.16.23-.35.28-1,.84-1,.46.46-.55.67-.54,1.2a2.24,2.24,0,0,0,.46,2c.82.1,0-.65.23-1s.33-.7.74-.75c.36.32.9.27,1.35.42l-.23.54a15,15,0,0,0,2.85-.76,7.5,7.5,0,0,0,2.81-.42c.28-.23.68.28.85-.22,1.35-.15,1.72-1.41,2.22-2.36h.36c.21-.57.64-.8,1.1-1.16s1.05-.49,1.5,0a10.13,10.13,0,0,0,2.43.73,9.28,9.28,0,0,0-4.94,3.38c-.38.58-.82.79-1,1.26.82.68,2.29,1.34,2.4,2.63-.81.24-1.72.13-2.58.45-.31-.5-.48-1.32-1.26-1.54-1.16.26-1.72-1.19-2.9-.65-.3.18-.95.44-.76,1,.38-.11.86-.31,1.11.1,0,.47-.71.24-1,.45-.44.21-.95.53-.93,1.1a2.53,2.53,0,0,0-1,2.43c.12.22.13.73.58.74.07-.13,0-.41,0-.59a2.29,2.29,0,0,1,1.13-1.12c.14,0,.38.1.4.32a2.32,2.32,0,0,0-.8,2s.12.22.26.17c.94-1.52,2.86-.29,4-.73,2.3.11,4.38-.13,6.71-.24.18.06.48.28.71,0l.25-2.27h.22a9.32,9.32,0,0,0,1.5-3.42c.47-.89,1.42-.38,2.22-.66a4.37,4.37,0,0,1,.67.83,3.39,3.39,0,0,1-.49,2.45c-.35.48-.79.65-.93,1.18a4.86,4.86,0,0,0,2,1c1.72,1.11,4.09.57,6,.27a13.15,13.15,0,0,1-.66,1.89c-.07.41-.4,1-.91.87a2.77,2.77,0,0,0-2.57-.36c-.49.89-1.55.54-2,1.26-.65.47-.21,1.5-1.07,1.76a1.73,1.73,0,0,0-.14,1.66,1.29,1.29,0,0,0,.34-.53,1.23,1.23,0,0,1,1.34-.25,2.17,2.17,0,0,0,0,.63c.28,0,.43-.2.6-.24,1.31-.1,2.82-.46,4.14-.48,1,.18,2.64.68,3.27-.35s-.43-2.42.64-3.14c1.4-1.06,1.21-2.81,2.19-4.06.56-.87,1.74-1.83,1-2.88-.38-.44-1.15-.26-1.33-.89,1.95-1,2.21-3,2-5.07-.15-.73-.7-1.27-.62-2.13a2.7,2.7,0,0,0-1.49-2.89c-.82-.52-1.89-2.06-2.89-2-.74-.45-1-1.49-1.87-1.6a2.74,2.74,0,0,0-1.22,1.49c-.33,0-.42-.42-.52-.67a3,3,0,0,1,.62-3.15,2.36,2.36,0,0,1,3.41.58,1.35,1.35,0,0,1-.34,1.48.84.84,0,0,0-.22.73c.63.4,1.23.09,2,.08.19.7.83,2.68,1.6,2.83.18,0,.3-.64.44-.7.37-3.23,1.37-1.15,2.95-3,.2-.42.76-.55.28-1-.23.45-1,0-1.39,0-1.27-.22-2.08-1-3.39-1.59-1.71-1.23-4.54-2.29-6.38.13-.82.85-1.31,4.88-1.31,4.88,0,.8.61,2.26.07,3.21a7,7,0,0,1,2.33-.66,6.78,6.78,0,0,1,6.09,3.54,3.71,3.71,0,0,1,.43,2.41c-.25.39-.56.86-1,1-1,.31-1.71-.39-2.53-.76l-4.33-3.78c-.23-.4-.94-1-1.35-1.54l-1.7-1.9c1.42-.42,2-2.55,2.86-5.78" transform="translate(-328.1 -186.21)"/><polygon class="cls-17" points="99.41 72.64 99.45 72.64 99.66 73.02 99.54 73.02 99.41 72.64"/><path class="cls-17" d="M421.6,270a6,6,0,0,0,3.21,2.65c.15.16,0,.49-.18.63-1-1.27-2.25.31-3.58-.28-.19.23,0,.5,0,.74a4.94,4.94,0,0,1-1.47,3.11l-.48-.09c0,.75.38,1.66-.1,2.37a1.15,1.15,0,0,1-.86.14,1,1,0,0,0,.13-.9c-.3,0-.61.4-.85.71l-.62.34c.21-.25.43-.7.13-1-.61,0-.79.79-1.23.93,0-.25.17-.7,0-1-.68.14-.41,1-1.08,1.09a1,1,0,0,0-.26-.73c-.52,0-.84,1-1.3.56l-.59.26s.32-.64,0-.86c-.54-.11-.62.62-1.19.76-.75.55-1.58-.59-2.1.29l-.29,0c.73.17.22-1,.81-1.3.38-.44.71-.32,1.17-.46.07-.26-.23-.38-.38-.5-.9-.51-1.32,1.29-2,.16-.19.17-.43.52-.69.59l-.56.82c-.2-.2,0-.85.31-1.14s1-.17.74-.91a3,3,0,0,1,2.43-.56c.21-.06.13-.29.08-.41s-.27-.08-.41-.2v0c-.11-.27.14-.56-.26-.84.68,1,2.29-.23,2.71,1.3,0,.39-.09.92.38,1.07a5.14,5.14,0,0,1,3.87-.17c.15-.19.14-.42,0-.52a13.81,13.81,0,0,0-.24-3c-.2.26-.55.73-1.11.64l-.08-.19a1.63,1.63,0,0,0,1.11-1.07c0-.12,0-.24-.07-.28a7.8,7.8,0,0,0-1,.65,1.72,1.72,0,0,1-.88.28,4.82,4.82,0,0,0,1.76-1.7.83.83,0,0,0-.21-.24c-.57,0-.91.84-1.44,1.09,1.27-2.29,4.09-4,6.74-2.89" transform="translate(-328.1 -186.21)"/><path class="cls-17" d="M436.38,263.2c.23-1.19,1.08-2.14.63-3.49.48.26.91.87,1.51.79a1.41,1.41,0,0,0,1.2-.7,13.91,13.91,0,0,1-2.26-.65c-1.09.1-1.8-1.17-2.81-1.64a4.73,4.73,0,0,0-4.55-.36c-1.62.87-1.91,2.71-1.88,4.47a7.91,7.91,0,0,0,.74,2.52c.15.57-.67.59-.66,1.09a5.58,5.58,0,0,1,5.36-.11c2,1.33,3.78,3.44,3.52,6.05a3.1,3.1,0,0,1-1.1,1.47c-1.75.46-3.16-.64-4.5-1.48-3-1.55-4.42-4.91-7.39-6.48-.71-.18-1,.59-1.61.6l-.13-.33c-.57.46-.86-.42-1.37.23-.4-.56-.92.35-1.52.22-.21-.05-.45.11-.63-.17a2.52,2.52,0,0,0,.59-.91c-.71.22-1.36,1.21-2.26.86a.59.59,0,0,1-.12-.32c-.48,0-1,.63-1.55.24-.27-.77-1.31,0-1.86-.46-.23,0-.43-.5-.69-.33a.67.67,0,0,1-.77.26c1.28-1.09.51-3.09,1.68-4.17.25.24-.2.47-.18.76l.17,1.35c.53-.08.51-1.36,1.17-1.15.07.67-.45,1.29-.62,2a2.61,2.61,0,0,0,1.46-1.71v-.17a.41.41,0,0,1,.51.15,3.69,3.69,0,0,1-1.29,2.25,3,3,0,0,0,1.81-2.16.53.53,0,0,1,.5,0,17.56,17.56,0,0,1-.62,2c.39.12.8-.44,1.12-.74s.46-1,1-1.16l.14.2-.39,1.93a3.72,3.72,0,0,0,1.38-2.3c.6.24.25,1.08.36,1.73h.06c.76-.53.06-2.12,1.4-2.18l.48.93c.41-.52-.48-1.15.23-1.33l.44.66c.14-.53-.26-1.14.26-1.51.53.48.48,1.29.8,1.88a3.82,3.82,0,0,0-.23-2.33c-.13-.31.18-.54.3-.72.39.22.51.87.67,1.31s0,1.2.16,1.73c0-1.18.11-2.66-.64-3.67.44,0,.56-.71,1.11-.33,0-.12,0-.51.19-.42.83,0,1.21.86,1.73,1.43,0-.81-1.22-1.44-1.41-2.17.12-.24.45-.13.66-.07a6.54,6.54,0,0,1,1.53,1.73,3.39,3.39,0,0,0-1.89-2.19c0-.18-.1-.47.06-.57a2.6,2.6,0,0,1,1.22.67l0-.08c-.26-.73-1.5-.6-1.14-1.53.53-.08.79.39,1.12.61l.12-.06a5.6,5.6,0,0,0-2.22-1.94,5.53,5.53,0,0,1-.69,2.65,4.16,4.16,0,0,1-.89,1.86c-1.16.26-2.11,1.61-3.3,1.68-.53.46-1.28,0-1.81.44-.33.1-.44-.19-.56-.39-.47.17-1.17.52-1.51,0-.33.09-.62.42-1,.23-.18-.2-.1-.57.14-.6.52.51.88-.52,1.51-.42,0,.17-.26.5.07.58.53.08.85-.38,1.28-.55.06.23-.14.63.25.72.69,0,.57-1.68,1-.41.14.28.38,0,.44-.11l.46-.7.3.45.55-1,.31.57a1.93,1.93,0,0,0,.36-1.39c.33,0,.37.4.58.66a2.55,2.55,0,0,0-.48-2.32c.13-.16.43-.11.46,0a2.61,2.61,0,0,1,.6,1.9c.29-.26.19-.9.12-1.31s-.73-.76-.76-1.23c.24-.17.54.11.72,0l-.37-.62c.69-.32.93.45,1.18.86-.09.16,0,.22.12.35a2,2,0,0,0-.42-1.36c-.14-.41-.72-.27-.67-.76a.45.45,0,0,1,.46-.15,5.43,5.43,0,0,1,.81.76,2.21,2.21,0,0,0-.7-1.7c.53-.42,1-1.12.6-1.75l-.4-.74c-.53.42-1.24.67-1.37,1.37a5.18,5.18,0,0,0-2.63-.15c-.28.25-.66.55-.65.92-.95-.39-1.74,0-2.73,0-.09.11-.23.24-.17.38s.37.07.38.32a1.34,1.34,0,0,0-.4,1.23c.25.73,1.41.42,1.36,1.25.06.1.08.18.2.12l.27-.68c.94.72,1-1,1.66-.07-.22.53.19,1.41-.64,1.67a2.76,2.76,0,0,1-1.31.23c-.29-.16-.17-.56-.57-.56-.3.35.48.76-.15.93-.15.07-.29.17-.14.38,1.34-.11,3.17.71,3.86-.82l.08-.51c.37-.3.82.16.83.57a1.67,1.67,0,0,1-.41,1.23l-.83.43c-3.32.17-6.76.19-8.85,3-.05.16-.24.17-.36.17-.19-.41.4-1-.34-1.18-1.45-.63-3.1-.71-4.45-1.68-.08-.34.15-.12.28-.25.23-.65-1.08-1.94.35-2a.77.77,0,0,0-.54-1c-.88-.45-.85.67-1.55.89.16.59.55,1,.69,1.64-.39-.12-.54-.62-.82-.95a1.58,1.58,0,0,0-1.68-.47c-.37,0-.53.52-.85.6-.08.41-.19,1,.35,1.13s1.46-.19,2.18.11c-.51.57-1.46.29-2.17.38-.32.45-.88-.32-1.12.62-.14.39.28.56.4.84a2.88,2.88,0,0,0-.87,1.37l.12.18a4.46,4.46,0,0,1,1.06-1.43,3.54,3.54,0,0,0,2.33-.21c.33.26-.12.78-.13,1.14l-.14.25c.6.17.93-.55,1.55-.38.17.35-.2.6-.27.89.53.27,1-.14,1.43-.21.14.38-.09.65-.11,1a2.11,2.11,0,0,0,1.69-.43,1.74,1.74,0,0,0,.13,1.43c.52-.09.9-.46,1.35-.54l.12,2.17h.67c-.42.74-1.16,1.45-1.63,2.19l-1.13,1.64c.42.74-.55.67-.87,1-.43,0-1,.43-1.4.08-.08-.42-.73-.63-1.12-.79-.57-.11-1.18-.16-1.55.34a.81.81,0,0,0-.17.92l.14.12a2.4,2.4,0,0,1,1.4-.78c.2,0,.56.16.56.34a1.52,1.52,0,0,0-1.26.84c-.06.07-.13,1.21-.13,1-.21-.1-.77.24-.87.49v0c.34-.17.72-.62,1.23-.47a1.09,1.09,0,0,0,1.23.3l.69-.65c.11.3-.23.76.36,1,.65-.13.7-.87,1.46-.76.52-.34.23-1.19.8-1.39a2,2,0,0,1-.13,1.51c.24.18.45-.11.68-.17.51-.36-.15-1.63.72-1.47.37.38-.15.8.17,1.2.56-.42.48-1.11.53-1.62.39-.14.5.27.43.56s0,.41.09.59c.48-.38.41-1.17.64-1.64.44.31.35,1,.36,1.54a2.85,2.85,0,0,0,.82-2.39c.09-.06.19,0,.33,0l.39.36a7.41,7.41,0,0,0,2.58-2.09c.31.52,1.11.1,1.35.56-.23.17-.62.08-.86.37a17.12,17.12,0,0,0,4.29,1.24l-.32.26c1.51.84,2.14,2.75,3.76,3.22.31.05.56-.29.62-.6l.11-1.44c.26-.12.51.26.6.44.35,1.29-.73,2.21-1.1,3.29-.26,1.37-.23,2.81-1.05,4a.59.59,0,0,0,.54.33,4.4,4.4,0,0,1,.94-1.92c.45,0,.79.72,1.24.89a7.9,7.9,0,0,0,3.06,1.16l.21.22c.44-.41,1.37-.25,2-.43.28,0,.58-.22.85-.1,0,.36-.41.48-.7.7-.69,1.26-1.25,2.6-1.8,3.9a.89.89,0,0,0-.86.32,2,2,0,0,0-1.67-.84c-.28.11-.61.05-.81.31l.34.64a1.75,1.75,0,0,1,1.48-.4c.11.16.22.4.07.57a1.92,1.92,0,0,0-1.43.71l-.41.87c-.54,0-1,.14-1.27.59a2.68,2.68,0,0,0,1.6-.48c1.13.06,2.51.4,3.33-.47a1.25,1.25,0,0,0,1,.67c.57.08,1.33-.06,1.39-.8a1.65,1.65,0,0,0-.32-1.19c-.24-.1-.54-.22-.55-.52a3.67,3.67,0,0,0,1.65-1.71h-.85c.07-.4.69-.54,1-.94.63-.89,1.52-1.64,1.5-2.66.53-.41,1.34-.84,1.39-1.53a1,1,0,0,0-1.1-.41c-.26.14-.26.44-.58.5-.48-3.08-4.75-1.07-5.07-4.33l.12-.08a7,7,0,0,0,5.41,2.05,3.67,3.67,0,0,0,1.85-3.11c.1-1.19-.58-2-1.12-2.84.18-1,.22-2.39-.82-3.06a4.35,4.35,0,0,1,.13,1.87c-.87-.51-.12-1.63-1-2.14-.2.32.06.69-.19,1-1.15-.35-.17-1.73-1.19-2.24l0,1.47c-.67.07-.42-.87-.74-1.17-.36-.81-1.13-1.3-1.28-2.12l-.19-.11a2,2,0,0,0-.88,1.43c0,.28.24.57.09.94-.62.24-1-.67-1.36-1.08a4.29,4.29,0,0,1,.25-4,2.76,2.76,0,0,1,2.3-1.13,2.94,2.94,0,0,1,2.65,1.53,1.94,1.94,0,0,1-.54,2.05,1.08,1.08,0,0,0,1.29-.31,1.92,1.92,0,0,0,.25-.72,2.67,2.67,0,0,1,.15,1.88,14.83,14.83,0,0,1,.94,1.59" transform="translate(-328.1 -186.21)"/><path class="cls-17" d="M425.38,252.91c0-.5-.55-.79-.56-1.21a1.4,1.4,0,0,1,.56,1.21" transform="translate(-328.1 -186.21)"/><path class="cls-17" d="M406.15,254.62h-.24l-.24-.17a.66.66,0,0,1,.48.17" transform="translate(-328.1 -186.21)"/><path class="cls-17" d="M417.8,254.8c-.16,0-.41.29-.46.45-1.25.15-2.64.3-3.46,1.29.16-.88,1.27-1.41,2.11-1.65.48-.07.83.43,1.25.16l.4-.48Z" transform="translate(-328.1 -186.21)"/><path class="cls-17" d="M405.14,255.5c.16.08-.08-.33-.14-.2s-.18,0-.26-.12c.07-.06.26.22.4.32" transform="translate(-328.1 -186.21)"/><path class="cls-17" d="M419.35,255.17c-.44.8-.45.35-.81.4s-.25-.22-.41-.34c0-.2.22-.17.4-.29a6.4,6.4,0,0,0,.82.23" transform="translate(-328.1 -186.21)"/><path class="cls-17" d="M401.42,257c-.27,1,1-.8,1.07-.8-.09.6-.76.45-1.07.8" transform="translate(-328.1 -186.21)"/><path class="cls-17" d="M401.45,258.31s0-.39.58-.81v0Z" transform="translate(-328.1 -186.21)"/><path class="cls-17" d="M427.33,260.05c.32.81-2-2.62-1.65-2.17a4.22,4.22,0,0,1,1.65,2.17" transform="translate(-328.1 -186.21)"/><polygon class="cls-17" points="97.65 73.72 97.48 72.9 97.6 72.9 97.65 73.72"/><path class="cls-17" d="M425.38,263.37l.35-3a4.34,4.34,0,0,1-.35,3" transform="translate(-328.1 -186.21)"/><polygon class="cls-17" points="98.19 75.6 98.35 75.23 98.36 75.48 98.31 75.48 98.19 75.6"/><polygon class="cls-17" points="93.38 77.82 93.58 75.98 93.57 77 93.38 77.82"/><path class="cls-17" d="M424.4,263.93l-.24-.49v-.39a2.54,2.54,0,0,1,.24.88" transform="translate(-328.1 -186.21)"/><path class="cls-17" d="M406.75,268.3a.84.84,0,0,1,.1.44c1.33.94-3.61-.89-2.07-.81,0-.22.33-.29.59-.38a1.41,1.41,0,0,1,1.39.75" transform="translate(-328.1 -186.21)"/><path class="cls-17" d="M403.11,269.86c.29,1.3-1.1,1.08-.58.68,0-.41.24-.59.58-.68" transform="translate(-328.1 -186.21)"/><polygon class="cls-17" points="75.01 86.72 75.32 86 75.11 86.29 75.01 86.72"/><polygon class="cls-17" points="78.2 86.06 78.28 86.06 78.17 86.59 78.21 86.28 78.2 86.06"/><path class="cls-17" d="M425.76,279c-.28,0-.25-.53-.4-.72.14-.45.08-1,.41-1.29a10.9,10.9,0,0,0,0,2" transform="translate(-328.1 -186.21)"/><path class="cls-17" d="M426.73,277.73l.42,1.26c-.87-.18-.62-1.17-.75-1.71.24,0,.3.23.34.46" transform="translate(-328.1 -186.21)"/><path class="cls-17" d="M427.15,283.4c-.39,1.51-1,1.08-1.23,1.35-.43.07-.57-.34-.73-.58a1.07,1.07,0,0,1,.7-1,1.86,1.86,0,0,1,1.26.26" transform="translate(-328.1 -186.21)"/><path class="cls-17" d="M424.86,284.77s0,.06,0,.1-1.58,1.38-.82.54c.05-.33.25-1,.78-.64" transform="translate(-328.1 -186.21)"/><path class="cls-16" d="M421.1,252.38s0-.06-.14-.06c-.37.19.33.52-.15.59.75.07-1.78.32-1,0-.18-.29.11-.55,0-.77.11,0,.4.09.5-.14a.6.6,0,0,1-.18-.69c.32.35,1,.56,1,1.08" transform="translate(-328.1 -186.21)"/><path class="cls-17" d="M419.9,252.12c-.11.23-.28.66,0,.78a.6.6,0,0,0,.65-.42c.06-.27-.38-.36-.62-.26Z" transform="translate(-328.1 -186.21)"/><path class="cls-8" d="M489.56,241.85h-.2L354.94,227.46a1.87,1.87,0,1,1,.4-3.71l134.42,14.37a1.87,1.87,0,0,1-.2,3.73Z" transform="translate(-328.1 -186.21)"/><path class="cls-9" d="M489.56,241.85h-.2L354.94,227.46a1.87,1.87,0,1,1,.4-3.71l134.42,14.37a1.87,1.87,0,0,1-.2,3.73Z" transform="translate(-328.1 -186.21)"/><path class="cls-18" d="M360.18,227.12s8.07,10.59,25.73,10.59c14.38,0,14.62-2.77,17.15-2.52,0,0,6.81,7.31,21.44,7.56s17.91-2.77,23.2-2S452,247,463.84,247s17.65-6.31,23.2-6.31Z" transform="translate(-328.1 -186.21)"/><path class="cls-19" d="M422.2,393.67c23-14,36.17-23.55,49.3-40.76,14-18.28,26.31-51.52,26.31-65.5s-.53-71.77-.53-71.77c-24.13-9.12-53.16-13.94-75.08-13.94s-51.07,4.82-75.23,13.94c0,0-.46,57.84-.46,71.77s12.26,47.21,26.26,65.5C385.89,370.12,399,379.7,422.2,393.67Z" transform="translate(-328.1 -186.21)"/><path class="cls-5" d="M422.2,402c23-11.91,36.17-28.31,49.3-42.95,6.55-7.27,12.67-17.3,17.41-27.17-4.05,2.45-10.84,3.82-21.33-1.74,0,0-21.77-13.39-36.67-1.11a15.79,15.79,0,0,1-8.42,2.12,15.18,15.18,0,0,1-8.26-2.12c-15-12.28-36.69,1.11-36.69,1.11-11.75,6.25-18.83,3.76-22.61.84,4.77,10.12,11.09,20.54,17.83,28.07C385.89,373.65,399,390,422.2,402" transform="translate(-328.1 -186.21)"/><path class="cls-7" d="M477.6,354.86c3.47-4.58,5.37-8.68,8.3-14.05-6.35,2.54-20-3.27-24.93-6.44,0,0-11-6.78-22.06,0,0,0-9.21,5.14-15.87,5.14s-15.92-5.14-15.92-5.14c-11-6.78-22.09,0-22.09,0-5.92,3.94-19.36,9.23-26.69,5.91l-1.44-2.09c3,5.6,5.53,11.36,9.13,16.12.15,0,2.69-.52,2.82-.52,4.32,0,10.12-2,16.19-6,0,0,11.1-6.91,22.09,0,0,0,9.16,5,15.92,5s15.87-5,15.87-5c11.05-6.91,22.06,0,22.06,0,5.56,3.5,12.57,6.65,16.63,7" transform="translate(-328.1 -186.21)"/><path class="cls-20" d="M438.77,360.87a6.91,6.91,0,0,0-5.57-3.58,16.67,16.67,0,0,0-2.95.26l.4.51c1.6.21,2.44,1.58,3.17,2.84l-3.65,5.19c-1.14-1.74-2.3-3.47-3.43-5.22-1.48-2.28-3.45-3.58-5.59-3.58a16.45,16.45,0,0,0-2.93.26l.4.51c1.6.21,2.44,1.58,3.17,2.84l-4.08,5.81a6.61,6.61,0,0,0-3.81-.92,16.55,16.55,0,0,0-4,.49l.4.51a6.89,6.89,0,0,1,5.33,2.94l-.6.85a6.56,6.56,0,0,1-5.35,2.87c-4.24,0-6-4.13-6-7.75,0-3.07,1.79-6.25,5.26-6.25,1.71,0,3.74.7,4.59,2.27a13,13,0,0,1,2.43-.26A8,8,0,0,0,408.5,357a9.48,9.48,0,0,0-.21,19,9.58,9.58,0,0,0,8.38-4.54c1.3,2.17,3.08,4.41,5.89,4.41,3.14,0,4.53-2.13,6.12-4.41.34.5.66,1,1,1.52a6.09,6.09,0,0,0,4.91,2.89c3.13,0,4.55-2.11,6.13-4.41,1.29,2,2.63,4.23,5.32,4.23h1.86Zm-15,12c-2,0-3.34-3.67-4.61-4.93l3.72-5.29,4.68,7.13c-.82,1.19-2.15,3.08-3.79,3.08m12,0a2.7,2.7,0,0,1-2.14-1.36l-2.41-3.67,3.66-5.18,4.64,7.1c-.69,1.28-2.14,3.12-3.76,3.12" transform="translate(-328.1 -186.21)"/><path class="cls-7" d="M497.82,377.19c-3.75,4.23-6.12,8.22-2.89,10.34,10.94,7,17.43-22.57,3.71-5,0,0,.57-1-.73-5.47Z" transform="translate(-328.1 -186.21)"/><path class="cls-5" d="M498,377c2-2.33,4.44-4.45,6.57-6.55l1.05,6.16c-1.16-.15-3.31,1.33-6.8,5.76A15.19,15.19,0,0,0,498,377" transform="translate(-328.1 -186.21)"/><path class="cls-5" d="M346.13,377.19c-1.92-2.24-4.34-4.37-6.5-6.58l-1,6.25c1.12-.08,3.31,1.24,6.67,5.69a18.33,18.33,0,0,1,.84-5.36" transform="translate(-328.1 -186.21)"/><path class="cls-7" d="M346.13,377.19c3.84,4.23,6.07,8.22,2.93,10.34-10.92,7-17.49-22.57-3.77-5,0,0-.46-1,.84-5.47Z" transform="translate(-328.1 -186.21)"/><path class="cls-7" d="M421.93,406.69s53.69-1.21,75-42.29c0,0,3.79-19,14.07-9.3l.26.45c-4.33-6.67-15.36-13.82-15.36-13.82-10.73-8.51-14.6,9.87-14.6,9.87-28.36,37.35-59.33,34.27-59.33,34.27S391,388.95,362.68,351.6c0,0-3.79-18.38-14.61-9.87,0,0-10.89,7.15-15.36,13.82l.37-.45c10.33-9.74,14.07,9.3,14.07,9.3,21.19,41.08,74.78,42.29,74.78,42.29" transform="translate(-328.1 -186.21)"/><path class="cls-17" d="M353.92,375c-1.59,1.82-2.91,8.08-3.42,10.2v-.87c-.41-3.77-6.07-9.22-10.87-13.76-4.43-4.07-7.58-7.68-7.58-7.68-1.46-1.83-1.13-4.08.09-6.5l.94-1.34c10.33-9.74,14.07,9.3,14.07,9.3a64.26,64.26,0,0,0,6.57,10.28Z" transform="translate(-328.1 -186.21)"/><path class="cls-17" d="M490,375c1.73,1.82,3.09,8.08,3.42,10.2l.09-.87c.46-3.77,6-9.22,10.91-13.76,4.43-4.07,7.6-7.68,7.6-7.68,1.49-1.83,1.11-4.08-.16-6.5l-.86-1.34c-10.28-9.74-14.07,9.3-14.07,9.3a75.1,75.1,0,0,1-6.58,10.28Z" transform="translate(-328.1 -186.21)"/><path class="cls-21" d="M511,355.09c-10.28-9.74-14.07,9.3-14.07,9.3-23.55,43-75,42.29-75,42.29s-52,.71-74.78-42.29c0,0-3.74-19-14.07-9.3m164.84,22.1a15.7,15.7,0,0,1,.73,5.36c13.72-17.59,7.23,12-3.71,5-4.8-3.16,3-10.76,9.46-16.92,4.43-4.07,7.6-7.68,7.6-7.68,5.67-7-16.13-21.2-16.13-21.2-10.73-8.51-14.6,9.87-14.6,9.87-28.36,37.35-59.33,34.27-59.33,34.27S391,388.95,362.68,351.6c0,0-3.79-18.38-14.61-9.87,0,0-21.7,14.18-16,21.2,0,0,3.15,3.62,7.58,7.68,6.41,6.16,14.29,13.76,9.43,16.92-10.92,7-17.49-22.57-3.77-5a16,16,0,0,1,.74-5.36m158.82-6.58,1,6.25M350.4,386s1.61-8.77,3.52-10.93M493.66,386S492,377.19,490,375m-150.35-4.43-1,6.25" transform="translate(-328.1 -186.21)"/><path class="cls-22" d="M379.44,391.87a19.53,19.53,0,0,1-5.91-2.58,8,8,0,0,1-3.77-4.92,8.47,8.47,0,0,1,1.05-6.18,7.12,7.12,0,0,1,4.78-3.84,8.38,8.38,0,0,1,6.31,1.53,12.79,12.79,0,0,1,2.28,1.88,10.11,10.11,0,0,1,1.57,2.3,10.51,10.51,0,0,0-1,.93,4.71,4.71,0,0,0-1,1.06l-.27-.17a5.07,5.07,0,0,0-.5-2.65,4.33,4.33,0,0,0-1.71-1.91,3.82,3.82,0,0,0-3.81-.38,6.9,6.9,0,0,0-3.42,3.38,7.71,7.71,0,0,0-1.16,4.66,4.43,4.43,0,0,0,2.09,3.38c.33.17.62.36.93.49a6,6,0,0,0,.88.34l.27-.55c.42-.72.77-1.4,1.15-2.12s.69-1.46,1-2.22c.32.24.59.46.85.65a8.3,8.3,0,0,1,.76.55l.8.43a10.23,10.23,0,0,0,.91.51c-.48.71-.87,1.28-1.15,1.73s-.51.88-.72,1.19-.28.56-.47.95-.46.9-.78,1.56" transform="translate(-328.1 -186.21)"/><path class="cls-22" d="M389.81,391.58c.08,0,.12.08.18.09a12.53,12.53,0,0,1,1.16.48l1.26.45.09,0a20.11,20.11,0,0,0,.07-2.06c0-.76-.07-1.52-.09-2.3-.52.6-1,1.17-1.42,1.69s-.89,1.1-1.24,1.61m-5,3.64c1.61-1.79,3.16-3.56,4.63-5.39s2.91-3.58,4.3-5.39l.09,0a3,3,0,0,0,.77.37c.14,0,.35.13.66.21.13,0,.17.08.22.08,0,2.5,0,4.92,0,7.29s.09,4.72.18,7c-.35-.13-.62-.29-.92-.39a3.78,3.78,0,0,1-.66-.29,6.81,6.81,0,0,1-.77-.28c-.3-.11-.61-.2-.92-.28,0-.4,0-1,.06-1.89s.05-1.5.09-2l-.8-.33c-.4-.17-.75-.31-1-.44-.07,0-.31-.13-.74-.24s-.77-.28-1.09-.45c-.47.68-1.2,1.7-2.21,3l0,.08c-.2-.08-.35-.17-.5-.24a1.15,1.15,0,0,1-.32-.14,1.61,1.61,0,0,0-.42-.14c-.18-.05-.37-.09-.57-.16" transform="translate(-328.1 -186.21)"/><path class="cls-22" d="M401.11,400.68c.27-1,.5-1.85.75-2.81s.48-2.14.79-3.52.5-2.4.69-3.43.34-2.08.48-3.12c.46.2.82.28,1,.39s.44.16.62.2.34.05.54.09l1.08.15c-.25.92-.5,1.86-.74,2.82s-.54,2.18-.84,3.55l-.13.71c-.26,1.21-.46,2.2-.65,3.13s-.3,1.79-.38,2.62c-.44-.11-.76-.24-1-.33a6.11,6.11,0,0,0-.72-.19,3.55,3.55,0,0,1-.44-.09,7.41,7.41,0,0,0-1.07-.19" transform="translate(-328.1 -186.21)"/><path class="cls-22" d="M411.31,402.83a15.2,15.2,0,0,0,.46-2.14c.11-.78.27-1.78.41-3l.13-1.28.12-.83c.17-1.41.25-2.51.31-3.34s.1-1.69.1-2.45c.21.07.47.08.76.18s.69.1.85.13.78.06,1.45.12c.11,0,.21,0,.32,0-.16.66-.27,1.28-.37,1.93s-.16,1.28-.27,2l-.1.44-.48,4.58c-.08.77-.14,1.34-.17,1.66s0,.59-.05.88c.69.09,1.32.14,2,.2s1.28.08,1.89.09a2.19,2.19,0,0,1-.05.52,1.19,1.19,0,0,0-.08.35c0,.12,0,.25,0,.56v.39c-1.31-.22-2.26-.39-2.92-.48a15.15,15.15,0,0,0-1.55-.23,11,11,0,0,0-1.32-.13c-.48-.07-.91-.12-1.4-.15" transform="translate(-328.1 -186.21)"/><path class="cls-22" d="M424.26,403.9c0-.71,0-1.44-.06-2.22s-.11-1.78-.23-3l-.17-1.32-.08-.85c-.1-1.37-.23-2.5-.35-3.32s-.27-1.67-.37-2.39l.72,0c.48-.06.76-.09.91-.09s.72-.08,1.41-.18a1.22,1.22,0,0,1,.31-.08c0,.65,0,1.26,0,1.93s.09,1.32.19,2l0,.47.48,4.54c.06.82.1,1.34.13,1.68s.13.66.17.87c.66-.09,1.3-.17,2-.28l1.86-.37v.52c0,.13,0,.28,0,.41a3.25,3.25,0,0,0,.14.51c0,.13,0,.28,0,.36-1.29.1-2.29.19-2.93.28a12.65,12.65,0,0,0-1.5.13c-.49,0-.92.11-1.37.16s-.87.17-1.33.23" transform="translate(-328.1 -186.21)"/><path class="cls-22" d="M437.34,402c-.09-1-.19-1.9-.36-2.87s-.36-2.13-.67-3.61c-.25-1.19-.44-2.37-.71-3.38s-.49-2.06-.76-3a7,7,0,0,1,1.06-.13c.28,0,.49-.1.66-.13l.54-.16,1-.35c.13.92.27,1.92.44,2.86s.37,2.24.67,3.63l.13.76c.24,1.14.41,2.15.66,3s.42,1.77.68,2.6c-.45.07-.82.11-1.09.14s-.5.13-.72.17-.25.06-.41.12l-1.11.34" transform="translate(-328.1 -186.21)"/><path class="cls-22" d="M446.82,400c-.24-1.42-.45-2.66-.62-3.71s-.37-1.94-.54-2.82l-1.33-6.5c.33-.1.55-.13.72-.2a3.67,3.67,0,0,0,.47-.17l.45-.23c.21-.08.44-.2.68-.31,1.13,1.37,2.13,2.64,3.09,3.75s1.85,2.21,2.74,3.21l.45-5.79a16.22,16.22,0,0,0,.09-2c0-.59,0-1.13,0-1.68.27-.08.49-.17.68-.21s.35-.11.48-.17.29-.11.45-.19a4.86,4.86,0,0,0,.68-.37l2.59,5.89c.07.16.17.35.3.66a51,51,0,0,0,2.58,5.34,9.22,9.22,0,0,0-1,.31c-.25.06-.43.16-.62.2a5.53,5.53,0,0,0-.6.28c-.23.08-.53.25-.9.41-.34-.94-.82-2.14-1.44-3.54a.34.34,0,0,0-.1-.24l-1.85-4.16c-.12,1.58-.25,3.21-.33,4.75s-.15,3.19-.17,4.75c-.12,0-.23,0-.31.09a.76.76,0,0,1-.31.09.84.84,0,0,1-.37.18.72.72,0,0,1-.24.1c-1-1.18-1.95-2.34-2.94-3.39s-2-2.24-3-3.34l1.21,5.16c.09.41.21.88.35,1.45s.34,1.09.5,1.69c-.27.08-.51.1-.66.16a1.05,1.05,0,0,1-.34.11,1.65,1.65,0,0,1-.32.14c-.1,0-.27.17-.51.28" transform="translate(-328.1 -186.21)"/><path class="cls-22" d="M466.55,391.4c-.37-.79-.75-1.59-1.17-2.39s-.87-1.67-1.42-2.71l-.37-.65c-.69-1.22-1.28-2.27-1.79-3.13s-1-1.62-1.53-2.41c.48-.28.8-.46,1-.57a4.48,4.48,0,0,0,.47-.25c.15-.07.31-.23.5-.35s.46-.37.83-.68c.23.43.42.88.68,1.32s.45.92.7,1.41l1,1.79c.25-.14.57-.37,1-.62.58-.33,1-.57,1.08-.65.37-.24,1-.68,1.86-1.28a1.7,1.7,0,0,0,.28-.23l-1-1.78c-.23-.41-.47-.82-.73-1.26s-.54-.86-.84-1.28l0,0c.78-.44,1.27-.69,1.47-.82s.67-.47,1.3-1l.05-.07c.41.85.85,1.72,1.26,2.58s1,2,1.77,3.21l.29.61c.6,1.08,1.1,1.93,1.56,2.69s.93,1.48,1.41,2.22a5.8,5.8,0,0,0-.86.49c-.24.14-.44.22-.6.34s-.37.23-.56.38-.48.38-.85.64c-.19-.49-.4-.9-.61-1.33s-.43-.84-.63-1.19l-1.66-3c-.44.23-.83.51-1.2.74s-.7.42-1,.62l-.82.54c-.33.24-.7.5-1.17.86l1.63,2.92c.23.45.49.86.74,1.26s.52.79.75,1.15a8,8,0,0,0-.9.49,4.35,4.35,0,0,0-.6.37,3.37,3.37,0,0,0-.55.4,5.07,5.07,0,0,0-.8.59" transform="translate(-328.1 -186.21)"/></svg>