<?xml version="1.0" encoding="utf-8"?>
<!-- Generator: Adobe Illustrator 19.0.1, SVG Export Plug-In . SVG Version: 6.00 Build 0)  -->
<svg version="1.1" id="Foreground" xmlns="http://www.w3.org/2000/svg" xmlns:xlink="http://www.w3.org/1999/xlink" x="0px" y="0px"
	 viewBox="0 0 100 100" style="enable-background:new 0 0 100 100;" xml:space="preserve">
<style type="text/css">
	.st0{fill:none;stroke:#BE2A2E;stroke-width:0.5823;stroke-miterlimit:3.8637;}
	.st1{fill:#BE2A2E;}
	.st2{fill-rule:evenodd;clip-rule:evenodd;fill:#BE2A2E;}
	.st3{fill:none;stroke:#BE2A2E;stroke-width:1.7444;stroke-miterlimit:3.8637;}
	.st4{fill-rule:evenodd;clip-rule:evenodd;fill:#FFFFFF;}
	.st5{fill:none;stroke:#BE2A2E;stroke-width:0.1749;stroke-miterlimit:3.8637;}
	.st6{fill:none;stroke:#BE2A2E;stroke-width:0.6532;stroke-miterlimit:3.8637;}
</style>
<g>
	<g>
		<circle class="st0" cx="50" cy="50" r="49"/>
	</g>
	<path class="st1" d="M58.7,26.8c-0.1-1.5-1.1-2.7-2.6-2.8c-1.5-0.1-2.7,1-2.7,2.5c0,1.5-0.4,19-0.3,19.6c0,0.6-1.1,0.8-1.1,0.1
		c0-0.7-0.1-22.9-0.1-23.8c0.1-1.5-0.9-2.5-2.4-2.5c-1.5-0.1-2.3,0.8-2.5,2.3c-0.1,1-0.2,23.6-0.3,24.4c0,0.8-1.3,0.6-1.2-0.1
		c0-0.6,0.3-19.5,0.3-20.5c0-1.4-1-2.5-2.4-2.6c-1.4-0.1-2.4,1-2.6,2.3c-0.2,1.1-0.5,21-0.5,21.7c0,0.8-1.3,0.9-1.2,0.1
		c0-0.9,0.1-13.9,0.2-14.9c0-1.3-0.9-2.4-2.2-2.4c-1.3-0.1-2.5,0.9-2.4,2.2c0,1.4-1.1,15.7-1.1,26.3c0,10.1,8.2,21.1,15.5,20.8
		c6.3-0.2,16.1-10.8,16.5-14.7c0.2-1.9,3.4-17.3,4.5-19s-0.7-1.8-1.4-1.9c-3.6-0.1-5.8,2.2-7,7.8c-0.3,1.6-2.6,4.1-4.2,5.7
		c-0.8,0.8-3.1,1.7-4,1.7c0,0,2.2-1.4,3.5-2.8c1.1-1.1,1.7-2.7,1.8-3.3C59.1,50.8,58.8,28.2,58.7,26.8z"/>
	<g>
		<path class="st2" d="M13.2,28.1l-0.1,0.2c-0.1,0.3-0.2,0.5-0.3,0.7c-0.1,0.3-0.3,0.4-0.4,0.7L12.2,30l0.2,0
			c0.5,0.1,0.7,0.2,1.1,0.4c0.5,0.2,0.7,0.3,1.2,0.6l1,0.5c0.6,0.3,1,0.6,1.5,1c0.4,0.2,0.6,0.4,1,0.7l0.2,0.2l0.1-0.3
			c0.1-0.2,0.1-0.3,0.2-0.5c0.2-0.3,0.3-0.5,0.5-0.8l0.1-0.2l-0.3-0.1c-0.1,0-0.7-0.3-1.1-0.5c-0.4-0.2-1.1-0.5-1.1-0.5l-2.1-1.2
			c-0.3-0.2-0.5-0.3-0.8-0.5c-0.3-0.2-0.4-0.3-0.6-0.5L13.2,28.1z M11.2,27c-0.1,0.3-0.2,0.4-0.3,0.7c-0.1,0.2-0.2,0.3-0.3,0.5
			c0.3,0.2,0.4,0.4,0.7,0.6c0.3,0.2,0.4,0.4,0.7,0.7c0-0.1,0.1-0.2,0.1-0.3c0.1-0.1,0.1-0.2,0.2-0.3c-0.3-0.3-0.4-0.6-0.6-0.9
			C11.5,27.5,11.4,27.3,11.2,27z"/>
		<path class="st2" d="M20.4,25.2c0.2-0.2,0.5-0.3,0.8-0.3c0.3,0,0.8,0.1,0.9,0.1l0.3,0c0.4,0.1,1,0.3,1.5,0.3c0.4,0,0.7-0.2,1-0.5
			l0.2-0.2c0.1-0.1,0.3-0.3,0.5-0.6c0.1-0.2,0.3-0.5,0.3-0.6l0-0.1l-0.2,0.1c-0.1,0-0.3,0.2-0.6,0.2c-0.4,0.1-1.1,0-1.1,0l-0.4-0.1
			c-0.1,0-0.8-0.2-1.3-0.2c-0.2,0-0.4,0.1-0.5,0.1c-0.1,0-0.2,0.1-0.2,0c-0.1-0.1,0-0.2,0-0.3l0.1-0.3c0-0.2,0.1-0.5,0-0.8
			c-0.1-0.5-0.2-0.8-0.6-1.1l-0.2-0.2c-0.3-0.3-0.6-0.3-1-0.3c-0.5,0-0.8,0.2-1.2,0.6l-0.4,0.4c-0.6,0.6-0.7,1-1.2,1.6
			c-0.5,0.5-0.8,0.8-1.2,1.2l-0.2,0.2l0.3,0.1c0.1,0,0.4,0.1,0.7,0.2c0.6,0.3,1.3,1.1,1.4,1.1l0.6,0.6c0.4,0.4,0.7,0.6,1.1,1
			c0.6,0.6,1,1,1.4,1.5l0.1,0.2l0.2-0.3c0,0,0.2-0.3,0.3-0.4c0.2-0.3,0.6-0.6,0.6-0.6l0.2-0.2l-0.2-0.1c-0.4-0.2-0.5-0.3-0.9-0.5
			c-0.5-0.3-1.1-0.9-1.2-0.9L20,25.6L20.4,25.2z M19.4,25l-0.9-0.8c0,0-0.3-0.3-0.4-0.8c-0.1-0.4,0.1-0.7,0.2-0.8l0.1-0.2
			c0,0,0.5-0.4,0.9-0.4c0.3,0,0.6,0.3,0.6,0.3l0.2,0.2c0.2,0.2,0.4,0.8,0.4,1.3c-0.1,0.5-0.6,1.2-0.6,1.2l-0.2,0.2L19.4,25z"/>
		<path class="st2" d="M44,7.7C43.8,7.8,43.5,8,43.4,8L43,8c-0.6,0.1-1.8,0.6-2.4,1.5c-0.6,0.8-0.8,1.8-0.7,2.5l0.1,0.4
			c0.1,0.6,0.4,1.3,1,1.8c0.7,0.7,1.6,1,2.3,0.9L44,15c0.2,0,0.3-0.1,0.5-0.1c0.2-0.1,0.4-0.2,0.4-0.2l0.6-0.1
			c0.6-0.1,1.7-0.6,2.3-1.4c0.6-0.8,0.9-1.7,0.7-2.5l-0.1-0.5c-0.1-0.4-0.5-1.4-1.1-1.9c-0.7-0.6-1.7-0.8-2.2-0.7l-0.6,0.1
			C44.5,7.6,44.2,7.7,44,7.7z M45.8,9.1c0.5,0.4,0.9,1.1,0.9,1.6l0.1,0.4c0.1,0.8-0.1,1.3-0.5,1.9c-0.4,0.6-1.3,1.1-1.6,1.2l-0.2,0
			c-0.5,0.1-1.2-0.1-1.7-0.5c-0.5-0.4-0.9-1.1-1-1.4l-0.1-0.7c0-0.2,0.1-1.1,0.4-1.7c0.4-0.7,1-1.2,1.5-1.3l0.1,0
			C44.3,8.5,45.2,8.6,45.8,9.1z"/>
		<path class="st2" d="M61.4,9.1C61,8.7,60.3,8.4,60,8.4l-0.9-0.2c-0.3-0.1-0.4,0-0.7,0c-0.2,0-0.3,0.1-0.4,0l-0.2,0
			c-0.7-0.2-2-0.2-3,0.5c-0.9,0.6-1.4,1.6-1.5,2.2l-0.1,0.4c0,0-0.2,1.1,0.1,1.7c0.3,0.9,0.8,1.6,2.4,2l0.2,0c0.1,0,0.5,0,0.7,0.1
			c0.1,0,0.2,0.1,0.4,0.1l0.3,0.1c0,0,0.3,0,0.5,0c0.2,0,0.4,0,0.6,0l0.8,0.2c0.2,0,0.4,0.1,0.6,0.2c0.3,0.1,0.4,0.1,0.7,0.2
			l0.3,0.1l-0.1-0.2c0,0-0.2-0.4-0.2-0.7c0-0.3-0.1-0.4,0-0.7l0.1-0.4c0-0.1,0.1-0.5,0.2-0.7c0.1-0.3,0.2-0.4,0.3-0.7l0.1-0.2
			l-0.2,0c0,0-0.4-0.1-0.6-0.1c-0.2,0-0.6-0.1-0.6-0.1l-0.4-0.1l0,0.7l-0.1,0.6c-0.1,0.5-0.3,0.9-0.8,1.2c-0.5,0.3-1.4,0.2-1.5,0.2
			l-0.2,0c-0.3,0-1.2-0.6-1.5-1.2c-0.3-0.5-0.4-1.4-0.3-1.7l0.1-0.3c0-0.2,0.3-1.2,1-1.8c0.6-0.4,1.5-0.7,2-0.6l0.2,0
			c0,0,0.6,0.2,1,0.3c0.4,0.2,0.6,0.5,0.7,0.7l0.1,0.3l0.2,0c0.3,0,0.4,0,0.7,0c0.3,0,0.5,0.1,0.9,0.1l0.2,0l0-0.2
			C61.9,10.1,61.7,9.5,61.4,9.1z"/>
		<path class="st2" d="M68.2,14l0.1-0.3c0.1-0.2,0.3-0.5,0.5-0.8c0.2-0.3,0.5-0.6,0.7-0.7l0.1-0.1L69.3,12c-0.3-0.1-0.4-0.2-0.7-0.4
			c-0.3-0.1-0.4-0.2-0.7-0.4L67.7,11l-0.1,0.2c-0.1,0.3-0.2,0.7-0.4,1.2c-0.2,0.5-0.6,1.2-0.7,1.3l-0.5,0.9c-0.3,0.6-0.5,1-0.9,1.6
			c-0.3,0.4-0.4,0.6-0.7,1l-0.2,0.2l0.3,0.1c0.2,0.1,0.3,0.1,0.5,0.2c0.3,0.2,0.5,0.3,0.8,0.5l0.2,0.1l0.1-0.3
			c0-0.1,0.2-0.7,0.4-1.1c0.2-0.4,0.5-1.1,0.5-1.1l0.2-0.4l0.3,0.2l2.4,1.3l0.4,0.2l-0.2,0.3c0,0.1-0.4,0.7-0.7,1.1
			c-0.2,0.4-0.5,0.7-0.6,0.9l-0.2,0.3l0.3,0.1c0.2,0.1,0.3,0.2,0.5,0.3c0.3,0.2,0.5,0.3,0.7,0.4l0.4,0.2l0-0.4
			c0-0.1,0.2-0.8,0.4-1.2c0.2-0.4,0.6-1.1,0.6-1.2l0.5-0.9c0-0.1,0.4-0.8,0.8-1.3c0.3-0.5,0.4-0.8,0.9-1.1l0.2-0.1l-0.4-0.2
			c-0.3-0.1-0.4-0.2-0.7-0.3c-0.3-0.2-0.6-0.4-0.7-0.4L72,13.4l0,0.2c-0.1,0.5-0.1,0.6-0.3,1.2c-0.3,0.8-0.4,0.9-0.4,0.9L71,16.2
			L70.7,16l-2.3-1.3l-0.5-0.3L68.2,14z"/>
		<path class="st2" d="M78,25c0,0-0.3,0.5-0.5,0.7C77.3,26,77,26.4,77,26.5l-0.1,0.2l0.2,0.2c0.2,0.2,0.4,0.3,0.5,0.5
			c0.3,0.3,0.3,0.5,0.6,0.8l0.1,0.1l0.2-0.7c0.2-0.6,0.7-1.9,1.3-3.1c0.6-1.2,1.7-2.9,1.7-2.9l0.2-0.2l-0.2-0.2
			c-0.2-0.2-0.4-0.4-0.6-0.6c-0.2-0.3-0.6-0.7-0.6-0.7l-0.2-0.3l0,0.2C80,20,80,20.3,79.8,20.5c-0.2,0.2-0.5,0.3-0.5,0.3l-0.4,0.2
			c-0.8,0.4-1.3,0.6-2.2,0.9c-1,0.4-2.7,1-2.7,1l-0.5,0.2l0.1,0.2c0.2,0.1,0.3,0.2,0.4,0.4c0.2,0.2,0.3,0.3,0.4,0.5l0.1,0.1l0.2-0.2
			c0,0,0.6-0.2,0.9-0.4c0.2-0.1,0.6-0.3,0.7-0.3l0.3-0.1l0.1,0.1l1.2,1.3l0.1,0.1L78,25z M77.4,22.8l0.2-0.1
			c0.1-0.1,0.5-0.2,0.8-0.3c0.3-0.2,0.8-0.3,0.9-0.4l0.3-0.1l-0.1,0.3c0,0-0.3,0.5-0.4,0.8c-0.1,0.3-0.2,0.5-0.4,0.8L78.5,24
			L77.4,22.8z"/>
		<path class="st2" d="M87.1,28.8l-0.2-0.2c-0.2-0.2-0.3-0.4-0.5-0.7c-0.2-0.3-0.2-0.4-0.4-0.7L86,27.1l-0.1,0.1
			c-0.3,0.3-0.6,0.5-1,0.8c-0.4,0.3-0.7,0.5-1.1,0.7l-1,0.6c-0.6,0.4-1,0.5-1.6,0.8c-0.4,0.2-0.7,0.3-1.1,0.5l-0.3,0.1l0.2,0.3
			c0.1,0.2,0.2,0.3,0.3,0.5c0.2,0.3,0.3,0.5,0.5,0.8l0.1,0.2l0.2-0.2c0.1,0,0.6-0.5,1-0.7c0.4-0.3,1-0.7,1-0.7l2.1-1.3
			c0.3-0.2,0.5-0.3,0.9-0.5c0.3-0.1,0.5-0.2,0.8-0.3L87.1,28.8z"/>
		<path class="st2" d="M86.6,40c0-0.1,0.9-1.3,1.4-2.1c0.6-1,1.6-2.4,1.6-2.5l0.3-0.3l-0.1-0.4c-0.1-0.3-0.2-0.4-0.3-0.7
			c-0.1-0.4-0.2-0.9-0.2-0.9l-0.1-0.2L89.1,33c-0.1,0.2-0.2,0.3-0.3,0.4c-0.3,0.4-0.6,0.5-1.1,0.6l-2.2,0.7c0,0-1.3,0.4-2,0.5
			c-0.3,0-0.7-0.2-0.8-0.2L82.5,35l0.1,0.4c0.1,0.2,0.2,0.4,0.2,0.6c0.1,0.3,0.1,0.5,0.2,0.9l0.1,0.3l0.3-0.2
			c0.1-0.1,0.2-0.1,0.3-0.2c0.2-0.1,0.3-0.2,0.5-0.2l3.1-1l0.4-0.1l-0.2,0.4c0,0-0.8,1.1-1.2,1.8c-0.6,1-1.2,1.8-1.7,2.7l-0.3,0.4
			l0.2,0.4c0.1,0.1,0.1,0.3,0.2,0.5c0.1,0.3,0.1,0.6,0.3,0.9l0.1,0.4l0.1-0.2c0.1-0.2,0.2-0.3,0.4-0.4c0.3-0.3,1.1-0.6,1.1-0.6
			l2.3-0.8c0.2-0.1,1.2-0.4,1.8-0.4c0.3,0,0.8,0.2,0.8,0.3l0.3,0.1l-0.1-0.3c-0.1-0.3-0.2-0.5-0.3-0.9c-0.1-0.3-0.1-0.6-0.2-0.8
			l-0.1-0.3l-0.2,0.1c-0.3,0.1-0.4,0.2-0.6,0.3c-0.5,0.2-0.7,0.4-1.2,0.5l-2.7,0.9L86.6,40z"/>
	</g>
	<path class="st2" d="M16,65.5l0.1-0.3c0.1-0.3,0.2-0.7,0.3-1.1c0.1-0.5,0-1.3,0-1.3l-0.3-0.9c0-0.1-0.1-0.2-0.2-0.3
		c-0.1-0.2-0.2-0.2-0.2-0.4l-0.1-0.3c-0.2-0.7-0.9-1.9-2-2.4c-0.9-0.5-2.1-0.5-2.7-0.3l-0.4,0.1c0,0-1.1,0.4-1.6,0.9
		c-0.8,0.9-1.1,2.1-0.8,3L8.5,63c0.1,0.2,0.1,0.2,0.2,0.4c0.1,0.4,0.2,0.6,0.3,0.9l0.2,0.5c0.1,0.3,0.2,0.5,0.3,0.8
		c0.1,0.3,0.2,0.5,0.3,0.7l0.1,0.2l0.2,0c0.1,0,0.5-0.1,0.8-0.1c0.4,0,0.8,0,0.9,0l0.3,0l-0.1-0.1c-0.1-0.1-0.9-0.8-1.4-1.4
		c-0.5-0.6-1.1-1.5-1.2-1.7l0-0.1c-0.2-0.6,0-1.6,0.4-2.1c0.4-0.5,1-1,1.4-1.1l0.2-0.1c0.4-0.1,1.3-0.3,2.1,0
		c0.8,0.3,1.5,0.9,1.6,1.4l0.1,0.4c0,0.1,0.1,0.7,0,1.1c0,0.4-0.1,0.7-0.3,1L14.7,64l0.1,0.1c0.2,0.2,0.3,0.3,0.5,0.5
		c0.2,0.2,0.3,0.4,0.5,0.7L16,65.5z"/>
	<path class="st2" d="M17.6,70.6c-0.2-0.1-0.4-0.3-0.4-0.4L17,70c-0.1-0.2-0.9-0.9-1.6-1.1c-0.6-0.1-1.3,0-1.6,0.1l-0.6,0.4
		c-0.5,0.3-1,1.1-0.9,2c0.1,0.9,0.6,1.3,1.2,1.9l0.2,0.2l0.1,0.2c0.1,0.1,0.8,0.8,1.4,1c0.6,0.2,1.2,0.2,1.8-0.1l0.5-0.3
		c0.1-0.1,0.8-0.7,0.9-1.3c0.2-0.6-0.1-1.4-0.2-1.6l-0.1-0.2C18.1,71.1,17.8,70.8,17.6,70.6z M13.7,71.4c0.1-0.4,0.4-0.7,0.6-0.8
		l0.2-0.1c0.3-0.2,0.7-0.3,1.2-0.3c0.5,0,1,0.4,1.1,0.6l0.1,0.1c0.1,0.1,0.3,0.7,0.2,1.1c-0.1,0.5-0.3,0.9-0.8,1.1l-0.1,0.1
		c-0.3,0.2-0.8,0.3-1.2,0.2c-0.4-0.1-0.9-0.2-1-0.4l-0.2-0.4C13.7,72.4,13.6,71.8,13.7,71.4z"/>
	<path class="st2" d="M22.4,82.1c0,0,0.6-0.1,0.9-0.2c0.4-0.2,0.8-0.5,0.9-0.6l0.3-0.3c0.3-0.3,0.6-1,0.4-1.6
		c-0.1-0.3-0.5-0.7-0.5-0.8l-0.1-0.1c0,0-0.3-0.3-0.5-0.4c-0.3-0.2-0.7-0.5-0.8-0.5l-0.1-0.1c-0.2-0.2-0.2-0.2-0.4-0.3
		c-0.1-0.1-0.3-0.1-0.4-0.2c-0.1,0-0.2-0.1-0.2-0.2c0-0.1,0.1-0.1,0.1-0.1l0.2-0.3l-0.2-0.1c-0.3-0.1-0.4-0.3-0.6-0.4
		c-0.3-0.2-0.7-0.6-0.7-0.6l-0.3-0.3l-0.1,0.2c-0.1,0.3-0.1,0.5-0.2,0.8c-0.2,0.4-0.3,0.6-0.6,0.9l-0.4,0.4
		c-0.1,0.1-0.6,0.6-0.9,0.8c-0.3,0.2-0.7,0.5-0.8,0.5l-0.2,0.1l0.3,0.2c0.2,0.2,0.3,0.3,0.5,0.4c0.2,0.2,0.4,0.5,0.5,0.5l0.1,0.2
		c0.1-0.2,0.2-0.3,0.3-0.5c0.1-0.1,0.1-0.2,0.3-0.3l0.6-0.6c0.2-0.2,0.6-0.4,1.2-0.6c0.7-0.2,1.6,0,1.8,0.2l0.1,0.1
		c0.1,0.1,0.3,0.5,0.3,0.8c0,0.3-0.2,0.7-0.3,0.8l-0.2,0.2c-0.2,0.2-1,0.5-1.7,0.6c-0.6,0.1-1.6-0.1-1.7-0.1l-0.2,0l0.2,0.2
		c0.1,0.1,0.2,0.2,0.4,0.3c0.3,0.2,0.5,0.4,0.7,0.6l0.4,0.4c0,0,0.3,0.3,0.5,0.5c0.1,0.1,0.2,0.2,0.3,0.4l0.2,0.2l0.2-0.1
		c0.1-0.1,0.2-0.1,0.4-0.2c0.2-0.1,0.5-0.1,0.6-0.1l0.2-0.1l-0.2-0.1c-0.2-0.1-0.3-0.1-0.5-0.2c-0.1,0-0.3-0.1-0.3-0.1l-0.3-0.3
		L22.4,82.1z"/>
	<path class="st2" d="M28.4,81.9L28,81.6l-0.5-0.3c-0.2,0.1-0.3,0.2-0.4,0.4c-0.1,0.2-0.2,0.3-0.4,0.5l0.5,0.2l0.2,0.1l-0.1,0.1
		c-0.1,0.1-0.3,0.3-0.4,0.4c-0.1,0.1-0.3,0.3-0.3,0.4l-0.2,0.4c0,0-0.4,0.8-0.5,1.3c-0.1,0.6,0,1.1,0.5,1.4l0.1,0.1
		c0.1,0.1,0.2,0.1,0.3,0.2c0.1,0.1,0.2,0.2,0.3,0.2l0.9,0.5l0.7,0.4l0.1-0.2c0-0.1,0.3-0.2,0.4-0.4c0.2-0.2,0.5-0.3,0.6-0.4l0.2-0.1
		l-0.2,0c0,0-0.6,0-0.9,0c-0.4,0-0.9-0.1-1-0.1l-0.2-0.1c-0.2-0.1-0.3-0.6-0.2-1.1c0.1-0.4,0.3-0.9,0.3-0.9l0.3-0.5
		c0.1-0.2,0.2-0.3,0.4-0.4c0.1-0.1,0.2-0.1,0.3-0.2l0.1-0.1l0.1,0.1l0.9,0.6l0.8,0.5c0.2-0.1,0.3-0.2,0.5-0.4
		c0.2-0.2,0.4-0.2,0.6-0.4l-0.2-0.1c-0.1,0-0.4-0.2-0.7-0.3c-0.3-0.1-0.7-0.4-0.7-0.4L30,82.9l0.3-0.1c0,0,0.6-0.2,0.9-0.2
		c0.5-0.1,1.2-0.1,1.2-0.1l0.2,0l-0.3-0.2c0,0-0.7-0.4-1.2-0.6c-0.4-0.2-0.6-0.3-0.9-0.5L30,81.1l-0.1,0.1c-0.3,0.1-0.4,0.2-0.7,0.3
		c-0.3,0.1-0.7,0.4-0.7,0.4L28.4,81.9z"/>
	<path class="st2" d="M34,89.1C33.8,88.7,34,88,34,88l0.1-0.2c0.1-0.3,0.4-0.6,0.8-0.8c0.4-0.3,1.1-0.4,1.3-0.4l0.1,0.1
		c0.2,0.1,0.4,0.3,0.6,0.5c0.2,0.3,0.3,0.8,0.3,0.9l0,0.2c0,0.1-0.5,0.8-1,1.1c-0.5,0.4-1.3,0.5-1.5,0.5l-0.1,0
		C34.3,89.7,34.1,89.4,34,89.1z M35.8,91.1l0.1,0c0.2,0.1,0.4,0.1,0.6,0.2c0.3,0.1,0.5,0.2,0.8,0.3l0.2,0.1l0-0.2
		c0-0.2,0.1-0.3,0.1-0.5c0.1-0.4,0.2-0.9,0.3-1l0.2-0.6c0.2-0.5,0.3-0.8,0.6-1.2c0.2-0.4,0.4-0.7,0.7-1.1l0.1-0.2l-0.1,0
		c-0.1,0-0.4,0-0.6,0c-0.1,0-0.2,0-0.3,0l-0.3,0c0,0-0.2-0.2-0.3-0.2c-0.2-0.2-0.5-0.3-0.6-0.4l-0.5-0.2L36.4,86l-0.6-0.2
		c-0.3-0.1-1.1-0.2-1.8,0.1c-0.7,0.3-1.2,0.9-1.4,1.4l-0.2,0.3c-0.2,0.4-0.3,1.2,0.1,1.8c0.2,0.5,0.5,0.7,1,0.9l0.2,0.1
		c0.1,0.1,0.3,0.1,0.4,0.1c0.2,0,0.4,0,0.5,0.1l0.5,0.2c0.1,0,0.2,0,0.3,0c0.1,0,0.2,0,0.3,0l0.2,0L35.8,91.1z"/>
	<path class="st2" d="M43.4,89.7l-0.3,0l0.1-0.3c0-0.1,0.3-0.3,0.5-0.5c0.3-0.1,0.7-0.3,0.7-0.3l0.2,0c0.1,0,0.6,0.2,0.8,0.5
		c0.1,0.2,0.2,0.4,0.2,0.5l0,0.2l-0.1,0.2L43.4,89.7z M44.8,90.6c0.9,0.1,0.7,0,1.1,0.1c0.4,0.1,0.5,0.1,0.9,0.2l0.2,0.1l0.3-0.7
		l0.1-0.4c0-0.3-0.1-0.7-0.4-1.1c-0.3-0.5-1.1-0.7-1.4-0.8l-0.4-0.1l-0.4,0c-1.1,0-1.7-0.1-2.5,0.4c-0.7,0.5-1.2,1.1-1.3,1.8
		L41,90.7c-0.1,0.4,0,0.9,0.3,1.3c0.4,0.6,1,0.8,1.7,0.9l0.5,0.1c0.2,0,0.3,0,0.5,0c0.2,0,0.3,0.1,0.5,0.1l1.3,0.2l0.3,0l0.1-0.2
		c0.1-0.2,0.2-0.4,0.4-0.6c0.2-0.3,0.6-0.9,0.6-0.9l0.1-0.2l-0.2,0.1c-0.5,0.2-0.8,0.4-1.3,0.5c-0.5,0.2-1.3,0.3-1.4,0.3l-0.3,0
		c-0.1,0-0.8-0.2-1.1-0.6c-0.2-0.3-0.3-1.1-0.2-1.1l0-0.3L44.8,90.6z"/>
	<path class="st2" d="M56,85.5l-0.3,0.1c0,0-0.5,0.2-0.8,0.2C54.5,85.9,54,86,54,86l-0.3,0l0.2,0.2c0.1,0.1,0.2,0.2,0.3,0.3
		c0.1,0.2,0.2,0.3,0.3,0.6l1,4.9c0,0.1,0.3,0.5,0.6,0.7c0.4,0.2,0.9,0.3,1.2,0.2l0.7-0.2c0.3-0.1,0.5-0.2,0.8-0.4
		c0.4-0.2,0.8-0.5,0.9-0.5l0.3-0.1c0.1,0,0.2-0.1,0.3-0.1c0.1-0.1,0.2-0.1,0.2-0.2c0.1,0,0.2-0.2,0.2-0.1c0.1,0,0.1,0.1,0.1,0.2
		l0.1,0.5l0.2-0.1c0.1,0,0.4-0.2,0.7-0.2c0.3-0.1,0.4,0,0.7-0.1l0.5-0.1l-0.2-0.2c-0.2-0.2-0.3-0.4-0.4-0.6c-0.2-0.4-0.3-1-0.3-1.1
		l-0.5-2.1c0-0.1-0.2-1.1-0.3-1.8c0-0.5-0.1-0.8-0.1-1.3l0-0.2l-0.3,0.1c-0.3,0.1-0.5,0.1-0.7,0.2c-0.3,0.1-0.4,0.1-0.7,0.1
		l-0.3,0.1l0.1,0.2c0.1,0.2,0.2,0.3,0.2,0.6c0.2,0.5,0.3,0.8,0.4,1.4l0.1,0.4c0,0,0.5,1.8,0.1,2.8c-0.3,0.7-0.7,1.3-1.3,1.4
		l-0.5,0.1c-0.4,0.1-0.7,0-1-0.4c-0.3-0.4-0.5-1.2-0.5-1.3l-0.3-1.6c0-0.1-0.1-1-0.3-1.7c-0.1-0.4,0-1.1,0-1.1L56,85.5z"/>
	<path class="st2" d="M65.4,85.1l-0.2,0.2c-0.1,0-0.3,0.2-0.4,0.3c-0.2,0.1-0.5,0.3-0.5,0.3l-1.2,0.5l0.3,0.1c0.1,0,0.4,0.1,0.7,0.3
		c0.3,0.2,0.5,0.4,0.6,0.8l0.5,1.4c0.1,0.3,0.2,0.6,0.3,0.9c0,0.2,0.1,0.6,0.1,0.6l0,0.2l0.3-0.1c0.2-0.1,0.4-0.2,0.6-0.3
		c0.3-0.1,0.6-0.2,0.7-0.3l0.4-0.1l-0.3-0.3c0,0-0.4-0.7-0.6-1.1c-0.2-0.5-0.5-1.2-0.6-1.2l-0.3-0.7c0-0.1-0.2-0.4-0.2-0.7
		c0-0.1,0-0.2-0.1-0.4L65.4,85.1z"/>
	<path class="st2" d="M77.6,80.3c-0.1,0-1.6-0.3-2.6-0.6c-1.2-0.2-3-0.6-3-0.6L71.5,79l-0.3,0.3c-0.2,0.2-0.3,0.3-0.6,0.5
		c-0.3,0.2-0.8,0.6-0.8,0.6l-0.2,0.1l0.2,0.1c0.2,0,0.3,0.1,0.5,0.1c0.5,0.2,0.7,0.4,1.1,0.8l1.5,1.9c0,0,0.9,1.1,1.3,1.7
		c0.2,0.3,0.1,0.8,0.1,0.9l0,0.2l0.3-0.3c0.2-0.2,0.3-0.3,0.5-0.5c0.3-0.2,0.5-0.3,0.7-0.6l0.3-0.2L76,84.5
		c-0.1-0.1-0.2-0.1-0.3-0.2c-0.2-0.1-0.3-0.3-0.4-0.4l-2.2-2.6l-0.3-0.4l0.5,0.1c0,0,1.3,0.3,2.2,0.5c1.2,0.2,2.2,0.4,3.2,0.7
		l0.5,0.1l0.3-0.3c0.1-0.1,0.2-0.2,0.4-0.4c0.3-0.2,0.5-0.4,0.8-0.6l0.3-0.3l-0.3,0c-0.2,0-0.4-0.1-0.6-0.2c-0.4-0.2-1-0.8-1-0.8
		l-1.6-1.9c-0.1-0.2-0.8-1-1.1-1.6c-0.1-0.3-0.1-0.8-0.1-0.9l0-0.3l-0.2,0.2c-0.3,0.3-0.4,0.4-0.7,0.7c-0.2,0.2-0.5,0.4-0.7,0.5
		l-0.3,0.2l0.2,0.2c0.2,0.2,0.4,0.3,0.6,0.5c0.4,0.4,0.6,0.6,1,1l1.9,2.3L77.6,80.3z"/>
	<path class="st2" d="M91.3,63.3c0.1-0.1,0.1-0.2,0.2-0.4c0.1-0.2,0.1-0.5,0.1-0.6l0-0.2l-0.9-0.7l0,0.2c0,0.2,0,0.4,0,0.6
		c0,0.2-0.1,0.6-0.1,0.6l-0.2,0.1L90,62.8L89,62.6l-1.5-0.5c-0.1,0-1-0.4-1.6-0.7c-0.7-0.3-1.3-0.7-1.3-0.7l-0.3-0.1l0,0.3
		c0,0.3-0.1,0.5-0.1,0.8c-0.1,0.2-0.1,0.4-0.2,0.7l-0.1,0.3l0.3,0c0.2,0,0.3,0,0.4,0c0.2,0,0.4,0,0.6,0.1l3,1c0.1,0,0.8,0.3,1.3,0.5
		c0.5,0.2,1,0.5,1.3,0.6l0.3,0.2l0-0.3l0-1.1l0-0.1L91.3,63.3z"/>
	<path class="st2" d="M92.6,58.3c0.1-0.1,0.1-0.3,0.1-0.4c0-0.2,0.1-0.5,0-0.6l-0.1-0.2l-1-0.6l0,0.2c0,0.2,0,0.4,0,0.6
		c0,0.2,0,0.6,0,0.6l-0.1,0.1L91.2,58l-0.9-0.1l-1.6-0.3c-0.2,0-1-0.3-1.6-0.5c-0.7-0.2-1.4-0.5-1.4-0.5l-0.3-0.1l0,0.3
		c0,0.3,0,0.5,0,0.8c0,0.3-0.1,0.4-0.1,0.7l-0.1,0.3l0.3,0c0.2,0,0.3,0,0.4,0c0.2,0,0.4,0,0.6,0l3.1,0.6c0.1,0,0.8,0.2,1.3,0.3
		c0.5,0.1,1.1,0.4,1.3,0.5l0.3,0.2l0-0.3l-0.2-1.1l0-0.1L92.6,58.3z"/>
	<g>
		<circle class="st3" cx="50" cy="50" r="46.4"/>
	</g>
	<g>
		<g>
			<circle class="st1" cx="10.4" cy="49.8" r="3.7"/>
		</g>
		<g>
			<path class="st4" d="M8.2,48c0.3,0.1,0.4,0.1,0.7,0.2c0.8,0.1,2.1,0,4.1-0.4c-0.4,0.2-0.9,0.6-0.9,0.6c-0.9-0.1-2.5,0.6-2.3,2.1
				c0.2,1.2,2,1.5,2.8,0.8c-0.3,0.6-0.8,0.9-1.4,1c-1.1,0.2-2.1-0.5-2.2-1.6c-0.1-0.8,0.3-1.5,1-1.9l-2.6,0.5L8.2,48z"/>
		</g>
	</g>
	<g>
		<g>
			<circle class="st1" cx="89.9" cy="49.8" r="3.7"/>
		</g>
		<g>
			<path class="st4" d="M87.7,48c0.3,0.1,0.4,0.1,0.7,0.2c0.8,0.1,2.1,0,4.1-0.4c-0.4,0.2-0.9,0.6-0.9,0.6c-0.9-0.1-2.5,0.6-2.3,2.1
				c0.2,1.2,2,1.5,2.8,0.8c-0.3,0.6-0.8,0.9-1.4,1c-1.1,0.2-2.1-0.5-2.2-1.6c-0.1-0.8,0.3-1.5,1-1.9l-2.6,0.5L87.7,48z"/>
		</g>
	</g>
	<g>
		<path class="st2" d="M51.1,51.4l-0.7-1.4c0.4-0.1,0.7-0.4,0.7-0.8c0-0.5-0.4-0.8-0.9-0.8H49v3h0.3v-1.3H50l0.7,1.3H51.1z
			 M50.7,49.3c0,0.4-0.2,0.5-0.6,0.5h-0.8v-1.1h0.8C50.5,48.7,50.7,48.9,50.7,49.3z"/>
		<g>
			<circle class="st5" cx="50" cy="49.9" r="2.5"/>
		</g>
	</g>
	<g>
		<path class="st2" d="M5.9,40.9c0.4-0.4,0.7-0.7,1-1.2c1-1.6,2.2-4.3,3.3-8.6c-0.1,1.1,0.2,2.4,0.2,2.4c-1.1,1.8-1.4,5.7,1.9,6.7
			c2.7,0.8,5.1-2.5,4.3-4.9c0.8,1.3,1,2.4,0.6,3.8c-0.7,2.3-3.2,3.8-5.5,3c-1.8-0.6-2.8-2.1-2.8-4l-1.6,5.8L5.9,40.9z"/>
	</g>
	<g>
		<g>
			<path class="st1" d="M35.5,18.8c-1.2,0.7-1.8,0.9-3,0.8c-1.3-0.1-1.8-0.4-2.7-1.1c0,0-0.1-0.1-0.1-0.1c-0.6-0.4-1-1-1.4-1.7
				c-0.4-0.7-0.5-1.4-0.5-2.1c0-0.7,0.2-1.4,0.5-2.1c0.3-0.6,0.7-1.2,1.2-1.7c0.5-0.5,1.1-0.9,1.8-1.3c0.3-0.2,0.8-0.4,1.4-0.5
				c0.6-0.2,1.4-0.3,2.2-0.5L35,9.9c0,0-0.1-0.1-0.3-0.1c-0.3-0.1-0.6-0.2-1-0.2c-0.3,0-0.6,0-0.9,0.1c-0.3,0.1-0.7,0.2-1.1,0.4
				c-0.5,0.3-0.9,0.6-1.3,0.9c-0.3,0.4-0.6,0.8-0.8,1.3c-0.2,0.5-0.2,1-0.2,1.5c0,0.5,0.2,1,0.4,1.6l4.6-2.3l0.4,0.7l-4.5,2.3
				c0.2,0.4,0.4,0.6,0.7,0.9c1.2,0.9,2.3,1.1,3.6,0.5c1.5-0.8,2.6-1.7,3.1-3l0.3,0.4C38.1,14.9,37.3,17.8,35.5,18.8z"/>
		</g>
	</g>
	<g>
		<g>
			<circle class="st6" cx="50" cy="50" r="33.2"/>
		</g>
		<g>
			<circle class="st6" cx="50" cy="50" r="32"/>
		</g>
	</g>
	<g>
		<circle class="st1" cx="44.2" cy="11.4" r="0.5"/>
	</g>
	<g>
		<path class="st2" d="M64.9,82.3c-0.3,0.2-0.5,0.3-0.8,0.4c-0.2,0.1-0.4,0.1-0.7,0.2c0.1,0.4,0.1,0.7,0.2,1.1
			c0.1,0.4,0.1,0.7,0.1,1.2c0.1-0.1,0.2-0.1,0.4-0.2c0.1-0.1,0.2-0.1,0.4-0.1c0-0.5,0.1-0.8,0.1-1.3C64.7,83,64.8,82.7,64.9,82.3z"
			/>
	</g>
	<g>
		<path class="st2" d="M79.4,69.1c-0.2,0.3-0.3,0.5-0.5,0.7c-0.2,0.2-0.3,0.3-0.4,0.5c0.3,0.3,0.4,0.5,0.7,0.8
			c0.3,0.3,0.4,0.5,0.7,0.9c0.1-0.1,0.1-0.2,0.2-0.3c0.1-0.1,0.2-0.2,0.3-0.3c-0.2-0.4-0.4-0.7-0.6-1.2
			C79.6,69.8,79.5,69.5,79.4,69.1z M81.6,74l-0.2,0.3L81.2,74c-0.1-0.1-0.2-0.5-0.2-0.8c0-0.3,0.1-0.8,0.1-0.9l0.1-0.2
			c0,0,0.5-0.5,0.9-0.6c0.2,0,0.6,0,0.6,0l0.1,0.1L83,72L81.6,74z M83.3,73.1c0.6-0.9,0.4-0.6,0.6-1c0.3-0.3,0.4-0.5,0.7-0.7
			l0.2-0.2l-0.5-0.7l-0.4-0.3c-0.3-0.2-0.8-0.3-1.2-0.2c-0.7,0.1-1.3,0.7-1.5,0.9l-0.3,0.4l-0.2,0.4c-0.5,1.1-1,1.6-0.9,2.6
			c0.1,0.9,0.4,1.7,1.1,2.2l0.6,0.4c0.4,0.3,0.9,0.4,1.4,0.4c0.8-0.1,1.3-0.5,1.7-1.2l0.3-0.4c0.1-0.2,0.1-0.3,0.3-0.5
			c0.1-0.2,0.2-0.2,0.4-0.4l0.9-1.2l0.2-0.3L86.5,73c-0.2-0.2-0.3-0.4-0.4-0.7c-0.2-0.4-0.5-1.1-0.5-1.1L85.4,71l0,0.2
			c-0.1,0.6-0.1,1-0.2,1.6c-0.1,0.6-0.4,1.5-0.5,1.6l-0.2,0.3c0,0.1-0.6,0.7-1.1,0.8c-0.5,0.1-1.2-0.3-1.2-0.3L82,74.9L83.3,73.1z"
			/>
		<path class="st2" d="M84.2,65l0,0.3c0,0.1-0.1,0.4-0.1,0.6c-0.1,0.3-0.2,0.6-0.2,0.7l-0.6,1.4l0.4-0.1c0.1,0,0.5-0.2,0.8-0.3
			c0.4,0,0.7,0,1.1,0.2l1.6,0.7c0.4,0.2,0.6,0.3,1,0.6c0.2,0.2,0.5,0.4,0.6,0.5l0.2,0.2l0.1-0.3c0.1-0.3,0.2-0.5,0.3-0.8
			c0.1-0.3,0.3-0.7,0.4-0.8l0.2-0.4l-0.5-0.1c0,0-0.8-0.3-1.3-0.5c-0.6-0.2-1.4-0.6-1.4-0.6l-0.8-0.4c-0.1,0-0.5-0.3-0.8-0.4
			c-0.1-0.1-0.2-0.2-0.3-0.2L84.2,65z"/>
		<g>
			<path class="st2" d="M82.7,66c0.1,0.2,0.1,0.4,0.3,0.6l0.4-0.6c0,0-0.1-0.3-0.1-0.5c0-0.3,0-0.6,0.1-0.7l-0.2-0.1l-0.6,0.7
				C82.6,65.6,82.6,65.7,82.7,66z"/>
		</g>
	</g>
</g>
</svg>
