<?xml version="1.0" encoding="utf-8"?>
<!-- Generator: Adobe Illustrator 19.0.1, SVG Export Plug-In . SVG Version: 6.00 Build 0)  -->
<svg version="1.1" id="Layer_1" xmlns="http://www.w3.org/2000/svg" xmlns:xlink="http://www.w3.org/1999/xlink" x="0px" y="0px"
	 viewBox="0 0 100 100" style="enable-background:new 0 0 100 100;" xml:space="preserve">
<style type="text/css">
	.st0{fill:#3A89C9;}
	.st1{fill:#619869;stroke:#000000;stroke-width:0.4311;}
	.st2{fill:#ED1C24;}
	.st3{fill:#FFFFFF;stroke:#000000;stroke-width:0.4311;}
	.st4{fill:none;stroke:#000000;stroke-width:0.4311;}
	.st5{fill:#FFFFFF;}
	.st6{fill:#00B9F2;}
</style>
<g>
	<path d="M50,99c11.1-6.8,32.8-21.4,33.5-53.5c-0.1,0.1,0-32.3,0-32.3h-68v34.5C18.2,77.3,36.4,91,50,99z"/>
	<polygon class="st0" points="80,16.8 20,16.8 19.6,39.8 23.7,39.4 28.4,36.7 32.7,26.9 32.7,26.9 33.9,25.8 36.2,26.6 36.2,25.2 
		38.5,25.9 40.1,25.2 52.4,26.1 57.6,26.1 62.1,26.5 65.8,26.3 70.1,26.5 74.3,26 77.2,26.5 78.1,25.9 80,25.6 	"/>
	<path class="st1" d="M79.2,30.1l-0.8,1l0.3,1.4l-0.4,0.3l0.2,0.7l-0.7,0.8l0.2,1c0,0-0.4,1.1-0.4,3c0.7,1.8-0.8,10.2-2.3,9.5
		c1.1-0.8,0.6-3.2,1.5-5c0.6-2,0-4,0.2-5.4v-0.8l-0.2-0.9l0.3,0.1l0.2-0.8l-0.5-0.4l0.3-2l0.5-0.1l-0.1-1.1l0.4-0.7l-0.1-0.6
		l0.3-0.9h0.4l0.8-1.3l0.9-0.2l0.1-2.2l-2.5,0.4l-1,0.6L74.3,26l-3.7-0.1H66l-3.1,0.2l-3.6-0.6h-3.4l-3.4-0.4l-8.1,0.2l-0.6-0.6
		l-1.7,0.2l-1.3-0.1l-1.7,0.7l-0.6-0.3h-1.9l-0.1,0.9c0,0-1.9-0.4-2.2-0.3c-0.2,0.7-0.6,1.3-1.1,1c-1.1,0.8-4,9.4-4.4,9.5
		c-0.4,0.1-4.7,3.1-4.7,3.1s-1.2,0.5-4,0.1l0.4,11.3h59.1l0.8-21L79.2,30.1z M77.3,28.3l0.7-0.8l-0.4,1.3v0.6h-0.3L77,28.9
		L77.3,28.3z M77,31l-0.9,1.2l0.1,1l-0.3,0.2L75.8,33v-1.3l0.4-0.4v-0.7l0.8-0.8L77,31z M75.8,26.5h0.5l0.3,0.3l-0.1,0.6l0.4,0.9
		l-0.3,0.6l0.3,0.6l-0.4-0.1l-0.2-0.3l-0.2-0.8l-0.3,0.9l-0.2-0.1V28l-0.5-0.4l0.6-0.9L75.8,26.5z M74.5,26.8h0.4l0.1-0.2v-0.1
		l0.2,0.5l-0.5,0.8l0.1,1.3l-0.4,0.1l-0.3,0.5l0.1-0.3l-0.1-0.6l0.2-0.2V28L74,27.6L74.5,26.8z M67,27.7l0.6-0.4h0.5l-0.3,1.4
		l-0.1,0.5l-0.3,0.4l-0.3,1.1l-0.5-0.3l0.4-0.7L67,27.7z M65.3,35.7l0.7-0.6l0.7,1.4l-0.9,0.2l-0.1,0.7l-0.5-0.9l0.3-0.4L65.3,35.7z
		 M66.3,34.3l-0.6-0.2l0.3-1.5l0.3-0.7l1-1.1v-0.1l-0.3,2.1L66.3,34.3z M66,27.4l0.1,0.5l0.1,0.1l0.3-0.2L66.3,30l-0.8,1l-0.2,0.7
		l0.2,0.5l-0.8,3l-0.1,1.5l-0.5,0.2L64,37.4l-0.4-0.7l0.5-0.5v-2l1-2.6L64.9,30h0.4l0.2-0.8l0.3-0.4l-0.3-0.5l0.3-1L66,27.4z
		 M64.2,27.3l0.9-0.5l0.4,0.6l-0.3,0.4v0.9l-0.5,0.5v1l-0.6,1.2l-0.2,0.9L63.7,33l-0.2,1l-0.2,0.4l-0.4,0.3L62.8,35l-0.2-1.1
		l0.5-0.6l0.2-1.9l0.5-0.4l0.4-0.7l-0.1-1.5l-0.3,0.3v1.5h-0.3l0.3-2.1L64.2,27.3z M62.4,27.2l0.4,0.3l0.2-0.3l0.1-0.3l0.4-0.2
		l-0.2,0.9l-0.2,0.5L62.8,30l-0.1-1.5l-0.5-0.6L62.4,27.2z M62.6,31l-0.3,1.3l0.1,2.2l-0.3,0.3v-1.2l-0.2-1.2L62.6,31z M60.4,27.5
		l0.4,0.5l0.3-0.6l0.2,0.2h0.4L61,31.2l-0.8,1.5l-0.1,1.8l-0.6,0.2l-0.2-1l0.3-1.4l0.5-1.2l0.2-0.9l-1.1,0.3v-0.3l0.8-0.7v-0.7
		L60.4,27.5z M48.1,28.5l1-1.1l0.1,1.6l-0.6,0.4l-0.1,0.4v1l0.3,0.6l-0.4,0.4v0.7l-0.3,0.6l0.6,1.6c0,0-0.6,1.1-0.9,0
		C47.5,33.5,48.1,28.5,48.1,28.5z M41.9,30.8l0.4-0.4L42.2,29l0.1-1.6l1-0.3l-0.9,3.7l0.1,2.7l-0.6,0.6l0.4,0.9l-1,0.6l0.1-1.3V33
		L41.9,30.8z M39.5,27.1l0.6-0.4v2l-0.6-0.3V27.1z M34.2,32.8c-0.1,0.6,0-0.3-1,0.9c-1,1.1-1,0.9-1.4,0.6c-0.4-0.3-1.5,0.2-2.3,1.1
		c0,0.1,3.3-8.5,3.3-8.5l0.4-0.1l0.5,1.1l0.7-1l0.4,1l0.9-1.4l0.6,0.1l1-0.1l0.4,1l-1.6,1.9l2-1.4l0.6,0.1c0,0-0.3,4.5-0.4,5
		c-0.1,0.6-0.7-1.4-0.7-1.4s-0.4,2.4-0.7,3.4s-1.1-0.3-0.9-1.3c0.3-1-0.7-0.6-0.7-0.6S34.3,32.3,34.2,32.8z M36.8,39.2L36.5,41
		l-0.1,1.1l-0.3,0.6l-0.7-0.1l0.7-2.4V37l0.6,1.1l2.2-0.1L36.8,39.2z M39.4,31.4l-0.6,3.9l-0.4,0.1l0.6-4.7l0.6-1.1l0.3,1.1
		L39.4,31.4z M40.1,34v-3.6l0.4-0.7v-1.1l0.1-1l0.6-1l0.1,0.9L40.6,31l0.1,2.2L40.1,34z M42,41.9l-0.9-0.1l0.6-1.3l0.8-2.5l0.3-2.2
		l0.4,1.7l-0.6,2.3L42,41.9z M43.9,39.4L43,40.7l0.2-1.5l0.9-1.1L43.9,39.4z M43.8,34.7l-0.3-1.3h-0.4l0.3-3H44l0.4-1l-0.6-0.1v-1.1
		l0.6,0.1l-0.1-1.4l0.3,0.9l0.9-0.1l0.4-1.1l0.4,1.7h-0.7L45.1,29l-0.2,1l-0.4,1L43.8,34.7z M45.7,41.1l-1,0.3l-0.2-1l1.8-1.4
		L45.7,41.1z M47,33.3l-0.7,1.3v-1.4l0.1-2.2v-0.4l0.4-2v-1.3l0.4-0.6L47,33.3z M47.4,36.3l0.5-0.8h0.6l-0.2,0.4L48,36.5L47.4,36.3z
		 M50.8,37.8l-0.3,0.5l-0.2,0.8l-0.8,1.1l-0.9,1L48.1,41l1.6-1.6L50,38l0.8-0.8L50.8,37.8z M51.2,37.1l-0.3-0.4l0.2-0.5l0.4,0.2
		L51.2,37.1z M52,36.3l-0.3-0.1l-0.2-0.3l0.2-0.4l0.4,0.2L52,36.3z M52.1,32.7L52,33.6V35l-0.4,0.3v-0.6l-0.1-1.6l-0.6-2.7
		c-0.6,1-0.7,1.6-0.1,2.3c0.6,0.7-0.4,1.7-0.4,1.7s-1.6,0.3-0.7-0.3c0.9-0.6,0.1-2.4,0.1-2.4l0.1-1l0.4-0.6l0.1-1.1L50,28.1l0.7-0.6
		v-0.6c0,0,0.7,2.4,0.1,3.4l1.4-1.9l-0.1-0.6l0.4-0.1l0.1,1l-0.4,2l-0.3,0.7L52.1,32.7z M52.7,31.7l0.3-1.1l0.4-1.4l-0.3-0.7l0.9-1
		L53.2,31v1.1l-0.1,2.4l-0.2,0.2l-0.3-0.3L52.7,31.7z M53,36.4l-0.3-0.2l0.3-0.8l0.2,0.5l0.3,0.2l-0.3,0.7L53,36.4z M54.2,38.3
		l-0.1,1.4L54,40.2l-0.7,0.7l-0.1-1l0.7-1.1v-0.6l0.5-0.3L54.2,38.3z M54.6,36.9L54.2,37v-0.7l0.6-0.1l0.1,0.4L54.6,36.9z
		 M56.1,32.3l0.2-1.3l0.3-1.4l-0.1-0.8L56,28.7l-0.3,1.5l-0.2,0.9l-0.2,1.4l0.3,1l-0.5,1.1l-0.2,0.7h-0.3l-0.5,0.1l0.4-3.5l0.8-1
		L55,29.6l1.2-1.5l1-0.3l0.3-0.9h0.4l-0.2,0.8l-0.3,0.4l0.2,0.5l-0.5,1.9l-0.2,0.7l0.2,0.6l-0.2,0.9l-0.2,1.1l-0.4,1v1.6h-0.7l0.3-1
		l0.1-1.1l0.1-1L56.1,32.3z M57,36.8l0.2-0.5l0.3-0.9h0.3v1.4H57z M57.7,38l-0.3,0.1l-0.2-0.3l0.2-0.3L57.7,38z M56.3,41.3
		c0,0-0.6-0.1-0.5-0.3c0-0.2,0.2-1.5,0.2-1.5l0.3-0.3l0.1-0.5l0.3-0.4l0.2,0.4l-0.6,1.2V41.3z M57.9,39.2L57.6,40l-0.7,1l0.4-2
		l0.8-0.4l0.1,0.5L57.9,39.2z M58,33.9l-0.3,0.8l-0.5,0.2l-0.1-0.6l0.4-0.7v-0.8l0.4-0.7l-0.1-1l0.2-0.2l0.3-0.8l0.2-1l-0.3-1.2
		l0.4-1.2l0.1,1l0.6-0.7l0.1,0.9l-0.3,0.2l0.1,0.9l-0.7,1.4l0.1,2.9L58,33.9z M58.8,33.2l0.7-2.1l0.1,0.4l-0.5,1.7l0.1,1.5L59,35.1
		L58.7,35l0.2-0.5L58.8,33.2z M60.3,42.3c-0.1,0.5-1-0.1-1-0.1l0.8-1.6C60.1,40.6,60.4,41.8,60.3,42.3z M60.1,36.6l-0.7-0.1
		l-0.5,0.4v-0.4l0.2-0.4l0.4-0.1l0.3-0.7l0.4,0.7l0.6-0.5l0.1,0.5L60.1,36.6z M61.2,34.7l-0.8-0.1l0.2-0.6h0.3l-0.1-0.8l0.7-1.7
		l0.1,0.6l-0.5,0.5L61.2,34.7z M61.8,38.1l0.2-0.2V37l-0.3-0.5l0.2-0.3l0.6,0.2l0.6-0.5l0.1,0.4l-0.9,0.8l0.3,1l-0.5,0.1L61.8,38.1z
		 M63.2,42.3c0,0.2-1-0.2-1-0.2l1.7-3.6l0.4-1l0.8,0.2l-0.6,0.6l-0.6,1.1C63.9,39.4,63.2,42.2,63.2,42.3z M66.8,38.9l-1.7,4.5
		l-0.7-0.5l1.8-4.4l0.7-0.8L66.8,38.9z M69,31.9l-0.3,1.9L68.2,35l0.3,1l-0.6,0.5l0.2,0.8l-0.6,0.4l-0.3-1.1L66.9,37l0.2-2.1
		l0.3-1.9l0.8-2.7l-0.1-1.7l0.3-0.9l0.3,1.2l0.2-1l0.3,0.2l-0.4,1.2l0.3-0.5l0.5-0.8h0.4l0.4-0.2l-1.2,3.4L69,31.9z M72,35.4
		l-0.3,0.3v0.4l-0.5,0.2l-0.8-0.5l-0.5,0.3l-0.5-0.3l0.3-1.3l-0.2-1.7l0.5-0.6l0.8-1.4v-0.7l-0.2-0.6l0.5-0.9l-0.2-0.3l0.2-0.7h0.3
		l0.1-0.6l0.4,0.7l0.5-1.2l0.3,0.7l0.3-0.5h0.5l-0.3,1l-0.1,2.1l-0.3-0.1v-1.2l-0.5-0.2l-0.1,1.2h-0.2L71.7,30l-0.3-0.3l-0.4,1.6
		l0.7-0.6l-0.7,2.1l0.8-1l0.5-1.3l0.3,0.2l-0.3,1.5l0.2,0.3l-0.2,0.1l0.1,1.1L72,34V35.4z M75,32.8l-0.3,0.8l-0.1,0.8v0.7l0.1,0.3
		l0.3,0.1L74.7,36l0.3,0.6l-0.3,0.3l-0.6-0.5l-0.3,0.2l-0.4-0.1H73l-0.9-0.2l0.8-0.9v-1l-0.2-0.5l0.2-0.4l-0.1-0.6l0.5-0.6l0.1-1.2
		h0.4l0.3-0.9l0.2,0.1l-0.2,1.3l-0.3,0.3l0.1,0.2l-0.2,0.1l0.2,0.8l-0.4,1v0.5l0.2,0.2l-0.1,0.6h0.3l0.1-0.8l0.3-0.2l-0.1-0.8
		l-0.3-0.1l0.3-0.1l-0.1-1.1l0.4-0.3l0.8-2.6h0.2l-0.5,2.2L74.9,32L75,32.8z M78.9,35.9L78.4,36l-0.1-0.3l0.3-0.3l-0.1-0.8l0,0
		l0.6,0.3L78.9,35.9z M79.1,34l-0.2-0.4v-1l0.4-1.4l0.4-0.1l0.1,2.1v0.9L79.1,34z"/>
	<path class="st2" d="M81.2,15.8H18.7v31.7c2,31.8,29.4,43.6,31.3,47.2c1-3.9,30.2-15.1,31.2-49.2C81.1,45.7,81.2,15.8,81.2,15.8z
		 M79.1,48.1C77.2,77.7,51.7,88.7,49.9,92c-1-3.6-28.1-14-29-45.8c0.1,0.1,0-28.4,0-28.4L79.1,18V48.1z"/>
	<polygon class="st2" points="72.9,57.8 26.7,57.8 34.8,42.7 64.8,42.7 	"/>
	<path class="st3" d="M51.2,58h-2.9c-1.8-5.3-11.6,0.6-19.4-1l6.9-14.4L49.7,42l14.1,0.9l7,14.2C62.8,59,54.3,51.9,51.6,58"/>
	<path class="st3" d="M49.8,56.6c3.3-7.2,12.3-0.9,18.6-0.9c0.1,0-5.7-13.7-5.7-13.7c-3.8,0.6-11.2-4-12.8-0.2
		c-1.4-3.5-8.7,0.7-13,0.1c-0.1-0.1-5.6,13.5-5.6,13.5C36.5,56.3,45.9,49.5,49.8,56.6z"/>
	<line class="st4" x1="70.8" y1="56.8" x2="68.4" y2="55.6"/>
	<line class="st4" x1="28.9" y1="57" x2="31.2" y2="55.3"/>
	<line class="st4" x1="49.9" y1="41.6" x2="49.9" y2="56.7"/>
	<g>
		<path class="st5" d="M48.3,80.1c-1.3-1.5-1.9-3.3-4.3-3.3l-0.1,2.8c0,0.3,0.4,0.6,0.6,0.6C44.5,80.3,48.3,80.1,48.3,80.1z"/>
		<path class="st5" d="M52.4,80.1c0.4-0.4,1.5-2.6,1.7-2.7c0.5-0.3,1.4-0.8,1.9-0.8v2.9c0,0.4-0.4,0.6-0.6,0.6
			C55.4,80.2,52.4,80.1,52.4,80.1z"/>
		<path class="st5" d="M50.1,80.6c0.6-0.2,1.9-1.4-0.1-4.4c-0.2-0.7-0.6-0.9-0.8-0.8l-3-10c-0.2,0.4-0.6,0.3-1,0.3l3.4,9.7l-0.4,0.3
			l-4.5-9.5c0,0.4-0.5,0.6-1,0.5l5.1,9.1l-0.5,0.4l-5.9-8.5c0,0.4-0.5,0.7-0.9,0.7c0.1,0,6.5,8,6.5,8l-0.4,0.5L39.9,70
			c0.1,0.9,0,1.2-0.4,1.3c0-0.1,6.8,5.8,6.8,5.8L39,71.5c-0.2,1.4,6.2,5.3,6.9,5.7c0.6,0.5,2.4,2,2.6,2.9
			C49.1,80.1,49.9,80.6,50.1,80.6z"/>
		<path class="st5" d="M47.7,65.4c0.5,0.2,0.8,0.2,0.9-0.2l1.3,10h-0.4L47.7,65.4z"/>
		<path class="st5" d="M50,65.1c0.3,0.4,0.6,0.5,0.8,0.2l-0.2,9.9h-0.2L50,65.1z"/>
		<path class="st5" d="M52.1,65c0.1,0.3,0.4,0.3,0.7,0.2l-1.5,10.1l-0.1-0.1L52.1,65z"/>
		<path class="st5" d="M54.2,65.4c0.2,0.3,0.3,0.4,0.6,0.3L52,75.6l-0.1-0.2L54.2,65.4z"/>
		<path class="st5" d="M56.1,66.2c0.1,0.3,0.4,0.4,0.8,0.3L52.7,76l-0.2-0.2L56.1,66.2z"/>
		<path class="st5" d="M58.1,67.4c0.2,0.4,0.7,0.4,1,0.3c0,0.1-5.8,9-5.8,9l-0.2-0.2L58.1,67.4z"/>
		<path class="st5" d="M59.7,69.4l-6,7.5l0.1,0.2l6.6-7.2C60,69.9,59.8,69.7,59.7,69.4z"/>
		<path class="st5" d="M59.7,72.6c-0.1,0.4,0,0.8,0.1,0.9l-3.1,1.9L59.7,72.6z"/>
		<path class="st5" d="M55.7,75.8l4.9-5.4c0.3-0.1,0.6,0.5,0,0.9C60.5,71.3,55.7,75.8,55.7,75.8z"/>
		<path class="st5" d="M54.7,75.2l4.6-7.3c0.4-0.1,0.8,0.3,0.7,0.6C60,68.6,54.7,75.2,54.7,75.2z"/>
		<path class="st5" d="M53.8,74.4l4.2-7.7c0-0.2-0.5-0.6-0.6-0.4C57.5,66.4,53.8,74.4,53.8,74.4z"/>
		<path class="st5" d="M52.9,73.9l3-8.1c0.1-0.5-0.4-0.7-0.6-0.5C55.2,65.6,52.9,73.9,52.9,73.9z"/>
		<path class="st5" d="M52,73.5l1.9-8.3c0-0.4-0.6-0.3-0.7,0L52,73.5z"/>
		<path class="st5" d="M50.9,73.2l0.8-8.2c0-0.4-0.5-0.4-0.6-0.1C51.1,65.1,50.9,73.2,50.9,73.2z"/>
		<path class="st5" d="M50,74l-0.2-9.2c-0.1-0.3-0.8-0.2-0.8,0.1L50,74z"/>
		<path class="st5" d="M49,73.9l-1.8-8.8c-0.2-0.3-0.7-0.1-0.7,0.3L49,73.9z"/>
		<path class="st5" d="M47.9,74.2l-3.1-8.5c-0.3-0.3-0.8,0-0.8,0.2C44,65.9,47.9,74.2,47.9,74.2z"/>
		<path class="st5" d="M46.8,74.9L46.8,74.9l-4.5-8.3c-0.6-0.1-0.9,0.1-0.8,0.5C41.5,67.2,46.8,74.9,46.8,74.9z"/>
		<path class="st5" d="M45.9,75.5l-5.6-6.9c-0.4-0.1-0.7,0.6-0.5,1C39.8,69.5,45.9,75.5,45.9,75.5z"/>
	</g>
	<rect x="14.3" y="1" width="71.3" height="8.7"/>
	<path class="st6" d="M72.8,18"/>
	<g>
		<path class="st5" d="M27.8,4.7l0.9-0.2c0-1-0.5-1.1-0.9-1.1h-3.4c-0.5,0-0.9,0.2-1,0.9v1.1c0,0.5,0.4,0.8,0.8,0.8
			c0.1,0,3.4,0,3.4,0v1l-0.1,0.1l-3.2-0.1l-0.1-0.5L23.3,7l-0.1,0.6c0,0.3,0.6,0.7,0.9,0.7h3.8c0.3,0,0.7-0.4,0.7-0.6V6
			c0-0.4-0.4-0.7-0.8-0.7h-3.5V4.2h3.2L27.8,4.7z"/>
		<polygon class="st5" points="31.1,3.4 32.1,3.4 32.1,7.3 35.7,7.3 35.7,8.1 31.1,8.1 		"/>
		<polygon class="st5" points="37.5,3.3 38.5,3.3 38.5,8.2 37.4,8.2 		"/>
		<path class="st5" d="M41.7,3.3h4.1c0.4,0,0.7,0.2,0.8,1.2c-0.3,0-0.7,0.2-0.9,0.2c-0.1,0,0-0.4,0-0.4h-3.6v2.9h3.4v-1h-1.8V5.3
			h2.9v2.2c-0.1,0.4-0.3,0.7-0.6,0.7c-0.1,0-4.2,0-4.2,0c-0.3-0.1-0.7-0.4-0.7-0.6c0.1,0,0-3.5,0-3.5C40.8,3.8,41.3,3.4,41.7,3.3z"
			/>
		<polygon class="st5" points="54,3.3 49.1,3.3 49.1,8.2 54,8.2 54,7.2 50.1,7.2 50.1,6.2 52.4,6.2 52.4,5.1 50.1,5.1 50.1,4.2 
			54,4.2 		"/>
		<polyline class="st5" points="55.2,8.1 56.3,8.2 58.4,4.3 60.4,8.1 61.8,8.1 59,3.3 57.8,3.2 55.2,8 		"/>
		<rect x="56.6" y="6.2" class="st5" width="3.6" height="0.9"/>
		<path class="st5" d="M63.8,3.3h3.7c0.5,0,0.8,0.8,0.7,1.7c0,0.1-1,0.3-1,0.3V4.5h-3.1v2.7H67v-1h1.1v1.3C68,8,67.5,8.3,67.3,8.3
			h-3.7c-0.3-0.1-0.7-0.4-0.7-0.6c-0.1,0,0-3.6,0-3.6C63,3.7,63.5,3.3,63.8,3.3z"/>
		<polygon class="st5" points="70.8,3.3 71.8,3.3 71.8,5.1 75.2,5.1 75.2,3.4 76.3,3.4 76.3,8.1 75.3,8.1 75.3,6.1 71.8,6.1 
			71.8,8.1 70.6,8.1 		"/>
	</g>
</g>
</svg>
