<?xml version="1.0" encoding="utf-8"?>
<!-- Generator: Adobe Illustrator 19.0.1, SVG Export Plug-In . SVG Version: 6.00 Build 0)  -->
<svg version="1.1" id="Layer_11" xmlns="http://www.w3.org/2000/svg" xmlns:xlink="http://www.w3.org/1999/xlink" x="0px" y="0px"
	 viewBox="0 0 100 100" style="enable-background:new 0 0 100 100;" xml:space="preserve">
<style type="text/css">
	.st0{fill:#0054A6;}
	.st1{fill:#FDB913;stroke:#000000;stroke-width:1.1383;}
	.st2{fill:#ED1C24;stroke:#000000;stroke-width:1.1383;}
	.st3{fill:#FDB913;stroke:#000000;stroke-width:0.6906;}
	.st4{fill:#FFFFFF;stroke:#000000;stroke-width:0.4743;}
	.st5{fill:none;stroke:#000000;stroke-width:0.4743;}
	.st6{fill:#FFFFFF;}
	.st7{fill:#808285;}
	.st8{fill:#0DB14B;stroke:#000000;stroke-width:0.3972;}
</style>
<path d="M49.6,1L49.6,1H12c0,0,0,49,0,49.2c1.8,17,14.4,35,37.6,40l0,0c0,0,0,0,0,0c0,0,0,0,0,0l0,0c27.3-6.6,35.9-23,37.7-40
	c0-0.2,0-49.2,0-49.2H49.6z"/>
<path class="st0" d="M49.4,3.3L49.4,3.3h-36c0,0,0,46.5,0,46.7c1.7,16.2,13.4,32.4,36.1,38.5l0,0c0,0,0,0,0,0c0,0,0,0,0,0l0,0
	C76.7,80.1,83.7,66.2,85.4,50c0-0.2,0-46.7,0-46.7H49.4z"/>
<polygon class="st1" points="49.7,14.8 86.1,14.8 86.1,50.7 84.7,58.6 49.7,43.5 "/>
<polygon class="st2" points="49.7,14.8 13.3,14.8 13.3,50.7 14.6,58.6 49.7,43.5 "/>
<path class="st3" d="M16,20.3l2.4-1.9h2.1L38.2,37c2.2,1.3,5.6-0.3,7.2,0.6c1.3,0.6,2.1,1.8,1.9,2.6c-0.9,2-4.7,3.2-8,2.2
	c-1.4-0.6-2.7-2-2.7-2S22.5,22.3,19.5,21.1c-1.2-0.1-2.8-0.3-2.8-0.3L16,20.3z"/>
<path class="st3" d="M47.3,20.3l-2.4-1.9h-2.1L25.1,37c-2.2,1.3-5.6-0.3-7.2,0.6c-1.3,0.6-2.1,1.8-1.9,2.6c0.9,2,4.7,3.2,8,2.2
	c1.4-0.6,2.7-2,2.7-2s14.1-18.1,17.2-19.3c1.2-0.1,2.8-0.3,2.8-0.3L47.3,20.3z"/>
<polygon points="42.7,37.4 43.7,42.4 44.5,42.2 43.4,37.3 "/>
<polygon points="19.8,37.4 17.8,41.8 18.3,42.1 20.3,37.5 "/>
<g>
	<circle class="st4" cx="31.5" cy="33.5" r="8.5"/>
	<path class="st5" d="M29.4,25.4c-2.2,1.8-4.8,6.1-4,10.1"/>
	<path class="st5" d="M31.3,25.1c-1.9,1.8-3.6,5.4-2.9,9.9"/>
	<path class="st5" d="M36.7,40.2c0.3-1.6-3.3-6.6-5.4-6.4c-0.5-2.6,0.9-7.2,2.7-8.3"/>
	<path class="st5" d="M39.9,32.8c-1.1-2.1-5.6-4.7-7.6-5"/>
	<path class="st5" d="M26.9,40.5c1.6,0,7.8-1.3,9.1-2.6"/>
	<path class="st5" d="M39.2,37c-0.4-2-4.6-6.1-8-6.1"/>
	<path class="st5" d="M23.4,35.3c1.8,0.1,5.9,0.1,7.9-1.5"/>
	<path class="st5" d="M24.6,38.1c1.8-0.1,7.2-0.6,9.4-2.7"/>
</g>
<g>
	<rect x="66" y="20.4" class="st4" width="4.5" height="1.9"/>
	<rect x="67.7" y="20.4" class="st4" width="1.1" height="1.8"/>
	<rect x="65.5" y="22.2" class="st4" width="5.4" height="3.3"/>
	<rect x="67.4" y="22.1" class="st4" width="1.8" height="3.4"/>
	<rect x="65" y="25.6" class="st4" width="6.4" height="4"/>
	<rect x="66.9" y="25.4" class="st4" width="2.8" height="4"/>
	<line class="st5" x1="68.2" y1="26" x2="68.2" y2="28.7"/>
	<line class="st5" x1="67.5" y1="26.9" x2="68.9" y2="26.9"/>
	<rect x="66.2" y="22.9" width="0.5" height="2"/>
	<rect x="69.8" y="22.8" width="0.5" height="2.1"/>
	<rect x="65.6" y="26.1" width="0.7" height="2.8"/>
	<rect x="70.2" y="26.2" width="0.6" height="2.8"/>
	<rect x="66.5" y="20.8" width="0.5" height="0.9"/>
	<rect x="69.4" y="20.8" width="0.5" height="0.9"/>
	<rect x="65.2" y="29.6" class="st4" width="6.2" height="2.9"/>
	<path d="M66,20.4c0.3-2.4,2.4-1.4,2.3-4.1c0.4,3.1,2.3,1.3,2.3,4C70.5,20.4,66,20.4,66,20.4z"/>
	<polygon points="58,33.3 58,32 58.5,32 58.5,29.9 59.3,30.8 59.3,32.4 61.3,32.4 61.3,33.6 	"/>
	<polyline points="79.2,33.8 78.8,33.2 78.7,32.1 78.2,32 78.3,29.9 77.4,30.7 77.4,32.3 75.2,32.2 78.1,33.8 79.2,33.8 	"/>
	<polygon class="st4" points="58.3,43.4 58.3,33.5 68.4,29.7 78.3,33.5 78.3,43.8 	"/>
	<rect x="66.6" y="38" width="3.3" height="5.5"/>
	<rect x="67.1" y="38.7" class="st6" width="2.5" height="1.5"/>
	<rect x="58.2" y="34.8" class="st7" width="20.6" height="1"/>
	<polygon class="st4" points="61.3,43.5 62.4,43.5 62.2,35.3 62.6,35.3 62.7,34.7 61.2,34.7 61.2,35.3 61.5,35.3 	"/>
	<polygon class="st4" points="65.1,43.5 66.2,43.5 66,35.3 66.4,35.3 66.4,34.7 65,34.7 65,35.3 65.3,35.3 	"/>
	<polygon class="st4" points="58.3,43.5 59.4,43.5 59.2,35.3 59.6,35.3 59.6,34.7 58.2,34.7 58.2,35.3 58.5,35.3 	"/>
	<polygon class="st4" points="73.6,43.5 74.8,43.5 74.6,35.3 74.9,35.3 75,34.7 73.6,34.7 73.6,35.3 73.9,35.3 	"/>
	<polygon class="st4" points="77.4,43.5 78.6,43.5 78.4,35.3 78.7,35.3 78.8,34.7 77.4,34.7 77.4,35.3 77.7,35.3 	"/>
	<polygon class="st4" points="70.6,43.5 71.7,43.5 71.5,35.3 71.9,35.3 72,34.7 70.5,34.7 70.5,35.3 70.8,35.3 	"/>
	<rect x="57.5" y="33.8" class="st4" width="21.7" height="0.9"/>
	<rect x="56.7" y="43.5" class="st4" width="23.1" height="1.1"/>
</g>
<path class="st6" d="M63.8,61.3c0.9-0.4,1.1-0.5,0.9-1.5c0.3-1-0.5-2.9-1.8-3c-0.8-1.5-2-2-3.5-1.9c-0.4-2.2,0.4-4.4-4.9-3.8
	c0-2.1-0.6-3.5-1.9-3.6c-1.2-1-2.7-2.7-4.7-1.2c-1.9,1.7-1.3,2.5-1.6,3.3c-1.1,0.7-1.8,2.3-2.5,3c-0.8,0.3,0.2,4.2-1.9,4
	c-2.3,0.4-2.8,3.3-2.6,5c-1,0.7-1.1,1.9-1,2.6c-0.9,0.1-1.1,1-1.2,2.2c-1.1,0.9-1.5,1.9-1.5,3.2c-1,1.6-1.6,4.9-0.6,5.6
	c0,1.2,1.5,2.9,2,3.1c0.3,1.6,2.1,5.5,7.3,1.7c0.8,0.6,3.1,0.1,3.7-0.1c0.7,0.6,2.7,0.6,3.1-0.2c0.8,0,3.3,0.3,3.1-2.8
	c0.7-0.6,0.7-1.3,0.6-2.1c0.6-0.1,1.7-1.2,1.5-2.2c1.1,0.1,3.3-2.4-1-3.3c-0.1-0.6,1.6,0,1.6-1.3c1.2-0.1,1.6-1.9,1.6-2.8
	c1.1,0,2.1-1.7,2.2-3.3C61.8,61.8,63.8,61.3,63.8,61.3z"/>
<path class="st8" d="M51,46.5c0.4,2.2,1.5,2.1,2.2,1.9c0.6,0.4,0.6,2.1-0.5,2.6c-0.7,1.1,0.7,2.6,1.9,2c1.1-1.2,2.9-0.7,3.6-0.7
	c0.7,0.6,0.9,2.7,0.9,3.9c0.9,0.4,3.6-0.7,3,1.4c1.1,0.8,2.1,1.2,1.5,3.3c-1.1-0.2-2.5-0.6-3,0.5c0.1,1.4-0.6,2.5-1.8,2.3
	c-1.3,0.1-1.3,0.8-1.3,3c-1.1,0.4-1.6,0.9-1.4,1.9c-1.1-0.2-3.9,1.4-0.1,2.1c2.5,0.4,0.7,1.8-0.4,1.5c0.5,1.2-0.5,2.1-1.3,2.3
	c-0.1,0.7,0.5,1.8-1.1,2.1c0,0.6,0.2,2.6,0.2,2.6l-2.1-0.2c-0.5,1.2-1.8,1.2-2.8,0.5c-1.1,0.1-3.2,1.4-3.9-0.1
	c-1.2,1.2-5.6,4.6-6.7-1.1c-1.8-0.8-1.9-2-1.9-2.6c-0.6-0.7-1.2-4.1,0.7-5.1c-0.6-1.6,0.4-2.6,0.9-2.8c0-2,0.5-2.5,1.6-2.2
	c-0.4-1.9,0.6-2.2,1.3-2.7c-0.5-1.5-0.8-5,1.6-4.6c1.4-0.4,2-1.4,1.9-2.5c-0.5-1.1-0.4-2.5,1.8-3.9c0.4-1.4,1.1-2,1.5-1.6
	c-0.1-1.5,0.9-3.6,1.9-4C49.9,46.2,51,46.5,51,46.5z"/>
<rect x="13.9" y="3" class="st4" width="71.3" height="10.9"/>
<g>
	<path d="M45.1,64.1h-1v-3.2h-0.7v-0.5c0.3,0,0.5-0.1,0.7-0.2c0.2-0.1,0.3-0.2,0.3-0.3h0.6V64.1z"/>
	<path d="M49.9,62.9c0,0.4-0.1,0.7-0.4,1c-0.3,0.2-0.7,0.4-1.2,0.4c-0.5,0-0.9-0.1-1.2-0.3c-0.3-0.2-0.4-0.5-0.4-0.9
		c0-0.2,0.1-0.4,0.2-0.6c0.1-0.2,0.3-0.3,0.6-0.4v-0.1c-0.2-0.1-0.4-0.2-0.5-0.3s-0.2-0.4-0.2-0.6c0-0.3,0.1-0.6,0.4-0.8
		c0.3-0.2,0.6-0.3,1.1-0.3c0.5,0,0.8,0.1,1.1,0.3c0.2,0.2,0.4,0.5,0.4,0.8c0,0.2-0.1,0.4-0.2,0.6c-0.1,0.2-0.3,0.3-0.5,0.3v0.1
		c0.2,0.1,0.4,0.2,0.6,0.3C49.8,62.4,49.9,62.6,49.9,62.9z M48.9,62.9c0-0.2-0.1-0.4-0.2-0.5c-0.1-0.1-0.3-0.2-0.5-0.2
		c-0.2,0-0.4,0.1-0.5,0.2c-0.1,0.1-0.2,0.3-0.2,0.5c0,0.2,0.1,0.4,0.2,0.5c0.1,0.1,0.3,0.2,0.5,0.2c0.2,0,0.3-0.1,0.5-0.2
		C48.9,63.3,48.9,63.1,48.9,62.9z M48.8,61c0-0.2,0-0.3-0.1-0.4c-0.1-0.1-0.2-0.1-0.4-0.1c-0.2,0-0.3,0-0.4,0.1
		c-0.1,0.1-0.1,0.2-0.1,0.4c0,0.2,0,0.3,0.1,0.4c0.1,0.1,0.2,0.1,0.4,0.1c0.1,0,0.3,0,0.4-0.1C48.7,61.4,48.8,61.2,48.8,61z"/>
	<path d="M53.8,62.9c0,0.4-0.1,0.7-0.4,1c-0.3,0.2-0.7,0.4-1.2,0.4c-0.5,0-0.9-0.1-1.2-0.3c-0.3-0.2-0.4-0.5-0.4-0.9
		c0-0.2,0.1-0.4,0.2-0.6c0.1-0.2,0.3-0.3,0.6-0.4v-0.1c-0.2-0.1-0.4-0.2-0.5-0.3c-0.1-0.2-0.2-0.4-0.2-0.6c0-0.3,0.1-0.6,0.4-0.8
		c0.3-0.2,0.6-0.3,1.1-0.3c0.5,0,0.8,0.1,1.1,0.3c0.2,0.2,0.4,0.5,0.4,0.8c0,0.2-0.1,0.4-0.2,0.6c-0.1,0.2-0.3,0.3-0.5,0.3v0.1
		c0.2,0.1,0.4,0.2,0.6,0.3C53.7,62.4,53.8,62.6,53.8,62.9z M52.8,62.9c0-0.2-0.1-0.4-0.2-0.5c-0.1-0.1-0.3-0.2-0.5-0.2
		c-0.2,0-0.4,0.1-0.5,0.2c-0.1,0.1-0.2,0.3-0.2,0.5c0,0.2,0.1,0.4,0.2,0.5c0.1,0.1,0.3,0.2,0.5,0.2c0.2,0,0.3-0.1,0.5-0.2
		C52.8,63.3,52.8,63.1,52.8,62.9z M52.7,61c0-0.2,0-0.3-0.1-0.4c-0.1-0.1-0.2-0.1-0.4-0.1c-0.2,0-0.3,0-0.4,0.1
		c-0.1,0.1-0.1,0.2-0.1,0.4c0,0.2,0,0.3,0.1,0.4c0.1,0.1,0.2,0.1,0.4,0.1c0.1,0,0.3,0,0.4-0.1C52.6,61.4,52.7,61.2,52.7,61z"/>
	<path d="M57.7,60.6c-0.5,0.3-0.9,0.7-1.2,1.3c-0.3,0.6-0.4,1.3-0.4,2.3h-1c0-0.7,0.2-1.3,0.5-2c0.3-0.7,0.8-1.2,1.4-1.6h-2.5v-0.6
		h3.3V60.6z"/>
</g>
<g>
	<path d="M19.6,5.4h1.1v6.4h3.5v0.8h-4.6V5.4z"/>
	<path d="M29,12.7c-2.2,0-3.7-1.5-3.7-3.6c0-2.3,1.6-3.7,3.8-3.7c2.3,0,3.7,1.5,3.7,3.6C32.9,11.4,31.1,12.7,29,12.7L29,12.7z
		 M29.1,11.9c1.7,0,2.7-1.3,2.7-3c0-1.4-0.9-2.9-2.6-2.9c-1.8,0-2.7,1.4-2.7,3C26.4,10.6,27.4,11.9,29.1,11.9L29.1,11.9z"/>
	<path d="M34.6,12.6V5.4h1.2l2.6,3.6c0.6,0.8,1.1,1.6,1.5,2.3l0,0c-0.1-1-0.1-1.8-0.1-2.9v-3h1v7.1h-1.1L37.1,9
		c-0.6-0.8-1.1-1.6-1.5-2.4l0,0c0.1,0.9,0.1,1.8,0.1,2.9v3H34.6z"/>
	<path d="M49.3,12.3c-0.5,0.2-1.4,0.4-2.6,0.4c-1.3,0-2.3-0.3-3.1-0.9c-0.7-0.6-1.2-1.5-1.2-2.7c0-2.1,1.7-3.7,4.5-3.7
		c1,0,1.7,0.2,2.1,0.3l-0.3,0.8c-0.4-0.2-1-0.3-1.8-0.3c-2,0-3.3,1.1-3.3,2.9c0,1.8,1.3,2.9,3.2,2.9c0.7,0,1.2-0.1,1.4-0.2V9.6h-1.7
		V8.8h2.7V12.3z"/>
	<path d="M51.2,5.4h4.5v0.8h-3.4v2.4h3.1v0.8h-3.1v3.2h-1.1V5.4z"/>
	<path d="M60.8,12.7c-2.2,0-3.7-1.5-3.7-3.6c0-2.3,1.6-3.7,3.8-3.7c2.3,0,3.7,1.5,3.7,3.6C64.6,11.4,62.9,12.7,60.8,12.7L60.8,12.7z
		 M60.8,11.9c1.7,0,2.7-1.3,2.7-3c0-1.4-0.9-2.9-2.6-2.9c-1.8,0-2.7,1.4-2.7,3C58.2,10.6,59.1,11.9,60.8,11.9L60.8,11.9z"/>
	<path d="M66.3,5.6c0.5-0.1,1.3-0.2,2.1-0.2c1.1,0,1.9,0.2,2.4,0.6c0.4,0.3,0.7,0.8,0.7,1.4c0,0.9-0.7,1.6-1.6,1.8v0
		c0.6,0.2,1,0.7,1.2,1.4c0.3,1,0.5,1.7,0.6,2h-1.1c-0.1-0.2-0.3-0.8-0.5-1.7c-0.2-1-0.7-1.4-1.7-1.4h-1v3.1h-1.1V5.6z M67.4,8.8h1.1
		c1.1,0,1.9-0.5,1.9-1.4c0-0.9-0.8-1.3-1.9-1.3c-0.5,0-0.9,0-1.1,0.1V8.8z"/>
	<path d="M74.8,6.2h-2.5V5.4h6.1v0.8h-2.5v6.3h-1.1V6.2z"/>
</g>
<path d="M6.4,72.1c-2.4,1.6-5.6,0-6-2.7c1.3-1,3.4-6.8,3.2-9.7c0.8-2.4,25,2.8,13.8,12.4c2.1,2.9,9.6,16.1,31.5,17
	c15.7-1.8,28.1-9.8,33.1-16.8c0.2,0-3.8-3.8-3.8-3.8c0.4-3.5,12.2-15.2,17.8-8.8c0.6,4.7,2.3,9.5,3.4,10.2c-0.3,1.9-3.4,3.7-6.3,2.4
	c-0.3-1.9-1-4.2-1-4.2c-1.5-0.3-3.7,0.3-4.2,1.3c0,0.5,4.2,4.5,4.2,4.5C92.9,75.9,79,98.4,49.7,99c-29.4,0.3-42-23.4-42.3-24.5
	c0.3-0.5,4.5-5.2,4.5-5.2c-0.6-1.3-3.2-1.5-4-1.3C7.9,68.2,6.4,72.1,6.4,72.1z"/>
<path class="st6" d="M4.3,62.4c-0.1,1.5-1.1,6.3-2.6,7.1c0.5,2.3,2.6,2.4,3.7,2.1c0-1.8,1.8-6.6,3.1-7.7C7.2,63.8,4.4,61.6,4.3,62.4
	z"/>
<path class="st6" d="M95.3,62.2c0.6,3.7,1.8,6.8,2.7,7.9c-0.3,1.5-2.9,1.5-3.9,1.3c0.2-2.1-1.9-6.8-2.9-7.3
	C92.8,64.1,95.2,63,95.3,62.2z"/>
<path class="st6" d="M16.8,70.8l-1.6-3.4c1.1,0.5,3.1,1.9,3.1,1.9L16.8,70.8z"/>
<polygon class="st6" points="81.6,69.5 82.9,70.9 84.4,67.7 "/>
<path class="st6" d="M85.8,68.3c1.1,2.7,4.4,5.8,5.3,6.3c-6,10.5-18.7,23.2-43.2,23.2C23.4,97.7,10.6,77.5,8.5,74.8
	c1.1-1,4.7-3.7,5.3-6.1c1,2.6,13,22.3,35.7,21.5C69.6,89.2,84.5,73.5,85.8,68.3z"/>
<g>
	<path d="M17.1,82.2c-0.3-0.2-0.8-0.5-1.2-1c-0.5-0.6-0.8-1.2-0.8-1.9c0-0.6,0.3-1.2,0.9-1.7c1.1-1,2.6-0.8,3.7,0.5
		c0.4,0.5,0.6,0.9,0.7,1.1l-0.5,0.2c-0.1-0.3-0.2-0.6-0.6-1c-0.8-0.9-1.9-1.1-2.8-0.3c-0.9,0.8-1,1.9-0.2,2.8
		c0.3,0.3,0.5,0.5,0.7,0.6l1.1-1l-0.7-0.8l0.4-0.3l1.1,1.3L17.1,82.2z"/>
	<path d="M19.8,83l-1.4,0.8l-0.5-0.5l4.6-2.4l0.6,0.5l-2,4.8l-0.5-0.5l0.6-1.5L19.8,83z M21.3,83.8l0.6-1.4c0.1-0.3,0.3-0.6,0.4-0.8
		l0,0c-0.2,0.2-0.5,0.3-0.8,0.5l-1.3,0.7L21.3,83.8z"/>
	<path d="M25.8,83.7l-2.9,3.9l-0.5-0.4l2.9-3.9L25.8,83.7z"/>
	<path d="M25.3,88.5c0.2,0.3,0.4,0.7,0.8,0.9c0.6,0.4,1.1,0.3,1.4-0.1c0.2-0.4,0.1-0.8-0.3-1.3c-0.6-0.7-0.8-1.3-0.4-1.9
		c0.4-0.6,1.3-0.8,2.1-0.2c0.4,0.3,0.7,0.6,0.8,0.8l-0.4,0.3c-0.1-0.2-0.3-0.5-0.7-0.7c-0.6-0.4-1-0.2-1.2,0.1
		c-0.2,0.4-0.1,0.7,0.4,1.3c0.6,0.7,0.7,1.3,0.3,1.9c-0.4,0.6-1.2,0.9-2.3,0.2c-0.4-0.3-0.8-0.7-0.9-1L25.3,88.5z"/>
	<path d="M32.4,93.1c-0.3,0-0.8-0.1-1.3-0.4c-1.3-0.6-1.9-1.9-1.2-3.3c0.7-1.4,2.1-1.8,3.5-1.1c0.6,0.3,0.9,0.6,1,0.7L34,89.4
		c-0.2-0.2-0.5-0.4-0.8-0.6c-1.1-0.5-2.1-0.2-2.7,0.9c-0.5,1.1-0.2,2.1,0.9,2.6c0.4,0.2,0.8,0.3,1.1,0.3L32.4,93.1z"/>
	<path d="M36.9,92.5L35,91.8l-0.6,1.7l2.1,0.8l-0.2,0.5l-2.7-1l1.6-4.6l2.6,0.9l-0.2,0.5l-2-0.7l-0.5,1.4l1.9,0.7L36.9,92.5z"/>
	<path d="M41.6,94.5L40.8,96l-0.7-0.1l2.6-4.5l0.8,0.1l0.9,5.1l-0.7-0.1l-0.3-1.6L41.6,94.5z M43.3,94.3l-0.3-1.5
		C43,92.5,43,92.2,43,92l0,0c-0.1,0.3-0.3,0.6-0.4,0.8l-0.7,1.3L43.3,94.3z"/>
	<path d="M50.1,96.7c-0.3,0.1-0.9,0.2-1.6,0.2c-0.8,0-1.4-0.2-1.9-0.7c-0.4-0.4-0.7-1.1-0.6-1.8c0.1-1.5,1.2-2.5,2.9-2.4
		c0.6,0,1.1,0.2,1.3,0.3l-0.2,0.5c-0.3-0.1-0.6-0.2-1.1-0.3c-1.3,0-2.1,0.7-2.1,1.9c0,1.2,0.7,2,1.9,2c0.4,0,0.7,0,0.9-0.1l0.1-1.5
		l-1,0l0-0.5l1.7,0.1L50.1,96.7z"/>
	<path d="M52,92l0.3,2.9c0.1,1.1,0.7,1.5,1.3,1.4c0.8-0.1,1.2-0.6,1.1-1.7l-0.3-2.9l0.7-0.1l0.3,2.8c0.1,1.5-0.6,2.2-1.7,2.3
		c-1,0.1-1.9-0.4-2-1.9L51.4,92L52,92z"/>
	<path d="M57.1,95.5c0.3,0.1,0.8,0.2,1.2,0.1c0.7-0.1,1-0.6,0.9-1c-0.1-0.4-0.4-0.6-1.2-0.7c-0.9-0.1-1.5-0.4-1.6-1.1
		c-0.2-0.7,0.4-1.4,1.3-1.6c0.5-0.1,0.9-0.1,1.2,0l-0.1,0.5c-0.2-0.1-0.5-0.1-1,0c-0.7,0.1-0.9,0.6-0.8,0.9c0.1,0.4,0.4,0.6,1.2,0.7
		c0.9,0.1,1.4,0.4,1.6,1.1c0.2,0.7-0.3,1.5-1.5,1.8c-0.5,0.1-1,0.1-1.4,0L57.1,95.5z"/>
	<path d="M67.9,92.7c-0.2,0.2-0.7,0.6-1.4,0.8c-0.7,0.3-1.4,0.4-2,0.1c-0.6-0.2-1.1-0.7-1.3-1.4c-0.5-1.3,0-2.7,1.6-3.4
		c0.6-0.2,1-0.3,1.3-0.3l0,0.5c-0.3,0-0.7,0-1.1,0.2c-1.2,0.5-1.6,1.5-1.2,2.6c0.5,1.1,1.5,1.5,2.6,1.1c0.4-0.2,0.7-0.3,0.8-0.5
		l-0.5-1.3l-1,0.4l-0.2-0.5l1.6-0.6L67.9,92.7z"/>
	<path d="M67.2,87.9l0.6-0.3l2.1,3.8l1.9-1l0.2,0.5l-2.5,1.4L67.2,87.9z"/>
	<path d="M73.5,88.2l0.4,1.6l-0.6,0.4l-1.3-5l0.7-0.4l4.2,3l-0.6,0.4l-1.3-1L73.5,88.2z M74.6,86.8l-1.2-0.9
		c-0.3-0.2-0.5-0.4-0.7-0.6l0,0c0.1,0.3,0.2,0.6,0.3,0.9l0.4,1.4L74.6,86.8z"/>
	<path d="M75.6,82.5l3.1,3.8l-0.5,0.4l-3.1-3.8L75.6,82.5z"/>
	<path d="M80.7,84.6l-3.3-3.5l0.5-0.5l2.9,0.7c0.7,0.2,1.2,0.3,1.8,0.5l0,0c-0.5-0.4-0.9-0.9-1.4-1.4l-1.4-1.5l0.5-0.4l3.3,3.5
		L83,82.5l-2.9-0.7c-0.6-0.1-1.3-0.3-1.8-0.5l0,0c0.4,0.4,0.9,0.8,1.4,1.4l1.4,1.5L80.7,84.6z"/>
	<path d="M84.8,77.2l-1.3,1.5l1.3,1.2l1.5-1.7l0.4,0.4l-1.9,2.2l-3.6-3.2l1.9-2.1l0.4,0.4L82,77.3l1.1,1l1.3-1.5L84.8,77.2z"/>
</g>
</svg>
