<?xml version="1.0" encoding="utf-8"?>
<!-- Generator: Adobe Illustrator 19.0.1, SVG Export Plug-In . SVG Version: 6.00 Build 0)  -->
<svg version="1.1" id="Layer_4" xmlns="http://www.w3.org/2000/svg" xmlns:xlink="http://www.w3.org/1999/xlink" x="0px" y="0px"
	 viewBox="0 0 100 100" style="enable-background:new 0 0 100 100;" xml:space="preserve">
<style type="text/css">
	.st0{fill:#509BCC;}
	.st1{fill:#1E417B;}
	.st2{fill:#00B8C2;stroke:#000000;stroke-width:0.2768;}
	.st3{fill:#FFFFFF;stroke:#000000;stroke-width:0.2768;}
	.st4{fill:#FFFFFF;stroke:#000000;stroke-width:0.2741;}
	.st5{fill:none;stroke:#000000;stroke-width:0.2768;}
	.st6{fill:#D43739;stroke:#000000;stroke-width:0.2768;}
	.st7{fill:#DFB648;stroke:#000000;stroke-width:0.2768;}
	.st8{fill:#E8AE1D;stroke:#000000;stroke-width:0.2768;}
	.st9{fill:#BCBEC0;stroke:#000000;stroke-width:0.2768;}
	.st10{fill:#FEBE10;stroke:#000000;stroke-width:0.2768;}
	.st11{fill:#FFFFFF;stroke:#000000;stroke-width:0.1576;stroke-linecap:round;stroke-linejoin:round;}
	.st12{fill:none;stroke:#000000;stroke-width:0.1576;stroke-linecap:round;stroke-linejoin:round;}
	.st13{fill:none;stroke:#000000;stroke-width:1.1072;}
	.st14{fill:#DFB648;stroke:#000000;stroke-width:1.1072;}
</style>
<path class="st0" d="M25.2,22.6c13.1-9,36.1-10,50.7,0c9.8,22.5-3.1,54.2-25.6,62.5C33.2,78.7,13.6,51.6,25.2,22.6z"/>
<path class="st1" d="M79,45.3c0.8-7.2-0.1-14.9-3.2-22.7c-13.1-9-36.1-10-50.7,0c-2.9,6.8-3.8,14.4-3,21.9
	C32.7,43.1,67.1,41,79,45.3z"/>
<path class="st2" d="M48.1,29.8c-0.2-1.9,1.5-2.5,2.3-2.5c0.8,0,2.7,0.8,2.4,2.6L48.1,29.8z"/>
<path class="st3" d="M44.8,20.9c0-1.5,0.7-1.3,0.9-1.3s1.1-0.1,1.1,1.3L44.8,20.9z"/>
<rect x="44.5" y="20.9" class="st3" width="2.5" height="2.4"/>
<rect x="45.3" y="21.6" transform="matrix(0.7071 0.7071 -0.7071 0.7071 28.8275 -25.8358)" class="st3" width="0.6" height="0.6"/>
<rect x="44.2" y="23.1" class="st3" width="3" height="2.7"/>
<rect x="45.1" y="23.7" class="st3" width="0.9" height="1.6"/>
<rect x="43.9" y="25.9" class="st3" width="3.3" height="6.3"/>
<rect x="45.3" y="26.6" class="st3" width="0.7" height="2.3"/>
<rect x="45.2" y="30.1" class="st3" width="1.1" height="1.9"/>
<path class="st3" d="M54.6,20.9c0-1.5,0.7-1.3,0.9-1.3c0.2,0,1.1-0.1,1.1,1.3L54.6,20.9z"/>
<rect x="54.3" y="20.9" class="st3" width="2.5" height="2.4"/>
<rect x="55.4" y="21.6" transform="matrix(0.707 0.7072 -0.7072 0.707 31.795 -32.9834)" class="st3" width="0.6" height="0.6"/>
<rect x="54" y="23.1" class="st3" width="3" height="2.7"/>
<rect x="55" y="23.7" class="st3" width="0.9" height="1.6"/>
<rect x="53.7" y="25.9" class="st3" width="3.3" height="6.3"/>
<rect x="55.1" y="26.6" class="st3" width="0.7" height="2.3"/>
<rect x="55" y="30.1" class="st3" width="1.1" height="1.9"/>
<rect x="47" y="29.9" class="st3" width="6.8" height="2.5"/>
<rect x="48.1" y="30" class="st3" width="4.6" height="2.3"/>
<rect x="49.4" y="30.1" class="st3" width="1.9" height="2.1"/>
<polygon class="st3" points="47.5,30 50.4,28.6 53.3,29.9 "/>
<rect x="42.9" y="32.3" class="st3" width="14.9" height="2.1"/>
<rect x="42.2" y="33.3" class="st3" width="16.4" height="1.5"/>
<rect x="41.6" y="34.4" class="st3" width="17.8" height="4.5"/>
<rect x="42.9" y="35.2" class="st3" width="3.9" height="3.6"/>
<rect x="43.6" y="35.2" class="st4" width="2.4" height="3.5"/>
<rect x="54.2" y="35.2" class="st3" width="3.9" height="3.6"/>
<rect x="54.9" y="35.2" class="st4" width="2.4" height="3.5"/>
<rect x="48.1" y="35.4" class="st3" width="4.7" height="3.4"/>
<path class="st3" d="M49.3,34.5c0,0,0-1.2,1.1-1.2c1.2,0,1.1,0.8,1.1,1.1c0-0.1,0,4.5,0,4.5h-2.2L49.3,34.5z"/>
<rect x="49" y="35.3" width="0.5" height="3.5"/>
<rect x="49" y="30" width="0.5" height="2.2"/>
<rect x="51.2" y="30" width="0.5" height="2.2"/>
<rect x="51.3" y="35.3" width="0.5" height="3.5"/>
<line class="st5" x1="45.8" y1="17.9" x2="45.8" y2="19.5"/>
<line class="st5" x1="45" y1="18.6" x2="46.5" y2="18.6"/>
<line class="st5" x1="55.5" y1="17.9" x2="55.5" y2="19.5"/>
<line class="st5" x1="54.8" y1="18.6" x2="56.3" y2="18.6"/>
<path class="st6" d="M33.8,31.2c1.8-1.9,4.8-1.7,4.4,1.7c-0.8,2.5-3.9,4.6-4.3,4.9c-1.5-0.6-4.2-3.4-4.6-5.3
	C28.8,29.8,32.6,29.4,33.8,31.2z"/>
<path class="st7" d="M29.6,29.4c2.2-0.9,6.5-0.7,8.1-0.1c0.7-0.4,1-2.6,1-2.9c-0.8,0.9-3.8,1.5-4.8-1.5c-1.2,2.8-4.2,2.8-5.1,1.6
	C28.9,27.5,29.6,29.4,29.6,29.4z"/>
<path class="st3" d="M52.2,66.5h10.4c0.8-1,1-1.6,1-2.6s-3.9-4.7-3.9-5.4c0-0.6,0.6-0.5,0.7-0.4c0.1,0.6,1,0.7,1.4,0.7
	c0.5-0.6,0.8-1.9-0.9-1.9c-1.7,0-2,0.7-2,1.4c-0.1,2.2,3.8,5.2,3.2,6.5c0.1-1.1-1.5-2.7-5.8-2.7c-3.9,0-2.6,1-4.5,1
	c-1.3-0.3-2.1-0.8-3-0.8c1,0.6,2,1.1,2.1,1.3c-0.2-0.1-0.8-0.6-0.8-0.4C50,64.7,52,64.9,52.2,66.5z"/>
<path class="st8" d="M63.3,59.5c-0.2-0.7-0.9-1.1-1.2-1.4c-0.5,0-0.4,0.5-0.4,0.7C62,59.1,63,59.8,63.3,59.5z"/>
<path d="M60.8,57.6c0.3,0.1,0.7,0.7,0.5,1.1c0.4,0.1,1.1-0.2,1.1-0.5c0.1-0.4-0.2-0.3-0.3-0.2C61.9,57.7,62,57.5,60.8,57.6z"/>
<path class="st3" d="M47.5,67.4h10.4c0.8-1,1-1.6,1-2.6c0-1-3.9-4.7-3.9-5.4c0-0.6,0.6-0.5,0.7-0.4c0.1,0.6,1,0.7,1.4,0.7
	c0.5-0.6,0.8-1.9-0.9-1.9c-1.7,0-2,0.7-2,1.4c-0.1,2.2,3.8,5.2,3.2,6.5c0.1-1.1-1.5-2.7-5.8-2.7c-3.9,0-2.6,1-4.5,1
	c-1.3-0.3-2.1-0.8-3-0.8c1,0.6,2,1.1,2.1,1.3c-0.2-0.1-0.8-0.6-0.8-0.4C45.3,65.5,47.3,65.7,47.5,67.4z"/>
<path class="st8" d="M58.6,60.4c-0.2-0.7-0.9-1.1-1.2-1.4c-0.5,0-0.4,0.5-0.4,0.7C57.3,60,58.4,60.7,58.6,60.4z"/>
<path d="M56.1,58.5c0.3,0.1,0.7,0.7,0.5,1.1c0.4,0.1,1.1-0.2,1.1-0.5c0.1-0.4-0.2-0.3-0.3-0.2C57.2,58.6,57.3,58.4,56.1,58.5z"/>
<path class="st3" d="M43.3,68.2h10.4c0.8-1,1-1.6,1-2.6c0-1-3.9-4.7-3.9-5.4c0-0.6,0.6-0.5,0.7-0.4c0.1,0.6,1,0.7,1.4,0.7
	c0.5-0.6,0.8-1.9-0.9-1.9c-1.7,0-2,0.7-2,1.4c-0.1,2.2,3.8,5.2,3.2,6.5c0.1-1.1-1.5-2.7-5.8-2.7c-3.9,0-2.6,1-4.5,1
	c-1.3-0.3-2.1-0.8-3-0.8c1,0.6,2,1.1,2.1,1.3c-0.2-0.1-0.8-0.6-0.8-0.4C41.1,66.3,43.1,66.5,43.3,68.2z"/>
<path class="st8" d="M54.4,61.2c-0.2-0.7-0.9-1.1-1.2-1.4c-0.5,0-0.4,0.5-0.4,0.7C53.1,60.8,54.1,61.5,54.4,61.2z"/>
<path d="M51.9,59.3c0.3,0.1,0.7,0.7,0.5,1.1c0.4,0.1,1.1-0.2,1.1-0.5c0.1-0.4-0.2-0.3-0.3-0.2C53,59.4,53.1,59.2,51.9,59.3z"/>
<path class="st3" d="M38.8,69h10.4c0.8-1,1-1.6,1-2.6c0-1-3.9-4.7-3.9-5.4c0-0.6,0.6-0.5,0.7-0.4c0.1,0.6,1,0.7,1.4,0.7
	c0.5-0.6,0.8-1.9-0.9-1.9c-1.7,0-2,0.7-2,1.4c-0.1,2.2,3.8,5.2,3.2,6.5c0.1-1.1-1.5-2.7-5.8-2.7c-3.9,0-2.6,1-4.5,1
	c-1.3-0.3-2.1-0.8-3-0.8c1,0.6,2,1.1,2.1,1.3c-0.2-0.1-0.8-0.6-0.8-0.4C36.6,67.1,38.6,67.3,38.8,69z"/>
<path class="st8" d="M49.9,62c-0.2-0.7-0.9-1.1-1.2-1.4c-0.5,0-0.4,0.5-0.4,0.7C48.6,61.5,49.7,62.2,49.9,62z"/>
<path d="M47.4,60c0.3,0.1,0.7,0.7,0.5,1.1c0.4,0.1,1.1-0.2,1.1-0.5c0.1-0.4-0.2-0.3-0.3-0.2C48.5,60.1,48.6,60,47.4,60z"/>
<path class="st5" d="M42.3,72.3c0.7,0,1.5-0.2,1.8-0.6c0.4,0.5,0.8,0.6,1.6,0.6"/>
<path class="st5" d="M46.2,72.3c0.7,0,1.5-0.2,1.8-0.6c0.4,0.5,0.8,0.6,1.6,0.6"/>
<path class="st5" d="M44.2,71.3c0.7,0,1.5-0.2,1.8-0.6c0.4,0.5,0.8,0.6,1.6,0.6"/>
<path class="st5" d="M48.1,71.3c0.7,0,1.5-0.2,1.8-0.6c0.4,0.5,0.8,0.6,1.6,0.6"/>
<path class="st5" d="M52.9,71c0.7,0,1.5-0.2,1.8-0.6c0.4,0.5,0.8,0.6,1.6,0.6"/>
<path class="st5" d="M56.8,71c0.7,0,1.5-0.2,1.8-0.6c0.4,0.5,0.8,0.6,1.6,0.6"/>
<path class="st5" d="M54.8,70c0.7,0,1.5-0.2,1.8-0.6c0.4,0.5,0.8,0.6,1.6,0.6"/>
<path class="st5" d="M58.7,70c0.7,0,1.5-0.2,1.8-0.6c0.4,0.5,0.8,0.6,1.6,0.6"/>
<path class="st5" d="M61.7,51.9c0.7,0,1.5-0.2,1.8-0.6c0.4,0.5,0.8,0.6,1.6,0.6"/>
<path class="st5" d="M65.6,51.9c0.7,0,1.5-0.2,1.8-0.6c0.4,0.5,0.8,0.6,1.6,0.6"/>
<path class="st5" d="M63.6,51c0.7,0,1.5-0.2,1.8-0.6c0.4,0.5,0.8,0.6,1.6,0.6"/>
<path class="st5" d="M67.5,51c0.7,0,1.5-0.2,1.8-0.6c0.4,0.5,0.8,0.6,1.6,0.6"/>
<path class="st5" d="M44.9,51.8c0.7,0,1.5-0.2,1.8-0.6c0.4,0.5,0.8,0.6,1.6,0.6"/>
<path class="st5" d="M48.9,51.8c0.7,0,1.5-0.2,1.8-0.6c0.4,0.5,0.8,0.6,1.6,0.6"/>
<path class="st5" d="M46.8,50.8c0.7,0,1.5-0.2,1.8-0.6c0.4,0.5,0.8,0.6,1.6,0.6"/>
<path class="st5" d="M50.7,50.8c0.7,0,1.5-0.2,1.8-0.6c0.4,0.5,0.8,0.6,1.6,0.6"/>
<path class="st5" d="M29,52.2c0.7,0,1.5-0.2,1.8-0.6c0.4,0.5,0.8,0.6,1.6,0.6"/>
<path class="st5" d="M33,52.2c0.7,0,1.5-0.2,1.8-0.6c0.4,0.5,0.8,0.6,1.6,0.6"/>
<path class="st5" d="M30.9,51.3c0.7,0,1.5-0.2,1.8-0.6c0.4,0.5,0.8,0.6,1.6,0.6"/>
<path class="st5" d="M34.9,51.3c0.7,0,1.5-0.2,1.8-0.6c0.4,0.5,0.8,0.6,1.6,0.6"/>
<path class="st3" d="M22.4,43.2c5.8-2.3,42.9-3.7,56.3,0c-0.1,0.1-0.2,0.9-0.2,0.9c-15.3-3.8-48.8-2.2-56.1,0.2
	C22.4,44.2,22.4,43.2,22.4,43.2z"/>
<path class="st3" d="M22.4,43.9C33,41.1,69.5,40.4,78.5,44c-0.5,6.4-0.6,7.2-1,8l-4.3-0.7c0-2.9-2.1-5.6-6-6
	c-3.9-0.1-6.2,2.5-6.9,4.1c0.1,0-3.3-0.1-3.3-0.1c0-2.3-3.8-4.3-6.4-4.3c-2.7,0-4.2,0.6-6.7,4.3c0.1,0-2.9,0.2-2.9,0.2
	c-1.2-3.2-4.9-4.3-7.3-4c-2.4,0.5-5.4,2.2-5.7,4.9c0.1,0-3.9,0.7-3.9,0.7c-0.6-1.9-1.8-7.5-1.8-7.5"/>
<path class="st9" d="M22.4,44.1c10.6-2.8,47.1-3.5,56.1,0.1c-0.5,6.4-0.6,7.2-1,8l-3.6-0.6c0.1-3.3-2.7-6-6.6-6.4
	c-3.9-0.1-7.2,2.6-7.9,4.1c0.1,0-1.7,0.2-1.7,0.2c0-3.2-4.5-4.7-7.1-4.7c-2.7,0-5,1.1-7.6,4.8c0.1,0-1.3,0.2-1.3,0.2
	c-0.7-3.3-5.6-4.8-8-4.4c-2.4,0.5-5.9,1.7-6.4,5.6c0.1,0-3.2,0.4-3.2,0.4c-0.6-1.9-1.8-7.5-1.8-7.5"/>
<polygon class="st9" points="40.3,49.2 44.8,49 44.8,50.5 40.3,50.5 "/>
<polygon class="st9" points="56.7,49 60.7,49.3 60.7,50.6 56.6,50.4 "/>
<polygon class="st9" points="28.5,51.6 28.5,50.1 24,50.7 24.2,52.2 "/>
<polygon class="st9" points="72.7,50.3 72.5,51.6 77.4,52.2 77.5,50.8 "/>
<g>
	<g>
		<path class="st10" d="M73.2,27.6l-0.8-0.8l-6.4,5.7c-0.4,0.3-1.7,0.7-2.5,0.6c-0.6-0.2-1,0.5-1.2,0.8c-0.1,0.2-0.1,0.6,0.6,0.9
			c0.8,0.4,2.1,0.6,3.1-0.5l5.8-6.2c0.3-0.2,0.7-0.5,1.1-0.2L73.2,27.6z"/>
	</g>
</g>
<g>
	<g>
		<path class="st10" d="M64,27.6l0.8-0.8l6.4,5.7c0.4,0.3,1.7,0.7,2.5,0.6c0.6-0.2,1,0.5,1.2,0.8c0.1,0.2,0.1,0.6-0.6,0.9
			c-0.8,0.4-2.1,0.6-3.1-0.5l-5.8-6.2c-0.3-0.2-0.7-0.5-1.1-0.2L64,27.6z"/>
	</g>
</g>
<g>
	<circle class="st11" cx="68.3" cy="31.1" r="1.8"/>
	<path class="st12" d="M66.9,32.2c-0.1-0.4,0.1-1.4,0.8-1.9"/>
	<path class="st12" d="M67.1,29.7c0.2,0.1,1,0.7,1.2,1.3c-0.8,0.7-0.6,1.5-0.6,1.7"/>
	<path class="st12" d="M68,29.3c0.3,0.2,1.2,1.2,1.2,1.7"/>
	<path class="st12" d="M68.2,31.1c0.2,0,1.1,0.2,1.7-0.3"/>
	<path class="st12" d="M67.7,32.1c0.3,0.1,1.3,0.2,2.2-0.3"/>
</g>
<path class="st13" d="M75.8,22.3c-13.1-9-36.1-10-50.7,0c-9.8,22.5,3.1,54.2,25.6,62.5C67.7,78.4,87.3,51.3,75.8,22.3z"/>
<path class="st14" d="M13,13.2C34.1-2.8,66.7-3.2,87,13c0,0.3-7.5,7.5-7.5,7.5C64.7,9.5,41.1,7.7,21.4,19.9
	C21.4,19.6,13,13.2,13,13.2z"/>
<path class="st14" d="M82.6,82.5c-17.8,22.1-47.9,21.9-63.5-0.1l6.7-7.2c7.2,11.5,31.1,23.8,49.8,0.1L82.6,82.5z"/>
<g>
	<path d="M27.9,85.6c0.2-0.4,0.5-0.9,0.2-1.3c-0.1-0.1-0.6-0.6-1.4,0c-0.8,0.6-1.1,1.5-0.7,2c0.2,0.2,0.4,0.3,1.1,0.3l0,0.6
		c-0.5,0-0.9-0.2-1.3-0.8c-0.9-1.2-0.5-2.3,0.1-2.7c0.5-0.4,1.7-0.8,2.7,0.6c0.3,0.5,0.5,1.1,0.4,1.5L27.9,85.6z"/>
	<path d="M29.3,90.1l-0.8-0.8l0-1.4l-0.7,0.7L27.1,88l2-2c0.2-0.3,0.2-0.6,0-0.9l0.1-0.1l1,0.9L30,86.2c0.3,0,0.6,0,0.9,0.3
		c0.4,0.4,0.6,1.4-0.1,2c-0.6,0.6-1.3,0.4-1.5,0.3L29.3,90.1z M29.2,87c-0.7,0.7-0.5,1.3-0.3,1.5c0.2,0.2,0.5,0.2,0.9-0.2
		c0.5-0.5,0.8-1.3,0.5-1.6C30.1,86.4,29.6,86.6,29.2,87z"/>
	<path d="M33.8,91.2c-0.5,0.7-1.7,1.1-2.6,0.4c-1.2-0.9-0.9-2-0.5-2.5c0.5-0.8,1.6-1,2.7-0.3C34.2,89.4,34.4,90.4,33.8,91.2z
		 M31.7,89.2c-0.5,0.7-0.8,1.8-0.3,2.2c0.3,0.2,0.8,0.2,1.2-0.3c0.3-0.4,1-1.8,0.3-2.3C32.6,88.7,32.1,88.7,31.7,89.2z"/>
	<path d="M36.1,90.6l-1.6,2.9l-0.9-0.5l1.2-2.1c0.3-0.5,0.1-0.7-0.2-1l0.1-0.2L36.1,90.6z M37,89.7l-1.9-0.3l0-0.2l1.6-0.4L37,89.7z
		"/>
	<path d="M39.3,92l0,0.5c0.4-0.3,0.8-0.3,1.2-0.2c0.6,0.2,1,0.8,0.7,1.6l-0.7,2l-0.9-0.3l0.7-2.1c0.2-0.5,0-0.9-0.3-1
		c-0.5-0.2-0.8,0.2-1,0.8l-0.6,1.8l-0.9-0.3l0.7-2c0.2-0.6,0.3-0.9-0.2-1.2l0.1-0.2L39.3,92z"/>
	<path d="M46.1,94.3l-0.7,0.2L45,96.9l-1-0.2l0.1-0.3c-0.4,0.2-0.7,0.3-1.2,0.2c-1.2-0.2-1.6-1.2-1.4-1.9c0.2-1,1.3-1.7,2.4-1.5
		c0.8,0.2,1.4,0.8,1.9,0.9c0.1,0,0.4,0,0.4,0L46.1,94.3z M44.5,94.2c-0.2-0.3-0.4-0.7-0.9-0.7c-0.8-0.1-1,0.7-1.1,1
		c-0.2,0.9,0.2,1.7,0.8,1.8c0.3,0.1,0.6-0.1,0.8-0.3L44.5,94.2z"/>
	<path d="M49.2,91.7l0,2.6c0.2-0.2,0.4-0.5,1-0.5c0.4,0,1.3,0.2,1.2,1.3l0,2.2l-1,0l0-2c0-0.5-0.1-1-0.6-1c-0.4,0-0.7,0.4-0.7,0.8
		l0,2.2l-1,0l0-4.3c0-0.5,0-0.8-0.6-1l0-0.2L49.2,91.7z"/>
	<path d="M56.6,92.9c-0.6-0.8-1.1-1-1.7-0.9c-1.2,0.2-1.5,1.2-1.4,2l3.4-0.5l0.1,0.4l-3.4,0.5c0.4,1.5,1.6,2.1,2.4,2
		c0.6-0.1,0.9-0.6,1.2-1l0.9,0.4c-0.4,0.4-1.1,1-2.3,1.2c-1.9,0.3-3.3-0.8-3.5-2.1c-0.2-1.3,0.7-3,3-3.3c1.2-0.2,1.8,0.1,2.3,0.4
		L56.6,92.9z M55.7,90.3l-1.9,1l-0.1-0.1l1.2-1.5L55.7,90.3z"/>
	<path d="M59,92.6l0.8,3.2l-1,0.3l-0.6-2.3c-0.1-0.6-0.4-0.6-0.8-0.6l0-0.2L59,92.6z M58.7,91.4c0.1,0.3-0.1,0.6-0.4,0.7
		c-0.3,0.1-0.6-0.1-0.7-0.4C57.5,91.4,57.7,91,58,91C58.3,90.9,58.6,91.1,58.7,91.4z"/>
	<path d="M60.7,92.1l0.3,0.4c0-0.2,0.2-0.6,0.6-0.8c0.3-0.1,0.5-0.1,0.8,0.1L62,92.6c-0.1-0.1-0.3-0.5-0.6-0.4
		c-0.3,0.1-0.3,0.4-0.3,0.6l0.8,2.4l-1,0.3l-0.7-2.2c-0.2-0.6-0.3-0.8-0.8-0.6l-0.1-0.2L60.7,92.1z"/>
	<path d="M65.8,91.1l0.1,0.3l-2.5,1.1c0.5,1.2,1.3,1.4,1.8,1.1c0.5-0.2,0.6-0.8,0.6-0.9l0.5,0.2c-0.1,0.2-0.3,0.8-1.2,1.1
		C64,94.6,63,94,62.7,93.2c-0.4-0.8,0-2,1.2-2.5c0.5-0.2,1.1-0.3,1.5-0.1l-0.3,0.8L65.8,91.1z M64.9,91.5c0-0.1,0-0.2,0-0.2
		c-0.1-0.3-0.5-0.4-1-0.2c-0.6,0.3-0.7,0.9-0.6,1.1L64.9,91.5z"/>
	<path d="M69.4,88.4L69,89l1.2,2.1l-0.9,0.5l-0.2-0.3c-0.2,0.4-0.3,0.7-0.8,0.9c-1,0.6-2,0.2-2.4-0.5c-0.5-0.9-0.1-2.1,0.8-2.7
		c0.7-0.4,1.6-0.3,2-0.6c0.1-0.1,0.3-0.2,0.4-0.3L69.4,88.4z M68.1,89.5c-0.3-0.1-0.7-0.2-1.1,0c-0.7,0.4-0.3,1.2-0.1,1.5
		c0.4,0.7,1.3,1.1,1.8,0.8c0.3-0.2,0.4-0.5,0.4-0.8L68.1,89.5z"/>
	<path d="M69.9,87.2l0.4,0.3c-0.1-0.5,0.2-0.9,0.4-1.1c0.5-0.4,1.2-0.5,1.8,0.3l1.3,1.7l-0.8,0.6l-1.4-1.7c-0.4-0.4-0.7-0.5-1-0.3
		c-0.4,0.3-0.3,0.8,0.2,1.3l1.2,1.5l-0.8,0.6L70,88.7c-0.4-0.5-0.6-0.7-1.1-0.4l-0.1-0.1L69.9,87.2z"/>
	<path d="M72.9,84.6l0.5,0.2c-0.1-0.5,0-0.9,0.3-1.2c0.4-0.4,1.1-0.6,1.8,0l1.6,1.5l-0.7,0.7l-1.6-1.5c-0.4-0.4-0.8-0.4-1-0.1
		c-0.3,0.4-0.2,0.8,0.3,1.2l1.4,1.3l-0.7,0.7L73.2,86c-0.5-0.4-0.7-0.7-1.2-0.3l-0.1-0.1L72.9,84.6z"/>
</g>
<path d="M28.7,10.6c-0.3-0.4-0.4-0.6-0.7-0.4c-0.2,0.1-0.7,0.7-0.3,1.6c0.4,1,1,1,1.7,0.7c0.3-0.1,1-1.3,1.2-2l-0.2,1.7
	c-0.1,0.2-0.5,0.8-0.8,0.9c-1.3,0.3-2.6-0.2-2.9-1c-0.3-0.6-0.1-2,1.1-2.5c0.6-0.2,1.4-0.4,1.7,0.3L28.7,10.6z"/>
<path d="M44.8,7l0.1,2.8c0,0.5-1,1.5-1.6,1.5c-1.5,0.1-1.9-0.5-2.1-0.7c-0.1-0.1,0.4,0,0.4-0.2c0-0.4,0.3-0.7,0.7-0.9
	C41.3,9.3,41,8.8,41,8c0-0.5,0.2-1.1,0.5-1.5c0.1-0.1-1.5,0.2-1.3,0c0.4-0.3,0.9-0.9,1-0.9c0.1-0.1,0.4,0.2,0.8,0.2
	c0.3,0,0.9,0,1.2,0c0.6,0,0.8-0.1,1.3,0.1C44.8,5.9,44.8,6.7,44.8,7z M44,6.4c-0.2-0.2-2,0.1-2.1,1.1c-0.1,0.7,0,1.5,1,1.4
	c0.3,0,0.7-0.4,0.9-0.6L44,6.4z M44,9.1c-0.5,0.5-1,0.5-1.3,0.5c-0.1,0.2-0.1,0.2-0.1,0.5c0,0.4,0.2,1,0.9,1c0.5,0,0.6-0.5,0.6-0.9
	L44,9.1z"/>
<path d="M46.5,8.7c0,0.3-0.2,0.5-0.5,0.5c-0.3,0-0.5-0.2-0.5-0.5c0-0.3,0.2-0.5,0.5-0.5C46.3,8.2,46.5,8.4,46.5,8.7z"/>
<path d="M38.2,9.7c0,0.3-0.2,0.5-0.5,0.5c-0.3,0-0.5-0.2-0.5-0.5c0-0.3,0.2-0.5,0.5-0.5C38,9.2,38.2,9.4,38.2,9.7z"/>
<path d="M31.9,11.6c0,0.3-0.2,0.5-0.5,0.5c-0.3,0-0.5-0.2-0.5-0.5c0-0.3,0.2-0.5,0.5-0.5C31.7,11.2,31.9,11.4,31.9,11.6z"/>
<path d="M53.9,2.8V9l-1,0l0-4.8c0-1-0.6-1.1-1-1.2l0-0.2L53.9,2.8z"/>
<path d="M63.4,6.4l0.1,0.3c0.2-0.2,1.7-0.2,1.8,0.6C65.3,7,66.3,7,67,7.2c0.6,0.1,1.9,1.2,0.4,4.1l-1.1-0.3c1.4-2.2,0.5-3.1-0.5-3
	c0,0-0.1,0-0.1,0.1c0.1,0.8-0.5,2.5-0.6,2.7l-1-0.3l0.6-1.7c0.2-0.7,0.1-1.3-0.3-1.4c-0.4-0.1-1,0.1-1.2,0.8l-0.3,1.5l0.1,0.6
	l-1.6-0.4L62,9.2l0.4-1.6c0.2-0.9-0.2-0.7-0.2-0.7V6.4H63.4z"/>
<path d="M70.9,6.7l-1,1.8c0.2-0.1,0.7,0,1.2,0.2c0.4,0.1,2.4,1.3-0.1,4.1L70,12.2c0.4-0.3,1.7-2.9,0.2-3c-0.4,0-0.7,0.2-0.9,0.6
	l-0.7,2l-0.9-0.3L69.1,8c0.2-0.5,0.3-0.3-0.2-0.7l0-0.5L70.9,6.7z"/>
<path d="M74.1,10.1l-1.3,2.9l0.1,0.6L71.5,13l1.3-2.4c0.2-0.5,0-0.7-0.2-0.9l0.1-0.2L74.1,10.1z M75.2,10l-1.7-0.2l-0.2-0.6L75.2,9
	V10z"/>
<path d="M56.2,6.9c-0.4,0-0.8,0.7-0.8,0.9c0,0.4,0.1,0.6,0.8,0.7c0.2,0,0.8-0.4,1-0.5l0.2,0.3c-0.6,0.8-1.2,1-2.2,0.8
	c-0.7-0.1-1-0.7-1-1.2c0.1-0.7,0.5-1.5,2.2-1.6C56,5.7,55.9,6,55.8,6c-0.1,0-0.4,0.2-0.5,0.3l-0.4,0L56.1,5c0.2-0.1,0-0.2,0.2-0.2
	c0,0,1.5,1.8,1.8,3.7c0.1,0.6,0.2,0.8,0.5,0.9l-1.1,0.1C57.1,7.9,56.7,6.9,56.2,6.9z"/>
<g>
	<g>
		<path d="M60.7,7.9c2.3-0.1,0.7-2.8-1.2-1.9l-1.9-0.5c0,0,1.1,0.8,1.2,1.1c-0.1,0.6-0.7,2.2-1.1,2.7c0,0,2.2,0.2,2.2,0.3
			c-0.3-0.1-0.6-0.8-0.6-1.3c0,0,0.6,0.1,0.5,0c0.2,0.3,0.8,1.1,1.3,1.4h1.3C61.7,9.5,61,8.9,60.7,7.9z M59.5,7.6
			c0.4-0.9,0.7-1.2,1.1-1C61,6.8,60.7,7.5,59.5,7.6z"/>
	</g>
</g>
<path d="M33.5,6.2l2-1.2c-0.7,2.1-1,5.6,1.5,5.1l0.1,0.8c-2.3,0.3-3.7-1.7-2.8-4.3C34.2,6.5,33.5,6.2,33.5,6.2z"/>
</svg>
