<?xml version="1.0" encoding="utf-8"?>
<!-- Generator: Adobe Illustrator 19.0.1, SVG Export Plug-In . SVG Version: 6.00 Build 0)  -->
<svg version="1.1" id="Layer_1" xmlns="http://www.w3.org/2000/svg" xmlns:xlink="http://www.w3.org/1999/xlink" x="0px" y="0px"
	 viewBox="0 0 100 100" style="enable-background:new 0 0 100 100;" xml:space="preserve">
<style type="text/css">
	.st0{stroke:#0054A4;stroke-width:0.5415;stroke-linecap:round;stroke-linejoin:round;}
	.st1{fill:#FFD200;}
	.st2{fill:#00A94F;}
	.st3{fill:none;stroke:#000000;stroke-width:0.8062;}
	.st4{fill:#FAA61A;stroke:#0054A4;stroke-width:1.6413;stroke-linecap:round;stroke-linejoin:round;}
	.st5{fill:#FFFFFF;stroke:#000000;stroke-width:0.5495;stroke-linecap:round;stroke-linejoin:round;}
	.st6{fill:none;stroke:#000000;stroke-width:0.5495;stroke-linecap:round;stroke-linejoin:round;}
	.st7{fill:#EE3124;stroke:#000000;stroke-width:0.5495;}
	.st8{fill:#FFFFFF;stroke:#000000;stroke-width:0.4103;}
	.st9{stroke:#000000;stroke-width:0.1103;}
	.st10{fill:#0054A4;stroke:#000000;stroke-width:1.0942;stroke-linecap:round;stroke-linejoin:round;}
	.st11{fill:#C9CDD3;stroke:#000000;stroke-width:0.8207;stroke-linecap:round;stroke-linejoin:round;}
	.st12{fill:#00AE57;}
	.st13{fill:none;stroke:#000000;stroke-width:0.5471;stroke-linecap:round;stroke-linejoin:round;}
	.st14{fill:none;stroke:#000000;stroke-width:0.3846;stroke-linecap:round;stroke-linejoin:round;}
	.st15{fill:none;stroke:#0054A4;stroke-width:1.6413;stroke-linecap:round;}
	.st16{fill:#FFFFFF;}
	.st17{fill:none;stroke:#000000;stroke-width:0.9731;stroke-linecap:round;stroke-linejoin:round;}
	.st18{stroke:#000000;stroke-width:0.2748;stroke-linecap:round;stroke-linejoin:round;}
</style>
<g>
	<path class="st0" d="M50.8,87.9c28.6-23.4,30.8-48.3,30.8-48.3c-7.4-18.9,1.8-38.2,1.8-38.2H50.8H17.9c0,0,9.5,19.3,2.1,38.2
		C20,39.7,22.2,64.5,50.8,87.9z"/>
	<path class="st1" d="M50.8,84.8C77,62.9,79.1,39.7,79.1,39.7C72.3,22,79.8,4,79.8,4h-29h-29c0,0,7.5,18,0.7,35.7
		C22.5,39.7,24.5,62.9,50.8,84.8z"/>
	<path class="st2" d="M79.1,39.7c0,0-2,23.2-28.3,45.1C31.1,68.4,25,51.2,23.2,43.6c0,0,4.7,1.2,11.1-3c0,0,15.6-12.8,19.9-17.3
		c0,0,2.4-3.3,5.5,0.1C59.7,23.4,71.7,37.6,79.1,39.7z"/>
	<path class="st3" d="M23.2,43.6c0,0,4.7,1.2,11.1-3c0,0,15.6-12.8,19.9-17.3c0,0,2.4-3.3,5.5,0.1c0,0,12,14.1,19.4,16.2"/>
	<path class="st4" d="M23.2,43.6"/>
	<g>
		<path class="st5" d="M48.6,65.6c3,0,5.5-2.5,5.5-5.5c0-3-2.5-5.5-5.5-5.5C45.5,54.5,43,57,43,60C43,63.1,45.5,65.6,48.6,65.6z"/>
		<path class="st6" d="M48.4,54.6c-0.9,0.9-2.6,3.5-1.8,6.3"/>
		<path class="st6" d="M46.4,55c-0.7,0.8-2.5,3.3-1.7,6.2"/>
		<path class="st6" d="M43.2,61.2c0.8,0.2,3.6,0.2,5.3-1.1c-0.7-3,1.2-4.8,1.7-5.3"/>
		<path class="st6" d="M43.9,63.1c1.1,0.1,5.1-0.7,6.1-1.8"/>
		<path class="st6" d="M45.6,64.6c1.5,0,4.7-0.7,5.9-1.8"/>
		<path class="st6" d="M48.5,60c0.6,0.3,3.2,1.6,3.6,3.9"/>
		<path class="st6" d="M48.5,57.9c0.8,0.2,3.9,1.3,5.1,4"/>
		<path class="st6" d="M49.2,56.1c0.7,0.2,3.1,0.9,4.7,3.1"/>
	</g>
	<path class="st7" d="M55.2,74.3c0,0-2.3-4.7-6.2-5.6c0,0-4-0.7-4.8-0.7c0,0-1-0.2-1.4-1.7c0,0-1.1-3.5-0.7-4.5c0,0,0.3-0.8,0.5,0.3
		c0.1,0.6,0.3,1.2,0.6,1.7c0.2,0.5,0.6,1,1,1.4c0.5,0.6,0.9,0.5,1.6,0.5c0.8,0,1.7,0.6,2.6,0.2c0,0-0.2-0.9-0.6-1.9
		c-0.1-0.2-0.3-0.6-0.2-0.9c0.5-1.1,1.2,0.8,1.5,1.2c0.5,1,1.2,2,2.2,2.6c0,0,4.8,3.4,6.6,3.9"/>
	<g>
		<path class="st7" d="M60.7,60.3L59,59.1l-9.4,13.2c-0.6,0.7-1.4,1.9-3.7,1.9c-1.1,0-1.5,0.9-1.6,1.4c0,0.4,0.1,1.1,1.5,1.3
			c1.7,0.4,3,0.5,4-1.3l8.9-14.3c0.4-0.4,1-1.2,1.8-0.8L60.7,60.3z"/>
		<polygon points="59,60.9 58.1,60.4 54.9,64.7 56,65.4 		"/>
	</g>
	<g>
		<g>
			<path class="st8" d="M49.9,72.2c0.9,0,1.7-0.8,1.7-1.7c0-0.9-0.8-1.7-1.7-1.7c-1,0-1.7,0.8-1.7,1.7
				C48.1,71.4,48.9,72.2,49.9,72.2z"/>
			<path class="st9" d="M48.2,69.8c-0.1-0.3,0.1-0.8,0.6-0.7c0.4,0.1,0.8,0.5,1,1.2c0.2,0.4,0.5,0.9,1.1,0.9c0.4,0,0.7-0.4,0.5-1
				c-0.1-0.4-0.2-0.8-0.7-1.2c-0.4-0.2-0.5-0.4-1.5-0.2c0.4-0.2,1-0.4,1.7,0c0.5,0.4,0.9,0.9,0.8,1.9c-0.1,0.5-0.6,1.1-1.4,0.7
				c-0.4-0.2-0.6-0.5-0.8-1.3c-0.1-0.4-0.4-0.7-0.7-0.7C48.5,69.5,48.3,69.6,48.2,69.8z"/>
		</g>
	</g>
	<g>
		<path class="st10" d="M50.8,46.5c3.9,5.8,13.6,15.3,13.6,15.3c8.9-10.4,9.8-22.8,9.8-22.8c-5.8-16.4,0.5-30.8,0.5-30.8
			s-10.4,12.2-4.7,28.1c0,0-0.4,10.4-7.3,18.8c0,0-7.7-6.9-12-11.9c-4.2,4.9-12,11.9-12,11.9c-6.9-8.4-7.3-18.8-7.3-18.8
			c5.6-15.9-4.8-28.1-4.8-28.1s6.4,14.4,0.5,30.8c0,0,0.9,12.4,9.8,22.8C37.1,61.9,46.9,52.4,50.8,46.5z"/>
		<path d="M26.9,8.4c0,0,11.5,9.7,5.8,27.9c0,0,1.4,11.5,6.9,17.7l-1,0.7c0,0-6.4-6.7-7.1-18.9C31.6,35.9,37.7,23.4,26.9,8.4z"/>
		<path d="M74.6,8.4c0,0-11.5,9.7-5.8,27.9c0,0-1.4,11.5-6.9,17.7l1,0.7c0,0,6.4-6.7,7.1-18.9C70,35.9,63.8,23.4,74.6,8.4z"/>
	</g>
	<path class="st11" d="M37.9,44.7V17.5c0,0,3.5,2.5,7.8,0v26.9C45.7,44.4,42,46.9,37.9,44.7z"/>
	<path class="st11" d="M45.7,17.5c-4.3,2.5-7.8,0-7.8,0l4.3-9.3L45.7,17.5z"/>
	<rect x="42.1" y="21.5" width="1.2" height="2.3"/>
	<rect x="40.2" y="29.2" width="1.2" height="2.3"/>
	<path class="st12" d="M48.5,38.5c-2.3,0.6-1.5,2.9-1.5,2.9c-4.1-1.1-4.2,4.5-4.2,4.5s3.4,1.4,5.2-3.2L48.5,38.5z"/>
	<path class="st13" d="M42.8,45.6c0,0,0-4.9,3.7-4.4c0,0-0.7-2.7,2-2.7c0,0-0.7-2.1,1.4-2.4c0,0,0.7-1.8,2.8-0.1c0,0,1.3-0.8,1.7,1
		c0,0,2.3-0.1,2.8,1.8c0,0,1.3-0.1,1.6,0.7c0,0,1.1-2.6,3.3-1.1c0,0,2.4-0.3,2.4,1.4c0,0,2.1-0.3,2.3,1.4"/>
	<path class="st14" d="M52.8,38.1c0,0,0.5,0.3,0.6,0.9c0,0,0-0.6,0.7-0.5"/>
	<path class="st14" d="M47.9,40.3c0,0,0.5,0.3,0.6,0.9c0,0,0-0.6,0.7-0.5"/>
	<path class="st14" d="M57.4,41.5c0,0,0.5,0.3,0.6,0.9c0,0,0-0.7,0.7-0.5"/>
	<path class="st14" d="M62.8,40.5c0,0,0.5,0.3,0.6,0.9c0,0,0-0.6,0.7-0.5"/>
	<polyline class="st14" points="38.3,22.9 38.3,23.8 40.6,23.9 40.5,22.6 39.1,22.6 	"/>
	<polyline class="st14" points="39.4,25.2 39.3,24 41.6,23.9 42,25.4 40.3,25.2 	"/>
	<path class="st14" d="M38.2,25.5l0.1,1.1l1.1,0.2l1-0.1l0.2-1.3C40.6,25.4,38.6,25.6,38.2,25.5z"/>
	<polyline class="st14" points="44.8,34.3 44.8,34 43.7,33.6 42.9,33.9 42.7,35.1 44.4,35 	"/>
	<polyline class="st14" points="42.8,35.2 41.7,35.2 41.9,36.5 44,36.6 44,35.7 	"/>
	<polygon class="st14" points="42.7,38.1 42.7,36.8 43.8,36.6 45,36.8 44.9,38.1 	"/>
	<polyline class="st14" points="43.6,39 43.6,38.2 40.3,38.2 40.3,39.4 41.8,39.5 42.6,39.6 	"/>
	<path class="st13" d="M40.6,16.4c0,0,1.7,0.8,4.2-0.4"/>
	<path class="st15" d="M50.8,84.8C77,62.9,79.1,39.7,79.1,39.7C72.3,22,79.8,4,79.8,4h-29h-29c0,0,7.5,18,0.7,35.7
		C22.5,39.7,24.5,62.9,50.8,84.8z"/>
	<path class="st16" d="M50,89.7c-4.5,0-19.2-1-27.4-9.2l-0.1-0.2c0.6-0.7,1.1-1.7,1.3-2.5l-0.3,0.1c0.6-0.3,0.6-1-1.7-1.9
		c-1.4-0.6-3.9-2.1-7.9-7.8c-0.3,1.2,1,5.8,2.2,8.3c-3.5-1.1-4.1-1.8-7-4.4c0.8,4.8,4.3,9.1,8.2,11.5l0.1,0.4c-0.6,0.8-1.3,1.7,0,3
		c0.4,0.4,0.7,0.6,0.9,0.8c9.9,8,20.3,10.7,31.6,10.7h0.2c11.3,0,21.7-2.7,31.6-10.7c0.2-0.1,0.5-0.4,0.9-0.8c1.2-1.3,0.6-2.2,0-3
		l0.1-0.4c3.9-2.4,7.4-6.7,8.2-11.5c-2.9,2.7-3.5,3.3-7,4.4c1.2-2.6,2.5-7.1,2.2-8.3c-4,5.7-6.5,7.2-7.9,7.8
		c-2.3,0.8-2.2,1.6-1.7,1.9l-0.3-0.1c0.2,0.7,0.6,1.8,1.3,2.5l-0.1,0.2C69.2,88.7,54.5,89.7,50,89.7L50,89.7z"/>
	<path class="st17" d="M50,89.7c-4.5,0-19.2-1-27.4-9.2l-0.1-0.2c0.6-0.7,1.1-1.7,1.3-2.5l-0.3,0.1c0.6-0.3,0.6-1-1.7-1.9
		c-1.4-0.6-3.9-2.1-7.9-7.8c-0.3,1.2,1,5.8,2.2,8.3c-3.5-1.1-4.1-1.8-7-4.4c0.8,4.8,4.3,9.1,8.2,11.5l0.1,0.4c-0.6,0.8-1.3,1.7,0,3
		c0.4,0.4,0.7,0.6,0.9,0.8c9.9,8,20.3,10.7,31.6,10.7h0.2c11.3,0,21.7-2.7,31.6-10.7c0.2-0.1,0.5-0.4,0.9-0.8c1.2-1.3,0.6-2.2,0-3
		l0.1-0.4c3.9-2.4,7.4-6.7,8.2-11.5c-2.9,2.7-3.5,3.3-7,4.4c1.2-2.6,2.5-7.1,2.2-8.3c-4,5.7-6.5,7.2-7.9,7.8
		c-2.3,0.8-2.2,1.6-1.7,1.9l-0.3-0.1c0.2,0.7,0.6,1.8,1.3,2.5l-0.1,0.2C69.2,88.7,54.5,89.7,50,89.7L50,89.7z"/>
	<path class="st16" d="M82.6,84c-3-4.3-2.2-4.5-3.2-6.1"/>
	<path class="st17" d="M82.6,84c-3-4.3-2.2-4.5-3.2-6.1"/>
	<path class="st17" d="M77.3,80.5c0.8-0.5,1.5-1.2,1.9-1.8c0.7-1.2,0.1-1.3-2-0.7c-0.2,0-0.5,0-0.7-0.1"/>
	<path class="st16" d="M17.4,84c3-4.3,2.2-4.5,3.2-6.1"/>
	<path class="st17" d="M17.4,84c3-4.3,2.2-4.5,3.2-6.1"/>
	<path class="st17" d="M22.7,80.5c-0.8-0.5-1.5-1.2-2-1.8c-0.7-1.2-0.1-1.3,2-0.7c0.2,0,0.5,0,0.7-0.1"/>
	<g>
		<path class="st18" d="M23.3,85L23.3,85c0-0.6-0.4-1-0.6-1.2c-0.5-0.4-1.6-0.4-2.3,0.5c-0.6,0.8-0.4,1.7,0.3,2.2
			c0.4,0.3,1.3,0.4,1.9,0.4l0,0c-0.2,0.1-0.6,0.4-0.8,0.6l-1.1-0.8c0,0-0.1-0.1-0.2-0.1c-0.1-0.1-0.2-0.1-0.2-0.1
			c-0.6-0.4-0.8-0.7-0.9-1.3c0-0.4,0.1-0.8,0.4-1.2c0.3-0.4,1-1.1,2.1-0.7c0.4,0.1,1.2,0.5,1.4,0.7c0.4,0.3,0.7,0.7,0.8,1.2l0,0
			L23.3,85z"/>
		<path class="st18" d="M22.7,88c0.1-0.1,0.2-0.2,0.5-0.5c0.3-0.4,0.5-0.8,0.8-1.2c0.4-0.6,0.6-1,0.7-1.4l0,0c0.1,0,0.1,0.1,0.4,0.3
			c0.2,0.1,0.3,0.2,0.3,0.2l0,0c-0.2,0.1-0.2,0.2-0.4,0.4c-0.3,0.5-0.6,0.9-0.9,1.4c-0.3,0.4-0.4,0.7-0.5,0.9
			c-0.1,0.1-0.1,0.2-0.1,0.3l0,0c-0.1-0.1-0.2-0.2-0.4-0.3C22.8,88.1,22.8,88.1,22.7,88L22.7,88z"/>
		<path class="st18" d="M26.1,90c-0.1,0-0.3-0.2-0.3-0.2c0,0-0.1-0.1-0.2-0.1c-0.2-0.1-0.6-0.4-0.6-0.4c-0.2-0.1-0.5-0.3-0.7-0.4
			l0,0c0.1-0.1,0.2-0.2,0.3-0.4c0.2-0.4,1-1.7,1.1-1.8c0.2-0.3,0.4-0.7,0.4-1l0,0c0,0,0.1,0.1,0.3,0.2c0,0,0.2,0.1,0.4,0.2l0,0
			c-0.4,0.4-0.8,1.1-1.3,2c-0.3,0.5-0.4,0.7-0.4,0.8c0,0.1,0,0.2,0.2,0.2c0.7,0.4,1.3,0.5,1.3,0.5l0,0L26.1,90z"/>
		<path class="st18" d="M28.8,91.4c-0.1,0-0.3-0.1-0.4-0.2c0,0-0.1,0-0.2-0.1c-0.2-0.1-0.6-0.3-0.7-0.4c-0.2-0.1-0.5-0.2-0.7-0.3
			l0,0c0.1-0.1,0.2-0.2,0.3-0.4c0.2-0.4,0.9-1.8,1-1.9c0.1-0.3,0.3-0.7,0.4-1l0,0c0,0,0.1,0.1,0.3,0.2c0,0,0.2,0.1,0.4,0.2l0,0
			c-0.3,0.4-0.7,1.2-1.2,2.1c-0.3,0.5-0.3,0.7-0.3,0.8c0,0.1,0,0.2,0.2,0.2c0.7,0.4,1.3,0.4,1.4,0.4l0,0L28.8,91.4z"/>
		<path class="st18" d="M36.3,90.4c0,0,0.2,0.1,0.3,0.1c0.1,0,0.6,0.2,0.7,0.2l0,0c-0.1,0-0.2,0.1-0.3,0.1c-0.1,0.1-0.2,0.5-0.3,0.8
			c-0.2,0.5-0.5,1.6-0.6,2.1c0,0.2,0,0.3,0,0.5l0,0c-0.1,0-0.1-0.1-0.3-0.1c-0.2-0.1-0.3-0.1-0.5-0.2l0,0c0.1-0.1,0.2-0.3,0.4-0.8
			c0.2-0.5,0.5-1.4,0.6-1.9c-0.8,0.8-2,2-2.1,2.1c0,0,0,0.2,0.1,0.3l0,0c-0.1,0-0.2-0.1-0.4-0.2c-0.3-0.1-0.4-0.1-0.4-0.1l0,0
			c0-0.2,0-0.5,0-0.6c-0.1-0.7-0.3-2.2-0.4-2.6c-0.2,0.4-0.2,0.5-0.4,1c-0.2,0.6-0.5,1.4-0.5,1.7l0,0c-0.1,0-0.2-0.1-0.4-0.2
			c-0.2-0.1-0.3-0.1-0.4-0.1l0,0c0.2-0.1,0.3-0.3,0.4-0.5c0.1-0.3,0.4-1.1,0.5-1.4c0-0.1,0.3-0.9,0.4-1.2c0-0.2,0-0.2-0.1-0.4l0,0
			c0.1,0,0.4,0.2,0.5,0.2c0.2,0.1,0.4,0.1,0.6,0.2l0,0c0,0.7,0.3,3,0.4,3.3c0.8-0.8,1.1-1.1,1.9-1.9C36.1,90.6,36.2,90.5,36.3,90.4
			L36.3,90.4z"/>
		<path class="st18" d="M37.8,93.4c-0.2,0.8-0.2,0.9-0.2,1.2l0,0c-0.1,0-0.1-0.1-0.4-0.1c-0.2,0-0.4-0.1-0.4-0.1l0,0
			c0.1-0.1,0.1-0.2,0.2-0.4c0.2-0.5,0.3-0.9,0.4-1.4c0.2-0.9,0.3-1.4,0.3-1.8l0,0c0.2,0.1,0.3,0.1,0.5,0.1c0.2,0,0.2,0.1,0.3,0.1
			l0,0c-0.2,0.4-0.3,0.9-0.5,1.5l1.5,0.4c0.2,0.1,0.4,0.1,0.6,0.1c0.1-0.5,0.3-1.3,0.3-1.6l0,0c0.1,0,0.1,0,0.4,0.1
			c0.3,0.1,0.3,0.1,0.4,0.1l0,0c-0.1,0.2-0.3,0.8-0.5,1.6c-0.3,1.2-0.4,1.7-0.3,2l0,0c-0.1,0-0.2-0.1-0.5-0.1
			C39.6,95,39.5,95,39.4,95l0,0c0.2-0.3,0.3-0.6,0.5-1.6l-1-0.2c-0.2,0-0.9-0.2-1-0.2L37.8,93.4z"/>
		<path class="st18" d="M44.4,95.9c-0.1,0-0.2-0.1-0.5-0.1c-0.2,0-0.4,0-0.5-0.1l0,0c0-0.2,0-0.4,0-0.6c-0.1-0.5-0.1-0.6-0.1-0.6
			c-0.1,0-0.1,0-0.6-0.1c-0.1,0-0.5-0.1-0.7-0.1c-0.1,0.1-0.4,0.7-0.4,0.8c-0.1,0.1-0.1,0.2-0.1,0.3l0,0c-0.1,0-0.2-0.1-0.4-0.1
			c-0.2,0-0.2,0-0.3,0l0,0c0.2-0.2,0.4-0.5,0.6-0.8c0.4-0.7,1.3-2.3,1.3-2.4c0,0,0-0.1-0.1-0.3l0,0c0.1,0,0.6,0.1,0.7,0.1
			c0.1,0,0.2,0,0.3,0l0,0c0.1,0.8,0.2,1.9,0.4,2.6C44.2,95.4,44.2,95.6,44.4,95.9L44.4,95.9z M42.1,94c0.2,0,0.4,0.1,0.6,0.1
			c0.3,0.1,0.4,0.1,0.5,0.1c-0.1-0.6-0.2-1.1-0.3-1.6C42.7,93,42.3,93.6,42.1,94z"/>
		<path class="st18" d="M48.3,92.4c0.1,0,0.2,0,0.4,0c0.1,0,0.3,0,0.5,0l0,0c-0.1,0.1-0.2,0.3-0.2,0.4c-0.1,0.3-0.1,1.3-0.2,1.7
			c0,0.2-0.1,1.2,0,1.4c0,0.1,0.1,0.2,0.2,0.3l0,0c-0.1,0-0.5-0.1-0.5-0.1c0,0-0.3,0-0.5,0c-0.5-0.7-1.1-1.6-1.5-2.2
			c-0.1-0.1-0.5-0.7-0.6-0.8c0,0.3-0.1,0.8-0.1,1.1l-0.1,1.1c0,0.2,0,0.5,0,0.7l0,0c-0.3,0-0.5-0.1-0.5-0.1c-0.2,0-0.3,0-0.3,0l0,0
			c0.1-0.1,0.2-0.3,0.3-0.6c0-0.2,0.1-0.8,0.1-1.5c0-0.2,0.1-1.2,0-1.4c0-0.1-0.1-0.2-0.2-0.3l0,0c0,0,0.4,0.1,0.6,0.1
			c0.2,0,0.3,0,0.4,0c0.1,0.1,0.2,0.2,0.8,1.1c0.5,0.7,0.6,1,1.4,2C48.3,93,48.3,92.8,48.3,92.4L48.3,92.4z"/>
		<path class="st18" d="M52.7,92.8c-0.4,0-0.6,0-0.9,0c-0.3,0-0.3,0-0.4,0.1c0,0.1-0.1,0.7-0.1,1.7c0,1,0.1,1.2,0.2,1.5l0,0
			c-0.1,0-0.2,0-0.4,0c-0.3,0-0.4,0-0.5,0l0,0c0.1-0.4,0.1-1.3,0.1-1.7c0-0.6-0.1-1.4-0.1-1.5c0-0.1,0-0.1-0.2-0.1
			c-0.5,0-0.9,0-1.3,0.2l0,0l0.2-0.6c0.3,0,0.6,0,1.7,0c0.8,0,1.1,0,1.3,0c0.2,0,0.2,0,0.4-0.2l0.1,0L52.7,92.8z"/>
		<path class="st18" d="M56.1,95.9c-0.1,0-0.2,0-0.5,0c-0.2,0-0.4,0-0.5,0.1l0,0c0-0.2-0.1-0.4-0.2-0.6c-0.2-0.5-0.2-0.5-0.2-0.6
			c-0.1,0-0.1,0-0.7,0c-0.1,0-0.5,0.1-0.7,0.1c0,0.1-0.2,0.8-0.2,0.9c0,0.2,0,0.3,0,0.3l0,0c-0.1,0-0.2,0-0.4,0c-0.2,0-0.2,0-0.3,0
			l0,0c0.2-0.2,0.3-0.6,0.4-0.9c0.3-0.7,0.8-2.6,0.8-2.6c0,0,0-0.1-0.2-0.2l0,0c0.1,0,0.6,0,0.7,0c0.1,0,0.2,0,0.3,0l0,0
			c0.2,0.8,0.7,1.8,1,2.4C55.8,95.4,55.9,95.7,56.1,95.9L56.1,95.9z M53.5,94.6c0.2,0,0.5,0,0.6,0c0.3,0,0.4,0,0.5-0.1
			c-0.2-0.6-0.4-1.1-0.7-1.5C53.8,93.4,53.6,94.1,53.5,94.6z M53.6,92.1C53.7,92,53.7,92,53.6,92.1c0.5-0.4,0.5-0.5,0.8-0.7l0.5,0.2
			l0,0l-1.1,0.7L53.6,92.1z"/>
		<path class="st18" d="M56.6,95.8c0-0.1,0-0.3,0-0.7c0-0.5-0.1-1-0.2-1.4c-0.1-0.7-0.2-1.1-0.3-1.5l0,0c0.1,0,0.2,0,0.5,0
			c0.2,0,0.3-0.1,0.4-0.1l0,0c0,0.2,0,0.3,0,0.6c0,0.6,0.1,1.1,0.2,1.7c0.1,0.5,0.1,0.8,0.2,1c0,0.2,0.1,0.2,0.1,0.3l0,0
			c-0.1,0-0.3,0-0.5,0C56.8,95.7,56.7,95.7,56.6,95.8L56.6,95.8z"/>
		<path class="st18" d="M60.7,91.3c0.1,0,0.2,0,0.4-0.1c0.1,0,0.3-0.1,0.4-0.1l0,0c-0.1,0.2-0.1,0.3-0.1,0.4c0,0.3,0.2,1.3,0.3,1.7
			c0,0.2,0.2,1.2,0.3,1.3c0.1,0.1,0.1,0.1,0.2,0.2l0,0c-0.1,0-0.5,0.1-0.5,0.1c0,0-0.2,0.1-0.4,0.1c-0.6-0.5-1.5-1.3-2.1-1.8
			c-0.1-0.1-0.7-0.5-0.8-0.6c0.1,0.3,0.1,0.8,0.2,1.1l0.2,1.1c0,0.2,0.1,0.5,0.2,0.6l0,0c-0.3,0-0.5,0.1-0.5,0.1
			c-0.2,0-0.3,0.1-0.3,0.1l0,0c0.1-0.2,0.2-0.4,0.1-0.6c0-0.2-0.1-0.8-0.3-1.4c0-0.2-0.2-1.2-0.3-1.3c-0.1-0.1-0.1-0.1-0.3-0.2l0,0
			c0,0,0.4-0.1,0.6-0.1c0.2,0,0.3-0.1,0.4-0.1c0.1,0.1,0.2,0.2,1,0.9c0.6,0.6,0.9,0.7,1.9,1.6C60.9,91.8,60.9,91.6,60.7,91.3
			L60.7,91.3z"/>
		<path class="st18" d="M67.2,90.1L67.2,90.1c-0.5-0.4-1.1-0.2-1.3-0.2c-0.6,0.2-1.3,1.1-0.9,2.2c0.3,1,1.2,1.3,1.9,1
			c0.5-0.2,1.1-0.8,1.4-1.3l0,0c0,0.3,0,0.7,0,1l-1.2,0.4c0,0-0.1,0.1-0.2,0.1c-0.1,0-0.2,0.1-0.2,0.1c-0.7,0.2-1,0.3-1.6,0
			c-0.3-0.2-0.6-0.5-0.8-1C64.2,92,64,91,64.9,90.3c0.3-0.2,1.1-0.7,1.4-0.8c0.5-0.2,1-0.2,1.4,0.1l0,0L67.2,90.1z"/>
		<path class="st18" d="M70.1,91.7C70,91.9,70,92,70,92.2c-0.2,0-0.6,0-0.8,0.1l0,0c0.1-0.3,0.1-0.4,0.2-0.6
			C69.5,91.7,69.9,91.7,70.1,91.7L70.1,91.7z"/>
		<path class="st18" d="M73,90.7c-0.1,0-0.3,0.2-0.4,0.2c0,0-0.1,0-0.2,0.1c-0.2,0.1-0.6,0.3-0.7,0.3c-0.2,0.1-0.5,0.3-0.7,0.4l0,0
			c0-0.2,0-0.3-0.1-0.5c-0.2-0.4-0.8-1.8-0.9-1.9c-0.1-0.3-0.4-0.7-0.6-0.9l0,0c0.1,0,0.1,0,0.3-0.1c0,0,0.3-0.1,0.4-0.2l0,0
			c0.1,0.5,0.5,1.3,0.9,2.2c0.3,0.5,0.3,0.7,0.4,0.7c0.1,0.1,0.1,0.1,0.3,0c0.7-0.3,1.2-0.8,1.2-0.8l0,0L73,90.7z"/>
		<path class="st18" d="M74.6,89.4c-0.1,0.2-0.1,0.4-0.1,0.6c-0.2,0-0.6,0.1-0.8,0.2l0,0c0.1-0.3,0.1-0.4,0.1-0.6
			C74,89.6,74.4,89.5,74.6,89.4L74.6,89.4z"/>
		<path class="st18" d="M76.8,85.1L76.8,85.1c-0.5-0.3-0.9-0.1-1.1,0c-0.7,0.5-1.2,1.4-0.6,2.4c0.6,0.9,1.6,0.9,2.2,0.5
			c0.3-0.2,0.6-0.6,0.6-0.8c0-0.2,0-0.4-0.3-0.7c-0.1-0.2-0.2-0.3-0.3-0.4l0,0c0.1,0,0.2-0.1,0.3-0.2c0.2-0.1,0.3-0.2,0.4-0.3l0,0
			c0,0.2,0,0.3,0.3,0.7C78.6,87,78.7,87,79,87l0,0.1c-0.2,0.1-0.4,0.2-0.4,0.2c-0.2,0.2-0.4,0.3-1.1,0.9c-0.2,0.1-0.4,0.3-0.5,0.4
			c-0.5,0.3-0.8,0.4-1.3,0.3c-0.4-0.1-0.8-0.3-1.1-0.8c-0.4-0.6-0.6-1.6,0.3-2.4c0.3-0.3,1-0.8,1.3-1c0.4-0.3,0.8-0.3,1.2,0l0,0
			L76.8,85.1z"/>
		<path class="st18" d="M80.4,85.7c0,0.2-0.1,0.4,0,0.6c-0.2,0-0.6,0.2-0.8,0.3l0,0c0-0.3,0-0.4,0-0.6
			C79.8,85.9,80.2,85.8,80.4,85.7L80.4,85.7z"/>
	</g>
</g>
</svg>
