<?xml version="1.0" encoding="utf-8"?>
<!-- Generator: Adobe Illustrator 19.0.1, SVG Export Plug-In . SVG Version: 6.00 Build 0)  -->
<svg version="1.1" id="Layer_1" xmlns="http://www.w3.org/2000/svg" xmlns:xlink="http://www.w3.org/1999/xlink" x="0px" y="0px"
	 viewBox="0 0 100 100" style="enable-background:new 0 0 100 100;" xml:space="preserve">
<style type="text/css">
	.st0{opacity:0.35;}
	.st1{fill:url(#SVGID_1_);}
	.st2{fill:url(#SVGID_2_);}
	.st3{fill:#9B9DA0;}
	.st4{fill:#8D9092;}
	.st5{fill:#00306D;}
	.st6{fill:url(#SVGID_3_);}
	.st7{fill:#FFFFFF;}
	.st8{fill:url(#SVGID_4_);}
	.st9{fill:#00AA4F;}
	.st10{fill:#FFD400;}
	.st11{fill:#FFFFFF;enable-background:new    ;}
	.st12{fill:url(#SVGID_5_);}
	.st13{fill:url(#SVGID_6_);}
	.st14{fill:url(#SVGID_7_);}
</style>
<g>
	<path class="st0" d="M87.2,73.6C87.2,73.6,87.2,73.6,87.2,73.6c0,0,0.1,0,0.1,0.1L87.2,73.6"/>
	<linearGradient id="SVGID_1_" gradientUnits="userSpaceOnUse" x1="2.6352" y1="51.601" x2="97.9244" y2="51.601">
		<stop  offset="0.6966" style="stop-color:#28489E"/>
		<stop  offset="0.7799" style="stop-color:#29469A"/>
		<stop  offset="0.8415" style="stop-color:#2B4290"/>
		<stop  offset="0.8962" style="stop-color:#2C3B84"/>
		<stop  offset="0.9469" style="stop-color:#2D3273"/>
		<stop  offset="0.9944" style="stop-color:#2B265F"/>
		<stop  offset="1" style="stop-color:#2B255C"/>
	</linearGradient>
	<path class="st1" d="M95.8,18.6c0,0,7.2,27.7-4.6,45.6C79.5,82.1,50.4,91,50.4,91s-29.3-8.9-41-26.8C-2.4,46.3,4.8,18.6,4.8,18.6
		s16.8-6.2,45.3-6.4C78.5,12,95.8,18.6,95.8,18.6z"/>
	<linearGradient id="SVGID_2_" gradientUnits="userSpaceOnUse" x1="2.3556" y1="51.6971" x2="50.1073" y2="51.6971">
		<stop  offset="0" style="stop-color:#9E9E9E"/>
		<stop  offset="8.644408e-02" style="stop-color:#B4B4B4"/>
		<stop  offset="0.2191" style="stop-color:#CFCFCF"/>
		<stop  offset="0.3638" style="stop-color:#E5E5E5"/>
		<stop  offset="0.5243" style="stop-color:#F3F3F3"/>
		<stop  offset="0.7131" style="stop-color:#FCFCFC"/>
		<stop  offset="1" style="stop-color:#FFFFFF"/>
	</linearGradient>
	<path class="st2" d="M50.1,91.1c0,0-29.3-8.9-41-26.8C-2.6,46.4,4.5,18.7,4.5,18.7s16.8-6.2,45.3-6.4"/>
	<g>
		<polygon class="st3" points="13.9,70.4 14.5,44.9 18.8,35.1 23.8,44.7 23.8,78.6 		"/>
		<path class="st4" d="M15.3,71.6l0.6-26.4c0,0,1.8-0.6,3.4-0.7c1.6-0.1,3.2,0.8,3.2,0.8l-0.5,32l1.7,0.9l0.1-14.3l-0.2-19.4
			l-4.8-8.8l3.1,8.4c0,0-1-0.3-2.5-0.3c-1.5,0.1-2.9,0.5-2.9,0.5l2.1-8.2l-4.5,8.9l-0.3,25.5L15.3,71.6z"/>
		<g>
			<path d="M18.6,35l-4.4,9.8l-0.6,25.7l10.3,8.4L24,44.6l-5.2-10.1L18.6,35z M18.8,35.7c0.4,0.8,4.6,8.9,4.7,9
				c0,0.1-0.1,33.4-0.1,33.4l-9.3-7.6c0,0,0.6-25.7,0.6-25.7C14.8,44.8,18.5,36.6,18.8,35.7z"/>
		</g>
		<g>
			<path d="M14.4,44.6l0.2,0.5c0,0,2.4-1.1,4.8-1.1c2.4,0,4.2,1,4.2,1l0.2-0.4c-0.1,0-2-1-4.5-1C16.9,43.4,14.5,44.6,14.4,44.6z"/>
		</g>
		<polygon points="16.9,51.2 17.6,51.1 17.7,46.7 17.3,46.3 16.9,46.9 		"/>
	</g>
	<path class="st5" d="M4.5,18.7c0,0,18.5-9.6,44.8-9.9c26.3-0.2,46.2,9.9,46.2,9.9l2,10.9c0,0-15.5-7-46-7.2
		c-30.5-0.3-49,7.8-49,7.8L4.5,18.7z"/>
	<g>
		<linearGradient id="SVGID_3_" gradientUnits="userSpaceOnUse" x1="89.3469" y1="54.2569" x2="69.8721" y2="54.2569">
			<stop  offset="0" style="stop-color:#9E9E9E"/>
			<stop  offset="2.214730e-02" style="stop-color:#A8A8A8"/>
			<stop  offset="9.531528e-02" style="stop-color:#C3C3C3"/>
			<stop  offset="0.179" style="stop-color:#D9D9D9"/>
			<stop  offset="0.2764" style="stop-color:#EAEAEA"/>
			<stop  offset="0.3959" style="stop-color:#F6F6F6"/>
			<stop  offset="0.5616" style="stop-color:#FDFDFD"/>
			<stop  offset="1" style="stop-color:#FFFFFF"/>
		</linearGradient>
		<path class="st6" d="M85.7,60.5c0.3-0.2,0.7,0.1,1.1,0.1c0.3,0,0.9,0,1.2-0.1c0.8-0.2,1.1-1,1.2-1.7c0.2-0.8,0-1.7-0.1-2.6
			c0-0.9-0.1-1.5-0.4-2.4c-0.1-0.4-0.1-0.5-0.6-0.5c-0.6-0.6-0.2-1.6-0.7-2.1c-0.4-0.3-0.4-0.3-0.6-0.8c-0.1-0.2-0.2-0.2-0.2-0.5
			c0-0.2,0.1-0.5,0-0.7c-0.1-0.3-0.6-0.4-0.9-0.5c-0.6-0.2-0.5-0.2-0.8-0.7c-0.2-0.3-0.5-0.6-0.7-0.9c-0.3-0.4,0.1-0.8-0.1-1.3
			c-0.1-0.4-0.6-0.6-0.8-0.9c-0.2-0.4-0.2-0.6-0.3-1c-0.1-0.3-0.4-0.5-0.6-0.8c-0.2-0.3-0.3-0.5-0.7-0.7c0.3-0.4,0.1-0.8,0.2-1.2
			c0.1-0.4,0.3-0.7,0.3-1.1c0.1-0.4,0-0.8-0.1-1.2c0-0.4,0.2-0.9,0.2-1.3c0-0.7-0.1-1.7-0.5-2.3c-0.5-0.9-1.9-1.4-2.9-1.6
			c-0.7-0.1-1.2,0-1.9,0.1c-0.3,0.4-1.2,0.4-1.6,0.8c-0.5,0.4-0.9,1.1-0.9,1.8c-0.6,0.3-0.9,1.5-0.8,2c0,0.5,0.3,0.7,0.4,1.1
			c0.2,0.5,0,0.6-0.3,0.9c-0.3,0.2-0.6,0.5-0.8,1c-0.1,0.4,0.2,0.7,0.2,1.1c0,0.3-0.4,0.6-0.7,0.8c-0.4,0.2-0.6,0.3-0.9,0.7
			c-0.5,0.6-0.6,0.8-0.8,1.6c-0.3,1.2-1.2,2.3-1.2,3.6c0,0.5,0.2,0.8,0.3,1.2c0.1,0.4,0,1,0,1.4c0,0.8,0.3,1.7,0.5,2.5
			c0.1,0.4,0.2,0.8,0.3,1.2c0.1,0.4,0.5,0.7,0.6,1.1c0.1,0.3-0.2,0.6,0,0.8c0.1,0.2,0.4,0.3,0.6,0.5c0.3,0.4,0.6,0.6,0.6,1.1
			c0.1,0.5-0.1,1.2-0.2,1.7c-0.2,1.1-0.4,2.3-0.3,3.5c0,1,0.4,2,0.5,3c0.2,1.5,0.1,3.6,1.2,4.8c0.5,0.6,1.4,0.7,2.1,1
			c1,0.4,2.1,0.4,3.1,0.7c0.7,0.2,1,1.5,2,1.4c0.8-0.1,1.6-1.2,2.2-1.8c0.7-0.6,1.4-1.3,2.1-1.9c0.2-0.2,2.3-2,2.2-2.4
			C87.1,67.9,87.1,67,87,66c-0.1-0.9-0.2-2-0.5-2.9C86.3,62.2,85.6,61.5,85.7,60.5z"/>
		<g>
			<path d="M77.3,33.5L77,33.6l-0.1,0.1c-0.1,0.1-0.4,0.2-0.7,0.3c-0.3,0.1-0.7,0.2-0.9,0.4c-0.4,0.4-0.9,1.1-0.9,1.9
				c-0.6,0.4-0.9,1.5-0.9,2.1c0,0,0,0.1,0,0.1c0,0.3,0.2,0.6,0.3,0.8c0.1,0.1,0.1,0.2,0.2,0.4c0,0.1,0.1,0.2,0.1,0.3
				c0,0.1-0.1,0.1-0.2,0.2l-0.1,0.1c-0.4,0.3-0.7,0.5-0.9,1.1c0,0.1,0,0.2,0,0.2c0,0.2,0.1,0.4,0.1,0.6c0.1,0.1,0.1,0.2,0.1,0.3
				c0,0,0,0,0,0c0,0.1-0.2,0.4-0.5,0.6l-0.2,0.1c-0.3,0.2-0.5,0.3-0.7,0.6c-0.5,0.6-0.6,0.9-0.8,1.6l0,0.1c-0.1,0.5-0.3,0.9-0.5,1.3
				c-0.3,0.7-0.7,1.5-0.7,2.3c0,0,0,0,0,0c0,0.3,0.1,0.6,0.2,0.8l0.1,0.4c0,0.1,0,0.2,0,0.4c0,0.1,0,0.3,0,0.4l0,0.6
				c0,0.8,0.2,1.6,0.4,2.3l0.1,0.2l0.1,0.5c0.1,0.2,0.1,0.5,0.2,0.7c0.1,0.2,0.2,0.4,0.3,0.6c0.1,0.2,0.2,0.3,0.2,0.5c0,0,0,0,0,0.1
				c0,0.1,0,0.1,0,0.2c0,0.1,0,0.2,0,0.3c0,0.1,0,0.2,0.1,0.4c0.1,0.2,0.2,0.3,0.4,0.4c0.1,0.1,0.2,0.1,0.2,0.2l0.2,0.3
				c0.2,0.2,0.3,0.4,0.4,0.7c0,0.1,0,0.1,0,0.2c0,0.3-0.1,0.6-0.1,1l-0.1,0.4l-0.1,0.5c-0.1,0.9-0.3,1.8-0.3,2.7c0,0.1,0,0.3,0,0.4
				c0,0.7,0.2,1.3,0.3,2l0.2,1.1l0.2,1c0.1,0.8,0.1,2,0.4,2.7c0.3,0.6,1.2,1,1.8,1.3c0.7,0.4,1,0.8,2,1c1,0.1,1.9-0.1,2.9,0.3
				c0.7,0.3,1.2,0.7,2,0.5c1.7-0.4,2.8-1.6,4-2.8c0.3-0.3,2.3-1.9,2.1-2.3l0-0.1c-0.3-0.7-0.4-1.4-0.5-2.1L87.2,66l-0.1-0.8
				c-0.1-0.7-0.2-1.5-0.4-2.2c-0.1-0.3-0.2-0.7-0.4-1c-0.2-0.4-0.4-0.9-0.4-1.3c0,0,0,0,0,0c0.1,0,0.2,0,0.3,0.1
				c0.2,0,0.4,0.1,0.6,0.1c0,0,0.1,0,0.1,0c0.3,0,0.8,0,1.2-0.1c1.1-0.2,1.3-1.4,1.4-1.9c0.1-0.3,0.1-0.6,0.1-0.8
				c0-0.4,0-0.7-0.1-1.1l-0.1-0.7c0-1-0.2-1.6-0.4-2.4c0,0,0-0.1,0-0.1c-0.1-0.3-0.2-0.5-0.7-0.6c-0.2-0.2-0.2-0.5-0.2-0.9
				c0-0.4-0.1-0.9-0.4-1.2l-0.2-0.1c-0.2-0.2-0.3-0.2-0.4-0.6L87,50c0-0.1-0.1-0.1-0.1-0.2c0,0,0,0,0,0c0-0.1,0-0.1,0-0.2
				c0-0.1,0-0.2,0-0.3c0-0.1,0-0.2,0-0.3c-0.2-0.4-0.6-0.5-1-0.6l-0.1,0l0,0c-0.4-0.1-0.4-0.1-0.6-0.5l0-0.1
				c-0.1-0.2-0.2-0.3-0.4-0.5c-0.1-0.1-0.2-0.3-0.3-0.4c0-0.1-0.1-0.2-0.1-0.3c0-0.1,0-0.2,0-0.3c0-0.1,0-0.2,0-0.4
				c0-0.1,0-0.2,0-0.3c-0.1-0.3-0.3-0.4-0.5-0.6c-0.1-0.1-0.3-0.2-0.3-0.4c-0.1-0.2-0.1-0.3-0.2-0.5c0-0.1-0.1-0.3-0.1-0.5
				c-0.1-0.3-0.3-0.5-0.5-0.6L82.7,43c0,0-0.2-0.2-0.2-0.2c-0.1-0.1-0.2-0.3-0.4-0.4c0.1-0.2,0.1-0.3,0.1-0.5c0-0.1,0-0.1,0-0.2
				c0-0.1,0-0.1,0-0.2c0-0.1,0-0.1,0-0.2c0-0.2,0.1-0.3,0.2-0.5c0.1-0.2,0.1-0.4,0.2-0.6c0-0.1,0-0.3,0-0.4c0-0.2,0-0.4,0-0.6l0-0.4
				c0,0,0,0,0,0c0-0.2,0-0.4,0.1-0.6c0.1-0.2,0.1-0.4,0.1-0.6c0,0,0,0,0-0.1c0-0.7-0.1-1.7-0.5-2.4c-0.6-1.1-2.2-1.5-3.1-1.7
				C78.4,33.3,77.9,33.4,77.3,33.5z M77.4,34c0.6-0.1,1-0.2,1.6-0.1c0.8,0.2,2.2,0.6,2.7,1.4c0.3,0.6,0.5,1.6,0.5,2.2
				c0,0.2,0,0.3-0.1,0.5c-0.1,0.2-0.1,0.5-0.1,0.8l0,0.4c0,0.3,0.1,0.5,0,0.8c0,0.2-0.1,0.3-0.1,0.5c-0.1,0.2-0.1,0.4-0.2,0.6
				c0,0.2,0,0.3,0,0.5c0,0.2,0,0.4-0.1,0.6l-0.2,0.2l0.3,0.1c0.2,0.1,0.3,0.2,0.4,0.4l0.2,0.3l0.2,0.2c0.2,0.1,0.3,0.3,0.3,0.4
				c0.1,0.1,0.1,0.3,0.1,0.4c0,0.2,0.1,0.4,0.2,0.7c0.1,0.2,0.3,0.3,0.4,0.5c0.2,0.1,0.3,0.3,0.3,0.4c0,0.1,0,0.3,0,0.4
				c0,0.2-0.1,0.5,0.1,0.9c0.1,0.2,0.2,0.3,0.4,0.5c0.1,0.1,0.2,0.3,0.3,0.4l0,0.1c0.3,0.5,0.3,0.5,0.9,0.7l0,0l0.1,0
				c0.2,0.1,0.6,0.2,0.6,0.4c0,0,0,0.2,0,0.2c0,0.1,0,0.3,0,0.4c0,0.2,0.1,0.3,0.2,0.4l0.1,0.1c0.2,0.5,0.3,0.6,0.5,0.8l0.1,0.1
				c0.2,0.2,0.2,0.5,0.3,0.9c0,0.4,0.1,0.9,0.4,1.2l0.1,0.1l0.1,0c0.3,0,0.3,0,0.4,0.3l0,0.1c0.3,0.8,0.4,1.3,0.4,2.3L89,57
				c0.1,0.6,0.1,1.2,0,1.8c-0.1,0.7-0.4,1.4-1,1.5c-0.3,0.1-0.8,0.1-1.1,0.1l-0.1,0c-0.1,0-0.3,0-0.4-0.1c-0.3-0.1-0.5-0.1-0.8,0
				l-0.1,0.1l0,0.1c-0.1,0.7,0.2,1.3,0.4,1.8c0.1,0.3,0.3,0.6,0.3,0.9c0.2,0.7,0.3,1.4,0.3,2.1l0.1,0.8l0.1,0.6
				c0.1,0.7,0.2,1.5,0.5,2.2l0,0.1c0.2,0.5-0.7,1.3-1,1.6c-0.7,0.7-1.6,1.1-2.5,1.5c-0.8,0.4-1.4,1.1-2.3,1.4
				c-1.2,0.3-2.1-0.4-3.2-0.7c-1.2-0.3-2.5-0.3-3.7-0.9c-1.5-0.8-1.2-2.4-1.5-3.9L73,67l-0.2-1.1c-0.1-0.6-0.3-1.3-0.3-1.9
				c0-0.1,0-0.2,0-0.4c0-0.9,0.1-1.7,0.3-2.6l0.1-0.5l0.1-0.4c0.1-0.3,0.1-0.7,0.1-1.1c0-0.1,0-0.2,0-0.3c-0.1-0.4-0.3-0.7-0.5-1
				l-0.2-0.3c-0.1-0.1-0.2-0.2-0.3-0.3c-0.1-0.1-0.2-0.1-0.2-0.2c0,0,0-0.1,0-0.1c0-0.1,0-0.1,0-0.2c0-0.1,0-0.2,0-0.3
				c0-0.1,0-0.1,0-0.2c-0.1-0.2-0.2-0.4-0.3-0.6c-0.1-0.2-0.2-0.3-0.2-0.4C71.1,55,71,54.7,71,54.5L70.9,54l-0.1-0.2
				c-0.2-0.7-0.4-1.4-0.4-2.1l0-0.5c0-0.2,0-0.3,0-0.5c0-0.2,0-0.3,0-0.4l-0.1-0.5c-0.1-0.2-0.1-0.4-0.1-0.7c0-0.8,0.3-1.4,0.6-2.1
				c0.2-0.4,0.4-0.9,0.5-1.4l0-0.1c0.2-0.7,0.2-0.9,0.7-1.3c0.2-0.2,0.4-0.3,0.6-0.5l0.2-0.1c0.2-0.1,0.8-0.5,0.8-1c0,0,0,0,0,0
				c0-0.2-0.1-0.4-0.1-0.5c-0.1-0.1-0.1-0.2-0.1-0.4c0,0,0-0.1,0-0.1c0.1-0.4,0.3-0.6,0.7-0.8c0,0,0.1-0.1,0.1-0.1
				c0.3-0.2,0.4-0.3,0.4-0.6c0-0.1,0-0.3-0.1-0.5c-0.1-0.2-0.1-0.3-0.2-0.4c-0.1-0.2-0.2-0.3-0.2-0.6c0,0,0-0.1,0-0.1
				c0-0.6,0.3-1.5,0.7-1.7l0.2-0.1l0-0.2c0,0,0,0,0,0c0-0.6,0.4-1.2,0.8-1.6c0.2-0.1,0.4-0.2,0.7-0.3c0.3-0.1,0.6-0.2,0.8-0.4
				C77.3,34,77.4,34,77.4,34z"/>
		</g>
		<path d="M74,41.5c-0.2-0.3-0.5-0.6-0.2-0.9c0.2-0.2,0.8-0.4,0.8-0.7c0,0.6,0.5,0.7,0.6,0.1c0.3,0.4,0.4,0.4,0,0.8
			c-0.1,0.1-0.3,0.3-0.3,0.5c-0.2,0.4,0.2,0.8,0.5,1.1c0.5,0.7,1.3,1.1,2.1,1.4c0.7,0.3,1.3,0.6,2,0.7c0.8,0.1,1.5-0.1,2.2-0.4
			c-0.2,0-0.3,0.2-0.5,0.3c-0.2,0.1-0.3,0.2-0.6,0.2c-0.5,0-0.8,0.1-1.3,0.1c-0.4,0-0.8-0.1-1.3-0.2c-0.4-0.1-0.8-0.3-1.2-0.5
			c-0.7-0.3-1.5-0.8-2-1.3C74.5,42.3,74.2,41.9,74,41.5z"/>
		<path d="M79,42.5c-0.8-0.2-1.5-0.3-2.1-0.9c-0.2-0.2-0.3-0.5-0.5-0.6c0.3,0.7,1,1.4,1.7,1.8c0.4,0.2,0.9,0.4,1.4,0.5
			c0.2,0,0.4,0.1,0.6,0.1c0.2,0.1,0.4,0.2,0.6,0.3c0,0,0.1,0.1,0.1,0.1c-0.1-0.1,0-0.4,0.1-0.5c0.1-0.1,0.2-0.2,0.4-0.1
			c0.1,0.1,0.2,0.2,0.3,0.4c0.1-0.1,0.1-0.2,0.3-0.3C81.7,43,81.9,43,82,43c-0.1-0.3-0.3-0.5-0.3-0.8c-0.4,0.3-0.8,0.6-1.3,0.5
			C79.9,42.6,79.4,42.6,79,42.5z"/>
		<path d="M81,49.8c-0.3,0.3-0.7,0.2-1,0.4c-0.4,0.2-0.8,0.3-1.3,0.5c0.8-0.2,1.6-0.3,2.4-0.5c0.4-0.1,0.9-0.1,0.8,0.4
			c-0.1,0.4-0.7,0.2-0.9,0.5c0.4,0,1-0.2,1.1,0.4c0.1,0.6-0.7,0.4-1.1,0.5c0.3,0.1,0.9,0,1,0.3c0.1,0.7-0.7,0.2-0.9,0.5
			c0.3,0,0.6-0.1,0.6,0.3c0.1,0.4-0.1,0.5-0.5,0.5c-0.3,0-0.7-0.1-0.9,0.1c-0.2,0.2-0.4,0.4-0.8,0.4c0,0.2-0.1,0.5-0.1,0.8
			c0,0.4,0,0.8,0.1,1.2c0.1,0.6,0,1.1,0,1.7c0,0.4-1.8,0.3-2,0.3c-0.4,0-0.8,0-1.3,0c-0.7,0-1.3-0.1-2-0.2c-0.7-0.1-1.3-0.6-2-0.7
			c0,0.4,0,0.5,0.4,0.6c0.8,0.1,1.5,0.4,2.3,0.5c0.5,0,0.9,0,1.3,0c0.6,0,1.2,0.1,1.8,0c0.3,0,0.6-0.1,0.9-0.1
			c0.3,0,0.6-0.2,0.9-0.2c0-0.3,0.1-0.6,0.1-0.9c0-0.3-0.1-0.7-0.1-1c0-0.4,0-0.7-0.1-1.1c0-0.3-0.1-0.6,0.2-0.7
			c0.1-0.1,0.2,0,0.4-0.1c0.2-0.1,0.2-0.3,0.4-0.3c0.5-0.1,1-0.1,1.5-0.1c0.1-0.2,0.1-0.4,0.1-0.6c0-0.3,0.1-0.2,0.3-0.4
			c0.2-0.2,0-0.3,0-0.6c0-0.2,0.3-0.2,0.2-0.5c0-0.2-0.2-0.2-0.3-0.4c-0.2-0.2,0-0.3,0.1-0.4c0.4-0.4,0-0.6-0.4-0.7
			c-0.1,0-0.2,0-0.3,0c0-0.2-0.1-0.2-0.1-0.3c0-0.1,0-0.3-0.1-0.4c-0.1-0.2-0.3,0-0.6,0.1"/>
		<path d="M87.4,51.3c-0.2-0.3-0.4-0.5-0.5-0.8c0-0.1-0.6-1-0.7-0.9c-0.1,0.2-0.1,0.6-0.1,0.9c-0.1,1.3-0.1,2.6-0.4,4
			c-0.1,0.4-0.1,0.9-0.3,1.3c-0.1,0.4-0.3,0.8-0.3,1.2c0.3-0.1,0.8-0.4,1-0.6c-0.2-0.3-0.6-0.4-0.5-0.9c0.1-0.4,0.5-0.3,0.8-0.2
			c0.2-0.4,0.2-0.9,0.3-1.3c0-0.3,0.1-0.6,0.2-0.8c0.2-0.5,0.4-0.4,0.8-0.1c0.1-0.4,0-0.8-0.2-1.2C87.6,51.6,87.5,51.4,87.4,51.3z"
			/>
		<path d="M87.2,59.4c-0.5,0.3-1,0.5-1.5,0.5c-0.2,0-0.3,0-0.4,0c0.1,0.6,0.4,1.2,0.6,1.8c0.1,0.3,0.3,0.6,0.4,1
			c0.1,0.4,0.1,0.8,0.2,1.3c0.1,0.8,0.3,1.7,0.3,2.6c0,0.3,0,0.6,0.1,1c0.1,0.3,0.2,0.6,0.1,1c-0.1,0.3-0.1,0.6-0.1,0.9
			c0,0.4-0.1,0.6-0.2,0.2c-0.1-0.4-0.2-0.7-0.2-1.1c-0.1-0.9-0.3-1.9-0.5-2.8c-0.1-0.5-0.1-1-0.2-1.4c0-0.2-0.1-0.4-0.1-0.6
			c-0.1-0.2-0.2-0.3-0.3-0.5c0-0.2,0-0.3,0-0.5c-0.1-0.4-0.2-0.7-0.3-1.1c-0.1-0.3-0.2-0.7-0.3-1c-0.1-0.3-0.3-0.7-0.2-1
			c0.3,0.2,0.7,0.4,1.1,0.2c0.3-0.1,0.4-0.4,0.7-0.5c0.4-0.1,0.6-0.3,1-0.5c0.5-0.4,1.3-1.1,1.1-1.9c-0.1-0.4-0.5-0.6-0.8-0.8
			c-0.4-0.3-0.8-0.6-1.2-0.8c0.1-0.1,0.1-0.2,0.2-0.3c0.2,0.1,0.4,0.3,0.6,0.4c0.3,0.2,0.6,0.4,0.9,0.7c0.1,0.2,0.2,0.3,0.4,0.4
			c0.2,0.3,0.2,0.8,0.2,1.2c0,0.4-0.4,0.7-0.5,1.1c-0.1,0.2-0.1,0.4-0.2,0.5C87.6,59.2,87.4,59.3,87.2,59.4z"/>
		<path d="M83.7,59.5c0,0.3,0.2,0.6,0.2,0.9c0,0.3,0.1,0.7,0.1,1c0.2,1,0.5,2,0.7,3c0.1,0.6,0.3,1.2,0.5,1.8c0.1,0.5,0.1,1,0.2,1.4
			c0.3,0.9,0.4,1.6,0.6,2.5c0.1,0.4,0.2-0.1,0.1-0.6c-0.1-0.5-0.2-1-0.3-1.5c-0.1-0.5-0.3-1-0.4-1.5c-0.1-0.7-0.1-1.5-0.3-2.2
			c-0.2-0.6-0.3-1.3-0.5-1.9c-0.1-0.4-0.2-0.7-0.3-1.1c-0.1-0.4-0.2-0.9-0.2-1.3c0-0.1,0-0.4-0.1-0.5c-0.1-0.2-0.3-0.2-0.3-0.4
			c0,0.1,0,0.3,0,0.4"/>
		<path d="M85.3,71.2c0-0.2-0.1-0.4-0.1-0.6c-0.2-1-0.3-1.9-0.5-2.9c-0.1-0.6-0.2-1.1-0.3-1.7c-0.1-0.5-0.2-1.1-0.3-1.6
			c-0.1-0.5-0.2-1.1-0.3-1.6c-0.1-0.7-0.2-1.5-0.3-2.2c0-0.4,0-0.7-0.1-1.1c0-0.3-0.1-0.7-0.1-1c0,0.1-0.1,0.4-0.1,0.6
			c-0.1-0.2-0.4-0.5-0.5-0.8c0,0.1,0,0.2,0,0.2c0,0.5,0.3,1,0.3,1.5c0.1,0.5,0.2,1,0.3,1.6c0.1,0.5,0.2,1.1,0.3,1.6
			c0.3,1.3,0.4,2.7,0.8,4c0.1,0.5,0.2,1,0.2,1.5c0.1,0.6,0.3,1.1,0.3,1.7c0,0.4,0.1,0.8,0.1,1.2"/>
		<path d="M80.8,58.4c0.2,0.5,0.2,1,0.3,1.5c0.1,0.5,0.2,1,0.2,1.6c0.2,1.1,0.3,2.2,0.4,3.3c0.1,0.9,0.3,1.7,0.4,2.6
			c0.3,1.9,0.6,3.8,1,5.7c0,0,0,0.1,0,0.1c0,0.2,0.1,0.4,0.1,0.6c0.2,0.7,0.2-0.3,0.1-0.6c-0.1-0.5-0.2-1-0.3-1.5
			c-0.1-0.5-0.2-1.1-0.3-1.6c-0.2-1.1-0.1-2.2-0.5-3.3c-0.3-1-0.5-2.2-0.6-3.3c-0.1-0.9-0.3-1.8-0.4-2.6c0-0.4-0.1-0.8-0.2-1.2
			c-0.1-0.4-0.2-0.8-0.2-1.2"/>
		<path d="M82,58.5c0,0.4,0.2,0.8,0.3,1.2c0.1,0.4,0.1,0.9,0.2,1.3c0.1,0.4,0.2,0.9,0.3,1.3c0.1,0.4,0.1,0.9,0.3,1.2
			c0-0.9-0.2-1.9-0.4-2.8c-0.1-0.5-0.1-0.9-0.3-1.4c-0.1-0.4-0.3-0.8-0.4-1.2"/>
		<path d="M81.5,58.3c0.1,0.5,0.2,1,0.4,1.5c0.2,0.5,0.2,0.9,0.2,1.5c0,0.8,0.3,1.6,0.4,2.4c0.1,0.8,0.1,1.5,0.3,2.2
			c0.1,0.6,0.2,1.3,0.2,1.9c0.1,0.8,0,1.6,0.2,2.4c0.1,0.5-0.2,1-0.1,1.4c0.1,0.5,0.2,0.9,0.3,1.3c0.1-1.2,0.3-2.4,0.1-3.6
			c-0.2-1-0.3-2-0.5-3c-0.1-0.6-0.1-1.2-0.2-1.7c-0.1-0.5-0.2-1-0.2-1.5c-0.1-0.5-0.2-1-0.3-1.5c-0.1-0.5,0-1.1-0.1-1.6
			C81.9,59.5,81.7,58.9,81.5,58.3"/>
		<path d="M81.5,74.9c-0.1-0.8-0.1-1.7-0.3-2.5c-0.1-0.7-0.3-1.4-0.4-2.1c-0.1-0.6,0-1.1-0.1-1.7c-0.1-1-0.2-2-0.3-3
			c-0.1,0.5,0.1,1,0.1,1.5c0,0.6,0.1,1.1,0.1,1.6c0.2,1.3,0.2,2.7,0.4,4c0.1,0.5,0.2,1.1,0.2,1.6"/>
		<path d="M79.1,59.2c-0.2,1-0.2,1.9-0.1,3c0.1,0.5-0.1,1.1-0.1,1.6c-0.1,0.5,0,1,0,1.5c0,0.6,0,1.3,0,1.9c0,0.7,0,1.6,0.1,2.3
			c0,0.4,0,0.9,0,1.3c0,0.6-0.4,2,0,2.5c0,0.1,0.2-1,0.2-1.1c0-0.5,0.1-1.1,0-1.6c-0.1-0.9-0.2-1.8-0.1-2.7c0.1-0.9,0-1.7,0-2.6
			c0-0.6,0-1.2,0-1.8c0-0.5,0.1-1,0.1-1.5c0-1,0-1.9,0-2.9"/>
		<path d="M83.8,53.8c-0.1,0.3-0.3,0.5-0.4,0.8c-0.1,0.3-0.2,0.6-0.4,0.9c-0.6,0.9-1.6,1.8-2.5,2.4c-0.6,0.4-1.1,0.4-1.8,0.4
			c-0.3,0-0.6,0.1-0.9,0.1c-0.4,0-0.7,0-1.1,0c-0.5,0-0.9,0-1.4,0c-0.4,0-0.9,0-1.3,0c-0.5,0-0.8-0.1-1.2-0.2
			c0.1,0.1,0.1,0.3,0.1,0.4c0.4,0.1,0.8-0.2,1,0.3c0.1,0.4-0.2,0.8-0.2,1.1c0.2-0.3,0.3-0.6,0.4-0.9c0.1-0.5,0.3-0.5,0.8-0.5
			c0.5,0,0.5,0.2,0.5,0.7c0,0.4-0.1,0.8-0.1,1.1c0.3-0.4,0.3-1.2,0.3-1.8c0.5,0,1-0.2,0.9,0.4c-0.1,0.5-0.2,0.9-0.2,1.4
			c0,0.5-0.2,0.9-0.3,1.3c-0.2,0.5-0.2,0.8,0.1,1.3c0.3-1.4,0.5-2.9,0.7-4.4c0-0.2,0.6,0,0.7,0.1c0.2,0.2,0.3,0.5,0.4,0.8
			c0-0.3-0.2-0.5-0.2-0.8c0.7-0.2,1.4-0.2,2.1-0.2c0.8,0,1.6-0.2,2.4-0.3c0.7,0,1.3,0,1.7,0.6c0.1,0.2,0.3,0.2,0.5,0.4
			c0.2,0.1,0.3,0.4,0.5,0.4c-0.2-0.3-0.5-0.5-0.6-0.8c-0.1-0.2-0.3-0.7,0.1-0.7c0.2,0,0.4,0.4,0.5,0.5c0.3,0.4,0.5,0.5,1,0.5
			c-0.6-0.1-0.8-0.5-1.2-0.9c0.5-0.1,1,0.5,1.6,0.4c0.3-0.1,0.8-0.3,1.1-0.6c-0.3,0-0.6,0.1-0.9,0.1c-0.2,0-0.5,0.1-0.7,0.1
			c-0.2-0.1-0.4-0.2-0.6-0.3c-0.2-0.1-0.4-0.2-0.7-0.3c-0.2-0.1-0.5-0.1-0.5-0.4c0-0.6,0.7-0.4,1.1-0.3c0.3,0.1,1,0.6,1.2,0.3
			c0.3,0,0.5,0,0.7-0.1c-0.1-0.2-0.4,0-0.5-0.2c-0.1-0.1-0.1-0.5-0.2-0.7c-0.4,0.2-0.8,0.4-1.3,0.4c-0.1,0-0.6,0-0.7-0.1
			C84,56.5,84,56.1,84,55.9c-0.3,0.3-0.3,1.1-0.5,1.5C83.3,58,83,58,82.5,58.1c0.1-0.5,0.6-0.8,0.7-1.3c-0.3,0.4-0.8,1-1.3,1.2
			c0.3-0.4,0.7-0.9,0.9-1.4c-0.3,0.4-0.6,0.7-1,1c-0.3,0.2-0.7,0.6-1.2,0.6c0.2-0.3,0.6-0.5,0.9-0.8c0.3-0.4,0.7-0.7,1-1.1
			c0.3-0.4,0.8-0.8,1-1.2c0.3-0.5,0.3-1.1,0.3-1.6"/>
		<path d="M77.8,60.3c-0.1,1-0.4,2-0.4,3.1c0,0.5,0,1-0.1,1.5c0,0.4-0.2,1.1-0.1,1.4c0.3-0.2,0.2-0.7,0.2-1c0-0.3,0.1-0.6,0.2-1
			c0.1-0.6,0.1-1.4,0.3-2c0.1,0.5,0.3,1.1,0.3,1.6c0-0.9,0-1.7,0-2.5c0,0.3-0.2,0.6-0.3,0.8C77.6,61.8,77.8,60.7,77.8,60.3"/>
		<path d="M87.5,55.2c0.6,0,0.9,0.1,1.3,0.6c0.3-0.5-0.3-0.8-0.7-0.8c-0.4,0-0.8,0.2-1.2,0.2c0.1,0,0.2,0,0.3,0"/>
		<path d="M77.6,52.6c-0.1-0.4-0.2-0.8-0.2-1.3c0.3,0,0.3-0.1,0.5-0.3c0.2-0.1,0.3-0.2,0.5-0.4c0.2-0.2,0.4-0.4,0.7-0.7
			c0.4-0.3,1.5-1,2-0.4c-0.1-0.5-0.3-0.4-0.7-0.3c-0.3,0.1-0.7,0-1,0.2c-1,0.6-1.6,1.5-2.9,1.5c-0.5,0-0.8,0.2-1.2-0.2
			c-0.3-0.3-0.5-0.6-0.7-1c-0.3-0.5-0.4-1.1-0.7-1.6c0,0.3,0.2,0.6,0.3,0.9c0.1,0.3,0.2,0.6,0.3,0.9c0.2,0.3,0.5,0.5,0.6,0.9
			c0.2,0.6-0.3,0.3-0.7,0.3c-0.2,0-0.4,0.2-0.6,0.3c-0.3,0.1-0.9,0.2-1.1,0.5c0.6-0.3,1.4-0.6,2.1-0.6c0.8,0,1.5-0.2,2.3-0.2
			c0,0.6,0.1,1.2,0.2,1.8c0,0.5,0.1,1,0.2,1.5c0.1,0.5,0.2,0.9,0.3,1.4c0.1,0.5,0.3,0.9,0.4,1.3c0,0.1,0.1,0.3,0.1,0.4
			c0.1,0,0.2,0.1,0.3,0.1c-0.2-0.3-0.4-0.7-0.5-1.1c-0.1-0.3-0.2-1.2-0.1-1.4c0.2,0.7,0.2,1.6,0.7,2.1c-0.2-0.3-0.2-1-0.3-1.3
			c0-0.4-0.1-0.8-0.1-1.2c-0.1-0.5,0.1-0.5,0.5-0.6c0.3-0.1,0.5-0.2,0.8-0.4c-0.3,0-0.8,0-1.1,0c-0.1,0-0.2,0.2-0.4,0.2
			c-0.2,0-0.2-0.3-0.3-0.4C77.7,53.4,77.6,53,77.6,52.6z"/>
		<path d="M73.9,43.8c-0.4-0.2-0.9-0.3-1.2-0.6c0.1-0.2,0.4-0.6,0.6-0.7c0.2-0.2,0.3-0.1,0.4,0.1c0.7,1,1.8,1.5,3,2
			c0.8,0.3,1.7,0.6,2.6,0.7c0.3,0,0.5,0,0.8,0c0.3,0.1,0.6,0.2,1,0.2c-0.4,0-0.6,0.2-0.9,0.3c-0.4,0.1-0.8,0.2-1.1,0.2
			c-1.1,0-2.2-0.3-3.3-0.5c-0.6-0.1-1.2-0.1-1.7-0.5c-0.4-0.3-0.7-0.6-1.2-0.7c0.1,0,0.2,0,0.2,0c0.5,0.1,0.9,0.4,1.3,0.6
			c0.6,0.2,1.3,0.3,2,0.4c0.6,0.1,1.3,0.2,1.9,0.3c0.5,0.1,1.4,0.2,1.8-0.1c-0.5-0.1-1-0.1-1.5-0.2c-0.6-0.1-1.1-0.3-1.7-0.5
			C75.7,44.5,74.8,44.2,73.9,43.8z"/>
		<path d="M82.2,43.4c0,0.2-0.1,0.6-0.2,0.8c-0.1,0.2-0.2,0.5-0.4,0.7c0.1-0.3,0.5-0.8,0.7-1c0.4,0.5,0.1,1.3-0.4,1.7
			c0.3-0.1,0.5-0.2,0.7-0.5c0.2,0,0.6,0.6,0.7,0.8c0.3,0.5,0.1,0.7-0.2,1.1c0.5,0.3,0.7,1,0.9,1.5c0.1,0.3,0.2,0.5,0.2,0.9
			c0,0.3,0.1,0.7,0.2,0.9c0-0.4,0-0.7,0-1.1c-0.1-0.4-0.2-0.8-0.4-1.2c0.1,0.4,0.4,0.8,0.5,1.1c0.1,0.3,0.1,0.8,0.3,1
			c0.2-0.4-0.1-1.1-0.2-1.5c-0.2-0.5-0.2-1-0.4-1.5c-0.1-0.3-0.2-0.5-0.2-0.8c0-0.3,0-0.6-0.1-0.8c-0.1-0.3-0.3-0.5-0.5-0.8
			c-0.2-0.3-0.2-0.5-0.4-0.8c-0.1-0.3-0.3-0.5-0.6-0.7"/>
		<path d="M82.4,47.2c0.3,0.2,0.5,1,0.5,1.3c0.1,0.5,0.2,1,0.2,1.6c0.1,1.1-0.1,2.1-0.5,3c-0.1,0.1-0.2,0.3-0.3,0.4
			c-0.1,0.1-0.3,0.1-0.4,0.2c-0.2,0.2-0.3,0.6-0.4,0.9c-0.1,0.3-0.3,0.6-0.5,1c-0.1,0.3-0.3,0.7-0.4,1c-0.2,0.6-0.7,1.2-1.1,1.6
			c0.3-0.3,0.6-0.5,0.8-0.8c0.9-1.2,1.6-2.5,2.2-3.9c0.3-0.6,0.6-1.2,0.8-1.8c0.2-0.7,0.3-1.5,0.3-2.3c0-0.5-0.1-0.9-0.2-1.4
			c-0.1-0.5,0.2-0.8,0.3-1.3c0.2-0.6-0.2-1.1-0.7-1.4c0.1,0.4,0.2,0.7,0.1,1.2C83,46.9,82.8,47,82.4,47.2"/>
		<path d="M79.7,49.4c-0.1-0.1-0.6-2.4-0.3-2.4c-0.3,0-0.6,0-0.8,0c0.3,0.8,0.5,1.7,0.7,2.6C79.4,49.6,79.6,49.5,79.7,49.4z"/>
		<path d="M84.7,50c0,0.5,0,1.1,0,1.6c-0.1,0.5-0.2,1-0.2,1.5c-0.1,0.5-0.1,1-0.3,1.5c-0.1,0.5-0.3,0.9-0.3,1.5c0,0.1,0,0.2,0,0.2
			c0-0.3,0.1-0.4,0.2-0.6c0.1-0.2,0.1-0.5,0.2-0.7c0.1-0.5,0.2-1,0.2-1.5c0.2-1.1,0.4-2.2,0.4-3.3c0-0.9,0.1-1.8-0.3-2.6
			c0,0.2,0.1,0.4,0.1,0.7c0,0.3-0.1,0.3-0.1,0.5C84.5,49.3,84.7,49.6,84.7,50"/>
		<path d="M81.9,48.9c0-0.1-0.2-2-0.1-1.9c-0.2-0.1-0.4-0.1-0.5-0.1c0.2,0.7,0.4,1.5,0.5,2.3c0,0.3,0.1,0.6,0.2,0.8
			c0,0.3,0.2,0.4,0.2,0.6c0.3-0.2,0-0.5-0.1-0.8C82,49.6,82,49.2,81.9,48.9z"/>
		<path d="M70.3,49.4c0.2-0.5,0.4-0.9,0.8-1.2c0.6-0.4,1.1-0.4,1.8-0.5c0.7-0.1,1.3-0.2,2.1-0.3c0.7,0,1.4-0.1,2.2-0.1
			c1.2,0,2.4-0.2,3.7-0.2c0.6,0,1.1,0.1,1.6,0.1c0.3,0,0.4,0,0.6-0.2c0.1-0.1,0.4-0.4,0.5-0.6c0,0,0-0.1,0-0.2
			c-0.2,0.1-0.4,0.3-0.6,0.4c-0.2,0.1-0.5,0.2-0.7,0.2c-0.6,0.1-1.1,0-1.7-0.1c-0.6-0.1-1.1,0.1-1.7,0.1c-0.6,0-1.1,0-1.7,0
			c-1.3,0-2.5,0.2-3.8,0.4c-1,0.2-2.3,0.3-3,1.2c-0.3,0.3-0.2,0.6,0.1,0.8"/>
		<path d="M81.2,38.2c-0.1,0.6,1.3,2.2,0,2.2c0.1,0.1,0.2,0.3,0.3,0.5c0.1-0.2,0.2-0.4,0.3-0.7c0.2-0.2,0.1-0.4,0.2-0.7
			c-0.4,0-0.8-0.7-0.7-1.1c0-0.2,0.2-0.3,0.4-0.3c0.1,0,0.3,0.1,0.4,0c0.2-0.2,0-0.7-0.1-0.9c-0.1-0.5-0.2-1.1-0.3-1.7
			c-0.1,0.2-0.1,0.5-0.2,0.7c-0.1,0.3,0,0.3,0.1,0.6c0.2,0.6,0,0.9-0.5,1.2C81.2,38.1,81.2,38.2,81.2,38.2"/>
		<path d="M81.4,40.8c-0.1,0.2-0.3,0.2-0.5,0.1c-0.2,0.2-0.6,0.3-0.9,0.4c0.3,0,0.6-0.2,0.9-0.1c0.4,0.1,0.2,0.4-0.1,0.5
			c0.2,0,0.3,0.1,0.4,0.2c0,0.2,0.2,0.4,0,0.6c0.4-0.4,0.4-1.3,0.4-1.8c-0.1,0-0.1,0-0.2,0.1"/>
		<path d="M80.4,38c-0.3-0.2-0.7-0.4-1.1-0.3c-0.4,0-0.7,0.4-1,0.5c0.4-0.1,0.8-0.3,1.2-0.3C79.8,37.9,80.5,38.3,80.4,38
			C80.5,37.9,80.4,37.9,80.4,38"/>
		<path d="M80.1,35c0,0.1-0.1,0.4,0,0.5c0.1,0.1,0.2,0,0.3,0.2c0.1,0.2-0.1,0.7-0.2,0.8c0.2-0.2,0.6-0.6,0.4-0.9
			c0-0.1-0.1-0.1-0.2-0.2c-0.1-0.1-0.1-0.1-0.1-0.2c-0.1-0.2,0-0.4-0.3-0.3C80.1,34.9,80.1,35,80.1,35"/>
		<path d="M79.4,38.6c-0.3,0-0.7,0.1-0.9,0.3c0.4,0,0.8-0.3,1.3-0.2c0,0.5-0.7,0.5-1,0.3c0.3,0.2,0.7,0.4,1,0.2
			c0.1-0.1,0.5-0.7,0.5-0.9C79.9,38.5,79.6,38.5,79.4,38.6"/>
		<path d="M80.3,36.3c0,0-0.1,0-0.1,0c0-0.1,0-0.2,0-0.3c-0.2,0-0.5,0.1-0.6,0c-0.2-0.1-0.2-0.3-0.4-0.3c0.3,0.2,0.2,0.3,0.3,0.5
			c0.2,0,0.3,0,0.5,0c0,0.2,0.2,0.5,0.3,0.2"/>
		<path d="M76.5,40.7c-0.1,0.3-0.4,0.1-0.6-0.1c-0.1-0.1,0-0.3-0.1-0.4c-0.1-0.1-0.2-0.1-0.3-0.2c-0.2-0.3,0-1.5,0.5-1
			c0-0.1-0.2-0.2-0.3-0.2c0-0.1,0.1-0.3,0.2-0.4c-0.3-0.3-0.6-0.4-0.7-0.9c0,0.4,0.5,0.7,0.5,1.1c-0.1,0-0.1,0.1-0.2,0.1
			c0,0.1,0,0.1,0,0.2c-0.3,0-0.5-0.1-0.7-0.3c0,0.2,0.2,0.3,0.3,0.5c0.1,0.2,0,0.2,0.1,0.4c0,0.3,0.2,0.6,0,0.9
			c0.1,0.1,0.3,0.1,0.4,0.2c0.1,0.1,0.2,0.2,0.3,0.3C76,40.9,76.8,41,76.5,40.7"/>
		<path d="M76.4,38.6c0.1-0.1,0.1-0.2,0.1-0.3c-0.4,0-0.4-0.4-0.4-0.7c0,0.3,0.3,0.5,0.6,0.6C76.6,38.3,76.5,38.5,76.4,38.6"/>
		<path d="M80.6,36.1c0,0.1,0,0.2,0.1,0.2c0.2,0,0.4-0.2,0.4-0.4c0,0.1,0,0.3,0.1,0.4c0.2-0.3,0.4-0.6,0.3-1c0.2,0.3-0.1,0.7-0.1,1
			c0.2,0,0.3,0,0.4-0.1c-0.2,0.4-0.4,0.2-0.7,0.3c0,0,0-0.1,0-0.1c-0.2,0-0.3,0.1-0.5,0.2c-0.1-0.1-0.1-0.2,0-0.3"/>
		<path d="M79.5,36.2c-0.1,0.2-0.7-0.3-0.9-0.4c0.1,0.1,0.3,0.3,0.4,0.5c-0.1,0-0.2,0-0.3-0.1c0,0,0,0.1,0,0.1
			c-0.1,0-0.3-0.1-0.4-0.1c-0.1,0-0.3,0.2-0.2,0.3c-0.1-0.1-0.2-0.3-0.4-0.4c0,0.1,0,0.5,0.1,0.5c-0.1,0-0.2,0-0.3-0.2
			c0,0.2,0,0.4,0,0.5c-0.1,0-0.1,0-0.2,0c0,0.1,0,0.3,0,0.4c-0.1,0-0.1-0.2-0.3-0.1c-0.1,0-0.1,0.4-0.1,0.5c-0.2,0-0.3-0.2-0.4-0.1
			c0,0-0.1,0.3-0.1,0.4c-0.1,0-0.2-0.1-0.2-0.2c0.2-0.3,0.2-0.5-0.1-0.7c0.2,0,0.3,0.1,0.5,0.1c0-0.2,0-0.4,0-0.6
			c0.1,0.2,0.2,0.6,0.2,0.8c0-0.2,0.3-0.4,0.2-0.7c0,0.1,0.1,0.1,0.1,0.2c0-0.3,0-0.6,0-1c0,0.2,0.1,0.3,0.3,0.3
			c-0.1-0.5,0.1-0.7,0.4-0.2c0.1-0.1,0.2-0.2,0.3-0.3c0.1,0.1,0.3,0.2,0.4,0.2c0-0.2-0.2-0.3-0.2-0.5c0.4,0.1,0.6,0.6,1,0.5"/>
		<path d="M76.4,38.2c-0.3-0.1-0.2,0.3-0.2,0.5c-0.1,0-0.1,0-0.2-0.1c0,0.1-0.1,0.2-0.3,0.2c0-0.1,0-0.2,0.1-0.2
			c0.4,0.1,0.3-0.2,0.2-0.5c0.1,0,0.2,0,0.2,0"/>
		<path d="M75,36.7c0.1,0.2,0.2,0.5,0.4,0.6c-0.2-0.1-0.3-0.7-0.1-0.9c0.1,0.1,0.2,0.1,0.2,0.2c0-0.1,0-0.2,0-0.3
			c0.1,0.1,0.2,0.2,0.4,0.3c0-0.3,0-0.6,0.2-0.8c0.1,0,0.2,0.1,0.3,0.2c0-0.2,0.1-0.3,0.1-0.5c0.1,0.1,0.2,0.3,0.4,0.3
			c0-0.2-0.1-0.6,0.2-0.7c0,0.1,0.1,0.1,0.2,0.2c0-0.2,0.2-0.3,0.4-0.4c0.1,0.1,0.2,0.2,0.3,0.3c0-0.3-0.1-0.5,0.1-0.7
			c0,0.1,0.2,0.1,0.2,0.2c0-0.1,0-0.3,0.1-0.4c0.1,0.1,0.3,0.3,0.5,0.3c0,0-0.1,0-0.1,0c0-0.2,0-0.3,0-0.5c0.2,0,0.3,0.2,0.5,0.3
			c-0.1-0.1-0.2-0.3-0.1-0.5c-0.1,0.3-0.3,0.1-0.6,0.1c0,0.2-0.2,0.6-0.4,0.3c0,0,0,0.2,0,0.2c-0.1-0.1-0.1-0.1-0.2-0.1
			c0,0.2-0.2,0.3-0.2,0.5c-0.1,0-0.2,0-0.3-0.1c-0.1,0.1-0.1,0.2-0.2,0.3c-0.2-0.3-0.4,0.3-0.5,0.5c-0.1-0.1-0.2-0.1-0.3-0.2
			c0,0.4-0.1,0.3-0.4,0.2c-0.1,0.2-0.1,0.5-0.2,0.7c-0.1,0-0.2-0.1-0.3-0.1c0,0,0,0.1,0,0.1c-0.1,0-0.2-0.1-0.3-0.1
			c0,0.2-0.4,0.2-0.4,0.4"/>
		<path d="M81,40.3c-0.1,0-0.2,0-0.2,0.1c0.1,0,0.3,0,0.4,0C81.1,40.4,81,40.4,81,40.3C81,40.3,81,40.3,81,40.3"/>
	</g>
	<g>
		<path class="st7" d="M15.6,20.3c-0.1-0.4-0.1-0.8,0-1.1c0.1-0.4,0.2-0.7,0.4-1c0.2-0.3,0.4-0.6,0.7-0.9c0.3-0.3,0.6-0.5,0.9-0.7
			c0.3-0.2,0.7-0.4,1-0.5c0.3-0.1,0.7-0.2,1-0.3c0.2,0,0.3-0.1,0.4-0.1c0.1,0,0.3,0,0.4,0c0.1,0,0.3,0,0.4,0c0.1,0,0.3,0,0.5,0.1
			c0,0,0.1,0,0.1,0.1c0.1,0,0.1,0.1,0.1,0.1l0,0.1c0,0.2,0,0.4-0.2,0.6c-0.2,0.2-0.4,0.4-0.6,0.6c-0.2,0.2-0.5,0.4-0.7,0.5
			C20,17.9,19.8,18,19.6,18c-0.1,0-0.2,0-0.2-0.1c-0.1-0.1-0.1-0.2-0.2-0.3c-0.1-0.1-0.2-0.2-0.4-0.3c-0.2-0.1-0.4-0.1-0.8,0
			c-0.1,0-0.2,0.1-0.3,0.1c-0.1,0.1-0.2,0.1-0.3,0.2c-0.1,0.1-0.2,0.2-0.2,0.3C17.1,18,17,18.1,17,18.2l0,0.1c0,0.1,0,0.1,0,0.2
			c0,0.1,0,0.1,0,0.2l0,0.1c0.1,0.4,0.2,0.8,0.4,1.1c0.2,0.3,0.5,0.6,0.8,0.8c0.3,0.2,0.6,0.3,1,0.4c0.4,0.1,0.8,0,1.2,0
			c0.1,0,0.2,0,0.2-0.1c0.1,0,0.1-0.1,0.2-0.1c0.1,0,0.1-0.1,0.2-0.1c0.1,0,0.1-0.1,0.2-0.1c0.1,0.3,0,0.6-0.1,0.8
			c-0.1,0.2-0.3,0.4-0.6,0.5c-0.2,0.1-0.5,0.2-0.8,0.3c-0.3,0.1-0.6,0.1-0.8,0.2c-0.4,0.1-0.8,0.1-1.2,0c-0.4-0.1-0.7-0.2-1-0.4
			c-0.3-0.2-0.6-0.4-0.8-0.7C15.9,21.1,15.7,20.7,15.6,20.3z"/>
		<path class="st7" d="M23.6,19.2c0-0.5-0.1-1.1-0.2-1.6c0-0.1,0-0.2,0-0.3c0-0.1,0-0.3-0.1-0.5c0-0.2,0-0.3-0.1-0.4
			c0-0.1,0-0.2,0-0.3c0-0.1-0.1-0.2-0.2-0.3c-0.1-0.1-0.2-0.2-0.3-0.2c-0.1-0.1-0.2-0.1-0.3-0.2c-0.1,0-0.2,0-0.3,0
			c0.1-0.1,0.2-0.3,0.3-0.4c0.1-0.1,0.3-0.2,0.4-0.3l1.3-0.9c0,0,0,0,0.1,0c0,0,0,0,0.1,0c0.1,0,0.1,0,0.2,0c0,0,0.1,0.1,0.1,0.2
			c0,0,0,0.1,0,0.1c0,0.1,0,0.2,0.1,0.3c0,0.1,0.1,0.2,0.1,0.3c0,0.1,0,0.2,0.1,0.3l0,0.1c0.1,0.6,0.1,1.2,0.2,1.8
			c0,0.6,0.1,1.2,0.2,1.8c0,0.1,0,0.2,0.1,0.4c0,0.2,0,0.3,0.1,0.5c0,0.2,0,0.3,0.1,0.4c0,0.1,0,0.2,0,0.2l0.1,0.1
			c0.1,0,0.2,0,0.4,0c0.2,0,0.4,0,0.7-0.1c0.2,0,0.5,0,0.7-0.1c0.2,0,0.3,0,0.4,0c0,0,0.1,0,0.1,0c0.1,0,0.1,0,0.2,0
			c0.1,0,0.1,0,0.2,0c0.1,0,0.1,0,0.1,0c0,0,0.1,0,0.1,0.1c0,0.1,0.1,0.1,0,0.1c0,0.1-0.1,0.2-0.2,0.3c-0.1,0.1-0.2,0.2-0.3,0.3
			C28,20.9,27.9,21,27.7,21c-0.1,0.1-0.2,0.1-0.3,0.1l-3.2,0.4c-0.1,0-0.2,0-0.2-0.1c-0.1,0-0.1-0.1-0.1-0.2c0-0.1-0.1-0.2-0.1-0.2
			c0-0.1,0-0.2,0-0.2C23.7,20.3,23.6,19.8,23.6,19.2z"/>
		<path class="st7" d="M29.9,21.8c0-0.2,0-0.3,0.1-0.4c0.1-0.1,0.2-0.1,0.3-0.2c0.1-0.1,0.2-0.1,0.4-0.2c0.1-0.1,0.2-0.1,0.1-0.3
			c-0.2-0.1-0.3-0.1-0.4-0.2c-0.1,0-0.2-0.1-0.4-0.2c-0.1-0.1-0.3-0.1-0.4-0.2c-0.1,0-0.2-0.1-0.3-0.1c-0.1,0-0.1-0.1-0.2-0.1
			c-0.1-0.1-0.2-0.2-0.3-0.4c-0.1-0.2-0.1-0.3-0.2-0.5c0-0.2-0.1-0.4-0.1-0.5c0-0.2,0-0.3,0-0.5c0-0.5,0-0.9,0.1-1.3
			c0.1-0.4,0.2-0.7,0.4-1c0.1-0.1,0.2-0.3,0.3-0.4c0.1-0.1,0.2-0.3,0.3-0.4c0.1-0.1,0.3-0.3,0.4-0.4c0.2-0.1,0.4-0.3,0.6-0.4
			c0.4-0.2,0.8-0.3,1.2-0.3c0.3-0.1,0.7-0.1,1.1-0.1c0.1,0,0.1,0,0.3,0c0.1,0,0.3,0,0.4,0c0.2,0,0.3,0,0.5,0.1
			c0.2,0,0.3,0.1,0.5,0.1c0.1,0,0.3,0.1,0.3,0.2c0.1,0.1,0.1,0.1,0.1,0.2l0,0.1c0,0,0,0.1,0,0.1c0,0.1,0,0.1-0.1,0.1
			c-0.1,0.1-0.3,0.2-0.5,0.3c-0.2,0.1-0.4,0.2-0.5,0.4c-0.2,0.1-0.3,0.3-0.5,0.4c-0.1,0.1-0.3,0.3-0.3,0.4l0.1,0.1l2,0l0.1,0.1
			c0,0.3,0,0.6,0,0.9c0,0.3,0.1,0.6,0.1,0.9c0,0.3,0,0.6,0.1,0.9c0,0.3,0,0.6-0.1,0.9c-0.1,0.3-0.2,0.5-0.3,0.8
			c-0.2,0.2-0.4,0.5-0.6,0.7c-0.2,0.2-0.5,0.3-0.7,0.4c-0.2,0.1-0.4,0.3-0.6,0.4c-0.2,0.1-0.4,0.2-0.7,0.3c-0.2,0.1-0.5,0.1-0.8,0.1
			c-0.2,0-0.3,0-0.5,0c-0.2,0-0.4,0-0.6-0.1c-0.2-0.1-0.4-0.1-0.5-0.3C30,22.2,29.9,22,29.9,21.8z M31.6,14.8
			c-0.3,0-0.6,0.1-0.8,0.3c-0.2,0.1-0.3,0.3-0.4,0.6c-0.1,0.2-0.1,0.5-0.1,0.7c0,0.3,0,0.5,0,0.8l0,0.1c0,0,0,0.1,0,0.2
			c0,0.1,0,0.1,0,0.2l0,0.1c0.3-0.1,0.5-0.3,0.8-0.5c0.3-0.2,0.5-0.4,0.8-0.6c0.2-0.2,0.5-0.4,0.7-0.7c0.2-0.2,0.5-0.4,0.7-0.7
			c0,0,0,0,0-0.1c0,0,0,0,0-0.1c0-0.1-0.1-0.2-0.2-0.3c-0.1-0.1-0.3-0.1-0.5-0.1c-0.2,0-0.4,0-0.5,0C31.8,14.8,31.7,14.8,31.6,14.8z
			 M30.5,18.4c0,0.3,0.1,0.5,0.3,0.7c0.2,0.2,0.4,0.3,0.7,0.5c0.3,0.1,0.5,0.2,0.8,0.2c0.3,0,0.5,0,0.8,0c0.3,0,0.4-0.1,0.6-0.3
			c0.1-0.2,0.2-0.3,0.2-0.5c0-0.2,0-0.4,0-0.7c0-0.2,0-0.4-0.1-0.6c0,0,0-0.1,0-0.1c0,0,0-0.1,0-0.1c0,0,0-0.1,0-0.1
			c0,0-0.1,0-0.1,0c-0.3,0-0.6,0-0.8,0c-0.2,0-0.5,0-0.8,0c-0.1,0-0.1,0-0.2,0c-0.1,0-0.2,0-0.2,0c-0.1,0-0.2,0.1-0.3,0.1
			c-0.1,0.1-0.3,0.1-0.4,0.2c-0.1,0.1-0.3,0.2-0.4,0.3C30.6,18.2,30.5,18.3,30.5,18.4z M31.3,21.3c0,0.2,0.1,0.3,0.2,0.4
			c0.1,0.1,0.3,0.2,0.5,0.2c0.2,0,0.3,0.1,0.5,0.1c0.2,0,0.3,0,0.4,0c0.3,0,0.5-0.1,0.6-0.2c0.1-0.1,0.2-0.2,0.3-0.4
			c0.1-0.1,0.1-0.3,0.1-0.5c0-0.2,0-0.4,0-0.7c-0.2,0-0.4,0.1-0.6,0.1c-0.2,0.1-0.4,0.2-0.6,0.3c-0.2,0.1-0.4,0.2-0.6,0.3
			c-0.2,0.1-0.4,0.1-0.6,0.2c0,0,0,0.1-0.1,0.1C31.3,21.2,31.3,21.3,31.3,21.3z"/>
		<path class="st7" d="M41.8,17.6c0-0.5,0-1.1,0-1.7c0-0.1,0-0.2,0-0.3c0-0.1,0-0.3,0-0.5c0-0.2,0-0.3,0-0.4c0-0.1,0-0.2,0-0.3
			c0-0.1-0.1-0.2-0.1-0.3c-0.1-0.1-0.1-0.2-0.2-0.3c-0.1-0.1-0.2-0.1-0.3-0.2c-0.1,0-0.2-0.1-0.3-0.1c0.1-0.1,0.2-0.3,0.4-0.4
			c0.2-0.1,0.3-0.2,0.4-0.2l1.4-0.7c0,0,0,0,0.1,0c0,0,0,0,0.1,0c0.1,0,0.1,0,0.2,0c0,0,0.1,0.1,0.1,0.2c0,0,0,0.1,0,0.1
			c0,0.1,0,0.2,0,0.3c0,0.1,0,0.2,0,0.3c0,0.1,0,0.2,0,0.3l0,0.1c0,0.6,0,1.2,0,1.8c0,0.6,0,1.2,0,1.8c0,0.1,0,0.2,0,0.4
			c0,0.2,0,0.3,0,0.5c0,0.2,0,0.3,0,0.4c0,0.1,0,0.2,0,0.2l0.1,0.1c0.1,0,0.2,0,0.4,0c0.2,0,0.4,0,0.7,0c0.2,0,0.5,0,0.7,0
			c0.2,0,0.3,0,0.4,0c0,0,0.1,0,0.1,0c0.1,0,0.1,0,0.2,0c0.1,0,0.1,0,0.2,0c0.1,0,0.1,0,0.1,0c0,0,0.1,0,0.1,0.1c0,0.1,0,0.1,0,0.1
			c0,0.1-0.1,0.2-0.2,0.3c-0.1,0.1-0.2,0.2-0.3,0.2c-0.1,0.1-0.3,0.1-0.4,0.2c-0.1,0-0.2,0.1-0.3,0.1L42.1,20c-0.1,0-0.2,0-0.2-0.1
			c0-0.1-0.1-0.1-0.1-0.2c0-0.1,0-0.2,0-0.2c0-0.1,0-0.2,0-0.2C41.7,18.7,41.7,18.1,41.8,17.6z"/>
		<path class="st7" d="M52.8,18.6c-0.1,0-0.2,0-0.4,0c-0.2,0-0.4,0-0.5,0l-0.2,0c-0.7,0-1.3,0.1-2,0.2c-0.7,0.1-1.3,0.3-1.9,0.5
			l-0.7,0.3c0,0,0,0-0.1,0c0,0-0.1,0-0.1,0c-0.1,0-0.2,0-0.2-0.1c0-0.1,0-0.2,0-0.2c0,0,0,0,0-0.1c0,0,0,0,0-0.1
			c0.2-0.3,0.5-0.5,0.7-0.7c0.2-0.2,0.6-0.4,1-0.6l0.1,0l0.1,0l0.1,0l0.1,0c0.1,0,0.2-0.1,0.3-0.2c0.1-0.1,0.2-0.3,0.4-0.4
			c0.1-0.2,0.3-0.3,0.4-0.5c0.1-0.2,0.2-0.4,0.3-0.5c0.1-0.2,0.2-0.3,0.3-0.5c0.1-0.2,0.1-0.3,0.1-0.4c0,0,0,0,0-0.1
			c0-0.1-0.1-0.1-0.1-0.1c0,0,0,0-0.1-0.1c0-0.1-0.1-0.1-0.1-0.2c0-0.1-0.1-0.1-0.1-0.2c0,0-0.1-0.1-0.1-0.1c-0.1,0-0.3,0-0.4,0.1
			c-0.1,0.1-0.3,0.1-0.4,0.2c-0.1,0.1-0.3,0.1-0.5,0.2c-0.2,0.1-0.3,0.1-0.5,0.1c0-0.1,0.1-0.2,0.2-0.3c0.1-0.1,0.3-0.3,0.5-0.4
			c0.2-0.1,0.4-0.3,0.7-0.4c0.2-0.1,0.5-0.3,0.7-0.4c0.2-0.1,0.4-0.2,0.6-0.3c0.2-0.1,0.4-0.1,0.5-0.1c0.1,0,0.2,0,0.2,0
			c0.1,0,0.1,0,0.2,0.1c0,0,0.1,0.1,0.1,0.1c0.1,0.1,0.1,0.1,0.2,0.2c0.1,0.1,0.1,0.1,0.2,0.2c0.1,0.1,0.1,0.1,0.1,0.2
			c0,0,0.1,0.1,0.1,0.2c0.1,0.1,0.1,0.2,0.2,0.3c0.1,0.1,0.1,0.2,0.2,0.3c0.1,0.1,0.1,0.2,0.1,0.2l0.6,0.9c0.1,0.2,0.3,0.4,0.5,0.6
			c0.2,0.3,0.4,0.5,0.6,0.8c0.2,0.3,0.4,0.6,0.5,0.8c0.2,0.3,0.2,0.5,0.3,0.7c0,0.2,0,0.3-0.1,0.4c-0.1,0.1-0.3,0.2-0.4,0.3
			c-0.2,0.1-0.3,0.1-0.5,0.2c-0.2,0-0.3,0.1-0.4,0.1c-0.2,0-0.3-0.1-0.4-0.2c-0.1-0.1-0.2-0.2-0.3-0.4c-0.1-0.1-0.2-0.3-0.3-0.4
			C53.1,18.8,53,18.7,52.8,18.6z M51.4,16.1c-0.2,0.3-0.4,0.5-0.6,0.8c-0.2,0.3-0.3,0.6-0.5,0.9l0.2,0c0.3,0,0.5-0.1,0.8-0.2
			c0.3-0.1,0.5-0.2,0.8-0.3c0,0,0,0,0-0.1c0,0,0-0.1,0-0.1c0-0.1,0-0.2,0-0.3c0-0.1-0.1-0.2-0.1-0.3c-0.1-0.1-0.1-0.2-0.2-0.3
			c-0.1-0.1-0.1-0.1-0.2-0.1C51.5,16.1,51.4,16.1,51.4,16.1C51.4,16.1,51.4,16.1,51.4,16.1z"/>
		<path class="st7" d="M56.4,16.1c0.2-0.4,0.4-0.7,0.7-1c0.3-0.3,0.6-0.5,1-0.7c0.4-0.2,0.8-0.4,1.2-0.5c0.4-0.1,0.8-0.2,1.2-0.3
			c0.4-0.1,0.8-0.1,1.2-0.1c0.2,0,0.5,0.1,0.7,0.2c0.3,0.1,0.6,0.2,0.8,0.4c0.2,0.2,0.5,0.3,0.6,0.6c0.2,0.2,0.3,0.4,0.2,0.7
			c0,0.5-0.1,0.9-0.2,1.3c-0.1,0.4-0.3,0.7-0.5,1c-0.2,0.3-0.4,0.6-0.7,0.8c-0.3,0.2-0.6,0.5-1,0.7c-0.2,0.1-0.4,0.3-0.6,0.4
			c-0.2,0.1-0.5,0.2-0.7,0.3c-0.2,0.1-0.5,0.2-0.7,0.2C59.5,20,59.2,20,59,20c-0.4,0-0.7-0.1-1.1-0.2c-0.4-0.1-0.7-0.3-1-0.6
			c-0.3-0.2-0.5-0.5-0.7-0.8c-0.2-0.3-0.2-0.7-0.2-1.1C56.1,16.8,56.2,16.4,56.4,16.1z M57.9,17.3c0.1,0.4,0.3,0.7,0.6,0.9
			c0.2,0.2,0.5,0.4,0.8,0.6c0.3,0.2,0.7,0.2,1,0.3c0.3,0,0.5,0,0.7-0.2c0.2-0.1,0.4-0.3,0.6-0.5c0.2-0.2,0.3-0.4,0.4-0.6
			c0.1-0.2,0.1-0.5,0.2-0.8c0-0.3,0-0.5,0-0.8c0-0.3-0.2-0.5-0.4-0.8c-0.1-0.1-0.2-0.3-0.3-0.4c-0.1-0.1-0.2-0.2-0.3-0.2
			c-0.1-0.1-0.2-0.1-0.3-0.2c-0.1,0-0.2-0.1-0.3-0.1L60,14.4c-0.4,0-0.8,0-1.1,0.1c-0.3,0.1-0.5,0.3-0.7,0.5
			c-0.2,0.2-0.2,0.5-0.3,0.7c0,0.2-0.1,0.4-0.1,0.5C57.7,16.6,57.8,17,57.9,17.3z"/>
		<path class="st7" d="M64.5,15.4C64.5,15.4,64.5,15.4,64.5,15.4c0.1-0.1,0.1-0.1,0.1-0.1c0.2-0.1,0.5-0.2,0.8-0.3
			c0.3-0.1,0.5-0.3,0.8-0.4c0.3-0.1,0.6-0.2,0.8-0.4c0.3-0.1,0.6-0.2,0.8-0.3c0,0,0,0,0.1,0c0,0,0,0,0.1,0c0,0,0,0,0.1,0
			c0,0,0,0,0.1,0c0,0,0,0.1,0.1,0.2c0,0.1,0,0.2,0,0.2c0,0.8-0.1,1.6-0.1,2.3c0,0.8-0.1,1.6-0.2,2.3l-0.1,0.7
			c-0.1,0.1-0.2,0.2-0.3,0.3c-0.1,0.1-0.2,0.2-0.3,0.2c-0.1,0-0.2,0.1-0.3,0.1c-0.1,0-0.3,0-0.4,0c0,0-0.1,0-0.2,0
			c-0.1,0-0.1,0-0.1,0l-0.1-0.1c0-0.3,0-0.5,0-0.6c0-0.2,0-0.3,0-0.5c0-0.2,0-0.3,0-0.5c0-0.4,0-0.8,0.1-1.2c0-0.4,0-0.7-0.1-1
			c-0.1-0.3-0.2-0.5-0.5-0.7C65.4,15.7,65,15.6,64.5,15.4C64.5,15.5,64.5,15.5,64.5,15.4z M69.3,12.7L69,12.9
			c-0.3,0.1-0.6,0.2-0.8,0.4c-0.3,0.1-0.6,0.3-0.9,0.4c-0.3,0.1-0.6,0.2-0.9,0.4c-0.3,0.1-0.6,0.2-0.9,0.2l0-0.2
			c0,0,0.1-0.1,0.3-0.1c0.2-0.1,0.4-0.2,0.7-0.3c0.3-0.1,0.5-0.2,0.8-0.3c0.3-0.1,0.5-0.2,0.7-0.3c0.1,0,0.1-0.1,0.2-0.1
			c0.1,0,0.2-0.1,0.3-0.1c0.1,0,0.2-0.1,0.3-0.1c0.1,0,0.2,0,0.3,0L69.3,12.7z"/>
		<path class="st7" d="M69.1,19.1c0,0,0.1,0,0.1-0.1c0.1,0,0.2-0.1,0.3-0.1c0.1,0,0.2-0.1,0.3-0.1c0.1,0,0.2-0.1,0.3-0.1
			c0,0,0,0,0.1,0c0,0,0.1,0,0.1,0c0,0,0,0,0.1,0c0,0,0.1,0,0.1,0c0.2,0.4,0.5,0.8,0.8,1c0.3,0.2,0.7,0.3,1.2,0.4c0.1,0,0.3,0,0.4,0
			c0.1,0,0.3,0,0.4-0.1c0.1,0,0.2-0.1,0.3-0.2c0.1-0.1,0.1-0.2,0.2-0.4c0-0.2,0-0.4-0.1-0.6c-0.1-0.2-0.2-0.3-0.4-0.4
			c-0.2-0.1-0.4-0.2-0.6-0.3s-0.5-0.1-0.7-0.2c-0.2-0.1-0.5-0.1-0.7-0.2c-0.2-0.1-0.4-0.1-0.6-0.2c-0.2-0.1-0.3-0.2-0.4-0.4
			c-0.1-0.1-0.1-0.3-0.1-0.5c0-0.3,0.1-0.6,0.3-0.8c0.2-0.2,0.4-0.4,0.7-0.6c0.3-0.2,0.6-0.3,0.9-0.4c0.3-0.1,0.7-0.2,1-0.3
			c0.3-0.1,0.7-0.1,1-0.1c0.3,0,0.6,0,0.8,0c0.1,0,0.2,0,0.3,0.1c0.1,0,0.3,0.1,0.4,0.1c0.1,0.1,0.3,0.1,0.3,0.2
			c0.1,0.1,0.1,0.2,0.1,0.3c0,0.1-0.1,0.2-0.2,0.3c-0.1,0.1-0.3,0.2-0.5,0.2c-0.2,0.1-0.4,0.1-0.6,0.2c-0.2,0-0.4,0.1-0.7,0.1
			c-0.2,0-0.4,0-0.6,0c-0.2,0-0.3,0-0.4,0c0,0,0,0,0-0.1c0,0,0-0.1,0-0.1l0.3-0.2c0,0,0,0,0-0.1c0-0.1,0-0.1-0.1-0.1
			c-0.1,0-0.2-0.1-0.3-0.1c-0.1,0-0.2,0-0.3,0c-0.1,0-0.1,0-0.2,0c-0.2,0-0.4,0-0.5,0.1c-0.1,0.1-0.2,0.2-0.3,0.5
			c0,0.3,0,0.5,0.2,0.6c0.2,0.2,0.4,0.3,0.7,0.4c0.3,0.1,0.6,0.2,0.9,0.3c0.3,0.1,0.7,0.2,0.9,0.3c0.3,0.1,0.5,0.2,0.7,0.4
			c0.2,0.2,0.3,0.4,0.2,0.6c0,0.3-0.1,0.6-0.3,0.8c-0.2,0.2-0.4,0.4-0.7,0.6s-0.6,0.3-0.9,0.5c-0.3,0.1-0.6,0.2-1,0.3
			c-0.3,0.1-0.6,0.1-1,0.1c-0.3,0-0.6,0-0.8,0c-0.1,0-0.3,0-0.5-0.1c-0.2,0-0.4-0.1-0.5-0.2c-0.2-0.1-0.3-0.1-0.5-0.2
			c-0.2-0.1-0.3-0.2-0.3-0.3c0-0.1-0.1-0.1-0.1-0.2c0-0.1-0.1-0.2-0.1-0.3c0-0.1-0.1-0.2-0.1-0.3L69.1,19.1z"/>
		<path class="st7" d="M76.1,19.3c0-0.1,0-0.2,0-0.2c0-0.1,0-0.2,0-0.2l0-0.2c0.1-0.5,0.2-0.9,0.5-1.3c0.2-0.3,0.5-0.6,0.9-0.9
			c0.3-0.2,0.7-0.4,1.1-0.6c0.4-0.2,0.8-0.3,1.2-0.5c0.2,0,0.3,0,0.4,0c0.1,0,0.2,0,0.2,0c0.1,0,0.2,0,0.3,0c0.1,0,0.2,0,0.3,0
			l0.4,0.1c0.1,0,0.2,0.1,0.5,0.1c0.2,0.1,0.4,0.1,0.7,0.2c0.2,0.1,0.4,0.2,0.6,0.3c0.2,0.1,0.2,0.3,0.2,0.4c0,0.2-0.1,0.3-0.4,0.4
			c-0.2,0.1-0.4,0.2-0.7,0.3c-0.3,0.1-0.5,0.1-0.7,0.2c-0.2,0.1-0.4,0.2-0.5,0.3c0.1,0.1,0.2,0.1,0.5,0.2c0.2,0.1,0.4,0.1,0.6,0.2
			c0.2,0.1,0.4,0.1,0.6,0.2c0.2,0.1,0.2,0.1,0.2,0.2c0,0,0,0,0,0.1c0,0,0,0-0.1,0.1c0,0-0.1,0-0.1,0l-2.5,0.9c0,0-0.1,0-0.2,0
			c-0.1,0-0.2,0-0.2,0c0,0,0,0-0.1-0.1c0,0,0-0.1,0-0.1c0,0,0,0,0-0.1c0,0,0-0.1,0.1-0.1c0,0,0-0.1,0.1-0.1c0,0,0-0.1,0-0.1
			c0,0,0,0,0-0.1c0,0,0-0.1,0-0.1c0,0,0-0.1,0-0.2c0-0.1,0-0.1-0.1-0.1l-0.1,0c-0.1,0-0.1,0-0.2,0c-0.1,0-0.1,0-0.2,0l-0.1,0
			L79,18.5c-0.1,0-0.2,0-0.3,0c-0.1,0-0.2,0-0.3,0c-0.1,0-0.2,0-0.3,0.1c-0.1,0-0.1,0.1-0.1,0.2c-0.1,0.4,0,0.7,0.2,1
			c0.2,0.3,0.4,0.5,0.7,0.7c0.3,0.2,0.6,0.4,1,0.5c0.3,0.1,0.6,0.2,0.9,0.3l0.2,0c0.1,0,0.2,0,0.2,0c0.1,0,0.2,0,0.2,0l0.2,0
			c0,0,0.1,0,0.1,0c0.1,0,0.1,0,0.1,0c0,0,0.1-0.1,0.2-0.1c0.1-0.1,0.2-0.1,0.3-0.2c0.1-0.1,0.2-0.1,0.3-0.2
			c0.1-0.1,0.1-0.1,0.2-0.1l0.7,0.1l0,0.2c0,0,0,0-0.1,0.1c0,0-0.1,0.1-0.2,0.1c-0.1,0.1-0.1,0.1-0.2,0.2c-0.1,0-0.1,0.1-0.2,0.1
			c-0.2,0.1-0.5,0.3-0.8,0.3c-0.3,0.1-0.6,0.1-1,0.2c-0.3,0-0.7,0-1,0c-0.3,0-0.6,0-0.9-0.1c-0.3,0-0.6-0.1-0.9-0.3
			c-0.3-0.1-0.6-0.3-0.9-0.5c-0.3-0.2-0.5-0.5-0.7-0.7c-0.2-0.3-0.3-0.6-0.3-0.9L76.1,19.3z M79.3,16.2c-0.3,0.1-0.5,0.2-0.7,0.4
			c-0.2,0.2-0.4,0.4-0.5,0.6c-0.1,0.3-0.2,0.5-0.3,0.8c0.1,0,0.2,0,0.4,0c0.2,0,0.4-0.1,0.7-0.2c0.3-0.1,0.5-0.1,0.8-0.2
			c0.3-0.1,0.5-0.2,0.8-0.3c0.2-0.1,0.4-0.2,0.6-0.3c0.2-0.1,0.2-0.2,0.3-0.2c0,0,0,0,0-0.1c0,0,0,0,0-0.1c0,0-0.1-0.1-0.2-0.1
			c-0.1,0-0.2-0.1-0.3-0.2c-0.1-0.1-0.2-0.1-0.3-0.2c-0.1,0-0.2-0.1-0.2-0.1c0,0,0,0-0.1,0c0,0-0.1,0-0.1,0
			C79.9,16.1,79.6,16.2,79.3,16.2z"/>
	</g>
	<linearGradient id="SVGID_4_" gradientUnits="userSpaceOnUse" x1="51.2138" y1="77.1178" x2="51.2138" y2="24.1147">
		<stop  offset="0" style="stop-color:#FFFFFF"/>
		<stop  offset="8.624009e-02" style="stop-color:#F7FAFC"/>
		<stop  offset="0.2177" style="stop-color:#E2EDF5"/>
		<stop  offset="0.3779" style="stop-color:#C0D7E9"/>
		<stop  offset="0.5609" style="stop-color:#8FB9D9"/>
		<stop  offset="0.7631" style="stop-color:#5292C4"/>
		<stop  offset="0.9784" style="stop-color:#0863AB"/>
		<stop  offset="1" style="stop-color:#005EA8"/>
	</linearGradient>
	<path class="st8" d="M40.5,27.3c-1.1-0.4-1.1-0.6-2.3-0.5c-1.3,0.1-1.6,0.6-2.7,1.2c-2.1,1.2-4.5,0.3-6.5,1.3
		c-1.3,0.6-1.3,0.9-0.8,2.2c0.3,0.7,0.5,2.1,1.3,2.5c0.3,1.1,0.3,1.1,1.1,1.9c0.8,0.9,0.7,0.5,0.7,1.5c0.1,1.6-0.4,3-1.1,4.1
		c-0.7,1.1-2.2,1.5-2.9,2.4c-0.4,0.6,0.1,1.2-0.5,1.8c-0.4,0.5-1.4,0.6-1.9,0.6c-0.2,0.8-0.8,1.3-1.1,2c-0.6,1.6,0.1,3.3-0.3,4.8
		c-0.2,0.8-1,1.8-1.4,2.6c0.6,0.9,1.2,1.9,1.7,2.7c1-0.3,2.3-0.2,3.4-0.1c0.5,1.1-1.1,3-1.9,3.7c-0.6,0.5-1,0.5-1.4,1.2
		c-0.2,0.3,0.1,0.8,0,1c-0.2,0.3-0.6,0.3-0.7,0.6c-0.2,0.6-0.3,0.3-0.4,1c0,0.2,0.4,0.6,0.4,0.9c0,0.8-0.9,1.1-1,1.8
		c-0.2,1.6,2,2,2.4,3.4c0.6,0.4,0.9,1.9,1.1,2.5c0.2,0.5,0.3,2.2,0.9,2.8c0.1-0.2,0.3-0.3,0.4-0.5c0.6-0.3,1.8,0.3,2.2,0
		c0.5-0.4,0.1-1.4,0.3-2c1.9-0.2,1.9-3.4,4-2.9c1.5,0.4,1.1,1.7,2.1,2.4c0.7,0.6,1.8,0.3,2.6,0.6c0.6,0.2,0.8,0.8,1.4,1
		c0.7,0.3,1.8,0.2,2.6,0.1c1.2-0.1,2.3,0,3.5,0c0.6,0,1.8-3.7,1.8-4.2c2.7-1.7,0.8,1.9,2.2,2.2c0.3-2.1-0.1-5.1,1.7-6.6
		c2.2-1.8,3.4,2,5.3,1c0.5-0.9,0.3-4.7,2.4-3.1c1.2-0.9,1.8-2.6,3.3-1.9c1.2,0.6,1.9,2.2,3.2,2.8c0.3,0.9,0.2,2,0.6,2.9
		c0.5,1.2,1.6,1.3,2.4,1.9c0.8,0.6,1.9,1.5,2.6,2.2c0.4,0.4,0.6,1.7,1.2,1.8c0.9,0.1,0.1-0.6,0.6-0.9c1.3-0.8,2.6-0.2,3.9-0.5
		c0.8-0.2,2.3-0.1,2.9-0.8c0.4-0.6,0.1-2.2-0.3-2.7c1.3-1.6,0.1-4.7,0.6-6.7c0.2-1.2,0.6-2,0.1-3.2c-0.4-1.1-1.3-2-1.8-3.1
		c-0.4-0.8-0.3-2.5-1.1-3c-0.6-0.4-1,0.4-1.5,0.5c-0.7,0.1-1.4,0.1-2.1-0.3c-1.2-0.6-1.5-1.6-2.5-2.4c-1-0.8-1.7-0.9-2.1-2
		c-0.5-1.5-0.1-1.7,0.7-2.7c0.3-0.4,0.6-0.8,0.7-1.2c0.1-0.2,0.5-1.4,0.5-1.4c0.1-1,0.4-2.3,0.4-3.3c0-0.7-0.7-3.1-1.1-3.7
		c-0.3-0.4-0.9-0.2-1.3-0.9c-0.2-0.4,0.2-1.1,0-1.6c-0.4-0.9-1.6-0.9-1.9-1.9c-0.2-0.7,0.1-2.2,0.7-2.6c0.7-0.6,1-0.2,1.9-0.2
		c0,0,0.1-1.8-1.2-1.5c-0.8,0.2-1.1,1.3-1.7,1.7c-0.9,0.6-2.5,1-3.5,0.5c-0.9-0.4-1-1.6-1.9-1.9c-0.5,0.9-0.4,1.8-1.3,2.4
		c-1,0.7-2.3,2.3-3.5,1.4c-0.7,0.7-1.6,0.3-2.5,0.5c-1.1,0.3-1.6,1.1-2.7,0.4c-0.7-0.4-1.1-1.7-1.3-2.4c-0.4-1.2,0.1-2.2-0.1-3.4
		c-0.2-0.8-1.1-2-1.6-2.7c-0.7-0.9-2.7-1-3.8-0.9c-1.6,0.2-0.7,0.2-1,1.6C43.2,27.2,41.9,27.8,40.5,27.3z"/>
	<path class="st9" d="M80.2,60.3c-0.1,1.6-0.5,3.4-0.2,5c0.3,1.5,1.4,6.1-0.2,7.2c-0.7,0.5-2.6,0.1-3.4,0.2c-0.6,0-4.7,1.2-4.1,2.3
		c-0.4-0.9-0.9-2.1-1.6-2.8c-1-1-2.5-1.2-3.6-2.1c-0.8-0.7-1-1.4-1.3-2.4c-0.6-2.1-1.6-3.1-3.5-3.9c-1.2-0.5-1.4-0.3-2.5,0.3
		c-0.6,0.4-1.6,0.7-2.1,1.2c-0.7,0.7-0.3,2.1-1.3,2.6c-0.8,0.4-2.2-0.5-2.9-0.7c-3.3-0.9-3.6,2.2-4,4.8c-0.5-0.1-1-0.5-1.5-0.8
		c-1.3,1.1-1.6,2.9-2.7,4c-1.1,1.1-3,0.9-4.4,0.8c-1.6-0.2-3-0.5-4.4-1.4c-0.9-0.6-1.5-1.5-2.4-2.1c-1.5-0.9-3.7,0.7-4.6,1.9
		c-0.7,1-1.1,1.9-2.3,2.5c0-0.8-0.6-1.5-0.9-2.2c-0.7-1.6-1.8-2.4-2.7-3.8c-1.7-2.6-0.7-5.2,0.6-7.8c0.6-1.3,2.8-2.9,2.4-4.5
		c-0.7,0-1.6,0.1-2.2-0.3c-0.7-0.5-1.3-1.1-2-1.6c0.5-1.6,2-1.2,3.3-1.3c1.1-0.1,2-0.7,3.1-1.1h1l1.8-0.2c0,0,0-0.5,0.7-0.7
		c0.6-0.2,1.3,0.3,1.3,0.3l1.7-0.5c0,0,1.3,0.5,2.2,0.7c0.9,0.2,2.2-0.2,2.2-0.2s0.8-0.9,1.2-0.8c0.4,0.1,0.8,0.5,0.8,0.5l2-0.3
		l-0.2-2l-0.3-0.8c0,0,0-0.7,0.2-1.3c0.2-0.7,1-1,1-1l4,0.2l1.2-0.5h3.7l0.8,1.3L54,50.1l2.5,0.3l1.3-2.7l1,0.2l0.8-0.3
		c0,0,0.9,0,2.3,0.1c1.4,0,2.7,1.1,2.7,1.1l0.1,5.2l2.2,1.2l0.3,0.7c0,0,1.3,0.9,2.5,1.5c1.3,0.6,3,1.2,3,1.2l0.7-1.2
		c0,0,1.7,0.1,2.2,0.4c0.5,0.3,0.4,0.8,0.4,0.8l3.7,0.8L80.2,60.3z M57.5,50.5c-0.6,0.5-0.5,1.9-0.3,2.6c0.6,0.2,1.3,0.2,1.9,0.2
		c0.3,0,0.3,0.1,0.4-0.2c0.1-0.3-0.1-0.9-0.1-1.2c0-0.4-0.1-1.4-0.5-1.5C58.6,50.1,58,50.4,57.5,50.5 M50.9,54.3
		c0.4,0.1,0.9,0.4,1.1-0.2c0.1-0.3,0.2-0.4,0.4-0.6c0.2-0.2,0.3-0.3,0.4-0.5c0.1-0.4,0.3-1-0.1-1.2c-1-0.4-2.1,0-2.9,0.7
		c-0.5,0.5-0.6,0.7,0,1.2C50.1,53.9,50.4,54.1,50.9,54.3z"/>
	<path d="M57.5,48.1c0.5-0.7,0.5-0.2,1.3-0.3c1.1-0.2,1.6-0.7,2.9-0.4c0.6,0.1,1.3,0.3,1.8,0.6c0.3,0.2,1,0.5,1.1,1
		c0.2,1.3-0.2,2.6,0.1,3.9c0.2,1,0.7,1,1.4,1.6c1.2,0.9,2.3,1.7,3.5,2.6c0.9,0.6,2,0.8,2.9,1.6c0.3,0.2,0.8,0.7,0.3,0.9
		c-0.4,0.2-1.1-0.2-1.4-0.3c-0.9-0.3-1.8-0.6-2.7-1c-0.7-0.3-1.3-0.8-2-1.1c-0.6-0.3-1.3-0.4-1.8-0.9C64.1,55.5,64.3,55,63,55
		c-0.8,0-1.7,0.4-2.5,0.5c-0.8,0.1-1.7,0-2.5,0.1c-0.8,0.1-1.9,0.1-2.7,0.5c-0.3,0.2-0.6,0.4-0.4,0.8c0.1,0.1,0.8,0.4,0.8,0.4
		c0,0.4-3.1,0-3.5-0.1c-0.5-0.1-1.3,0.1-1.7-0.1c-0.2-0.2-0.2-1,0-1.2c0.3-0.3,0.6-0.2,1.1-0.2c1-0.1,1.9-0.8,2.6-1.5
		c0.6-0.6,1.2-1.3,1.5-2c0.3-0.5,0.4-1.2,0.7-1.8c0.1-0.2,0.2-0.5,0.3-0.7c0.1-0.3,0.3-0.5,0.4-0.8C57.3,48.6,57.3,48.3,57.5,48.1z
		 M59.1,52.6c0-0.2,0-0.4-0.1-0.6c0-0.3,0.1-0.9-0.1-1.1c-0.3-0.4-0.8,0-1.1,0.1c-0.2,0-0.1,1.8-0.1,2c0.5,0,0.9,0.1,1.4,0.1
		C59.1,52.9,59.1,52.8,59.1,52.6z"/>
	<path d="M51.2,54.8c0.2-0.1,0.7-0.3,0.7-0.6c0-0.2-0.6-0.2-0.7-0.3c-0.2-0.2-0.4-0.4-0.6-0.6c-0.2-0.2-0.5-0.2-0.5-0.5
		c0.3-0.2,0.5-0.5,0.9-0.6c0.5-0.1,0.9,0.2,1.4,0.1c-0.1,0.4-0.3,0.8-0.4,1.3c0,0.2,0.9-0.2,0.9-0.2c0.2-0.2,0.4-0.3,0.7-0.4
		c0.8-0.2,1.4-0.2,1.8-1c0.2-0.4,0.6-1.2,0.5-1.7c-0.2,0-1.9-0.4-1.9-0.3c0-0.5,0.1-0.9,0-1.4c-0.4-0.2-0.5-0.8-0.8-1
		c-0.3-0.1-1.1,0-1.4,0c-0.5,0-0.9-0.1-1.4-0.2c-0.6-0.1-0.8,0.3-1.3,0.4c-0.8,0.2-2,0.2-2.8,0.1c-0.8-0.1-1.9-0.2-2.5,0.4
		c-0.4,0.4-0.5,1.1-0.5,1.6c0,0.4,0.2,0.4,0.3,0.8c0.1,0.3,0.1,0.6,0.1,1c0.1,0.6,0.4,1.1-0.4,1.4c-0.4,0.2-1.5,0.4-1.9,0.2
		c-0.1,0.9-0.4,1.7,0.8,1.8c0.7,0.1,1.8,0.1,2.5-0.2c0.1-0.5-0.7-0.8-0.2-1.2c0.3-0.3,1.2-0.2,1.6-0.2c0.5,0,1.3-0.1,1.8,0.2
		c0.8,0.4,0.2,0.9,0.3,1.4c0.3,0,0.6,0.1,0.9,0.1c0.4,0,0.4,0,0.7-0.2c0.3-0.2,0.2-0.2,0.6-0.3c0.3,0,0.6,0,0.9-0.1"/>
	<path d="M66.1,61.9c0.2-0.1,0.4-0.1,0.6-0.2c0.7,0.9,1.1,0.7,1.9,0.3c0.4-0.2,0.6-0.5,1.1-0.3c0.5,0.1,0.6,0.5,1.3,0.4
		c0.1-0.9,1.3-0.9,2-0.9c1,0,1.6,0,1.8,1c0.3,2.1-1,4.3,2.4,4c0.6-0.1,1.2-0.4,1.8-0.5c1.9-0.4,0.8,2-0.3,2.4
		c-1.5,0.6-3.1,0.3-4.6,0.7c-0.9,0.3-2.1,1.2-0.6,1.7c-0.6,0.6-0.9,2.2-2,2.2c-0.5,0-0.9-0.6-1.3-0.9c-0.6-0.4-1.3-0.6-1.9-1
		c-3.9-2.4,5.4-2.1,1.2-4.5c-0.9-0.5-1.9-1.1-2.7-1.9c-0.5-0.5-1.2-2.2-0.6-2.8"/>
	<path d="M42.4,70.7c0.2-0.4,0-0.9,0.1-1.3c0.1-0.4,0.4-0.8,0.4-1.3c0.9,0.1,1.8-0.3,2.8-0.2c0.6,0.1,0.5,0.3,1,0
		c0.3-0.2,0.6-0.6,0.8-0.9c-1.2-0.1-2.2-0.4-3.4-0.4c-1.3,0-2.5,0.2-3.2-1c0.8-0.7-1.1-2.1-1.5-2.7c-0.7-1-1.1-2.6-2.3-1.6
		c-0.4,0.4-0.9,0.9-1.3,1.3c-0.6,0.6-0.4,0.7-0.1,1.4c0.3,0.7,0.3,0.9-0.2,1.6c-0.4,0.5-1.1,0.7-1,1.4c0.1,0.6,0.8,1.3,1,1.9
		c0.8,0.3,2.9,1.5,2.9-0.2c0-0.7-0.4-1.2-0.2-1.8c0.4-0.1,0.8,0.1,1.2,0.1c0,1-0.4,2.2,0.1,3.1c0.5,0.9,2,1.1,2.9,0.6"/>
	<path d="M27.8,69.9c0.3-0.6,0.5-1.1,0.8-1.7c-0.8-0.6,0.4-0.8,0.4-1.3c0.1-0.6-0.4-0.4-0.5-0.8c-0.1-0.3,0.1-0.7,0.1-1.1
		c-0.1-0.5-0.1-0.3-0.4-0.7c-0.2-0.4-0.4-0.5-0.5-1c-0.1-0.5-0.2-2.1,0.4-2.2c0.1,0.6,0.2,1.4,0.4,2c0.1,0,0.4,0,0.5,0
		c0.3-1,0.2-1.9,0.4-2.9c0.2,0.1,0.5,0.2,0.7,0.4c0,0.4,0.2,0.6,0.5,0.8c-0.7,0.9,0,3.3,0.2,4.3c0.2,0.1,0.4,0.3,0.7,0.3
		c0.4,0-0.7,4.8,1.4,2.9c0.4,0.5,0.6,1.4,1,2c0.1-0.1,0.4-0.5,0.5-0.6c-1.4-0.9,0.2-1.9,0.9-2.7c0.5,0.5,0.8,1.5,1.5,1.7
		c0.7,0.3,1.1-0.2,1.7-0.2c0.9,0,2.3,0.7,2.8,1.6c-0.7,0.4-1.4,0.9-2.1,1.2c-0.9,0.4-2,0.2-3,0.4c-0.5,0.1-0.4,0.3-0.9,0.1
		c-0.3-0.1-0.7-0.5-0.9-0.6c-1.2-0.5-1.6,0-2.6,0.4c-1.1,0.4-2.1,0.4-3.1,1c-0.5-0.2-0.8-0.7-0.8-1.3c0-0.1-0.9-0.1-0.9-0.7
		C26.7,71,27.7,70.2,27.8,69.9z"/>
	<path d="M31.9,53.9c-0.1,0.7,0.4,1.2,0.3,1.9c0,0.8-0.5,1.1-0.9,1.7c-0.3,0.4-0.9,1.1-0.8,1.6c0.1,0.4,1.3,1.1,1.6,1.1
		c-0.1-0.6-0.6-1.2-0.2-1.8c0.4-0.5,1.4-0.5,2-0.5c0.5,0,4.3,0,3-0.8c-0.5-0.3-1.9-0.1-2.5-0.3c-0.6-0.2-1.3-0.8-0.5-1.4
		c0.2-0.2,1.6-0.3,1.8-0.3c0.7,0.2,0.8,0.6,1.7,0.6c0.3,0,0.6,0,0.9-0.1c0,0.5,0.2,2,1,1.4c0.2-0.2,0.1-0.8,0.3-1.1
		c0.2-0.3,0.6-0.6,0.9-0.7c0,0,0-0.2,0-0.2c-0.3,0-0.4-0.2-0.6-0.3c0.4-0.5,2.9-0.6,1.6-1.5c-0.6-0.4-1.1-0.1-1.6,0.3
		c-0.6,0.3-0.9,0.5-1.7,0.5c-1.2,0.1-2.2-0.8-3.4-0.5c-0.7,0.1-0.9,0.2-1.6,0.2c-0.5-0.1-1.5-0.4-1.7,0.4"/>
	<g>
		<path d="M59.5,47.3c0,0-0.6,0.2-0.7,0.3c-0.2,0-1.2-0.2-1.2-0.2s-1.2,2.3-1.3,2.7c-0.3,0-1.5-0.2-1.9-0.3c0-0.3,0.1-1,0.1-1
			l-1-1.6h-3.9c0,0-1,0.4-1.2,0.5c-0.1,0-4-0.2-4-0.2l-0.1,0c0,0-1,0.4-1.2,1.2C43,49.5,43,50.2,43,50.3l0,0.1c0,0,0.3,0.8,0.3,0.9
			c0,0.1,0.1,1.2,0.1,1.6c-0.4,0.1-1.3,0.2-1.5,0.3c-0.2-0.2-0.5-0.4-0.9-0.5c-0.5-0.1-1.1,0.5-1.4,0.9c-0.3,0.1-1.2,0.3-1.9,0.1
			c-0.9-0.2-2.1-0.7-2.1-0.7l-0.1,0c0,0-1.4,0.4-1.6,0.5c-0.3-0.2-0.9-0.5-1.5-0.3c-0.5,0.1-0.7,0.4-0.8,0.7c-0.3,0-1.6,0.1-1.6,0.1
			c0,0-1,0-1,0c-0.7,0-1.4,0.4-1.9,0.8c-0.3,0.2-0.6,0.4-0.9,0.5c-0.5,0.2-0.5,0.1-0.9-0.1l-0.7-0.5l-0.2,0.2
			c-0.6,0.5-1.2,0.9-1.8,1.2l-0.2,0.1l0.3,0.6l0.2-0.1c0.6-0.3,1.1-0.7,1.7-1.1c0.1,0.1,0.2,0.2,0.2,0.2c0.4,0.3,0.7,0.5,1.5,0.2
			c0.4-0.1,0.7-0.4,1.1-0.6c0.5-0.3,1.1-0.7,1.6-0.7h1l2.1-0.2l0-0.3c0,0,0.1-0.3,0.4-0.4c0.4-0.1,0.9,0.2,1,0.3l0.1,0.1l0.2,0
			c0,0,1.4-0.4,1.6-0.5c0.3,0.1,1.3,0.5,2.1,0.6c1,0.2,2.3-0.2,2.3-0.2l0.1,0L40,54c0.3-0.4,0.7-0.7,0.9-0.7c0.2,0,0.5,0.3,0.6,0.4
			l0.1,0.1l0.2,0l2.3-0.4L44,51c0,0-0.3-0.7-0.3-0.8c0-0.2,0-0.7,0.2-1.2c0.1-0.4,0.5-0.6,0.7-0.7c0.2,0,4,0.2,4,0.2
			s1.1-0.5,1.2-0.5c0.1,0,3.1,0,3.4,0c0.1,0.2,0.6,0.9,0.7,1.1c0,0.2-0.2,1.4-0.2,1.4l3.1,0.4c0,0,1.1-2.3,1.3-2.7
			c0.3,0,0.8,0.1,0.8,0.1s0.7-0.3,0.9-0.3c0.1,0,2.2,0.1,2.2,0.1c1,0,2,0.7,2.3,0.9c0,0.3,0.1,5.2,0.1,5.2s2.1,1.1,2.3,1.2
			c0.1,0.1,0.3,0.6,0.3,0.6l0.1,0c0.1,0,1.3,1,2.6,1.5c1.3,0.6,3,1.2,3,1.2l0.3,0.1c0,0,0.6-1,0.8-1.3c0.6,0.1,1.6,0.2,1.9,0.4
			c0.2,0.1,0.2,0.2,0.2,0.3c0,0,0,0.1,0,0.1l-0.1,0.4l0.4,0.1l3.7,0.8l0.2-0.7c0,0-2.9-0.7-3.4-0.8c0-0.3-0.2-0.6-0.5-0.8
			c-0.6-0.4-2.2-0.5-2.4-0.5l-0.2,0c0,0-0.5,0.8-0.7,1.1c-0.5-0.2-1.8-0.6-2.7-1.1c-1-0.5-2.1-1.2-2.4-1.4c-0.1-0.1-0.3-0.7-0.3-0.7
			s-1.8-1-2.1-1.1c0-0.4-0.1-5.2-0.1-5.2l-0.1-0.1c-0.1,0-1.4-1.1-2.9-1.1C62,47.3,59.6,47.2,59.5,47.3L59.5,47.3z"/>
	</g>
	<g>
		<path d="M44.4,23c-0.8,0.1-1.4,0.2-1.8,0.7c-0.4,0.5-0.3,1-0.3,1.2c0,0.2,0,0.3,0,0.6c-0.1,0.3-0.2,0.6-0.5,0.7
			c-0.3,0.1-0.6,0.1-0.9,0c0,0-0.5-0.2-0.5-0.2c-0.8-0.3-1.2-0.5-2.3-0.3c-1.2,0.1-1.8,0.5-2.5,1L34.9,27c-0.8,0.5-1.9,0.5-2.9,0.6
			c-1.1,0.1-2.3,0.1-3.5,0.7c-1.3,0.6-1.8,1.3-1.8,2.1c0,0.4,0.1,0.9,0.3,1.5c0,0,0.2,0.5,0.2,0.5c0.2,0.7,0.5,1.7,1.2,2.3
			c0.3,0.9,0.4,1.2,1.2,2c0,0,0.4,0.4,0.4,0.4c0,0,0,0.4,0,0.4c0,0.1,0,0.2,0,0.3c0,1-0.3,2.1-1,3.1c-0.2,0.3-0.7,0.6-1.2,0.9
			c-0.6,0.4-1.2,0.8-1.7,1.5c-0.4,0.6-0.4,1.1-0.4,1.5c0,0,0,0.1,0,0.1c0,0,0,0.1,0,0.1c-0.2,0.1-0.9,0.2-1.1,0.2l-0.9,0.1l-0.2,0.9
			c0,0.2-0.2,0.4-0.4,0.6c-0.2,0.3-0.5,0.7-0.7,1.2c-0.3,0.7-0.3,1.4-0.3,2c0,0.4,0,0.8,0,1.1c0,0.3,0,0.6,0,0.9
			c0,0.3,0,0.6-0.1,0.9c-0.1,0.5-0.6,1.1-0.9,1.7l-0.8,1.3l0.4,0.6c0.3,0.4,0.6,0.9,0.8,1.3c0.3,0.5,0.6,0.9,0.9,1.4l0.5,0.7
			l0.8-0.2c0.4-0.1,1.1-0.1,1.7-0.1c-0.3,0.5-0.8,1.2-1.3,1.6c-0.1,0.1-0.2,0.2-0.4,0.3c-0.4,0.2-0.9,0.5-1.3,1.3
			c-0.1,0.3-0.2,0.5-0.2,0.8c0,0.1,0,0.1,0,0.2c-0.2,0.1-0.4,0.3-0.6,0.7c0,0.1,0,0.1-0.1,0.1c-0.3,0.4-0.4,0.7-0.4,1.3c0,0,0,0,0,0
			c0,0.4,0.2,0.7,0.3,1c0,0-0.1,0.1-0.1,0.1c-0.3,0.3-0.7,0.8-0.8,1.5c0,0.1,0,0.2,0,0.3c0,1.3,1,2.1,1.7,2.7
			c0.4,0.3,0.8,0.6,0.8,0.9l0.1,0.4c0,0,0.2,0.2,0.3,0.3c0.2,0.2,0.5,1.1,0.6,1.5l0.1,0.4c0,0.1,0.1,0.4,0.1,0.6
			c0.2,0.9,0.4,2,1,2.7l0.9,1c0,0,0.8-1,0.9-1.1c0,0,0,0,0,0c0,0,0.1-0.1,0.1-0.1c0.1,0,0.2,0,0.3,0.1c0.6,0.1,1.3,0.2,1.9-0.2
			c0.6-0.5,0.7-1.1,0.7-1.7c0-0.2,0-0.3,0-0.4c0.8-0.4,1.3-1.2,1.7-1.8c0.6-0.9,0.7-0.9,0.9-0.8c0.3,0.1,0.3,0.1,0.5,0.7
			c0.2,0.5,0.5,1.1,1.1,1.5c0.7,0.5,1.5,0.6,2.2,0.6c0.3,0,0.6,0,0.8,0.1c0,0,0.1,0.1,0.2,0.2c0.2,0.2,0.6,0.6,1.1,0.8
			c0.7,0.3,1.8,0.4,3.1,0.2c0.6-0.1,1.2,0,1.8,0c0.5,0,1.1,0,1.7,0c0.9,0,1.4-0.8,2.1-2.7c0,0,0.1-0.2,0.2-0.5
			c0.2,0.5,0.6,1,1.3,1.2l1.3,0.3l0.2-1.3c0.1-0.6,0.1-1.2,0.1-1.8c0.1-1.6,0.2-3.2,1.1-4c0.4-0.3,0.5-0.4,1.5,0.4
			c0.8,0.6,2.1,1.5,3.6,0.8l0.3-0.2l0.2-0.3c0.2-0.4,0.3-0.9,0.4-1.5c0.1-0.3,0.2-0.9,0.3-1.2c0,0,0.7,0.5,0.7,0.5l0.7-0.5
			c0.5-0.3,0.8-0.8,1.2-1.1c0.2-0.3,0.6-0.7,0.8-0.7c0,0,0,0,0.2,0.1c0.4,0.2,0.7,0.6,1.1,1c0.4,0.5,0.9,1,1.6,1.4
			c0,0.2,0.1,0.4,0.1,0.7c0.1,0.6,0.2,1.2,0.4,1.9c0.5,1.2,1.4,1.7,2.1,2c0.2,0.1,0.5,0.3,0.7,0.4c0,0,0.5,0.4,0.5,0.4
			c0.7,0.5,1.5,1.1,2,1.7c0,0.1,0.1,0.3,0.2,0.4c0.3,0.7,0.7,1.7,1.8,1.8c0.2,0,0.9,0.1,1.4-0.4c0.3-0.3,0.4-0.6,0.4-0.8
			c0.4-0.1,0.8-0.1,1.4-0.1c0.5,0,1.2,0.1,1.8-0.1c0,0,0.6-0.1,0.6-0.1c1-0.1,2.3-0.3,3-1.2c0.3-0.4,0.4-1,0.4-1.6
			c0-0.6-0.1-1.2-0.3-1.7c0.4-0.8,0.5-1.6,0.5-2.5c0-0.6,0-1.2-0.1-1.7c0-0.5-0.1-1-0.1-1.5c0-0.3,0-0.6,0.1-0.8
			c0,0,0.1-0.5,0.1-0.5c0.1-0.6,0.3-1.1,0.3-1.7c0-0.5-0.1-1-0.3-1.6c-0.3-0.7-0.7-1.3-1.1-1.9c-0.3-0.4-0.6-0.9-0.8-1.3
			c-0.1-0.1-0.1-0.5-0.2-0.8c-0.2-0.9-0.4-2.1-1.4-2.7c-1.1-0.6-2,0-2.3,0.3c0,0,0,0-0.1,0.1c-0.5,0.1-0.9,0-1.3-0.2
			c-0.4-0.2-0.7-0.5-1.1-1c-0.3-0.4-0.7-0.8-1.2-1.3c-0.3-0.3-0.7-0.5-0.9-0.6c-0.5-0.3-0.7-0.4-0.8-0.9c-0.2-0.5-0.2-0.7-0.2-0.7
			c0-0.1,0.2-0.3,0.4-0.5l0.3-0.4c0.2-0.3,0.6-0.9,0.9-1.5c0-0.1,0.5-1.4,0.5-1.7c0,0,0.1-0.4,0.1-0.4c0.1-0.9,0.3-2,0.3-2.9
			c0-0.1,0-0.1,0-0.2c0-0.9-0.8-3.5-1.3-4.3c-0.3-0.5-0.8-0.7-1.1-0.7c0,0,0,0,0,0c0-0.2,0.1-0.4,0.1-0.7c0-0.2,0-0.5-0.1-0.7
			c-0.3-0.8-1-1.2-1.4-1.4c-0.1-0.1-0.3-0.2-0.4-0.3c0,0,0-0.1,0-0.2c0-0.4,0.1-1,0.3-1.2c0,0,0,0,0,0c0.1,0,0.1,0,0.1,0
			c0.2,0,0.5,0.1,0.9,0.1l0.8,0l0.3-0.7c0.3-0.5,0.1-1.8-0.5-2.5c-0.5-0.6-1.2-0.9-2.1-0.7c-0.9,0.2-1.4,0.9-1.8,1.4
			c-0.1,0.2-0.3,0.4-0.4,0.4c-0.7,0.5-1.8,0.7-2.4,0.4c-0.1,0-0.3-0.3-0.4-0.5c-0.3-0.5-0.7-1.2-1.6-1.5l-0.9-0.3l-0.5,0.8
			c-0.3,0.4-0.4,0.8-0.5,1.2c-0.2,0.5-0.2,0.7-0.5,0.9c0,0-0.7,0.6-0.7,0.6c-0.4,0.3-1.2,1-1.4,0.8l-0.8-0.6l-0.7,0.8
			c-0.1,0.1-0.2,0.1-0.7,0.1c-0.3,0-0.8,0-1.2,0.1c-0.5,0.1-0.8,0.3-1.1,0.5c-0.1,0.1-0.4,0.2-0.4,0.2c0,0-0.1,0-0.2-0.1
			c-0.3-0.2-0.6-1.2-0.8-1.6l-0.1-0.2c-0.1-0.2-0.1-0.4-0.1-0.6c0-0.2,0-0.4,0.1-0.7c0-0.3,0.1-0.6,0.1-1c0-0.3,0-0.6-0.1-0.9
			c-0.2-0.9-0.9-1.9-1.6-2.9l-0.2-0.2C48.1,22.7,45,22.9,44.4,23z M47.4,25.7c0,0,0.2,0.3,0.2,0.3c0.4,0.5,1.1,1.5,1.2,2
			c0.1,0.4,0,0.8,0,1.2c-0.1,0.6-0.2,1.4,0.2,2.3c0,0,0.1,0.2,0.1,0.2c0.3,0.9,0.7,2.2,1.8,2.9c1.3,0.8,2.3,0.3,2.9,0
			c0.2-0.1,0.4-0.2,0.7-0.3c0.1,0,0.4,0,0.6,0c0.5,0,1.1,0,1.7-0.3c1.4,0.4,2.7-0.7,3.5-1.3l0.6-0.4c0.5-0.4,0.8-0.8,1-1.2
			c0.2,0.3,0.5,0.6,1,0.8c1,0.4,2.2,0.4,3.2,0.1c0,0.2,0,0.3,0,0.5c0,0.3,0,0.6,0.1,0.8c0.3,0.9,1,1.4,1.5,1.7
			c0.1,0.1,0.3,0.2,0.4,0.3c0,0.1,0,0.1,0,0.2c0,0.2-0.1,0.4-0.1,0.7c0,0.3,0.1,0.6,0.2,0.9c0.4,0.7,1,1,1.4,1.1c0,0,0,0,0,0
			c0.3,0.6,0.8,2.5,0.8,2.9c0,0,0,0.1,0,0.1c0,0.7-0.2,1.7-0.3,2.5c0,0,0,0.3-0.1,0.4c-0.1,0.2-0.3,1.1-0.4,1.2
			c-0.1,0.3-0.3,0.6-0.6,1l-0.3,0.4c-0.5,0.6-0.9,1.2-0.9,2c0,0.4,0.1,0.9,0.3,1.5c0.5,1.2,1.2,1.7,1.8,2.1c0.2,0.1,0.4,0.3,0.7,0.5
			c0.3,0.3,0.5,0.5,0.8,0.9c0.5,0.6,1,1.3,2,1.7c0.9,0.4,1.8,0.5,2.8,0.3c0.3-0.1,0.6-0.2,0.8-0.3c0.1,0.3,0.2,0.6,0.2,0.8
			c0.1,0.5,0.2,0.9,0.4,1.3c0.3,0.6,0.6,1.1,0.9,1.6c0.3,0.5,0.6,1,0.8,1.5c0.1,0.3,0.2,0.5,0.2,0.8c0,0.3-0.1,0.7-0.2,1.2L79,62.9
			c-0.1,0.4-0.1,0.9-0.1,1.3c0,0.6,0,1.1,0.1,1.7c0,0.5,0.1,1.1,0.1,1.6c0,0.7-0.1,1.3-0.4,1.7l-0.6,0.7c0,0,0.6,0.7,0.6,0.8
			c0.1,0.2,0.2,0.7,0.2,1.1c0,0.1,0,0.1,0,0.2c-0.2,0.1-1,0.2-1.3,0.3l-0.8,0.1c-0.4,0.1-0.8,0.1-1.2,0c-0.9,0-1.9-0.1-3,0.6
			c-0.1-0.2-0.2-0.5-0.4-0.7c-0.7-0.7-1.5-1.4-2.3-2l-0.5-0.4c-0.3-0.3-0.7-0.5-1-0.6c-0.6-0.3-0.8-0.5-1-0.8
			c-0.1-0.3-0.2-0.8-0.2-1.3c-0.1-0.5-0.1-1-0.3-1.5l-0.2-0.5l-0.5-0.2c-0.5-0.2-0.9-0.7-1.3-1.1c-0.5-0.6-1.1-1.2-1.9-1.6
			c-1.9-0.9-3,0.4-3.8,1.2c-0.1,0.1-0.2,0.2-0.3,0.3c-0.6-0.2-1.1-0.1-1.4,0c-1.2,0.5-1.5,2-1.7,3.1c0,0.1,0,0.2-0.1,0.3
			c-0.2-0.1-0.4-0.2-0.7-0.5c-0.9-0.7-2.5-1.9-4.4-0.3c-1.2,1-1.6,2.3-1.8,3.7c-0.7-0.1-1.4,0.2-2,0.6l-0.5,0.3c0,0,0,0.5,0,0.6
			c-0.1,0.5-0.7,2.4-1.1,3.1c-0.3,0-0.7,0-1,0c-0.7,0-1.3,0-2.1,0c-1.1,0.1-1.8,0-2-0.1c-0.1,0-0.2-0.1-0.3-0.3
			c-0.2-0.2-0.6-0.6-1.1-0.8c-0.5-0.2-1-0.2-1.4-0.2c-0.4,0-0.8-0.1-0.9-0.2c-0.1-0.1-0.2-0.3-0.4-0.6c-0.3-0.6-0.7-1.7-2.2-2
			c-1.9-0.5-2.9,1-3.4,1.8c-0.4,0.6-0.7,1-1,1l-0.7,0.1l-0.3,0.7c-0.1,0.3-0.1,0.6-0.1,0.9c0,0.1,0,0.2,0,0.4
			c-0.3-0.1-0.7-0.1-1.1-0.1c0-0.2-0.1-0.4-0.1-0.6c-0.1-0.4-0.1-0.7-0.2-0.9c0,0-0.1-0.4-0.1-0.4c-0.3-1-0.6-1.8-1.1-2.4
			c-0.3-0.8-1-1.3-1.5-1.8c-0.5-0.4-0.7-0.6-0.8-0.8c0-0.1,0.1-0.2,0.2-0.2c0.3-0.4,0.8-0.9,0.8-1.7c0,0,0,0,0,0
			c0-0.4-0.2-0.8-0.3-1c0,0,0-0.1,0-0.1c0.2-0.1,0.6-0.3,0.8-0.8C25,64.5,25,64.3,25,64c0-0.2,0-0.4-0.1-0.5c0,0,0.1-0.1,0.3-0.2
			c0.2-0.1,0.4-0.3,0.7-0.5c0,0,2.3-2.1,2.3-4.1c0-0.3-0.1-0.6-0.2-0.9l-0.3-0.7l-1-0.1c-0.8,0-1.8-0.1-2.7,0
			c-0.1-0.2-0.3-0.4-0.4-0.6c-0.2-0.2-0.3-0.5-0.5-0.8c0.4-0.7,0.9-1.5,1.1-2.2c0.2-0.5,0.2-1.1,0.2-1.6c0-0.4,0-0.7,0-1.1
			c0-0.3,0-0.6,0-0.9c0-0.4,0-0.8,0.2-1.2c0.1-0.2,0.2-0.4,0.4-0.6c0.2-0.2,0.3-0.5,0.5-0.7c0.7-0.1,1.4-0.3,2-0.9
			c0.6-0.6,0.6-1.3,0.6-1.7c0,0,0,0,0-0.1c0-0.1,0-0.1,0-0.2c0.2-0.3,0.6-0.5,1-0.8c0.6-0.4,1.4-0.9,1.9-1.7
			c0.9-1.4,1.3-2.9,1.3-4.4c0-0.2,0-0.3,0-0.5c0,0,0-0.3,0-0.3c0-0.7-0.2-1-0.7-1.6l-0.3-0.3c-0.6-0.6-0.6-0.6-0.8-1.4l-0.1-0.6
			c0,0-0.4-0.2-0.5-0.2c-0.2-0.2-0.4-0.8-0.5-1.1l-0.2-0.6c-0.1-0.2-0.1-0.4-0.2-0.5c0.1,0,0.2-0.1,0.4-0.2c0.7-0.3,1.6-0.4,2.6-0.4
			c1.2-0.1,2.7-0.1,4-0.9l0.8-0.5c0.5-0.4,0.8-0.5,1.4-0.6c0.6-0.1,0.6-0.1,1.1,0.2l0.6,0.3l0,0c1,0.4,2,0.4,2.9-0.1
			c0.9-0.5,1.5-1.3,1.7-2.3c0.1-0.3,0.1-0.5,0.1-0.7C46,25.2,47.2,25.5,47.4,25.7z"/>
	</g>
	<g>
		<path class="st10" d="M44.5,23.6c-0.7,0.1-1.1,0.1-1.4,0.5c-0.2,0.3-0.2,0.6-0.1,0.8c0,0.2,0.1,0.4,0,0.8
			c-0.1,0.5-0.4,0.9-0.8,1.1c-0.4,0.2-0.9,0.2-1.4,0c0,0-0.6-0.2-0.6-0.2c-0.7-0.3-1-0.4-2-0.3c-1.1,0.1-1.6,0.5-2.2,0.9l-0.7,0.4
			c-1,0.6-2.1,0.6-3.2,0.7c-1.1,0.1-2.2,0.1-3.3,0.6c-1,0.5-1.4,0.9-1.4,1.6c0,0.4,0.1,0.8,0.3,1.3c0,0,0.2,0.5,0.2,0.5
			c0.2,0.7,0.5,1.6,1.1,2.1c0.2,0.9,0.4,1.1,1.1,2l0.4,0.4c0,0,0.1,0.1,0.2,0.2c0,0,0,0.2,0,0.2l0,0.4c0,0.1,0,0.2,0,0.4
			c0,1.2-0.4,2.3-1.1,3.4c-0.3,0.4-0.8,0.8-1.3,1.1c-0.6,0.4-1.1,0.7-1.5,1.3c-0.3,0.4-0.3,0.8-0.3,1.2c0,0,0,0,0,0
			c0,0.3,0,0.4-0.1,0.5c-0.3,0.3-1.1,0.4-1.5,0.4l-0.4,0l-0.1,0.4c-0.1,0.3-0.3,0.6-0.5,0.9c-0.2,0.3-0.5,0.6-0.6,1
			c-0.2,0.6-0.3,1.2-0.3,1.8c0,0.4,0,0.7,0,1.1c0,0.3,0,0.6,0,1c0,0.4,0,0.7-0.1,1.1c-0.2,0.5-0.6,1.2-0.9,1.8l-0.6,1l0.2,0.3
			c0.3,0.4,0.6,0.9,0.9,1.3c0.3,0.5,0.6,0.9,0.9,1.3l0.2,0.3l0.4-0.1c0.7-0.2,1.8-0.2,2.7-0.1c-0.1,0.7-1,2-1.7,2.6
			c-0.2,0.1-0.3,0.2-0.5,0.3c-0.3,0.2-0.7,0.5-1,1.1c-0.1,0.2-0.1,0.3-0.1,0.5c0,0.2,0,0.3,0.1,0.5c0,0,0,0,0,0c0,0,0,0-0.1,0
			c-0.2,0.1-0.5,0.2-0.6,0.6c-0.1,0.2-0.1,0.2-0.1,0.3c-0.2,0.3-0.3,0.5-0.3,0.9c0,0,0,0,0,0c0,0.3,0.1,0.5,0.3,0.7
			c0,0.1,0.1,0.2,0.1,0.2c0,0.2-0.1,0.3-0.3,0.6c-0.2,0.3-0.6,0.6-0.6,1.2c0,0.1,0,0.2,0,0.2c0,1.1,0.8,1.7,1.4,2.2
			c0.5,0.4,0.9,0.7,1.1,1.2l0.1,0.2l0.2,0.1c0.3,0.2,0.6,1.3,0.8,1.7l0.1,0.4c0,0.1,0.1,0.4,0.1,0.7c0.2,0.8,0.4,1.8,0.9,2.4
			l0.4,0.5l0.5-0.5l0.1-0.1c0.1-0.1,0.1-0.1,0.2-0.3c0.2,0,0.5,0,0.7,0.1c0.5,0.1,1,0.2,1.5-0.1c0.4-0.3,0.5-0.8,0.5-1.2
			c0-0.2,0-0.3,0-0.5c0-0.1,0-0.2,0-0.4c0.9-0.3,1.4-1.1,1.8-1.7c0.6-0.9,0.9-1.2,1.5-1.1c0.5,0.1,0.7,0.4,0.9,1
			c0.2,0.4,0.4,0.9,0.9,1.3c0.6,0.4,1.3,0.5,1.9,0.5c0.3,0,0.7,0,0.9,0.1c0.2,0.1,0.3,0.2,0.5,0.3c0.2,0.2,0.5,0.5,0.9,0.7
			c0.6,0.2,1.6,0.3,2.8,0.2c0.6-0.1,1.2,0,1.9,0c0.5,0,1.1,0,1.7,0c0.5,0,0.9-0.4,1.6-2.3c0.2-0.6,0.5-1.6,0.6-2.1
			c0.2-0.1,0.3-0.2,0.4-0.2c0,0.2,0,0.4,0,0.6c0,0.7,0.1,1.8,1.1,2.1l0.6,0.2l0.1-0.7c0.1-0.5,0.1-1.1,0.1-1.8
			c0.1-1.7,0.2-3.5,1.3-4.5c0.8-0.6,1.3-0.3,2.2,0.4c0.8,0.6,1.8,1.3,3,0.7l0.2-0.1l0.1-0.2c0.2-0.3,0.3-0.8,0.4-1.3
			c0.1-0.6,0.3-1.7,0.6-1.8c0.1,0,0.2,0,0.6,0.3l0.4,0.3l0.4-0.3c0.4-0.3,0.8-0.7,1.1-1c0.8-0.9,1.1-1.1,1.6-0.8
			c0.5,0.2,0.9,0.7,1.3,1.2c0.5,0.5,1,1.1,1.7,1.4c0.1,0.3,0.1,0.6,0.2,1c0.1,0.6,0.1,1.2,0.4,1.7c0.4,1,1.2,1.4,1.8,1.7
			c0.3,0.1,0.5,0.3,0.7,0.4c0,0,0.5,0.4,0.5,0.4c0.7,0.6,1.5,1.2,2.1,1.8c0.1,0.1,0.2,0.4,0.3,0.5c0.3,0.6,0.6,1.4,1.3,1.4
			c0.3,0,0.6,0,0.9-0.2c0.2-0.2,0.2-0.4,0.2-0.6c0-0.1,0-0.1,0-0.2c0,0,0,0,0,0c0.6-0.4,1.2-0.3,2-0.3c0.5,0,1.1,0,1.7-0.1
			c0,0,0.6-0.1,0.6-0.1c0.9-0.1,2-0.2,2.6-1c0.2-0.3,0.3-0.8,0.3-1.3c0-0.6-0.2-1.3-0.4-1.7c0.4-0.7,0.5-1.5,0.5-2.4
			c0-0.6,0-1.1-0.1-1.7c0-0.5-0.1-1.1-0.1-1.6c0-0.3,0-0.7,0.1-1l0.1-0.5c0.1-0.5,0.2-1,0.2-1.6c0-0.4-0.1-0.9-0.3-1.4
			c-0.3-0.7-0.6-1.2-1-1.8c-0.3-0.5-0.6-0.9-0.8-1.4c-0.1-0.2-0.2-0.6-0.2-0.9c-0.2-0.9-0.4-1.9-1.1-2.3c-0.7-0.4-1.3,0-1.6,0.2
			c-0.1,0.1-0.2,0.2-0.3,0.2c-0.6,0.1-1.2,0-1.8-0.2c-0.6-0.3-0.9-0.7-1.3-1.2c-0.3-0.4-0.6-0.8-1.1-1.2c-0.3-0.3-0.6-0.4-0.8-0.6
			c-0.5-0.3-0.8-0.5-1.1-1.2c-0.4-0.9-0.3-1.1,0.3-1.8l0.3-0.4c0.3-0.4,0.6-0.9,0.8-1.4c0-0.1,0.5-1.4,0.5-1.6c0,0,0.1-0.4,0.1-0.4
			c0.1-0.9,0.3-2.1,0.3-3c0-0.8-0.7-3.3-1.2-4c-0.3-0.4-0.6-0.5-0.8-0.5c-0.2-0.1-0.3-0.1-0.4-0.3c0-0.1,0-0.3,0-0.4
			c0.1-0.3,0.1-0.7,0-1.1c-0.3-0.6-0.8-0.9-1.2-1.2c-0.4-0.2-0.6-0.4-0.7-0.6c-0.1-0.5,0.1-1.7,0.5-2c0.3-0.2,0.3-0.2,0.7-0.1
			c0.2,0,0.5,0.1,0.8,0.1l0.4,0l0.2-0.3c0.1-0.3,0-1.3-0.4-1.9c-0.4-0.4-0.9-0.6-1.5-0.5c-0.7,0.1-1.1,0.7-1.4,1.2
			c-0.2,0.2-0.4,0.5-0.5,0.6c-0.8,0.5-2.2,0.8-3,0.5c-0.3-0.1-0.4-0.4-0.6-0.7c-0.3-0.4-0.6-1-1.3-1.2l-0.5-0.1l-0.2,0.4
			c-0.2,0.4-0.3,0.7-0.4,1.1c-0.2,0.5-0.3,0.9-0.7,1.2c0,0-0.7,0.5-0.7,0.5c-0.9,0.8-1.6,1.3-2.2,0.9l-0.4-0.3l-0.4,0.4
			c-0.3,0.3-0.6,0.3-1.1,0.3c-0.3,0-0.7,0-1,0.1c-0.4,0.1-0.7,0.3-1,0.4c-0.5,0.3-0.7,0.4-1.2,0.1c-0.5-0.3-0.8-1.3-1-1.9L50.6,31
			c-0.2-0.6-0.1-1-0.1-1.6c0.1-0.5,0.1-1.1,0-1.7c-0.2-0.9-1-1.9-1.5-2.7l-0.2-0.3C47.8,23.2,44.8,23.5,44.5,23.6z M44.6,24.8
			c1.3-0.1,2.8,0.1,3.2,0.6c0,0,0.2,0.3,0.2,0.3c0.4,0.6,1.2,1.6,1.3,2.2c0.1,0.5,0,0.9,0,1.4c-0.1,0.6-0.1,1.3,0.1,2.1l0.1,0.2
			c0.3,0.9,0.7,2,1.5,2.6c1,0.6,1.8,0.3,2.4,0c0.3-0.1,0.5-0.2,0.8-0.3c0.2-0.1,0.5-0.1,0.7-0.1c0.5,0,1.1,0,1.6-0.4
			c1.2,0.5,2.4-0.5,3.2-1.1l0.6-0.5c0.7-0.5,1-1.2,1.1-1.8c0-0.1,0-0.1,0.1-0.2c0.1,0.1,0.1,0.2,0.2,0.3c0.3,0.4,0.6,0.9,1.2,1.2
			c1.1,0.5,2.7,0.2,3.8-0.4c-0.2,0.5-0.2,1-0.2,1.5c0,0.2,0,0.5,0.1,0.7c0.2,0.7,0.7,1,1.2,1.3c0.3,0.2,0.6,0.4,0.7,0.6c0,0,0,0,0,0
			c0,0.1,0,0.3,0,0.4c0,0.2-0.1,0.4-0.1,0.6c0,0.2,0,0.4,0.2,0.6c0.3,0.5,0.8,0.7,1.1,0.8c0.2,0.1,0.2,0.1,0.3,0.1
			c0.3,0.4,1,2.8,1,3.4c0,0.1,0,0.1,0,0.2c0,0.8-0.2,1.8-0.3,2.6c0,0-0.1,0.3-0.1,0.4c0,0.2-0.4,1.2-0.4,1.3
			c-0.1,0.3-0.4,0.7-0.6,1.1l-0.3,0.4c-0.5,0.6-0.8,1-0.8,1.6c0,0.3,0.1,0.7,0.3,1.3c0.4,1,0.9,1.4,1.5,1.8c0.2,0.2,0.5,0.3,0.7,0.5
			c0.4,0.3,0.6,0.6,0.9,1c0.4,0.6,0.9,1.1,1.7,1.5c0.8,0.3,1.6,0.4,2.5,0.3c0.3-0.1,0.6-0.2,0.8-0.4c0.1-0.1,0.2-0.2,0.2-0.2
			c0,0,0,0,0,0c0.3,0.2,0.5,1,0.6,1.5c0.1,0.4,0.2,0.8,0.3,1.2c0.2,0.6,0.6,1,0.9,1.5c0.3,0.5,0.7,1,0.9,1.6c0.1,0.4,0.2,0.7,0.2,1
			c0,0.4-0.1,0.8-0.2,1.3L79.6,63c-0.1,0.4-0.1,0.8-0.1,1.2c0,0.5,0,1.1,0.1,1.7c0,0.5,0.1,1.1,0.1,1.6c0,0.8-0.1,1.5-0.5,2
			l-0.3,0.4l0.3,0.4c0.2,0.2,0.3,0.9,0.3,1.4c0,0.2,0,0.4-0.1,0.5c-0.2,0.3-1.1,0.4-1.8,0.5l-0.7,0.1c-0.4,0.1-0.9,0.1-1.4,0
			c-0.9,0-1.8-0.1-2.8,0.6c-0.2,0.1-0.3,0.3-0.4,0.5c-0.1-0.1-0.1-0.3-0.2-0.4c-0.1-0.3-0.3-0.7-0.5-0.9c-0.6-0.7-1.5-1.3-2.2-1.9
			L69,70.3c-0.3-0.2-0.6-0.4-0.9-0.6c-0.6-0.3-1-0.5-1.2-1.1c-0.2-0.4-0.2-0.9-0.3-1.4c-0.1-0.5-0.1-0.9-0.3-1.4l-0.1-0.3l-0.3-0.1
			c-0.6-0.2-1-0.8-1.5-1.3c-0.5-0.5-1-1.1-1.7-1.5c-1.4-0.7-2.4,0.3-3,1.1c-0.2,0.2-0.4,0.4-0.6,0.6c-0.5-0.2-0.9-0.3-1.3-0.1
			c-0.9,0.4-1.1,1.6-1.4,2.7c-0.1,0.3-0.1,0.6-0.2,0.8c-0.4,0.1-0.8-0.1-1.5-0.7c-0.9-0.7-2.1-1.6-3.7-0.4c-1.3,1-1.6,2.6-1.7,4.1
			c-0.1-0.1-0.2-0.2-0.3-0.2c-0.6-0.3-1.3,0.1-1.9,0.4l-0.3,0.2c0,0,0,0.3,0,0.3c0,0.5-0.9,3.1-1.3,3.7c-0.5,0-0.9,0-1.4,0
			c-0.6,0-1.3,0-2,0c-1,0.1-1.9,0.1-2.3-0.1c-0.2-0.1-0.3-0.2-0.5-0.4c-0.2-0.2-0.5-0.5-0.9-0.6C38,74,37.5,74,37.1,73.9
			c-0.5,0-0.9-0.1-1.2-0.3c-0.3-0.2-0.4-0.5-0.5-0.8c-0.3-0.6-0.6-1.4-1.7-1.7c-1.5-0.4-2.2,0.8-2.8,1.6c-0.5,0.8-0.8,1.2-1.4,1.3
			l-0.4,0L29,74.4c-0.1,0.2-0.1,0.4-0.1,0.7c0,0.2,0,0.3,0,0.5c0,0.1,0,0.3,0,0.4c0,0.1,0,0.1,0,0.2c-0.1,0-0.4,0-0.5-0.1
			c-0.5-0.1-1-0.2-1.5,0c0,0,0,0-0.1,0c-0.1-0.4-0.2-0.8-0.3-1.2c-0.1-0.3-0.1-0.6-0.2-0.8c0,0-0.1-0.4-0.1-0.4
			c-0.3-0.9-0.6-1.8-1-2.2c-0.3-0.7-0.9-1.2-1.4-1.6c-0.6-0.5-1-0.8-1-1.3c0,0,0-0.1,0-0.1c0-0.1,0.2-0.3,0.3-0.5
			c0.3-0.3,0.6-0.7,0.6-1.4c0,0,0,0,0,0c0-0.3-0.2-0.6-0.3-0.8c0,0-0.1-0.1-0.1-0.1c0-0.1,0-0.1,0-0.1c0,0,0,0,0,0
			c0.1-0.1,0.2-0.2,0.3-0.4c0,0,0.1,0,0.1,0c0.2-0.1,0.5-0.2,0.7-0.6c0.1-0.1,0.1-0.3,0.1-0.4c0-0.1,0-0.3-0.1-0.4
			c0-0.1,0-0.2,0-0.2c0,0,0,0,0,0c0.1-0.3,0.3-0.4,0.6-0.6c0.2-0.1,0.4-0.2,0.6-0.4c0.5-0.4,2.1-2.2,2.1-3.7c0-0.2,0-0.5-0.1-0.7
			l-0.1-0.3l-0.6,0c-0.9-0.1-2-0.1-2.9,0c-0.2-0.3-0.4-0.6-0.6-0.9c-0.2-0.4-0.4-0.7-0.7-1.1c0.1-0.2,0.2-0.3,0.2-0.3
			c0.4-0.7,0.9-1.4,1.1-2.1c0.1-0.5,0.2-0.9,0.2-1.4c0-0.3,0-0.7,0-1c0-0.3,0-0.7,0-1c0-0.5,0-0.9,0.2-1.4c0.1-0.3,0.3-0.5,0.5-0.7
			c0.2-0.3,0.4-0.6,0.6-0.9c0.7-0.1,1.4-0.2,1.9-0.8c0.4-0.5,0.4-0.9,0.4-1.3c0,0,0,0,0-0.1c0-0.2,0-0.4,0.1-0.5
			c0.2-0.4,0.7-0.7,1.2-1c0.6-0.4,1.3-0.8,1.7-1.5c0.8-1.3,1.3-2.7,1.3-4c0-0.2,0-0.3,0-0.5c0,0,0-0.3,0-0.3c0-0.6-0.1-0.7-0.5-1.2
			l-0.3-0.4c-0.7-0.7-0.7-0.7-0.9-1.7L30,33.5l-0.3-0.1c-0.4-0.2-0.6-1-0.7-1.5l-0.2-0.6c-0.1-0.4-0.2-0.6-0.2-0.8
			c0-0.3,0.2-0.4,0.7-0.6c0.8-0.4,1.8-0.4,2.8-0.5c1.2-0.1,2.5-0.1,3.7-0.8l0.8-0.5c0.6-0.4,0.9-0.6,1.7-0.7c0.7-0.1,0.8,0,1.4,0.2
			l0.6,0.3l0,0c0.8,0.3,1.7,0.3,2.4-0.1c0.7-0.4,1.2-1,1.4-1.9c0.1-0.3,0.1-0.6,0.1-0.8c0-0.1,0-0.2,0-0.3
			C44.3,24.8,44.5,24.8,44.6,24.8z M68.6,29.2c0.2,0,0.2,0,0.3,0c0.1,0,0.1,0.1,0.1,0.2c-0.2,0-0.5-0.1-0.7,0
			C68.4,29.3,68.5,29.2,68.6,29.2z"/>
	</g>
	<g>
		<path class="st7" d="M2.3,29.8l0.3,0.8c0.2-0.1,18.7-8,48.8-7.7c30,0.3,45.7,7.1,45.8,7.2l0.3-0.8c-0.2-0.1-15.9-7-46.2-7.3
			C21.2,21.7,2.5,29.7,2.3,29.8z"/>
	</g>
	<g>
		<path class="st7" d="M49,7.5c-14.9,0.1-26.3,2.8-33.3,5.1C8.1,15,4,17.4,3.8,17.5l-0.5,0.3l-0.1,0.5C3.1,18.7,1.4,25.5,1,34.7
			C0.7,43.3,1.7,55.5,7.9,65c5,7.6,13.5,14.6,25.4,20.6c8.8,4.5,16,6.7,16.3,6.8l0.4,0.1l0.4-0.1c0.3-0.1,7.5-2.3,16.2-6.8
			c11.8-6,20.3-13,25.3-20.6c6.2-9.6,7.2-21.8,6.9-30.3c-0.3-9.2-2.1-16.1-2.2-16.4l-0.1-0.6l-0.5-0.3c-0.2-0.1-4.7-2.6-12.8-5.1
			C75.9,10.1,63.9,7.4,49,7.5z M16.6,15.1c6.8-2.2,17.9-4.8,32.4-4.9c14.5-0.1,26.1,2.5,33.4,4.8c6.3,2,10.5,4,11.9,4.7
			c0.4,1.8,1.7,7.8,1.9,15.3c0,0.8,0,1.7,0,2.6c0,7.9-1.3,18-6.5,26c-5.9,9-16.4,15.6-24.2,19.6c-7.4,3.8-13.8,6-15.4,6.5
			c-1.6-0.5-8.1-2.7-15.5-6.5c-7.9-4-18.5-10.6-24.3-19.6c-5.2-8-6.5-18.2-6.5-26c0-0.9,0-1.8,0-2.6C4,27.4,5.3,21.4,5.7,19.6
			C7,18.9,10.7,17,16.6,15.1z"/>
	</g>
	<g>
		<path d="M49,8.2C34.2,8.3,22.9,11,15.9,13.2C8.3,15.7,4.3,18,4.2,18.1l-0.2,0.1l-0.1,0.3c0,0.1-1.8,7.1-2.1,16.2
			c-0.3,8.5,0.6,20.5,6.8,29.9c6.1,9.4,17.1,16.3,25.2,20.4c8.7,4.4,16.2,6.7,16.2,6.7l0.2,0.1l0.2-0.1c0.1,0,7.4-2.3,16.1-6.7
			c8-4.1,18.9-11,25.1-20.4c6.2-9.4,7.1-21.5,6.8-29.9c-0.3-9.1-2.1-16.1-2.1-16.2l-0.1-0.3l-0.3-0.1c-0.2-0.1-4.7-2.6-12.7-5.1
			C75.7,10.7,63.8,8,49,8.2z M16.4,14.5c6.9-2.2,18.1-4.9,32.7-5c14.6-0.1,26.3,2.5,33.6,4.8c6.9,2.1,11.2,4.3,12.2,4.8
			c0.3,1.4,1.7,7.7,2,15.7c0,0.9,0,1.8,0,2.7c0,8-1.3,18.3-6.6,26.4c-6,9.1-16.6,15.9-24.5,19.9c-7.8,4-14.5,6.2-15.7,6.6
			c-1.2-0.4-8-2.6-15.8-6.6c-7.9-4-18.7-10.8-24.6-19.9C4.3,55.8,3,45.5,3,37.5c0-0.9,0-1.8,0-2.7c0.3-8,1.7-14.3,2-15.7
			C6.1,18.6,9.9,16.6,16.4,14.5z"/>
	</g>
	<g>
		<g>
			<g>
				<path class="st11" d="M40.6,42.6c0,0,1.7-0.5,3.4-1.6c1.7-1.1,7.2-7.6,7.2-7.6l8-9.4l0.7-0.6c0,0,0.4,0.1,0.8,0.6
					c0.3,0.6,0.2,1,0.2,1l-0.5,0.1c0,0-0.3-0.1-0.7,0.1c-0.5,0.2-0.9,0.8-0.9,0.8s-8,9.8-9.8,12.2c-1.8,2.4-4.7,7.1-4.7,7.1
					s-0.6,0.4-1.5,0.3c-1-0.1-1.7-0.1-2.1-0.5c-0.4-0.4-0.5-1.3-0.4-1.8C40.3,42.9,40.6,42.6,40.6,42.6z"/>
				<path class="st7" d="M59.9,23.3l-0.7,0.6l-8.1,9.4c-0.1,0.1-5.5,6.5-7.2,7.6c-1.7,1.1-3.3,1.6-3.3,1.6l-0.1,0l0,0
					c0,0-0.4,0.4-0.5,1c-0.1,0.5,0,1.5,0.5,2c0.5,0.5,1.2,0.5,2.2,0.6c1,0.1,1.7-0.4,1.7-0.4l0,0l0,0c0,0,2.9-4.7,4.7-7
					C51,36.2,59,26.4,59,26.3c0,0,0.5-0.5,0.9-0.7c0.3-0.2,0.5-0.1,0.5-0.1l0.1,0l0.1,0l0.7-0.2l0-0.2c0,0,0.1-0.6-0.3-1.2
					c-0.4-0.6-0.9-0.7-0.9-0.8L59.9,23.3L59.9,23.3z M60.1,23.8c0.1,0.1,0.3,0.2,0.5,0.5c0.2,0.3,0.2,0.5,0.2,0.7
					c-0.1,0-0.2,0-0.2,0.1c-0.2,0-0.5-0.1-0.9,0.1c-0.5,0.3-1,0.8-1,0.9c-0.1,0.1-8,9.9-9.8,12.3c-1.7,2.3-4.4,6.5-4.7,7
					c-0.1,0.1-0.6,0.3-1.3,0.3c-1.1-0.1-1.6-0.1-1.9-0.5c-0.3-0.3-0.4-0.9-0.4-1.3c0-0.1,0-0.2,0-0.3c0.1-0.4,0.2-0.6,0.3-0.7
					c0.3-0.1,1.8-0.6,3.4-1.6c1.7-1.1,7.1-7.4,7.3-7.7c0,0,8-9.3,8-9.4C59.5,24.2,59.9,23.9,60.1,23.8z"/>
			</g>
			<g>
				<path class="st11" d="M60.6,42.6c0,0-1.7-0.5-3.4-1.6c-1.7-1.1-7.2-7.6-7.2-7.6l-8-9.4l-0.7-0.6c0,0-0.4,0.1-0.8,0.6
					c-0.3,0.6-0.2,1-0.2,1l0.5,0.1c0,0,0.3-0.1,0.7,0.1c0.5,0.2,0.9,0.8,0.9,0.8s8,9.8,9.8,12.2c1.8,2.4,4.7,7.1,4.7,7.1
					s0.6,0.4,1.5,0.3c1-0.1,1.7-0.1,2.1-0.5c0.4-0.4,0.5-1.3,0.4-1.8C60.9,42.9,60.6,42.6,60.6,42.6z"/>
				<path class="st7" d="M41.2,23.2c-0.1,0-0.5,0.1-0.9,0.8c-0.4,0.6-0.3,1.2-0.3,1.2l0,0.2l0.7,0.2l0.1,0c0,0,0.2-0.1,0.5,0.1
					c0.4,0.2,0.9,0.7,0.9,0.7c0.1,0.1,8,9.8,9.8,12.2c1.8,2.4,4.7,7,4.7,7l0,0l0,0c0,0,0.7,0.5,1.7,0.4c1-0.1,1.8-0.1,2.2-0.6
					c0.5-0.5,0.6-1.5,0.5-2c-0.1-0.6-0.5-1-0.5-1l0,0l-0.1,0c0,0-1.7-0.5-3.3-1.6c-1.7-1.1-7.1-7.5-7.2-7.6l-8.1-9.4l-0.8-0.7
					L41.2,23.2z M40.7,24.2c0.2-0.3,0.4-0.4,0.5-0.5c0.2,0.1,0.5,0.4,0.6,0.5c0,0,8,9.4,8,9.4c0.2,0.3,5.6,6.5,7.3,7.7
					c1.6,1,3.1,1.5,3.4,1.6c0.1,0.1,0.2,0.3,0.3,0.7c0,0.1,0,0.2,0,0.3c0,0.4-0.1,1-0.4,1.3c-0.3,0.3-0.8,0.4-1.9,0.5
					c-0.7,0-1.2-0.2-1.3-0.3c-0.3-0.5-3-4.8-4.7-7c-1.8-2.4-9.8-12.1-9.8-12.2c0,0-0.5-0.6-1-0.9c-0.4-0.2-0.7-0.2-0.9-0.1
					c-0.1,0-0.1,0-0.2-0.1C40.5,24.8,40.5,24.5,40.7,24.2z"/>
			</g>
		</g>
		<g>
			<linearGradient id="SVGID_5_" gradientUnits="userSpaceOnUse" x1="40.2184" y1="34.6432" x2="61.0414" y2="34.6432">
				<stop  offset="0.6966" style="stop-color:#28489E"/>
				<stop  offset="0.7799" style="stop-color:#29469A"/>
				<stop  offset="0.8415" style="stop-color:#2B4290"/>
				<stop  offset="0.8962" style="stop-color:#2C3B84"/>
				<stop  offset="0.9469" style="stop-color:#2D3273"/>
				<stop  offset="0.9944" style="stop-color:#2B265F"/>
				<stop  offset="1" style="stop-color:#2B255C"/>
			</linearGradient>
			<path class="st12" d="M40.6,42.6c0,0,1.7-0.5,3.4-1.6c1.7-1.1,7.2-7.6,7.2-7.6l8-9.4l0.7-0.6c0,0,0.4,0.1,0.8,0.6
				c0.3,0.6,0.2,1,0.2,1l-0.5,0.1c0,0-0.3-0.1-0.7,0.1c-0.5,0.2-0.9,0.8-0.9,0.8s-8,9.8-9.8,12.2c-1.8,2.4-4.7,7.1-4.7,7.1
				s-0.6,0.4-1.5,0.3c-1-0.1-1.7-0.1-2.1-0.5c-0.4-0.4-0.5-1.3-0.4-1.8C40.3,42.9,40.6,42.6,40.6,42.6z"/>
			<linearGradient id="SVGID_6_" gradientUnits="userSpaceOnUse" x1="40.218" y1="34.6432" x2="61.0414" y2="34.6432">
				<stop  offset="0.6966" style="stop-color:#28489E"/>
				<stop  offset="0.7799" style="stop-color:#29469A"/>
				<stop  offset="0.8415" style="stop-color:#2B4290"/>
				<stop  offset="0.8962" style="stop-color:#2C3B84"/>
				<stop  offset="0.9469" style="stop-color:#2D3273"/>
				<stop  offset="0.9944" style="stop-color:#2B265F"/>
				<stop  offset="1" style="stop-color:#2B255C"/>
			</linearGradient>
			<path class="st13" d="M60.6,42.6c0,0-1.7-0.5-3.4-1.6c-1.7-1.1-7.2-7.6-7.2-7.6l-8-9.4l-0.7-0.6c0,0-0.4,0.1-0.8,0.6
				c-0.3,0.6-0.2,1-0.2,1l0.5,0.1c0,0,0.3-0.1,0.7,0.1c0.5,0.2,0.9,0.8,0.9,0.8s8,9.8,9.8,12.2c1.8,2.4,4.7,7.1,4.7,7.1
				s0.6,0.4,1.5,0.3c1-0.1,1.7-0.1,2.1-0.5c0.4-0.4,0.5-1.3,0.4-1.8C60.9,42.9,60.6,42.6,60.6,42.6z"/>
		</g>
		<g>
			<circle class="st7" cx="50.8" cy="35.2" r="3.9"/>
			<linearGradient id="SVGID_7_" gradientUnits="userSpaceOnUse" x1="47.1133" y1="35.2051" x2="54.5519" y2="35.2051">
				<stop  offset="0.6966" style="stop-color:#28489E"/>
				<stop  offset="0.7799" style="stop-color:#29469A"/>
				<stop  offset="0.8415" style="stop-color:#2B4290"/>
				<stop  offset="0.8962" style="stop-color:#2C3B84"/>
				<stop  offset="0.9469" style="stop-color:#2D3273"/>
				<stop  offset="0.9944" style="stop-color:#2B265F"/>
				<stop  offset="1" style="stop-color:#2B255C"/>
			</linearGradient>
			<path class="st14" d="M53,32.2c0.3,0.2,0.6,0.5,0.6,0.5s-0.7,0.2-1.7,0.8c-1.2,0.7-2,1.6-2,1.6s-0.1-0.3-0.1-0.8
				c0-0.5,0.1-1.1,1.3-1.8c0.8-0.5,1.4-0.6,1.4-0.6S52.7,32,53,32.2z M54.5,34.7c-0.1-0.4-0.2-0.8-0.2-0.8s-0.5,0.6-1.6,1.2
				c-1.2,0.7-2.3,1.1-2.3,1.1s0.2,0.2,0.6,0.5c0.4,0.3,1,0.4,2.2-0.3c0.8-0.5,1.3-1,1.3-1S54.6,35,54.5,34.7z M50.1,35.7
				c0.1,0.2,0.2,0.4,0.2,0.4s1.3-0.5,2.5-1.2c0.9-0.6,1.4-1.1,1.4-1.1L54,33.2l-0.3-0.4c0,0-0.8,0.3-1.7,0.8
				c-0.9,0.6-2.1,1.6-2.1,1.6S50,35.5,50.1,35.7z M49,33.2c-0.3-0.1-0.7-0.1-0.7-0.1s-0.4,1.1,0.4,2.9c0.8,1.9,2.1,2.3,2.1,2.3
				s0.2-0.3,0.4-0.6c0.2-0.3,0.2-0.7,0.2-0.7s-1-0.5-1.5-1.5c-0.5-1-0.3-2.1-0.3-2.1S49.3,33.3,49,33.2z M47.5,33.6
				c-0.1,0.2-0.9,1.6,0,3.4c0.6,1.1,1.9,1.7,2.4,1.8c0.4,0.1,0.7-0.2,0.7-0.2s-1.2-0.4-2.1-2.2c-0.8-1.6-0.5-3.2-0.5-3.2
				S47.7,33.3,47.5,33.6z M47.8,33.1c0,0,0.5-0.2,1-0.1c0.5,0.1,0.9,0.3,0.9,0.3s0.2-0.2,0.5-0.4c0.3-0.2,0.4-0.2,0.4-0.2
				s-0.4-0.3-0.8-0.4c-0.4-0.1-0.6-0.1-1.1,0C48.3,32.3,47.8,33.1,47.8,33.1z M48.7,32.2c0,0,0.8-0.2,1.3,0c0.4,0.1,0.7,0.4,0.7,0.4
				s0.5-0.3,0.7-0.4c0.3-0.1,0.5-0.2,0.5-0.2s-0.2-0.2-0.7-0.3c-0.4-0.1-0.5-0.1-1.2,0C49.4,31.6,48.7,32.2,48.7,32.2z M51.5,38.8
				c0.3-0.1,0.6-0.4,0.9-0.7c0.2-0.4,0.5-1.4,0.5-1.4s-0.4,0.2-0.7,0.3c-0.3,0.1-0.6,0.1-0.6,0.1s-0.1,0.5-0.3,1
				c-0.2,0.4-0.6,0.8-0.6,0.8S51.2,38.9,51.5,38.8z M53.5,37.8c0.3-0.4,0.5-0.6,0.6-1c0.1-0.5,0.1-0.9,0.1-0.9s-0.3,0.4-0.6,0.5
				c-0.3,0.2-0.6,0.3-0.6,0.3s-0.1,0.6-0.3,1.1c-0.2,0.5-0.5,0.8-0.5,0.8S53.2,38.2,53.5,37.8z M54.5,35.7c0,0-0.1,0.1-0.1,0.1
				s0,0.1,0,0.3c0,0.2-0.1,0.5-0.1,0.5s0.1-0.3,0.2-0.6c0.1-0.3,0.1-0.5,0.1-0.5S54.5,35.6,54.5,35.7z M51.6,31.6
				c0,0,0.2,0.1,0.3,0.2c0.1,0.1,0.2,0.1,0.2,0.1s0,0,0.1,0c0.1,0,0.1,0,0.1,0s-0.2-0.1-0.4-0.1C51.8,31.6,51.6,31.6,51.6,31.6z"/>
		</g>
	</g>
</g>
</svg>
