<?xml version="1.0" encoding="utf-8"?>
<!-- Generator: Adobe Illustrator 19.0.1, SVG Export Plug-In . SVG Version: 6.00 Build 0)  -->
<svg version="1.1" xmlns="http://www.w3.org/2000/svg" xmlns:xlink="http://www.w3.org/1999/xlink" x="0px" y="0px"
	 viewBox="0 0 100 100" style="enable-background:new 0 0 100 100;" xml:space="preserve">
<style type="text/css">
	.st0{fill:none;stroke:#166E39;stroke-width:0.439;}
	.st1{fill:#263072;stroke:#000000;stroke-width:0.439;}
	.st2{fill:#FFFFFF;}
	.st3{fill:#ED1C24;}
	.st4{fill:#166E39;}
	.st5{fill:#FFFFFF;stroke:#263072;stroke-width:0.439;}
	.st6{fill:#FFFFFF;stroke:#000000;stroke-width:0.439;}
	.st7{fill:#A7A9AC;}
	.st8{fill:#D1D3D4;}
</style>
<g>
	<path class="st0" d="M16.4,51.2"/>
	<path class="st1" d="M50.2,9L50.2,9H26.7c0,0,0,32,0,32.1c1.1,11.1,9.7,21.6,23.4,27.8v0c0,0,0,0,0,0c0,0,0,0,0,0v0
		c13.7-6.2,22.3-16.7,23.4-27.8c0-0.1,0-32.1,0-32.1H50.2z"/>
	<path class="st2" d="M64.7,9.8v17.6H35.7V9.4l-3.1,0c0,0,0,32.8,0,32.9c0.8,8.3,7.2,16.1,17.5,20.7v0c0,0,0,0,0,0c0,0,0,0,0,0v0
		c10.2-4.6,16.6-12.4,17.5-20.7c0-0.1,0-32.5,0-32.5L64.7,9.8z"/>
	<g>
		<path d="M52.1,61.1c1.9-1.8,3.4-4.4,2.9-11c-0.7-0.8-1.7-0.7-2-0.1c0-0.8,0.8-5.4-1.8-5c0-0.7-1.6-1.6-1.8-0.1
			c-0.8,0-1.3,0.5-1.5,1.6c-0.8,0-1.5,0.6-1.6,1.5c0,0-0.7,8.9,0.1,11.3c0.5,1.3,0.7,1.4,0.5,2C46.9,61.3,52.1,61.1,52.1,61.1z"/>
		<path class="st3" d="M51.1,60.1c1.2-0.4,2.6-0.9,3.3-4.7c-0.1-2.5-0.2-3.9,0.2-4.7c-0.2-0.5-1-1-1.4,0c-0.1,0.4-1.4,2.8-0.2,4
			c0.4,0.7-0.3,0.1-1-0.5c-0.8-0.2-1.7,1.8-2.6,4.5c0.1-1.1,0.5-3.1,0.5-3.1l-2.1,1.7l1.8-2l-2.4-0.6l2.9,0.3
			c0.9-0.3,1.6-1.6,1.9-2.3c0.2-0.1,0.1-6.8,0.1-6.8c0-0.4-1.1-0.7-1.1,0c0.1,0.2-0.2,6.2-0.2,6.2c-0.1,0.4-0.4,0.4-0.3-0.2
			c-0.1-0.1,0.1-6.8,0.1-6.8c0-0.6-0.8-1.2-0.9-0.2c0,0.1-0.2,7.4-0.2,7.4c-0.2,0.6-0.5,0.2-0.4-0.2l0.1-6.2c0-0.3-0.8-0.4-0.8,0.2
			c0,0-0.3,6-0.3,6c-0.1,0.4-0.5,0.1-0.5-0.1c0.1-0.3,0.1-4.5,0.1-4.5c-0.1-0.5-0.8-0.4-1.1,0.4c0,0.2-0.5,9.6,0,11
			c0.4,1.3,0.8,1.8,1.7,1.9C49.5,60.7,50.8,60.2,51.1,60.1z"/>
	</g>
	<path class="st4" d="M34.7,48.8l24.4-19.3l8.7,6.3v6.4l-8.5-7L37.3,53.1l0,0C35.9,51.6,35.5,50.9,34.7,48.8"/>
	<path class="st4" d="M65.6,48.8L41.3,29.5l-8.7,6.3v6.4l8.5-7L63,53.1l0,0C64.4,51.6,64.8,50.9,65.6,48.8"/>
	<path class="st2" d="M50.1,12.8c-2.8,0-5.2,2.3-5.2,5.2c0,2.8,2.3,5.2,5.2,5.2c2.8,0,5.2-2.3,5.2-5.2
		C55.3,15.1,52.9,12.8,50.1,12.8z M50.1,21.8c-2.1,0-3.8-1.7-3.8-3.8c0-2.1,1.7-3.8,3.8-3.8c2.1,0,3.8,1.7,3.8,3.8
		C53.9,20,52.2,21.8,50.1,21.8z"/>
	<circle class="st2" cx="50.1" cy="17.9" r="3.3"/>
	<path class="st2" d="M50.2,10.8c-4,0-7.2,3.2-7.2,7.2c0,4,3.2,7.2,7.2,7.2c4,0,7.2-3.2,7.2-7.2C57.4,14,54.2,10.8,50.2,10.8z
		 M50.2,23.9c-3.3,0-5.9-2.7-5.9-5.9s2.7-5.9,5.9-5.9c3.3,0,5.9,2.7,5.9,5.9S53.5,23.9,50.2,23.9z"/>
	<path class="st5" d="M52.4,17.1c-0.2,0.3-0.5,0.5-0.8,0.5c-0.2,0-0.4-0.1-0.5-0.2v0c-0.1,0-0.1-0.1-0.2-0.1c0-0.1-0.1-0.1-0.1-0.2
		h0c-0.1-0.2-0.2-0.3-0.2-0.5c0-0.4,0.2-0.7,0.5-0.8v-2.8h-1.8v2.9c0.3,0.2,0.5,0.5,0.5,0.8c0,0.3-0.2,0.6-0.5,0.8v0
		c-0.2,0.1-0.3,0.2-0.5,0.2c-0.4,0-0.7-0.2-0.8-0.5H45v1.8h2.9c0.2-0.3,0.5-0.5,0.8-0.5c0.2,0,0.4,0.1,0.5,0.2v0
		c0.1,0,0.1,0.1,0.2,0.1c0,0,0.1,0.1,0.1,0.1h0c0.1,0.2,0.2,0.3,0.2,0.5c0,0.3-0.2,0.6-0.5,0.8v2.9H51v-2.8
		c-0.3-0.2-0.5-0.5-0.5-0.8c0-0.2,0.1-0.4,0.2-0.5h0c0.2-0.3,0.5-0.5,0.8-0.5c0.3,0,0.6,0.2,0.8,0.5h2.9v-1.8H52.4z"/>
	<path class="st6" d="M82.9,52.9C78.4,55.1,65.7,79.5,97.2,91c-9.9-7.3-12.9-12.1-14.1-15.5c3.4,4,13.4,8.1,15.9,8.1
		c-5-3.8-23-11.5-9.7-27.6L82.9,52.9"/>
	<path class="st6" d="M17.1,51.3c4.6,2.2,17.3,27.1-14.3,38.9c9.9-7.5,12.9-12.3,14.1-15.8c-3.4,4-13.4,8.3-15.9,8.3
		c5-3.8,23-11.7,9.7-28.1L17.1,51.3"/>
	<path class="st7" d="M82.9,53.2c-2.3,1.1-6.7,7.9-6.4,15.8c-0.8,8.5,7.7,1.7,8-2.5c0.2-2.9,1.6-6.3,4.8-10.1L82.9,53.2"/>
	<path class="st7" d="M17,51.7c2.3,1.1,6.7,8.3,6.4,16.2c0.8,8.5-7.7,1.7-8-2.5c-0.2-2.9-1.6-6.3-4.8-10.1l6.2-3.4"/>
	<path class="st6" d="M9.8,54.9l6.6-3.6c6,14.2,18.7,23.1,32,22.7c13.3-0.4,26.6-3,34.5-21c0.2,0,6.3,3.2,6.3,3.2
		c1,1.6,0.2,2.2,0.2,2.2c-3.2,8.1-14.5,23.2-41,23.2C23.9,81,11.6,61.6,9.8,54.9z"/>
	<g>
		<path d="M15.8,58.1c0.2-0.1,0.2-0.5,0.1-0.7c-0.3-0.6-0.9-0.4-1.3-0.2c-0.5,0.3-0.9,0.7-0.6,1.2c0.1,0.2,0.4,0.4,0.7,0.3l0.2,0.3
			c-0.4,0.2-0.9-0.1-1.2-0.5c-0.4-0.7,0-1.3,0.7-1.7c0.6-0.3,1.4-0.5,1.8,0.3c0.2,0.5,0.2,0.9-0.2,1.2L15.8,58.1z"/>
		<path d="M17.7,59.7c0.5,0.7,0.2,1.4-0.4,1.8c-0.6,0.5-1.4,0.5-1.9-0.2c-0.5-0.7-0.2-1.4,0.4-1.8C16.5,59,17.3,59,17.7,59.7z
			 M15.7,61.1c0.4,0.6,0.9,0.4,1.4,0.1c0.5-0.3,0.8-0.7,0.4-1.3c-0.4-0.6-0.9-0.4-1.4-0.1C15.6,60.1,15.3,60.5,15.7,61.1z"/>
		<path d="M16.8,63.1l2.1-1.7l0.2,0.3l-2.1,1.7L16.8,63.1z"/>
		<path d="M18.6,63.9c-0.3,0.3-0.2,0.5,0,0.8c0.2,0.2,0.5,0.4,0.8,0.2c0.2-0.2,0.1-0.4,0-0.6c-0.2-0.4-0.6-1-0.2-1.4
			c0.4-0.4,1-0.1,1.3,0.2c0.3,0.3,0.5,0.8,0.1,1.2L20.3,64c0.2-0.2,0.1-0.5-0.1-0.7c-0.2-0.2-0.5-0.4-0.7-0.2
			c-0.2,0.2-0.1,0.4,0,0.6c0.2,0.5,0.7,1,0.2,1.4c-0.5,0.4-1,0.1-1.3-0.3c-0.4-0.4-0.5-0.9,0-1.3L18.6,63.9z"/>
		<path d="M21.9,65.1l-0.6-0.6l0.2-0.2l1.6,1.5L22.8,66l-0.6-0.6l-1.6,1.7l-0.3-0.3L21.9,65.1z"/>
		<path d="M21.8,68.3l1.7-2.1l1.3,1.1l-0.2,0.2l-1-0.9l-0.5,0.6l1,0.8l-0.2,0.2l-1-0.8l-0.6,0.7l1,0.9l-0.2,0.2L21.8,68.3z"/>
		<path d="M27.6,70.2c0.1-0.2,0-0.5-0.2-0.7c-0.5-0.4-1,0.1-1.3,0.4c-0.3,0.5-0.5,1,0,1.3c0.2,0.2,0.5,0.2,0.7,0l0.3,0.2
			c-0.3,0.4-0.8,0.3-1.3,0c-0.7-0.4-0.6-1.2-0.1-1.8c0.4-0.5,1-1,1.8-0.5c0.4,0.3,0.6,0.7,0.4,1.2L27.6,70.2z"/>
		<path d="M27.7,72.6l1.4-2.3l0.3,0.2l-0.6,1l1.1,0.6l0.6-1l0.3,0.2l-1.4,2.3l-0.3-0.2l0.6-1.1l-1.1-0.6L28,72.8L27.7,72.6z"/>
		<path d="M32.6,72.2c0.8,0.4,0.8,1.1,0.5,1.8c-0.3,0.7-1,1.1-1.7,0.7c-0.8-0.4-0.8-1.1-0.5-1.8C31.3,72.2,31.9,71.8,32.6,72.2z
			 M31.6,74.4c0.6,0.3,1-0.1,1.2-0.6c0.3-0.5,0.3-1-0.3-1.3c-0.6-0.3-1,0.1-1.2,0.6C31,73.6,30.9,74.2,31.6,74.4z"/>
		<path d="M36.6,73.9l-1,2.5l-0.4-0.2l-0.4-2.6l0,0l-0.8,2.1l-0.3-0.1l1-2.5l0.5,0.2l0.4,2.6l0,0l0.8-2.1L36.6,73.9z"/>
		<path d="M38,74.8l-0.9-0.3l0.1-0.3l2.1,0.6l-0.1,0.3l-0.9-0.3l-0.7,2.3L37.3,77L38,74.8z"/>
		<path d="M38.8,77.5l1.7-2.3l0.4,0.1l0.4,2.9L41,78l-0.1-0.8L39.6,77l-0.4,0.6L38.8,77.5z M39.8,76.7l1,0.2l-0.2-1.4L39.8,76.7z"/>
		<path d="M42.2,78.3l0.5-2.7l1.7,0.3l-0.1,0.3L42.9,76l-0.1,0.8L44,77L44,77.4l-1.2-0.2L42.6,78l1.3,0.2l-0.1,0.3L42.2,78.3z"/>
		<path d="M49,76.6L49,76.6L48,79l-0.4,0L47,76.5l0,0l-0.1,2.4l-0.4,0l0.2-2.7l0.7,0l0.6,2.3l0,0l0.9-2.2l0.6,0l-0.2,2.7l-0.4,0
			L49,76.6z"/>
		<path d="M50.6,79l-0.3-2.7l0.4,0l0.1,1.1l1.3-0.1L52,76.1l0.4,0l0.3,2.7l-0.4,0l-0.1-1.2l-1.3,0.1L51,79L50.6,79z"/>
		<path d="M55.8,77.2c0.1,0.7-0.2,1.2-0.9,1.3c-0.7,0.1-1.2-0.3-1.3-0.9L53.4,76l0.4-0.1l0.3,1.7c0.1,0.5,0.4,0.7,0.8,0.6
			c0.4-0.1,0.7-0.4,0.6-0.8l-0.3-1.7l0.4-0.1L55.8,77.2z"/>
		<path d="M57.1,78.1l-0.5-2.6l0.4-0.1l0.5,2.6L57.1,78.1z"/>
		<path d="M60,74.6l0.6,2.6l-0.4,0.1l-1.9-1.9l0,0l0.5,2.2l-0.3,0.1l-0.6-2.6l0.5-0.1l1.8,1.9l0,0l-0.5-2.2L60,74.6z"/>
		<path d="M61.7,77l-0.8-2.6l1.6-0.5l0.1,0.3l-1.3,0.4l0.2,0.8l1.2-0.4l0.1,0.3l-1.2,0.4l0.3,0.9l1.3-0.4l0.1,0.3L61.7,77z"/>
		<path d="M64.1,76.2l0.1-2.9l0.4-0.1l2,2.2l-0.4,0.1l-0.5-0.6l-1.2,0.4l0,0.8L64.1,76.2z M64.5,75l0.9-0.3l-0.9-1.1L64.5,75z"/>
		<path d="M68.1,72.5c-0.1-0.2-0.4-0.3-0.7-0.2c-0.6,0.3-0.5,0.9-0.3,1.3c0.2,0.5,0.6,0.9,1.1,0.7c0.3-0.1,0.4-0.4,0.4-0.6l0.4-0.2
			c0.1,0.4-0.1,0.9-0.6,1.1c-0.7,0.3-1.3-0.1-1.6-0.8c-0.3-0.6-0.3-1.4,0.5-1.8c0.5-0.2,0.9-0.1,1.2,0.3L68.1,72.5z"/>
		<path d="M70.1,73.7l-1.2-2.4l0.3-0.2l0.5,1l1.1-0.6l-0.5-1l0.3-0.2l1.2,2.4L71.6,73L71,71.9l-1.1,0.6l0.6,1.1L70.1,73.7z"/>
		<path d="M72.4,68.4l-0.1,0.7l-0.2,0.1l0-0.6L72.4,68.4z M72.6,72.4l-0.4-2.9l0.3-0.2l2.3,1.7l-0.3,0.2l-0.6-0.4l-1.1,0.7l0.1,0.7
			L72.6,72.4z M72.8,71.1l0.9-0.5l-1.1-0.9L72.8,71.1z"/>
		<path d="M75.6,70.5L74,68.3l0.3-0.2l1.5,2.2L75.6,70.5z"/>
		<path d="M76.9,66.2l1.7,2.1l-0.4,0.3l-2.5-1l0,0l1.4,1.8l-0.3,0.2l-1.7-2.1l0.4-0.3l2.4,0.9l0,0l-1.4-1.8L76.9,66.2z"/>
		<path d="M80.3,64c-0.2-0.2-0.5-0.1-0.7,0.1c-0.5,0.5-0.1,1,0.2,1.3c0.4,0.4,0.9,0.7,1.3,0.2c0.2-0.2,0.3-0.5,0.1-0.7l0.3-0.3
			c0.3,0.3,0.2,0.9-0.2,1.2c-0.6,0.6-1.2,0.3-1.8-0.2c-0.5-0.5-0.8-1.2-0.1-1.8c0.4-0.4,0.8-0.4,1.2-0.1L80.3,64z"/>
		<path d="M82.7,64.4l-2-1.8l0.2-0.3l1.8,1.6l0.8-0.9l0.2,0.2L82.7,64.4z"/>
		<path d="M84.1,59.5c-0.4-0.3-0.9,0-1.2,0.3c-0.3,0.4-0.4,0.8-0.2,1.2c0.1,0.3,0.3,0.5,0.5,0.7c0.3,0.2,0.7,0.4,1.1,0.3
			c0.4-0.1,0.6-0.3,0.8-0.6c0.2-0.2,0.3-0.5,0.4-0.8l-1.1-0.8l-0.6,0.8l0.3,0.2l0.4-0.5l0.6,0.5c-0.1,0.2-0.1,0.3-0.3,0.5
			c-0.5,0.6-0.9,0.5-1.5,0.2c-0.4-0.3-0.7-0.8-0.3-1.4c0.2-0.2,0.4-0.4,0.7-0.3L84.1,59.5z"/>
	</g>
	<path class="st8" d="M83.1,53.2l6,3c0.3,0.6,0.8,1.5,0.2,1.8c-0.1,0.1-6.6-3.9-6.6-3.9L83.1,53.2"/>
	<path class="st8" d="M16.3,51.6l-6,3c-0.3,0.6,0.1,1,0.1,1.6c0.1,0.1,6.3-3.7,6.3-3.7L16.3,51.6"/>
</g>
</svg>
