<?xml version="1.0" encoding="utf-8"?>
<!-- Generator: Adobe Illustrator 19.0.1, SVG Export Plug-In . SVG Version: 6.00 Build 0)  -->
<svg version="1.1" xmlns="http://www.w3.org/2000/svg" xmlns:xlink="http://www.w3.org/1999/xlink" x="0px" y="0px"
	 viewBox="0 0 100 100" style="enable-background:new 0 0 100 100;" xml:space="preserve">
<style type="text/css">
	.st0{fill:#FFFFFF;}
	.st1{fill:#FEC238;}
	.st2{fill:#056C3C;}
	.st3{fill:#ED1C24;stroke:#000000;stroke-width:0.7108;}
	.st4{fill:#FEC238;stroke:#000000;stroke-width:0.9477;}
	.st5{fill:none;stroke:#000000;stroke-width:0.7108;}
	.st6{fill:none;stroke:#000000;stroke-width:0.549;}
	.st7{fill:none;stroke:#000000;stroke-width:0.5967;}
	.st8{fill:none;stroke:#000000;stroke-width:0.4738;}
	.st9{fill:#ED1C24;}
	.st10{fill:#FFFFFF;stroke:#000000;stroke-width:0.4738;}
	.st11{fill:#D1D3D4;}
	.st12{fill:none;stroke:#000000;stroke-width:0.3558;}
</style>
<g>
	<path d="M8.7,8.6C20.8-0.7,75.3-2.2,89.9,8.2C97.7,28.6,95,84.3,49.5,99C9.7,85,2.4,40.7,8.7,8.6z"/>
	<path class="st0" d="M90.4,18.8l-1.7-9.9c-20.7-11.1-64-7.1-78,0.3L8.4,20.3C22.2,12.6,61.6,9.6,90.4,18.8z"/>
	<path class="st0" d="M10.6,52.4c13.2-3.3,24.7-4,38.1-4l0,49.4C29.9,88.7,18.9,80.1,10.6,52.4z"/>
	<path class="st1" d="M89,52.5c-15-3.2-25.3-4.1-38.6-4.1l0,49.4C69.1,88.7,80.7,80.2,89,52.5z"/>
	<path class="st2" d="M34.2,46.9V16.1c-9.7,0.7-22.4,3.3-25.7,5.5c-1.4,5,0.2,23.8,1.7,29.4C14.3,49.2,28.3,47.1,34.2,46.9z"/>
	<path class="st2" d="M65.2,46.9V16.1c9.7,0.7,22.4,3.3,25.7,5.5c1.4,5-0.2,23.8-1.7,29.4C85.1,49.2,71,47.1,65.2,46.9z"/>
	<path class="st0" d="M35.8,46.5V16.4c4.8-1.1,22.9-0.7,27.8,0c-0.3-0.3-0.1,30.4-0.1,30.4C60.5,46.2,44.4,45.2,35.8,46.5z"/>
	<polygon points="91,44.5 65.2,45 64.6,48.2 90,51.8 	"/>
	<path d="M91.4,27.2c4.5-0.5-20.7,1.1-25.7,1c4.8,2.2,20.7,4.7,24.2,8C89.4,31.9,82.5,28.1,91.4,27.2z"/>
	<g>
		<path class="st3" d="M69.1,63l1.3,1.9c-0.4,2.6,1.3,7.9,3.6,2.7c0-5-0.9-12.1,4.7-11.5c-1.3,1.4-1.2,2-1.2,3.9
			c-0.4,1.2-1.4,1.3-1.8,1.2c0.1-0.1,0.1,4.3,0.1,4.3c0.3,0.5,1.3-0.4,1.4-2.7c0.8,0.7,0.2,2.9-0.5,3.8c0.6,1.4,0.8,4.4-0.4,5
			c0.1-1.4-0.1-4.3-0.9-2.6c-0.4,2.1-1.6,3.1-2.3,3.4c-0.1,0.7,2.5,1.4,2.3,2c0,1.4-4,3.3-4.1,5.6c0.4,1.3,0.1,2.1-0.6,2.2
			c-0.9-0.3-3.1,0.4-3.6,0.9c-1.1,0.4-3.2,0.4-2.8-1c0.9-0.1,2.8-0.9,1.1-0.7c-1.7,0.5-1.8-1.2-0.8-1.3c1.2,0.3,2.5-0.3,0.8-0.8
			c0-0.7,2-0.9,3.1,0.1c0.1-0.2,1.3-1.6,1.3-1.6c-1.6-0.1-2.3-2.4-0.7-5c0.6-1,0.5-2.3-0.8,0.2c-0.2,0.3-0.2-2.6-0.2-2.6
			c-1.9-1.8-4.5-3-4.9-3.8C64.5,65.9,68.8,64.5,69.1,63z"/>
		<path class="st3" d="M64.1,81.8c0,0-0.7,0.2-0.7,0.7c0.3-0.2,1,0,1,0L64.1,81.8z"/>
		<polygon class="st3" points="63.7,80.6 63.9,81.2 63.1,81.3 		"/>
		<path class="st3" d="M67.6,70.8l-4.4-0.1c0.7,1.9,0.7,4.1-0.5,3.5c-1.1-0.9-3-0.7-3.4,0.2c-0.1,1,0.7,0.6,1.5,0.9
			c-1.4,0.5-1.5,0.3-1.8,1.1c0.1,1,1.1,1.3,1.4,0.5c0.5-0.6,1-0.1,0.5,0.3c-0.7,0-1.7,1.9,0.6,1.8c1.2-1.4,3.4-1.7,4.5-1.5
			c-0.1-0.5-0.7-3.1,0.3-2.3c0.8,0.5,1.1,0.5,1.3-0.7C67.7,74.3,67.6,70.8,67.6,70.8z"/>
		<path class="st3" d="M58.8,74.8l0.2-0.9c-0.7-0.1-0.9,0.2-1.1,0.7C58.3,74.5,58.8,74.8,58.8,74.8z"/>
		<path class="st3" d="M58.7,77l0.2-0.9c-0.7-0.1-0.9,0.2-1.1,0.7C58.3,76.8,58.7,77,58.7,77z"/>
		<path class="st3" d="M60,78.8L59.7,78c-0.6,0.4-0.5,0.7-0.4,1.2C59.5,78.9,60,78.8,60,78.8z"/>
		<path class="st3" d="M55,65.8l0.2-0.9c-0.7-0.1-0.9,0.2-1.1,0.7C54.6,65.6,55,65.8,55,65.8z"/>
		<path class="st3" d="M54.1,67.8l0.2-0.9c-0.7-0.1-0.9,0.2-1.1,0.7C53.7,67.5,54.1,67.8,54.1,67.8z"/>
		<path class="st3" d="M55,69.6l-0.4-0.8c-0.6,0.4-0.5,0.7-0.4,1.2C54.5,69.7,55,69.6,55,69.6z"/>
		<path class="st3" d="M54.8,56.7l0.2-0.9c-0.7-0.1-0.9,0.2-1.1,0.7C54.3,56.5,54.8,56.7,54.8,56.7z"/>
		<path class="st3" d="M53.9,58.7l0.2-0.8c-0.7-0.1-0.9,0.2-1.1,0.7C53.4,58.5,53.9,58.7,53.9,58.7z"/>
		<path class="st3" d="M54.3,60.6l-0.4-0.8c-0.6,0.4-0.5,0.7-0.4,1.2C53.8,60.7,54.3,60.6,54.3,60.6z"/>
		<path class="st3" d="M61.6,66.6c0.1,1.1-0.3,2.7-1,2.8c-1.1-0.2-2.8-1-3.8,0.1c-1,0.2-3-0.1-0.8-1.7c0.7-0.5,0.2-0.7-0.6-0.2
			c-0.7,0.7-1.8-0.8,0.1-1.4c-0.2-0.6-0.1-1.5,1.2-1.5c1.3,0.2,1.3,0.5,1.8,1c0.7,0,3.1-3.1,4.9-3c-0.6,0.8-0.6,0.7-0.7,1.4
			c0.8,0.1,2.7,0.2,3.5-0.9l0.3,0.4L61.6,66.6z"/>
		<path class="st3" d="M71.1,64.7c-0.7-2.3,0.6-3.6-0.3-5.1c0.8,0.3,1,0.3,1.2,0.1c-0.6-0.7-0.9-1.3-0.8-1.8c0.6,0.6,0.6,0.3,1,0.3
			c-0.5-0.7-0.7-1-0.7-1.8c0.4,0.6,0.6,0.3,1,0.5c-0.2-0.9-0.1-2-0.8-2.3c1.3,0.1,2.2-0.9,2.4-1.7c-0.4,0-1.8,1.2-2.9,1.2
			c0.3-0.6,1.4-1.8,2.3-1.9c-0.6-0.7-5.2-0.7-6-0.4c-0.7,0.6-0.3,1.5,1.3,1.5c1.6,0,2.5,0.8,0.2,0.8c-0.4,0.5-1.4,0.9-1.8,0.6
			c-0.6-0.2-1.5-0.3-2.1,0.7c-0.2,0.9-2.4,1.1-3.6-0.5c-0.3-0.2-0.7-0.1-0.3,0.6c0.6,1,2.4,1.9,4.4,1.3c0.7-1.2,2-1.7,2.9-1.4
			c0.4,0.6-0.4,1.6-0.9,1.8c-0.6,0.1-1.5,0.3-2.4,0.1c-0.3,0.4-0.3,1.1,0.1,1.3c0.6,0.2,2.8,0,3.3-0.8c0.5-0.6,1.1-0.2,0.5,0.7
			c-0.6,0.5-2.6,0.2-3.3,0.8c-0.8,0.5-1.8,0.4-2.1,1.3c0.4,0.2,0.1,0.7-0.5,0.9c-0.6,0.1-2.2,1.1-2.4,1.7c0.6,0,3.2-1.6,4.1-1.8
			c-0.7,0.7-1.4,1.6-1.2,2.7c0.7-0.6,2.6-1.6,3.1-1.8c0.6,0.3,1-0.1,0.3,1.4c-0.1,0.6,0.5,0.9,1.8-1.2c0.1-0.4,0.6-0.7,1.2,0.8
			C70.5,64.5,71.1,64.7,71.1,64.7z"/>
		<path class="st3" d="M64.6,54.2c0.2-0.9,1.3-2.3,3-0.8c0.7,0,0.8,0.2,1,0.3c-0.5,0.2-1.9-0.1-2.4,0.1
			C65.9,54.2,65.4,54.7,64.6,54.2z"/>
		<path class="st3" d="M66.3,56c0.1,0.6,0.6,0.7,1.1,0.8C68,56.2,68.3,55.7,66.3,56z"/>
		<path class="st3" d="M64.7,58.6c-1.7,0-4.7,1-7-2.3c-0.9-0.8-1.6-1.1-2.4,0.4c0.5,0.4,0.5,0.8-0.1,0.7c-0.6,0-1.8,1.7-0.4,1.4
			c0.3-0.5,0.9,0,0.3,0.3c-0.5,0.1-1.2,0.6-0.1,1.4c1.3,0.3,1.8-0.3,2.5-0.8c0,0.7,0.6,0.7,1.1,0.6c-0.2,0.9,1.2,0.7,1.8,0
			c0.8-0.3,1,0.2,0.3,0.6c-0.7,0.2-1,0.6-0.2,0.7c0.8,0,2.2-0.6,2.1-1.4C62.6,60.2,64.7,58.6,64.7,58.6z"/>
	</g>
	<rect x="14.8" y="40.3" class="st4" width="13" height="2.9"/>
	<polygon class="st4" points="15.5,39.4 16.7,26.8 25.9,26.6 27.3,39.4 	"/>
	<polygon class="st4" points="26.2,21.7 26.2,24.4 22.2,24.4 22.2,22 20.2,22 20.2,24.4 16.5,24.4 16.5,21.3 14.5,21.3 14.5,24.4 
		14.5,26 14.5,26.3 20.2,26.3 22.2,26.3 26.2,26.3 28.2,26.3 28.2,24.4 28.2,21.7 	"/>
	<path class="st4" d="M72.1,45.5c4.1,3.1,6.8,2.3,9.8,0.9c0.1-0.1-0.4-24.8-0.4-24.8l-4.1-3.1l-4.1,2.8L72.1,45.5z"/>
	<polygon points="78.7,39.7 80.8,39.7 80.5,36.3 78.5,36.3 	"/>
	<polygon points="78.6,34 80.2,34 80,31.9 78.4,31.9 	"/>
	<polygon points="75.6,39.7 73.5,39.7 73.8,36.3 75.8,36.3 	"/>
	<polygon points="75.7,34 74.1,34 74.3,31.9 75.9,31.9 	"/>
	<polygon points="78.6,30.5 80.2,30.5 80,28.4 78.4,28.4 	"/>
	<polygon points="75.7,30.5 74.1,30.5 74.3,28.4 75.9,28.4 	"/>
	<polygon points="78.6,27.3 80.2,27.3 80,25.2 78.4,25.2 	"/>
	<polygon points="75.7,27.3 74.1,27.3 74.3,25.2 75.9,25.2 	"/>
	<rect x="17.8" y="29.5" width="2.2" height="3.3"/>
	<rect x="22.3" y="29.5" width="2.2" height="3.3"/>
	<rect x="20.2" y="33.9" width="2.2" height="4.1"/>
	<path class="st5" d="M73.3,21.4c1.6,1.2,6.4,1.8,8.3,0.7"/>
	<path class="st6" d="M75.5,20.1c0.5,0.3,2.2,0.5,2.9,0.2"/>
	<path class="st7" d="M74.1,20.8c0.6,0.3,2.6,0.5,3.4,0.2"/>
	<path class="st8" d="M77.1,21.8c0.6,0.2,2.4,0,3.1-0.4"/>
	<path d="M52.1,44.8c3.2-2.7,5.9-6.8,5-17.1c-1.2-1.2-2.9-1-3.4-0.2c0-1.2,1.4-8.4-3.2-7.8c0.1-1.2-2.7-2.5-3-0.1
		c-1.4,0-2.3,0.8-2.5,2.5c-1.3-0.1-2.6,0.9-2.8,2.4c0,0.1-1.2,13.8,0.2,17.5c0.8,1.9,1.2,2.2,0.9,3.2C43.1,45,52.1,44.8,52.1,44.8z"
		/>
	<path class="st9" d="M50.3,43.2c2.1-0.7,4.4-1.4,5.7-7.3c-0.1-3.9-0.4-6,0.3-7.2c-0.4-0.8-1.7-1.6-2.3,0c-0.2,0.6-2.4,4.4-0.3,6.2
		c0.6,1.2-0.5,0.1-1.7-0.8c-1.4-0.3-2.9,2.8-4.5,6.9c0.1-1.7,0.9-4.8,0.9-4.8l-3.7,2.6l3.2-3.1l-4-0.9l5,0.4
		c1.5-0.5,2.7-2.5,3.3-3.5c0.3-0.2,0.1-10.5,0.1-10.5c-0.1-0.6-1.8-1.2-1.9,0.1c0.1,0.3-0.4,9.6-0.4,9.6c-0.2,0.6-0.6,0.6-0.6-0.3
		C49.3,30.3,49.6,20,49.6,20c0-0.9-1.3-1.9-1.5-0.4c-0.1,0.1-0.4,11.5-0.4,11.5c-0.4,0.9-0.8,0.4-0.6-0.3l0.2-9.7
		c-0.1-0.5-1.4-0.6-1.4,0.4c0.1,0.1-0.4,9.2-0.4,9.2c-0.1,0.6-0.9,0.2-0.9-0.2c0.1-0.5,0.2-6.9,0.2-6.9c-0.1-0.7-1.4-0.6-1.8,0.6
		c0.1,0.4-0.8,14.9-0.1,17c0.7,1.9,1.3,2.8,3,2.9C47.5,44.2,49.8,43.4,50.3,43.2z"/>
	<g>
		<path class="st10" d="M55.3,69.9c0.2,1.9,1,2.8,1,2.8c0.5-0.8,0.6-1.7,0.8-2.8L55.3,69.9z"/>
		<path class="st10" d="M59.4,52.5c-0.2,0-0.3,0.1-0.5,0.2c0.1-0.1,0.2-0.3,0.2-0.4c0-0.4-0.3-0.7-0.7-0.7c-0.4,0-0.7,0.3-0.7,0.7
			c0,0.2,0.1,0.3,0.2,0.5h-1.2v-0.3v-1c0.1,0.1,0.3,0.2,0.5,0.2c0.4,0,0.7-0.3,0.7-0.7c0-0.4-0.3-0.7-0.7-0.7
			c-0.2,0-0.3,0.1-0.4,0.2c0.1-0.1,0.2-0.3,0.2-0.5c0-0.4-0.3-0.7-0.7-0.7c-0.4,0-0.7,0.3-0.7,0.7c0,0.1,0,0.3,0.1,0.4
			c-0.1,0-0.1,0-0.2,0c-0.4,0-0.7,0.3-0.7,0.7c0,0.4,0.3,0.7,0.7,0.7c0.1,0,0.2,0,0.3-0.1v0.9v0.3h-1.4c0.1-0.1,0.2-0.3,0.2-0.5
			c0-0.4-0.3-0.7-0.7-0.7c-0.4,0-0.7,0.3-0.7,0.7c0,0.2,0.1,0.3,0.2,0.4c-0.1-0.1-0.3-0.2-0.5-0.2c-0.4,0-0.7,0.3-0.7,0.7
			c0,0.4,0.3,0.7,0.7,0.7c0.1,0,0.3,0,0.4-0.1c0,0.1,0,0.1,0,0.2c0,0.4,0.3,0.7,0.7,0.7c0.4,0,0.7-0.3,0.7-0.7c0-0.1,0-0.2-0.1-0.3
			h1v10.8h1.5V53.7h0.8c0,0.1-0.1,0.2-0.1,0.3c0,0.4,0.3,0.7,0.7,0.7c0.4,0,0.7-0.3,0.7-0.7c0-0.1,0-0.1,0-0.2
			c0.1,0.1,0.2,0.1,0.4,0.1c0.4,0,0.7-0.3,0.7-0.7C60.2,52.9,59.8,52.5,59.4,52.5z"/>
	</g>
	<path class="st2" d="M33.1,53c-9.4,0-11.9,7.1-11.9,10.9c0,4.5,3,10.4,11.7,10.4c1.8,0,2.9-0.2,3.7-0.4l0.1,5.6
		c-1,2-4.1,3.7-5.8,2.8c-1.6-0.3-2.2-2.9-0.7-2.7c1,0.1,2-0.5,0.9-2.1c-3.3-0.8-4.2,2.4-2.9,5.1c1.6,1.8,6.9,2.5,8.9-0.2
		c1.6-2.4,1.5-2,1.6-3.6v-6.5c0.1,0,0-4.5,0-4.5l-1.1,1.6c-1.6,1.8-3,2.3-4.2,2.3c-3.8,0-7.8-3.8-7.8-9.8c0-6.4,5.1-7,6.1-7
		c3,0,7.6,2.5,8.5,5l0.2-7.1l-0.7,1.1C36.1,53.3,36.3,53,33.1,53z"/>
	<path class="st1" d="M43,72.3c-0.7,0.9-1.3,1.7-1.8,2.2h-7.6c-0.1-0.7-0.1-1.4-0.1-2.1v-0.8v-0.3v-15v-0.2v-2c0-2,0.1-2.6,3-2.9
		v-0.3h-8.2v0.3c2.9,0.3,3,0.9,3,2.9v2v0.2v15v0.3v1.2c-0.1,2-0.1,2.6-3,2.9V76H42l1.4-3.6L43,72.3z"/>
	<path d="M38.1,61.2c-0.6-1.4-3.3-2.7-5-2.7c-0.6,0-2.8,0.3-2.8,3.8c0,3.3,1.5,5.4,3.8,5.4c0.9,0,2.6-1.2,3.9-3l0.1,3
		c-1,0.7-1.8,1.4-4.2,1.4c-5.1,0-6.9-3.3-6.9-5.7c0-2.1,1.5-6,7-6c1.9,0,2.2,0,4.3,0.1L38.1,61.2z"/>
	<g>
		<polygon class="st11" points="78.6,39.4 80.3,39.4 80,36.3 78.4,36.3 		"/>
		<polygon class="st11" points="78.6,33.8 79.9,33.8 79.7,31.9 78.4,31.9 		"/>
		<polygon class="st11" points="75.2,39.4 73.5,39.4 73.8,36.2 75.4,36.2 		"/>
		<polygon class="st11" points="75.5,33.6 74,33.6 74.3,31.9 75.7,31.9 		"/>
		<polygon class="st11" points="78.6,30.2 79.8,30.2 79.6,28.4 78.4,28.4 		"/>
		<polygon class="st11" points="75.4,30.2 74.1,30.2 74.3,28.4 75.6,28.4 		"/>
		<polygon class="st11" points="78.6,27.1 79.8,27.1 79.6,25.2 78.4,25.2 		"/>
		<polygon class="st11" points="75.4,27 74.1,27 74.3,25.3 75.6,25.3 		"/>
	</g>
	<g>
		<path d="M22.6,5.9l1.7-0.2l3.8,7.2l-1.7,0.2l-0.8-1.6l-3,0.3l-0.5,1.8l-1.6,0.2L22.6,5.9z M23.6,7.4L23.6,7.4l-0.8,3.2l2.2-0.2
			L23.6,7.4z"/>
		<path d="M31.7,5c2.4-0.2,3.8,1.3,4,3.6c0.2,2.3-1,4-3.4,4.2c-2.4,0.2-3.8-1.3-4-3.6C28.2,6.8,29.3,5.1,31.7,5z M32.2,11.5
			c1.5-0.1,2-1.5,1.9-2.9C34,7.3,33.3,6,31.8,6.1c-1.5,0.1-2,1.5-1.9,2.8C30,10.3,30.7,11.7,32.2,11.5z"/>
		<path d="M36.9,4.8l1.9-0.1l3.1,5.5l0,0l-0.2-5.6l1.4-0.1l0.3,7.5l-1.8,0.1l-3.1-5.5l0,0l0.2,5.6l-1.4,0.1L36.9,4.8z"/>
		<path d="M46.3,5.7l-2.2,0l0-1.2l5.8,0l0,1.2l-2.2,0l0,6.3l-1.5,0L46.3,5.7z"/>
		<path d="M51,4.5l1.6,0c1.6,0,3.5,0,3.5,2.1c0,0.9-0.6,1.6-1.6,1.7v0c0.4,0,0.6,0.5,0.8,0.8l1.1,3l-1.7,0l-0.8-2.4
			c-0.2-0.6-0.4-0.8-1-0.8l-0.5,0l-0.1,3.1l-1.5,0L51,4.5z M52.5,7.8l0.5,0c0.7,0,1.6-0.1,1.6-1c0-0.9-0.8-1-1.6-1l-0.5,0L52.5,7.8z
			"/>
		<path d="M61.3,4.8C63.7,5,64.9,6.7,64.7,9c-0.2,2.3-1.6,3.8-4,3.6c-2.4-0.2-3.6-1.9-3.4-4.2C57.5,6.1,58.9,4.7,61.3,4.8z
			 M60.8,11.4c1.5,0.1,2.2-1.2,2.3-2.6c0.1-1.3-0.4-2.7-1.9-2.8c-1.5-0.1-2.2,1.2-2.3,2.5C58.8,9.9,59.3,11.3,60.8,11.4z"/>
		<path d="M66.4,5.4l1.5,0.2l-0.9,7.5l-1.5-0.2L66.4,5.4z"/>
		<path d="M69.9,5.8l2.4,0.4l0.7,5.9l0,0l2.8-5.3l2.4,0.4l-1.3,7.4l-1.4-0.3l1.1-6.1l0,0l-3.1,5.7L72,13.8l-0.9-6.5l0,0L70,13.5
			l-1.4-0.3L69.9,5.8z"/>
	</g>
	<path d="M40,89c0,0.8,0.1,0.9,0.6,1l0.4,0c0.1,0.1,0.1,0.3,0,0.4c-0.4,0-1,0-1.6,0c-0.7,0-1.3,0-1.6,0c-0.1,0-0.1-0.3,0-0.4l0.4,0
		c0.5,0,0.6-0.1,0.6-1v-3.3c0-0.7,0-0.8-0.5-0.9l-0.5-0.1c-0.1-0.1-0.1-0.3,0-0.4c0.4-0.1,0.9-0.2,1.3-0.3c0.4-0.1,0.8-0.3,0.9-0.3
		c0.1,0,0.1,0,0.1,0.1c0,0.2,0,0.7,0,1.2V89z"/>
	<path d="M42.3,88.7c0-0.8,0.5-1.4,1.3-1.7c-0.6-0.3-1.1-0.8-1.1-1.5c0-1,0.8-1.8,2.1-1.8c1.1,0,2,0.6,2,1.6c0,0.7-0.6,1.1-1.1,1.4
		c0.8,0.4,1.4,0.9,1.4,1.9c0,1-0.7,1.7-2.3,1.7C43.3,90.4,42.3,89.9,42.3,88.7z M45.5,89c0-0.8-0.6-1.2-1.4-1.6
		c-0.4,0.4-0.5,0.8-0.5,1.3c0,0.7,0.4,1.3,1.1,1.3C45.1,89.9,45.5,89.6,45.5,89z M43.8,85.2c0,0.5,0.3,0.9,1.2,1.3
		c0.3-0.2,0.5-0.6,0.5-1.1c0-0.7-0.4-1.1-0.8-1.1C44.2,84.2,43.8,84.6,43.8,85.2z"/>
	<path d="M53,88.7c0-0.8,0.5-1.4,1.3-1.7c-0.6-0.3-1.1-0.8-1.1-1.5c0-1,0.8-1.8,2.1-1.8c1.1,0,2,0.6,2,1.6c0,0.7-0.6,1.1-1.1,1.4
		c0.8,0.4,1.4,0.9,1.4,1.9c0,1-0.7,1.7-2.3,1.7C54,90.4,53,89.9,53,88.7z M56.2,89c0-0.8-0.6-1.2-1.4-1.6c-0.4,0.4-0.5,0.8-0.5,1.3
		c0,0.7,0.4,1.3,1.1,1.3C55.8,89.9,56.2,89.6,56.2,89z M54.5,85.2c0,0.5,0.3,0.9,1.2,1.3c0.3-0.2,0.5-0.6,0.5-1.1
		c0-0.7-0.4-1.1-0.8-1.1C54.8,84.2,54.5,84.6,54.5,85.2z"/>
	<path d="M62.2,83.6c0.1,0,0.1,0.1,0.1,0.1c-0.1,0.4-0.3,0.8-0.6,1L59.5,85c-0.1,0-0.2,0.1-0.2,0.3l-0.1,0.2
		c-0.1,0.2,0.1,0.3,0.3,0.3c0.5,0.1,1.5,0.2,2.1,0.5c0.6,0.3,1.1,0.9,1.1,1.7c0,1.1-0.6,1.7-1.5,2.2c-0.8,0.5-1.9,0.7-2.8,0.7
		c-0.2-0.1-0.2-0.4-0.1-0.5c0.7,0,1.6-0.2,2-0.5c0.6-0.4,0.9-0.8,0.9-1.4c0-1.5-1.5-1.6-2.5-1.7c-0.3,0-0.4-0.1-0.3-0.3l0.6-2.3
		c0.1-0.3,0.1-0.3,0.5-0.3L62.2,83.6z"/>
	<polyline class="st8" points="74.7,41.4 75.8,41.4 75.8,42.5 	"/>
	<polyline class="st8" points="77.8,34.6 77.8,35.7 76.7,35.7 	"/>
	<polyline class="st12" points="76.5,26.6 77.3,26.6 77.3,27.4 	"/>
	<polyline class="st12" points="76.9,31.2 76.9,30.4 77.7,30.4 	"/>
	<polyline class="st8" points="78.1,44.5 78.1,43.4 79.2,43.4 	"/>
	<polyline class="st8" points="80.1,40.9 80.1,41.9 79.1,41.9 	"/>
	<polyline class="st8" points="73.5,43.8 74.6,43.8 74.6,44.9 	"/>
</g>
</svg>
