<?xml version="1.0" encoding="utf-8"?>
<!-- Generator: Adobe Illustrator 19.0.1, SVG Export Plug-In . SVG Version: 6.00 Build 0)  -->
<svg version="1.1" id="Layer_1" xmlns="http://www.w3.org/2000/svg" xmlns:xlink="http://www.w3.org/1999/xlink" x="0px" y="0px"
	 viewBox="0 0 100 100" style="enable-background:new 0 0 100 100;" xml:space="preserve">
<style type="text/css">
	.st0{fill:#001C54;}
	.st1{fill:#FFFFFF;}
	.st2{fill:#005DA4;}
	.st3{fill:#EFEFF0;}
	.st4{fill:#6D6E71;}
	.st5{fill:#FBAE2E;}
	.st6{fill:#189E4D;}
	.st7{fill:#A7A9AC;}
	.st8{fill:#58595B;}
</style>
<g>
	<path class="st0" d="M89.2,1H8.4v48.4c0,13.7,2.7,22.6,9.1,29.9c6.8,7.8,17.5,13.4,31.6,19.3L50,99l0.9-0.4
		c14-5.9,24.8-11.5,31.6-19.3c6.3-7.3,9-16.2,9.1-29.9V1H89.2z M50,5.7c0,0,32.7,0,36.9,0c0,4.2,0,43.7,0,43.7
		c0,23-7.3,31.9-36.9,44.5C20.5,81.3,13.2,72.4,13.2,49.4c0,0,0-39.4,0-43.7C17.3,5.7,50,5.7,50,5.7z"/>
	<path class="st1" d="M12.4,60.1c0,0-1.1,12.7,12,23c0,0,17.7,11.8,23.2,12.9l3.2,1.4c0,0,20.9-9.7,25.3-14.9c0,0,9.9-9.2,12.4-22.3
		"/>
	<path class="st2" d="M50,96.7C79.7,84.1,89.1,75,89.2,49.5V3.3H50H10.8v46.2C10.8,75,20.3,84.1,50,96.7z"/>
	<rect x="11.7" y="17.1" class="st1" width="76.6" height="1.3"/>
	<rect x="12.1" y="18.8" class="st3" width="75.8" height="31"/>
	<path class="st0" d="M87.9,18.5h-76v31.6h76.3V18.5H87.9z M87.6,19c0,0.6,0,29.9,0,30.5c-0.6,0-74.6,0-75.2,0c0-0.6,0-29.9,0-30.5
		C13,19,87,19,87.6,19z"/>
	<g>
		<g>
			<path class="st1" d="M44.3,83.5c-0.1,0-0.2,0.1-0.3,0.1c-0.1,0-0.2,0.1-0.3,0.1c-0.1,0-0.2,0.1-0.3,0.1c-0.1,0.1-0.2,0.1-0.2,0.1
				L43.1,84L43,83.8c-0.2-0.2-0.4-0.3-0.7-0.5c-0.1-0.1-0.3-0.1-0.4-0.2c-0.2,0-0.3-0.1-0.3-0.1h-0.3c-0.2,0-0.4,0.1-0.7,0.2
				c-0.3,0.2-0.5,0.4-0.7,0.6c-0.2,0.2-0.3,0.5-0.4,0.8c-0.1,0.3-0.1,0.5-0.1,0.8v0.1c0,0.2,0.1,0.4,0.1,0.6
				c0.1,0.3,0.2,0.5,0.3,0.7c0.1,0.2,0.3,0.4,0.6,0.5c0.3,0.2,0.5,0.2,0.8,0.2h0.1c0.1,0,0.3,0,0.6-0.1c0.3-0.1,0.6-0.2,0.9-0.3
				c0.2-0.1,0.5-0.2,0.7-0.4c0.3-0.2,0.4-0.3,0.5-0.3l0.1-0.1l-0.1,0.2c0,0.1-0.1,0.1-0.1,0.3c0,0.1-0.1,0.3-0.1,0.4
				c0,0.2-0.1,0.4-0.1,0.6l0,0.1l-0.1,0c-0.1,0-0.3,0-0.6,0.1c-0.1,0-0.2,0-0.3,0c-0.1,0-0.2,0-0.4,0l-0.4,0c-0.1,0-0.2,0-0.4,0
				c-0.1,0-0.3,0-0.4,0c-0.1,0-0.1,0-0.2,0c0,0-0.1,0-0.1,0h-0.6c-0.2,0-0.5,0-0.7-0.1c-0.3-0.1-0.5-0.2-0.7-0.4
				c-0.2-0.2-0.4-0.4-0.5-0.7c-0.1-0.1-0.1-0.3-0.2-0.5c0-0.2-0.1-0.4-0.1-0.5c0-0.2,0-0.3,0-0.3v-0.3c0-0.3,0.1-0.6,0.2-0.9
				c0.1-0.4,0.3-0.7,0.6-1c0.3-0.3,0.6-0.5,1-0.6c0.4-0.1,0.8-0.2,1.1-0.2h0.2c0,0,0.1,0,0.2,0c0.1,0,0.1,0,0.2,0c0,0,0.1,0,0.1,0
				c0.1,0,0.1,0,0.2,0h0.7c0,0,0.2,0,0.4,0.1c0.2,0.1,0.4,0.1,0.6,0.2c0.3,0.2,0.6,0.3,0.7,0.5l0.2,0.2L44.3,83.5z"/>
			<path class="st1" d="M41.9,82.3l-0.2,0l-0.1,0c0,0-0.2,0-0.2,0l-0.1,0h-0.2c-0.4,0-0.7,0.1-1.2,0.2c-0.4,0.1-0.8,0.4-1.1,0.7
				c-0.3,0.3-0.5,0.6-0.6,1c-0.2,0.4-0.2,0.7-0.2,1v0.3l0,0.3l0.1,0.6l0.2,0.6c0.1,0.3,0.3,0.5,0.6,0.7c0.2,0.2,0.5,0.4,0.8,0.5
				c0.3,0.1,0.5,0.2,0.8,0.2H41c0,0,0.2,0,0.2,0l0.2,0l0.7,0l0.4,0l0.4,0l0.3,0l0.6-0.1l0.3,0L44,88l0.1-0.6c0,0,0.1-0.4,0.1-0.4
				l0.1-0.2l0.3-0.8L44,86.4c0,0-0.5,0.3-0.5,0.3l-0.7,0.4L42,87.4l-0.6,0.1h-0.1c-0.2,0-0.4-0.1-0.7-0.2c-0.3-0.1-0.4-0.3-0.6-0.5
				c0,0-0.3-0.6-0.3-0.6l-0.1-0.6v-0.1c0,0,0.1-0.7,0.1-0.7c0.1-0.3,0.2-0.5,0.3-0.7c0.2-0.2,0.4-0.4,0.6-0.6
				c0.3-0.2,0.5-0.2,0.6-0.2h0.3l0.3,0.1l0.4,0.1c0.3,0.1,0.5,0.3,0.6,0.4l0.3,0.3l0.3-0.1c0,0,0,0,0,0c0,0,0.2-0.1,0.2-0.1l0.2-0.1
				c0,0,0.3-0.1,0.3-0.1l0.3-0.1l0.4-0.2l-0.4-0.4c-0.2-0.2-0.4-0.3-0.8-0.5c0,0-0.6-0.2-0.6-0.2l-0.4-0.1H41.9z M41.8,82.7l0.1,0
				h0.7l0,0c0,0,0.3,0.1,0.3,0.1l0.5,0.2c0.3,0.1,0.5,0.3,0.6,0.4c-0.1,0-0.2,0.1-0.2,0.1l-0.3,0.1l-0.3,0.1c0,0-0.2,0.1-0.2,0.1
				c0,0-0.1-0.1-0.1-0.1c-0.2-0.2-0.4-0.4-0.7-0.5L41.9,83l-0.4-0.1h-0.3c-0.2,0-0.5,0.1-0.8,0.3c-0.3,0.2-0.5,0.4-0.7,0.7
				c-0.2,0.2-0.3,0.5-0.4,0.8l-0.1,0.8v0.1c0,0,0.1,0.7,0.1,0.7c0,0,0.4,0.7,0.4,0.7c0.2,0.2,0.4,0.4,0.7,0.6
				c0.3,0.2,0.6,0.3,0.9,0.3h0.1l0.7-0.1l0.9-0.3l0.8-0.4c0,0,0.1-0.1,0.2-0.1c0,0.1-0.1,0.4-0.1,0.4c0,0-0.1,0.5-0.1,0.6
				c0,0-0.6,0.1-0.6,0.1l-0.3,0l-0.3,0l-0.4,0c0,0-0.7,0-0.7,0l-0.2,0L41,88h-0.6c-0.2,0-0.4,0-0.7-0.1c-0.2-0.1-0.4-0.2-0.6-0.4
				c-0.2-0.2-0.4-0.4-0.5-0.6c0,0-0.2-0.5-0.2-0.5l-0.1-0.5c0,0,0-0.3,0-0.3v-0.3c0-0.2,0.1-0.5,0.2-0.9c0.1-0.3,0.3-0.6,0.6-0.9
				c0.3-0.3,0.6-0.5,1-0.6c0.4-0.1,0.8-0.2,1.1-0.2h0.2l0.2,0l0.2,0C41.7,82.7,41.8,82.7,41.8,82.7z M42.4,83.2L42.4,83.2L42.4,83.2
				L42.4,83.2z M43.6,83.5L43.6,83.5L43.6,83.5z M44.4,83.6L44.4,83.6L44.4,83.6L44.4,83.6z"/>
		</g>
		<g>
			<path class="st1" d="M46.6,87.8c-0.1,0.1-0.1,0.2-0.2,0.4L45,87.8c0.1-0.1,0.2-0.2,0.3-0.4c0.1-0.1,0.1-0.2,0.2-0.2
				c0.1-0.1,0.1-0.1,0.2-0.2l1.2,0.3C46.8,87.5,46.7,87.7,46.6,87.8z"/>
			<path class="st1" d="M45.5,86.9l-0.4,0.4c0,0-0.5,0.6-0.5,0.6L45,88l1.5,0.4l0.3-0.5l0.4-0.7l-0.3-0.1L45.5,86.9L45.5,86.9z
				 M45.5,87.6c0,0,0.2-0.3,0.3-0.3c0.1,0,0.5,0.2,0.8,0.2c-0.1,0.1-0.1,0.2-0.1,0.2c0,0-0.1,0.1-0.2,0.3c-0.2-0.1-0.6-0.2-0.9-0.3
				C45.4,87.6,45.5,87.6,45.5,87.6z M46.4,87.7L46.4,87.7L46.4,87.7z"/>
		</g>
		<g>
			<path class="st1" d="M49,87.3l0.1,0.1l0.2,0c0.1,0,0.3,0,0.5,0c0.2,0,0.4,0,0.6-0.1c0.1,0,0.2,0,0.3,0c0.1,0,0.2,0,0.2-0.1
				c0.1,0,0.2,0,0.4-0.1l0.1,0l0,0.1c0,0.1-0.1,0.1-0.1,0.2c-0.1,0.1-0.1,0.2-0.1,0.3c0,0.1-0.1,0.2-0.1,0.3l0,0.1l-1,0
				c0,0-0.1,0-0.4,0c-0.2,0-0.4,0-0.6,0c-0.1,0-0.3,0-0.5,0c-0.2,0-0.4,0-0.5,0h-0.4l0-0.2c0,0,0-0.1,0-0.4c0-0.3,0-0.4,0-0.5
				c0-0.2,0-0.3,0-0.4c0-0.1,0-0.2,0-0.2c0-0.1,0-0.2,0-0.3c0-0.2,0-0.4,0-0.5l0-1c0-0.5,0-0.8-0.1-1.1c0-0.1,0-0.2,0-0.3
				c0-0.1,0-0.2,0-0.3c0-0.1,0-0.2-0.1-0.3l-0.1-0.2l0.2,0c0.1,0,0.1,0,0.2,0c0.1,0,0.1,0,0.2,0c0.1,0,0.1,0,0.2,0
				c0.3,0,0.5,0,0.6,0l0.2,0l0,0.1c0,0.1,0,0.2-0.1,0.3c0,0.1-0.1,0.2-0.1,0.3c0,0.2,0,0.5,0,0.8l0,1.6c0,0.1,0,0.2,0,0.4
				c0,0.2,0,0.3,0,0.4c0,0.1,0,0.2,0,0.3c0,0.1,0,0.2,0,0.2L49,87.3z"/>
			<path class="st1" d="M49,82.3l-0.2,0c0,0-0.6,0-0.6,0l-0.2,0c0,0-0.4,0-0.4,0l-0.2,0l-0.3,0l0.2,0.4c0,0,0.1,0.3,0.1,0.3l0,0.3
				c0,0,0,0.2,0,0.2l0,0.1c0,0,0.1,1.1,0.1,1.1l0,1l0,0.5l0,0.3l0,0.6c0,0,0,0.5,0,0.5l0,0.4l0,0.4H48l1-0.1l0.6,0l0.3,0l1.2,0
				l0.1-0.3c0,0,0.1-0.3,0.1-0.3c0,0,0.1-0.2,0.1-0.2c0,0,0.1-0.3,0.1-0.3l0.2-0.5L51.1,87c0,0-0.4,0.1-0.4,0.1c0,0-0.2,0-0.2,0
				l-0.2,0l-0.6,0.1c0,0-0.5,0-0.5,0s0,0-0.1,0c0,0,0,0,0,0c0-0.1,0-0.3,0-0.3c0,0,0-0.2,0-0.2c0,0,0-0.3,0-0.3h0c0,0,0-0.4,0-0.4
				l0-0.4l0-1.6c0,0,0-0.8,0-0.8l0.1-0.3l0.1-0.3l0.1-0.4L49,82.3z M47.8,87.8l0-0.2l0-0.5l0-0.6l0-0.3l0-0.5l0-1
				c0,0-0.1-1.1-0.1-1.1c0,0,0-0.3,0-0.3c0,0,0-0.3,0-0.3s0-0.1-0.1-0.2c0,0,0.3,0,0.3,0l0.2,0c0,0,0.5,0,0.6,0c0,0.1,0,0.2,0,0.2
				c0,0-0.1,0.3-0.1,0.3c0,0,0,0.8,0,0.8l0,1.6l0,0.4c0,0,0,0.2,0,0.2l0,0.2c0,0,0,0.3,0,0.3c0,0,0,0.3,0,0.3l0,0.4l0.2,0.2l0.2,0
				c0,0,0.5,0,0.5,0l0.6-0.1l0.3,0l0.2-0.1c0,0,0.1,0,0.1,0c0,0.1-0.1,0.2-0.1,0.2c0,0-0.1,0.3-0.1,0.3c-0.2,0-0.9,0-0.9,0s0,0,0,0
				c-0.1,0-0.2,0-0.4,0l-0.6,0L48,88c0,0-0.1,0-0.2,0C47.8,87.9,47.8,87.9,47.8,87.8z"/>
		</g>
		<g>
			<path class="st1" d="M53.4,87.8c-0.1,0.1-0.1,0.2-0.2,0.4l-1.3-0.4c0.1-0.1,0.2-0.2,0.3-0.4c0.1-0.1,0.1-0.2,0.2-0.2
				c0.1-0.1,0.1-0.1,0.2-0.2l1.2,0.3C53.6,87.5,53.5,87.7,53.4,87.8z"/>
			<path class="st1" d="M52.4,86.9l-0.1,0.2c0,0-0.2,0.2-0.2,0.2c0,0-0.5,0.6-0.5,0.6l1.8,0.5l0.3-0.5l0.4-0.7l-0.3-0.1L52.4,86.9
				L52.4,86.9z M52.6,87.3c0.1,0,0.5,0.2,0.8,0.2c-0.1,0.1-0.1,0.2-0.1,0.2c0,0-0.1,0.2-0.2,0.3c-0.2-0.1-0.6-0.2-0.9-0.3
				c0,0,0.1-0.2,0.1-0.2L52.6,87.3C52.5,87.3,52.5,87.3,52.6,87.3z M53.2,87.7L53.2,87.7L53.2,87.7z"/>
		</g>
		<g>
			<path class="st1" d="M60,82.8c0.1,0.1,0.2,0.1,0.2,0.2c0.1,0.1,0.2,0.2,0.2,0.3c0.1,0.1,0.1,0.2,0.1,0.2l0,0.2l-0.2,0
				c-0.3,0-0.5,0-0.7,0.1c-0.2,0-0.4,0.1-0.5,0.1l-0.2,0L59,83.7c-0.1-0.3-0.3-0.4-0.6-0.5c-0.1,0-0.3-0.1-0.5-0.1
				c-0.2,0-0.3,0-0.3,0h-0.2c-0.1,0-0.2,0-0.3,0.1c-0.1,0-0.3,0.1-0.4,0.2c-0.1,0.1-0.3,0.2-0.4,0.2c-0.1,0.1-0.2,0.2-0.3,0.3
				c-0.2,0.2-0.3,0.5-0.4,0.8c-0.1,0.3-0.1,0.6-0.1,0.8v0.2c0,0.1,0,0.2,0.1,0.4c0,0.2,0.1,0.3,0.2,0.5c0.1,0.2,0.2,0.3,0.3,0.4
				c0.2,0.2,0.4,0.4,0.7,0.5c0.3,0.2,0.5,0.2,0.6,0.2h0.1c0,0,0.1,0,0.3-0.1c0.1,0,0.3-0.1,0.4-0.1c0.2-0.1,0.3-0.1,0.4-0.2
				c0.3-0.2,0.4-0.6,0.4-1v-0.5l-0.1-0.5l0.3,0c0.1,0,0.2,0,0.5,0c0.1,0,0.2,0,0.3,0c0.1,0,0.2,0,0.2,0l0.2,0l0,0.2
				c0,0.1,0,0.1,0,0.2c0,0.1,0,0.1,0,0.2c0,0.1,0,0.2-0.1,0.2c0,0.3-0.1,0.5-0.1,0.6V87c0,0.1,0,0.3,0.1,0.5c0,0.1,0.1,0.2,0.1,0.3
				c0.1,0.1,0.1,0.2,0.1,0.2l0.1,0.1l-0.2,0c-0.1,0-0.2,0-0.2,0c-0.1,0-0.2,0-0.3,0c-0.2,0-0.4,0-0.5,0h-0.6c-0.1,0-0.1,0-0.1,0
				c0,0-0.1,0-0.1,0c-0.1,0-0.1,0-0.2,0c0,0-0.1,0-0.2,0c-0.1,0-0.1,0-0.2,0c0,0-0.1,0-0.1,0h-0.3c0,0-0.1,0-0.1,0c0,0-0.1,0-0.1,0
				c0,0,0,0-0.1,0c0,0,0,0-0.1,0c-0.1,0-0.2,0-0.3,0c-0.1,0-0.2,0-0.2,0h-0.1c-0.3,0-0.6-0.1-0.8-0.1c-0.2-0.1-0.4-0.1-0.6-0.3
				c-0.2-0.1-0.3-0.2-0.4-0.3c-0.1-0.1-0.2-0.3-0.3-0.5c-0.1-0.2-0.2-0.5-0.3-0.7c0-0.3-0.1-0.5-0.1-0.6v-0.3c0-0.2,0-0.4,0.1-0.6
				c0.1-0.2,0.1-0.5,0.3-0.7c0.1-0.2,0.3-0.4,0.4-0.6c0.2-0.2,0.4-0.3,0.7-0.5c0.3-0.1,0.5-0.2,0.8-0.3c0.3-0.1,0.5-0.1,0.8-0.1h0.2
				c0,0,0.1,0,0.1,0c0,0,0,0,0.1,0c0,0,0,0,0.1,0c0,0,0,0,0.1,0c0.3,0,0.4-0.1,0.5-0.1h0.7c0.1,0,0.3,0,0.6,0.1
				C59.7,82.6,59.9,82.7,60,82.8z"/>
			<path class="st1" d="M58.2,82.3l-0.6,0.1l-0.1,0c0,0-0.1,0-0.1,0l-0.2,0l-0.8,0.1l-0.8,0.3c-0.3,0.1-0.5,0.3-0.7,0.5L54.4,84
				c0,0-0.3,0.7-0.3,0.7c0,0-0.1,0.6-0.1,0.6v0.3l0.1,0.6c0.1,0.3,0.1,0.6,0.3,0.8l0.3,0.5l0.4,0.4l0.6,0.3c0,0,0.8,0.1,0.8,0.1h0.1
				l0.1,0l0.1,0c0,0,0.3,0,0.3,0l0.1,0c0.1,0,0.1,0,0.1,0l0.1,0l0.3,0l0.1,0c0,0,0.3-0.1,0.3-0.1c0,0,0.1,0,0.1,0c0,0,0.2,0,0.2,0
				c0,0,0.1,0,0.1,0h0.6l0.5,0c0,0,0.5,0,0.5,0l0.7,0.1l-0.5-0.5c0,0-0.1-0.2-0.1-0.2c0,0-0.1-0.3-0.1-0.3c0,0-0.1-0.5-0.1-0.5v-0.3
				c0,0,0.1-0.6,0.1-0.6c0,0,0-0.2,0-0.2l0.1-0.2c0,0,0-0.2,0-0.2l0.1-0.4c0,0-0.4,0.1-0.4,0.1c0,0-0.2,0-0.2,0l-0.3,0
				c0,0-0.5,0-0.5,0l-0.6,0l0.1,0.7l0,0.4c0,0.4-0.1,0.7-0.4,0.9c0,0-0.3,0.2-0.3,0.2l-0.4,0.1l-0.3,0.1l-0.1,0
				c-0.1,0-0.2,0-0.6-0.2c-0.3-0.1-0.5-0.3-0.6-0.5l-0.2-0.4c0,0-0.2-0.4-0.2-0.4l-0.1-0.3v-0.2l0.1-0.7c0.1-0.3,0.2-0.5,0.4-0.7
				l0.3-0.3c0,0,0.4-0.2,0.4-0.2c0,0,0.4-0.2,0.4-0.2l0.2-0.1h0.2l0.3,0l0.5,0.1c0.2,0,0.4,0.2,0.5,0.4l0.2,0.4l0.3-0.1l0.5-0.1
				l0.6-0.1l0.4,0l-0.1-0.4c0,0-0.1-0.3-0.1-0.3l-0.2-0.3c0,0-0.3-0.3-0.3-0.3c-0.2-0.1-0.4-0.2-0.7-0.3l-0.6-0.1H58.2z M57.6,82.8
				C57.6,82.8,57.7,82.7,57.6,82.8c0.1,0,0.6-0.1,0.6-0.1h0.7l0.5,0.1c0.2,0.1,0.4,0.1,0.5,0.2l0.2,0.2l0.2,0.3c0,0,0,0,0,0.1
				c-0.2,0-0.6,0-0.6,0s-0.5,0.1-0.5,0.1c0,0,0-0.1,0-0.1c-0.1-0.3-0.4-0.5-0.8-0.6L58,82.9l-0.4,0h-0.2L57,83l-0.4,0.2
				c0,0-0.4,0.3-0.4,0.3l-0.3,0.3c-0.2,0.2-0.4,0.5-0.5,0.9c0,0-0.1,0.8-0.1,0.8v0.2l0.1,0.4l0.2,0.5l0.3,0.5
				c0.2,0.2,0.4,0.4,0.7,0.6c0.3,0.2,0.6,0.2,0.7,0.2h0.1c0,0,0.3-0.1,0.3-0.1l0.5-0.1l0.4-0.2c0.3-0.3,0.5-0.7,0.5-1.2v-0.5
				c0,0,0-0.1,0-0.3c0,0,0.1,0,0.1,0c0,0,0.5,0,0.5,0l0.3,0c0,0,0.1,0,0.1,0c0,0,0,0.1,0,0.1c0,0,0,0.2,0,0.2L60,86
				c0,0-0.1,0.6-0.1,0.6V87l0.1,0.6c0,0,0.1,0.3,0.2,0.3l0,0l0,0l-0.3,0l0,0l-0.5,0h-0.6l-0.2,0c0,0-0.2,0-0.2,0
				c0,0-0.3,0.1-0.3,0.1L58,88l-0.3,0l0,0c0,0-0.2,0-0.2,0l-0.1,0l-0.4,0c0,0-0.1,0-0.1,0l-0.2,0l0,0c0,0-0.7-0.1-0.7-0.1l-0.5-0.2
				L55,87.3l-0.3-0.4c-0.1-0.2-0.2-0.4-0.2-0.7l-0.1-0.6v-0.3l0.1-0.5l0.3-0.7l0.4-0.6c0.2-0.2,0.4-0.3,0.6-0.4l0.7-0.3l0.7-0.1h0.2
				L57.6,82.8L57.6,82.8z M60.1,82.7L60.1,82.7L60.1,82.7L60.1,82.7z M57.5,82.8L57.5,82.8L57.5,82.8L57.5,82.8z M54.4,87.1
				L54.4,87.1L54.4,87.1z M60.1,87.6L60.1,87.6L60.1,87.6z M57.5,88.4L57.5,88.4L57.5,88.4z"/>
		</g>
		<g>
			<path class="st1" d="M62.7,87.8c-0.1,0.1-0.1,0.2-0.2,0.4l-1.3-0.4c0.1-0.1,0.2-0.2,0.3-0.4c0.1-0.1,0.1-0.2,0.2-0.2
				c0.1-0.1,0.1-0.1,0.2-0.2l1.2,0.3C62.9,87.5,62.8,87.7,62.7,87.8z"/>
			<path class="st1" d="M61.7,86.9l-0.1,0.2c0,0-0.2,0.2-0.2,0.2c0,0-0.5,0.6-0.5,0.6l1.8,0.5l0.3-0.5l0.4-0.7l-0.3-0.1L61.7,86.9
				L61.7,86.9z M61.9,87.3c0.1,0,0.5,0.2,0.8,0.2c-0.1,0.1-0.1,0.2-0.1,0.2c0,0-0.1,0.2-0.2,0.3c-0.2-0.1-0.6-0.2-0.9-0.3
				c0,0,0.1-0.2,0.1-0.2L61.9,87.3C61.8,87.3,61.9,87.3,61.9,87.3z M62.6,87.7L62.6,87.7L62.6,87.7z"/>
		</g>
	</g>
	<g>
		<path class="st1" d="M23.2,64.8c-0.2,0.2-0.3,0.3-0.5,0.4c-0.4,0.1-1.2,0-1.5-0.1l-0.3-0.1c-0.2-0.1-0.5-0.2-0.8-0.2
			c-0.5,0-0.6,0.2-0.7,0.4c0,0.1-0.1,0.3-0.2,0.4c-0.4,0.4-0.7,0.1-1-0.1c-0.3-0.2-0.6-0.5-1-0.3c0,0-0.4,0.3-0.4,0.3
			c-0.1,0.2-0.2,0.3-0.5,0.3l-0.4-0.1c-0.3-0.1-0.6-0.2-0.8,0.1l0.1,0.1c0.2-0.2,0.4-0.1,0.7,0l0.4,0.1c0.3,0,0.5-0.2,0.6-0.3
			l0.4-0.3c0.3-0.2,0.6,0.1,0.9,0.3c0.3,0.3,0.7,0.6,1.2,0.1c0.2-0.2,0.2-0.3,0.3-0.5c0.1-0.2,0.1-0.3,0.6-0.3
			c0.3,0,0.5,0.1,0.8,0.2l0.3,0.1c0.4,0.1,1.2,0.3,1.6,0.1C22.9,65.2,23.1,65,23.2,64.8l0.4-0.2l-0.1-0.1L23.2,64.8z"/>
		<path class="st1" d="M23.5,64.4l-0.4,0.3l0,0c-0.1,0.1-0.3,0.3-0.5,0.4c-0.4,0.1-1.1,0-1.5-0.1l-0.3-0.1c-0.2-0.1-0.5-0.2-0.9-0.2
			c-0.6,0-0.7,0.2-0.8,0.5c0,0.1-0.1,0.2-0.2,0.4c-0.3,0.3-0.5,0.1-0.9-0.2c-0.3-0.2-0.6-0.5-1-0.3c0,0,0,0,0,0c0,0,0,0-0.1,0
			c0,0,0,0,0,0c-0.1,0-0.2,0.1-0.4,0.3c-0.1,0.2-0.2,0.3-0.4,0.3l-0.4-0.1c-0.3-0.1-0.7-0.2-0.9,0.1l-0.1,0.1l0.3,0.2l0.1-0.1
			c0.1-0.1,0.2-0.1,0.5,0l0.4,0.1c0.4,0,0.6-0.2,0.7-0.4l0.3-0.3c0.2-0.1,0.4,0,0.7,0.3c0.3,0.3,0.8,0.6,1.3,0.1
			c0.2-0.2,0.3-0.4,0.3-0.5c0-0.2,0.1-0.2,0.4-0.2c0.3,0,0.5,0.1,0.7,0.2l0.3,0.1c0.1,0,1.1,0.4,1.7,0.2c0.3-0.1,0.4-0.3,0.6-0.5
			l0.4-0.4l-0.2-0.3L23.5,64.4z"/>
	</g>
	<g>
		<path class="st1" d="M23.2,56.2c-0.2,0.2-0.3,0.3-0.5,0.4c-0.4,0.1-1.2,0-1.5-0.1l-0.3-0.1c-0.2-0.1-0.5-0.2-0.8-0.2
			c-0.5,0-0.6,0.2-0.7,0.4c0,0.1-0.1,0.3-0.2,0.4c-0.4,0.4-0.7,0.1-1-0.1c-0.3-0.2-0.6-0.5-1-0.3c0,0-0.4,0.3-0.4,0.3
			c-0.1,0.2-0.2,0.3-0.5,0.3L15.8,57c-0.3-0.1-0.6-0.2-0.8,0.1l0.1,0.1c0.2-0.2,0.4-0.1,0.7,0l0.4,0.1c0.3,0,0.5-0.2,0.6-0.3
			l0.4-0.3c0.3-0.2,0.6,0.1,0.9,0.3c0.3,0.3,0.7,0.6,1.2,0.1c0.2-0.2,0.2-0.3,0.3-0.5c0.1-0.2,0.1-0.3,0.6-0.3
			c0.3,0,0.5,0.1,0.8,0.2l0.3,0.1c0.4,0.1,1.2,0.3,1.6,0.1C22.9,56.6,23.1,56.4,23.2,56.2l0.4-0.2l-0.1-0.1L23.2,56.2z"/>
		<path class="st1" d="M23.5,55.8l-0.4,0.3l0,0c-0.1,0.1-0.3,0.3-0.5,0.4c-0.4,0.1-1.1,0-1.5-0.1l-0.3-0.1c-0.2-0.1-0.5-0.2-0.9-0.2
			c-0.6,0-0.7,0.2-0.8,0.5c0,0.1-0.1,0.2-0.2,0.4c-0.3,0.3-0.5,0.1-0.9-0.1c-0.3-0.2-0.6-0.5-1-0.3c0,0,0,0,0,0c0,0,0,0-0.1,0
			c0,0,0,0,0,0c-0.1,0-0.2,0.1-0.4,0.3c-0.1,0.2-0.2,0.3-0.4,0.3l-0.4-0.1c-0.3-0.1-0.7-0.2-0.9,0.1L14.8,57l0.3,0.2l0.1-0.1
			c0.1-0.1,0.2-0.1,0.5,0l0.4,0.1c0.4,0,0.6-0.2,0.7-0.4l0.3-0.3c0.2-0.1,0.4,0,0.7,0.3c0.3,0.3,0.8,0.6,1.3,0.1
			c0.2-0.2,0.3-0.4,0.3-0.5c0-0.2,0.1-0.2,0.4-0.2c0.3,0,0.5,0.1,0.7,0.2l0.3,0.1c0.4,0.1,1.2,0.3,1.7,0.2c0.3-0.1,0.4-0.3,0.6-0.4
			l0.4-0.4l-0.2-0.3L23.5,55.8z"/>
	</g>
	<path class="st0" d="M18.1,75.4H82c0,0-2,9.2-32.2,21.2C49.9,96.5,21.3,85.8,18.1,75.4z"/>
	<g>
		<g>
			<path class="st1" d="M43.7,82.8c-0.1,0-0.2,0.1-0.3,0.1c-0.1,0-0.2,0.1-0.3,0.1c-0.1,0-0.2,0.1-0.3,0.1c-0.1,0.1-0.2,0.1-0.2,0.1
				l-0.1,0.1l-0.2-0.2c-0.2-0.2-0.4-0.3-0.7-0.5c-0.1-0.1-0.3-0.1-0.5-0.2c-0.2-0.1-0.3-0.1-0.4-0.1h-0.3c-0.2,0-0.4,0.1-0.7,0.3
				c-0.3,0.2-0.5,0.4-0.7,0.6c-0.2,0.2-0.3,0.5-0.4,0.8c-0.1,0.3-0.1,0.6-0.1,0.8v0.1c0,0.2,0.1,0.4,0.1,0.7
				c0.1,0.3,0.2,0.5,0.4,0.7c0.1,0.2,0.4,0.4,0.7,0.5c0.3,0.2,0.6,0.3,0.8,0.3h0.1c0.1,0,0.3,0,0.6-0.1c0.3-0.1,0.6-0.2,0.9-0.3
				c0.2-0.1,0.5-0.2,0.8-0.4c0.3-0.2,0.5-0.3,0.6-0.3l0.1-0.1l-0.1,0.2c0,0.1-0.1,0.2-0.1,0.3c0,0.1-0.1,0.3-0.1,0.4
				c0,0.2-0.1,0.4-0.1,0.6l0,0.1l-0.1,0c-0.2,0-0.4,0-0.6,0.1c-0.1,0-0.2,0-0.3,0c-0.1,0-0.3,0-0.4,0l-0.4,0c-0.1,0-0.2,0-0.4,0
				c-0.2,0-0.3,0-0.4,0c-0.1,0-0.1,0-0.2,0c0,0-0.1,0-0.2,0h-0.7c-0.3,0-0.5-0.1-0.8-0.2c-0.3-0.1-0.5-0.3-0.7-0.5
				c-0.2-0.2-0.4-0.4-0.6-0.7c-0.1-0.1-0.1-0.3-0.2-0.5c0-0.2-0.1-0.4-0.1-0.6c0-0.2,0-0.3,0-0.3v-0.3c0-0.3,0.1-0.6,0.2-1
				c0.1-0.4,0.4-0.7,0.6-1c0.3-0.3,0.7-0.5,1.1-0.7c0.4-0.1,0.8-0.2,1.2-0.2h0.2c0,0,0.1,0,0.2,0c0.1,0,0.1,0,0.2,0c0,0,0.1,0,0.1,0
				c0.1,0,0.1,0,0.2,0h0.8c0,0,0.2,0,0.4,0.1c0.2,0.1,0.4,0.1,0.6,0.2c0.3,0.2,0.6,0.3,0.8,0.5l0.2,0.2L43.7,82.8z"/>
			<path class="st1" d="M41.1,81.6l-0.2,0l-0.1,0c0,0-0.2,0-0.2,0l-0.1,0h-0.2c-0.4,0-0.8,0.1-1.3,0.2c-0.5,0.2-0.9,0.4-1.2,0.7
				c-0.3,0.3-0.5,0.7-0.7,1.1c-0.2,0.4-0.2,0.8-0.2,1.1v0.3l0,0.3l0.1,0.6c0,0,0.2,0.6,0.2,0.6c0.2,0.3,0.4,0.6,0.6,0.8
				c0.2,0.2,0.5,0.4,0.8,0.5c0.3,0.1,0.6,0.2,0.8,0.2h1l0.8,0l0.4,0l0.4,0l0.3,0c0,0,0.6-0.1,0.6-0.1l0.3,0l0.1-0.3
				c0,0,0.1-0.6,0.1-0.6l0.1-0.4c0,0,0.3-1,0.3-1L43.4,86c0,0-0.5,0.3-0.5,0.3l-0.8,0.4L41.2,87l-0.6,0.1h-0.1
				c-0.2,0-0.5-0.1-0.7-0.2c-0.3-0.2-0.5-0.3-0.6-0.5c0,0-0.3-0.7-0.3-0.7l-0.1-0.6V85c0,0,0.1-0.8,0.1-0.8c0.1-0.3,0.2-0.5,0.3-0.7
				c0.2-0.2,0.4-0.4,0.7-0.6c0.2-0.2,0.5-0.2,0.6-0.2h0.3l0.3,0.1l0.4,0.2c0.3,0.1,0.5,0.3,0.7,0.4l0.3,0.3l0.3-0.1
				c0,0,0.2-0.1,0.2-0.1c0,0,0.3-0.1,0.3-0.1c0,0,0.3-0.1,0.3-0.1l0.3-0.1h0l0.4-0.2l-0.4-0.4c-0.2-0.2-0.4-0.4-0.8-0.5
				c0,0-0.6-0.2-0.6-0.2l-0.4-0.1H41.1z M41.1,82h0.8l0,0c0,0,0.3,0.1,0.3,0.1l0.6,0.2c0.3,0.2,0.5,0.3,0.7,0.4
				c-0.1,0-0.2,0.1-0.2,0.1L43,82.9l-0.3,0.1c0,0-0.2,0.1-0.2,0.1c0,0-0.1-0.1-0.1-0.1c-0.2-0.2-0.5-0.4-0.8-0.5l-0.5-0.2l-0.4-0.1
				h-0.3c-0.2,0-0.5,0.1-0.8,0.3c-0.3,0.2-0.6,0.4-0.8,0.7c-0.2,0.2-0.3,0.5-0.4,0.9L38.3,85v0.1c0,0,0.2,0.7,0.2,0.7l0.4,0.8
				c0.2,0.2,0.4,0.4,0.7,0.6c0.3,0.2,0.6,0.3,0.9,0.3h0.1l0.7-0.2l0.9-0.3c0,0,0.8-0.4,0.8-0.4s0.1-0.1,0.2-0.1c0,0-0.1,0.4-0.1,0.4
				c0,0-0.1,0.6-0.1,0.6l-0.6,0.1c0,0-0.3,0-0.3,0l-0.4,0l-0.4,0l-0.8,0h-1c-0.2,0-0.5,0-0.7-0.1c-0.2-0.1-0.5-0.2-0.7-0.4
				c-0.2-0.2-0.4-0.4-0.5-0.7L37.4,86l-0.1-0.6l0-0.3v-0.3c0-0.2,0.1-0.6,0.2-0.9c0.1-0.4,0.3-0.7,0.6-0.9c0.3-0.3,0.6-0.5,1-0.6
				c0.4-0.1,0.8-0.2,1.1-0.2h0.2l0.2,0l0.2,0c0,0,0.1,0,0.1,0C41,82,41.1,82,41.1,82z M41.6,82.6L41.6,82.6
				C41.6,82.6,41.6,82.6,41.6,82.6S41.6,82.6,41.6,82.6z M43,82.9L43,82.9L43,82.9z M42.7,83.1L42.7,83.1L42.7,83.1z"/>
		</g>
		<g>
			<path class="st1" d="M46.1,87.4c-0.1,0.1-0.1,0.2-0.2,0.4l-1.4-0.4c0.1-0.1,0.2-0.3,0.3-0.4c0.1-0.1,0.1-0.2,0.2-0.2
				c0.1-0.1,0.1-0.1,0.2-0.2l1.3,0.4C46.3,87.1,46.2,87.3,46.1,87.4z"/>
			<path class="st1" d="M45,86.5l-0.4,0.4L44,87.6l0.3,0.1l1.6,0.4l0.3-0.5l0.5-0.7l-0.3-0.1L45,86.5L45,86.5z M44.9,87.2
				c0,0,0.2-0.3,0.3-0.3c0.2,0,0.6,0.2,0.9,0.3c-0.1,0.1-0.2,0.2-0.2,0.2c0,0-0.1,0.2-0.2,0.3c-0.2-0.1-0.7-0.2-1-0.3
				C44.8,87.3,44.9,87.2,44.9,87.2z M45.9,87.3L45.9,87.3L45.9,87.3z"/>
		</g>
		<g>
			<path class="st1" d="M48.6,86.9l0.1,0.1l0.2,0c0.1,0,0.3,0,0.5,0c0.3,0,0.5,0,0.6-0.1c0.1,0,0.2,0,0.3,0c0.1,0,0.2,0,0.2-0.1
				c0.1,0,0.2-0.1,0.4-0.1l0.2,0l0,0.1c0,0.1-0.1,0.1-0.1,0.2c-0.1,0.1-0.1,0.2-0.1,0.3c0,0.1-0.1,0.2-0.1,0.4l0,0.1l-1.1,0
				c0,0-0.1,0-0.4,0c-0.3,0-0.5,0-0.6,0c-0.1,0-0.3,0-0.5,0c-0.2,0-0.4,0-0.5,0h-0.4l0-0.2c0,0,0-0.1,0-0.4c0-0.3,0-0.5,0-0.5
				c0-0.2,0-0.3,0-0.4c0-0.1,0-0.2,0-0.2c0-0.1,0-0.2,0-0.3c0-0.2,0-0.4,0-0.5l0-1c0-0.5,0-0.9-0.1-1.2c0-0.1,0-0.3,0-0.4
				c0-0.1,0-0.2-0.1-0.3c0-0.1-0.1-0.2-0.1-0.3l-0.1-0.2l0.2,0c0.1,0,0.1,0,0.2,0c0.1,0,0.2,0,0.2,0c0.1,0,0.1,0,0.2,0
				c0.3,0,0.5,0,0.7,0l0.3-0.1l0,0.2c0,0.1,0,0.2-0.1,0.3c0,0.1-0.1,0.3-0.1,0.3c0,0.2,0,0.5,0,0.8l0,1.6c0,0.1,0,0.3,0,0.4
				c0,0.2,0,0.3,0,0.4c0,0.1,0,0.2,0,0.3c0,0.1,0,0.2,0,0.2L48.6,86.9z"/>
			<path class="st1" d="M48.6,81.7l-0.3,0c0,0-0.6,0-0.6,0l-0.2,0c0,0-0.4-0.1-0.4-0.1l-0.5,0l0.2,0.4c0,0,0.1,0.3,0.1,0.3l0,0.3
				l0,0.4c0,0,0.1,1.1,0.1,1.1l0,1c0,0,0,0.5,0,0.5l0,0.3l0,0.6c0,0,0,0.5,0,0.5l0,0.4l0,0.4h0.6l1-0.1l0.6,0l0.4,0l1.2,0l0.1-0.3
				c0,0,0.1-0.3,0.1-0.3c0,0,0.1-0.2,0.1-0.2c0,0,0.1-0.3,0.1-0.3l0.2-0.5l-0.5,0.1c0,0-0.4,0.1-0.4,0.1l-0.2,0.1l-0.3,0l-0.6,0.1
				l-0.5,0c0,0,0,0-0.1,0c0,0,0,0,0,0c0-0.1,0-0.3,0-0.3c0,0,0-0.2,0-0.2c0,0,0-0.3,0-0.3c0,0,0,0,0,0c0,0,0-0.4,0-0.4l0-0.4l0-1.6
				c0,0,0-0.8,0-0.8c0,0,0.1-0.3,0.1-0.3c0,0,0.1-0.4,0.1-0.4l0.1-0.4L48.6,81.7z M47.4,87.3c0,0,0-0.5,0-0.5c0,0,0-0.6,0-0.6l0-0.3
				l0-0.5l0-1c0,0-0.1-1.2-0.1-1.2c0,0,0-0.4,0-0.4l-0.1-0.3c0,0,0-0.1-0.1-0.2c0.1,0,0.3,0,0.3,0l0.2,0c0,0,0.6,0,0.7,0
				c0,0.1,0,0.2,0,0.2c0,0-0.1,0.4-0.1,0.4c0,0,0,0.9,0,0.9l0,1.6l0,0.4l0,0.4c0,0,0,0.3,0,0.3c0,0,0,0.3,0,0.3l0.1,0.4l0.2,0.2
				l0.2,0c0,0,0.6,0,0.6,0l0.7-0.1l0.3,0l0.3-0.1c0,0,0.1,0,0.2,0c0,0-0.1,0.3-0.1,0.3c0,0-0.1,0.3-0.1,0.4c-0.2,0-0.9,0-0.9,0
				s0,0,0,0c-0.1,0-0.2,0-0.4,0l-0.6,0l-1,0.1c0,0-0.1,0-0.2,0C47.4,87.6,47.4,87.4,47.4,87.3z"/>
		</g>
		<g>
			<path class="st1" d="M53.3,87.4c-0.1,0.1-0.1,0.2-0.2,0.4l-1.4-0.4c0.1-0.1,0.2-0.3,0.3-0.4c0.1-0.1,0.1-0.2,0.2-0.2
				c0.1-0.1,0.1-0.1,0.2-0.2l1.3,0.4C53.5,87.1,53.4,87.3,53.3,87.4z"/>
			<path class="st1" d="M52.2,86.5L52,86.7l-0.2,0.2l-0.5,0.7l0.3,0.1l1.6,0.4l0.3-0.5l0.5-0.7l-0.3-0.1L52.2,86.5L52.2,86.5z
				 M52.1,87.2c0,0,0.2-0.3,0.3-0.3c0.2,0,0.6,0.2,0.9,0.3c-0.1,0.1-0.2,0.2-0.2,0.2c0,0-0.1,0.2-0.2,0.3c-0.2-0.1-0.7-0.2-1-0.3
				C52,87.3,52.1,87.2,52.1,87.2z M53.1,87.3L53.1,87.3L53.1,87.3z"/>
		</g>
		<g>
			<path class="st1" d="M60.3,82.2c0.1,0.1,0.2,0.1,0.3,0.3c0.1,0.1,0.2,0.2,0.2,0.3c0.1,0.1,0.1,0.2,0.1,0.2l0,0.2l-0.2,0
				c-0.3,0-0.5,0-0.7,0.1c-0.2,0-0.4,0.1-0.5,0.1l-0.2,0l-0.1-0.3c-0.1-0.3-0.3-0.4-0.7-0.5c-0.1,0-0.3-0.1-0.5-0.1
				c-0.2,0-0.3,0-0.3,0h-0.2c-0.1,0-0.2,0-0.3,0.1c-0.1,0-0.3,0.1-0.4,0.2c-0.1,0.1-0.3,0.2-0.4,0.3c-0.1,0.1-0.2,0.2-0.3,0.3
				c-0.2,0.2-0.4,0.5-0.4,0.8c-0.1,0.3-0.1,0.6-0.1,0.8v0.3c0,0.1,0,0.2,0.1,0.4c0,0.2,0.1,0.3,0.2,0.5c0.1,0.2,0.2,0.3,0.3,0.4
				c0.2,0.2,0.4,0.4,0.7,0.5c0.3,0.2,0.5,0.2,0.7,0.2h0.2c0.1,0,0.1,0,0.3-0.1c0.1,0,0.3-0.1,0.5-0.1c0.2-0.1,0.3-0.1,0.4-0.2
				c0.3-0.2,0.5-0.6,0.5-1.1v-0.5l-0.1-0.5l0.3,0c0.1,0,0.3,0,0.5,0c0.1,0,0.2,0,0.3,0c0.1,0,0.2,0,0.2,0l0.2,0l0,0.2
				c0,0.1,0,0.1,0,0.2c0,0.1,0,0.1-0.1,0.2c0,0.1,0,0.2-0.1,0.3c0,0.3-0.1,0.6-0.1,0.6v0.3c0,0.1,0,0.3,0.1,0.6
				c0,0.1,0.1,0.2,0.2,0.3c0.1,0.1,0.1,0.2,0.1,0.2l0.1,0.1l-0.2,0c-0.1,0-0.2,0-0.3,0c-0.1,0-0.2,0-0.3,0c-0.3,0-0.4,0-0.5,0H59
				c-0.1,0-0.1,0-0.2,0c0,0-0.1,0-0.1,0c-0.1,0-0.1,0-0.2,0c0,0-0.1,0-0.2,0c-0.1,0-0.1,0-0.2,0c0,0-0.1,0-0.1,0h-0.3
				c0,0-0.1,0-0.1,0c0,0-0.1,0-0.1,0c0,0,0,0-0.1,0c0,0,0,0-0.1,0c-0.1,0-0.2,0-0.4,0c-0.1,0-0.2,0-0.2,0h-0.1
				c-0.3,0-0.6-0.1-0.9-0.1c-0.2-0.1-0.4-0.2-0.6-0.3c-0.2-0.1-0.3-0.2-0.4-0.4c-0.1-0.1-0.2-0.3-0.3-0.5c-0.1-0.2-0.2-0.5-0.3-0.8
				c-0.1-0.3-0.1-0.5-0.1-0.6v-0.3c0-0.2,0-0.4,0.1-0.6c0.1-0.2,0.2-0.5,0.3-0.7c0.1-0.3,0.3-0.5,0.5-0.7c0.2-0.2,0.4-0.4,0.7-0.5
				c0.3-0.1,0.5-0.2,0.8-0.3c0.3-0.1,0.5-0.1,0.8-0.1h0.2c0,0,0.1,0,0.1,0c0,0,0.1,0,0.1,0c0,0,0.1,0,0.1,0c0,0,0,0,0.1,0
				c0.3-0.1,0.5-0.1,0.6-0.1h0.7c0.1,0,0.3,0,0.6,0.1C59.9,81.9,60.1,82,60.3,82.2z"/>
			<path class="st1" d="M58.3,81.6l-0.6,0.1c0,0-0.1,0-0.1,0l-0.1,0c-0.1,0-0.1,0-0.1,0h-0.2l-0.8,0.1l-0.9,0.3
				c-0.3,0.1-0.5,0.3-0.7,0.5c-0.2,0.2-0.4,0.4-0.5,0.7L54,84.2l-0.1,0.7v0.3l0.1,0.7c0.1,0.3,0.2,0.6,0.3,0.8l0.4,0.5l0.5,0.4
				c0,0,0.6,0.3,0.6,0.3l0.9,0.2l0.2,0l0.2,0l0.1,0l0.3,0l0.1,0l0.1,0l0.1,0l0.3,0l0.1,0c0,0,0.4-0.1,0.4-0.1c0,0,0.3-0.1,0.3-0.1
				l0.1,0h0.7l0.5,0c0,0,0.6,0.1,0.6,0.1l0.8,0.1L61,87.5c0,0-0.1-0.2-0.1-0.2c0,0-0.1-0.3-0.1-0.3c0,0-0.1-0.5-0.1-0.5v-0.3
				c0,0,0.1-0.6,0.1-0.6c0,0,0.1-0.2,0.1-0.2l0.1-0.2l0-0.2l0.1-0.4c0,0-0.4,0.1-0.4,0.1c0,0-0.2,0-0.2,0c0,0-0.3,0-0.3,0
				c-0.1,0-0.5,0-0.5,0l-0.6,0l0.1,0.8l0,0.4c0,0.4-0.1,0.7-0.4,0.9c0,0-0.3,0.2-0.3,0.2L57.8,87l-0.3,0.1l-0.1,0
				c-0.1,0-0.2,0-0.6-0.2c-0.3-0.1-0.5-0.3-0.7-0.5c0,0-0.2-0.4-0.2-0.4l-0.2-0.5l-0.1-0.3v-0.3l0.1-0.8c0.1-0.3,0.2-0.5,0.4-0.7
				c0,0,0.3-0.3,0.3-0.3l0.4-0.2l0.4-0.2c0,0,0.3-0.1,0.3-0.1h0.2l0.3,0l0.5,0.1c0.3,0.1,0.4,0.2,0.5,0.4l0.2,0.4l0.3-0.1l0.5-0.1
				c0,0,0.7-0.1,0.7-0.1l0.4,0l-0.1-0.4c0,0-0.1-0.3-0.1-0.3l-0.2-0.3c0,0-0.3-0.3-0.3-0.3c-0.2-0.1-0.4-0.3-0.7-0.3l-0.6-0.1H58.3z
				 M57.8,82.1c0,0,0.6-0.1,0.6-0.1h0.7l0.5,0.1c0.2,0.1,0.4,0.1,0.6,0.3l0.2,0.2l0.2,0.3c0,0,0,0,0,0.1C60.5,83,60,83,60,83
				s-0.6,0.1-0.6,0.1c0,0,0-0.1,0-0.1c-0.1-0.3-0.4-0.5-0.8-0.6l0,0l-0.5-0.1l-0.4,0h-0.2l-0.4,0.1l-0.4,0.2l-0.4,0.3l-0.4,0.3
				c-0.2,0.3-0.4,0.6-0.5,0.9l-0.1,0.8v0.3l0.1,0.4l0.2,0.5l0.3,0.5c0.2,0.2,0.5,0.4,0.8,0.6c0.4,0.2,0.6,0.3,0.8,0.3h0.2
				c0,0,0.3-0.1,0.3-0.1l0.5-0.1l0.5-0.3c0.3-0.3,0.5-0.7,0.5-1.3v-0.5c0,0,0-0.2,0-0.3c0,0,0.1,0,0.1,0c0,0,0.5,0,0.5,0
				s0.4,0,0.5,0c0,0,0,0.1,0,0.1l-0.1,0.2c0,0-0.1,0.3-0.1,0.3c0,0-0.1,0.7-0.1,0.7v0.3l0.1,0.6c0,0,0.2,0.3,0.2,0.4
				c0,0-0.3,0-0.3,0l0,0l-0.5,0H59l-0.2,0l-0.3,0.1c0,0-0.4,0.1-0.4,0.1l-0.1,0h-0.3c0,0-0.2,0-0.2,0h-0.1l-0.4,0l-0.2,0l-0.1,0l0,0
				c0,0-0.8-0.1-0.8-0.1l-0.5-0.2L54.9,87c0,0-0.3-0.5-0.3-0.5c-0.1-0.2-0.2-0.4-0.2-0.7l-0.1-0.6v-0.3l0.1-0.6l0.3-0.7
				c0.1-0.2,0.3-0.4,0.4-0.6c0.2-0.2,0.4-0.3,0.6-0.5l0.8-0.3l0.8-0.1h0.2l0.1,0L57.8,82.1L57.8,82.1z M60.4,82L60.4,82L60.4,82
				L60.4,82z M57.7,82.1L57.7,82.1L57.7,82.1z M54.3,86.7L54.3,86.7L54.3,86.7z M58.8,87.5L58.8,87.5L58.8,87.5z"/>
		</g>
		<g>
			<path class="st1" d="M63.1,87.4c-0.1,0.1-0.1,0.2-0.2,0.4l-1.4-0.4c0.1-0.1,0.2-0.3,0.3-0.4c0.1-0.1,0.1-0.2,0.2-0.2
				c0.1-0.1,0.1-0.1,0.2-0.2l1.3,0.4C63.3,87.1,63.2,87.3,63.1,87.4z"/>
			<path class="st1" d="M62,86.5l-0.4,0.4l-0.5,0.7l0.3,0.1l1.6,0.4l0.3-0.5l0.5-0.7l-0.3-0.1L62,86.5L62,86.5z M62,87.2
				c0,0,0.2-0.3,0.3-0.3c0.2,0,0.6,0.2,0.9,0.3c-0.1,0.1-0.2,0.2-0.2,0.2c0,0-0.1,0.2-0.2,0.3c-0.2-0.1-0.7-0.2-1-0.3
				C61.9,87.3,62,87.2,62,87.2z M63,87.3L63,87.3L63,87.3z"/>
		</g>
	</g>
	<rect x="54.6" y="24.2" class="st4" width="1.6" height="22.1"/>
	<path class="st0" d="M56.2,24.1h-1.7v22.5h1.9V24.1H56.2z M56,24.4c0,0.3,0,21.5,0,21.8c-0.2,0-1,0-1.3,0c0-0.3,0-21.5,0-21.8
		C55,24.4,55.8,24.4,56,24.4z"/>
	<rect x="59" y="31.4" class="st4" width="1.6" height="25.2"/>
	<path class="st0" d="M60.6,31.2h-1.7v25.6h1.9V31.2H60.6z M60.4,31.5c0,0.3,0,24.6,0,24.9c-0.2,0-1,0-1.3,0c0-0.3,0-24.6,0-24.9
		C59.4,31.5,60.2,31.5,60.4,31.5z"/>
	<rect x="63.6" y="39" class="st4" width="1.6" height="28"/>
	<path class="st0" d="M65.2,39h-1.8v28.2h1.9V39H65.2z M65,39.3c0,0.3,0,27.2,0,27.5c-0.2,0-1,0-1.3,0c0-0.3,0-27.2,0-27.5
		C64,39.3,64.8,39.3,65,39.3z"/>
	<g>
		<path class="st1" d="M42.9,21.5L66.4,25c0,0-3.1,3.7-5.1,3.4c-2-0.2-2.7-1.6-2.7-1.6s-1.8,1.6-4.4,1.1c-2.7-0.5-3.5-2.5-3.5-2.5
			s-2.9,1.2-5.3,0.2C42.9,24.7,42.9,21.5,42.9,21.5z"/>
		<path class="st0" d="M42.6,21.5c0,0.1,0,3.4,2.6,4.4c2.2,0.8,4.6,0.1,5.3-0.2c0.3,0.6,1.3,2.1,3.6,2.5c2.2,0.4,3.8-0.6,4.4-1
			c0.3,0.5,1.1,1.3,2.7,1.5c2.1,0.2,5.2-3.4,5.3-3.5l0.3-0.4l-24.3-3.6V21.5z M45.4,25.4c-1.8-0.7-2.2-2.7-2.2-3.5
			c0.7,0.1,21.6,3.2,22.6,3.3c-1,1.1-3.2,3.1-4.5,3c-1.8-0.2-2.4-1.4-2.4-1.4l-0.2-0.3l-0.3,0.2c0,0-1.7,1.5-4.2,1.1
			c-2.5-0.4-3.3-2.3-3.3-2.4L50.8,25l-0.3,0.1C50.5,25.2,47.7,26.3,45.4,25.4z"/>
	</g>
	<g>
		<path class="st1" d="M55.2,21.3c0,0,1.5,0.2,2.1-0.1c0.6-0.2,1.3-1,1.3-1s0.9,1,2,1c1.1,0,2.1,0,2.1,0s-2.3,2.3-4.1,2.3
			c-1.8,0-3.5-1.1-3.5-1.1L55.2,21.3z"/>
		<path class="st0" d="M58.4,20.1c-0.2,0.2-0.8,0.8-1.2,0.9c-0.3,0.1-1.4,0.1-1.9,0l-0.3,0l-0.1,1.6l0.1,0.1c0.1,0,1.9,1.2,3.7,1.2
			c1.9,0,4.2-2.3,4.3-2.4l0.5-0.5l-2.8,0c-1,0-1.8-0.9-1.8-0.9l-0.2-0.2L58.4,20.1z M57.3,21.5c0.4-0.2,0.9-0.6,1.2-0.9
			c0.4,0.3,1.1,0.9,2,0.9c0,0,0.7,0,1.3,0c-0.8,0.7-2.2,1.7-3.3,1.7c-1.4,0-2.8-0.7-3.2-1c0-0.2,0-0.4,0.1-0.7
			C55.9,21.7,56.9,21.7,57.3,21.5z"/>
	</g>
	<path class="st1" d="M47.8,29.4l23.5,3.4c0,0-3.1,3.7-5.1,3.4c-2-0.2-2.7-1.6-2.7-1.6s-1.8,1.6-4.4,1.2c-2.7-0.5-3.5-2.5-3.5-2.5
		s-2.9,1.1-5.3,0.2C47.8,32.6,47.8,29.4,47.8,29.4z"/>
	<path class="st0" d="M47.5,29.4c0,0.1,0,3.4,2.6,4.4c2.1,0.8,4.6,0.1,5.3-0.1c0.3,0.6,1.3,2.1,3.6,2.5c2.2,0.4,3.8-0.6,4.4-1
		c0.3,0.5,1.1,1.3,2.7,1.5c2.1,0.2,5.2-3.4,5.3-3.5l0.3-0.4l-24.3-3.6V29.4z M50.3,33.3c-1.8-0.7-2.2-2.7-2.2-3.5
		c0.7,0.1,21.6,3.2,22.6,3.3c-1,1.1-3.2,3.1-4.5,2.9c-1.8-0.2-2.4-1.4-2.4-1.4l-0.2-0.3l-0.3,0.3c0,0-1.7,1.5-4.2,1.1
		c-2.5-0.4-3.3-2.3-3.3-2.4l-0.1-0.3L55.4,33C55.4,33,52.6,34.1,50.3,33.3z"/>
	<g>
		<path class="st1" d="M60.1,29.2c0,0,1.5,0.2,2.1-0.1c0.5-0.2,1.3-1,1.3-1s0.9,1,2,1c1.1,0,2.1,0,2.1,0s-2.3,2.3-4.1,2.3
			c-1.8,0-3.5-1.1-3.5-1.1L60.1,29.2z"/>
		<path class="st0" d="M63.3,27.9c-0.2,0.2-0.8,0.8-1.2,0.9c-0.4,0.1-1.4,0.1-1.9,0l-0.3,0l-0.1,1.6l0.1,0.1c0.1,0,1.8,1.2,3.7,1.2
			c1.9,0,4.2-2.3,4.3-2.4l0.5-0.5l-2.8,0c-1,0-1.8-0.9-1.8-0.9l-0.2-0.2L63.3,27.9z M62.3,29.4c0.4-0.2,0.9-0.6,1.2-0.9
			c0.4,0.3,1.1,0.9,2,0.9c0,0,0.7,0,1.3,0c-0.8,0.6-2.2,1.7-3.3,1.7c-1.4,0-2.8-0.7-3.2-1c0-0.2,0-0.4,0.1-0.6
			C60.8,29.5,61.8,29.6,62.3,29.4z"/>
	</g>
	<g>
		<path class="st1" d="M52.8,36.9l23.5,3.4c0,0-3.1,3.7-5.1,3.4c-2-0.2-2.7-1.6-2.7-1.6s-1.8,1.6-4.4,1.1c-2.7-0.5-3.6-2.5-3.6-2.5
			s-2.9,1.1-5.3,0.2C52.8,40.2,52.8,36.9,52.8,36.9z"/>
		<path class="st0" d="M52.6,36.9c0,0.1,0,3.4,2.6,4.4c2.2,0.8,4.6,0.1,5.3-0.1c0.3,0.6,1.4,2.1,3.6,2.5c2.2,0.4,3.8-0.6,4.4-1
			c0.3,0.5,1.1,1.3,2.7,1.5c2.1,0.2,5.2-3.4,5.3-3.5l0.3-0.4l-24.3-3.6V36.9z M55.4,40.8c-1.8-0.7-2.2-2.7-2.2-3.5
			c0.7,0.1,21.6,3.2,22.6,3.3c-1,1.1-3.2,3.1-4.5,3c-1.8-0.2-2.4-1.4-2.4-1.4l-0.2-0.3L68.4,42c0,0-1.7,1.5-4.2,1.1
			c-2.5-0.4-3.3-2.3-3.3-2.4l-0.1-0.3l-0.3,0.1C60.5,40.6,57.7,41.7,55.4,40.8z"/>
	</g>
	<g>
		<path class="st1" d="M64.9,36.7c0,0,1.5,0.2,2.1-0.1c0.5-0.2,1.3-1,1.3-1s0.9,1,2,1c1.1,0,2.1,0,2.1,0S70.1,39,68.3,39
			c-1.8,0-3.5-1.1-3.5-1.1L64.9,36.7z"/>
		<path class="st0" d="M68.1,35.5c-0.2,0.2-0.8,0.8-1.3,0.9c-0.3,0.1-1.4,0.1-1.9,0l-0.3,0L64.5,38l0.1,0.1c0.1,0,1.8,1.2,3.7,1.2
			c1.9,0,4.2-2.3,4.3-2.4l0.5-0.5l-2.8,0c-1,0-1.8-0.9-1.8-0.9l-0.2-0.2L68.1,35.5z M67,36.9c0.4-0.2,0.9-0.6,1.2-0.9
			c0.4,0.3,1.1,0.9,2,0.9c0,0,0.7,0,1.3,0c-0.8,0.6-2.2,1.7-3.3,1.7c-1.4,0-2.8-0.7-3.2-1c0-0.2,0-0.4,0.1-0.6
			C65.6,37.1,66.6,37.1,67,36.9z"/>
	</g>
	<path class="st5" d="M44.6,41.2c0,0,7,5.9,17.2,5.3c0,0,9.3,0.9,15.6-2.8c0,0-0.3,6-8,7.5l-17.3,0.2C52.1,51.3,44.6,48.1,44.6,41.2
		z"/>
	<path class="st0" d="M44.3,41.2c0,7.1,7.6,10.4,7.6,10.5l0.1,0l17.4-0.3c7.8-1.5,8.2-7.7,8.2-7.7l0-0.5l-0.5,0.3
		c-6.1,3.6-15.3,2.8-15.4,2.8c-10,0.6-16.9-5.2-17-5.2l-0.5-0.4V41.2z M44.9,41.8c1.8,1.3,8.2,5.5,16.8,5c0,0,8.9,0.8,15.2-2.6
		c-0.3,1.4-1.6,5.5-7.7,6.7c0,0-17.1,0.2-17.2,0.2C51.6,50.8,45.3,47.8,44.9,41.8z"/>
	<g>
		<path class="st1" d="M84.8,58.5c-0.2,0.2-0.4,0.4-0.7,0.5c-0.6,0.2-1.5,0-2-0.2l-0.3-0.2c-0.3-0.1-0.6-0.3-1-0.3
			c-0.7,0-0.8,0.2-0.8,0.5c0,0.2-0.1,0.4-0.3,0.5c-0.5,0.5-0.9,0.2-1.3-0.2c-0.4-0.3-0.7-0.6-1.2-0.4c-0.2,0.1-0.4,0.3-0.5,0.4
			c-0.2,0.2-0.3,0.4-0.7,0.4l-0.5-0.1c-0.3-0.1-0.7-0.3-1,0.1l0.1,0.1c0.2-0.3,0.5-0.1,0.9,0l0.5,0.1c0.4,0,0.6-0.2,0.8-0.4
			c0.1-0.1,0.2-0.3,0.4-0.4c0.4-0.2,0.7,0.1,1.1,0.4c0.4,0.3,0.9,0.7,1.5,0.2c0.2-0.2,0.3-0.4,0.3-0.6c0.1-0.3,0.1-0.4,0.7-0.4
			c0.4,0,0.7,0.1,1,0.3l0.4,0.2c0.5,0.2,1.4,0.4,2,0.2C84.4,59,84.6,58.8,84.8,58.5l0.5-0.3l-0.1-0.1L84.8,58.5z"/>
		<path class="st1" d="M85.1,58l-0.5,0.4c-0.2,0.2-0.4,0.4-0.6,0.5c-0.5,0.2-1.4,0-1.9-0.2l-0.3-0.2c-0.3-0.2-0.6-0.3-1.1-0.3
			c-0.8,0-0.9,0.3-1,0.6c0,0.2-0.1,0.3-0.2,0.5c-0.4,0.4-0.7,0.2-1.1-0.2c-0.4-0.3-0.8-0.6-1.4-0.4c-0.3,0.1-0.4,0.3-0.5,0.4
			c-0.1,0.2-0.3,0.3-0.6,0.3l-0.5-0.1c-0.3-0.1-0.8-0.3-1.1,0.1l-0.1,0.1l0.3,0.2l0.1-0.1c0.1-0.2,0.4-0.1,0.7,0l0.6,0.1
			c0.5,0,0.7-0.2,0.9-0.4c0.1-0.1,0.2-0.3,0.4-0.3c0.3-0.2,0.6,0.1,1,0.3c0.4,0.3,1,0.8,1.6,0.2c0.3-0.2,0.3-0.5,0.4-0.7
			c0.1-0.2,0.1-0.3,0.6-0.3c0.4,0,0.6,0.1,0.9,0.3l0.4,0.2c0.5,0.2,1.5,0.4,2.1,0.2c0.3-0.1,0.5-0.3,0.7-0.6l0.5-0.5l-0.2-0.3
			L85.1,58z"/>
	</g>
	<g>
		<path class="st1" d="M83.7,50.6c-0.2,0.2-0.4,0.4-0.7,0.5c-0.6,0.2-1.5,0-2-0.2l-0.4-0.2c-0.3-0.1-0.6-0.3-1-0.3
			c-0.7,0-0.8,0.2-0.8,0.5c0,0.2-0.1,0.4-0.3,0.5c-0.5,0.5-0.9,0.2-1.3-0.2C76.9,51,76.5,50.7,76,51c-0.2,0.1-0.4,0.3-0.5,0.4
			c-0.2,0.2-0.3,0.4-0.7,0.4l-0.5-0.1c-0.3-0.1-0.7-0.3-1,0.1l0.1,0.1c0.2-0.3,0.5-0.1,0.9,0l0.5,0.1c0.4,0,0.6-0.2,0.8-0.4
			c0.1-0.1,0.2-0.3,0.4-0.4c0.4-0.2,0.7,0.1,1.1,0.4c0.4,0.3,0.9,0.7,1.5,0.2c0.2-0.2,0.3-0.4,0.3-0.6c0.1-0.3,0.1-0.4,0.7-0.4
			c0.4,0,0.7,0.1,1,0.3L81,51c0.5,0.2,1.4,0.4,2,0.2C83.3,51.1,83.5,50.9,83.7,50.6l0.5-0.3l-0.1-0.1L83.7,50.6z"/>
		<path class="st1" d="M84,50.1l-0.5,0.4c-0.2,0.2-0.4,0.4-0.6,0.5c-0.5,0.2-1.4,0-1.9-0.2l-0.3-0.2c-0.3-0.1-0.6-0.3-1.1-0.3
			c-0.8,0-0.9,0.3-1,0.6c0,0.2-0.1,0.3-0.2,0.5c-0.4,0.4-0.7,0.2-1.1-0.2c-0.4-0.3-0.8-0.6-1.4-0.4c-0.3,0.1-0.4,0.3-0.5,0.4
			c-0.2,0.2-0.3,0.3-0.6,0.3l-0.5-0.1c-0.3-0.1-0.8-0.3-1.1,0.1l-0.1,0.1l0.3,0.2l0.1-0.1c0.1-0.2,0.4-0.1,0.7,0l0.6,0.1
			c0.5,0,0.7-0.2,0.9-0.4c0.1-0.1,0.2-0.3,0.4-0.3c0.3-0.2,0.6,0.1,1,0.3c0.4,0.3,1,0.8,1.6,0.2c0.3-0.2,0.3-0.5,0.4-0.7
			c0.1-0.2,0.1-0.3,0.6-0.3c0.3,0,0.6,0.1,0.9,0.3l0.4,0.2c0.2,0.1,1.4,0.4,2.1,0.2c0.3-0.1,0.5-0.3,0.7-0.5l0.5-0.5L84.2,50
			L84,50.1z"/>
	</g>
	<g>
		<path class="st1" d="M80.5,69.8c-0.2,0.2-0.4,0.4-0.7,0.5c-0.6,0.2-1.5,0-2-0.2l-0.4-0.2c-0.3-0.1-0.6-0.3-1-0.3
			c-0.7,0-0.8,0.2-0.8,0.5c0,0.2-0.1,0.4-0.3,0.5c-0.5,0.5-0.9,0.2-1.3-0.2c-0.4-0.3-0.7-0.6-1.2-0.4c-0.2,0.1-0.4,0.3-0.5,0.4
			c-0.2,0.2-0.3,0.4-0.7,0.4l-0.5-0.1c-0.3-0.1-0.7-0.3-1,0.1l0.1,0.1c0.2-0.3,0.5-0.1,0.9,0l0.5,0.1c0.4,0,0.6-0.2,0.8-0.4
			c0.1-0.1,0.2-0.3,0.5-0.4c0.4-0.2,0.7,0.1,1.1,0.4c0.4,0.3,0.9,0.7,1.5,0.2c0.2-0.2,0.3-0.4,0.3-0.6c0.1-0.3,0.1-0.4,0.7-0.4
			c0.4,0,0.7,0.1,1,0.3l0.4,0.2c0.5,0.2,1.5,0.4,2,0.2C80.1,70.3,80.3,70,80.5,69.8l0.5-0.3l-0.1-0.1L80.5,69.8z"/>
		<path class="st1" d="M80.9,69.3l-0.5,0.4c-0.2,0.2-0.4,0.4-0.6,0.5c-0.5,0.2-1.5,0-1.9-0.2l-0.3-0.2c-0.3-0.2-0.6-0.3-1.1-0.3
			c-0.8,0-0.9,0.3-1,0.6c0,0.2-0.1,0.3-0.2,0.5c-0.4,0.4-0.7,0.2-1.1-0.2c-0.4-0.3-0.8-0.6-1.4-0.4c-0.3,0.1-0.4,0.3-0.5,0.4
			c-0.2,0.2-0.3,0.3-0.6,0.3l-0.5-0.1c-0.3-0.1-0.8-0.3-1.1,0.1L70,70.8l0.3,0.2l0.1-0.1c0.1-0.2,0.4-0.1,0.7,0l0.6,0.1
			c0.5,0,0.7-0.2,0.9-0.4c0.1-0.1,0.2-0.3,0.4-0.3c0.3-0.2,0.6,0,1,0.3c0.4,0.3,1,0.8,1.6,0.2c0.3-0.2,0.3-0.5,0.4-0.7
			c0.1-0.2,0.1-0.3,0.6-0.3c0.3,0,0.6,0.1,0.9,0.3l0.4,0.2c0.2,0.1,1.4,0.4,2.1,0.2c0.3-0.1,0.5-0.3,0.7-0.5l0.5-0.5L81,69.2
			L80.9,69.3z"/>
	</g>
	<g>
		<path class="st1" d="M60.4,69.8c-0.2,0.2-0.4,0.4-0.7,0.5c-0.6,0.2-1.5,0-2-0.2l-0.3-0.2c-0.3-0.1-0.6-0.3-1-0.3
			c-0.7,0-0.8,0.2-0.8,0.5c0,0.2-0.1,0.4-0.3,0.5c-0.5,0.5-0.9,0.2-1.3-0.2c-0.4-0.3-0.7-0.6-1.2-0.4c-0.2,0.1-0.4,0.3-0.5,0.4
			c-0.2,0.2-0.3,0.4-0.7,0.4l-0.5-0.1c-0.3-0.1-0.7-0.3-1,0.1l0.1,0.1c0.2-0.3,0.5-0.1,0.9,0l0.5,0.1c0.4,0,0.6-0.2,0.8-0.4
			c0.1-0.1,0.2-0.3,0.5-0.4c0.4-0.2,0.7,0.1,1.1,0.4c0.4,0.3,0.9,0.7,1.5,0.2c0.2-0.2,0.3-0.4,0.3-0.6c0.1-0.3,0.1-0.4,0.7-0.4
			c0.4,0,0.7,0.1,1,0.3l0.4,0.2c0.5,0.2,1.4,0.4,2,0.2C60.1,70.3,60.3,70,60.4,69.8l0.5-0.3l-0.1-0.1L60.4,69.8z"/>
		<path class="st1" d="M60.8,69.3l-0.5,0.4c-0.2,0.2-0.4,0.4-0.6,0.5c-0.5,0.2-1.4,0-1.9-0.2l-0.3-0.2c-0.3-0.1-0.6-0.3-1.1-0.3
			c-0.8,0-0.9,0.3-1,0.6c0,0.2-0.1,0.3-0.2,0.5c-0.4,0.4-0.7,0.2-1.1-0.2c-0.4-0.3-0.8-0.6-1.4-0.4c-0.3,0.1-0.4,0.3-0.5,0.4
			c-0.2,0.2-0.3,0.3-0.6,0.3l-0.5-0.1c-0.3-0.1-0.8-0.3-1.1,0.1l-0.1,0.1l0.3,0.2l0.1-0.1c0.1-0.2,0.4-0.1,0.7,0l0.6,0.1
			c0.5,0,0.7-0.2,0.9-0.4c0.1-0.1,0.2-0.3,0.4-0.3c0.3-0.2,0.6,0,1,0.3c0.4,0.3,1,0.8,1.6,0.2c0.2-0.2,0.3-0.5,0.4-0.7
			c0.1-0.2,0.1-0.3,0.6-0.3c0.4,0,0.6,0.1,0.9,0.3l0.4,0.2c0.1,0.1,1.4,0.4,2.1,0.2c0.3-0.1,0.5-0.3,0.7-0.5l0.5-0.5l-0.2-0.3
			L60.8,69.3z"/>
	</g>
	<path class="st6" d="M20.6,79.2l59,0.3l3-3.6c0,0-2-3-18.2-0.6c0,0-6.6-0.4-8.6-0.9c0,0-39.4-12.7-41.7-3.9L20.6,79.2z"/>
	<path class="st1" d="M89.2,2.3H9.9v47.1c0,26.5,10.4,35.7,39.8,48.1l0.4,0.2l0.4-0.2c29.3-12.4,39.7-21.5,39.8-48V2.3H89.2z
		 M50,4.2c0,0,36.5,0,38.3,0c0,1.8,0,45.3,0,45.3c0,12.8-2.5,21.2-8.3,27.8c-5.4,6.3-14.1,11.6-30,18.3c-15.9-6.7-24.6-12.1-30-18.3
		c-5.8-6.7-8.2-15-8.2-27.9c0,0,0-43.4,0-45.3C13.5,4.2,50,4.2,50,4.2z"/>
	<g>
		<path class="st5" d="M47.6,58.5c0,0,7,5.9,17.2,5.3c0,0,9.3,0.9,15.6-2.8c0,0-0.3,6-8,7.5l-17.3,0.2
			C55.1,68.7,47.6,65.4,47.6,58.5z"/>
		<path class="st0" d="M47.3,58.5c0,7.1,7.6,10.4,7.6,10.5l0.1,0l17.4-0.2c7.8-1.5,8.2-7.7,8.2-7.7l0-0.5l-0.5,0.3
			c-6.1,3.6-15.3,2.8-15.4,2.8c-10,0.6-16.9-5.2-17-5.2l-0.5-0.4V58.5z M47.9,59.1c1.8,1.3,8.2,5.5,16.8,5c0,0,8.9,0.8,15.2-2.6
			c-0.3,1.4-1.6,5.5-7.7,6.7c0,0-17.1,0.2-17.2,0.2C54.6,68.1,48.3,65.1,47.9,59.1z"/>
	</g>
	<g>
		<path class="st1" d="M50.7,57.5c-0.2,0.2-0.3,0.3-0.5,0.4c-0.4,0.1-1.1,0-1.5-0.1c0,0-0.3-0.1-0.3-0.1c-0.2-0.1-0.5-0.2-0.8-0.2
			c-0.5,0-0.6,0.2-0.6,0.4c0,0.1-0.1,0.3-0.2,0.4c-0.4,0.3-0.6,0.1-1-0.1c-0.3-0.2-0.6-0.5-0.9-0.3c0,0-0.4,0.3-0.4,0.3
			c-0.1,0.1-0.2,0.3-0.5,0.3l-0.4-0.1c-0.3-0.1-0.6-0.2-0.8,0l0.1,0.1c0.2-0.2,0.4-0.1,0.6,0l0.4,0.1c0.3,0,0.5-0.2,0.6-0.3l0.3-0.3
			c0.3-0.1,0.5,0.1,0.8,0.3c0.3,0.3,0.7,0.5,1.1,0.1c0.2-0.2,0.2-0.3,0.2-0.5c0-0.2,0.1-0.3,0.5-0.3c0.3,0,0.5,0.1,0.7,0.2l0.3,0.1
			c0.4,0.1,1.1,0.3,1.5,0.1C50.5,57.9,50.7,57.7,50.7,57.5l0.4-0.2l-0.1-0.1L50.7,57.5z"/>
		<path class="st1" d="M51,57.1l-0.4,0.3c-0.1,0.1-0.3,0.3-0.4,0.3c-0.4,0.1-1.1,0-1.4-0.1c0,0,0,0,0,0c0,0-0.1-0.1-0.3-0.1
			c-0.2-0.1-0.5-0.2-0.8-0.2c-0.6,0-0.7,0.2-0.8,0.5c0,0.1-0.1,0.2-0.2,0.3c-0.3,0.2-0.5,0.1-0.8-0.1c-0.3-0.2-0.6-0.5-1-0.3
			c0,0,0,0,0,0c0,0,0,0-0.1,0c0,0,0,0,0,0c-0.1,0-0.2,0.1-0.4,0.3c-0.1,0.2-0.2,0.2-0.4,0.2l-0.3-0.1c-0.3-0.1-0.6-0.2-0.9,0.1
			l-0.1,0.1l0.3,0.2l0.1-0.1c0.1-0.1,0.2-0.1,0.5,0l0.4,0.1c0.4,0,0.6-0.2,0.7-0.3l0.3-0.3c0.2-0.1,0.4,0,0.6,0.3
			c0.3,0.3,0.8,0.6,1.3,0.1c0.2-0.2,0.2-0.4,0.3-0.5c0-0.2,0.1-0.2,0.4-0.2c0.3,0,0.4,0.1,0.7,0.2l0.3,0.1c0.1,0,1,0.3,1.6,0.1
			c0.2-0.1,0.4-0.3,0.6-0.4l0.4-0.4L51.1,57L51,57.1z"/>
	</g>
	<path class="st7" d="M24.5,76.6c-0.2,0.1-0.5,0.2-0.7,0.3l3.5-41.1L33,21L38.3,35l4.3,40.7C42.5,75.7,32.9,75.7,24.5,76.6"/>
	<path class="st4" d="M27.1,35.7L27.1,35.7l-3.5,41.2l0.3,0.2l0.3-0.1c0,0,0.4-0.2,0.4-0.2c8.7-1.1,17.9-1,18-1l0.2-0.2l-4.3-40.7
		L33.1,21l-0.4,0L27.1,35.7z M33,21.6c0.3,0.9,5.1,13.4,5.1,13.4c0,0,4.2,39.9,4.2,40.4c-1.5-0.3-8.7,1-17.9,1c0,0,0,0.1,0.1,0.2
		c0-0.1-0.1-0.2-0.1-0.2S24,76.6,24,76.6c0.1-0.6,3.4-40.7,3.4-40.8C27.5,35.8,32.6,22.4,33,21.6z"/>
	<path class="st4" d="M32.5,20.9l-5.7,14.8l0,0.1L23.3,77l0.5,0.4c0,0,0.7-0.3,0.8-0.3c8.3-1.1,17.3-1,17.9-1l0.1,0l0.1-0.1l0.3-0.3
		l-4.3-40.9l-5.4-14.2l-0.7,0L32.5,20.9z M33,21.3c0.2,0.5,5.2,13.6,5.2,13.7c0,0.1,4.2,40.3,4.3,40.5c0,0,0,0,0,0
		c-1.3,0-9.8-0.1-17.9,1l0,0c0,0-0.5,0.2-0.6,0.2c0,0,0,0,0,0c0-0.3,3.4-40.9,3.5-41C27.4,35.8,32.8,21.8,33,21.3z"/>
	<path class="st4" d="M32.7,21.5c-0.1,0.1-5.5,14.2-5.5,14.3c0,0.1-3.4,40.2-3.5,40.9l0,0.5c0,0,0.7-0.3,0.8-0.3
		c5.4,0,10.2-0.5,13.4-0.8c2.2-0.2,3.8-0.4,4.4-0.3l0.4,0.1c0,0-4.3-40.8-4.3-40.8c0-0.1-5.1-13.4-5.1-13.5L33,20.8L32.7,21.5z
		 M33,22.4c0.5,1.2,4.8,12.6,4.9,12.7c0,0.1,4.1,39.4,4.2,40.1c-0.8,0-2.2,0.1-4.2,0.3c-3.1,0.3-7.9,0.8-13.2,0.8c0,0,0-0.1,0-0.1
		s-0.1,0.1-0.2,0.1c0,0,0,0,0,0c0.4-4.4,3.3-39.4,3.4-40.3C27.7,35.8,32.5,23.6,33,22.4z M24.5,76.6C24.5,76.6,24.5,76.7,24.5,76.6
		C24.4,76.7,24.4,76.7,24.5,76.6C24.4,76.6,24.4,76.6,24.5,76.6z"/>
	<path class="st4" d="M27.8,34.6l-0.2,0.1l0,0.5c0.1,0.1,0.2,0,0.4-0.1c0.6-0.3,2.3-1.1,5-1.1c2.9,0,4.2,0.5,4.8,0.7
		c0.3,0.1,0.6,0.2,0.7-0.1l-0.4-0.2c0-0.1,0.1-0.1,0.1-0.1l-0.2-0.1c-0.6-0.2-1.9-0.8-5-0.8C30.2,33.5,28.4,34.3,27.8,34.6z"/>
	<path class="st4" d="M26.1,51.8l-0.2,0.1l0.2,0l-0.3,0.6c0.2,0.1,0.3,0,0.6-0.1c0.8-0.4,3.2-1.5,6.8-1.5c4,0,5.5,0.6,6.2,0.9
		c0.3,0.1,0.7,0.3,0.9-0.1l-0.6-0.3c0-0.1,0.2-0.1,0.2-0.1l-0.2-0.1c-0.7-0.3-2.3-1-6.4-1C29.4,50.2,26.9,51.4,26.1,51.8z"/>
	<path class="st4" d="M25,66.8L24.7,67l0.3,0l-0.4,0.7c0.2,0.1,0.3,0,0.8-0.2c1-0.5,3.8-1.7,7.8-1.7c6,0,7.6,0.9,8.2,1.2l0.2,0.1
		l0.3-0.7l-0.2-0.1C41,66,39.4,65,33.2,65C29,65,26.1,66.3,25,66.8z"/>
	<polyline class="st8" points="33,35.4 31.7,37.5 31.7,40.9 34.8,40.9 34.8,37.3 33,35.4 	"/>
	<path class="st4" d="M33,35.2C33,35.2,33,35.2,33,35.2l-1.5,2.2V41h3.4v-3.7l-1.7-1.9C33.2,35.3,33.1,35.2,33,35.2z M33.1,35.6
		c0.2,0.2,1.6,1.7,1.6,1.8c0,0.1,0,3.1,0,3.4c-0.2,0-2.7,0-2.9,0c0-0.2,0-3.2,0-3.3C31.8,37.4,32.9,35.9,33.1,35.6z"/>
	<path class="st4" d="M24,73.7l0.2,0.2c1.6-1.2,3.3-1.3,3.3-1.3l0-0.3C27.4,72.3,25.6,72.4,24,73.7z"/>
	<path class="st4" d="M24,70.4l0.2,0.2c1.6-1.2,3.3-1.3,3.3-1.3l0-0.3C27.4,69,25.6,69.1,24,70.4z"/>
	<path class="st4" d="M25.3,63.8l0.1,0.2c1.6-1.2,3.3-1.3,3.3-1.3l0-0.2C28.7,62.4,27,62.6,25.3,63.8z"/>
	<path class="st4" d="M25.3,60.8l0.2,0.2c1.6-1.2,3.3-1.3,3.3-1.4l0-0.2C28.7,59.4,27,59.6,25.3,60.8z"/>
	<path class="st4" d="M25.3,58l0.2,0.2c1.6-1.2,3.3-1.3,3.3-1.3l0-0.3C28.7,56.6,27,56.7,25.3,58z"/>
	<path class="st4" d="M25.6,55.2l0.2,0.2c1.6-1.2,3.3-1.3,3.3-1.3l0-0.3C29,53.9,27.3,54,25.6,55.2z"/>
	<path class="st4" d="M26,49.2l0.2,0.2c1.6-1.2,3.3-1.3,3.3-1.3l0-0.3C29.4,47.9,27.7,48,26,49.2z"/>
	<path class="st4" d="M26.2,47.1l0.2,0.2c1.6-1.2,3.3-1.3,3.3-1.3l0-0.3C29.6,45.7,27.8,45.8,26.2,47.1z"/>
	<path class="st4" d="M30.2,38.8c0,0,0,1.1,0,1.3c-0.4,0.1-1.9,0.3-3.3,1.4l0.2,0.2c1.6-1.2,3.3-1.3,3.3-1.3l0.1,0v-1.5H30.2z"/>
	<path class="st4" d="M27.1,39.2l0.1,0.2c1.6-1.2,3.3-1.3,3.4-1.3l0-0.3C30.5,37.8,28.8,37.9,27.1,39.2z"/>
	<path class="st4" d="M27.5,37.5l0.2,0.2c1.6-1.2,3.3-1.3,3.3-1.3l0-0.3C30.9,36.1,29.2,36.3,27.5,37.5z"/>
	<rect x="28.4" y="40.9" class="st4" width="0.2" height="2.2"/>
	<rect x="28" y="51.5" class="st4" width="0.2" height="2.2"/>
	<path class="st4" d="M30.1,53.4L30.1,53.4L30.1,56h0.3c0,0,0-2.2,0-2.4c0.1,0,0.6-0.2,0.6-0.2l-0.1-0.2L30.1,53.4z"/>
	<rect x="30.2" y="59.4" class="st4" width="0.2" height="2.9"/>
	<rect x="31.8" y="68.8" class="st4" width="0.3" height="3.4"/>
	<rect x="26.9" y="72.9" class="st4" width="0.3" height="1.1"/>
	
		<rect x="28.5" y="62.7" transform="matrix(-0.9949 -0.1008 0.1008 -0.9949 50.7092 129.3374)" class="st4" width="0.3" height="1.4"/>
	<rect x="28" y="57.1" class="st4" width="0.2" height="0.8"/>
	<path class="st4" d="M35.2,36.1c0,0,1.9,0,3.1,0.5l0.1-0.2c-1.2-0.5-3.1-0.6-3.2-0.6V36.1z"/>
	<path class="st4" d="M36,38.8c0,0,1.5,0,2.7,0.5l0.1-0.2c-1.2-0.6-2.7-0.6-2.8-0.6V38.8z"/>
	<path class="st4" d="M36.2,40.9c0,0,1.5,0,2.7,0.5l0.1-0.2c-1.2-0.6-2.7-0.6-2.8-0.6V40.9z"/>
	<path class="st4" d="M34.3,32c0,0,1.5,0,2.7,0.5l0.1-0.2c-1.2-0.5-2.7-0.6-2.8-0.6V32z"/>
	<path class="st4" d="M34.5,30.5c0,0,0.8,0,2,0.5l0.1-0.2c-1.2-0.6-2.1-0.6-2.1-0.6V30.5z"/>
	<path class="st4" d="M33.4,29.1c0,0,1.5,0,2.7,0.5l0.1-0.2c-1.2-0.6-2.7-0.6-2.8-0.6V29.1z"/>
	<path class="st4" d="M32.4,27.8c0,0,2,0,3.2,0.5l0.1-0.2c-1.2-0.6-3.2-0.6-3.3-0.6V27.8z"/>
	<path class="st4" d="M32.4,26.3c0,0,1.5,0,2.7,0.5l0.1-0.2C33.9,26,32.4,26,32.4,26V26.3z"/>
	<path class="st4" d="M32.9,25.1l0.2,0.2c0,0,0.3-0.2,1.4,0.3l0.1-0.2C33.3,24.8,33,25.1,32.9,25.1z"/>
	<path class="st4" d="M33.1,23.8C33,23.8,33,23.9,33.1,24l0.2-0.1c0,0,0,0,0,0c0,0,0.1-0.1,0.9,0.3l0.1-0.2
		C33.5,23.6,33.2,23.7,33.1,23.8z"/>
	<path class="st4" d="M36.2,43.3c0,0,1.5,0,2.7,0.5l0.1-0.2c-1.2-0.6-2.7-0.6-2.8-0.6V43.3z"/>
	<path class="st4" d="M36,45.3l0,0.3c0,0,1.9-0.1,3.1,0.4l0.1-0.2C38,45.1,36.1,45.3,36,45.3z"/>
	<path class="st4" d="M35.6,47.6c0,0,2.7,0.3,3.9,0.8l0.1-0.2c-1.2-0.6-3.9-0.8-4-0.8L35.6,47.6z"/>
	<path class="st4" d="M36,52.5c0,0,2.7,0.3,3.9,0.8L40,53c-1.2-0.5-3.9-0.8-4-0.8L36,52.5z"/>
	<path class="st4" d="M36.2,55.7c0,0,3.1,0.1,4.3,0.7l0.1-0.2c-1.2-0.5-4.3-0.7-4.4-0.7L36.2,55.7z"/>
	<path class="st4" d="M37,58.9c0,0,2.4,0,3.6,0.5l0.1-0.2c-1.2-0.5-3.6-0.6-3.7-0.6V58.9z"/>
	<path class="st4" d="M37.2,62.4c0,0,2.4,0,3.6,0.5l0.1-0.2c-1.2-0.6-3.6-0.6-3.7-0.6V62.4z"/>
	<path class="st4" d="M38.6,69.5c0,0,2,0.1,3.2,0.7l0.1-0.2c-1.2-0.6-3.2-0.7-3.3-0.7L38.6,69.5z"/>
	<path class="st4" d="M38.2,72.2c0,0,2.8,0,4,0.5l0.1-0.2c-1.2-0.6-4-0.6-4.1-0.6V72.2z"/>
	
		<rect x="35.5" y="41.9" transform="matrix(-0.1119 -0.9937 0.9937 -0.1119 -1.6433 82.6109)" class="st4" width="1.2" height="0.3"/>
	
		<rect x="34.9" y="55.1" transform="matrix(-7.608713e-02 -0.9971 0.9971 -7.608713e-02 -16.5576 95.2049)" class="st4" width="1.8" height="0.2"/>
	
		<rect x="35.1" y="60.7" transform="matrix(-5.449646e-02 -0.9985 0.9985 -5.449646e-02 -22.2118 100.5578)" class="st4" width="2.7" height="0.3"/>
	<rect x="26.9" y="66.4" class="st4" width="0.3" height="2.6"/>
	<rect x="32.9" y="19.3" class="st4" width="0.3" height="1.4"/>
	<rect x="32.1" y="19.8" class="st4" width="1.8" height="0.3"/>
	<g>
		<path class="st5" d="M46.1,49.7c0,0,7,5.9,17.2,5.3c0,0,9.3,0.9,15.6-2.8c0,0-0.3,6-8,7.5l-17.3,0.2
			C53.6,59.9,46.1,56.6,46.1,49.7z"/>
		<path class="st0" d="M45.8,49.7c0,7.1,7.6,10.4,7.6,10.5l0.1,0l17.4-0.2c7.8-1.5,8.2-7.7,8.2-7.7l0-0.5l-0.5,0.3
			c-6.1,3.6-15.3,2.8-15.4,2.8c-10,0.6-16.9-5.2-17-5.2l-0.5-0.4V49.7z M46.4,50.3c1.8,1.3,8.2,5.5,16.8,5c0,0,8.9,0.8,15.2-2.6
			c-0.3,1.4-1.6,5.5-7.7,6.7c0,0-17.1,0.2-17.2,0.2C53.1,59.4,46.8,56.3,46.4,50.3z"/>
	</g>
	<path class="st1" d="M15.7,10.8v0.5c0,0.1,0,0.3,0,0.6c0,0.3,0,0.5,0.1,0.8c0,0.3,0.1,0.7,0.2,1l0.1,0.2h-0.4c0,0-0.1,0-0.2,0
		c-0.1,0-0.2,0-0.3,0c-0.1,0-0.3,0-0.4,0c-0.1,0-0.2,0-0.4,0c-0.1,0-0.2,0-0.2,0l-0.4,0l0.1-0.2c0-0.2,0.1-0.3,0.1-0.5
		c0-0.2,0-0.4,0.1-0.5c0-0.2,0-0.3,0-0.5c0-0.2,0-0.4,0-0.6c0-0.2,0-0.4,0-0.5c0-0.1,0-0.2,0-0.3c0-0.1,0-0.1,0-0.2
		c0-0.1,0-0.2,0-0.3c0-0.1,0-0.2,0-0.3V9c0-0.3,0-0.5,0-0.7c0-0.2,0-0.4,0-0.6c0-0.2-0.1-0.4-0.1-0.5c0-0.2-0.1-0.4-0.3-0.7
		l-0.1-0.2l0.3,0c0.3,0,0.5,0,0.8,0c0.2,0,0.5,0,0.8,0h0.3h0.2c0.3,0,0.7,0,1.2-0.1c0.5,0,0.7-0.1,0.7-0.1h0.6c0.2,0,0.5,0,0.8,0.1
		c0.3,0.1,0.6,0.2,0.8,0.4C19.9,7,20,7.2,20.1,7.5c0.1,0.2,0.1,0.4,0.1,0.6v0.4c0,0.4-0.1,0.8-0.3,1.1c-0.2,0.3-0.5,0.6-0.9,0.9
		c-0.3,0.2-0.6,0.3-1,0.4c-0.4,0.1-0.7,0.1-1.1,0.1c-0.3,0-0.5,0-0.6-0.1L15.7,10.8z M15.8,10.3h0.4c0.1,0,0.4,0,0.6-0.1
		c0.3-0.1,0.5-0.2,0.7-0.4c0.2-0.2,0.4-0.4,0.6-0.7c0.1-0.3,0.2-0.6,0.2-0.8V8.1c0,0,0-0.2-0.1-0.3c-0.1-0.2-0.1-0.3-0.2-0.4
		C17.9,7.2,17.6,7,17.3,7H17c-0.4,0-0.7,0.2-1,0.6c-0.1,0.2-0.2,0.5-0.3,0.8c-0.1,0.3-0.1,0.6-0.1,0.7v1L15.8,10.3z"/>
	<path class="st1" d="M24.4,8.8c0.2,0,0.3-0.1,0.5-0.1c0.2,0,0.3,0,0.3,0h0.3c0.1,0,0.3,0,0.5,0.1c0.2,0.1,0.4,0.1,0.6,0.2
		C26.7,9,26.9,9.2,27,9.3c0.1,0.1,0.2,0.3,0.3,0.5c0.1,0.2,0.2,0.4,0.2,0.6c0,0.2,0.1,0.3,0.1,0.4v0.5c0,0.3-0.1,0.6-0.2,0.8
		c-0.1,0.2-0.4,0.5-0.6,0.7c-0.2,0.2-0.5,0.4-0.9,0.5c-0.4,0.1-0.6,0.2-0.7,0.2h-0.2l-0.3,0.1c-0.5,0.1-0.7,0.2-0.9,0.2
		c-0.1,0-0.3,0-0.5,0c-0.3,0-0.6-0.1-0.9-0.2c-0.2-0.1-0.5-0.3-0.7-0.5c-0.2-0.2-0.3-0.4-0.4-0.7C21.1,12.2,21,12,21,11.9v-0.7
		c0-0.2,0.1-0.4,0.2-0.7c0.1-0.3,0.3-0.5,0.5-0.7c0.2-0.2,0.4-0.3,0.6-0.4c0.2-0.1,0.5-0.2,0.7-0.3c0.2-0.1,0.4-0.1,0.5-0.1h0.3
		c0,0,0.1,0,0.2-0.1C24.2,8.8,24.3,8.8,24.4,8.8z M23,12.5c0.1,0.1,0.3,0.3,0.5,0.4C23.8,13,23.9,13,24,13h0.4
		c0.1,0,0.3-0.1,0.5-0.2c0.2-0.1,0.3-0.3,0.5-0.4c0.2-0.2,0.3-0.4,0.4-0.5c0.1-0.2,0.1-0.4,0.1-0.6v-0.2c0-0.3,0-0.5-0.1-0.7
		c-0.1-0.2-0.2-0.4-0.4-0.6c-0.1-0.1-0.3-0.2-0.6-0.3c-0.2-0.1-0.4-0.1-0.5-0.1h-0.1c-0.1,0-0.3,0.1-0.6,0.2
		c-0.2,0.1-0.4,0.3-0.6,0.5c-0.3,0.4-0.4,0.8-0.4,1.2v0.2c0,0.1,0,0.3,0.1,0.5C22.8,12.2,22.9,12.3,23,12.5z"/>
	<path class="st1" d="M31.3,12.5v0.4c0,0,0,0.1,0,0.4c0,0.2,0.1,0.3,0.1,0.3l0,0.2l-0.1,0c0,0-0.2,0-0.3,0c-0.2,0-0.3,0-0.5,0
		c0,0-0.1,0-0.2,0c-0.1,0-0.2,0-0.3,0c-0.1,0-0.1,0-0.1,0h-0.3l0-0.1c0-0.3,0.1-0.5,0.1-0.8c0-0.4,0-0.6,0.1-0.8c0-0.2,0-0.3,0-0.3
		v-1.3c0-0.1,0-0.2-0.1-0.5c-0.1-0.2-0.2-0.4-0.3-0.5c-0.1-0.1-0.2-0.2-0.3-0.2c-0.1,0-0.2-0.1-0.3-0.2C28.7,9.1,28.6,9,28.5,9
		l-0.2-0.1l0.4,0c0.3,0,0.4,0,0.5,0c0.1,0,0.2,0,0.3,0c0.1,0,0.2,0,0.4,0c0.4,0,0.7-0.1,1-0.1l0.2,0c0,0.1,0,0.2,0,0.3
		c0,0,0,0,0,0.1c0,0,0,0,0,0.1c0,0,0,0.1,0,0.1l0,0.2l0.2-0.1c0,0,0.1,0,0.2-0.1C31.8,9,31.9,8.9,32,8.9c0.5-0.1,0.8-0.1,1-0.1h0.1
		c0,0,0.1,0,0.2-0.1c0.1,0,0.2-0.1,0.3-0.1c0,0,0.1,0,0.2,0c0.1,0,0.2,0,0.2,0h0.6c0.1,0,0.3,0,0.5,0.1c0.2,0.1,0.4,0.2,0.5,0.3
		c0.1,0.1,0.2,0.3,0.3,0.5C36,9.7,36,9.9,36,10l0,0.1c0,0.1,0,0.3-0.1,0.5c-0.1,0.2-0.2,0.4-0.3,0.6c-0.1,0.1-0.2,0.2-0.4,0.3
		c-0.1,0.1-0.3,0.2-0.5,0.3C34.6,12,34.5,12,34.5,12c0,0-0.1,0-0.1,0.1c0,0,0,0,0,0.1c0,0,0,0.1,0,0.1c0,0,0.1,0.1,0.1,0.1
		c0,0,0.1,0.1,0.3,0.2c0.2,0.1,0.3,0.2,0.5,0.3c0.2,0.1,0.3,0.2,0.4,0.3c0.1,0.1,0.3,0.2,0.4,0.2c0.1,0.1,0.3,0.1,0.4,0.2l0.2,0.1
		l-0.1,0c0,0-0.1,0-0.2,0.1c-0.1,0-0.2,0-0.4,0.1c-0.2,0-0.5,0.1-0.7,0.1h-0.8c-0.2,0-0.3,0-0.4,0c0,0-0.1,0-0.1,0
		c0,0-0.1,0-0.1-0.1c0,0-0.1,0-0.1-0.1c0,0-0.2-0.1-0.4-0.2c-0.3-0.1-0.5-0.2-0.6-0.3c-0.1-0.1-0.4-0.2-0.6-0.3
		c-0.3-0.1-0.4-0.2-0.5-0.2L31.3,12.5z M31.4,12c0,0,0.1,0,0.2,0c0.1,0,0.3-0.1,0.6-0.2c0.4-0.1,0.6-0.2,0.9-0.3
		c0.2-0.1,0.3-0.2,0.5-0.4c0.1-0.2,0.3-0.3,0.3-0.5c0.1-0.2,0.1-0.3,0.1-0.5v-0.1c0-0.2-0.1-0.3-0.3-0.4c-0.1,0-0.2-0.1-0.3-0.1
		c-0.1-0.1-0.2-0.1-0.3-0.1H33c-0.1,0-0.2,0.1-0.5,0.3c-0.3,0.2-0.5,0.3-0.6,0.5c-0.1,0.1-0.2,0.3-0.3,0.5c-0.1,0.2-0.2,0.4-0.2,0.6
		c-0.1,0.2-0.1,0.3-0.1,0.3v0.2C31.3,12,31.3,12,31.4,12z"/>
	<path class="st1" d="M38.6,8.7c0,0,0.1-0.1,0.2-0.3C38.9,8.3,39,8.1,39.1,8c0.2-0.2,0.3-0.4,0.4-0.6l0.1-0.1h0.1c0.1,0,0.3,0,0.5,0
		c0.2,0,0.4,0,0.5-0.1c0.2,0,0.5,0,0.8-0.1c0.3,0,0.5,0,0.6,0l0.4,0l-0.1,0.1c0,0-0.1,0.1-0.3,0.2c-0.2,0.1-0.3,0.2-0.5,0.3
		c-0.1,0.1-0.2,0.2-0.3,0.2c-0.1,0.1-0.3,0.2-0.4,0.4c-0.2,0.2-0.2,0.2-0.3,0.3l-0.2,0.2h0.4c0.2,0,0.5,0,0.9,0
		c0.2,0,0.5-0.1,0.8-0.1l0.2,0c-0.1,0.3-0.2,0.5-0.3,0.6c0,0.1-0.1,0.3-0.2,0.6l-1,0l-1.1-0.1H40l-0.1,0.2c0,0.1-0.1,0.2-0.1,0.3
		c0,0.2-0.1,0.4-0.1,0.6v0.6c0,0.1,0,0.2,0.1,0.4c0,0.2,0.1,0.4,0.2,0.5c0.1,0.2,0.2,0.4,0.3,0.5c0.1,0.2,0.3,0.2,0.4,0.2h0.2
		c0.1,0,0.4-0.1,0.9-0.4c0.1-0.1,0.3-0.2,0.5-0.3c0.2-0.1,0.3-0.2,0.3-0.2l0.2-0.1l-0.1,0.2c0,0-0.1,0.1-0.1,0.3
		c-0.1,0.1-0.1,0.3-0.2,0.4c-0.1,0.3-0.2,0.5-0.2,0.5l0,0.2l-0.8,0.1h-1c0,0-0.1,0-0.1,0c-0.1,0-0.1,0-0.2,0c-0.1,0-0.1,0-0.1,0
		c0,0-0.1,0-0.1,0c0,0-0.1,0-0.1,0c0,0-0.1,0-0.1,0h-0.2c-0.3,0-0.5-0.1-0.7-0.2c-0.2-0.2-0.4-0.4-0.5-0.7c-0.1-0.2-0.2-0.5-0.2-0.8
		c0-0.3-0.1-0.5-0.1-0.6V11l0.1-0.5c0-0.2,0.1-0.3,0.1-0.4c0-0.1,0-0.2,0-0.2l0-0.1h-0.3l-0.5,0.1c0-0.2,0-0.4,0.1-0.6
		c0-0.1,0.1-0.3,0.1-0.5l0.6,0h0.4L38.6,8.7z"/>
	<path class="st1" d="M48.3,12.6l0.1,0.1l0.2,0c0.1,0,0.4,0,0.7-0.1c0.3,0,0.6-0.1,0.8-0.1c0.1,0,0.2,0,0.3-0.1c0.1,0,0.2,0,0.3-0.1
		c0.1,0,0.3-0.1,0.5-0.1l0.2,0l0,0.1c0,0.1-0.1,0.2-0.2,0.3c-0.1,0.1-0.1,0.2-0.2,0.3c-0.1,0.1-0.1,0.3-0.2,0.4L51,13.7l-1.4,0
		c0,0-0.1,0-0.5,0c-0.3,0-0.6,0-0.8,0c-0.2,0-0.4,0-0.7,0c-0.3,0-0.5,0-0.7,0h-0.5l0-0.3c0,0,0-0.2,0-0.5c0-0.3,0-0.6,0-0.7
		c0-0.2,0-0.4,0-0.5c0-0.1,0-0.2,0-0.3c0-0.1,0-0.2,0-0.4c0-0.3,0-0.5,0-0.6l0-1.3c0-0.6-0.1-1.1-0.1-1.4c0-0.2,0-0.3-0.1-0.5
		c0-0.1,0-0.3-0.1-0.4c0-0.1-0.1-0.3-0.1-0.4L46,6.4l0.3,0c0.1,0,0.2,0,0.3,0c0.1,0,0.2,0,0.3,0c0.1,0,0.2,0,0.3,0
		c0.4,0,0.7,0,0.9,0l0.3-0.1l0,0.2c0,0.1-0.1,0.2-0.1,0.4c-0.1,0.2-0.1,0.3-0.1,0.4c0,0.3,0,0.6,0,1l0,2c0,0.1,0,0.3,0,0.5
		c0,0.2,0,0.4,0,0.5c0,0.1,0,0.2,0,0.4c0,0.2,0,0.3,0,0.3L48.3,12.6z"/>
	<path class="st1" d="M57,13.4l-0.2,0.1c0,0,0,0-0.1,0c0,0-0.1,0-0.1,0c0,0-0.1,0-0.1,0c-0.2,0-0.3,0.1-0.3,0.1l-0.6,0
		c0,0-0.1,0-0.1,0c-0.1,0-0.1,0-0.2,0c-0.1,0-0.1,0-0.2,0c-0.1,0-0.1,0-0.1,0c0,0-0.1,0-0.1,0c0,0-0.1,0-0.2,0h-0.3
		c-0.3,0-0.5,0-0.7-0.1c-0.2-0.1-0.4-0.2-0.6-0.4c-0.2-0.1-0.3-0.3-0.4-0.5c-0.1-0.2-0.2-0.4-0.2-0.6c0-0.2-0.1-0.4-0.1-0.5l0-0.4
		c0-0.3,0.1-0.6,0.2-1c0.1-0.3,0.4-0.6,0.6-0.8c0.2-0.2,0.4-0.3,0.6-0.4c0.2-0.1,0.4-0.2,0.6-0.2c0.2-0.1,0.4-0.1,0.5-0.1h0.7
		l0.6-0.1h0.5c0.1,0,0.3,0,0.7,0.1c0.1,0,0.2,0.1,0.4,0.1l0.3-0.1c0.1,0,0.1,0,0.2,0c0,0,0.1,0,0.2,0c0.1,0,0.1,0,0.2-0.1
		c0.1,0,0.1-0.1,0.2-0.1c0.1,0,0.1-0.1,0.2-0.1l0.1,0l-0.1,0.2c-0.2,0.6-0.2,1-0.3,1.2c-0.1,0.5-0.1,1-0.1,1.3V12c0,0,0,0.2,0,0.4
		c0,0.2,0,0.4,0.1,0.6c0,0.1,0,0.1,0,0.2c0,0.1,0,0.1,0,0.1c0,0,0,0.1,0,0.1c0,0,0,0.1,0,0.2l0,0.2h-0.2c-0.1,0-0.2,0-0.3,0
		c-0.1,0-0.2,0-0.3,0c-0.1,0-0.2,0-0.3,0c-0.1,0-0.3,0-0.6,0.1h-0.1L57,13.4z M54.5,12.6c0.1,0.1,0.2,0.2,0.4,0.3
		c0.2,0.1,0.3,0.1,0.4,0.1h0.1c0.1,0,0.2-0.1,0.4-0.2c0.2-0.1,0.3-0.2,0.5-0.4c0.2-0.1,0.3-0.3,0.4-0.5c0.1-0.2,0.3-0.5,0.4-0.8
		c0.1-0.3,0.2-0.5,0.2-0.6l0-0.1c0-0.1-0.1-0.2-0.2-0.3c-0.1-0.2-0.3-0.3-0.4-0.4c-0.3-0.2-0.5-0.3-0.8-0.3h-0.2
		c-0.1,0-0.2,0-0.3,0.1c-0.1,0.1-0.3,0.2-0.4,0.3c-0.2,0.1-0.3,0.3-0.3,0.4c-0.3,0.4-0.4,0.8-0.4,1v0.2c0,0.1,0,0.3,0.1,0.5
		C54.3,12.3,54.4,12.5,54.5,12.6z"/>
	<path class="st1" d="M62.6,9.1c0,0,0,0.1,0,0.1c0,0.1,0,0.1,0,0.2c0,0.4-0.1,0.6-0.1,0.7v0.7c0,0.1,0,0.5,0.1,1.3
		c0.1,0.7,0.1,1.1,0.1,1.2l0.2,0.4l-0.4,0c-0.1,0-0.2,0-0.4,0c-0.2,0-0.3,0-0.4,0c-0.1,0-0.2,0-0.3,0c-0.1,0-0.3,0-0.4,0l-0.3,0
		l0.1-0.2c0-0.1,0.1-0.3,0.2-0.6c0.1-0.3,0.1-0.6,0.1-0.9v-1.5c0-0.2,0-0.4-0.1-0.5c0-0.1-0.1-0.3-0.2-0.4c0-0.1-0.1-0.1-0.1-0.2
		c-0.1-0.1-0.1-0.1-0.1-0.1c0,0-0.1-0.1-0.1-0.1c-0.1,0-0.1-0.1-0.1-0.1l-0.2-0.2h1.3c0.2,0,0.4,0,0.6-0.1c0.1,0,0.3,0,0.5-0.1
		l0.3-0.1L62.6,9.1z"/>
	<path class="st1" d="M66.4,12.5v0.4c0,0,0,0.1,0,0.4c0,0.2,0.1,0.3,0.1,0.3l0,0.2l-0.1,0c0,0-0.2,0-0.3,0c-0.2,0-0.3,0-0.5,0
		c0,0-0.1,0-0.2,0c-0.1,0-0.2,0-0.3,0c-0.1,0-0.1,0-0.1,0h-0.3l0-0.1c0-0.3,0.1-0.5,0.1-0.8c0-0.4,0-0.6,0.1-0.8c0-0.2,0-0.3,0-0.3
		v-1.3c0-0.1,0-0.2-0.1-0.5c-0.1-0.2-0.2-0.4-0.3-0.5c-0.1-0.1-0.2-0.2-0.3-0.2c-0.1,0-0.2-0.1-0.3-0.2C63.8,9.1,63.7,9,63.7,9
		l-0.2-0.1l0.4,0c0.3,0,0.4,0,0.5,0c0.1,0,0.2,0,0.3,0c0.1,0,0.2,0,0.4,0c0.4,0,0.7-0.1,1-0.1l0.2,0c0,0.1,0,0.2,0,0.3
		c0,0,0,0,0,0.1c0,0,0,0,0,0.1c0,0,0,0.1,0,0.1l0,0.2l0.2-0.1c0,0,0.1,0,0.2-0.1C66.9,9,67,8.9,67.1,8.9c0.5-0.1,0.8-0.1,1-0.1h0.1
		c0,0,0.1,0,0.2-0.1c0.1,0,0.2-0.1,0.3-0.1c0,0,0.1,0,0.2,0c0.1,0,0.2,0,0.2,0h0.6c0.1,0,0.3,0,0.5,0.1c0.2,0.1,0.4,0.2,0.5,0.3
		c0.1,0.1,0.2,0.3,0.3,0.5c0.1,0.2,0.1,0.4,0.1,0.5l0,0.1c0,0.1,0,0.3-0.1,0.5c-0.1,0.2-0.2,0.4-0.3,0.6c-0.1,0.1-0.2,0.2-0.4,0.3
		c-0.2,0.1-0.3,0.2-0.5,0.3C69.7,12,69.6,12,69.6,12c0,0-0.1,0-0.1,0.1c0,0,0,0,0,0.1c0,0,0,0.1,0,0.1c0,0,0.1,0.1,0.1,0.1
		c0,0,0.1,0.1,0.3,0.2c0.2,0.1,0.3,0.2,0.5,0.3c0.2,0.1,0.3,0.2,0.4,0.3c0.1,0.1,0.3,0.2,0.4,0.2c0.1,0.1,0.3,0.1,0.4,0.2l0.2,0.1
		l-0.1,0c0,0-0.1,0-0.2,0.1c-0.1,0-0.2,0-0.4,0.1c-0.2,0-0.5,0.1-0.7,0.1h-0.8c-0.2,0-0.3,0-0.4,0c0,0-0.1,0-0.1,0
		c0,0-0.1,0-0.1-0.1c0,0-0.1,0-0.1-0.1c0,0-0.2-0.1-0.4-0.2c-0.3-0.1-0.5-0.2-0.6-0.3c-0.1-0.1-0.4-0.2-0.6-0.3
		c-0.3-0.1-0.4-0.2-0.5-0.2L66.4,12.5z M66.5,12c0,0,0.1,0,0.2,0c0.1,0,0.3-0.1,0.6-0.2c0.4-0.1,0.7-0.2,0.9-0.3
		c0.2-0.1,0.3-0.2,0.5-0.4c0.1-0.2,0.3-0.3,0.3-0.5c0.1-0.2,0.1-0.3,0.1-0.5v-0.1c0-0.2-0.1-0.3-0.3-0.4c-0.1,0-0.2-0.1-0.3-0.1
		c-0.1-0.1-0.2-0.1-0.3-0.1h-0.1c-0.1,0-0.2,0.1-0.5,0.3c-0.3,0.2-0.5,0.3-0.6,0.5c-0.1,0.1-0.2,0.3-0.3,0.5
		c-0.1,0.2-0.2,0.4-0.2,0.6c-0.1,0.2-0.1,0.3-0.1,0.3v0.2C66.5,12,66.5,12,66.5,12z"/>
	<path class="st1" d="M73.7,13.5l-0.2-0.2c-0.2-0.1-0.3-0.3-0.3-0.4c-0.1-0.1-0.2-0.2-0.2-0.3c-0.1-0.3-0.2-0.6-0.2-0.9v-0.3
		c0-0.3,0.1-0.5,0.2-0.8c0.1-0.3,0.3-0.6,0.6-0.8c0.2-0.2,0.5-0.3,0.7-0.4c0.2-0.1,0.5-0.2,0.8-0.2l0.2,0c0.1,0,0.2,0,0.3-0.1
		c0.1-0.1,0.2-0.1,0.3-0.1c0.2-0.1,0.4-0.1,0.5-0.1c0.1,0,0.2,0,0.4,0h0.4c0.1,0,0.3,0,0.5,0.1c0,0,0.1,0,0.1,0.1
		c0.1,0,0.1,0.1,0.2,0.1c0,0,0.1,0,0.3-0.1c0.1,0,0.2-0.1,0.3-0.1c0.1,0,0.1,0,0.2-0.1c0.1,0,0.2,0,0.3-0.1l0.1,0L79,8.9
		c-0.2,0.5-0.2,1.1-0.2,1.7c0,0.2,0,0.3,0,0.5c0,0.2,0,0.3,0,0.5c0,0.1,0,0.3,0,0.4c0,0.1,0,0.2,0,0.3v1.2c0,0.3,0,0.5,0,0.7
		c0,0.2-0.1,0.4-0.2,0.6c-0.1,0.2-0.2,0.4-0.4,0.5c-0.2,0.2-0.5,0.4-0.7,0.5c-0.2,0.1-0.6,0.2-1.1,0.3l-0.6,0.1h-0.5
		c-0.1,0-0.2,0-0.5,0.1c-0.3,0.1-0.5,0.1-0.7,0.1c-0.2,0-0.3,0-0.5-0.1c-0.8-0.2-1.2-0.6-1.2-1.1v-0.1c0-0.3,0.1-0.5,0.4-0.8
		c0.1-0.1,0.2-0.3,0.4-0.4c0.2-0.1,0.3-0.2,0.4-0.3L73.7,13.5z M75.1,12.7c0.2,0.1,0.5,0.2,0.8,0.2c0.2,0,0.4,0,0.5-0.1
		c0.2,0,0.3-0.1,0.3-0.1l0.2-0.1l0,0.2c0,0,0,0.1,0,0.1c0,0.1,0,0.1-0.1,0.1c0,0,0,0.1,0,0.1c0,0.1,0,0.1,0,0.1c0,0,0,0.1,0,0.1
		c0,0,0,0.1,0,0.1h-0.3h-0.3c-0.1,0-0.3,0-0.6,0.1c-0.3,0.1-0.6,0.1-0.7,0.2c-0.2,0.1-0.4,0.3-0.5,0.5c-0.1,0.2-0.2,0.3-0.2,0.5v0.1
		c0,0.1,0,0.1,0,0.2c0,0.1,0.1,0.1,0.2,0.2c0.1,0.2,0.3,0.2,0.5,0.2h0.4c0.2,0,0.4,0,0.6-0.1c0.2-0.1,0.4-0.2,0.6-0.4
		c0.2-0.2,0.3-0.3,0.4-0.5c0.1-0.2,0.2-0.4,0.2-0.6l0-0.1c0-0.2,0.1-0.4,0.1-0.5c0-0.1,0-0.3,0-0.7c0-0.2,0-0.4,0-0.6
		c0-0.2,0-0.4,0-0.5c0-0.2,0-0.4,0-0.6v-0.4c0-0.1,0-0.1-0.1-0.2c0-0.1-0.1-0.1-0.1-0.1c-0.1,0-0.1-0.1-0.2-0.1
		c-0.1,0-0.2-0.1-0.2-0.1c-0.1-0.1-0.3-0.1-0.5-0.1c-0.2,0-0.3-0.1-0.4-0.1h-0.2c-0.1,0-0.2,0.1-0.3,0.2c-0.2,0.1-0.3,0.3-0.4,0.4
		c-0.1,0.1-0.2,0.3-0.2,0.5c-0.1,0.2-0.1,0.3-0.1,0.4v0.4c0,0.2,0.1,0.4,0.2,0.6C74.7,12.4,74.9,12.6,75.1,12.7z"/>
	<path class="st1" d="M81.6,11.3v0.3c0,0.1,0,0.2,0.1,0.5c0.1,0.2,0.2,0.4,0.3,0.6c0.1,0.1,0.2,0.2,0.4,0.2c0.2,0.1,0.3,0.1,0.5,0.1
		c0.2,0,0.3,0,0.3,0h0.3c0.1,0,0.3-0.1,0.6-0.2c0.3-0.1,0.6-0.2,0.9-0.3c0.2-0.1,0.5-0.2,0.8-0.4c0.3-0.2,0.5-0.3,0.5-0.3l0.2-0.1
		L86.3,12c0,0-0.1,0.1-0.2,0.3c-0.1,0.2-0.2,0.4-0.3,0.6c0,0.1-0.1,0.2-0.1,0.2c0,0.1-0.1,0.1-0.1,0.2c0,0.1-0.1,0.1-0.1,0.2
		l-0.1,0.2h-0.3h-1.4c0,0-0.1,0-0.2,0c-0.1,0-0.2,0-0.3,0c-0.1,0-0.2,0-0.3,0c-0.1,0-0.2,0-0.2,0h-0.5c-0.3,0-0.5,0-0.7,0
		c-0.2,0-0.4-0.1-0.6-0.2c-0.2-0.1-0.4-0.2-0.5-0.4c-0.2-0.2-0.3-0.4-0.4-0.6c-0.1-0.2-0.1-0.4-0.1-0.6v-0.6c0-0.3,0.1-0.7,0.3-1
		c0.2-0.3,0.4-0.6,0.8-0.9c0.2-0.2,0.4-0.3,0.5-0.4c0.2-0.1,0.4-0.1,0.5-0.2c0.2,0,0.4-0.1,0.7-0.1c0.3,0,0.5-0.1,0.6-0.1l0.4-0.1
		h0.4c0.2,0,0.5,0,0.8,0.1c0.3,0.1,0.6,0.2,0.8,0.4c0.2,0.1,0.3,0.3,0.4,0.5c0.1,0.2,0.1,0.3,0.1,0.5v0.4L86,11.3l-0.3,0
		c-0.1,0-0.2,0-0.3,0c-0.1,0-0.2,0-0.3,0c-0.1,0-0.2,0-0.3,0c-0.1,0-0.2,0-0.4,0c-0.1,0-0.4,0-0.7,0H81.6z M84.4,10.5l0-0.2v-0.2
		c0,0,0-0.1-0.1-0.2c-0.1-0.1-0.1-0.2-0.2-0.2c-0.1-0.1-0.2-0.1-0.3-0.2c-0.1-0.1-0.2-0.1-0.4-0.1c-0.1,0-0.2,0-0.2,0H83
		c0,0-0.1,0-0.3,0.1c-0.2,0.1-0.3,0.2-0.4,0.2C82.2,9.8,82.1,9.9,82,10c-0.1,0.1-0.2,0.2-0.2,0.2l-0.1,0.3h0.3L84.4,10.5z"/>
	<path class="st1" d="M56.9,8.4c0,0-0.7-0.1-0.9-0.2L55.5,8c0,0,0,0,0.8-0.7c0,0,0.8-0.5,1.1-0.6l1.3,0.5
		C58.7,7.3,57.1,8.2,56.9,8.4z"/>
</g>
</svg>
