<?xml version="1.0" encoding="UTF-8" standalone="no"?>
<!-- Created for MapSVG plugin: http://mapsvg.com -->

<svg
   mapsvg:geoViewBox="-10.617532 55.384216 -5.429631 51.419751"
   width="69.910004"
   height="87.080002"
   version="1.1"
   id="svg1"
   xmlns="http://www.w3.org/2000/svg"
   xmlns:svg="http://www.w3.org/2000/svg"
   xmlns:mapsvg="http://mapsvg.com">
  <defs
     id="defs1" />
  <path
     d="m 43.08,0.48 1.59,0.25 1.42,-0.73 1.78,1.46 0.21,0.72 1.05,0.48 1.7,-1.04 1.19,0.17 0.63,0.4 1.11,1.76 0.28,-0.71 0.8,-0.6 2.82,1.04 0.58,-0.42 1.88,0.61 L 60.5,4.2 60.45,6.4 60.81,7.29 63,6.88 65.09,8 l 0.82,-0.54 0.36,-1.39 0.58,-0.79 0.96,0.1 0.73,0.96 1.37,0.93 -0.08,2.25 -2.24,0.49 0.46,1.27 -0.34,2.04 0.38,0.89 -0.59,3.27 0.2,0.71 0.57,0.43 -0.17,0.29 -1.42,-0.47 -1.37,0.24 -2.01,1.02 0.45,0.73 -1.21,1.63 -1.33,-0.61 -0.75,0.38 -1.7,-1.11 -1.38,0.36 -1.11,-1.94 -0.06,-0.68 -1.27,-1.19 -0.94,0.12 -2.02,-1.53 0.03,0.68 -0.84,-0.16 -0.22,0.39 -0.01,0.56 0.62,0.56 -0.19,0.96 -0.86,0.77 -0.82,0.1 -1.35,0.77 -0.76,1.15 0.21,1.85 -0.55,0.13 0.21,1.52 -0.92,1.06 -0.06,0.6 0.99,0.08 0.48,0.69 2.07,-1.29 1.06,0.9 0.63,1.16 1.07,0.46 0.26,1.58 0.93,1.15 -1.03,1.1 0.03,0.36 2.67,3.11 0.83,2.48 0.65,0.94 0.43,0.02 v 0 l -2.04,1.58 -0.12,1.09 -0.8,0.48 -0.71,1.5 -0.84,0.42 -1.08,-0.13 -1.23,1.36 -0.59,1.8 0.39,1.12 1.98,-0.65 0.38,0.3 0.09,0.77 -0.53,1.25 -0.61,0.42 -0.04,1.04 -1.49,1.89 -1.03,0.45 -2.89,-0.91 -0.97,0.14 -1.24,-0.56 -1.05,0.1 -1.52,0.69 -2.96,3.05 -0.52,0.74 0.58,0.23 -0.84,3.8 0.28,3.45 -1.08,2.75 -0.21,0.21 -1.26,-0.32 -0.35,0.36 -0.11,2.45 -1.08,1.57 -2.57,2.33 0.44,2.36 -2.61,4.36 -1.02,3.24 -0.35,0.56 -3.21,2.25 -0.57,-0.23 -2,0.21 v 0 l -2.1,-0.67 0.34,-0.51 0.72,0.06 0.48,-0.38 0.36,-0.71 -0.88,-0.82 0.01,-1.4 -0.66,-0.19 -1.01,-2.2 0.83,-3.17 -0.24,-2.03 -0.28,-0.34 -1.51,-0.31 -0.98,-1.26 1.5,-0.9 0.17,-1.01 1.03,-0.37 0.68,-1.17 1.63,-1.14 0.19,-0.65 -0.79,-1.31 0.32,-1.34 -0.89,-1.7 -1.1,-0.58 -1.65,-2.05 -2.42,-0.76 -0.19,-1.21 -0.76,-0.54 -0.66,-1.11 0.61,-1.03 -1.14,-0.9 -0.12,-0.58 0.22,-1.4 0.62,-0.61 -0.45,-1.23 -0.03,-1.55 1.06,-2.1 -2.05,-1.22 0.1,-1.1 -1.26,-0.69 0.33,-0.63 L 11.85,42.9 10.54,41.39 8.61,40.2 7.99,39.22 7.32,39.18 6.61,40.08 6.47,40.98 4.52,40 3.02,36.91 0,36.89 0.56,35.78 1.72,35.6 1.95,35.3 1.06,34.55 l -0.5,-1.64 1.94,-2 0.2,-2.4 -0.59,-1.15 1.32,-1.1 1.32,-0.56 0.57,-1.4 v 0 l 1.96,-0.64 0.86,-2.52 2.01,-0.29 1.14,0.44 4.42,-0.46 0.93,0.46 1.5,-1.27 1.57,-2.31 -0.07,-0.94 -0.8,-1.6 1.58,-0.65 0.24,-0.6 -0.63,-3.05 0.38,-1 -0.7,-2.08 v 0 l 0.79,-1.64 1.03,-0.08 0.27,1.35 0.68,0.47 1.08,1.6 2.26,1.27 0.53,0.61 1.33,-0.63 -0.04,-1.52 -0.87,-1.08 0.97,-0.29 1.67,2.79 0.75,-0.06 0.26,0.41 0.77,-0.77 0.65,0.13 0.88,-0.96 0.13,-0.73 0.7,0.21 0.57,-0.29 2.12,0.67 0.72,0.66 0.53,-1.37 0.36,0.04 0.91,-1.18 0.78,-0.36 0.36,-1.74 1.56,0.14 0.59,-1.6 -0.23,-2.78 0.93,0.15 z"
     title="Carlow"
     id="IE-CW" />
</svg>
