<?xml version="1.0" encoding="UTF-8" standalone="no"?>
<!-- Created for MapSVG plugin: http://mapsvg.com -->

<svg
   mapsvg:geoViewBox="-10.617532 55.384216 -5.429631 51.419751"
   width="77.319977"
   height="82.330002"
   version="1.1"
   id="svg1"
   xmlns="http://www.w3.org/2000/svg"
   xmlns:svg="http://www.w3.org/2000/svg"
   xmlns:mapsvg="http://mapsvg.com">
  <defs
     id="defs1" />
  <path
     d="m 13.86998,20.69 0.47999,2.94 1.8,-0.33 0.17001,0.23 1.33999,-0.63 0.27001,0.69 -0.45,0.81 0.41999,0.3 0.22001,-0.42 1.2,1.01 -0.78001,0.86 1.02001,0.75 0.88,-1.65 -0.36001,-2.11 0.34,-1.09 0.87,0.04 0.69,2.15 1.16001,1.44 0.90999,-0.04 1.02001,-1.69 1.12,0.08 0.82999,0.86 1.78001,-0.27 0.05,-1.32 0.79,-2.53 1.25999,-2.23 -0.57999,-3.63 0.47999,-0.47 0.77001,0.49 0.88999,-0.1 0.04,-1.4 0.8,-0.51 0.25,-0.67 1.2,0.75 0.88,-0.65 0.58,-1.9 1.41,-0.55 0.27,-1.68 0.92,-0.2 0.63,-0.79 0.8,-0.18 -0.02,-2.45 0.39,-0.17 1.14,0.35 0.97,-0.63 0.18,-1.37 0.75,-0.63 0.31,-1.22 1.22001,-0.93 3.26,1.28 h 0.74 l 0.33,-0.43 v 0 l 0.63,0.06 0.13999,0.95 1.36001,2.33 1.31999,1.42 -0.27999,1.07 0.87,1.26 0.29,-0.97 1.82,0.38 0.2,1.18 0.61,1.05 -0.66,0.79 0.01,2.13 -1.66001,-0.43 -0.26999,2.09 -0.99001,2.37 -0.1,1.28 0.38,0.3 1.36,-0.85 2.87,-0.04 0.8,-1.1 1.31,-0.75 1.19,0.9 0.85001,-0.39 0.85,0.65 0.55,-0.53 1.16,1.52 1.06,-0.22 0.11,1.76 1.23,5.1 -1.13,1.25 0.7,0.37 0.91,1.7 1.28,-0.1 1.91001,1.71 1.12999,0.14 1.31,0.69 0.08,1.4 0.55,1.3 v 0 l 1.02,0.88 0.81,-0.39 1.03,0.27 0.22,1.27 0.61,0.35 -0.11,0.65 0.48,0.85 -1.06,1.02 -0.3,3.19 -0.64999,0.27 -0.30001,-0.31 -1.13,0.19 -0.26,1.07 -1.12,0.9 -0.5,-0.21 -0.78,-1.42 -0.66999,-0.32 -0.54001,0.54 -1.25,-0.02 -0.31,0.53 -1.07,-0.04 -0.41,2.69 -0.57,0.63 -0.75,-0.51 -0.51,1.34 -0.9,-0.16 -0.29999,0.71 0.17999,0.71 -0.93999,0.41 -2.23001,-1.69 -0.22,0.15 -0.15,0.36 0.68,1.39 -1.13,0.5 -0.83999,-0.55 0.05,1.73 -0.77,0.84 0.58001,1.97 -1.73,0.13 -0.86,1.12 -2.08001,-0.33 -0.72,2.47 0.15,0.57 0.77,0.55 0.02,1.24 -3.48,-2.06 -1.42,-0.3 -0.33,0.38 -0.43,1.49 1.64,0.45 3.16,1.67 0.98,1.67 -0.43,1.57 0.91,1.59 -1.31,0.31 -1.6,-0.71 -2.06,0.91 -0.33,0.82 0.71,0.94 -0.15,1.06 -1.51,1.02 -0.94,-0.21 -0.65,0.35 -0.74,2.64 -1.5,2.36 -1.6,1.15 0.43,1.22 0.06,2.01 -0.64,1.69 -1.51,0.82 -0.76999,-0.94 -2.80001,-0.61 -1.43,0.79 -0.27999,1.29 -2.34001,-0.14 -1.6,-1.37 -1.35,-0.47 -1.09,0.22 -1.12,-0.57 -1.52,0.2 -2.45999,-1.34 -1.33,0.12 -0.53,0.65 -2.7,-1.82 -3.43,1.09 h -3.34 l -0.74,0.51 -2.34,2.94 -2.99,0.78 v 0 L 6.42,76.89 2.21,70.15 0,65.56 0.04,58.83 1.69,55.63 4.13,53.92 5.94,51.4 6.27,49.44 5.68,48 l 0.16,-0.57 1.25,-0.45 1.37,-1.79 1.51,-0.04 0.72,-2.67 -0.29,-2.03 0.18,-0.57 0.59,-0.16 1.38,1.14 1.21,-0.25 0.19,-2.36 2.01,-1.66 1.47,-0.69 0.41,-2.67 0.61,-1.42 -0.38,-0.73 -1.65,-0.35 -1.45,-1.54 -0.44,-3.53 -0.65,-1.36 z"
     title="Longford"
     id="IE-LD" />
</svg>
