<?xml version="1.0" encoding="UTF-8" standalone="no"?>
<!-- Created for MapSVG plugin: http://mapsvg.com -->

<svg
   mapsvg:geoViewBox="-10.617532 55.384216 -5.429631 51.419751"
   width="195.59"
   height="172.41"
   version="1.1"
   id="svg1"
   xmlns="http://www.w3.org/2000/svg"
   xmlns:svg="http://www.w3.org/2000/svg"
   xmlns:mapsvg="http://mapsvg.com">
  <defs
     id="defs1" />
  <path
     d="m 20.03999,125.25 0.73,0.53 -1.21,0.87 0.35,1.24 -0.42,0.49 -1.5,0.49 -0.92,-0.14 -0.34,0.51 -1.56,0.47 -0.78,-0.24 -0.05,-0.83 0.47,-0.2 -0.59,-0.29 0.41,-0.77 1.18,-0.67 -0.09,-1.22 1.11,-0.2 1.23,0.63 1.47,-1.1 z m 14.61,-19.49 2.22,0.34 0.08,0.67 -1.07,1.12 0.33,0.53 -2.69,1.22 -2.34,0.45 -2.92,-0.02 -0.57,-0.32 -3.5,0.38 0.75,-0.87 0.13,-0.71 -0.55,-0.67 0.5,-0.69 0.75,-0.16 0.33,0.24 0.13,-0.65 1.36,-0.69 3.28,-0.47 0.09,-0.73 1.28,-1.83 0.48,-0.24 0.49,0.35 z m 0.11,-11.88 1.49,0.2 0.51,0.49 0.07,0.34 -0.39,0.28 0.42,0.57 -0.01,0.75 -0.62,0.04 -0.92,-0.51 0.48,-0.39 -0.19,-0.57 -1.25,-0.06 0.19,-0.28 -0.42,-0.71 0.34,-0.04 -0.02,-0.28 z m 11.01,-24.14 0.77,0.04 0.86,2.45 -0.55,1.84 -1.56,0.55 0.02,-0.77 0.55,-0.67 -0.99,-1.54 0.23,-0.32 -0.23,-0.57 0.93,0.1 -0.09,-0.79 -0.47,-0.12 0.14,-0.71 z m -2.75,-1.07 -0.09,3.07 -0.49,-0.97 0.13,-0.44 -1.03,0.1 -0.01,0.73 -0.47,-0.28 -0.01,0.61 -0.94,-0.08 -0.77,-2.04 1.04,-0.87 2.04,-0.02 1.1,-0.61 z m -8.32,-4.17 2.27,1.88 0.54,0.89 -0.13,0.93 1.28,1.29 -0.22,0.44 -0.67,0.06 v 0.38 l -2.58,0.17 -0.08,0.38 0.82,0.48 0.23,0.81 -0.49,0.65 0.15,0.53 -0.61,0.55 0.57,0.08 0.22,1.6 -0.86,1.21 0.02,1.35 -0.72,-0.18 -0.16,0.22 0.94,0.55 0.51,-0.28 1.03,0.45 0.07,-0.26 -1.1,-0.51 -0.14,-0.44 0.83,-1.03 0.89,-0.38 -0.48,-0.93 2.82,0.85 -0.82,1.38 0.13,2.85 -0.54,0.65 -0.4,-0.77 -0.21,0.87 -0.36,0.12 -0.08,0.81 1.92,-0.08 -0.68,1.27 -0.9,0.18 -0.51,0.47 0.02,0.49 0.78,-0.32 0.15,0.83 -0.85,0.61 -0.79,-0.45 -1.17,0.97 0.13,0.53 0.48,-0.34 1.06,0.18 0.63,2 -0.16,1.34 -0.65,1.01 -0.48,1.76 0.22,0.69 -2.05,0.04 -0.73,-1.07 -1.4,-0.91 v -0.43 l -0.89,-0.2 -1.54,-1.72 1,-1.28 -0.64,-0.71 -0.6,-0.08 -1.18,-0.89 -0.41,-1.58 -1.06,-0.06 -1.05,1.21 -1.61,-0.1 -0.46,-0.38 0.08,-1.03 -0.44,-0.61 0.58,-0.45 0.04,-1.78 -0.31,-0.45 0.76,-2.18 -0.33,-0.77 0.71,-0.47 0.19,-0.53 -0.92,-1.27 -2.1,-1.52 -0.89,-0.22 -0.67,0.22 -2.02,1.62 0.07,0.3 -0.49,-0.51 -0.78,-0.08 -0.7,0.91 -0.44,-1.82 -0.86,-0.69 -1.14,0.97 h -0.97 l -1.07,0.53 -4.2,-0.77 -0.48,0.61 0.61,0.69 -0.01,0.46 -2.86,-1.11 L 4.21,73.72 2.86999,73.3 2.58,72.71 0,73.54 l 2.53,-1.43 0.43,0.34 1.45,-0.36 0.71999,0.44 0.64,-0.14 2.59,-3.31 0.13,-0.95 -0.62,-0.5 0.1,-1.76 0.29,-0.26 2.03,1.56 2.85,-0.26 0.4,1.37 1.31,0.63 0.62,-0.65 3.03,0.28 0.48,-1.8 0.67,-0.16 2.17,-2.54 1.4,-0.38 1.53,0.04 0.73,0.46 1.69,2.22 1.5,-0.99 1.19,0.42 0.57,-0.36 1.24,0.59 0.06,-1.41 0.83,-0.08 0.49,-0.5 0.17,-1.39 0.69,0.38 z m -28.58,-18.67 0.27,0.4 -0.25,0.22 -0.99,-0.26 -0.15,0.34 L 3.99,46.77 3.94,47.46 3.31,48.02 2.54,48 2.84,47.46 3.69,47.3 3.15,46.86 3.77,46.78 3.56,46.34 l 0.48,-0.06 0.01,-0.44 1.61999,-1.53 0.63,0.18 z m 0.24,-6.08 0.96,0.12 -0.12,0.52 1.54,1.37 -0.06,0.85 0.51,0.68 -1.73,-0.44 -0.09,0.79 -1.04,0.52 -0.13,-0.38 0.44,-0.3 h -0.46 l -0.37,-0.89 0.75,-0.04 -0.56,-0.83 0.27,-0.56 0.58,-0.18 -0.76,-1.03 z m 123.41,-12.21 0.55,0.54 0.2,0.88 -0.98,-0.08 -0.09,-1 -0.37,-0.14 -0.2,0.28 -0.06,-0.84 -0.82,-0.9 -3.37,-1.11 -0.92,-0.76 0.6,-0.16 4.12,1.67 z M 30.23999,8 l 0.7,0.1 0.7,1 0.57,-0.24 -0.76,1.36 0.33,0.94 0.99,-0.28 0.09,0.56 0.46,-0.22 0.49,0.3 0.25,1.38 0.82,0.3 0.08,1.4 0.77,-0.18 0.37,0.46 0.2,-0.46 0.3,0.06 0.27,0.78 0.31,0.04 0.93,-0.12 1.29,-1.02 0.4,0.76 -0.27,0.26 0.47,0.52 -0.14,0.58 0.99,0.18 0.06,0.26 1.12,-0.34 0.36,-0.54 0.97,-0.4 -0.87,1.91 0.42,0.84 -0.46,0.54 -0.73,2.41 -0.9,-0.22 -0.23,0.48 -1.34,0.84 1.18,1.1 -2.73,0.62 -1.16,-0.36 -0.35,0.4 0.59,0.84 -1,0.06 -0.57,-0.5 -0.43,-1.45 -1.26,-2.12 -0.44,-1.97 -0.98,0.06 1.02,1.57 1.43,3.78 -0.34,0.22 -1.24,-0.48 -1.56,-0.08 -0.13,-0.4 -1.42,0.58 -0.8,-0.28 -0.47,0.18 1.24,1.99 -0.61,0.44 -1.97,-0.26 0.24,0.8 1.49,0.8 0.61,0.78 0.19,1.47 -1.07,0.52 0.71,1.29 -0.5,0.8 -0.51,-0.8 -2.1,-1.27 -0.68,-0.22 -0.9,0.58 -0.25,-0.14 -0.13,0.58 1.11,0.5 0.02,1.09 0.54,0.74 -0.65,1.73 -1.46,-0.64 -0.89,0.16 -0.76,0.42 -0.43,1.11 -1.5,0.14 -0.73,0.42 -0.17,0.58 0.37,0.54 3.06,0.74 0.7,0.5 0.22,0.6 -1.39,0.36 -0.86,0.83 0.78,1.15 0.27,1.95 -0.85,0.3 0.01,-1.13 -1.29,0.22 -0.31,0.34 0.19,0.6 -0.65,-0.24 0.3,0.89 -0.51,0.81 0.41,0.5 2.59,0.5 -0.2,1.35 0.86,0.67 -1.33,1.89 -1.05,0.52 -1.21,-0.08 -2.35,-1.81 -0.75,0.02 -0.25,0.4 -0.54,-0.46 -0.77,-2.34 1.26,-0.5 -0.42,-3.79 0.82,-1.87 0.03,-1.09 1.23,-0.76 0.56,-0.81 1.06,-2.82 -0.21,-0.8 0.88,-1.39 0.02,-1.65 -1.07,-2.53 1.21,-1.07 0.49,-1.04 2.16,-0.14 0.82,-1.61 0.12,-1.53 -1.31,-1.14 -0.41,-0.02 -0.31,0.52 -1.13,-0.48 -3.11,-2.09 0.27,-0.48 0.46,-0.08 0.54,0.58 0.3,-0.32 1.25,0.26 0.65,0.76 0.25,0.9 h 1.46 l -0.68,-0.54 -0.44,-1.69 -0.98,-0.38 -1.18,0.22 -0.46,-0.52 0.06,-0.28 0.65,-0.12 0.73,0.38 0.19,-0.32 -0.35,-0.62 0.33,-1.4 0.7,-0.78 v -0.5 l -0.63,-0.5 0.92,-0.14 0.04,-0.52 0.57,-0.64 2.36,-0.48 -0.34,-0.36 0.58,-0.92 0.68,0.62 1.68,-0.14 -0.07,-0.36 0.38,-0.3 -0.33,-0.68 0.71,-0.74 1.59,0.42 -0.02,-0.92 0.4,-0.16 -0.85,-0.66 -0.08,-0.5 z m 25.1,-7.13 0.77,-0.28 0.52,1.58 1.89,-0.66 0.04,0.7 0.79,0.14 1.35,1.46 0.99,-0.12 0.24,0.26 0.83,-0.36 0.31,0.66 1.49,0.26 0.41,0.42 0.71,-0.08 0.28,0.54 1.05,0.28 0.15,-0.26 0.51,0.34 0.72,-0.28 0.14,-0.54 0.85,0.44 0.49,1.04 0.68,-0.64 0.84,-0.16 0.85,-1.42 0.69,0.64 2.09,-0.9 0.59,0.82 1.46,-0.48 0.08,0.74 0.83,-0.62 0.41,0.14 -0.01,0.38 0.9,0.2 0.45,-0.64 0.28,0.3 1.34,0.14 0.14,1.6 1.14,0.28 0.58,-0.96 1.71,-0.28 -0.42,1.18 2.02,0.46 1.9,-0.82 -0.29,-0.9 0.57,-0.36 0.27,0.44 0.98,0.38 1.06,-0.18 0.06,-0.32 1.14,1.34 1.48,0.26 0.57,0.54 0.56,-0.8 0.94,0.36 1,-0.44 2.3,0.52 2.16,0.06 0.4,0.82 -0.21,1.5 1.11,0.4 0.5,-0.3 0.4,-1.68 0.72,-0.72 h 0.86 l -0.14,-0.84 1.88,-1.4 0.15,-0.44 -0.35,-0.2 -0.12,-0.68 0.41,-0.34 1.06,1.34 1.45,0.86 2.24,0.34 1.63,0.82 0.74,-0.12 2.29,0.54 1.18,1.2 0.58,1.32 -0.44,1.89 0.23,1.22 -0.49,-0.16 -0.07,0.36 0.16,1.73 h 1.05 l 0.23,-0.5 -0.22,-1.02 h 1.76 l 1.53,-1.75 1.04,2.43 -1.13,3.05 0.16,1.69 -0.68,1.18 -1.71,1.37 -0.89,0.18 -0.78,0.84 -0.91,0.06 -0.34,0.56 0.2,0.64 2.04,-1.53 h 0.62 l -0.06,0.56 0.27,0.16 1.49,-1.43 0.48,-1.1 2.55,-0.38 0.29,1.33 -0.69,1.45 0.05,0.64 -1.05,0.78 -0.04,-0.66 0.64,-1.02 -1.03,0.52 -0.92,1.06 0.41,0.58 -0.41,1.99 1.05,0.58 0.61,-0.16 1.12,0.4 -0.01,0.34 1.46,-0.14 0.85,0.7 0.03,0.5 1.04,0.36 0.3,-0.42 0.38,0.32 0.35,0.88 -0.65,0.36 v 0.52 l -0.37,0.24 2.5,1.45 -0.19,1.29 0.62,1.83 -0.1,0.93 -0.52,0.08 0.47,1.07 -0.42,-0.08 0.49,2.25 -0.1,1.51 0.27,0.72 0.37,0.12 0.24,-5.41 v 0 l 3.52,2.7 0.5,0.99 0.72,0.12 2.19999,-0.62 2.26,0.36 0.61,-2.27 1.26,-0.28 0.94,0.66 0.69,-1.69 1.11001,1.13 2.54,1.41 3.64,0.28 1.63,0.7 1.81,0.28 -0.34,0.93 -0.85,0.06 0.35,1.05 1.03,0.22 -0.12,1.05 1.34,0.26 0.87,1.37 -1.03,1.59 -1.33,0.91 -1.98,0.22 -0.68,0.44 0.52,2.22 -0.19,0.46 -1.43,0.71 0.4,2.44 -1.38,0.63 -2.92,2.36 -0.82,0.22 -0.93,1.55 -0.05,3.01 0.51,0.67 -0.61,0.75 v 0.53 l 1.84,-0.22 1.01,0.28 1.42,-0.55 0.71,0.42 0.71,-0.48 0.33,-0.85 0.25,1.09 2.09,1.58 0.21,1.41 0.36,0.22 2.16,-0.02 1.69,-0.79 0.01,-0.55 1.71,-1.03 1.22,-0.18 -0.62,2.81 1.12,1.96 -0.1,1.92 1.7,-0.12 0.52,0.61 -0.43,0.71 1.36,1.72 3.58,1.37 2.9,0.57 1.26,-0.4 0.51,-0.55 0.15,-0.89 1.35,-0.55 1.67,-0.04 -0.04,-0.75 1.76,-2.85 1.94,1.41 1.4,-0.57 1.12,-2.85 2.22,-0.75 0.5,-0.63 0.29,-1.05 -0.68,-2.48 1.76,-0.3 0.76,-0.85 1.41,-0.65 0.31,0.34 -0.08,0.73 1.99,1.55 1.46,0.85 0.98,0.04 2.82,1.76 -0.52,1.03 -0.63,3.19 0.26,1.46 -0.29,2.63 1.24,3.09 v 0 l -1.92,-0.67 v 1.23 l -1.6,-1.05 -3.21,-1.33 -3.11,-2.08 -1.55,0.95 -0.77,1.35 0.83,2.49 0.99,-0.04 0.44,0.42 -1.32,0.61 -0.77,5.14 1.89,1.19 0.81,1.03 3.09,1.68 0.17,1.28 -0.72,0.67 1.62,1.26 -1.52,1.22 0.38,1.58 -1.35,0.47 -3.18,-1.91 -0.93,0.47 -2.3,-0.06 0.33,1.5 0.82,0.95 -0.37,2.09 -1.83,0.63 -1.11,-0.06 0.6,1.14 0.13,1.24 0.52,0.69 -0.31,0.73 -0.96,0.51 0.72,1.64 -1.87,0.67 -0.94,0.77 3.6,1.42 1.04,1.02 1.41,0.63 0.25,1.42 0.58,1.02 1.34,0.87 0.04,0.67 -1.53,1.3 0.47,0.89 -0.35,2.09 -0.55,1.44 -1.46,2.13 0.47,1.83 -2.25,0.29 0.21,2.1 -1.73,0.67 -0.51,0.71 -2.81,1.18 -0.63,0.69 0.25,1.1 -1.97,0.2 -1.28,-1.2 -0.56,0.08 -1.66,3.91 -1.23,1.49 v 0 l -3.2,2.89 -2.54,-0.53 -2.53,0.77 -1.53,-0.08 -0.14,1.88 -1.34,-0.55 -1.74,-1.85 -1.9,-1.39 -1.45,1.45 -1.61,0.12 -0.88,1.77 0.73,0.57 -0.29,3.1 -1.32,1.35 0.72,1.69 0.02,1 -0.96,0.77 -0.58,1 -0.75,-1.14 -2.01,1.22 1.21,2.55 -2.18001,0.73 -1.88,-0.29 -0.49,0.65 0.42,2.43 1.6,3.29 -1.13,1.17 0.16,1.27 -0.26,0.35 -1.5,0.27 -0.72,1.37 -3.03999,1.29 -1.19,0.98 -0.23,2.54 -0.61,1.66 -1.89,-0.2 -0.79,1.82 -0.73,0.33 -0.68,0.86 -0.73,-0.04 -1.03,-0.78 -0.95,-0.22 -1.14,0.57 -0.84,1.08 -0.93,0.47 -0.73,-0.65 -1.77,0.53 -1.11,-0.98 -2.38,-0.33 0.05,-3.42 -4.9,-3.23 -0.1,-1.78 -0.66,-1.12 0.08,-0.59 -0.75,-2.21 -0.19,-0.31 -1.49,-0.18 -0.07,-1.98 -0.75,0.33 -0.21,0.57 -0.9,0.61 -0.72,1.78 -2.16,-0.25 -0.67,-0.61 -0.29,-1.61 0.77,-2.12 -1.2,-0.78 -0.44,-1 -5.39,0.84 -1.47,0.84 -2.67,-0.24 -4.39,0.53 -0.33,-0.63 -3.69,-2.65 -0.93,-0.43 -2.59,-0.25 -1.33,-3.04 -0.29,-2.73 -0.67,0.06 -1.74,2.47 -1.24,-0.14 -2.44,-1.18 -2.3,0.2 -1.32,0.67 -0.94,0.08 -1.15,-1.59 -1.03,-0.75 -2.48,1.16 -1.35,1.31 -3.95,-0.25 -5.13,0.69 -1.4,-0.24 -2.64,-2.04 -3.87,-2.06 -1.6,-0.51 -1.42,-0.98 v 0 l 0.38,-0.59 -1.12,-0.84 0.03,-0.35 h 0.5 l 0.16,-0.37 -0.83,-0.31 -0.96,-1.06 1.29,-0.67 -1.15,-0.79 -0.65,0.65 -2.3,-0.69 -0.34,-0.94 -0.01,-1.61 0.85,-2.36 -1.4,-2.3 0.19,-0.69 -0.29,-0.86 0.78,-0.63 0.16,-2.32 1.56,-2.56 0.4,-2.6 -0.49,-2.2 -1.1,-0.67 0.43,-1.99 0.42,-0.37 2.32,0.24 3.51,-0.98 3.41,-0.2 1.14,-0.53 1,-0.96 2.48,-0.81 1.28,0.06 0.35,0.75 -0.17,0.39 0.45,0.22 3.11,0.28 4.21,-0.81 1.04,-0.93 3.85,-0.98 0.38,1.02 1.98,0.1 -0.05,-1.14 1.41,0.18 0.29,0.59 0.89,-0.49 0.78,0.61 -1.21,0.79 1.63,-0.1 0.29,-0.63 2.79,0.28 1.39,-1.52 0.13,-0.65 0.94,-0.47 -0.09,-0.43 0.91,-0.04 1.34,-1.04 -0.93,-0.81 -1.87,-0.49 -0.79,0.37 1.04,0.75 -2.27,-0.59 -0.31,-0.65 -2.43,-0.55 -1.12,0.18 -0.92,-0.93 1.67,0.24 0.21,-0.49 -2.17,-1.08 0.01,-0.53 0.72,0.02 0.42,0.57 0.49,-0.33 -0.71,-1.91 0.94,-0.61 -0.88,-0.71 0.19,-0.83 0.76,-0.43 0.99,0.14 0.38,-0.41 1.25,0.43 0.71,-0.36 -2.3,-0.67 0.88,-0.51 1.34,-0.18 0.51,0.3 1.64,-0.87 0.92,0.22 -0.62,-0.95 -1.94,-0.22 0.4,-0.69 -3.23,-0.06 2.31,-0.99 -0.65,-1.03 0.83,-0.04 0.3,-0.55 -1.06,-0.24 1.07,-0.38 0.02,-0.38 2.26,-0.28 -1.06,-1.22 -1.66,-0.38 -0.88,1.09 -0.78,-0.06 0.89,-0.93 v -0.69 l -0.98,0.1 -1.03,1.03 0.2,0.53 -0.68,0.24 -0.62,-0.14 -0.42,-1.13 -2.1,0.93 0.09,-0.51 0.89,-0.53 -0.09,-0.38 -1.35,0.18 -1.54,0.73 0.42,0.43 -0.19,0.32 -1,-0.85 0.7,-0.3 0.28,-0.61 -0.63,-0.61 -0.28,0.16 0.23,0.32 -1.06,0.55 0.2,0.53 -0.52,0.22 -0.41,-1.03 -1.08,-0.2 0.2,-0.71 -2.15,0.45 -1.06,-0.42 -0.8,0.18 -0.79,0.75 -0.58,-0.55 -2.04,-0.65 -0.49,0.26 0.6,0.81 -0.34,0.43 -3.09,-1.5 -0.77,-0.71 -0.58,0.18 -0.14,0.38 0.83,1.03 -1.78,0.16 -0.47,1.09 -1.8,1.94 0.19,0.24 -6.26,2.59 -1.77,0.36 -1.92,-0.28 -0.64,0.63 -2.36,-1.6 -2.38,-0.14 0.2,-1.26 1.49,-0.12 -0.35,-1.13 0.73,-0.41 0.22,-0.69 -0.02,-1.07 -0.48,-0.36 -0.27,-1.56 0.09,-1.58 1.73,-0.93 0.14,-1.07 1.57,-2.15 -1.49,0.44 -0.77,-0.51 0.42,-0.4 0.06,-1.58 0.58,0.57 0.56,-0.73 -0.16,-2.53 0.62,0.87 0.76,-0.3 0.09,0.83 0.3,-0.45 0.66,-0.02 0.19,-0.93 0.57,0.04 0.27,0.47 0.82,-0.57 3.01,0.2 0.58,-0.69 0.64,0.55 0.44,1.94 0.96,-0.04 0.76,0.53 0.49,-0.75 1.07,-0.16 0.38,1.17 -0.31,1.09 0.08,1.44 -0.42,1.05 -0.46,-0.65 -0.82,-0.22 -0.12,0.22 0.73,1.11 0.62,2.21 1.25,0.32 -0.48,-2.31 0.62,-0.57 0.28,-4.47 -0.72,0.12 -0.15,-0.59 0.37,-1.4 -0.72,-0.53 0.2,-0.49 -0.37,-1.72 -0.67,-0.91 -0.51,0.2 0.72,1.05 -0.17,0.91 -0.39,0.26 -2.16,-0.99 -0.89,0.1 -0.37,1.09 -1.18,-0.89 0.47,-1.35 -0.3,-0.89 0.27,-3.19 2.58,1.13 -2.78,-3.48 -0.44,-1.39 0.17,2.2 -0.5,0.2 -0.79,-0.61 -1.21,-0.26 -0.14,-0.59 -0.41,0.28 -0.49,-1.31 h 0.41 l -0.25,-1.64 -1.53,-0.63 -1.31,-2.28 -0.19,-1.82 1.19,-0.42 0.72,-0.89 0.02,-2.36 -0.5,-1.47 -1.62,0.75 -0.01,0.5 -0.72,-0.44 -0.91,0.3 -0.57,0.87 -0.84,-0.04 -1.54,-0.97 -0.84,0.75 -1.36,0.3 -0.47,-0.2 0.88,-1.82 -0.31,-2.14 -1.17,-2.64 -0.85,-0.87 -0.57,0.08 -0.02,-0.71 0.71,-0.14 -0.08,-0.46 1.26,0.3 0.91,-0.71 1.29,0.26 0.94,-0.68 0.65,-0.02 1.19,-2.08 0.26,0.93 0.98,0.48 v -1.11 l 0.72,0.54 2.04,-0.02 -1.55,-1.53 -0.51,0.24 0.19,-1.13 -0.42,-0.64 -1.33,-0.52 -0.57,1.81 -1.59,-2.46 -1.55,-0.85 0.42,-0.85 -0.2,-1.25 1.52,0.32 1.73,0.99 0.64,-0.46 0.16,-0.89 -1.18,-0.26 -0.08,-0.36 -1.22,-0.64 -1.04,-1.77 -1.61,-1.53 -1.73,-0.1 -0.41,-0.66 0.12,-0.38 1.38,-0.06 0.62,1.01 1.4,1.09 0.59,-0.32 0.21,-0.76 0.48,0.46 0.92,-0.97 -0.31,-1.41 0.83,-1.03 0.47,0.32 0.3,0.99 0.51,0.24 -0.5,-1.3 0.55,-0.82 -1.53,0.1 -1.9,-0.86 -0.44,0.2 0.06,0.64 -1.04,-1.33 -0.93,-0.36 -0.43,-0.88 -1.6,-1.19 -0.54,-1 -0.05,-0.92 0.55,-0.16 2.4,1.51 1.76,0.66 2.75,0.22 4.4,-0.44 0.35,-0.4 1.35,-0.32 -0.28,-1.65 -0.9,-0.44 h -0.93 l 1.03,-0.9 0.69,-0.04 1.14,0.74 0.16,0.76 2.33,0.66 -0.44,-0.84 -0.44,0.14 -0.72,-0.42 -0.61,-1.37 -0.84,-0.68 -0.7,-1.23 0.83,-1.25 -0.62,-0.34 -0.28,-0.78 1.07,-0.4 -0.17,-1.22 0.19,-0.48 h 0.48 l -0.18,-1.16 0.7,-0.48 1.14,-0.12 1.42,-0.94 1.28,-0.12 1.29,-0.58 1.54,0.96 0.25,-0.7 -0.62,-1.06 0.75,-1.22 0.79,-0.06 1.5,1.97 1.73,0.4 v -0.54 l -0.29,0.16 -2.39,-2.35 0.06,-0.3 -1.69,0.08 -1.1,1.14 -0.77,-0.18 -0.02,-0.36 -2.25,-1.4 -0.65,1.02 0.1,-1.48 -1.36,0.34 -0.65,-0.32 0.04,-0.38 0.59,-0.06 0.32,-0.48 -0.62,-1.9 0.55,-0.52 0.13,-0.68 0.71,0.32 0.41,-0.48 0.44,0.32 0.57,-0.18 0.29,-0.98 1.26,-0.58 0.42,-0.88 0.3,0.1 1.05,-1.02 0.61,-0.12 1.17,0.54 0.5,-1.34 z"
     title="Mayo"
     id="IE-MO" />
</svg>
