<?xml version="1.0" encoding="UTF-8" standalone="no"?>
<!-- Created for MapSVG plugin: http://mapsvg.com -->

<svg
   mapsvg:geoViewBox="-10.617532 55.384216 -5.429631 51.419751"
   width="93.770012"
   height="83.720001"
   version="1.1"
   id="svg1"
   xmlns="http://www.w3.org/2000/svg"
   xmlns:svg="http://www.w3.org/2000/svg"
   xmlns:mapsvg="http://mapsvg.com">
  <defs
     id="defs1" />
  <path
     d="m 0.16001,49.81 0.10001,-1.31 2.14999,-2.03 0.87001,-2.05 -0.99001,-0.71 0.44,-1.01 -0.02,-2.71 0.87,-1.49 0.72,-2.2 0.98,-0.7 1.95,-0.46 1.82,-1.22 -0.09,-2.28 5.07,-3.74 1.19,-1.61 0.48,-2.01 1.3,-1.77 0.21,-0.93 -3.21,-1.34 0.27,-0.64 -0.13,-1 -1.18,-1.59 -1.19,-0.53 -0.3,-0.87 -1.23,-1.46 -0.11,-1.59 1,-0.75 0.62,-1.25 0.1,-1.63 3.14,-0.91 2.28,0.18 1.1,-0.65 3.13,-0.36 2.02,-1.34 4.31,-1.13 1.07,-1.3 0.56999,0.64 2.47001,1.05 1.95,0.35 1.27999,-0.24 0.81,-1.3 -0.42,-2.27 0.79,-0.62 0.78,0.15 1.2,-0.85 0.5,0.6 1.05,0.43 1.37,-1.36 0.78,0.87 0.42,-0.27 0.99,0.51 0.04,0.7 0.87,1.47 2.26,1.94 2.08,3.5 -0.31,0.31 -1.42,-0.16 0.54,2.35 0.64,0.82 0.49,1.88 0.46,0.21 0.21,0.7 1.3,0.84 1.95,-0.68 1.24,0.31 0.57,-0.72 0.72,0.41 0.46,-1.01 h 0.99 l 0.39,0.7 h 0.74 l 0.67,-1.19 0.84,-0.71 1.54,-0.39 1.55,-0.95 0.68,-0.93 0.44,-1.52 1.22,-1.18 0.60001,1.51 -0.22001,1.17 0.60001,0.48 2.26999,0.27 1.73001,-0.44 4.33999,0.15 v 0 l 0.75,2 -0.43,1.5 -0.58999,0.77 1.91,1.16 0.1,1.09 1.36,2.95 1.8,1.2 0.45,1.67 -0.14,0.85 0.99,3.33 -0.2,0.74 -0.67,0.48 0.48,1.92 -1.2,1.03 -0.12,0.48 0.16,1.08 1.17,0.6 -2.15,1.13 -0.31,2.57 -1.8,2.26 -0.39,0.8 0.07,0.94 0.47,0.58 0.92,0.16 0.64,1.33 1.5,1.7 1.12,0.16 0.62,0.52 1.18,-0.19 1.61,0.65 -0.37,1.32 0.18,0.54 4.93,-2.51 0.23001,0.85 0.66999,0.63 0.28,2.46 1.51,2.06 0.18001,1.61 2.25,4.44 -0.06,3.37 -0.62,1.47 0.38,0.89 0.04,1.85 v 0 l 0.69999,2.08 -0.38,1 0.63,3.05 -0.24,0.6 -1.57999,0.65 0.79999,1.6 0.07,0.94 -1.57001,2.31 -1.5,1.27 -0.92999,-0.46 -4.42001,0.46 -1.14,-0.44 -2.01,0.29 -0.86,2.52 -1.95999,0.64 v 0 L 78.26,80.63 l -1.37,-3.05 -1.81999,-0.65 -0.04,-0.67 -0.65,-0.79 -1.72,0.29 -1.13,-0.56 -1.76,-3.84 -0.69999,-0.52 0.35,-1.13 -0.24,-2.88 -0.70001,-0.42 -0.25,-0.75 -1.27999,0.79 -0.81,-2.1 -0.99,-0.21 -0.33,-0.89 -0.88,-0.87 -0.76,-0.14 -1.14,0.51 -2,2.64 -3.11,-0.21 -0.05,0.69 0.47,0.93 -0.18,1.02 -1.9,3.04 -4.28,-2.66 -0.61,0.08 -0.2,-0.58 -0.73,-0.38 -0.96,0.86 -0.9,0.22 -2.48,5.87 -0.54,1.93 0.23,1.23 -1.23,0.17 -0.19,-2.79 -1.48,-0.44 -0.72,1.56 -1.19,0.63 -0.3,2.85 -0.89,1.49 -2.15,-0.66 -1.18,-0.79 -0.96,1.1 -1.14,0.54 -0.29,1.25 -3.25,0.6 -1.54,-2.18 -1,-0.85 -0.6,-0.15 -1.31,0.6 -0.43,-0.48 0.19,-0.85 -1.1,-0.91 -0.92001,0.1 -0.05,1.23 -1.13,-0.77 -0.69001,0.18 -0.88,-0.41 -0.77,-2.1 -0.67999,-0.29 -0.9,-1.19 -0.59,1.14 -2.48,1.79 -0.39,1.02 -0.37,-0.5 -0.31,0.3 0.12,2.74 -0.23,0.67 -2.36,0.6 -1.83,-0.5 -1.25,1.09 -1.47001,0.5 v 0 0 0 L 6.23,79.61 5,78.64 5.38,77.16 4.53,74.68 1.82001,72.92 0,69.21 1.69001,67.93 1.17001,63.31 2.59,62.75 l 0.47001,-2.36 0.79,-0.15 1.32,-1.56 1.47,-0.52 1.2,-1.88 0.43,-1.95 -2.62,0.35 -2.12,-0.25 -1.05,-1.08 -2.06,-1.2 0.31,-0.64 z"
     title="Laois"
     id="IE-LS" />
</svg>
