<?xml version="1.0" encoding="UTF-8" standalone="no"?>
<!-- Created for MapSVG plugin: http://mapsvg.com -->

<svg
   mapsvg:geoViewBox="-10.617532 55.384216 -5.429631 51.419751"
   width="279.72"
   height="182.39"
   version="1.1"
   id="svg1"
   xmlns="http://www.w3.org/2000/svg"
   xmlns:svg="http://www.w3.org/2000/svg"
   xmlns:mapsvg="http://mapsvg.com">
  <defs
     id="defs1" />
  <path
     d="m 90.119995,176.17 0.26,1.01 -1.92,1.85 -0.01,0.58 -2.37,1.57 -0.46,-1.68 -1.22,2.89 -0.14,-0.39 -0.58,-0.19 -0.02,-1.18 -0.86,0.24 2.27,-2.58 0.5,0.15 2.4,-1.94 z m 6.58,-7.02 0.91,0.24 -0.19,1.68 0.76,1.59 -0.75,-0.37 0.26,1.01 -2.6,1.49 -0.21,0.73 -1.42,0.63 v -1.01 h -0.22 l 0.35,-0.5 -0.48,-0.34 1.61,-0.47 0.22,-0.39 -0.18,-0.71 -1.06,-0.35 -0.02,-0.6 1.42,-0.5 0.46,0.39 -0.13,0.75 0.89,-0.07 -0.16,0.35 0.23,0.06 0.51,-0.69 -1.1,-0.52 0.1,-0.75 0.4,-0.24 -0.61,-0.5 z m 1.89,-0.94 0.53,0.08 -0.34,0.09 0.1,0.92 -0.31,0.26 -0.72,-0.92 0.64,-1.03 z m -4.04,-0.97 0.18,0.5 -0.9,0.77 0.31,0.69 -0.28,0.6 -0.46,-0.09 0.12,-0.84 -0.77,-0.17 -0.94,0.75 -0.67,0.02 0.09,-0.8 0.69,-0.58 0.33,-0.11 0.19,0.62 0.93,-1.2 z m -14.94,1.31 -1.19,0.02 -0.62,0.64 -0.44,-0.39 -0.76,0.69 -0.12,-0.49 -0.37,0.04 2.96,-1.48 2.8,-0.92 -1.97,1.14 z m 6.84,-3.05 -0.86,0.21 -0.23,1.2 -0.65,-0.36 0.13,-0.71 1.94,-0.82 z m 3.28,-0.63 -1.4,0.41 -0.21,-0.32 2.71,-1.35 z M 8.59,147.05 l 0.46,0.6 -0.2,0.51 -1.34,0.47 -0.92,0.9 -1.35,0.34 -1.03,0.82 -1.54,0.36 -2.46,1.55 0.1,-0.51 -0.31,-0.22 3.88,-3.84 0.82,-0.36 0.61,0.11 0.76,-0.77 1.1,0.22 1.04,-0.6 z m 43.25,-5.79 -0.39,0.56 -0.1,-0.41 -0.63,0.32 v 0.39 l 0.57,0.06 -0.19,0.49 -0.59,-0.32 -1.96,0.92 0.29,0.36 -0.2,0.34 -1.45,0.88 -0.71,-0.41 -0.29,0.15 -0.22,-0.38 -1.17,0.66 -2.93,0.75 -0.58,1.09 -0.52,-0.32 0.54,-0.77 -0.23,-0.24 -3.17,0.56 0.21,-0.64 -1,-0.04 0.57,-1.67 0.62,-0.75 0.01,-0.66 0.72,-0.19 0.3,-0.58 1.83,-0.07 0.55,-0.47 1.08,0.17 1.59,-0.36 0.6,0.24 1.81,-0.56 0.84,0.28 0.59,0.86 -0.63,1.2 0.51,-0.36 0.19,0.24 0.27,-0.96 1,-0.67 3.45,-1.05 -0.61,1.05 z m 148.75999,-6.94 -0.21,-0.11 0.25,-0.28 h 0.48 z m -112.469995,-4.15 -1.83,2.65 0.41,0.53 -0.37,0.3 -0.55,0.19 -0.49,-0.49 -1.17,-0.09 -0.85,0.41 -0.43,-0.51 3.18,-2.89 0.9,-0.09 1.24,-1.48 z m 139.099995,-25.87 0.80001,-0.08 0.36,0.26 -0.08,0.38 -1.03,0.49 -0.31,-0.7 0.15,-0.58 z m -0.77999,-1.11 0.25,0.73 -1.47001,-0.39 0.16001,-0.32 z M 118.9,17.06 l 0.88,-1.67 4.15,-1.16 0.1,-1.33 1.41,-0.3 0.82,-1.75 1.69999,-0.72 0.46,-2 3.24,2.13 4.15001,0.29 1.25999,1.03 2.11001,0.82 0.77,-0.34 0.52,0.13 1.27,0.88 0.55,0.95 1.19,0.55 1.81,2.99 1.35,0.57 0.59,-0.49 -0.94,-1.73 -0.2,-1.69 3.39,-1.56 4.92,-0.91 2.37,-1.16 1.4,-0.21 -0.84,-1.16 0.75,-0.53 V 7.66 l 0.64,-1.39 0.76,0.78 0.36,-0.55 1.75,-0.84 0.46,-0.8 -0.51,-1.18 0.23,-0.5 0.62,-0.27 1.95,0.06 0.15,-1.35 0.78,-1.16 1.98,-0.46 0.69,2.13 0.5,0.59 1.7,-2.55 1.57,0.74 0.72999,0.78 1.07,-0.25 0.7,1.11 1.03,0.38 2.04,-0.4 0.82,-0.69 0.37,0.36 0.8,-0.63 2.29,-0.55 0.8,-0.72 0.43,2.48 -0.47,1.3 1.58001,2.69 0.69999,0.65 2.57,0.61 0.77,-0.65 0.08,1.94 1.12,-0.27 1.04,1.58 -0.42,0.59 0.84,1.22 0.99,0.42 1.08,2.21 0.56,-0.48 1.03,-0.08 1.01,0.88 0.57,-0.25 1.06,2.32 0.82,0.88 4.22,2.15 1.9,-1.12 3.98,-0.48 2.1,-1.03 5.86,-0.34 0.56,-2.36 2.19,-0.8 0.20999,-1.68 2.64,-1.62 0.78,0.53 0.47,1.45 1.6,-0.93 0.34,0.15 -0.06,0.99 1.63,2.46 0.56,1.62 1.53,1.39 1.11,-0.8 2.76,-1.1 4.61,0.48 1.28,1.48 1.4,-0.23 v 0 l 0.82,2.45 1.61,-0.21 0.02,0.88 -0.74,1.08 0.71,0.38 0.55,4.24 0.83,0.7 1.32,-0.04 0.83,0.7 3.59,0.86 -0.34,2.89 0.18,1.71 v 0 0 0 l -2.46,1.23 0.91,0.55 -1.28,5.56 -0.65,0.68 -2.24,-0.08 -0.4,1.31 0.3,1.57 -0.98,1.42 2.87,-0.13 3.04,-0.68 0.55,0.78 0.97001,-0.4 0.68,1.65 3.07,-1.31 0.51999,0.99 -0.38999,2.46 -0.45,-0.21 -0.98001,-2.05 -0.42,0.15 -0.16,0.93 1.75,2.35 2.61,0.59 0.52,1.52 1.33,0.42 1.64,5.68 -0.76,1.36 -0.07,2.65 1.7,0.57 2.6,2.78 0.58,-0.23 0.57,0.64 1.21,-0.62 0.75,0.02 -0.48,1.99 0.63,0.61 -0.02,0.66 3.34,1.97 -0.15,1.66 1.55,4.78 1.25,0.26 2.67,-0.28 1.35,0.42 1.11,-0.17 1.18,-0.77 0.79001,1.32 0.8,3.42 v 0 l -0.31,0.38 0.31,0.57 -0.12,1.55 -2.74,1.94 -2.19,3.62 -2.51,0.72 0.14,2.3 1.49,-0.08 1.67,1.28 0.69,0.15 0.77,0.72 -0.19,0.85 -0.35001,-0.23 -0.35,0.62 -2.12,-0.08 -1.03,0.62 -0.32999,-0.19 -1.82,0.55 -1.32,-0.06 -1.38,0.55 -1.46,0.04 -2.63,0.68 -3.09,1.58 -1.59,1.85 -0.84,-0.19 -0.09,0.53 0.44,0.28 -0.33,1.41 -0.37,-0.21 0.1,-0.26 0.26,0.23 0.02,-0.96 -1.03,0.43 0.08,0.32 0.49,0.02 -0.11,0.53 0.48,0.11 0.19,0.53 1.96,1.04 -0.29,0.58 -2.33,0.94 h -1.12 l -0.43,0.68 -1.03,-0.25 -1.57,1.39 -2.46,0.26 -1.05,-0.38 -4.43,0.81 -1.43,1.05 -2.18,2.5 -1.52,0.34 0.18,-0.58 -0.67,-1.32 -1.4,0.24 -0.44,-0.53 -0.24,0.62 -1.29,0.19 -1.41,-0.45 -3.99,0.55 0.6,-2.5 -0.26,-0.58 -0.94,-0.26 -0.52,-0.92 0.1,-0.41 1.38,-0.96 0.15,-0.6 1.11,0.21 0.75,-0.26 -0.17,-1.38 -0.61,-0.45 0.66,-0.02 1.49,-1.26 3.41,-0.45 0.5,-0.36 1.17,0.23 -0.3,-0.55 -0.86,0.04 -0.46,0.38 -0.27,-0.32 0.82,-1.79 1.36,-0.13 0.65,-0.81 -1.52,0.56 -2.41,0.28 -1.07,-0.4 -0.5,0.38 -2.37,-0.13 -2.12,0.34 -0.94,-0.3 -0.84,0.94 -3.93,1.02 -0.92,0.92 h -0.59 l -0.29,-0.77 -1.05,-0.45 -1.25,1.62 -2.04,0.34 0.05,0.26 0.93,0.17 1.81,-0.04 0.52,0.9 1.14,0.38 0.39,-0.09 -0.13,-0.49 -0.51,0.21 0.45,-0.55 0.29,0.51 0.9,0.19 0.52,-0.02 -0.01,-0.62 0.4,-0.02 -0.2,0.85 0.27,0.81 -0.58,0.68 0.01,0.53 -0.45,0.06 -0.3,-0.79 -0.72,0.49 -0.92,-0.23 0.24,0.81 0.99,-0.04 0.48,1.07 1.9,-0.04 0.02,0.83 -0.55,0.26 0.34,0.83 1.27,-1.35 1.05,0.21 -0.2,0.56 0.41,1.35 -0.75,0.7 -0.35,1.2 -1.31,0.9 0.07,0.7 -2.33,1.35 0.16,0.39 0.93,-0.02 0.69,0.56 -0.21,0.9 0.26,1.32 -0.79,1.41 0.5,0.66 -0.49,0.41 -0.61,-0.23 -0.12,2.2 -0.55,0.19 -0.41,-0.56 -1.25,-0.02 -0.9,1.28 0.1,1.09 -0.3,0.81 -0.46,0.28 -0.89,-0.11 -0.37,0.54 -0.44,-0.62 -3.03,0.38 -1,2.44 -1.74,-0.71 -1.36,0.26 -0.9,1.2 0.41,0.83 -0.44,0.75 -0.5,-0.02 -0.94,0.68 -1.53,-1.22 -0.52,0.73 -0.02,0.77 -1.73,0.53 -0.56,1.13 -0.88,-0.41 -1.08,0.32 -0.13,-0.83 0.49,-0.96 -0.19,-0.94 -1.56,-2.67 -0.8,1.54 0.14,0.71 0.79,0.67 0.13,0.6 -0.69,1.05 -0.64,-0.11 -0.38,-0.79 -0.96,-0.56 0.8,1.24 -1.39,3.56 0.33,0.36 -0.13,0.53 -1.17,0.64 -1.15,1.89 0.79,0.81 0.03,0.56 0.53,0.26 -0.09,0.47 1.33,0.82 -1.13,0.73 -0.22,0.64 0.19,0.97 1.11,0.86 -0.33,0.96 -1.4,-0.88 0.2,-1.35 -0.81,-1.12 -1.46,-0.15 0.42,-0.38 0.08,-0.92 -0.63,-1.37 -2.05,-1.09 -3.25,0.71 -2.09,0.84 -0.64,-0.3 -0.56,0.15 -0.54,-0.43 -0.22,0.41 -1.78,0.38 -1.38,-3.24 0.55,-0.62 -1,-0.47 -0.06,-2.01 -0.36,1.58 0.23,1.16 0.38,0.38 -0.94,1.29 h -1.48 l -0.78,-1.05 0.12,0.47 -0.97,0.75 -0.43,0.88 -0.77,-0.08 -1.08,-1.16 -2.2,-0.11 -1.73,0.45 -1.07,1.18 0.27,0.08 -0.19,0.94 0.66,-1.39 0.71,-0.54 0.8,-0.04 2.68,1.44 1.9,-0.09 1.02,0.53 0.57,-0.43 1.45,-0.17 -0.34,1.63 -0.7,0.71 0.02,0.43 -0.83,0.19 -0.07,0.69 0.42,0.45 1.33,0.28 -0.55,0.36 0.13,0.32 1.36,0.28 -1.45,0.47 -0.17,0.96 -0.76,0.17 -0.47,0.54 -0.44,1.16 0.75,0.62 -0.24,0.41 0.42,0.43 -0.09,0.56 -0.44,0.5 -0.65,0.02 0.07,0.77 -0.55,0.07 0.05,0.3 -0.68,0.11 -0.1,-0.49 -1.1,-0.56 -0.86,0.45 -0.65,-0.06 -0.34,-0.67 -0.41,0.39 -0.1,0.79 h -0.26 l -0.12,-0.54 -0.65,0.15 0.77,-1.74 -0.69,-0.82 0.21,-0.52 -0.58,-0.54 -0.49,1.12 -1.49,0.64 -0.49,-1.05 -1.7,-0.3 -1.19,-0.99 -4.97,0.43 -0.15,-1.48 0.27,-0.86 -0.42,-0.62 0.24,-0.64 -0.49,0.22 -1.78,-0.28 -1.37,-1.97 -0.7,0.04 1.25,1.74 0.01,1.54 0.29,0.19 0.9,-0.54 h 0.94 l 0.52,1.24 -0.83,0.51 -0.17,0.6 -2.55,-0.77 -0.64,-0.88 -0.56,0.02 -0.21,1.31 3.16,0.9 -0.21,1.76 -0.37,0.41 0.37,0.69 -1.52,0.3 -1.14,0.8 -0.42,1.18 0.12,0.64 0.52,0.26 0.16,1.31 -1.13,-0.07 -0.08,0.99 -0.64,-0.04 -0.51,0.39 0.05,0.32 -0.42,-0.02 -0.57,0.62 -0.27,-0.17 -0.34,0.28 -0.45,-1.42 -1.45,0.24 -0.64,0.8 0.27,0.73 -0.9,0.6 -0.14,1.01 -0.43,0.04 -0.26,-0.43 0.58,-0.75 -0.41,-1.33 0.09,-2.23 -0.28,0.32 -1.99,-1.24 -0.95,-0.13 -0.97,-0.99 -0.83,-0.02 -0.16,-0.39 -1.31,0.71 -0.48,-0.32 -0.57,0.15 -0.38,-0.38 0.22,-0.58 -0.36,-0.28 0.01,-0.92 -0.48,-0.99 -0.29,0.39 -0.01,1.27 1.87,2.32 -0.1,0.28 -1.89,-0.08 -0.59,1.12 -0.5,0.04 -0.35,-0.49 -1.2,0.9 -2.06,-1.57 -0.16,0.37 0.99,1.05 -0.62,0.64 -1.77,0.36 -0.99,-0.49 -0.49,0.11 -1.26,-0.99 -0.41,-1.27 -0.6,-0.56 -0.78,-0.45 -0.47,0.77 -0.69,-0.09 -0.68,-2.12 -0.84,-0.58 -0.15,-0.58 -0.4,0.51 0.31,1.2 1.01,0.49 -0.35,1.91 2.3,0.11 -0.08,-0.71 0.57,-0.24 1.26,1.89 2.36,1.2 2.02,0.04 1.19,-0.88 0.6,-0.04 -1.66,1.08 -1.67,0.19 -1.92,-0.47 -1.47,-1.31 h -0.49 l -0.08,0.8 -0.36,0.17 1.15,2 -0.94,0.13 -0.75,-0.39 0.37,0.8 -1.82,0.84 0.67,0.75 -1.89,0.94 -0.68,-0.52 0.4,-1.07 -1.29,0.45 -0.16,0.64 0.48,0.04 0.25,0.64 -1.4,0.5 0.02,0.28 -0.21,-0.19 -0.65,0.3 1.03,-2.49 -0.19,-0.58 0.35,0.15 0.09,-0.28 -0.37,-1.5 0.14,-1.37 -0.49,-0.19 -0.07,-0.5 -0.92,1.03 1.14,0.21 -0.29,2.26 0.19,0.71 -2.24,1.96 0.53,0.62 -0.74,0.86 0.09,0.64 -0.81,0.17 -0.35,-0.45 -0.58,0.15 -1.41,1.93 0.69,2.06 -1.34,0.19 -0.7,0.93 -0.83,-0.45 -0.77,0.22 0.45,-1.1 0.76,-0.65 -0.14,-0.35 -0.36,0.09 -0.13,-0.69 -0.52,0.86 -1.25,-0.04 -2.22,1.36 0.59,-0.8 -0.3,-0.34 0.36,-0.73 0.01,-1.23 -1.54,0.56 0.35,0.49 -0.37,0.43 -0.89,-0.3 0.09,-0.54 -0.85,0.36 -0.99,-1.72 -0.73,-0.09 -0.2,0.39 0.71,1.4 1.29,1.01 -0.57,0.15 -0.65,0.86 -0.75,-0.19 -1.29,1.38 -1.96,0.78 -1,1.23 -0.54,-0.71 -1.25,0.26 -0.28,-0.8 -0.86,1.1 -1.08,0.09 -0.270005,-1.14 -0.62,0.32 -0.19,-0.26 0.64,-0.47 0.14,-0.54 0.570005,0.11 0.51,-1.36 0.99,-0.11 0.82,0.37 0.54,-1.2 -0.52,-0.69 0.51,-1.85 -0.47,-0.22 -1.19,0.49 0.57,-0.04 -0.13,0.26 -0.71,-0.04 0.84,0.37 -0.08,1.18 -0.44,0.15 -0.34,0.77 -0.12,-0.41 -0.42,0.37 -0.5,-0.19 -0.210005,0.71 -0.76,-0.62 0.07,-0.52 0.46,-0.32 0.03,-1.27 -0.36,0.34 -0.86,-0.3 1.21,-0.93 0.860005,-0.08 0.67,-0.75 -0.38,-0.62 -0.31,0.41 -1.250005,0.28 -0.41,0.52 -1.11,0.45 -0.51,0.56 -0.03,0.71 -0.74,0.47 -0.37,-0.04 -0.57,-0.77 0.4,-2 0.44,-0.34 -0.27,-0.39 -0.52,0.24 -0.88,1.83 -0.33,-0.47 0.18,-0.71 -0.51,0.04 2.86,-2.28 0.05,-0.71 1.15,-1.78 0.37,-1.74 -0.22,-1.53 -1.08,1.91 -0.41,-0.22 -0.7,0.8 -0.65,-0.71 0.47,-1.5 -1.35,0.07 -0.15,0.52 0.28,0.6 -0.39,0.34 -0.76,-1.74 -1.2,-0.04 -0.46,-1.03 -0.92,-0.8 -0.09,0.79 0.5,0.32 -0.18,1.12 0.64,-0.34 0.77,0.71 -0.41,1.2 1.34,0.13 -0.4,0.47 0.01,0.95 -0.51,0.11 -0.72,0.97 -0.31,-0.19 -0.51,0.84 -0.73,0.24 -0.47,-0.21 -0.34,-0.39 0.28,-0.8 -1.01,0.19 -0.16,0.21 0.54,0.52 -0.69,0.71 -1.37,-0.26 -1.62,1.03 -1.66,0.09 -1.07,0.82 -0.13,-1.1 0.41,-1.87 -0.26,-0.17 -0.4,0.58 -0.2,-0.54 -0.75,0.22 -0.62,0.84 0.27,1.95 -0.34,0.69 -2.09,0.92 -1.18,0.13 -0.43,-0.37 -1.1,0.41 -0.17,-0.21 0.64,-1.57 -0.41,-0.41 -0.36,1.18 0.23,0.19 -0.53,0.76 -2.37,1.07 2.11,-0.52 0.95,0.28 -0.05,0.5 -2.11,0.84 -3.24,0.34 1.41,-0.84 0.15,-0.39 -1.35,-0.19 0.02,-0.65 -0.63,-0.19 0.28,-1.61 -0.82,0.21 -0.52,-0.37 -0.22,-0.75 0.28,-0.69 -0.71,0.22 -0.34,1.01 -0.7,-0.04 0.19,-0.36 -0.58,-0.04 0.09,-0.34 -0.69,0.41 1.13,1.12 -0.75,1.76 -0.44,0.13 -0.24,-0.78 0.36,-0.32 -0.38,-0.15 -0.37,0.52 -0.19,-0.21 -0.92,0.64 -0.34,-0.11 -1.46,1.27 -0.96,0.13 -0.29,-0.24 0.44,0.65 -0.16,1.61 0.46,0.08 -0.82,0.93 0.64,0.36 -1.83,0.69 0.78,-0.82 -1.13,0.41 -1.91,0.95 -1.27,1.1 0.76,0.21 2.59,-1.34 2.05,-0.26 0.28,0.02 -0.08,0.32 -1.76,0.28 -1.61,1.33 -1.26,-0.13 -0.24,0.34 0.34,0.37 -1.16,-0.04 -0.87,1.31 -1.519995,0.54 0.34,-0.8 -0.6,-0.04 1.539995,-1.57 -1.279995,-0.58 -0.05,-0.8 -0.62,-0.63 1.969995,-1.16 -0.47,-0.52 -1.769995,1.4 -0.07,0.43 0.34,0.3 -0.38,0.34 -0.26,1.12 -1.71,2.07 -1.36,0.39 0.01,-0.41 -1.28,0.22 -0.02,-0.43 0.5,-0.19 -0.23,-0.88 0.37,-0.37 -0.17,-0.24 -0.34,0.21 0.1,-0.67 0.69,-0.67 -0.2,-0.19 0.79,-1.12 -0.96,-0.21 -0.29,-0.62 -0.31,0.22 -1.2,-0.18 -0.23,-0.17 0.24,-0.3 H 46.7 l -0.01,-0.3 1.19,-0.78 0.36,0.19 1.39,-1.21 1.95,-0.65 2.32,-1.81 -0.12,-0.47 0.43,-0.71 1.819995,-0.95 -0.29,-0.39 0.92,-0.64 0.12,0.26 0.25,-0.41 0.52,0.43 0.42,-0.11 0.88,-0.75 -0.16,-0.28 0.42,0.43 0.5,-0.21 0.58,0.26 0.69,-0.6 0.88,0.52 0.43,-0.15 -0.39,-0.26 2.23,-0.77 2.33,-2.53 0.42,0.8 1.08,-0.47 0.25,0.34 0.26,-0.75 -1.17,0.26 -0.09,-0.28 0.69,-0.56 -0.13,-0.21 1.45,-0.67 -0.36,-1.05 0.42,-1.27 3.46,-1.57 -0.67,-0.9 2.06,-0.66 1.57,-1.29 0.73,-0.02 -0.14,-1.18 1.05,-1.09 1.61,-0.62 0.82,0.39 1.53,-0.52 0.04,-0.64 1.02,-0.52 -1.27,-0.56 0.53,-0.88 -1.31,0.47 -0.73,1.03 -0.62,0.32 0.08,-0.47 -0.89,-0.24 -1.13,0.43 -0.73,-0.17 -1.52,0.69 -0.13,0.36 -0.62,0.02 -0.16,0.97 -0.28,-0.26 -0.64,0.15 -0.76,0.56 -0.04,0.22 0.42,-0.06 -0.34,0.24 -0.47,-0.49 -1.39,-0.11 -0.67,1.44 -0.69,0.73 v -0.32 l -0.4,0.19 -0.8,1.1 -0.21,-0.41 -1.24,0.13 -0.84,0.26 -0.72,0.97 -1.1,-0.41 -0.49,1.03 -1,0.58 -1.11,-0.21 -1.29,0.43 -0.54,0.84 0.3,0.21 -0.41,0.8 -0.43,-0.06 0.21,-0.64 -0.48,0.19 0.06,-0.28 -0.37,-0.02 -1.84,1.22 -0.06,-0.49 h -0.38 l -1.769995,1.68 -2.3,0.06 -1.29,1.14 -1.29,0.54 -0.97,-0.22 -2.31,0.49 0.05,-0.32 -0.69,0.22 -0.21,-0.24 2.27,-1.7 2.23,-1.05 1.41,-1.63 1.05,-0.19 0.84,-0.6 -0.41,-0.77 -0.37,-0.06 0.88,-0.54 v -0.54 l 1.65,-0.51 2.649995,-2.15 0.7,0.11 0.06,-0.38 1.12,-0.52 1.47,-0.34 0.57,-1.05 1.92,-1.44 1.24,-0.15 1,-1.07 3,-1.52 2.1,-0.24 4.97,-2.44 2.29,-1.41 0.27,-0.3 -0.18,-0.3 0.72,-0.24 0.45,0.21 5.95,-1.89 0.22,-1.16 1.41,-0.51 0.9,-1.29 2.73,-0.21 0.43,-0.26 0.02,-0.75 0.52,-0.32 -0.5,-0.17 0.06,-0.26 2.03,-0.7 -0.1,-0.32 -0.85,-0.02 -0.26,-0.58 -0.71,0.43 -0.26,-0.28 0.82,-1.13 -0.3,-0.94 0.51,-0.41 0.15,-0.86 1.26,-0.94 0.05,-0.68 -2.09,1.3 -0.2,-0.49 1.11,-1.45 -0.49,-0.09 -0.26,-0.45 -2.99,2.91 -0.99,-0.04 -0.23,-0.71 -1.05,0.38 -0.44,-0.41 0.23,-0.96 -0.69,-0.23 0.04,-0.3 -0.52,0.04 0.27,-0.36 -1.17,0.23 -0.34,-0.49 -0.7,-0.02 0.5,-2.12 -0.44,-1 -0.42,0.13 0.23,-0.68 -0.69,-0.04 -0.06,-0.41 -0.47,0.49 -1.34,0.43 1.01,1.18 -1.35,0.39 -0.38,0.96 0.16,0.24 0.86,-0.19 -0.4,0.7 0.59,0.45 -0.05,0.39 0.65,0.26 -0.69,1.01 0.02,0.85 -1.12,0.13 -1.6,1.6 0.02,-0.41 -0.92,-0.54 -0.71,1.88 -1.31,0.75 0.12,0.49 -2.5,1.24 -0.6,0.98 -1.05,0.06 -1.97,1.26 -0.21,-0.26 -1.61,0.36 -1.18,0.62 0.61,-0.81 -0.44,-0.36 0.86,-1.37 -1.28,1.09 -1.74,0.13 -1.1,-0.3 -0.7,0.6 -0.94,0.04 -0.48,-0.56 0.35,0.06 0.29,-0.64 -0.68,-1.22 -0.52,0.11 0.3,-0.58 -0.43,-0.32 -0.88,0.64 -0.29,0.69 0.55,0.06 -0.27,0.56 0.49,-0.04 0.44,1.41 -0.2,0.77 -0.55,0.43 -0.62,0.21 -0.23,-0.58 -0.47,0.28 -0.34,-0.47 -2.169995,1.67 -0.82,-0.04 -1.13,0.54 -1.56,-0.3 0.23,0.45 -0.65,-0.06 -0.47,0.6 -1.21,0.17 -0.88,-0.56 -0.01,-0.36 -2.4,0.26 -0.21,0.51 -0.82,0.32 -0.55,-0.38 -0.96,0.51 0.13,-0.34 -0.62,-0.32 -0.49,0.19 0.23,0.39 -0.57,-0.06 -0.73,0.84 -0.64,-0.38 h -1.7 l -0.41,-0.56 -1.1,0.96 0.55,0.3 -0.85,1.88 -0.47,-0.04 0.27,-0.28 -0.37,-0.19 -0.99,0.66 h -1.04 l 0.31,0.3 1.24,-0.08 -0.3,0.32 0.41,0.17 -0.62,1.14 0.58,0.71 -0.7,0.43 -0.62,1.05 -0.59,-0.34 -1.53,0.38 -0.2,-0.3 -0.98,0.19 -0.15,-1.03 -0.37,0.21 -0.02,0.49 -1.77,1.16 -0.7,0.88 -1.71,0.88 -0.73,0.84 -0.48,-0.06 -0.68,0.67 H 23.8 l -0.77,1.1 -0.92,-0.3 0.02,-0.51 0.75,-0.06 0.43,-0.56 -2.04,0.47 0.28,-0.67 0.93,-0.51 -0.51,-0.54 -1.65,0.22 -0.35,-0.3 -1.08,0.02 -0.99,0.69 h -1.77 l -1.32,0.45 -0.52,-0.62 -0.44,-0.02 -0.56,0.13 -0.67,0.97 -1.74,0.28 -1.63,2.3 -0.62,0.04 1.01,-2.15 1.12,-0.84 -0.21,-0.8 0.33,-0.77 -1.71,-0.73 0.15,-0.99 0.99,-0.06 0.69,-1.01 0.53,0.21 0.73,1.24 0.96,-0.3 0.27,0.36 0.39,-0.6 2.39,-0.58 0.77,-1.07 1.25,0.92 0.92,-0.62 0.68,-0.04 0.41,-1.11 1.05,-0.75 -0.9,0.34 -1.01,-0.47 1.13,-1.07 -0.41,-0.67 0.73,-0.97 -0.27,-0.98 -1.08,0.08 -0.51,0.39 -0.55,-0.63 0.15,-0.6 -0.71,0.09 -0.3,-0.51 -1.97,0.23 0.08,-0.39 -0.69,-0.53 1.25,-0.99 0.36,-0.94 0.43,-0.13 1.5,0.6 0.55,-1.01 0.26,0.69 1.76,0.81 2.69,-1.76 1.25,0.9 1.31,-0.11 0.98,-0.73 -0.35,-0.24 0.18,-0.71 0.57,-0.51 1.77,0.45 1.34,-0.64 0.04,-0.45 -0.33,-0.13 0.79,-0.66 -0.43,-0.54 0.93,-1.03 -0.12,-0.6 1.64,-1.07 -0.12,-0.58 0.54,-0.15 -0.62,-0.15 0.14,-0.36 -0.92,-0.04 -0.35,0.6 -0.91,-0.08 -1.62,0.62 0.07,-0.81 -2.73,-0.06 -0.06,-0.39 0.62,-0.83 2.27,-1.39 0.17,-0.75 0.62,-0.43 0.5,0.34 0.8,-0.13 0.9,-0.81 1.41,-0.51 -0.05,0.39 0.55,0.15 1.19,-0.24 0.56,-0.49 -0.62,-0.36 2.48,-0.92 0.49,-0.34 -0.21,-0.21 2.48,-2.01 0.23,-0.02 0.17,1.03 -0.41,1.97 -1.18,1.43 0.76,-0.32 0.58,0.17 0.65,-0.54 -0.15,-0.38 0.3,-0.3 1.33,-0.09 1.02,-0.71 v 0 l 0.92,1.82 1.61,1.56 -0.13,0.62 -1.04,1.07 0.42,0.53 1.17,-0.21 0.71,0.77 -0.43,3.3 -0.64,0.98 1.38,1.07 1.69,-0.73 1.95,-0.15 3.549995,-3.51 -0.289995,-0.58 0.249995,-0.83 1.04,-0.54 0.62,-0.88 1,-0.28 1.63,-1.95 1.07,-0.17 1.35,-0.9 1.28,0.56 0.93,-0.79 0.9,0.13 1.06,-0.47 1.27,-2.9 0.61,-0.3 3.59,-4 2.47,-0.21 0.89,0.45 1.52,0.09 1.52,-1.09 1.2,0.58 1.6,-0.71 0.65,0.73 1.49,0.06 4.83,-0.45 2.36,-0.94 0.17,-0.75 1.65,-0.43 -0.18,-0.81 1.38,-3.76 3.62,-0.11 1.06,-0.6 1.13,-1.39 2.990005,0.24 1.33,-1.49 2.25,-0.55 0.49,-0.72 0.06,-1.28 1.83,-1.13 0.13,-0.66 0.8,-0.96 -0.02,-1.36 1.56,-0.9 0.79,-1.7 0.83,-0.57 -0.51,-0.85 -1.53,-0.77 0.7,-1.92 -1.26,-0.81 -0.62,-1.17 0.04,-1.47 -0.58,-1.74 0.28,-0.83 1.2,-0.32 2,-1.62 1.7,-0.62 0.28,-1.38 0.59,-0.59 h 1.48 l 3.56,-1.13 2.17,-1.46 2.76,-0.02 1.56,-0.6 2.25,0.72 1.92,-2.42 0.26,-0.7 -1.21,-1.29 -0.75,0.34 -3.2,-0.04 -1.52,-2.36 -0.55,-1.89 -3.23,0.68 -1.37,-5.07 0.23,-1.76 0.94,-1 0.31,-1.14 1.94,-0.66 0.99,-1.8 -1.05,-0.13 -0.77,-0.51 0.13,-0.59 -0.9,-1 -0.7,0.21 -0.13,-2.24 -1.07,-1.06 -0.96,-1.72 0.38,-1.25 -1.05,-1.88 0.01,-1.08 -0.37,-0.78 0.83,-3.38 -0.3,-0.7 0.17,-1.33 -0.97,-0.51 -0.63,-0.91 -0.79,-5.05 -0.79,-0.65 -0.56,-1.92 -1.31,-1.14 0.58,-3.8 -0.28,-1.08 3.02,-1.94 -0.17,-2.42 2.92,-0.8 0.85,0.34 0.58,-0.84 -0.02,-0.8 z"
     title="Cork"
     id="IE-CO" />
</svg>
