<?xml version="1.0" encoding="UTF-8" standalone="no"?>
<!-- Created for MapSVG plugin: http://mapsvg.com -->

<svg
   mapsvg:geoViewBox="-10.617532 55.384216 -5.429631 51.419751"
   width="141.45"
   height="81"
   version="1.1"
   id="svg1"
   xmlns="http://www.w3.org/2000/svg"
   xmlns:svg="http://www.w3.org/2000/svg"
   xmlns:mapsvg="http://mapsvg.com">
  <defs
     id="defs1" />
  <path
     d="m 6.79999,29.89 0.26,0.26 1.98001,-0.17 1.07,-0.55 2.06,-0.21 0.56,0.29 3.61,-0.23 2.57,1.14 1.39999,-1.2 -0.57,-2.56 0.59001,-2.26 -0.13,-1.22 1.72999,0.93 0.29001,-0.97 2.47999,-0.09 0.74,-0.5 0.42001,0.08 0.51999,1.12 1.37,0.87 1.24,1.37 1.29001,0.46 3.14,-0.4 1.53999,0.64 1.55,-0.72 1.87,0.46 1.66001,0.93 0.8,1.86 0.63,-0.25 0.91999,-1.52 2,-0.01 2.53001,0.95 1.52999,-0.31 0.41001,-0.3 -1.28,-6.99 -1.28001,-3.08 -1.05,-0.38 L 44.08,16.36 44.01,14.68 43.22,13.71 42.67,12.25 43.36,8.42 43.23999,6.52 43.9,5.64 43.42,4.35 l 0.50999,-0.42 4.19,0.19 1.28,-0.38 0.46,-0.8 1.53,-0.33 0.32,0.06 0.27,0.95 0.98,0.4 0.83,-0.74 3.08,-0.97 0.27,-0.94 1.36,-0.57 1.71,0.42 2.08,-0.19 1.18,-0.86 2.71,-0.17 3.32,1.03 1.45,-0.67 1.27,0.5 3.1,0.02 1.12,0.74 3.12,0.86 3.88,0.11 2.78,0.67 0.9,1.41 2.27,1.03 1.78,-1.32 1.21,-0.38 v 0 l 1.38,0.16 0.5,1.06 3.81,1.18 2.19,2.63 0.48,2.45 1.58,1.13 0.23,1.16 2.18,4.49 0.62,0.49 2.31,0.63 1.35,2.74 1.14,0.81 1.79,-0.74 3.83,-4.94 1.41,-1.07 1.2,0.16 2.17,1.84 3.39,0.61 0.42,1.75 0.86,0.74 2.62,-0.97 3.2,0.06 2.27,-2.72 2.65,-0.8 v 0 l 1.07,0.11 0.53,0.92 0.05,0.59 -0.8,1.31 0.11,1.12 0.8,1.18 1.47,1.04 v 0 l 0.19,3.02 -0.85,2.23 0.6,1.21 -1.2,2 -0.29,1.57 0.25,0.53 0.88,0.21 0.25,1.24 2.43,0.05 -2.35,1.22 -0.67,1.93 -1.47,1.39 -0.37,-0.21 -0.02,1.55 0.29,-0.17 0.02,0.4 -1.13,0.93 -1.94,0.45 -0.7,0.8 -0.98,0.06 -0.38,0.36 -0.68,-0.65 -1.19,-0.57 -0.48,0.14 -0.33,-0.4 -0.06,0.49 -1.9,0.57 -1.05,-0.11 -1.51,1.19 -0.63,-0.13 -0.71,0.34 0.02,-1.4 1.66,-1.58 -0.06,-0.72 0.86,-1.1 0.66,-0.3 0.36,-0.66 1.46,-0.44 -1.46,0.02 0.35,-1.16 -1.06,0.97 -0.64,-0.65 h -0.52 l -0.3,-0.62 -1,-0.38 -1.94,0.05 -0.19,0.56 0.96,2.23 1.89,-0.02 0.92,0.36 -0.01,0.42 -1.39,0.04 -2.62,-1.06 -2.77,-0.57 -1.15,0.98 -1.39,3.3 -0.61,-0.17 -1.07,0.63 -2.54,-0.21 -1.39,0.65 -2.82,-0.31 -2.36,-0.77 -0.77,0.03 -0.36,-0.38 -2.2,-0.34 -1.24,0.55 -0.47,1.1 -0.4,-0.57 -1.2,-0.53 -0.51,0.44 -2.3,-0.44 -1.96,0.21 -0.13,-0.4 -0.85,0.21 -0.68,0.74 -1.13,0.66 -0.99,0.12 -0.08,0.28 -1.34,-0.59 -0.36,0.31 -0.59,-0.17 -0.38,0.3 -0.52,-0.17 -2.4,0.49 -1.82,1.42 -0.3,-0.68 -0.75,0.87 -0.2,0.89 -0.70999,0.5 -0.61001,-0.08 -0.68,0.78 -0.68,0.15 -0.12,0.7 -2.74,-0.38 -2.79,1.44 -1.03,1.63 0.11,0.81 -0.57,0.82 -0.01,0.64 -2.23,-1.08 -0.37,-1.59 -0.49,-0.11 -0.57,-0.95 h -0.86 l -0.79,1.12 -2.7,1.12 -0.21,0.72 -1.29,-0.21 -0.03,0.79 0.41001,0.46 -0.62001,0.17 0.93001,1.68 h -0.79001 l -0.47,0.68 -0.86,-0.17 0.69,0.74 0.93,-0.07 -0.02,-0.61 0.85,0.3 0.35001,-0.45 0.43,0.38 1.07,-0.46 0.45,0.29 -0.59,-2.08 -0.02,-1.8 0.86,4.29 1.75,1.8 2.5,0.08 3.63,-0.7 -0.14,0.62 -1.31,1.35 -2.17,0.81 -0.85,0.94 -0.13,1.57 -1.03,1.54 0.69,1.89 -1.11,3.42 -0.33,-0.1 -0.6,0.72 -0.54,-0.06 -0.81,0.5 -0.96,0.98 -1.73,0.09 -1.24,0.76 -1.03,-0.21 -1.82,0.57 -3.59,0.26 -1.33,1.19 -0.32,1.29 -0.89,0.3 -0.46,1 0.13,0.58 1.37,0.78 -0.31,1.17 -0.48,-0.3 -0.63,0.54 -0.67,-0.24 -1.32,0.43 -1.25,-0.51 -0.42,0.21 -0.81,-1.02 -0.49,0.06 0.03,-0.55 -1.32,-0.64 -2.09,0.49 -0.32,1.36 -0.79,-0.06 -1.83,0.72 -0.5,-0.42 -0.81,-0.03 -0.35,-0.63 v -1.73 l -0.94,-0.25 v 0 l -0.81,-3.42 -0.79,-1.32 -1.18,0.77 -1.11,0.18 -1.35,-0.42 -2.67,0.28 -1.25,-0.26 -1.55,-4.78 0.15,-1.67 -3.34,-1.96 0.03,-0.66 -0.63,-0.61 0.48,-1.98 -0.75,-0.02 -1.21,0.62 L 21.19,62.05 20.6,62.27 18,59.49 16.3,58.93 16.37,56.28 17.13,54.91 15.48,49.23 14.19,48.78 13.66,47.26 11.05,46.67 9.3,44.32 9.46,43.4 9.88,43.24 10.86,45.29 11.32,45.5 11.7,43.03 11.18,42.05 8.11,43.36 7.43,41.71 6.46,42.11 5.92,41.33 2.87,42.01 0,42.14 0.98,40.72 0.68,39.15 1.07,37.84 3.31,37.91 3.97,37.23 5.25,31.67 4.34,31.12 Z"
     title="Waterford"
     id="IE-WD" />
</svg>
