<?xml version="1.0" encoding="UTF-8" standalone="no"?>
<!-- Created for MapSVG plugin: http://mapsvg.com -->

<svg
   mapsvg:geoViewBox="-10.617532 55.384216 -5.429631 51.419751"
   width="109.34"
   height="167.89"
   version="1.1"
   id="svg1"
   xmlns="http://www.w3.org/2000/svg"
   xmlns:svg="http://www.w3.org/2000/svg"
   xmlns:mapsvg="http://mapsvg.com">
  <defs
     id="defs1" />
  <path
     d="m 76.17998,3.1 0.28001,-0.77 0.94999,-0.5 0.80001,-1.83 2.53999,1.3 2.15001,1.82 1.55,0.36 0.81,-0.24 0.58999,0.82 2.85001,0.13 -0.23001,5.03 0.95,1.32 -1.21999,1.51 -0.35001,1.31 -1.36,1.13 -0.66999,-0.49 0.03,0.73 -0.88,1.13 -0.31999,2.2 -0.03,2.81 0.32,1.15 0.63,0.69 0.24,3.51 1.24,0.65 -1.19,2.34 -1.22,-0.02 -0.76,2.06 -2.23,2.53 1.21,0.51 0.4,0.52 0.08,0.99 0.81,0.81 1,-0.26 0.26,1.05 -1.17,1.32 0.87,1.9 1.37,-0.55 -0.06,0.79 1.28,1.79 1.16,-0.31 2.66,-2.33 0.27,-0.72 -0.52,-1 0.63,-0.58 1.72,0.34 -0.01,1.38 0.89,1.23 0.91,-0.63 0.52,0.07 0.61,1.59 -0.48,2.39 1.66,2.6 -0.44,1.01 0.34,1.42 -0.25,1.76 0.32,0.75 1.75,-0.36 2.51,3.63 1.68,-0.13 1.13,2.4 v 0 l 0.01,3.61 0.65,1.36 0.44,3.53 1.45,1.54 1.65,0.35 0.38,0.73 -0.61,1.42 -0.41,2.67 -1.47,0.69 -2.01,1.66 -0.19,2.36 -1.21,0.25 -1.38,-1.14 -0.59,0.16 -0.18,0.57 0.29,2.03 -0.72,2.67 -1.51,0.04 -1.37,1.79 -1.25,0.45 -0.16,0.57 0.59,1.44 -0.33,1.96 -1.81,2.52 -2.44,1.71 -1.65,3.2 -0.04,6.73 2.21,4.59 4.21,6.74 1.38,5.44 v 0 l 1.59,7.57 -1.25,6.67 0.63,1.02 0.54,2.38 -1.47,2.09 3.09,1.82 0.35,1.75 1.02,0.71 0.8,1.23 0.17,1.13 0.91,1.31 0.6,2.02 -1.48,1.35 v 0 l -1.8,1.4 -1.13,3.1 -2.05,1.02 -2.11,-0.22 -0.48,0.8 0.15,0.86 -1.33,1.03 -2.26,-0.47 -0.99,0.71 -0.11,3.07 -0.56,1.97 -1.63,1.36 -1.06,2.92 v 0 l -0.42,0.49 -1.04,-0.39 -2.77,-0.21 -1.13,-0.74 -3.78,-0.67 -1.34,0.51 -1.2,-1.58 -2.68,-0.4 -0.61,-1.93 -1.32,-1.85 0.47,-0.8 -0.23,-1.31 0.29,-0.42 0.15,-2.75 -0.65,-0.72 -0.66,-1.76 -0.5,-0.06 -1.07,0.67 -0.77,-0.63 -1.3,-0.35 0.13999,-1.4 -0.97999,-0.45 0.06,-1.01 -0.72,-0.51 -0.13,-1.45 0.54,-0.19 1.6,-4 -1.38,-1.99 -0.29,-1.25 -2,-0.16 -0.72,-3.67 0.23,-0.76 1.47999,-0.57 0.57,0.12 0.56,-0.74 0.06,-0.8 -2.70999,-2.04 -0.18,-1.21 -2.73,-1.91 0.78,-1.1 0.63,-0.02 0.35,-0.47 -1.16,-1.54 0.78,-1.39 -0.81,-0.9 -0.15,-0.8 -1.13,-1.06 0.35,-1.78 0.69999,-0.41 0.48,0.29 0.29,-0.94 -1.79,-1.37 0.06,-0.68 0.78,-0.81 -1.17,-0.8 0.61001,-0.73 -0.86001,-0.7 0.21001,-1.06 -1.35,-1.12 1.13999,-1.03 1.25,0.78 0.26,-0.84 -2.06,-1.32 -0.62,-0.98 -3.71,0.06 -0.32,-0.66 0.36,-1.16 -1.02,-0.88 -0.64,-1.41 -1.41,-0.47 -1.31,0.15 -0.46,-0.31 -0.18,-0.65 0.39,-2.2 -1.18,-1.43 0.19,-0.47 -2.55,0.2 1.26,-0.87 0.26,-0.98 v 0 l 0.43,-0.86 1.17,0.08 v 0 l 1.68,-0.26 0.52,-1.33 -0.03,-1.08 -0.79,-0.83 -1.03,0.18 -0.89,-1.14 -1,-0.29 -0.75,-0.75 -1.53,-0.1 -1.36,-0.88 -0.78,-0.81 -0.13,-1.45 -1.26,-0.44 -0.02,-1.45 -1.11,-0.45 -0.38,-0.63 0.12,-0.47 1.81,0.37 0.09,-0.45 -1.54,-0.69 -0.83,-1.57 -0.73,-0.36 -2.96,-0.21 -2.87999,0.72 -1.56,-1.08 -0.54,0.3 -1.54,-0.41 -1.3,0.41 -1.4,-0.32 -0.72,0.61 -0.48,1.08 -1.9,-0.17 -1.25,0.84 -2.81,0.28 -0.09,0.84 -0.98,1.01 0.26,1.71 -2.39,2 -6.93,2.1 L 10.4,89.6 8.82,91.13 8.03,91.15 7.09,90.62 6.56,90.9 4.63,90.76 3.46,91.88 2.28,92.18 0.35,91.19 0,90.15 v 0 l 1.22,-1.49 1.66,-3.91 0.56,-0.08 1.28,1.2 1.97,-0.2 -0.24,-1.1 0.63,-0.69 2.81,-1.18 0.51,-0.7 1.73,-0.67 -0.21,-2.11 2.25,-0.29 -0.47,-1.83 1.46,-2.13 0.55,-1.43 0.35,-2.09 -0.47,-0.89 1.53,-1.3 -0.03,-0.67 -1.35,-0.86 -0.58,-1.03 -0.24,-1.41 -1.42,-0.64 -1.03,-1.02 -3.61,-1.42 0.95,-0.77 1.86,-0.67 -0.72,-1.63 0.96,-0.52 0.31,-0.73 -0.52,-0.69 -0.13,-1.24 -0.6,-1.14 1.11,0.05 1.83,-0.63 0.38,-2.09 -0.82,-0.95 -0.33,-1.5 2.3,0.06 0.93,-0.47 3.19,1.91 1.35,-0.47 -0.38,-1.58 1.51,-1.22 -1.62,-1.27 0.73,-0.67 -0.18,-1.28 -3.09,-1.68 -0.81,-1.03 -1.89,-1.18 0.77,-5.14 1.32,-0.62 -0.44,-0.41 -0.99,0.04 -0.83,-2.49 0.77,-1.35 1.55,-0.95 3.12,2.08 3.2,1.32 1.6,1.05 v -1.22 l 1.93,0.67 v 0 l 2.92,0.18 2.45,-0.78 0.91,0.89 0.27,0.95 0.88,0.99 -0.54,2.28 0.67,0.93 2.14999,0.35 2.5,0.99 1.19,1.3 2.02,-0.06 0.15,-1.95 0.34,-0.46 1.18,-0.41 5.11,0.55 1.17,-0.31 0.84,0.29 0.77,-0.28 3.72,0.06 0.12,-0.71 -1.48,-2.47 -0.09,-1.28 -2.82,-0.04 -0.4,-0.7 -3.29,-0.91 -0.56,-0.75 -1.43,-0.47 0.07,-0.44 1.52,-0.23 1.79,0.27 1.41,-0.77 -0.76,-2.08 0.41,-0.71 -0.28,-0.95 -1.62,-1.19 -0.04,-0.37 0.54,-0.8 h 2.37 l 0.31,-0.63 0.72,-0.34 2.74,1.15 3.34,-1.07 -0.03,-0.75 0.98,-1.27 -0.59,-0.75 0.84,-1.6 -0.21,-1.15 1.15,-2.18 0.32,-0.12 0.64,0.55 0.31,0.81 0.45,-0.17 0.2,-0.76 0.77,-0.02 -0.28,-1.13 1.03,-0.23 0.51,-0.84 2.72,2.82 0.5,-0.56 -0.43,-1.48 0.03,-1.45 2.2,-0.91 0.33,-0.94 -0.29,-3.31 1.73,-0.79 3.17,-0.32 1.46,-2.42 0.97,-0.36 z"
     title="Roscommon"
     id="IE-RN" />
</svg>
