<?xml version="1.0" encoding="UTF-8" standalone="no"?>
<!-- Created for MapSVG plugin: http://mapsvg.com -->

<svg
   mapsvg:geoViewBox="-10.617532 55.384216 -5.429631 51.419751"
   width="118.24999"
   height="94.099998"
   version="1.1"
   id="svg1"
   xmlns="http://www.w3.org/2000/svg"
   xmlns:svg="http://www.w3.org/2000/svg"
   xmlns:mapsvg="http://mapsvg.com">
  <defs
     id="defs1" />
  <path
     d="m 73.15,0 0.41,1.73 0.69,0.39 2.02,-0.09 0.19,0.78 3.00999,1.58 2.89,5.65 1.82,0.92 0.99,1.54 0.96,0.33 -0.83,3.19 0.16001,0.77 0.88,0.73 0.52999,1.43 1.04,-0.08 0.45,1.34 1.06,-0.39 1.16001,1.61 1.06,-0.04 4.3,1.39 1.58999,2.13 1.81001,-2.01 1.43999,2.95 0.9,0.19 1.26,2.42 2.35,1.94 0.82,-0.76 0.98001,-1.71 1.73,-0.18 0.91,-0.66 0.63,-1.79 1.77,0.74 0.89,-2.23 1.50999,0.31 1.44,2.2 -0.27999,0.41 0.52,1.06 0.94,0.51 0.57999,-0.27 0.52,0.37 -0.27,0.41 0.22001,0.59 -0.95,1.91 0.25,1.12 -0.55,0.82 -1.22001,0.43 -1.25,1.83 -0.07,0.78 0.85001,2.12 -0.51,2.39 -1.12,0.69 -0.18,0.49 0.92,1.69 -0.67,0.21 -2.52,-0.29 -0.77,0.49 -0.91,1.53 -0.48,1.68 0.22,0.92 1.79,1.92 -0.51,2.31 -0.01,1.98 -1.34,1.64 -0.97,2.66 -1,0.12 -1.8,0.94 0.74,1.9 -0.76,1.27 0.48,1.88 -2.11,1.09 -1.16,1.62 -3.34,1.78 -3.61,-0.74 -1.12,2.23 -3.86,1.01 0.22,1.94 v 0 l -1.2,-0.26 -1.16,0.84 -0.4,0.61 0.05,1.36 -0.7,0.73 -1.23,0.06 -2.64,1.3 -2.79,-0.06 0.14,0.75 -5.97,5.65 -0.54,0.43 -1.24,0.16 -0.87,1.66 -1.82,1.23 -0.42,1.63 -3.58,1.93 -3.07,-0.95 -2.09,1.48 -0.14,1.42 -0.53,-0.08 -0.72,0.45 -0.82,-1.73 -1.09,-0.78 -2.78,0.43 -0.18,-0.94 0.33,-1.48 -1.39,-0.31 -0.71,0.17 -1.8,-0.6 -0.42,0.58 -0.2,2.34 1.01,1.23 -0.42,0.33 -0.68,-0.6 -1.09,-2.4 -1.98,-1.79 -0.56,-0.92 -0.4,-3.18 0.24,-1.17 -0.41,-1.05 -1.24,-1.47 0.54,-1.65 -0.23,-0.24 -0.9,0.18 -0.58,-0.57 -1.64,-0.29 -0.28,-2.19 -2.04,-1.09 -2.46,1.19 -0.13,0.78 -0.92,0.35 -0.82,-0.76 -0.39,1.29 -0.69,-0.1 -1.47,1.72 -1.15,0.25 -0.5,2.03 -0.62,-0.1 -0.78,0.41 -0.65,2.35 1.01,0.4 -1.72,1.37 -5.85,2.34 -2.61,-1.19 -0.99,0.66 -1.37,-0.23 -0.64,-1.07 -1.39,0.5 -1.84,2.36 -0.81,-0.99 -2.19,0.08 -0.99,-0.37 -2.6,-2.46 -2.17,-0.41 v 0 L 6.98,83.96 6.38,81.94 5.47,80.63 5.3,79.5 4.5,78.27 3.48,77.56 3.13,75.81 0.04,73.99 1.51,71.9 0.97,69.52 0.34,68.5 1.59,61.83 0,54.26 v 0 l 2.99,-0.78 2.34,-2.94 0.74,-0.51 h 3.34 l 3.43,-1.09 2.7,1.82 0.53,-0.65 1.33,-0.12 2.46,1.34 1.52,-0.2 1.12,0.57 1.09,-0.22 1.35,0.47 1.6,1.37 2.34,0.14 0.28,-1.29 1.43,-0.79 2.8,0.61 0.77,0.94 1.51,-0.82 0.64,-1.69 -0.06,-2.01 -0.43,-1.22 1.6,-1.15 1.5,-2.36 0.74,-2.64 0.65,-0.35 0.94,0.21 1.51,-1.02 0.15,-1.06 -0.71,-0.94 0.33,-0.82 2.06,-0.91 1.6,0.71 1.31,-0.31 -0.91,-1.59 0.43,-1.57 -0.98,-1.67 -3.16,-1.67 -1.64,-0.45 0.43,-1.49 0.33,-0.38 1.42,0.3 3.48,2.06 -0.02,-1.24 -0.77,-0.55 -0.15,-0.57 0.72,-2.47 2.08,0.33 0.86,-1.12 1.73,-0.13 -0.58,-1.97 0.77,-0.84 -0.05,-1.73 0.84,0.55 1.13,-0.5 -0.68,-1.39 0.15,-0.36 0.22,-0.15 2.23,1.69 0.94,-0.41 -0.18,-0.71 0.3,-0.71 0.9,0.16 0.51,-1.34 0.75,0.51 0.57,-0.63 0.41,-2.69 1.07,0.04 0.31,-0.53 1.25,0.02 0.54,-0.54 0.67,0.32 0.78,1.42 0.5,0.21 1.12,-0.9 0.26,-1.07 1.13,-0.19 0.3,0.31 0.65,-0.27 0.3,-3.19 L 69.52,8.43 69.04,7.58 69.15,6.93 68.54,6.58 68.32,5.31 67.29,5.04 66.48,5.43 65.46,4.55 v 0 L 68.9,2.52 69.67,2.44 Z"
     title="Westmeath"
     id="IE-WH" />
</svg>
