<?xml version="1.0" encoding="UTF-8" standalone="no"?>
<!-- Created for MapSVG plugin: http://mapsvg.com -->

<svg
   mapsvg:geoViewBox="-10.617532 55.384216 -5.429631 51.419751"
   width="82.920013"
   height="115.14"
   version="1.1"
   id="svg1"
   xmlns="http://www.w3.org/2000/svg"
   xmlns:svg="http://www.w3.org/2000/svg"
   xmlns:mapsvg="http://mapsvg.com">
  <defs
     id="defs1" />
  <path
     d="m 9.79001,13.71 0.5,-2.46 0.50999,-0.7 4.72001,-2.52 1.08,-2.07 1.29,-1 0.9,-2.11 1.32999,-1.11 1.04001,-0.22 0.99,-0.99 1.48,-0.53 1.9,1.88 3.72,-1.23 0.37,2.09 1.15,1.38 1.39,0.63 1.18,2.48 4.19,2.15 3.72,0.91 2.55,-4.02 1.93,-1.31 3.06,-0.9 7.04,3.42 4.5,3.63 1.94,0.04 7.12,1.39 1.49,-2.72 0.92,-0.7 1.74,1.88 1.37,0.39 0.74,0.87 0.58,-0.19 2.12,1.33 1.38,-1.21 1.28,0.46 1.91,-0.37 v 0 l -1.32,1.33 -0.45,1.52 v 0 l -0.16,0.45 v 0 l -0.5,1.72 -1.3,0.31 -0.22,0.37 -0.78,2.85 0.68,1.48 -0.56,1.26 0.37,0.14 -0.8,1.79 -1.14,-0.6 -0.58,0.33 -0.47,-0.21 -1.1,0.72 -0.51,0.74 0.37,0.72 -1.16,0.93 1.34,1.17 -0.15,2.4 -0.73,0.97 -1.37,0.95 3.52,3.16 1.16,-0.35 -0.29,0.81 -0.87,-0.13 -2.10001,1.51 -0.09,0.57 0.35,0.56 0.55,0.22 1.24,-0.33 5.28,2.17 -0.37,0.59 v 0 0 0 l -2.15,2.72 -0.41,-0.1 -1.39,1.25 0.13,1.26 0.95,0.54 -2.55,3.56 -2.06,-0.51 -1.38,0.45 -0.74,0.93 -0.2,1.67 2.16,1.4 -1.81,1.44 -0.21,0.81 -0.73,0.02 -1.12,0.91 -0.39,0.78 0.24,2.46 -2.43,3.63 -1.7,1.86 -0.05,0.58 -1.78,-0.5 -0.52,2.28 -3.62,0.76 -0.43,1.09 -1.96,0.25 -0.21,0.89 -2.29,0.89 -0.19,-0.37 -0.31,0.08 -1.39,0.62 -0.68,0.83 -0.87,0.25 0.34,0.95 -0.13,1.96 -0.85,2.03 -1.48,1.51 -0.78,1.47 -1.02,-0.12 -1.37,1.05 0.38,0.73 -0.33,0.29 1.12,1.05 -2.5,1.8 -0.67,1.6 0.47,0.66 -0.19,0.75 0.7,1.65 0.82,-0.33 1.07,2.12 3.77,4.58 0.17,0.6 -0.3,0.73 0.76,1.62 -0.57,2.42 v 0 l -0.33,0.73 -0.93,-0.15 0.23,2.78 -0.59,1.6 -1.56,-0.14 -0.36,1.74 -0.78,0.36 -0.91,1.18 -0.36,-0.04 -0.53,1.37 -0.72,-0.66 -2.12,-0.67 -0.57,0.29 -0.7,-0.21 -0.13,0.73 -0.88,0.96 -0.65,-0.13 -0.77,0.77 -0.26,-0.41 -0.75,0.06 -1.67,-2.79 -0.97,0.29 0.87,1.08 0.04,1.52 -1.33,0.63 -0.53,-0.61 -2.26,-1.27 -1.08,-1.6 -0.68,-0.47 -0.27,-1.35 -1.03,0.08 -0.78999,1.64 v 0 l -0.04,-1.85 -0.38,-0.89 0.62,-1.47 0.06,-3.37 -2.25,-4.44 L 24.54,97.93 23.03,95.87 22.75,93.41 22.08001,92.78 21.85,91.93 16.92,94.44 16.74,93.9 17.11,92.58 15.5,91.93 14.32,92.12 13.7,91.6 12.58,91.44 11.08,89.74 10.44,88.41 9.52,88.25 9.05,87.67 8.98,86.73 l 0.39,-0.8 1.8,-2.26 0.31,-2.57 2.15,-1.13 -1.17,-0.6 -0.16,-1.08 0.12,-0.48 1.2,-1.03 -0.48,-1.92 0.67,-0.48 0.2,-0.74 -0.99,-3.33 0.14,-0.85 -0.45,-1.67 -1.8,-1.2 -1.36,-2.95 -0.1,-1.09 -1.91,-1.16 0.59,-0.77 0.43,-1.5 -0.75,-2 v 0 L 9.41,57.34 10.88,59 11.83,56.71 11.79,55.55 11.36,55.01 9.84,54.48 8.49,54.56 7.25,55.24 4.84,52.77 3.91,52.97 0.62,52.52 0,52.19 0.02,51.9 1.28,50.81 2.1,50.66 l 1.43,0.5 2.58999,0.02 1.76,0.41 3.42,-0.91 3.92001,0.17 0.2,-2.41 -0.39,-0.78 2.66,-1.24 0.34,-0.85 -2.37,-1.71 -1.65,0.48 -1.65,-1.07 -1.27,-0.17 -0.02,-0.72 2.56,-0.2 0.27,-0.77 -0.38,-0.86 3.72,-1.93 -1.63,-4.18 0.07,-0.68 2.73,-1.07 1.02,0.33 1.03,-0.62 -1.66,-1.11 -0.67,-0.98 4,-2.27 -0.14,-0.96 -1.29,-1.48 -1.78,-0.91 -1.66,-0.36 -0.65,-0.56 -0.16,-1.29 0.3,-0.82 -2.33,-3.04 -0.74,-0.09 -1.21,0.72 L 10.8,18.21 9.31,16.63 8.98,15.85 Z"
     title="Kildare"
     id="IE-KE" />
</svg>
