<?xml version="1.0" encoding="UTF-8" standalone="no"?>
<!-- Created for MapSVG plugin: http://mapsvg.com -->

<svg
   mapsvg:geoViewBox="-10.617532 55.384216 -5.429631 51.419751"
   width="140.59"
   height="91.709999"
   version="1.1"
   id="svg1"
   xmlns="http://www.w3.org/2000/svg"
   xmlns:svg="http://www.w3.org/2000/svg"
   xmlns:mapsvg="http://mapsvg.com">
  <defs
     id="defs1" />
  <path
     d="m 70.399995,15.79 3.18,0.23 2.62,0.63 0.42,-0.84 1.19,-0.17 1.64,-1.75 2.29,-0.29 1.61,0.16 0.25,0.97 -0.25,1.5 -0.62,0.88 -2.38,0.62 -1.25,0.88 -0.5,3.13 2.12,0.62 5.63,-0.12 1.38,1.25 1.13,-1.13 0.87,-0.12 0.63,-1 v -1 l 0.75,-0.5 0.38,-2.63 1.37,-0.63 0.16,-0.74 0.5,-0.37 0.9,-0.02 0.64,-0.41 0.46,-0.74 0.18,-2.69 1.25,-1.27 1.26,0.23 0.82,-0.5 0.21,-0.92 1.009995,-1.42 -0.549995,-1.25 0.399995,-1.33 -0.539995,-3.01 0.789995,-0.83 2.7,-1.21 v 0 l 1.26,3.63 -0.29,0.5 0.3,0.81 0.06,4.8 0.56,0.98 0.06,0.92 0.57,0.31 1.17,1.96 0.69,-0.12 1.68,1.56 0.75,-0.58 0.63,-1.25 1.36,-0.67 1.65,0.69 0.66,1.06 1.91,-0.4 0.8,0.71 2.29,-1.12 0.42,-0.53 1.33,-0.35 0.27,0.19 0.82,-0.58 0.93,0.18 1.38,-0.83 1.23,0.19 3.92,2.52 -0.02,2.34 1.98,0.4 0.6,1.25 0.56,-1.21 1.05,-0.57 0.74,-0.14 1.01,0.33 1.22,-0.39 0.32,0.68 v 0 l -0.04,0.23 v 0 l -0.85,2.07 0.05,2.49 -2.02,1.8 0.16,1.75 -0.59,1.13 -0.31,1.96 0.94,0.44 -0.18,1.83 -2.71,2.94 1.37,1.95 -0.19,0.84 -0.95,0.96 0.99,1.28 -0.72,3.79 0.52,1.86 -0.56,1.91 -1.2,0.82 -1.6,0.31 -0.54,-1.82 -0.72,0.11 -0.3,0.48 -1.85,-0.92 -0.61,1.42 -0.84,0.88 -0.76,0.31 -0.98,-0.39 -1.01,0.84 -0.25,0.85 0.53,0.49 0.41,1.15 -1.64,2.31 -0.5,-0.11 -0.25,-0.56 0.91,-2.41 -1.13999,-0.57 0.35,-0.74 -0.21001,-1.65 -0.87,-0.3 -1.82,0.51 -0.15,0.86 -0.74,0.79 0.24,0.97 -0.87,0.59 -0.7,-0.04 -1.68999,1.53 -0.2,0.5 0.38,0.76 0.01,1.34 -1.58,1.38 1.82,6.15 0.78,-0.21 0.51,-1.47 1.52,-0.75 0.73,1.39 0.92,0.71 2.36,-1.16 0.5,1.03 0.95,-0.77 0.46,0.71 -0.07,1.77 0.54,0.25 -0.05,1.01 1.24,-0.3 1.52,1.07 0.58,1.47 -0.34,0.68 0.15,0.88 3.89,-1.53 1.93,-0.07 0.59,0.86 -0.5,0.4 0.38,0.11 0.04,2.92 1.06,1.24 0.62,2.4 0.45,0.02 0.83,-0.71 1.22,1.13 3.27,-0.44 0.18,0.82 -0.41999,3.28 -1.38,1.73 -0.14,0.87 0.63,1.53 1.07,0.28 0.39999,0.48 -0.07,2.46 0.78,0.95 -0.96001,1.4 -2.31999,0.99 v 0 l -1.4,0.23 -1.28001,-1.48 -4.61,-0.48 -2.75999,1.11 -1.11,0.8 -1.53,-1.39 -0.56,-1.62 -1.63,-2.46 0.06,-0.99 -0.34,-0.15 -1.6,0.93 -0.47,-1.44 -0.78,-0.54 -2.64,1.62 -0.21,1.68 -2.19,0.8 -0.56,2.36 -5.85,0.34 -2.1,1.03 -3.98,0.47 -1.900005,1.12 -4.23,-2.15 -0.81,-0.87 -1.06,-2.32 -0.58,0.25 -1.01,-0.88 -1.03,0.08 -0.56,0.47 -1.08,-2.21 -0.99,-0.41 -0.84,-1.22 0.42,-0.59 -1.04,-1.58 -1.12,0.26 -0.08,-1.94 -0.77,0.65 -2.57,-0.61 -0.7,-0.65 -1.57,-2.69 0.46,-1.29 -0.43,-2.48 -0.8,0.72 -2.29,0.56 -0.81,0.63 -0.37,-0.37 -0.82,0.69 -2.04,0.4 -1.02,-0.38 -0.7,-1.11 -1.08,0.25 -0.73,-0.78 -1.58,-0.74 -1.7,2.55 -0.5,-0.59 -0.69,-2.14 -1.98,0.46 -0.78,1.16 -0.16,1.36 -1.94,-0.06 -0.62,0.27 -0.24,0.49 0.52,1.19 -0.46,0.8 -1.75,0.83 -0.36,0.56 -0.76,-0.79 -0.64,1.4 v 1.02 l -0.74,0.54 0.84,1.16 -1.4,0.21 -2.37,1.16 -4.93,0.91 -3.39,1.56 0.2,1.7 0.94,1.73 -0.59,0.49 -1.36,-0.57 -1.8,-2.98 -1.19,-0.56 -0.55,-0.95 -1.27,-0.87 -0.53,-0.14 -0.77,0.35 -2.11,-0.82 -1.26,-1.03 -4.149995,-0.29 -3.24,-2.13 -0.46,2 -1.7,0.72 -0.82,1.76 -1.41,0.3 -0.11,1.33 -4.15,1.16 -0.87,1.68 v 0 L 15.51,87.03 14.28,84.08 12.75,83.06 12.16,83.28 10.07,82.14 7.58,81.72 5.16,78.5 3.83,77.72 H 2.9 L 1.99,76.54 1.92,75.78 2.48,74.77 3.39,74.69 5.14,73.42 5.6,73.44 6.72,71.42 6.64,70.9 5.46,69.99 5.35,69.57 3.5,68.38 2.69,67.39 4.16,64.4 6.29,63.56 6.7,62.51 6.51,62.09 5.55,62.14 4.98,60.73 4.11,60.62 3.62,59.3 3.65,57.91 2.88,56.82 2.43,55.02 2.82,55.16 3.09,54.85 3.18,55.27 3.49,54.89 4.74,54.91 5.45,53.74 5.13,51.6 5.35,50.88 7.52,50.44 6.54,45.39 4.7,44.38 3.69,44.41 3.46,43.17 2.66,42.18 1.48,41.64 2.2,40.15 1.52,39.06 2.37,38.86 2.73,37.6 2.4,37.49 1.84,37.95 0.89,37.7 0.49,36.47 v 0 L 0,36.08 1.14,36 2.64,35.25 h 1.63 l 1.5,0.88 2.13,0.5 2,-0.75 1.13,-1 h 1.37 l 1.51,-1.38 h 1.87 l 0.63,-0.75 2.75,-1.5 1.63,-0.13 1.5,-1.12 2.25,-0.13 0.88,-1.13 4.5,-0.12 3.129995,-1.75 1.25,-1.25 1.63,-0.75 0.12,1.62 0.63,0.88 1.13,0.12 0.87,-1.5 2.25,0.13 0.75,1.62 1,-1.25 1.51,-0.62 0.12,-2.13 1,-0.38 -0.12,-1.25 1.25,-0.87 0.12,-1.5 3.76,-0.51 1.25,-0.75 4.88,-0.37 1.5,0.37 1.88,-0.37 1.25,-0.75 2.5,-0.13 2.25,3.01 0.75,-0.63 0.51,-1.5 h 1.5 l 1.62,-0.88 -0.52,-1.11 z"
     title="Limerick"
     id="IE-LK" />
</svg>
