<?xml version="1.0" encoding="UTF-8" standalone="no"?>
<!-- Created for MapSVG plugin: http://mapsvg.com -->

<svg
   mapsvg:geoViewBox="-10.617532 55.384216 -5.429631 51.419751"
   width="272.15997"
   height="145.91"
   version="1.1"
   id="svg1"
   xmlns="http://www.w3.org/2000/svg"
   xmlns:svg="http://www.w3.org/2000/svg"
   xmlns:mapsvg="http://mapsvg.com">
  <defs
     id="defs1" />
  <path
     d="m 90.95999,127.27 1.5,0.16 0.59,1.05 -0.01,0.7 -0.75,0.1 -1.98,1.78 -1.35,-0.13 -0.57,-0.52 -1.32,-0.02 1.23,-2.92 1.63,-0.62 z m -5.8,-6.9 0.76,0.81 0.14,2.09 -1.07,0.64 -0.62,1.98 -3.15,1.3 -0.93,-0.14 -0.52,-0.87 0.38,-2.21 1.47,-1.34 0.43,-0.7 -0.26,-0.41 0.33,-0.54 0.83,-0.39 0.8,0.29 0.83,-0.58 z m -24.14,-9.02 0.88,-0.31 0.38,0.45 0.76,0.02 1.08,3.16 1.98,-1.26 1.2,-0.21 1.31,0.21 0.42,-0.7 0.75,-0.04 0.41,0.72 1.11,-0.1 0.55,1.05 1.12,-0.23 0.62,0.6 0.7,-0.33 1.01,0.25 0.01,0.99 -0.58,0.08 -0.54,1.24 -0.98,0.25 -0.3,0.79 0.88,0.35 0.17,0.81 0.93,0.58 0.36,-0.06 -0.01,-0.81 0.55,0.33 -0.37,1.07 1.11,0.41 0.46,-0.16 0.09,-0.52 -0.75,-0.35 0.97,-0.14 0.79,-0.81 -0.12,1.69 -0.77,0.25 0.3,0.97 -0.16,1.14 -0.22,0.23 -1.56,-0.21 -1.05,-0.54 -0.48,-0.74 -2.05,-1.16 -0.06,-0.43 -0.41,0.08 -0.43,-0.78 -1.19,0.19 -0.97,-0.25 -0.49,-0.64 -0.31,0.21 -0.25,-0.6 -2.58,-0.68 -0.89,-0.91 -0.77,-0.04 -0.39,-0.62 -1.36,-0.16 -0.94,-0.56 -1.53,-0.27 -0.69,-0.6 -3.57,-1.07 0.51,-1.26 1.84,-1.13 2.75,-0.04 z m 93.37,-9.04 h 0.27 l -0.86,-0.6 1.98,0.62 -0.68,0.35 -1.27,-0.31 -1.85,0.14 -0.63,0.52 0.17,0.21 -0.64,-0.14 2.08,-1.67 0.52,0.12 -0.56,0.33 z m -3.35,-4.2 -0.02,-0.56 0.85,0.14 z m -1.94001,-0.06 0.14,-0.47 0.89001,-0.47 -0.12,-0.29 1.03,0.14 -0.13,0.33 z m 0.84001,-1.61 0.09,0.19 -0.89001,-0.08 0.19,0.66 -0.71,0.86 -0.86,-0.02 1.71001,0.68 -1.17001,-0.1 -2.1,-0.97 3.02,-1.32 z m -85.17,-3 -0.65,0.35 -0.85,-0.21 -0.06,-0.74 1.07,-0.35 z m 2.2,-1.47 0.41,-0.04 0.43,0.53 -0.52,1.44 0.36,0.88 -0.02,1.17 -1.42,-0.97 -0.36,0.08 -0.2,0.56 -1.53,-0.17 -0.77,0.39 -0.33,-0.43 0.42,-0.6 0.45,-0.23 -0.07,0.54 0.71,-0.08 0.22,-0.45 0.83,-0.23 -0.68,-0.21 0.35,-0.23 -0.09,-0.66 0.36,0.27 -0.41,-1.4 1.06,0.14 0.3,-0.6 z m -3.46,-0.72 0.72,0.29 -0.24,0.72 -0.84,-0.37 z m 1.17,-1.83 0.64,0.45 0.27,1.96 -0.68,0.12 -0.3,-0.52 -0.4,-2.1 z m -0.66,0.47 -0.78,-0.14 -0.14,-0.86 0.54,-0.58 0.36,0.49 z m 4.68,-4.07 0.81,-0.02 0.44,0.88 -0.26,0.33 -0.57,-0.41 -0.87,0.8 -0.55,-0.66 -0.21,-0.99 0.21,-0.54 0.47,-0.16 z m 6.67,-0.61 0.3,0.06 -0.29,0.66 0.64,0.37 0.01,0.7 -0.69,0.41 -0.84,-0.78 0.78,1.69 1.22,0.64 0.34,1.61 -0.02,2.57 -1.04,1.71 0.42,0.29 v 0.49 l -0.61,-0.12 -0.52,0.64 -1.12,0.41 -0.97,-0.02 -0.8,-0.45 0.44,-0.41 -0.15,-0.21 -1.21,0.49 -0.45,-0.33 -0.76,0.64 -0.56,-1.42 -1.02,-0.29 0.23,-0.37 -0.31,-0.17 -0.29,-1.19 0.22,-0.35 0.43,0.25 1,-1.56 -0.7,-0.41 -0.4,0.21 -0.26,-0.45 -0.41,0.37 0.12,-0.51 -0.52,-0.51 -0.15,-0.9 0.98,-0.58 0.8,0.19 0.95,-0.29 -0.02,-0.39 2.02,-0.33 0.06,-1.93 2.37,0.08 -0.1,-0.7 0.56,-0.12 z m 4.57,-0.25 -0.01,0.9 -0.67,0.84 0.08,-0.45 -0.62,-0.53 0.13,-0.62 z m 1.32,0.02 -0.86,-0.02 0.65,-0.97 z m -23.69,-3.19 0.71,0.06 -0.28,0.6 -0.89,0.27 -0.6,1.15 -0.61,0.35 0.33,-1.25 z m -8.59,-0.53 -0.17,0.72 -0.69,0.43 -0.63,-0.14 0.48,-0.95 z m 24.27,-0.41 1.1,0.02 0.37,0.86 0.71,0.19 0.76,-0.68 1.07,0.37 0.12,-0.58 0.82,1.44 -0.37,0.54 -0.44,-0.25 -0.89,0.62 -0.52,-0.12 -0.09,0.64 -0.5,0.37 -0.65,-0.21 -1.62,0.41 -1.29,-0.37 -0.28,0.82 0.31,0.43 -0.51,0.45 -1.69,-0.78 0.06,-0.39 -0.44,0.04 -0.19,-0.68 1.73,0.6 0.49,-0.64 -0.57,-0.56 -1.2,-0.2 -0.72,-0.66 0.72,-1.32 2.33,-1.17 1.35,0.49 z m 4.7,-1.24 0.82,0.39 -0.2,0.37 -0.5,-0.21 -0.28,0.53 -0.23,-0.99 -1.82,-0.04 0.26,-0.9 1.52,-0.84 0.58,0.45 -0.89,0.82 z m 5.13,-6.78 0.44,0.27 -0.64,1.25 -0.62,-1.52 z m -9.79,-1.37 0.44,0.04 0.33,0.53 -0.27,0.27 -0.29,-0.33 -0.75,0.33 -0.13,-0.53 z m 9.58,0.8 -0.42,0.2 -0.62,-1.07 0.85,0.04 z m -7.35,-1.25 0.46,0.31 -0.21,0.57 -0.23,-0.2 -1.25,0.49 0.29,-0.94 0.76,-0.41 z m -32.02,-4 0.55,0.02 0.09,0.68 -0.33,0.86 -0.71,0.2 -0.13,-1.52 z m 3.48,-7.14 0.17,1.25 -0.97,0.7 0.76,-0.12 0.6,0.35 0.66,1.29 -0.4,0.55 -1.35,-0.06 1.46,2.3 -0.25,0.6 -0.55,0.31 -0.52,-0.08 -0.85,-0.82 0.49,-0.84 -0.2,-1.37 0.29,-0.47 -0.47,-0.23 0.15,-1.19 -0.38,-0.18 0.27,-1.09 -0.48,-0.29 0.21,-0.45 0.63,-0.04 -0.47,-0.64 0.34,-0.33 0.62,-0.06 z m -29.41,-17.86 1.08,0.29 0.43,0.49 -2.59,0.14 0.07,-0.72 z m -0.19,-2.08 0.62,0.53 -0.85,0.82 -0.81,-0.06 0.1,-1.15 0.58,-0.31 z m -0.04,-3.03 0.22,0.74 -2.24,0.61 -0.52,-0.63 0.75,-0.55 -0.77,-0.16 -0.9,-1.1 2.33,-0.53 0.67,0.31 z m -1.34,-16.43 0.47,0.41 -1.31,0.22 -0.78,-0.33 0.1,-0.27 z M 1.89,19.51 2.44,20.22 3.84999,20.65 4.34,22.02 3.3,22.26 1.57,21.65 1.33,22.2 0.71,22.51 0.67,22.94 0,22.74 1.04,21.05 0.92,20.51 1.42,19.9 1.33,19.43 Z m 10.36999,-3.24 0.41,0.47 1.45,0.22 0.08,0.82 -1.2,0.57 -0.03,0.43 1.5,0.78 -1.05,1.63 -1.04,0.63 -1.87,-0.43 0.1,-0.41 0.57,0.1 -0.23,-0.51 L 8.37,20.45 7.75,20.8 5.39,19.6 4.83,18.76 4.87,18.03 6.19,16.99 6.71,18.72 7.9,19.15 8.17,18.93 7.86,18.4 l 0.19,-0.47 0.59,-0.08 0.41,-0.82 1.79999,0.9 0.24,-0.55 -0.21,-1.1 0.97,-0.33 z m 161.01,-6.44 0.35,1.04 1.94,0.98 1.18,-0.29 1.17,-1.12 1.94,0.14 0.52,-0.27 0.94,0.53 0.78,-0.02 1.59,-1.53 0.70999,1.1 6.93001,-2.1 2.39,-2 -0.27,-1.71 0.97999,-1 0.09,-0.85 2.81001,-0.27 1.25,-0.85 1.9,0.18 0.47999,-1.08 0.72,-0.61 1.40001,0.31 1.28999,-0.41 1.54,0.41 0.55,-0.29 1.55001,1.08 2.87999,-0.73 2.96,0.22 0.73,0.35 0.83,1.57 1.54,0.69 -0.09,0.45 -1.81,-0.37 -0.12,0.47 0.37,0.63 1.11,0.45 0.02,1.45 1.25999,0.43 0.13,1.45 0.78,0.81 1.36001,0.88 1.53,0.1 0.75,0.75 1,0.29 0.88999,1.14 1.03,-0.18 0.79,0.82 0.04,1.08 -0.52,1.33 -1.68,0.25 v 0 l -1,-0.18 -0.59,0.96 v 0 l -0.26,0.98 -1.26,0.86 2.54,-0.2 -0.19,0.47 1.18,1.43 -0.39,2.2 0.18,0.65 0.47,0.31 1.31,-0.16 1.41,0.47 0.64,1.41 1.01,0.88 -0.36,1.16 0.33,0.67 3.71,-0.06 0.62,0.98 2.05,1.31 -0.25999,0.84 -1.25,-0.78 -1.14,1.04 1.35,1.12 -0.21,1.06 0.86,0.71 -0.62,0.72 1.18,0.8 -0.78,0.8 -0.06,0.69 1.78,1.37 -0.29,0.94 -0.48,-0.29 -0.7,0.41 -0.35,1.78 1.13,1.06 0.15,0.8 0.8,0.9 -0.78,1.39 1.17,1.54 -0.35,0.47 -0.63,0.02 -0.78,1.1 2.73,1.92 0.17,1.21 2.72,2.03 -0.06,0.8 -0.56,0.74 -0.57,-0.12 -1.48,0.57 -0.23,0.76 0.72,3.67 1.99,0.16 0.29,1.25 1.38,1.99 -1.6,4 -0.54,0.19 0.13,1.44 0.72,0.51 -0.06,1.01 0.98,0.45 -0.14,1.4 1.29001,0.35 0.76999,0.62 1.07,-0.66 0.5,0.06 0.65,1.75 0.65,0.72 -0.15,2.75 -0.29,0.43 0.23,1.3 -0.47,0.8 1.32,1.85 0.61,1.93 2.68,0.41 1.2,1.58 1.34,-0.51 3.78,0.66 1.13,0.74 2.76,0.21 1.04,0.39 0.42,-0.49 v 0 l 1.43,0.31 0.74,1.4 0.79,0.14 0.25,2.02 2.31,0.35 0.98,1.25 2.85,1.91 0.77,1.48 -0.2,2.55 -2.47,4 -1.24,0.31 -4.2,-0.54 -2.64,1.3 -2.71,3.5 0.08,0.91 v 0 l -0.46,0.64 -2.33999,0.58 -1.68,-0.12 -0.92,0.47 -2.03,2.1 -0.08,0.95 -1.58,1.65 -0.23,1.01 -0.97,1.34 0.17,1.42 -2.02,3.39 -1.04,1.16 -0.63,1.55 -1.42,1.08 -0.46,1.59 -0.49,0.41 -3.46,0.91 -1.43001,1.03 -0.63999,4.1 -0.92,3.19 -2.58,2.05 -1.88,4.72 v 0 l -2.86,-0.37 -0.98,0.93 -0.98,1.78 -0.54001,0.25 -0.44,-0.1 -0.48,-1.37 -1.27999,-0.73 -2.32,-0.5 -1.04001,-1.7 -0.63999,-0.15 -0.80001,1.7 -1.06,1.26 -2.18,1.39 -1.39,-1.89 -2.44,-1.2 -2.3,0.99 -1.03001,-3.04 0.19,-1.82 -2,-1.12 -0.41,-1.95 -2.53,0.17 -0.78,-1.47 0.19,-1.82 -0.23,-0.46 -5.77,0.54 -1.95,0.75 -0.83,-1.18 -0.5,-0.02 -1.76,0.39 -1.94,-0.02 -3.63,2.59 -2.43,0.17 -2.12,2.82 0.02,1.06 -0.58,0.62 -0.89,0.37 -1.22,1.3 -2.03,0.99 -0.08,2.28 -0.77,0.71 -0.82,-0.58 -0.91,0.16 -0.48,-0.73 -0.91999,0.73 -1.82,-0.75 -0.82,-1.66 -1.83,0.71 0.44,1.02 -1.07,1.72 -0.57999,-0.39 -0.16,-1.33 -1.48,-0.19 -0.97001,0.64 -1.10999,-4.39 -0.48,-0.39 -0.27,-1.7 1.65999,-1.37 -0.75,-2.42 -0.81999,-0.66 -0.26,-0.89 0.01,-2.05 0.88999,-1.47 -0.24,-1.49 -2.12,-0.75 -1.1,0.04 -0.56999,-1.24 -1.83001,-1.8 -1.33,-0.81 -1.69,0.02 -0.47001,-0.93 -1.73999,-0.79 -0.76001,0.06 -0.48999,-0.62 -1.59,-0.83 -0.92001,-1.2 -1.31,-4.03 0.58,-1.59 2.04,-0.17 0.06,-0.43 v 0 l -0.42001,-0.72 0.64,-0.93 0.93001,0.5 -0.21001,0.47 0.59001,-0.25 0.43,0.25 -0.09,-0.49 -0.41,-0.12 0.29,-0.58 -0.82,-1.03 -1.11,0.99 0.16,-1.26 -0.78,0.56 -1.41001,-0.8 -1.89,-0.25 -0.63999,-1.11 -1.1,0.04 -0.27,0.27 0.27,0.39 -2.27,0.8 -1.11,-1.18 0.84999,-0.89 1.53,-0.04 0.59,0.89 0.26,-0.33 1.94,-0.54 2.2,-0.35 3.78001,0.31 0.49,-0.1 0.55,-0.89 1.59,-0.52 0.21,1.86 -0.59999,-0.23 -0.45,0.62 -0.67,-0.14 -1.05,0.82 1.21,0.12 1.07,0.78 0.52,-0.33 1.02,0.64 0.63,-0.27 -0.54001,0.58 1.13,0.45 -0.09,0.37 1.52999,1.77 1.63,-0.89 -1.48999,-0.19 -0.12,-1.46 -0.77001,-1.86 0.47001,-0.27 -0.63,-0.91 -0.66001,-0.21 0.08,-0.37 -0.42,0.02 0.71,-0.93 -0.91,-0.08 0.57,-0.6 -0.05,-0.5 0.42,-0.04 -0.36,-0.66 0.15999,0.35 0.83001,0.02 -0.61002,-0.47 0.38,-0.8 -0.33999,0.08 0.08,-0.39 0.81,0.08 0.93,-0.91 -2.87999,0.99 1.44,-1.11 1.34,-0.49 0.35999,-0.58 -0.38999,-0.23 0.63999,-0.76 1.73001,-0.21 -0.08,-0.86 1.49,-1.17 h -0.31 l -0.27001,-0.58 -0.72999,0.21 -1.98,1.77 -0.47001,0.02 0.3,-0.54 -0.66,0.47 -0.93999,0.06 -0.70001,0.58 -0.95999,-0.35 -0.62,0.5 -1.5,-0.74 -2.04001,0.41 0.49,0.37 1.16,0.08 0.01,0.49 0.78999,0.14 0.07,0.35 -3.80999,-1.88 -1.57001,-0.25 1.49,0.02 0.49,0.31 2.88,-0.33 -0.06,-0.68 -2.06,-0.14 1.74,-1.15 -1.4,-0.02 -0.83,0.66 -0.7,-0.06 v -0.43 l 0.72,0.02 -0.57,-0.39 1.85,-0.56 0.21,-0.64 0.63,-0.39 1.97,-0.6 1.56,0.31 0.51,-0.7 -1.26,0.2 -0.83,-0.35 -1.05,0.66 -4.14,0.51 3.46,-1.26 0.7,0.02 -0.48,0.12 0.34,0.51 0.78,-0.64 0.35,-0.99 -0.92,0.29 -2.31,-0.6 0.69,-0.16 0.14,-0.8 0.78,-0.84 1.21,-0.21 -0.57,0.33 0.33,0.21 0.96,-0.39 1.11,0.02 0.61,-0.53 -0.01,0.45 0.43,-0.21 -0.14,-0.41 0.57,0.25 -0.67,-0.76 -0.46,0.06 0.33,-0.47 0.6,0.06 0.86,-1.09 -0.4,-0.47 -0.64,0.25 -0.56,-0.33 -0.74,0.51 -0.3,-0.39 -1.05,0.54 -0.86,-0.14 -0.69,0.95 0.76,0.53 -1.25,-0.35 -1.48,0.45 -0.35,-0.89 0.51,-0.33 -0.23,-0.41 -2.75,0.72 0.14,-0.45 -0.3,-0.27 -1.41,0.43 -0.8,-0.27 -0.67,0.27 -0.02,-0.74 -0.63,1.17 -0.7,0.54 -1.81,0.12 -0.84,0.76 -2.6,0.76 -0.59,-0.14 -0.88,1.3 0.77,-1.63 -0.79,0.66 0.21,-1.11 -1.21,0.45 -0.63,-0.14 -0.01,0.41 -0.38,-0.14 -0.14,0.58 h 0.54 l 0.28,0.35 0.44,-0.37 0.1,0.43 0.36,-0.43 -0.33,0.58 -0.99,-0.14 -1.53,0.41 -0.97,-0.19 -1.7,0.78 -1.69,0.16 -2.75,-0.35 -1.91,0.31 -0.2,-0.49 -0.64,-0.27 -2.43,0.84 -4.77,0.23 -0.29,0.33 -0.89,-0.33 -1.44,0.16 -0.5,0.6 -2.32,0.25 -0.21,-0.37 -0.43,0.39 -0.54,-0.39 -2.27,-0.29 -1.66,0.97 -2.89,0.7 -1.77,-0.31 -1.24,0.43 -2.85,-0.21 -1.73,1.56 -0.44,0.02 -0.61,-0.58 -1.46,-0.08 -0.45,0.89 -0.83,-0.27 -0.42,0.49 -1.54,0.25 -0.52,-0.25 -0.29,0.41 -0.66,-0.27 -0.39,-1.28 -1.25,-0.51 -0.83,-1.17 -0.52,-0.02 0.29,-1.15 0.49,0.37 0.6,-0.14 -0.12,-0.62 -0.71,-0.12 0.22,-2.92 -0.44,0.16 -0.2,1.58 -0.49,0.35 -0.59,-0.68 -0.55,-1.71 0.05,-0.41 0.26,0.29 1.03,-0.8 0.21,-0.54 -0.24,-0.17 0.41,-0.54 0.88,-0.21 0.4,-0.56 0.4,0.06 -0.88,-1.36 -0.62,-0.08 -0.15,-1.03 -1.52,0.99 1.06,0.33 0.59,0.6 -0.79,0.14 -0.51,-0.37 -1.38,0.64 -0.31,0.93 -0.77,0.58 1.1,1.97 -0.47,1.17 -0.02,1.65 -0.72,0.68 -0.16,1.11 -0.4,0.06 -0.04,0.49 -0.5,-0.62 -0.01,-0.7 -1.47,0.58 -0.88,1.15 -1.4,-1.19 0.07,-0.91 -0.68,-1.46 1.14,-2.78 0.98,-0.7 0.21,-0.56 0.55,0.06 -0.1,-0.76 0.4,-0.02 0.72,-0.88 -0.13,-1.03 -0.61,-0.64 0.9,-0.31 -0.35,-0.21 -0.05,-0.82 -1.19,0.27 0.17,-1.23 -0.69,-1.54 0.43,-0.7 -1.28,-0.41 -0.41,-0.86 0.57,-0.82 -0.15,-0.68 1.21,-0.33 1.24,0.43 0.34,-0.7 0.89,0.02 0.5,0.6 -0.16,0.66 0.79,0.2 0.55,0.86 -0.06,-1.5 -0.78,-0.74 0.37,-0.54 0.48,0.08 0.85,-0.58 -0.12,-0.76 -0.59,-0.49 0.58,-1.03 0.7,1.91 -0.52,1.58 0.07,0.88 0.79,0.56 0.37,1.54 0.42,-0.12 -0.19,-0.86 0.55,-0.72 -0.69,0.54 -0.31,-0.76 -0.33,-0.04 -0.25,-0.95 0.49,-1.83 1.33,-1.05 0.05,-0.68 -1.03,-0.04 -1.82,-1.23 -0.33,0.8 -0.36,0.14 -0.01,-1.87 -0.68,0.9 -1.38,-1.42 -0.19,-0.8 0.47,-0.82 0.02,-0.98 1.27,-0.08 1.06,-0.84 1.26,-0.06 0.63,0.29 0.28,-0.68 0.97,0.98 -0.33,-1.17 -0.69,-0.47 -0.99,-0.02 -0.5,0.63 -0.52,0.08 -0.29,-0.59 0.56,-0.6 -0.29,-1.01 0.54,-0.39 1.24,0.59 0.98,-0.29 -0.06,-0.55 -1.05,0.02 -0.39,-0.37 0.29,-0.49 0.4,0.47 1.12,-0.49 0.42,-0.86 -2.02,0.53 -0.72,1.03 -1.04,-0.04 0.3,0.49 -0.57,0.63 0.25,0.39 -1.12,0.18 1,0.27 -0.04,1.29 -1.4,-0.45 -0.72,0.18 -0.19,0.49 -0.34,-0.12 -0.23,0.33 -0.44,-1.27 -0.77,0.78 0.58,1.81 0.9,0.57 -0.41,1.01 0.07,1.6 -0.48,0.98 -0.66,-0.37 -0.35,0.21 0.15,0.62 1.08,-0.14 0.6,0.31 0.48,0.64 -0.15,1.09 -0.75,-0.04 -1.13,0.62 -0.4,-0.16 -1.19,0.7 -0.63,-0.02 -0.44,-0.45 -0.86,0.37 -0.91,-0.92 -1.75,-0.84 1.54,-0.7 h 0.43 l 0.76,0.66 1.49,-0.55 0.71,-0.82 -0.46,-0.35 -2.01,0.19 0.07,-0.7 -0.31,-0.33 2.27,-1.75 -0.84,-0.66 -0.02,-1.21 -0.35,-0.25 0.93,-0.53 0.08,0.41 h 0.67 l -0.64,-0.66 0.09,-0.7 h -0.36 l -1.91,1.78 1.7,-3.08 -0.3,-0.04 -0.1,0.51 -0.28,-0.82 -0.7,0.57 -0.65,-0.25 -0.62,0.29 0.12,-0.88 0.91,-0.41 h -0.71 l 0.21,-0.27 -0.21,-0.27 -0.49,0.68 -0.16,-0.55 -0.17,0.31 -0.3,-0.2 -0.46,0.23 -0.06,0.45 1.22,-0.12 -0.25,1.05 0.26,0.66 -0.14,0.47 -0.94,0.53 0.25,0.66 -0.21,0.76 -1.42,0.7 -1.33,-1.23 -0.68,0.08 -0.16,0.68 1.1,-0.04 0.64,0.25 0.13,0.39 -1.78,0.86 -0.06,0.66 -1.07,0.18 -0.51,-0.37 -0.43,0.1 0.5,0.49 1.12,0.04 0.08,0.64 -1.18,2.26 -0.16,-0.37 -0.35,0.37 0.09,1.03 -1.12,0.53 0.07,0.99 -1.76,1.11 0.56,0.68 -0.26,2.01 -0.77,0.55 -0.43,-0.49 -1.29,0.54 -0.36,-0.23 -1.49,1.05 -0.46,-0.14 0.35,1.64 -0.4,0.25 -0.71,-0.66 0.22,-1.38 -0.84,0.54 -0.65,-1.29 -0.19,0.58 -0.15,-0.49 -0.3,0.31 -1.78,-0.95 -0.18,-0.6 0.35,-0.39 -0.44,-0.02 0.36,-0.86 -0.52,-0.78 -0.22,0.54 -0.42,-0.21 0.42,1.5 -0.43,0.35 0.65,-0.1 -0.16,0.41 h -0.84 l -0.19,-0.8 -0.21,0.57 -0.48,-0.1 -0.58,0.43 0.51,0.27 -0.12,0.25 -0.97,-0.17 0.16,-0.74 -0.82,0.27 -0.41,0.62 0.09,0.31 0.78,0.06 0.78,2.69 -0.5,0.54 -1.12,-0.6 -0.04,-1.71 -1.41,-0.02 -0.22,-0.37 0.39,-0.49 -1.07,0.23 -0.42,-0.23 0.86,-0.37 0.62,-0.82 0.47,0.1 0.35,-0.76 0.43,0.68 1.19,-0.25 -0.2,-0.27 0.31,-0.25 0.59,0.58 -0.15,-0.68 0.36,-0.16 -0.66,-0.76 0.05,-0.82 -0.79,0.64 -0.98,0.17 -0.16,-1.23 -0.8,-0.88 -0.77,-0.06 0.7,1.44 -0.24,1.6 -0.77,0.49 -0.47,-0.78 -0.48,0.92 -0.85,-0.68 0.23,-1.34 -1.27,0.74 -1.08,-1.03 0.1,-0.64 0.8,-0.64 -0.09,-1.71 0.47,-0.57 1.07,0.57 0.33,-0.99 -0.44,-0.12 -0.1,-0.82 0.97,-0.2 0.24,-0.62 -0.24,-0.19 0.16,-0.47 -0.41,0.31 0.14,-0.55 -0.95,1.07 -0.87,-0.23 0.12,-0.64 0.86,-0.66 -0.59,-0.23 -0.09,-0.76 0.85,-0.84 2.27,0.23 1.14,-0.98 1.84,-0.23 0.63,-1.05 1.29,0.27 0.44,1.19 0.15,-0.82 1.28,-1.85 1.59,-0.37 0.21,-0.57 0.79,-0.25 -1,-0.68 -0.7,0.6 -0.02,-0.96 0.73,-1.29 1.11,-0.47 -0.47,-0.31 -1.31,0.23 -1.49,1.09 -0.46,-0.12 -0.53,-1 0.04,-0.78 0.38,-0.2 2.33,-0.2 0.18,-0.41 -0.35,-0.41 -1.11,-0.21 -0.4,0.27 -1.45,-0.04 -1.56,2.19 -0.61,0.23 -0.19,-0.35 -0.49,1 0.4,-0.02 0.19,0.84 -0.72,0.6 -0.56,-0.35 0.49,-1.21 -0.35,-0.39 -0.6,0.14 -0.49,0.47 0.31,1.37 -0.18,0.82 -0.52,0.25 -1.73,-1.13 -0.05,-2.03 -0.64,-0.59 0.19,-1.11 1.82,-1.03 0.85,0.21 0.12,0.51 0.43,-0.04 -0.48,-0.9 0.72,0.29 0.72,-0.18 0.07,-0.59 -0.68,-0.29 0.66,-0.63 0.2,0.35 0.77,0.08 0.25,0.74 0.76,-0.1 v -0.39 l 0.54,-0.12 v -0.31 l -0.79,-0.16 -0.35,-0.51 -0.53,0.25 -0.1,-0.39 -0.78,-0.14 -0.34,-0.61 -0.85,0.1 0.46,0.64 -0.86,1.43 h -1.20996 l -1.73,1.27 -0.93,-1.17 0.73,-0.76 -0.9,0.61 -0.21,-0.41 -0.21,0.59 -0.91,0.41 -0.05,0.7 -0.42,-0.14 -0.28,0.31 -0.16,1.37 -0.34,0.37 0.44,2.91 -0.26,0.62 -2.76,1.85 -1.35,-0.68 -1.06,1.23 0.31,0.57 0.98,0.35 -0.79,0.43 -1.15,-1.09 -0.48,0.37 -0.4,-0.21 0.14,-0.8 0.91,-0.04 0.3,-0.33 -0.63,-0.9 -2.04,0.72 -1.96,-0.58 -0.88,0.62 -0.63,-0.21 -0.35,-0.74 -1.42,0.04 -0.21,-0.92 -0.54,-0.18 -0.03,-3.49 -0.83,-0.72 -0.3,0.16 -0.85,-0.63 -0.91,-0.02 -0.71,-1.41 -0.27,0.33 -0.83,-1.11 0.24,0.84 -0.34,1.52 -0.81,1.13 -0.41,-0.12 0.46,-0.39 -0.05,-0.78 -1.53,-0.04 0.08,0.7 -0.79,0.33 -0.63,-0.37 -0.12,-0.53 -0.96,1.07 0.26,0.76 -0.3,0.72 -0.81,-0.33 -0.07,-0.76 -1.13,-0.74 -0.44,-1.19 -1.01,-0.88 -0.93,0.84 -0.48,-0.12 -1.7,0.86 -0.37,1.02 -0.46,-1.19 2.44,-3.14 -0.26,-0.53 1.25,-0.8 0.14,-1.21 0.69,-0.02 -0.27,2.27 0.31,-0.1 0.02,0.49 0.6,0.39 -0.33,-0.41 -0.12,-1.93 0.67,-0.94 -0.08,-0.63 0.47,-0.16 0.25,-0.63 -0.12,-1 0.63,-0.21 0.17,0.63 0.56,0.43 1.4,-0.08 0.43,0.55 h 1.08 l 0.3,0.47 -0.22,0.35 0.42,0.55 0.39,-0.06 -0.02,0.9 0.34,0.29 0.7,-0.31 -0.38,-0.08 0.2,-0.55 -0.26,-0.59 -0.56,-0.31 0.6,-0.04 1.06,1.6 h 0.29 l 0.25,-0.66 0.78,-0.08 0.24,-1.78 0.63,-1.39 0.63,0.25 1.9,-0.7 -1.45,-0.72 -0.75,0.27 -1.33,-0.18 -1.03,-0.63 1.08,-0.06 -0.52,-0.55 -1.33,0.76 -1.24,-0.35 1.24,-0.88 -0.01,-0.31 -2.23,-1.31 1.37,-0.72 -0.01,-0.51 0.94,-0.33 1.01,0.84 1.76,0.57 0.05,0.23 -0.63,-0.16 -0.17,0.29 1.11,0.31 0.86,0.9 2.55,1.13 0.4,-0.12 0.2,0.68 0.07,-0.31 -0.57,-1.78 -0.56,0.51 -0.29,-0.25 -0.36,0.18 -1.4,-1.19 -0.05,-0.57 2.19,-0.27 0.33,-0.78 -0.88,0.53 -2.31,-0.2 -1.1,-1.04 -1.27,-0.08 -2.04,-0.98 -1.98,0.16 -0.93,-1.12 -0.87,0.14 -0.39,-0.35 0.1,-0.63 1.27,0.8 0.41,-0.12 -0.74,-0.53 0.15,-0.33 -1.34,-0.78 -0.37,0.14 0.34,0.49 -1.02,-0.31 -0.31,-1.04 3.86,0.59 -0.13,-0.35 -2.26,-0.55 0.34,-0.23 -1.54,-0.63 3.24,0.25 1.63,0.53 0.19,0.47 -0.36,0.31 2.6,0.61 -0.2,0.25 -1.06,-0.06 0.1,0.33 2.55,0.67 2.23,-0.49 -0.16,-0.37 0.35,-0.16 -0.35,-0.47 -1.06,0.45 -0.25,-0.65 -0.42,0.43 -1.62,-0.94 -0.71,-0.08 -0.17,0.27 -2.03,-1.1 -4.25,-0.63 -0.33,-1.15 -0.77,-0.53 -0.23,-2.1 -2.45,-0.06 -1.29,0.67 -1.25,-0.88 -1.24,-0.02 -0.14,-0.27 1.29,-0.8 -0.04,-0.37 -0.37,-0.1 0.17,-0.63 1.83,-1.04 1.27,-0.27 0.44,0.27 -0.04,0.43 h 0.41 l -0.22,0.86 0.7,0.16 -0.31,-1.43 0.52,-0.29 -0.26,-0.78 h 0.37 l 1.95,1.55 0.44,0.02 0.36,-0.61 0.37,-0.04 3.97,1.69 0.42,-0.43 -0.35,0.08 -0.86,-0.63 -2.47,-2.43 -1.21,-0.53 0.09,-0.69 0.49,-0.04 0.71,0.63 0.05,-0.55 1.8,-0.18 0.94,0.86 1.36,-0.51 0.9,0.16 0.52,0.45 0.13,0.8 0.65,0.18 0.23,-0.55 1.08,0.12 0.69,-0.49 3.69,0.98 0.37,0.94 h -1.04 l -0.02,0.71 1.07,0.63 -0.09,0.8 0.6,0.33 0.28,0.74 0.5,0.06 -0.07,-0.65 2.32,0.35 -1.06,-0.71 0.82,-0.45 0.31,-0.76 0.57,0.04 0.63,1.25 1.78,-0.39 -0.93,-1.08 -1.73,-0.51 -1.48,0.82 -0.93,-0.1 0.23,-0.69 -0.34,0.02 0.07,-0.39 0.68,0.14 0.28,0.41 0.67,-1.12 0.57,0.16 -0.12,0.25 1.05,0.14 -0.62,-1.18 0.94,0.12 0.57,-0.27 0.23,-0.55 -0.34,-0.25 -1.04,0.35 -3.36,-0.51 -2.37,-0.94 -0.31,-0.84 -1.08,-0.78 -1.11,-1.45 0.02,-1.39 -0.63,-0.47 0.12,-1.33 1.53,-0.02 1.78,0.77 1.11,-0.24 0.54,-0.63 h 1.11 l 1.24,0.73 1.17,-0.1 0.07,0.69 1.12,0.69 2.27,0.02 1.54,0.49 1.71,-0.08 0.13,-0.33 0.94,-0.26 0.54,-1.12 1.69,0.16 -1.19,-0.67 0.21,-0.92 0.69,0.31 0.68,-0.41 0.76,0.27 0.83,-0.59 2.99,1.28 -0.22,-0.65 -1.96,-1.04 0.04,-0.39 -0.6,0.08 -0.92,-0.94 0.9,0.39 0.08,-0.86 v 0 l 1.42,0.98 1.6,0.51 3.87,2.06 2.64,2.04 1.4,0.24 5.13,-0.69 3.95,0.25 1.35,-1.31 2.48,-1.16 1.03,0.75 1.15,1.59 0.94,-0.08 1.32,-0.67 2.3,-0.2 2.44,1.18 1.24,0.14 1.74,-2.47 0.67,-0.06 0.29,2.73 1.33,3.04 2.59,0.25 0.93,0.43 3.69,2.65 0.33,0.63 4.39,-0.53 2.67,0.24 1.47,-0.84 5.39,-0.84 0.44,1 1.2,0.78 -0.77,2.12 0.29,1.61 0.67,0.61 2.16,0.25 0.72,-1.78 0.9,-0.61 0.21,-0.57 0.75,-0.33 0.07,1.98 1.49,0.18 0.19,0.31 0.75,2.21 -0.08,0.59 0.66,1.12 0.1,1.78 4.9,3.23 -0.05,3.42 2.38,0.33 1.11,0.98 1.77,-0.53 0.73,0.65 0.93,-0.47 0.84,-1.08 1.14,-0.57 0.95,0.22 1.03,0.78 0.73,0.04 0.68,-0.86 0.73,-0.33 0.79,-1.82 1.89,0.2 0.61,-1.66 0.23,-2.54 1.19,-0.98 3.04,-1.29 0.72,-1.37 1.5,-0.27 0.26,-0.35 -0.16,-1.27 1.13,-1.17 -1.6,-3.29 -0.42,-2.43 0.49,-0.65 1.88,0.29 2.18,-0.73 -1.21,-2.55 2.01,-1.22 0.75,1.14 0.58,-1 0.96,-0.77 -0.02,-1 -0.72,-1.69 1.32,-1.35 0.29,-3.1 -0.73,-0.57 0.88,-1.77 1.61,-0.12 1.45,-1.45 1.9,1.39 1.74,1.85 1.34,0.55 0.14,-1.88 1.53,0.08 2.53,-0.77 2.54,0.53 z"
     title="Galway"
     id="IE-G" />
</svg>
