<?xml version="1.0" encoding="UTF-8" standalone="no"?>
<!-- Created for MapSVG plugin: http://mapsvg.com -->

<svg
   mapsvg:geoViewBox="-10.617532 55.384216 -5.429631 51.419751"
   width="88.690002"
   height="124.41"
   version="1.1"
   id="svg1"
   xmlns="http://www.w3.org/2000/svg"
   xmlns:svg="http://www.w3.org/2000/svg"
   xmlns:mapsvg="http://mapsvg.com">
  <defs
     id="defs1" />
  <path
     d="m 0,21.48 1.47001,-0.5 1.25,-1.09 1.82999,0.5 2.36001,-0.6 0.23,-0.67 -0.12,-2.74 0.31,-0.3 0.37,0.5 0.39,-1.02 2.48,-1.79 0.59,-1.14 0.89999,1.19 0.68,0.29 0.77,2.1 0.88,0.41 0.69,-0.18 1.13,0.77 0.05,-1.23 0.92,-0.1 1.10001,0.91 -0.19,0.85 0.43,0.48 1.31,-0.6 0.6,0.15 1,0.85 1.54,2.18 3.25,-0.6 0.29,-1.25 1.14,-0.54 0.96,-1.1 1.18,0.79 2.15,0.66 0.89,-1.49 0.3,-2.85 1.19,-0.63 0.72,-1.56 1.48,0.44 0.19,2.79 1.23,-0.17 -0.23,-1.23 0.54,-1.93 2.48,-5.87 0.9,-0.22 0.96,-0.86 0.73,0.38 0.2,0.58 0.61,-0.08 4.28,2.66 1.9,-3.04 0.18,-1.02 -0.47,-0.93 0.05,-0.69 3.11,0.21 2,-2.64 1.14,-0.51 0.76,0.14 0.88,0.87 0.33,0.89 0.99,0.21 0.81,2.1 1.27999,-0.79 0.25,0.75 0.7,0.42 0.24,2.88 -0.35,1.13 0.7,0.52 1.76,3.84 1.13,0.56 1.72,-0.29 0.65,0.79 0.04,0.67 1.82,0.65 1.37,3.05 0.17,1.27 v 0 l -0.57,1.4 -1.32,0.56 -1.32,1.1 0.59,1.15 -0.2,2.4 -1.94,2 0.5,1.64 0.89,0.75 -0.23,0.3 -1.16,0.18 -0.56,1.11 3.02,0.02 1.5,3.09 1.95,0.98 0.14,-0.9 0.71,-0.9 0.67,0.04 0.62,0.98 1.93,1.19 1.31,1.51 0.34,1.35 -0.33,0.63 1.26,0.69 -0.1,1.1 2.05,1.22 -1.06,2.1 0.03,1.55 0.45,1.23 -0.62,0.61 -0.22,1.4 0.12,0.58 1.14,0.9 -0.61,1.03 0.66,1.11 0.76,0.54 0.19,1.21 2.42,0.76 1.65,2.05 1.1,0.58 0.89,1.7 -0.32,1.34 0.79,1.31 -0.19,0.65 -1.63,1.14 -0.68,1.17 -1.03,0.37 -0.17,1.01 -1.5,0.9 0.98,1.26 1.51,0.31 0.28,0.34 0.24,2.03 -0.83,3.17 1.01,2.2 0.66,0.19 -0.01,1.4 0.88,0.82 -0.36,0.71 -0.48,0.38 -0.72,-0.06 -0.34,0.51 2.1,0.67 v 0 l 0.19,0.63 -1.08,0.86 -0.33,2.39 0.73,1.68 0.57,0.5 -0.08,0.66 -0.92,0.56 -0.37,0.91 -1.44,-0.28 -0.97,-0.75 -1.44,0.69 0.06,0.65 0.65,0.55 1.52,0.59 0.1,1.82 -2.73,4.55 -0.12,2.14 -2.41,0.07 -0.79,1.4 -0.35,2.28 0.42,3.45 0.65,1.1 -0.06,0.59 -0.13,0.44 -1.62,1.16 -1.56,3.39 2.12,3.88 v 0 l -2.65,0.8 -2.27,2.72 -3.2,-0.06 -2.62,0.97 -0.86,-0.74 -0.42,-1.75 -3.39,-0.61 -2.17,-1.84 -1.2,-0.16 -1.41,1.07 -3.83,4.94 -1.79,0.74 -1.14,-0.81 -1.35,-2.74 -2.31,-0.63 -0.62,-0.49 -2.18,-4.49 -0.23,-1.16 -1.58,-1.13 -0.48,-2.45 -2.19,-2.63 -3.81,-1.18 -0.5,-1.06 -1.38,-0.16 v 0 l -0.14,-0.84 -0.82,-1.27 -2.04,-2.08 0.71,-2.17 -0.21,-1.07 0.46,-0.65 -0.34,-2.42 0.99,-3.85 -0.1,-0.96 -0.97,-1.06 -0.76,0.02 -1.42,-1.04 -1.6,-3.22 -2.14,-2.31 -2.3,-0.73 -0.47,-1.11 1.21,-2.19 2.6,-2.05 0.41,-1.53 0.99,-1.37 -0.52,-1 -0.77,-0.4 -1.59,1.4 -0.48,-0.12 0.18,-1.45 -1.01,-0.73 -0.06,-2.87 0.53,-1.57 0.08,-1.8 -0.83,-1.03 0.68,-3.83 -0.69,-1.01 -1.75,-1.23 -0.5,-0.75 -0.21,-1.32 0.75,-1.51 L 23.16,52.9 21.2,50.56 20.58,50.27 17.94,45.88 V 44.69 L 17.04,42.43 16,41.14 16.66,40.34 16.6,39.8 16.2,39.07 15.06,38.42 14.91,37.25 14.49,36.73 13.57,36.36 13.47,35.98 12.55,35.92 11.38,34.81 10.93,35.04 9.96,34.62 9.17,33.52 7.76,33.31 7.23,32.17 6.39,31.77 5.47,30.75 4.06,30.85 v 0 l -0.77,0.13 v 0 L 3.06,30.91 3.18,30.23 2.76,28.74 0.65,26.56 0.79,25.12 0.43,22.47 Z"
     title="Kilkenny"
     id="IE-KK" />
</svg>
