<?xml version="1.0" encoding="UTF-8" standalone="no"?>
<!-- Created for MapSVG plugin: http://mapsvg.com -->

<svg
   mapsvg:geoViewBox="-10.617532 55.384216 -5.429631 51.419751"
   width="605.68188"
   height="775.40155"
   version="1.1"
   id="svg1"
   sodipodi:docname="ireland-map-wexford.svg"
   inkscape:version="1.4 (86a8ad7, 2024-10-11)"
   xmlns:inkscape="http://www.inkscape.org/namespaces/inkscape"
   xmlns:sodipodi="http://sodipodi.sourceforge.net/DTD/sodipodi-0.dtd"
   xmlns="http://www.w3.org/2000/svg"
   xmlns:svg="http://www.w3.org/2000/svg"
   xmlns:mapsvg="http://mapsvg.com">
  <sodipodi:namedview
     id="namedview1"
     pagecolor="#ffffff"
     bordercolor="#000000"
     borderopacity="0.25"
     inkscape:showpageshadow="2"
     inkscape:pageopacity="0.0"
     inkscape:pagecheckerboard="0"
     inkscape:deskcolor="#d1d1d1"
     inkscape:zoom="0.77121331"
     inkscape:cx="303.418"
     inkscape:cy="351.39435"
     inkscape:window-width="1368"
     inkscape:window-height="842"
     inkscape:window-x="-6"
     inkscape:window-y="-6"
     inkscape:window-maximized="1"
     inkscape:current-layer="svg1" />
  <defs
     id="defs1" />
  <path
     d="m 544.0259,176.77752 -1.82135,-1.11633 -0.35255,-7.34418 3.40774,-1.11632 -2.0564,6.11036 z m -267.15226,-78.142187 2.17386,-1.233825 4.75904,4.053992 3.29019,0.235 1.58635,7.57921 2.87893,1.93886 3.17269,0.47003 8.343,-4.28901 3.4077,4.1715 0.58755,18.15485 3.34894,3.81896 5.64034,-4.64153 13.51332,2.23265 3.34893,-3.0552 7.69671,0.88131 10.16439,-5.52283 1.76258,-4.87654 3.1727,-1.11632 2.58514,3.93649 13.68958,-19.09489 1.46886,-6.345387 7.05042,-4.289005 2.40889,-4.994051 3.46642,-0.705042 7.10919,-6.227871 4.5828,-7.344192 2.76138,0.470029 0.94008,-22.796367 4.70029,0.763796 5.81659,-1.938867 1.93886,-13.454552 -1.58633,-7.109177 1.76261,-3.525211 10.63437,-11.221923 2.4089,-0.998811 3.58395,3.055184 11.10441,-9.4005643 6.22789,-1.2338238 h 7.69669 l 2.76145,4.8765421 5.58158,1.116318 5.22905,-7.2266843 10.04686,-0.7637955 10.3406,14.5708748 6.05163,1.703852 9.40055,-7.696713 13.51332,-6.6979011 4.93531,1.3513308 1.11631,8.4605093 7.69671,9.635577 9.45933,-1.351332 4.28898,6.756655 5.34658,-5.17031 5.28784,2.467647 5.87531,6.991671 18.80117,2.702662 -4.81782,13.337046 5.46409,5.992859 -9.75309,0.235 -0.47002,1.938867 8.34301,0.234999 5.5816,4.641528 -0.5288,3.701474 4.93525,2.820168 11.75073,1.468837 v 0 l -1.11633,4.1715 -9.75312,10.399375 -1.70385,8.342998 -19.21237,17.684821 -0.94006,5.87534 -5.69909,8.57802 -15.8047,35.48712 -2.93766,4.75903 -4.52403,0.47003 0.82257,8.81303 2.58513,2.58517 -2.7614,11.80945 0.76379,8.108 5.81659,14.5121 6.16913,8.69552 -0.70503,16.56849 4.87653,6.99168 0.82255,12.16198 5.1703,5.64033 -0.29366,5.93411 -13.51332,32.25568 -10.63438,12.92577 -1.58633,-2.58514 0.70504,3.93648 -40.24617,59.51733 -20.85749,36.77971 -16.21598,16.56847 -4.34775,6.93292 -8.10798,22.73763 -1.46887,10.28185 0.76381,22.73763 6.16911,17.21478 -14.74715,2.82014 -0.82252,-1.11629 3.17269,-0.64631 0.29366,-3.93647 -7.93171,-7.16793 -34.95837,-0.88129 -4.23022,1.58632 -6.93294,10.51688 -7.40294,4.81778 10.75191,15.56972 -1.93891,13.45454 2.23267,8.81305 11.51568,0.8813 10.81065,8.63675 1.46884,4.46529 -1.99764,0.11753 -0.76376,3.34895 5.52282,5.34656 5.28783,-1.23382 1.2338,-16.56848 4.40652,-2.70265 2.82016,-5.3466 -2.05636,28.14291 4.70028,16.86227 8.10799,14.86465 8.34298,4.46525 11.45696,-0.47004 5.52283,-2.76137 2.58515,7.57917 10.63439,8.16675 -6.46289,7.34418 0.52877,4.93531 -2.46764,6.22788 -11.16318,11.92694 -0.8813,7.2267 -4.58275,8.69551 3.46645,11.69195 -8.28425,6.8154 0.17627,4.99406 -2.58513,5.34657 -17.68484,-3.58396 -7.75544,-5.93413 -12.98451,-4.99402 -31.37439,-3.99526 -21.68006,0.99885 0.29367,-2.76145 -9.81184,5.34657 -27.73167,5.46409 -6.87416,6.22788 -15.33467,2.7614 -8.63677,4.23026 0.82256,-3.58397 -2.23264,-4.70029 -8.28425,-9.16554 -25.38152,-18.15483 -26.49783,-11.16318 -16.03972,-3.99525 1.76261,-1.46881 13.63083,1.1163 4.05399,3.34895 15.21714,3.58397 12.04448,7.93172 6.16911,0.1174 0.47003,-3.81899 -12.10321,-3.11392 -0.1174,-11.04568 -1.99762,-4.11274 -2.05637,5.5816 1.23383,4.81779 -3.81898,0.1174 -3.46646,-2.58517 -3.23146,1.46884 -7.28543,-1.58635 -2.11512,-2.46765 -18.09608,-0.58754 -5.34658,3.46646 -6.34538,-0.11752 -11.22193,4.46525 -10.39936,-1.99761 -8.63678,8.04924 -12.69074,1.23384 -5.40532,-5.11155 -4.70029,-1.46888 -3.76023,-8.28421 6.87416,-5.81663 1.17508,12.63202 4.46526,-2.11514 -0.1174,-9.28305 2.76142,-7.16791 22.03257,-21.68007 -4.05398,-16.62722 -3.64273,4.23025 2.23263,4.58275 -10.04684,11.51572 -7.93173,2.70266 -10.28187,-3.7015 3.81899,5.11156 1.64509,-1.58633 -0.35252,2.58511 -16.03971,13.16085 -6.5804,2.11511 -5.22906,-8.93056 0.35252,5.22907 4.34776,5.69908 -0.41127,3.93651 -4.87655,4.11275 -2.11511,6.46289 -10.63439,6.11034 4.93529,-0.52874 16.09846,-8.81307 3.99524,4.93529 1.76261,-4.81775 3.17268,2.70266 2.70267,-0.47003 -7.40295,4.70026 -7.93171,11.51571 v 5.46405 l -4.99406,2.46766 0.29376,2.87894 10.92815,-3.70151 -8.04923,10.69317 1.99763,6.93292 2.87892,1.99761 -4.05399,2.70268 -2.23264,-3.34896 -6.75665,0.76379 -8.04923,8.34297 -15.569685,5.11157 -5.934106,7.34421 -1.175073,5.22908 -3.818979,3.58395 -4.230252,0.52877 -5.640338,13.27831 0.998809,4.58275 -6.697901,5.99287 -3.172691,-0.35252 -3.701471,3.46647 -1.762605,-0.76379 0.940057,-6.4629 -2.115129,-2.35014 4.935299,-9.04803 7.872971,-6.58042 1.175068,-6.11036 7.931726,-5.58159 1.292578,-5.46405 v -15.1583 l -9.048041,-19.09491 6.286626,-4.99405 -0.705042,-4.11276 -6.169119,-10.28185 -3.348951,-2.23262 -3.231446,-7.57922 -4.99405,-3.11392 -5.22906,-0.23515 1.116315,-5.22909 -5.287818,-9.28306 -7.755463,-7.16791 1.116314,-2.70266 -6.110364,0.88129 -4.230254,-3.58396 -1.468836,3.46647 v 0 l -8.636769,-6.16912 -4.700283,-6.93294 -0.646287,-6.58037 4.641528,-7.69673 -0.29377,-3.46645 -3.113937,-5.34656 -6.286626,-0.6463 v 0 l -12.4557466,-22.79636 9.1655496,-19.91744 9.51807,-6.81541 0.763797,-2.58517 0.35252,-3.46645 -3.81898,-6.4629 -2.467645,-20.26995 2.056372,-13.45455 4.641528,-8.16677 14.21835,-0.47001 0.705042,-12.5145 16.039711,-26.7916 -0.587535,-10.63438 -8.930536,-3.46647 -3.818979,-3.23143 -0.352519,-3.81899 8.519259,-4.05399 5.699093,4.34776 8.401753,1.70386 2.173881,-5.40532 5.405324,-3.23146 0.470028,-3.9365 -3.348951,-2.93766 -4.289008,-9.87058 1.99762,-14.04211 6.286629,-5.05278 -1.116318,-3.70147 v 0 l 11.750703,-1.23384 3.348951,1.35134 18.859882,-13.21954 2.05637,-3.23145 6.05161,-19.0949 15.33467,-25.61654 -2.58515,-13.80707 15.09965,-13.68959 6.34539,-9.22431 0.64629,-14.39459 2.05637,-2.11514 7.40294,1.93886 1.23381,-1.23381 6.3454,-16.21598 -1.64509,-20.26996 4.93529,-22.26759 -3.40771,-1.35133 3.11392,-4.40652 17.33231,-17.91981 8.98928,-4.054 6.16912,-0.58753 7.28543,3.2902 5.69911,-0.7638 16.97975,5.28782 6.05161,-2.58516 8.75428,-11.16316 0.23501,-6.11037 3.64271,-2.46765 3.11395,-7.34419 -0.52879,-4.52402 -2.17389,-1.82137 -11.6332,3.81899 -2.23262,-6.52164 3.40771,-10.57564 7.28543,-7.99047 6.28663,0.76379 4.93529,-2.46764 4.1715,-8.81303 4.70028,-2.82018 0.70504,-6.40413 z"
     title="Wexford"
     id="IE-WX"
     style="stroke-width:5.87537" />
</svg>
