<?xml version="1.0" encoding="UTF-8" standalone="no"?>
<!-- Created for MapSVG plugin: http://mapsvg.com -->

<svg
   mapsvg:geoViewBox="-10.617532 55.384216 -5.429631 51.419751"
   width="98.320007"
   height="133.92"
   version="1.1"
   id="svg1"
   xmlns="http://www.w3.org/2000/svg"
   xmlns:svg="http://www.w3.org/2000/svg"
   xmlns:mapsvg="http://mapsvg.com">
  <defs
     id="defs1" />
  <path
     d="m 14.51001,0 1.71,0.34 v 0 l 0.45,0.7 2.74,1.07 0.89,1.37 2.06,0.02 0.56,-1.52 0.56,-0.12 0.58999,-0.7 5.14,1.72 v 0 l 3.90001,2.62 -0.01,0.46 -2.17,1.28 0.13999,0.82 6.5,5.4 1.40001,1.56 0.40999,0.64 -0.25999,0.62 3.3,5.62 2.89,1.56 0.50999,0.96 0.74001,-0.44 1.19,0.46 1.03,-0.56 1,0.3 -0.1,1.82 1.41,1.08 0.62,1.64 1.81,2.04 0.35,1.76 1.8,1.94 v 0 l -0.78,1.7 -2.22,2.85 -1.22,3.99 -2.02,2.51 -1.06,0.4 -3.62,-1.02 -1.54,2.31 -0.37,1.23 0.89,1.08 0.44,1.39 0.97999,1.15 0.38,1.02 -0.5,1.81 -0.95,0.9 0.39,2.63 0.48,0.44 1.35,-0.66 1.04,0.24 1.4,-1.11 2.15,2.27 4.49,0.54 0.82,1.29 2.09,0.66 0.44,1.07 0.64,0.3 0.78,1.17 0.71,0.26 0.64,1.33 1.14,0.93 -0.42,1.35 1.26,0.36 0.11,0.85 0.56,0.7 2.91,1.39 -0.85,1.17 3.28,3 1.28,-0.02 0.47,-1.91 1.9,-1.77 0.25,0.93 1,0.69 3.59,0.54 0.18,0.58 0.78,0.44 0.19,0.85 0.98,0.4 0.53,2.28 3.16,-0.4 2.92,4.5 0.99,0.87 0.88,-0.32 1.01,0.56 0.41,2.74 0.35001,0.16 0.91,-0.83 1.1,0.93 -1.32,1.86 -0.07,0.71 0.48,0.59 1.39,0.97 1.55,0.48 0.71,-0.3 -0.14,-1.23 1.2,0.57 0.44,0.69 0.02,0.67 -0.41,0.52 0.86,1.68 0.1,1.58 -0.83,2.02 1.2,0.83 0.77,1.29 -0.21,1.01 -0.65,0.06 -0.64,0.63 0.96,1.42 -0.35,0.87 -1.8,1.66 -1.02,1.6 0.27,0.51 v 0 l -0.33,0.44 h -0.75 l -3.25,-1.29 -1.22,0.93 -0.3,1.23 -0.76,0.63 -0.17,1.36 -0.97001,0.63 -1.13999,-0.36 -0.38,0.18 0.01,2.45 -0.79001,0.18 -0.63,0.79 -0.92,0.2 -0.27,1.68 -1.41,0.55 -0.58,1.9 -0.88,0.65 -1.2,-0.75 -0.25999,0.67 -0.79,0.51 -0.05,1.4 -0.89,0.1 -0.77,-0.49 -0.48,0.47 0.58,3.63 -1.26,2.23 -0.79,2.52 -0.05,1.32 -1.78,0.28 -0.83,-0.87 -1.12,-0.08 -1.03,1.7 -0.91,0.04 -1.16,-1.44 -0.69,-2.15 -0.88,-0.04 -0.34,1.08 0.36,2.11 -0.88,1.66 -1.03,-0.75 0.78,-0.87 -1.2,-1.01 -0.22,0.41 -0.42,-0.3 0.46,-0.81 -0.27,-0.69 -1.34,0.63 -0.17,-0.24 -1.8,0.34 -0.48,-2.94 v 0 l -1.13,-2.41 -1.68,0.14 -2.51,-3.63 -1.75,0.35 -0.33,-0.75 0.26,-1.76 -0.34,-1.42 0.43,-1.01 -1.66,-2.61 0.48,-2.39 -0.61,-1.58 -0.53,-0.08 -0.91,0.63 -0.89,-1.23 0.01,-1.38 -1.73,-0.34 -0.63,0.57 0.53,1.01 -0.27,0.71 -2.66,2.33 -1.17,0.32 -1.27,-1.8 0.06,-0.79 -1.38,0.55 -0.86,-1.9 1.17,-1.32 -0.26,-1.05 -1,0.26 -0.81,-0.81 -0.08,-0.99 -0.41,-0.51 -1.2,-0.51 2.23,-2.53 0.76,-2.06 1.23,0.02 1.19,-2.34 -1.25,-0.65 -0.23,-3.5 -0.63,-0.69 -0.33,-1.15 0.04,-2.81 0.31,-2.2 0.89,-1.13 -0.04,-0.73 0.68,0.5 1.35,-1.13 0.35,-1.31 1.22,-1.51 -0.96,-1.33 L 43.14,74.72 40.29001,74.58 39.69,73.77 l -0.8,0.24 -1.55,-0.36 -2.15,-1.83 -2.54,-1.29 -0.8,1.83 -0.94,0.5 -0.28,0.77 v 0 L 30.02,73.01 28.55,69.97 27.85,70.35 26.50001,68.4 26.22,68.28 25.69,68.86 24.37001,67.89 24.09,66.08 l -0.65999,-1.23 -1.18,-0.1 -1.89,-1.05 -0.16001,0.66 -0.64999,-0.12 -0.12,0.79 -2.5,-0.04 -2.29,-2.41 -1.57,-0.6 -0.91,-1.39 -0.78,0.16 0.05,-0.8 1.29,-1.47 -0.07,-0.72 -2.02,-0.62 0.05,-0.86 -1.56,-0.02 1.94,-2.85 -0.44,-0.52 0.17,-0.56 -0.52,-2.05 0.78,-2.89 -0.33001,-1.18 -0.78999,-0.92 -0.63,-4.44 0.41,-1.71 -0.31,-3.59 -1.1,-2.23 -2.42,-0.52 -1.52,-1.1 0.27,-1.6 -1.36,-6.35 1.22,-0.3 2.57,-2.2 L 8.13,16.51 9.02,14.35 V 12.47 L 9.74,11.57 9.47,11.23 6.96,11.47 5.78,10.51 3.83,9.99 3.47,10.63 4.12,11.87 3.3,12.45 0.99,12.71 0,11.35 2.16,9.47 2.09,7.57 2.59,6.93 5.05,5.69 6.22,5.87 6.62,5.63 6.63,4.85 5.48,4.17 5.18,2.55 v 0 l 2.67,-0.3 1.42,-0.84 1.19,0.26 0.55,-0.62 0.92,0.06 1.33,-1.1 z"
     title="Leitrim"
     id="IE-LM" />
</svg>
