<?xml version="1.0" encoding="UTF-8" standalone="no"?>
<!-- Created for MapSVG plugin: http://mapsvg.com -->

<svg
   mapsvg:geoViewBox="-10.617532 55.384216 -5.429631 51.419751"
   width="219.67998"
   height="186.64"
   version="1.1"
   id="svg1"
   xmlns="http://www.w3.org/2000/svg"
   xmlns:svg="http://www.w3.org/2000/svg"
   xmlns:mapsvg="http://mapsvg.com">
  <defs
     id="defs1" />
  <path
     d="m 42.38998,85.92 0.48,0.2 0.2,0.69 -0.25,1.2 -0.77001,0.45 -1.12999,-0.43 0.12,-0.38 -0.44,0.18 0.29,-0.51 -0.21001,-0.37 1.45,-1.18 z m -1.92,-3.94 1.12,0.97 0.3,1.03 -1.19,0.3 -1.24,-0.89 0.3,-1.87 z m -0.63,-1.94 1.2,0.71 -0.16,0.55 -0.84,-0.04 -0.38,-1.36 z m -7.84,-4.41 1.19,0.22 0.57,0.89 1.31,0.1 1.12,0.83 -0.52,1.64 0.4,0.32 -0.09,1.03 0.72,0.18 0.3,0.59 0.05,2.05 -1.29,-0.3 -0.82,0.63 -1.52,-0.34 -0.34,0.22 0.19,0.67 -0.31,0.08 -0.67,-1.01 -1.81,0.18 -1.33,-0.53 -1.42,-0.04 0.03,-1.26 0.99,-0.3 -0.48,-2.31 0.63,-0.79 0.44,0.1 0.82,-0.63 -0.25,-0.35 0.23,-0.61 -1.03,-0.41 -0.6,-1.32 0.71,-0.04 0.26,0.51 0.25,-0.35 0.59,0.32 0.81,-1.38 -0.22,-0.47 0.49,0.1 0.18,0.61 0.44,0.22 z m 13.67,-3.45 0.64,0.33 -0.43,2.9 -1.26,-1.34 0.04,-1.24 -1.61001,-0.04 -0.21,-0.28 0.30001,-0.49 0.53999,0.39 1.07,-1.26 -1.15,-2.42 0.06,-1.2 0.57,0.14 0.49,0.67 z m 104.93999,-11.08 2.58,-0.1 1.56,1.99 1.2,0.28 0.21,1.26 1.41,2.4 0.51,0.37 -0.21,0.45 -0.61,0.16 0.15,-0.37 -0.38,-0.06 -0.79,0.59 -0.82,-0.28 -2.66,0.63 -0.9,-0.63 -0.33,-1 -2.15,-0.55 -0.48,-0.65 -0.54,-2.13 1.96,-2.5 z m -99.17,-2.29 0.73,0.2 0.22,1.73 0.74,0.08 -1.24,0.89 -0.82,-0.83 -0.42,0.26 -0.97,-0.37 -0.08,-0.35 0.9,-0.06 0.26,-0.31 -1.06,-0.47 0.26,-0.59 0.23,0.12 0.3,-0.43 0.29,0.24 0.24,-0.31 z m 13.54,-36.42 1.54,-0.1 -0.34,0.82 0.7,0.04 0.34,0.51 0.63,-0.51 0.28,0.27 -0.16,0.29 0.45,-0.04 0.42,0.84 0.47,-0.08 0.57,1.04 0.61,-0.22 0.64,0.49 -0.06,-0.65 0.33,-0.31 0.04,1.16 -0.7,0.57 -1.61,0.06 -1.6,-2.19 -0.81,0.53 -1.01,-0.45 -0.76,0.04 -0.42,-0.76 -0.07,-1.08 0.19,-0.49 z m 103.09,-21.52 0.68,-0.06 0.79,0.7 1.45,0.31 0.65,1.41 2.51,-0.27 0.86,0.33 1.43,-0.21 0.41,0.47 1.26,-0.04 0.82,1.19 1.69,0.49 1.48,-0.29 0.44,1.06 1.02,0.51 4.37,1.02 1.67,1.17 0.21,0.63 0.79,0.29 -0.35,0.72 -1.22,0.23 1.76,0.68 v 0.8 l -0.74,0.96 2.22,2 -0.25,0.94 0.63,0.74 -0.25,1.19 2.54,0.98 0.35,-0.43 0.89,-0.23 0.69,1.19 2.73,0.7 0.42,0.86 2.39,1.74 1.13,0.18 1.75,-0.72 0.56,0.2 0.51,1.12 0.62,-0.08 2.4,0.78 -0.08,1.49 0.65,0.51 1.24,0.22 2.03,-0.57 1.45,0.74 0.58,-0.18 0.89,0.31 1.7,1.37 0.42,1.1 1.42,0.88 -0.68,1.2 0.42,0.96 -0.55,0.2 -1.54,1.69 -1.15,0.53 -0.16,0.84 -5.81,2.73 -2.13,1.51 -0.89,-0.04 -1.43,0.8 -0.77,-0.06 -0.98,1.08 -5.42,2.87 -1.89,1.61 -1.91,0.43 -2.74,1.75 -3.13,3.34 -0.28,1.2 -1.91,1.87 -0.76,2.54 -3.51,4.17 -1.9,3.35 v 0 l -1.61,0.61 -0.85,1.87 -0.89,0.91 -0.34,0.02 -1.06,-1.28 -1.54,1.1 -0.75,1.02 -2.16,-1.3 -1.2,0.28 -1.55,1.67 -0.56,1.18 -3.53,3.84 -0.77,2.5 1.26,1.79 -0.88,0.97 -0.98,2.01 0.9,1.99 -0.56,1.78 0.36,0.77 -0.43,0.81 1.18,2.13 -1.49,0.67 -3.11,0.08 -1.4,1.26 0.09,4.84 -0.67,1.92 -0.07,1.32 1.08,2.81 -0.08,2.35 -1.25,3.2 -0.9,0.44 -0.01,0.81 -2.15,4.81 -1.35,0.51 -3.9,2.83 -0.2,1.19 -1.11,0.38 -0.98,1.55 0.29,1.78 -0.65,4.82 0.23,0.79 1.16,0.87 -1.11,1.79 -0.43,-0.04 -0.51,-0.6 -2.64,0.36 -0.08,-1.47 -0.91,0.18 -0.57,1.17 -1.25,-0.22 -1.88,0.38 -2.64,-1.41 -3.88,2.98 -0.49,0.77 -1.8,0.54 -0.7,0.81 -1.58,-0.18 -2.82,1.94 -0.69999,0.69 -0.54,1.21 -3.13,-0.75 -0.46,-1.23 -0.97,-0.16 -0.69,-0.66 -1.18,0.1 -1.88,-3.04 -0.54,-0.34 -1.19,-0.06 -2.96,2.74 -2.48,4.07 -1.19,0.18 -0.77,0.5 -0.51,-0.34 -0.98,0.24 -1.13,-0.32 -0.02,1.33 0.63,0.3 0.24,0.62 1.49,0.32 -0.14,0.85 -1.54,1.79 1.12,3.16 0.74,0.58 1.6,0.24 2.87,1.35 0.41,1.47 -0.56,0.8 0.68,0.76 0.06,0.91 0.8,0.02 1.04,-0.58 1.04,0.14 1.96,-2.31 1.62,1.99 1.82,0.84 1.28,1.69 1.39,-0.52 0.58,0.8 1.76,0.28 0.51,-1 3.33,-1.85 0.57,1.23 -0.58,1.51 1.1,0.52 -0.09,0.78 -1.18,1.33 -4.98,1.61 -1.63,2.47 -3.64,1.15 0.02,0.44 -0.36,0.24 0.23,0.9 -0.5,0.74 -1.07,0.22 -1.53,1.22 -0.89,1.24 -0.04,1.1 0.89,1.08 -2.59,2.05 -1.53,-0.64 -1.1,0.42 -2.6,-0.28 -0.75,0.3 -1.26,-0.42 -2.38,0.48 -1.98,-0.16 -0.69,0.32 -1.48,-1.63 -0.48,-1.26 -0.82,0.14 -1.25,0.82 -2.26,-0.38 -0.86,2.11 -3.31,5.59 0.22,1.56 -0.52,2.5 -2.73,0.36 -0.76,-0.48 -1.02,-0.02 -1.53,0.64 -0.83,1.48 -1.26,0.26 -0.04,1.2 -4.28,-0.06 -2.61,0.38 -0.29,0.68 v 0 l -5.14,-1.72 -0.59,0.7 -0.56,0.12 -0.56,1.52 -2.06,-0.02 -0.88999,-1.37 -2.74001,-1.07 -0.44999,-0.7 v 0 l 0.58999,-0.2 0.33,-0.9 -0.57,-0.98 2.06,-0.74 0.07,-2 0.55,-0.62 0.48,-1.56 -0.18,-0.68 -1.32999,-1.42 0.14999,-0.86 1.67,-0.64 0.28,-0.92 1.03,-0.36 2.16,-1.89 1.33,-0.52 -0.15,-2.11 -1.1,-1.91 0.39,-1.14 1.03,0.46 0.55,-0.24 1.59,-2.31 1.69,-0.42 0.56,-1.39 0.78,-0.52 0.13,-2.19 -0.5,-2.57 0.26,-0.94 1.25,-0.26 0.1,0.48 0.41,0.1 v 0.4 l -0.24,-0.26 -0.55,0.22 0.31,0.26 -0.27,0.18 0.18,0.34 0.84,-0.38 -0.72,1.11 1.2,1 -0.79,0.82 0.3,0.6 1.52,-0.4 0.29,-1.53 0.38,-0.14 -0.73,-0.48 0.39,-0.8 0.76,-0.02 0.26,0.82 0.27,-0.34 0.85,0.12 0.09,0.46 -0.5,0.44 0.85,-0.02 0.45,-0.38 -0.52,-0.4 0.67,-0.36 0.01,-0.44 -0.92,-0.1 -1.19,0.36 0.79,-0.44 0.12,-0.8 -1.49,0.76 -0.46,-0.5 1.47,-0.74 -0.93,-0.02 0.64,-0.66 1.56,-0.5 -4.18,0.3 2.55,-1.05 0.17,-1.07 0.5,-0.38 -0.62,-0.22 0.92,-0.95 0.42,-1.09 -1.98,1.23 -0.27,-0.1 0.63,-0.52 -0.05,-0.36 -1.17,0.58 -0.22,0.5 0.34,0.24 -0.06,0.64 -1.13,0.6 -0.78,0.99 -1.07,0.26 -0.29,1.11 -0.05,-1.01 0.37,-0.76 -0.71,-1.07 0.23,-0.34 0.88999,0.04 0.35001,-0.68 -1.14,-0.08 -1.08001,0.58 0.07,0.38 -0.84999,0.62 0.77999,0.14 0.10001,0.7 -1.63,-1.01 -0.65001,0.95 -1.78999,1.29 -1.03001,0.16 -1.58999,1.01 -0.58001,1.15 -1.53,0.2 -2.94999,2.17 -2.16,0.48 -0.69,0.52 0.09,-0.9 -0.41,-0.56 1.31,-2.09 -0.18,-0.68 0.72,-0.54 0.29,-1.03 1.16999,-1.15 -1.35,-2.17 h -0.47 l -1.97999,1.67 -4.36001,1.63 -1.12,3 -2.8,2.13 -0.25,0.64 -1.52,1.49 -4.41,1.43 -0.29,0.9 -0.98,0.26 0.01,0.5 0.43,0.18 -0.34,0.66 -1.66,1.2 -1,0.18 -0.08,-0.34 0.83,-0.66 0.14,-0.74 1.14,-1.02 -0.34,-1.35 5.81,-2.01 0.34,-0.98 2.09,-1.97 -0.43,-0.4 0.31,-0.62 -0.13,-1.19 -0.82,-0.34 -0.25,-0.64 0.41,-1.43 -0.77,0.06 -0.29,0.97 -0.31,-0.26 0.04,-0.78 -1.25,1.11 -0.41,0.84 -0.68,0.12 -0.65,1.53 -0.6,0.16 -0.43,-0.5 -0.89,0.74 0.36,-0.72 -0.16,-0.62 0.73,-0.58 -0.01,-1.57 1.29,-3.38 -0.54,0.42 -0.43,-0.44 -0.94,2.31 -0.68,0.74 -0.47,0.06 0.21,1.19 0.49,0.02 -0.46,1.25 -0.54,0.66 -0.64,0.1 v 0.64 l -0.56999,0.3 -0.65001,1.67 -1.11,0.4 -1.19,-0.2 -0.08,-0.64 0.56,-1.23 -0.81,-0.7 0.07,-0.76 1.19,-0.92 -0.49,-0.42 0.16,-1.69 -2.11,0.76 -1.26999,1.11 -1.36,0.42 -1.83,1.15 -1.06,0.38 -0.63,-0.42 -0.65,0.04 -1.36,1.19 -1.24,-0.04 -0.13,0.72 -0.81,0.78 -0.63,-0.46 0.83,-1.51 -4.26,-0.46 1.84,-1.05 0.15,-0.6 -1.19,0.78 -0.97,-0.06 -0.69,-1.41 -0.6,0.24 -0.21,-0.56 0.46,-1.03 -1.45,-2.62 -0.2,0.38 0.86,3.68 0.78,1.41 -1.6,0.46 -1.44,-0.38 -0.69,0.46 -0.99,-0.28 -1.07,0.4 0.04,-0.7 -0.63,-0.94 0.92,-1.01 -0.98,-0.56 -0.73,-1.41 -0.58,0.08 -0.43,-0.44 -0.82,0.36 -0.52,-0.46 -1.5,-0.42 -0.09,-0.58 -0.89999,-0.06 -0.72001,-0.48 -0.5,0.14 -0.45999,-0.48 -1.73001,-0.5 -1.18,-0.08 -0.04,-1.63 -0.64,0.12 -0.14999,0.93 -0.66001,-1.03 -0.21,0.89 -0.50999,0.02 -0.21,-1.69 0.46999,-1.21 0.42001,0.26 0.15999,-0.26 -0.2,-2.29 0.52,-0.71 -1.21,0.18 -0.81999,-0.7 0.1,-0.3 -0.64,-0.2 0.18,-0.48 L 0,138.7 0.28999,138.06 0.84,138.28 1.09999,137.41 h 0.44 l 0.42001,0.79 0.65,-0.16 0.42,0.32 0.81999,-0.77 1.26001,-0.2 0.06,-0.56 0.3,0.22 0.22,-0.34 1.43,0.5 0.58,-0.83 0.93,-0.14 -0.01,-0.28 -0.48,0.1 -0.02,-0.24 -0.84,0.52 -0.67,-0.2 0.08,-0.81 -0.41,-0.36 0.86,-0.6 -0.7,-0.38 0.13,-0.99 1.04,-0.87 -0.05,-0.65 -0.61,-0.08 -0.01,-0.32 0.54,-0.28 0.67,0.26 2.31,-1.33 1.18,0.12 0.38,-0.63 -0.37,-0.34 0.23,-0.85 0.83,-0.42 0.01,-0.42 0.26,0.16 0.64,-0.4 -0.03,-0.69 0.99,0.5 0.91,-0.2 0.68,-2.02 1.36,0.32 1.25,-0.81 0.78,0.34 2.4,-1.17 1.63,0.02 1.06,-0.36 1.99,0.59 0.63,0.5 2.5,0.46 0.3,0.5 1.49,0.65 1.44,-0.93 1.03,-0.12 0.36,1.35 -0.34,0.42 1.83,-0.24 0.47999,0.46 2.09001,0.26 0.88999,0.6 4.05001,0.12 -0.16,-0.26 0.34,-0.22 -2.46001,0.1 -0.65,-0.42 -0.75,0.04 -0.35,-0.24 -0.07,-0.75 h -0.54 l 0.47,-0.48 -1.78,-1.05 -0.92,0.14 -1.45,-0.85 -0.66,0.52 -0.68,0.06 -1.17,-0.48 -0.96,-1.09 -1.36,-0.59 -0.44,-0.75 0.52,-0.59 1.59,-0.18 1.98,1.21 0.25,-0.48 0.75,-0.06 0.58,-0.46 1.57,0.4 0.04,-0.59 0.5,-0.36 1.2,0.32 0.3,0.46 -0.06,1.37 0.21,0.16 0.36,-0.38 0.63,0.36 0.52,1.84 0.49,0.4 0.46,-0.34 1.29,0.89 0.1,0.26 -0.27,-0.2 0.01,0.24 0.69,0.1 0.41,0.5 0.7,0.02 0.14,-0.79 -0.31,-0.61 1.28,-0.79 -0.41,-0.57 -1.11001,-0.12 -0.53,0.48 -1.22,-0.67 0.33001,-0.1 -0.02,-0.89 -0.46,-0.34 -0.4,0.2 -0.25,-0.36 0.14,-1.03 -1.45,-0.34 0.23,-0.46 0.64,0.12 -1.03,-1.43 -1.78,0.54 -1.14,-0.65 -0.77,0.44 -0.88,-0.3 0.46,-0.59 -0.22,-1.07 -1.24999,-0.36 -0.62,-0.52 0.07,-0.3 -0.71,0.44 -1.08,-0.26 0.4,-0.2 -0.57,-0.34 0.57,-0.73 0.05,-0.83 -0.51,0.14 -0.22,-0.42 -0.1,0.3 -1.29,0.2 -0.73,-0.67 -1.06,0.24 -0.71,-0.24 v -0.42 l 1.15,-0.55 -0.17,-0.32 0.24,-0.24 2.19,-0.26 0.82,0.59 0.99,0.04 1.12,0.87 0.01,-0.69 0.77,-0.14 -0.93,-0.89 0.13,-0.3 0.71,-0.02 -0.47,-0.53 0.57,0.02 -0.02,-0.42 0.35,-0.04 -0.19,-0.36 1.75,-0.85 1.4,0.34 1.13,0.73 0.02,0.38 2.08,0.28 0.59,-0.55 1.06,-0.24 1.07,-1.68 0.41,0.18 -0.38,0.47 1.74,0.46 1.19,-1.21 0.28,0.34 -0.31,1.35 1.75,0.63 0.49,-2.1 -0.62,-1.31 -0.04,-2.61 0.28,-0.79 -0.72,-0.36 -0.04,-0.42 0.92,-0.16 1.5,0.65 0.73,-0.55 0.12,-0.67 1.07,-0.24 3.58,1.86 0.01,-0.91 -0.48,-0.32 0.44,-0.65 1.33,-0.26 -0.14,-0.47 0.44,-0.26 -0.37,-0.02 0.21,-0.2 -0.52,-0.3 -0.36,0.38 -1.31,0.32 -1.67,-0.87 0.28,-2.33 -0.2,-0.71 -0.37,-0.18 -0.66,0.61 -1.27,0.45 -0.28,0.69 -0.55,-0.2 -0.09,-0.87 -0.72,0.43 -0.5,-0.59 -0.27,0.75 0.51,0.53 0.36,2.15 -0.48,0.75 -0.65,0.16 -0.5,-0.53 -0.06,-0.65 -1.19,-0.83 -1.26,-0.34 -0.01,-0.65 -3.78,-1.23 -0.94,-1.24 -0.68,-0.32 0.2,-0.59 -0.39,-0.69 0.3,-0.73 -0.3,-0.36 1.26,-0.12 0.41,-1.22 -0.65,-0.75 -0.99,-0.47 -0.08,-0.97 0.56,-0.65 1.31,0.22 0.84,-0.43 0.13999,1.09 -1.63999,0.77 0.4,0.43 0.92,-0.02 -0.01,0.83 0.85,0.06 -0.16,-1.11 1.38,0.12 0.02,-0.75 1.38,0.55 0.61,-0.32 0.27,-0.65 0.91,-0.06 0.71,-0.61 0.44,0.87 0.37,0.1 -0.07,-0.65 0.52,0.04 0.56,-0.89 0.81,-0.38 -0.58,-0.69 -0.89,-0.26 -0.41,0.24 -2.8,-1.09 -0.55,-0.77 -0.12,0.51 -0.48,-0.04 -0.8,-1.54 0.16,-0.47 -0.63,-0.08 -1.06,-1.64 -0.21,0.16 -0.65,-0.49 -0.5,-0.99 0.28,-0.53 0.69,-0.22 -0.46,-0.1 -1.04,-1.68 -0.47,-0.22 0.37,-1.62 1.94,-0.2 0.09,-0.45 0.41,0.41 0.83,-0.79 0.7,0.32 -0.82,0.67 0.63,0.34 0.61,-0.3 0.69,1.01 0.68,-0.1 0.09,-0.55 -0.58,-0.87 0.33,-0.85 -0.21,-0.22 -0.44,0.24 -0.12,-0.47 0.06,-0.55 0.51,-0.43 0.47,0.08 0.76,-0.99 -0.77,-0.49 -0.09,-0.49 -0.35,-0.12 0.21,-0.41 -0.54,-0.32 0.68,-0.61 0.12,-0.89 0.9,-0.37 0.52,1.34 0.84,0.61 1.07,-0.55 0.23,-1.08 2.24,0.26 0.84,-1.75 -0.17,-1.54 -0.48,-0.22 -0.3,-0.85 0.29,-0.43 0.68,0.51 0.13,-0.75 1.41,-0.43 0.41,-0.67 0.64,-1.95 -0.57,-0.87 0.2,-0.28 -0.3,-0.85 1.11,-0.35 0.24,-0.51 0.08,-1.12 -0.49,-1.22 0.34,-0.22 0.09,-0.88 -0.28,-0.35 0.65,-0.65 0.13,-0.9 0.82,0.47 -0.25,-0.94 0.21,-0.63 0.82,-0.06 0.27,-1.12 -0.16,-1.12 -0.59,-0.53 1.35,-1.32 -0.85,-1.02 0.73,-0.53 0.51,-1.1 1.35,0.9 2.11,0.37 0.75,-0.41 0.56,0.67 1.31,0.39 0.65,0.06 0.99,-0.75 0.26,0.94 0.54,0.33 0.54,-0.35 0.85,0.33 0.54,-0.37 0.94,0.04 2.41,0.65 1.07,-0.41 0.57,-0.71 0.51,-2.53 0.61,-0.22 1.05,0.2 0.46,0.41 0.08,1.08 -0.54,0.12 -0.9,1.08 h -0.48 l 0.2,0.37 -1.92,1.18 0.59,0.81 -0.59,0.24 0.44,0.67 -0.75,1.49 0.62,-0.08 0.54,0.55 0.61,-1.32 0.33,-0.1 1,0.71 -0.23,1.67 0.78,-0.81 L 78.24,50.63 77.81,50 78,49.43 l 0.28,-0.16 0.75,0.57 0.26,0.65 0.36,-0.14 -0.05,-2.34 0.68,-0.59 -0.4,-0.67 -0.52,0.08 0.15,-0.71 1.05,-0.41 5.27,-0.65 0.77,-0.59 0.37,-0.86 1.24,-0.92 0.43,0.39 0.5,-0.59 0.71,0.88 1.29,-0.65 0.75,-1.06 0.26,-1.06 -0.21,-0.35 h -0.62 l -0.29,-0.59 1.29,-1.47 -1.26,-0.43 0.62,-1.35 -0.14,-0.8 0.52,-0.49 -0.26,-0.1 0.12,-0.49 1.54,-0.37 0.29,0.31 1.06,-0.45 -0.36,-0.29 0.3,-0.61 0.93,-0.27 0.37,-0.63 1.06,0.59 -0.15,0.94 0.99,1.2 1.06,-0.39 1.69,0.18 0.17,-0.22 0.32,1.06 -0.53,2.45 -1.21,0.51 -0.64,0.84 -1.18,0.27 -0.56,-0.35 -1.18,1.1 0.22,0.49 2.43,-0.29 0.63,-0.77 1.31,1.53 0.65,-0.29 0.4,0.14 0.05,0.47 0.57,0.12 0.47,-0.35 -0.19,-0.41 1.5,-0.63 -0.2,-0.29 0.56,-0.94 0.74,0.63 0.12,-0.49 0.5,0.22 -0.14,0.39 0.79,0.08 -0.33,0.25 0.3,0.61 -0.55,0.75 0.02,0.77 0.37,0.47 0.68,0.14 0.95,-0.57 0.5,0.55 -0.39,0.14 -0.22,0.63 -0.37,-0.22 -0.46,0.88 -2.79,2.24 1.59,-0.39 1.04,-0.88 0.65,0.08 0.06,-0.49 1.34,-0.9 0.49,0.33 0.95,-0.33 0.33,0.51 0.47,-0.02 v 0.35 l -1.05,1.43 -0.21,1.32 -0.5,-0.06 -0.89,0.57 -0.22,-0.51 -1.43,0.69 -0.96,1.47 -0.01,0.53 -0.82,0.79 1,-0.12 1.14,-1.3 0.32,0.71 1.03,-0.39 0.23,-1.14 1.26,1.67 -0.52,1 0.77,0.1 -0.58,0.53 1.49,-0.26 0.42,-0.98 -0.82,0.18 -0.12,-1.45 2.4,-2.08 -1.16,-0.96 2.03,-2 0.47,-0.86 0.28,-2.02 -0.06,-0.61 -0.48,-0.12 -0.27,-0.59 0.04,-1 -0.76,-0.88 -0.63,0.29 -0.24,0.82 -0.23,-0.47 -0.3,0.37 -0.2,-0.92 -1.16,-0.02 -1.33,-1.51 0.16,-2.53 0.62,-0.53 -0.42,-0.84 0.37,-1.92 0.33,0.63 0.68,0.25 0.32,-0.47 0.32,0.25 0.45,-0.16 0.08,-0.57 0.51,-0.2 1.83,1.39 1.17,-0.24 0.44,-0.88 -0.78,-0.49 -0.1,-1.06 0.15,-0.22 1.07,0.39 0.36,-0.16 -0.1,-1.67 0.55,-0.41 -0.08,-0.51 0.57,0.33 0.78,-0.2 0.02,0.49 0.36,0.08 0.13,-1.61 0.27,0.02 0.28,0.67 -0.83,2.21 0.32,0.59 -0.08,1.08 -0.46,0.53 0.49,1 -0.79,0.14 -1.16,1.14 -0.08,1.04 0.02,-0.57 -0.27,0.06 0.05,2.33 -1.08,1.26 0.58,0.2 1.29,2 -0.5,1.96 0.67,0.31 0.54,-0.24 -0.04,-1.35 0.41,0.1 0.27,0.77 0.48,-0.12 -0.32,-0.29 0.26,-0.55 2.05,0.33 0.28,-0.37 -0.35,-0.37 0.56,-0.45 0.47,0.33 -0.07,0.49 0.66,-0.06 -0.07,0.55 0.4,0.37 -0.39,0.75 1.6,0.82 -0.31,-1.39 0.41,-0.29 1.11,2.43 1.54,1.79 0.28,0.12 0.15,-0.57 -1.27,-0.94 -0.27,-1.71 0.42,0.18 0.57,1.08 0.99,0.63 0.44,1.92 0.76,0.18 0.67,0.92 -0.02,1.63 0.75,0.1 -0.76,1 -0.82,4.13 -0.33,0.88 -0.1,-0.35 -0.2,0.18 0.25,1.2 -0.97,1.79 0.5,-0.18 1.11,-1.38 0.11,0.87 0.38,-0.59 0.23,0.18 -0.38,0.98 0.19,0.22 0.93,-1.14 0.02,-0.73 -0.54,-0.69 1.64,-3.73 -0.52,-0.69 0.69,-0.26 0.28,-0.98 0.49,-0.39 -0.02,-2.03 0.48,-1.51 -1.66,-1.45 -0.35,-3.51 -0.29,0.57 -0.24,-0.47 -0.25,0.18 -0.02,0.88 -0.78,-0.22 -0.44,-0.88 0.89,-0.8 -0.19,-1.14 -0.84,0.71 -0.94,-0.41 -0.49,-1 0.33,-1.37 0.95,0.29 0.69,-0.35 -0.3,-1.77 -0.89,-1.1 0.49,0.12 -0.19,-0.98 0.47,-0.88 -0.58,0.12 -0.33,-1.02 -0.54,0.43 -0.09,0.75 -0.56,-0.16 -0.49,0.73 0.3,-0.02 -0.24,0.61 0.45,1.9 -0.15,0.69 0.59,-0.41 0.34,0.35 -0.51,1.22 -0.62,0.28 0.42,2.24 0.21,0.57 0.41,-0.47 0.98,0.94 -0.91,1.3 0.3,0.59 -0.14,0.86 -0.92,-1.49 -3.03,-2.04 -0.38,-1.16 1.25,0.51 0.32,-1.35 -1.69,-0.37 -0.37,0.41 0.16,0.49 -2.11,0.55 -0.46,-0.24 -0.89,-2.35 -0.35,-0.35 -0.97,0.22 -0.48,-0.43 -0.41,-1.77 0.5,-1.12 1.39,-0.65 0.23,0.25 1.74,-1.73 0.02,-0.39 0.85,-0.31 -0.15,-0.63 0.96,0.29 0.02,-0.41 -0.94,-0.65 1.13,-1.39 -0.03,-0.51 -0.89,-0.71 0.22,-0.51 1.21,1.18 0.27,-0.39 0.17,0.76 0.44,0.02 0.82,-1.23 0.41,1.61 3.03,-0.16 1.2,-1.41 -0.33,-0.37 0.08,-1.51 0.76,0.45 0.71,-0.08 2.76,-2.9 1,-0.1 0.67,0.39 1.05,-0.31 -0.4,1.1 0.94,0.47 0.35,1.98 0.91,0.88 -0.1,1.18 0.52,2.06 0.54,0.61 v 0.52 l 0.63,0.12 -0.56,1.71 -0.01,1.45 -1.04,1.55 -0.79,0.53 -0.14,0.71 1.5,2.49 1.11,0.92 0.85,0.18 0.07,-0.49 0.32,-0.02 2.39,1.75 0.06,1.24 -0.55,0.45 0.49,0.67 -0.11,0.35 1.38,0.88 0.2,0.77 0.51,0.59 0.37,-0.02 1.29,2.69 0.58,0.2 0.33,-0.31 -0.02,0.35 h 0.53 l -0.12,0.49 0.3,0.41 0.55,-0.22 -0.12,0.85 0.37,0.47 0.22,1.79 -0.89,1.59 -0.55,0.02 -0.12,0.81 0.69,1.32 -1.04,2.16 -1.76,0.41 -1.06,0.98 -1.35,0.22 -1.54,0.92 -1.01,1.48 -0.42,0.1 -0.28,0.91 0.41,0.61 -0.19,0.89 -1.75,1.04 -1.14,0.16 -0.33,-0.37 -1.03,1.95 -0.77,0.32 0.17,1.46 1.7,-1.65 0.93,0.02 0.82,0.69 2.55,-1.16 1.06,-1.06 1.17,0.3 0.92,2.15 -0.05,1.75 -2.23,1.97 -0.38,1.04 -1.56,1.4 -5.04,3.23 0.22,0.99 -1.73,2.19 -0.59,2.31 -1.18,1.36 -0.96,0.26 -0.16,-0.22 -0.61,0.45 v 1.6 l 0.77,-1.18 1.21,0.08 1.28,-0.55 -0.07,-0.26 1.53,-0.34 0.31,-1.26 0.44,-0.34 1.08,0.77 0.35,0.71 1.69,-2.72 1.52,-3.45 1.37,-0.59 1.66,-2.17 1.61,-0.93 1.99,-2.4 0.67,-0.2 0.77,1.06 1.24,-0.93 -0.29,-1.77 0.75,-1.54 2.05,0.1 0.57,-0.77 1.06,-0.49 0.43,0.73 2.61,-0.37 0.4,-0.2 0.01,-0.49 0.47,-0.02 0.19,-0.63 -0.29,-0.53 0.21,-0.26 -0.63,-0.14 0.4,-0.08 -0.76,-1.3 -0.35,-2.99 -2.34,-2.2 -0.21,-0.57 0.16,-2.34 0.69,-1.55 1.18,-0.92 0.59,-1.42 -0.08,-0.43 -0.49,0.26 0.35,-1.2 -0.44,-0.14 0.19,-2 -1.39,-0.2 -1.27,-2.36 -0.25,-1.24 -0.37,-0.29 -0.63,0.18 -0.93,-0.94 -0.06,-1.12 -0.65,-0.61 0.05,-0.43 -0.58,-0.55 -0.2,-1.32 -0.55,-0.59 -2.03,-1.16 -0.13,-0.55 -1.68,-0.2 -0.26,-0.33 0.25,-0.63 1.07,-0.1 0.42,-0.63 -0.51,-0.53 -0.56,-0.02 -0.07,-0.33 0.43,-0.12 -0.01,-1.77 0.59,-0.82 0.41,-1.61 1,-0.43 1.08,-1.57 -0.39,-1.1 -0.97,0.2 0.05,-0.49 -0.35,-0.06 -0.08,-0.45 2.34,-1.63 0.09,-1.06 0.43,-0.67 0.05,-1.23 -1.38,-0.92 -0.56,-1.19 0.62,-1.12 0.83,-0.02 1.17,-0.78 2.73,1.62 1.38,0.14 0.51,-0.69 -0.72,-1.6 0.69,-0.65 1.73,1.19 -0.22,0.8 0.22,0.69 1.67,0.67 0.89,-0.06 -0.57,-1.53 1.75,-0.9 2.74,-0.16 0.35,0.35 0.99,-0.23 1.03,-3.11 -0.05,-1.6 1.34,-0.53 3.17,1.06 0.32,0.9 0.78,0.39 0.21,0.76 1.29,-0.33 -0.23,0.9 0.71,0.31 0.54,0.84 -0.12,0.57 -0.91,0.47 -3.99,-0.49 -0.29,0.45 0.25,0.9 0.65,0.23 0.8,-0.57 0.65,0.74 0.69,-0.49 h 0.92 l 0.76,0.29 1.39,1.35 1.23,0.51 0.12,-0.37 0.53,0.16 1.22,-1.25 0.42,0.12 -0.21,0.76 0.5,0.2 0.28,-0.57 1.91,0.25 -0.93,-0.84 -0.44,-0.9 -1.06,-0.55 1.81,-1.04 -2.96,0.31 -4.93,-3.72 -1.37,-0.18 -0.5,-2.8 -1.08,-0.47 -1.05,-1.04 0.42,-1.7 0.07,-3.73 -1.21,-0.39 -1.56,0.12 -0.51,-0.68 -1.05,-0.55 -0.16,-0.61 0.27,-0.39 -0.58,-0.25 -0.14,-0.57 -0.72,0.18 -0.28,-0.23 3.33,-1.5 z"
     title="Donegal"
     id="IE-DL" />
</svg>
