<?xml version="1.0" encoding="UTF-8" standalone="no"?>
<!-- Created for MapSVG plugin: http://mapsvg.com -->

<svg
   mapsvg:geoViewBox="-10.617532 55.384216 -5.429631 51.419751"
   width="129.21999"
   height="185.05"
   version="1.1"
   id="svg1"
   xmlns="http://www.w3.org/2000/svg"
   xmlns:svg="http://www.w3.org/2000/svg"
   xmlns:mapsvg="http://mapsvg.com">
  <defs
     id="defs1" />
  <path
     d="m 97.06997,84.13 v 0 l -0.23001,-0.07 0.12,-0.68 -0.42,-1.49 -2.11,-2.18 0.14,-1.44 -0.36,-2.65 -0.43,-0.99 v 0 l -0.63,-4.11 -1.23,-0.97 0.38,-1.48 -0.85,-2.48 -2.71,-1.76 -1.82,-3.71 1.69,-1.28 -0.52,-4.62 1.42,-0.56 0.47,-2.36 0.79,-0.15 1.32,-1.56 1.47001,-0.52 1.2,-1.88 0.43,-1.95 -2.62,0.35 -2.12,-0.25 -1.05001,-1.08 -2.06,-1.2 0.31,-0.64 -0.57,-1.7 v 0 l -5.06999,-2.51 -1.67,0.16 -0.48,-1.16 -1.12,-0.74 -1.75,1.1 -1.06,0.1 0.1,1.43 -1.44,0.54 -0.86,1.62 -2.16,-0.36 0.01,1.54 -0.43,0.66 2.11001,1.35 0.34,0.72 -2.56,2.27 0.99,1.24 -4.03,1.99 1.19,1.58 -0.93,0.46 0.01,0.46 -0.66999,0.08 -2.33001,-0.64 0.63,2.49 -1.83999,1.35 -0.45,-0.07 -0.21001,-1.35 -0.44999,-0.74 -1.75,-1.04 -0.71,-0.04 v 0.7 l 1.52,1.64 0.24,2.73 -2.25,1.89 0.03,1.35 -0.49,0.39 -0.65001,-0.08 -1.52999,-1.35 -0.02,-0.62 -1.08999,-1.4 1.19,-2.53 -5.07,-2.12 -1.13,0.29 -0.46001,-1.83 -0.41999,-0.5 0.78999,-2.38 -1.5,-2.83 1.08001,-2.3 3.61,1.99 2.04,-0.16 1.17,-1.39 -0.14,-1.19 1.28,-1.09 -1.42,-3.09 -0.1,-1.54 -2.14,-2.09 -0.03,-1.2 1.71,-1.47 3.23,0.56 0.72,0.47 1,-0.49 -1.49,-3.21 0.51,-1.78 -0.32,-0.77 0.14,-1.12 0.67,-0.56 -0.81,-1.84 0.86,-0.54 1.63,0.5 0.46,-0.62 -0.2,-1.12 1.37,-2.99 -0.24,-1.78 0.83,-1.59 -0.77,-2.26 0.83,-1.48 -1.04,-1.04 -0.62,-0.2 L 62.83,9.76 60.85,8.19 59.09,7.59 58.33,6.56 56.53,5.72 55.52,5.66 54.95,4.73 53.91,3.98 49.85,2.81 47.4,1.05 46.87,0 46.24,0.35 v 0 l -0.45,0.64 -2.35,0.58 -1.68,-0.12 -0.92,0.47 -2.03,2.1 -0.08,0.95 -1.57,1.65 -0.24,1 -0.97,1.34 0.18,1.42 -2.02,3.39 -1.04,1.16 -0.63,1.55 -1.42,1.09 -0.46,1.59 -0.49,0.4 -3.46,0.91 -1.43,1.03 -0.65,4.1 -0.92,3.2 -2.58,2.05 -1.87,4.71 v 0 l 0.67,1.47 2.7,0.74 0.31,1.06 -0.91,1.47 -1.9,1.97 -1.62,4.11 -2.09,2.63 -6.05,-0.35 -1.62,0.71 -1.63,7.47 -1.15,1.87 -3.01,3.18 0.66,4.93 -0.04,1.91 1.07,0.88 0.21,0.58 L 4.47,72.42 3.8,74.06 1.83,76 0,79.1 v 0 l 1.26,3.63 -0.29,0.5 0.3,0.81 0.06,4.8 0.56,0.98 0.06,0.92 0.57,0.31 1.17,1.96 0.69,-0.12 1.68,1.56 0.75,-0.58 0.63,-1.25 1.36,-0.67 1.65,0.69 0.66,1.06 1.91,-0.4 0.8,0.71 2.29,-1.12 0.42001,-0.53 1.32999,-0.35 0.27,0.19 0.82,-0.58 0.93,0.18 1.38,-0.83 1.23,0.19 3.92,2.52 -0.02,2.34 1.98,0.4 0.6,1.25 0.56,-1.21 1.05,-0.57 0.74,-0.14 1.01,0.33 1.22,-0.39 0.32,0.68 v 0 l -0.04,0.23 v 0 l -0.85,2.07 0.05,2.49 -2.02,1.8 0.16,1.75 -0.59,1.13 -0.31,1.96 0.94,0.44 -0.18,1.83 -2.71,2.94 1.37,1.95 -0.19,0.84 -0.95,0.96 0.99,1.28 -0.72,3.79 0.52,1.86 -0.56,1.91 -1.2,0.82 -1.6,0.31 -0.54,-1.82 -0.72,0.11 -0.3,0.48 -1.85,-0.92 -0.61,1.42 -0.84,0.88 -0.76,0.31 -0.98,-0.39 -1.01,0.84 -0.25,0.85 0.53,0.49 0.41,1.15 -1.64,2.31 -0.5,-0.11 -0.25,-0.56 0.91,-2.41 -1.14,-0.57 0.35,-0.74 -0.21,-1.65 -0.87,-0.3 -1.82,0.51 -0.15,0.86 -0.74,0.79 0.24,0.97 -0.87,0.59 -0.7,-0.04 -1.69,1.53 -0.2,0.5 0.38,0.76 0.01,1.34 -1.58,1.38 1.82,6.15 0.78,-0.21 0.51,-1.47 1.52,-0.75 0.73,1.39 0.92,0.71 2.36,-1.16 0.5,1.03 0.95,-0.77 0.46,0.71 -0.07,1.77 0.54,0.25 -0.05,1.01 1.24,-0.3 1.52,1.07 0.58,1.47 -0.34,0.68 0.15,0.88 3.89,-1.53 1.93,-0.07 0.59,0.86 -0.5,0.4 0.38,0.11 0.04,2.92 1.06,1.24 0.62,2.4 0.45,0.02 0.83,-0.71 1.22,1.13 3.27,-0.44 0.18,0.82 -0.42,3.28 -1.38,1.73 -0.14,0.87 0.63,1.53 1.07,0.28 0.4,0.48 -0.07,2.46 0.78,0.95 -0.96,1.4 -2.32,0.99 v 0 l 0.82,2.46 1.61,-0.21 0.02,0.87 -0.73,1.09 0.71,0.38 0.55,4.24 0.83,0.7 1.31,-0.04 0.83,0.7 3.58999,0.86 -0.33,2.89 0.17001,1.71 v 0 l 0.26,0.26 1.98,-0.17 1.07,-0.55 2.06,-0.21 0.56,0.29 3.61,-0.23 2.57,1.14 1.4,-1.2 -0.57,-2.56 0.58999,-2.26 -0.13,-1.22 1.73001,0.93 0.29,-0.97 2.48,-0.09 0.74,-0.5 0.42,0.08 0.52,1.12 1.37,0.87 1.24,1.37 1.29,0.46 3.14,-0.4 1.54,0.64 1.55,-0.72 1.87,0.46 1.66,0.93 0.8,1.86 0.63,-0.25 0.92,-1.52 2,-0.01 2.53,0.95 1.53,-0.31 0.41,-0.3 -1.28,-6.99 -1.28,-3.08 -1.05,-0.38 -1.17,-0.97 -0.07,-1.68 -0.79,-0.97 -0.55,-1.46 0.69,-3.83 -0.12,-1.9 0.66,-0.88 -0.48,-1.29 0.51,-0.42 4.19,0.19 1.28,-0.38 0.46,-0.8 1.53,-0.33 0.32,0.06 0.27,0.95 0.98,0.4 0.82999,-0.74 3.08001,-0.97 0.27,-0.94 1.36,-0.57 1.70999,0.42 2.08,-0.19 1.18,-0.86 2.71,-0.17 3.32,1.03 1.45,-0.67 1.27,0.5 3.1,0.02 1.12,0.74 3.12,0.86 3.88,0.11 2.78,0.67 0.9,1.41 2.26999,1.03 1.78,-1.32 1.21,-0.38 v 0 l -0.14,-0.84 -0.82,-1.27 -2.04,-2.08 0.71,-2.17 -0.21,-1.07 0.46,-0.65 -0.34,-2.42 0.99,-3.85 -0.1,-0.96 -0.97,-1.06 -0.76,0.02 -1.42,-1.04 -1.6,-3.22 -2.14,-2.31 -2.3,-0.73 -0.47,-1.11 1.21,-2.19 2.6,-2.05 0.41,-1.53 0.99,-1.37 -0.52,-1 -0.77,-0.4 -1.59,1.4 -0.48,-0.12 0.18,-1.45 -1.01,-0.73 -0.06,-2.87 0.53,-1.57 0.08,-1.8 -0.83,-1.03 0.68,-3.83 -0.69,-1.01 -1.75,-1.23 -0.5,-0.75 -0.21,-1.32 0.75,-1.51 -0.15,-1.46 -1.96,-2.34 -0.62,-0.29 -2.63999,-4.39 v -1.19 l -0.9,-2.26 -1.04,-1.29 0.66,-0.8 -0.06,-0.54 -0.4,-0.73 -1.14,-0.65 -0.15,-1.17 -0.42,-0.52 -0.92,-0.37 -0.1,-0.38 -0.92,-0.06 -1.17,-1.11 -0.45,0.23 -0.97001,-0.42 -0.79,-1.1 -1.41,-0.21 -0.53,-1.14 -0.84,-0.4 -0.92,-1.02 -1.41,0.1 z"
     title="Tipperary"
     id="IE-TA" />
</svg>
