<?xml version="1.0" encoding="UTF-8" standalone="no"?>
<!-- Created for MapSVG plugin: http://mapsvg.com -->

<svg
   mapsvg:geoViewBox="-10.617532 55.384216 -5.429631 51.419751"
   width="605.68188"
   height="775.40155"
   version="1.1"
   id="svg1"
   xmlns="http://www.w3.org/2000/svg"
   xmlns:svg="http://www.w3.org/2000/svg"
   xmlns:mapsvg="http://mapsvg.com">
  <defs
     id="defs1" />
  <path
     d="m 513.02277,543.30407 -0.31,-0.19 -0.06,-1.25 0.58,-0.19 -0.35,1.04 z m -45.47,-13.3 0.37,-0.21 0.81,0.69 0.56,0.04 0.27,1.29 0.49,0.33 0.54,0.08 1.42,-0.73 0.58,0.71 0.1,3.09 0.57,0.65 0.96,-0.79 2.3,0.38 0.57,-0.52 1.31,0.15 1.73,-0.94 0.3,-0.83 0.54,-0.19 0.44,0.67 2.33,-3.25 0.25,-1.08 1.2,-0.73 0.41,-0.85 0.59,-0.12 1.21,-1.06 0.78,-1.25 0.47,0.08 0.16,-3.88 0.8,0.13 0.99,-0.33 0.33,-2.29 -0.27,-1.21 0.3,-0.6 1.81,-1.91 0.41,-0.17 0.61,0.52 1.89,-1.6 1.06,-0.21 h 1.31 l 0.47,0.83 0.95,0.19 0.89,-1.23 1.71,-0.13 1.76,2.48 1.03,0.29 1.6,-1.31 2.3,-1.14 0.84,0.23 0.19,1.44 1.31,1.64 1.61,-0.23 0.73,1.15 0.91,-0.88 0.9,0.42 1,1.19 3.2,0.46 -0.82,2.27 0.93,1.02 -1.66,0.04 -0.08,0.33 1.42,0.04 0.95,0.79 -0.09,0.63 0.84,0.48 2,0.25 v 0 l -0.19,0.71 -1.66,1.77 -0.29,1.42 -3.27,3.01 -0.16,1 -0.97,1.46 -2.69,6.04 -0.5,0.81 -0.77,0.08 0.14,1.5 0.44,0.44 -0.47,2.01 0.13,1.38 0.99,2.47 1.05,1.48 -0.12,2.82 0.83,1.19 0.14,2.07 0.88,0.96 -0.05,1.01 -2.3,5.49 -1.81,2.2 -0.27,-0.44 0.12,0.67 -6.85,10.13 -3.55,6.26 -2.76,2.82 -0.74,1.18 -1.38,3.87 -0.25,1.75 0.13,3.87 1.05,2.93 -2.51,0.48 -0.14,-0.19 0.54,-0.11 0.05,-0.67 -1.35,-1.22 -5.95,-0.15 -0.72,0.27 -1.18,1.79 -1.26,0.82 1.83,2.65 -0.33,2.29 0.38,1.5 1.96,0.15 1.84,1.47 0.25,0.76 -0.34,0.02 -0.13,0.57 0.94,0.91 0.9,-0.21 0.21,-2.82 0.75,-0.46 0.48,-0.91 -0.35,4.79 0.8,2.87 1.38,2.53 1.42,0.76 1.95,-0.08 0.94,-0.47 0.44,1.29 1.81,1.39 -1.1,1.25 0.09,0.84 -0.42,1.06 -1.9,2.03 -0.15,1.23 -0.78,1.48 0.59,1.99 -1.41,1.16 0.03,0.85 -0.44,0.91 -3.01,-0.61 -1.32,-1.01 -2.21,-0.85 -5.34,-0.68 -3.69,0.17 0.05,-0.47 -1.67,0.91 -4.72,0.93 -1.17,1.06 -2.61,0.47 -1.47,0.72 0.14,-0.61 -0.38,-0.8 -1.41,-1.56 -4.32,-3.09 -4.51,-1.9 -2.73,-0.68 0.3,-0.25 2.32,0.19 0.69,0.57 2.59,0.61 2.05,1.35 1.05,0.02 0.08,-0.65 -2.06,-0.53 -0.02,-1.88 -0.34,-0.7 -0.35,0.95 0.21,0.82 -0.65,0.02 -0.59,-0.44 -0.55,0.25 -1.24,-0.27 -0.36,-0.42 -3.08,-0.1 -0.91,0.59 -1.08,-0.02 -1.91,0.76 -1.77,-0.34 -1.47,1.37 -2.16,0.21 -0.92,-0.87 -0.8,-0.25 -0.64,-1.41 1.17,-0.99 0.2,2.15 0.76,-0.36 -0.02,-1.58 0.47,-1.22 3.75,-3.69 -0.69,-2.83 -0.62,0.72 0.38,0.78 -1.71,1.96 -1.35,0.46 -1.75,-0.63 0.65,0.87 0.28,-0.27 -0.06,0.44 -2.73,2.24 -1.12,0.36 -0.89,-1.52 0.06,0.89 0.74,0.97 -0.07,0.67 -0.83,0.7 -0.36,1.1 -1.81,1.04 0.84,-0.09 2.74,-1.5 0.68,0.84 0.3,-0.82 0.54,0.46 0.46,-0.08 -1.26,0.8 -1.35,1.96 v 0.93 l -0.85,0.42 0.05,0.49 1.86,-0.63 -1.37,1.82 0.34,1.18 0.49,0.34 -0.69,0.46 -0.38,-0.57 -1.15,0.13 -1.37,1.42 -2.65,0.87 -1.01,1.25 -0.2,0.89 -0.65,0.61 -0.72,0.09 -0.96,2.26 0.17,0.78 -1.14,1.02 -0.54,-0.06 -0.63,0.59 -0.3,-0.13 0.16,-1.1 -0.36,-0.4 0.84,-1.54 1.34,-1.12 0.2,-1.04 1.35,-0.95 0.22,-0.93 v -2.58 l -1.54,-3.25 1.07,-0.85 -0.12,-0.7 -1.05,-1.75 -0.57,-0.38 -0.55,-1.29 -0.85,-0.53 -0.89,-0.04 0.19,-0.89 -0.9,-1.58 -1.32,-1.22 0.19,-0.46 -1.04,0.15 -0.72,-0.61 -0.25,0.59 v 0 l -1.47,-1.05 -0.8,-1.18 -0.11,-1.12 0.79,-1.31 -0.05,-0.59 -0.53,-0.91 -1.07,-0.11 v 0 l -2.12,-3.88 1.56,-3.39 1.62,-1.16 0.13,-0.44 0.06,-0.59 -0.65,-1.1 -0.42,-3.45 0.35,-2.29 0.79,-1.39 2.42,-0.08 0.12,-2.13 2.73,-4.56 -0.1,-1.81 -1.52,-0.59 -0.65,-0.55 -0.06,-0.65 1.45,-0.69 0.97,0.74 1.43,0.29 0.37,-0.92 0.92,-0.55 0.08,-0.67 -0.57,-0.5 -0.73,-1.68 0.34,-2.39 1.07,-0.86 -0.19,-0.63 v 0 l 2,-0.21 0.57,0.23 3.21,-2.25 0.35,-0.55 1.03,-3.25 2.61,-4.36 -0.44,-2.35 2.57,-2.33 1.08,-1.57 0.11,-2.45 0.35,-0.36 1.26,0.33 0.21,-0.21 1.08,-2.76 -0.28,-3.45 0.84,-3.79 -0.58,-0.23 0.53,-0.75 2.95,-3.05 1.53,-0.69 1.05,-0.1 1.24,0.56 0.97,-0.13 2.89,0.9 1.03,-0.44 1.49,-1.9 0.04,-1.04 0.62,-0.42 0.53,-1.25 -0.09,-0.77 -0.37,-0.31 -1.98,0.65 -0.38,-1.11 0.58,-1.8 1.24,-1.36 1.07,0.13 0.84,-0.42 0.71,-1.5 0.8,-0.48 0.12,-1.09 z"
     title="Wexford"
     id="IE-WX" />
</svg>
