<?xml version="1.0" encoding="UTF-8" standalone="no"?>
<!-- Created for MapSVG plugin: http://mapsvg.com -->

<svg
   mapsvg:geoViewBox="-10.617532 55.384216 -5.429631 51.419751"
   width="193.34999"
   height="116.76"
   version="1.1"
   id="svg1"
   xmlns="http://www.w3.org/2000/svg"
   xmlns:svg="http://www.w3.org/2000/svg"
   xmlns:mapsvg="http://mapsvg.com">
  <defs
     id="defs1" />
  <path
     d="m 96.619995,2.55 0.27,0.47 -0.79,0.64 -0.08,-1.16 0.78,-0.39 z m 2.75,-2.17 1.839995,0.35 0.62,-0.48 0.4,0.29 1.07,-0.41 0.72,0.35 0.14,0.66 0.65,0.6 1.84,-0.21 0.05,0.31 -0.74,0.74 2.86,0.87 v 0 l -0.06,0.43 -2.04,0.17 -0.58,1.59 1.31,4.03 0.92,1.2 1.59,0.83 0.49,0.62 0.76,-0.06 1.74,0.79 0.47,0.93 1.69,-0.02 1.33,0.81 1.83,1.8 0.57,1.24 1.1,-0.04 2.12,0.75 0.24,1.49 -0.89,1.47 -0.01,2.05 0.26,0.89 0.82,0.66 0.75,2.42 -1.66,1.37 0.27,1.7 0.48,0.39 1.11,4.39 0.97,-0.64 1.48,0.19 0.16,1.33 0.58,0.39 1.07,-1.72 -0.44,-1.02 1.83,-0.71 0.82,1.66 1.82,0.75 0.92,-0.73 0.48,0.73 0.91,-0.16 0.82,0.58 0.77,-0.71 0.08,-2.28 2.03,-0.99 1.22,-1.3 0.89,-0.37 0.58,-0.62 -0.02,-1.06 2.12,-2.82 2.43,-0.17 3.63,-2.59 1.94,0.02 1.76,-0.39 0.5,0.02 0.83,1.18 1.95,-0.75 5.77,-0.54 0.23,0.46 -0.19,1.82 0.78,1.47 2.53,-0.17 0.41,1.95 2,1.12 -0.19,1.82 1.03,3.04 2.3,-0.99 2.44,1.2 1.39,1.89 2.18,-1.39 1.06,-1.26 0.8,-1.7 0.64,0.15 1.04,1.7 2.32,0.5 1.28,0.73 0.48,1.37 0.44,0.1 0.54,-0.25 0.98,-1.78 0.98,-0.93 2.86,0.37 v 0 l 0.68,1.47 2.69,0.73 0.32,1.06 -0.91,1.47 -1.9,1.97 -1.62,4.11 -2.09,2.63 -6.05,-0.35 -1.62,0.71 -1.62,7.46 -1.15,1.87 -3.01,3.18 0.67,4.93 -0.05,1.91 1.07,0.89 0.21,0.58 -0.29,2.23 -0.67,1.64 -1.97,1.94 -1.83,3.1 v 0 l -2.71,1.21 -0.78,0.83 0.54,3.02 -0.4,1.33 0.55,1.25 -1.02,1.42 -0.21,0.92 -0.82,0.5 -1.26,-0.23 -1.25,1.27 -0.19,2.69 -0.46,0.75 -0.64,0.4 -0.9,0.02 -0.51,0.38 -0.15,0.74 -1.38,0.63 -0.38,2.63 -0.75,0.5 v 1 l -0.63,1 -0.88,0.13 -1.13,1.13 -1.38,-1.25 -5.63,0.13 -2.13,-0.63 0.5,-3.13 1.25,-0.88 2.38,-0.63 0.63,-0.88 0.25,-1.5 -0.25,-0.97 -1.61,-0.16 -2.29,0.29 -1.65,1.75 -1.19,0.17 -0.42,0.84 -2.61,-0.63 -3.18,-0.23 v 0 l -1.01,0.47 -0.81,-0.66 -6.88,-2 -3.13,-1.75 -2.75,-0.25 -3,1.5 -1.88,0.25 -0.63,1.25 h -2.38 l -1.5,-0.38 -0.63,-1.5 3.88,-2.13 1.13,-1 -0.5,-1.63 -1.88,-2.38 0.25,-2.5 -1.5,-1 1.25,-2.5 -1.75,-1.25 h -2 l -1,0.88 h -1.25 l -0.75,1 -1.5,0.38 v 0.5 l -1.88,0.75 -0.63,0.88 0.25,1.38 0.75,1.5 -0.25,1.88 -2.25,2.88 -2.13,4.38 -1.749995,0.5 v 1.38 l -0.88,1.75 -1.25,0.38 -0.63,1.13 -1.25,0.75 -1.13,2.75 -1,0.38 -0.63,1.25 -1,1 -3.75,0.13 -1.5,0.38 -1.25,0.75 h -4.63 l -1.25,0.5 -0.63,2 -1.25,2 -1.38,0.63 -4.75,0.38 -0.75,-1.13 0.25,-1.38 2.5,-2.25 3,-2 1.13,-1.38 0.13,-1.5 h -1.75 l -0.38,1.63 -1.63,0.25 -0.88,1 -5.26,0.5 -0.38,0.88 h -1.75 l -1.88,1 -4.5,0.25 -1.88,-1.38 -4.38,-0.13 -1,-1.13 -1.13,-0.13 -1,-0.88 h -1.88 l -0.5,-1.25 -1.13,-0.75 -0.5,-2.75 0.25,-1.88 -0.5,-1 h -1.38 l -0.88,1.25 -1,0.13 -0.25,1.5 v 1.63 l 1.75,-0.13 -0.25,2.38 -2.88,1.13 -1.38,1.25 0.25,1.25 -2.25,-0.5 h -2.25 l -2.63,0.63 -1,1.13 -3.38,0.25 -1.38,4.25 -0.82,0.76 -0.81,-0.83 -0.42,0.02 -0.12,0.42 -0.74,-0.69 -1.07,0.04 -0.3,0.67 0.23,0.63 -3.229995,1.51 -1.71,0.21 -2.67,1.13 -0.77,0.02 -1.31,-0.96 -2.01,-0.21 -2.06,0.19 -0.01,0.86 -0.82,0.84 -1.29,0.73 -0.85,0.02 -0.48,0.48 -0.22,-0.57 -1.13,0.23 -1.19,-0.4 -0.41,0.29 -1.2,-0.1 -0.16,0.33 -1.28,-0.59 2.12,-1.11 -0.08,-0.42 0.71,-0.48 0.34,-1.17 0.8,-0.48 0.39,0.12 0.82,-0.75 1.61,0.42 0.08,-0.92 0.76,-0.06 0.42,-0.38 -0.17,-0.38 -0.69,-0.08 0.18,-0.4 0.71,-0.27 0.33,0.33 0.1,-0.4 0.44,-0.13 0.27,0.44 0.4,-0.79 0.38,0.1 -0.05,-0.31 2.1,-0.1 0.13,-0.58 0.63,-0.1 0.23,0.48 0.24,-0.34 1.13,-0.13 1.15,-0.92 -0.07,-0.5 0.48,-0.4 -0.33,-0.98 1.5,-0.82 -0.29,-0.65 0.38,-0.46 0.91,-0.23 0.17,-0.73 0.29,0.25 0.76,-1.05 0.54,0.15 1.339995,-0.98 1.38,-0.35 0.62,-0.8 0.65,0.31 -0.37,-0.56 1.46,-1.17 0.29,-1.3 0.22,0.27 0.05,-0.33 0.29,0.27 1.06,-0.37 1.41,-1.05 0.55,-0.84 -0.15,-0.58 2.17,-1 -0.05,-0.69 1.27,-0.52 1.07,0.23 0.68,0.52 0.37,-0.23 -0.52,-2.23 -0.73,-0.21 1.14,-0.9 -0.46,-0.13 0.7,-1.21 -0.22,-0.17 1.55,-1.27 2.13,-0.79 -0.47,-0.5 0.09,-0.52 -0.78,-0.19 -0.93,-1.06 1.33,0.4 0.04,-0.48 -0.5,-0.69 2.23,-0.27 0.26,-2.06 1.42,-0.25 0.59,-0.56 2.1,-0.63 1.67,-0.13 0.72,0.27 -0.06,0.67 0.93,0.27 0.84,1.73 0.39,0.21 0.75,-0.6 -0.3,-1.42 h 2.6 l 0.81,-0.67 0.79,-2.21 -0.4,-1.06 -0.73,-0.77 2.01,-0.69 0.33,-0.58 -0.71,-2.29 0.33,-0.65 -0.75,-3.31 0.65,0.29 0.77,-0.19 2.3,-1.48 0.49,-0.52 -0.1,-0.83 0.52,-0.48 -0.54,-0.54 0.05,-0.6 2.38,-0.23 0.47,-0.75 -0.3,-1.29 -1.94,-1 0.93,-0.6 0.33,-0.77 1.03,-0.6 -0.15,-0.46 0.61,-1.23 -1.66,0.13 0.58,-0.83 -0.12,-0.89 0.49,-1.29 2.58,-1.77 1.75,-0.54 1.28,-1.72 1.46,-0.98 0.43,-1.24 1.61,-0.5 0.64,-2.57 -0.16,-0.7 -1.47,-1.8 -1.38,0.08 -1.75,0.83 -0.29,0.54 -1.03,0.58 -2.81,0.08 -0.47,-0.83 -1.07,-0.04 -2.25,0.68 -0.62,-0.1 -0.46,0.68 -1.18,-0.37 0.48,-1.08 -0.3,-0.71 0.8,-0.68 -0.1,-0.52 1.7,-0.89 0.62,-1.02 1.83,-1.6 0.48,-0.71 -0.15,-0.66 0.37,-0.91 -0.25,-1.45 1.04,-0.62 1.53,-2.36 1.83,-1.45 -0.08,-0.46 -1.37,-0.46 -0.44,-0.95 0.56,-0.99 0.92,-0.33 1.46,-3.17 2.04,-1.67 0.04,-1.96 0.82,-2.27 3.36,-2.6 1.29,-0.31 1.08,-1.26 0.23,-1.18 0.77,-0.74 1.54,-3.04 -0.44,-2.41 1.13,-2.44 2.12,-1.98 0.33,0.02 0.7,0.56 1.62,0.5 2.53,1.8 3.38,0.72 2.43,0.02 0.21,0.31 -1.78,-0.14 0.31,1.03 1.63,1.32 1.28,0.25 0.29,0.43 1.67,-0.47 0.44,-0.99 0.51,0.04 0.47,-0.54 -0.63,-0.37 1,-0.35 0.46,-0.81 0.99,-0.58 0.86,0.25 0.29,-0.23 -0.2,-0.31 0.91,-0.39 -0.72,1.11 1.41,-0.08 0.840005,1.76 0.79,0.52 -0.07,0.7 0.35,0.23 -0.48,-1.9 0.4,-0.85 -0.2,-0.62 -0.68,-0.12 -1.050005,-1.3 -0.68,-0.06 -1.19,0.7 -0.04,-0.68 -0.47,-0.45 -1.24,0.23 -0.26,0.62 -0.43,-0.74 -1.28,-0.16 0.08,-0.23 1.61,-0.06 1.08,-1.07 1.36,-0.47 1.19,-0.02 z"
     title="Clare"
     id="IE-CE" />
</svg>
