<?xml version="1.0" encoding="UTF-8" standalone="no"?>
<!-- Created for MapSVG plugin: http://mapsvg.com -->

<svg
   mapsvg:geoViewBox="-10.617532 55.384216 -5.429631 51.419751"
   width="63.55003"
   height="89.190002"
   version="1.1"
   id="svg1"
   xmlns="http://www.w3.org/2000/svg"
   xmlns:svg="http://www.w3.org/2000/svg"
   xmlns:mapsvg="http://mapsvg.com">
  <defs
     id="defs1" />
  <path
     d="m 54.99003,47.85 -3.97,-0.43 -0.5,-0.58 -0.4,0.43 -1.8,-2.11 -0.44,-2.67 -0.5,-0.06 0.59,-0.31 0.69,0.35 0.35,2.05 0.67,1.23 h 0.42001 l 0.13999,-0.47 -0.86,-3.67 -0.16,-1.86 0.44,-0.98 -0.4,-1.45 -1.82,-1.25 -2.19,-0.33 -1.19,-0.68 -0.56,0.12 -3.6,-2.07 v -0.25 l 1.43,0.49 1.46,-0.35 0.8,-0.72 1.7,0.31 1.08,-0.61 -0.33,-0.16 0.1,-0.59 0.76,0.21 1.33,1.15 -1.13,1.27 -0.57,1.19 0.53,0.04 -0.51,0.41 2.25,-1.25 0.93,-3.21 1.88,-1.78 0.72,-1.41 -1.29,-0.49 -0.46,-2.09 -0.49,-0.7 -0.16,0.23 -0.5,-0.33 -0.95,0.02 0.36,1.21 0.7,0.94 -2.72,-0.39 -1.8,0.41 -0.59,-0.16 v -0.98 l 1.67,-0.88 1.11,-0.04 1.81,-0.82 0.98,0.55 0.95,0.04 1.53,-1.33 2.41,-0.51 -0.05,-0.63 -0.92,-0.34 -0.43,-1.1 0.36,-1.47 0.68,-0.37 0.02,-0.51 -0.88,-0.16 0.22,-0.65 0.49,0.04 -0.08,-1.45 -0.42001,-1.35 -1.55,-1.29 -0.73,-2.59 0.57,-0.98 -1.69,0.51 -1.94,-0.73 -2.04,-0.12 -1.65,-2.49 -0.42,-1.35 -1.76,-0.9 -0.27,-1.04 -0.65,-0.41 -0.09,-2.24 -2.92001,-0.61 v 0 l -1.91,0.94 -0.49,-0.2 -0.65,-1.04 -2.14999,0.61 -1.05001,1.53 -0.08,1.02 -0.49,0.82 0.04,3.31 -1.38,0.78 -0.46,0.92 -2.41,0.71 -1.18,1.84 -1.83,0.69 -0.27,-0.33 -1.19,-0.14 0.15,-1 -1.6,-1.14 -1.12,-0.65 -1.2,0.08 -1.17,-0.53 0.22,2 -1.08,0.14 -0.89,1.71 -1.43,-0.06 -0.74,0.98 -0.29,1.51 -0.43,0.27 -0.69,2.08 0.19,0.65 1.32999,0.53 -0.18,0.71 1.77,2.31 2.05,0.33 2.86,1.82 -0.12999,1.6 2.6,1.47 0.86,4.09 -1.34,1.33 -0.47,1.31 -0.27,1.11 0.26,2.46 -1.48,0.61 -1.4,0.14 -1.21,0.94 -2.75,-0.37 -0.73,1.08 0.23,0.94 -0.48,0.78 0.01,1.74 -2.38,2.5 0.02,0.76 -1.8,2.22 v 0 l -1.32,1.33 -0.44,1.52 v 0 l -0.16,0.45 v 0 l -0.5,1.72 L 6.82,53.54 6.6,53.91 5.82,56.76 6.5,58.24 5.94,59.51 6.31,59.65 5.51,61.44 4.38,60.84 3.80001,61.17 3.33,60.96 2.22,61.68 1.72,62.42 2.08,63.14 0.92,64.07 2.26,65.24 2.11,67.63 1.37,68.6 0,69.55 3.52,72.7 4.68,72.35 4.39,73.17 3.53,73.03 l -2.1,1.52 -0.09,0.56 0.35,0.56 0.55,0.21 1.24,-0.33 5.28,2.18 -0.37,0.58 v 0 l 1.32,1.48 1.27,-0.88 3.76,0.12 0.96,2.57 0.71,-0.08 0.37,0.54 0.06,0.89 0.8,-0.54 2.66,-0.39 0.44,0.31 -0.57,4.12 2.92,2.04 1.62,0.7 2.64,-3.17 0.44,-3.54 -0.21,-1.59 0.96,-0.7 1.28,0.54 1.62,1.98 1.8,1.13 2.3,0.68 1.27,-0.41 1.32,-1.24 1.06,0.08 0.27,-1.24 1.61,-0.02 1.37,-0.56 0.33,0.04 0.72,1.77 1.26,1.36 0.51,0.33 1.35,-0.21 1.2,0.72 2.52,-1.98 1.47,-0.47 v 0 l -1.05,-5.7 0.08,-3.58 0.53,-1.3 1.8,-0.89 -1.53,-2.92 -0.6,0.02 -0.62,-0.54 -0.29,0.23 -1.23,-0.72 0.47,-1.46 -0.15,-0.66 -0.01,0.8 -0.55,0.9 -1.42,-1.01 0.82001,-0.99 -1.52,1.42 -0.69,0.08 L 40.99,63.51 40,62.44 l -0.94,-3.6 0.51,-0.45 1.76,0.43 0.14,-0.64 1.59,0.02 0.14,-0.86 -3.16,-0.06 -4.04,-0.78 1.34,-0.14 0.13,-0.47 3.49,0.49 0.06,-0.51 -0.47,-0.7 -1.28,-0.12 -0.21,-0.55 -0.88,-0.08 -0.34,0.47 -1.21,-0.68 0.73,-0.72 4.25,0.92 1.32,-0.84 2.58,-3.36 3.16,-1.71 2.29,0.04 0.77,0.66 -0.08,0.84 0.68,1.7 1.53,1.56 0.71,0.25 2.32,-0.74 0.65,0.6 0.25,-0.14 -0.28,-0.88 0.95,-1.72 0.17,-1.11 -1.87,-2.21 -0.64,-0.33 z m 8.52,-20.2 -0.88,0.88 0.28,0.67 -0.33,0.59 -1.56,-0.31 -0.16,-0.47 -1.07,-0.53 0.57,-1.74 0.76,0.57 1.38,-0.57 1.05,0.45 z m -15.05,21.98 1.44,-0.2 0.15,0.27 -4.54,2.96 -1.15,1.13 -0.44,1.09 -0.76,-0.62 1.32,-2.17 0.92,-0.88 0.42,0.1 0.3,-0.51 z"
     title="Dublin"
     id="IE-D" />
</svg>
