<?xml version="1.0" encoding="UTF-8" standalone="no"?>
<!-- Created for MapSVG plugin: http://mapsvg.com -->

<svg
   mapsvg:geoViewBox="-10.617532 55.384216 -5.429631 51.419751"
   width="128.99995"
   height="111.8"
   version="1.1"
   id="svg1"
   xmlns="http://www.w3.org/2000/svg"
   xmlns:svg="http://www.w3.org/2000/svg"
   xmlns:mapsvg="http://mapsvg.com">
  <defs
     id="defs1" />
  <path
     d="m 104.07995,0.26 1.61,1.58 1.18,0.23 1.41001,1.31 1.45999,0.68 -0.1,1.6 1.52,0.08 0.86,0.92 2.33,1.44 2.31,0.24 v 0 l -0.81,2.14 0.33,0.78 1.49,1.58 1.67,1.04 1.21,-0.72 0.74,0.09 2.33,3.04 -0.3,0.82 0.16,1.29 0.65,0.56 1.66,0.36 1.78,0.91 1.29,1.48 0.14,0.96 -4,2.27 0.67,0.98 1.66,1.11 -1.03,0.62 -1.01999,-0.33 -2.73001,1.07 -0.07,0.68 1.63,4.18 -3.72,1.93 0.38,0.86 -0.27,0.77 -2.56,0.2 0.02,0.72 1.27,0.17 1.65,1.07 1.65,-0.48 2.37,1.71 -0.34,0.85 -2.66,1.24 0.39,0.78 -0.2,2.41 -3.92,-0.17 -3.42,0.91 -1.76,-0.41 -2.59,-0.02 -1.43,-0.5 -0.82,0.15 -1.26,1.09 -0.02,0.29 0.62,0.33 3.29,0.45 0.93,-0.2 2.41,2.47 1.24,-0.68 1.35001,-0.08 1.51999,0.53 0.43001,0.54 0.04,1.16 -0.95,2.29 -1.47,-1.66 -1.60001,-0.22 v 0 l -4.33999,-0.15 -1.73001,0.44 -2.26999,-0.27 -0.60001,-0.48 0.22001,-1.17 -0.60001,-1.51 -1.22,1.18 -0.44,1.52 -0.68,0.93 -1.55,0.95 -1.54,0.39 -0.84,0.71 -0.67,1.19 h -0.74 l -0.39,-0.7 h -0.99 l -0.46,1.01 -0.72,-0.41 -0.57,0.72 -1.24,-0.31 -1.95,0.68 -1.3,-0.84 -0.21,-0.7 -0.46,-0.21 -0.49,-1.88 -0.64,-0.82 -0.54,-2.35 1.42,0.16 0.31,-0.31 -2.08,-3.5 -2.26,-1.94 -0.87,-1.47 -0.04,-0.7 -0.99,-0.51 -0.42,0.27 -0.78,-0.87 -1.37,1.36 -1.05,-0.43 -0.5,-0.6 -1.2,0.85 -0.78,-0.15 -0.79,0.62 0.42,2.27 -0.81,1.3 -1.27999,0.24 -1.95,-0.35 -2.47001,-1.05 -0.56999,-0.64 -1.07,1.3 -4.31,1.13 -2.02,1.34 -3.13,0.36 -1.1,0.65 -2.28,-0.18 -3.14,0.91 -0.1,1.63 -0.62,1.25 -1,0.75 0.11,1.59 1.23,1.46 0.3,0.87 1.19,0.53 1.18,1.59 0.13,1 -0.27,0.64 3.21,1.34 -0.21,0.93 -1.3,1.77 -0.48,2.01 -1.19,1.61 -5.07,3.74 0.09,2.28 -1.82,1.22 -1.95,0.46 -0.98,0.7 -0.72,2.2 -0.87,1.49 0.02,2.71 -0.44,1.01 0.99001,0.71 -0.87001,2.05 -2.14999,2.03 -0.10001,1.31 v 0 0 0 l -5.06999,-2.51 -1.67,0.16 -0.48,-1.16 -1.12,-0.74 -1.75,1.1 -1.06,0.1 0.1,1.43 -1.44,0.54 -0.86,1.62 -2.16,-0.36 0.01,1.54 -0.43,0.66 2.11001,1.35 0.34,0.72 -2.56,2.27 0.99,1.24 -4.03,1.99 1.19,1.58 -0.93,0.46 0.01,0.46 -0.66999,0.08 -2.33001,-0.64 0.63,2.49 -1.83999,1.35 -0.45,-0.07 -0.21001,-1.35 -0.44999,-0.74 -1.75,-1.04 -0.71,-0.04 v 0.7 l 1.52,1.64 0.24,2.73 -2.25,1.89 0.03,1.35 -0.49,0.39 -0.65001,-0.08 -1.52999,-1.35 -0.02,-0.62 -1.08999,-1.4 1.19,-2.53 -5.07,-2.12 -1.13,0.29 -0.46001,-1.83 -0.41999,-0.5 0.78999,-2.38 -1.5,-2.83 1.08001,-2.3 3.61,1.99 2.04,-0.16 1.17,-1.39 -0.14,-1.19 1.28,-1.09 -1.42,-3.09 -0.1,-1.54 -2.14,-2.09 -0.03,-1.2 1.71,-1.47 3.23,0.56 0.72,0.47 1,-0.49 -1.49,-3.21 0.51,-1.78 -0.32,-0.77 0.14,-1.12 0.67,-0.56 -0.81,-1.84 0.86,-0.54 1.63,0.5 0.46,-0.62 -0.2,-1.12 1.37,-2.99 -0.24,-1.78 0.83,-1.59 -0.77,-2.26 0.83,-1.48 -1.04,-1.04 -0.62,-0.2 -0.64,-1.41 -1.98,-1.57 -1.76,-0.6 -0.76,-1.03 -1.8,-0.84 L 9.36,55.55 8.79,54.62 7.75,53.87 3.69,52.7 1.24,50.94 0.71,49.89 0.08,50.24 v 0 L 0,49.33 l 2.71,-3.5 2.63,-1.3 4.2,0.54 1.24,-0.31 2.47,-4 0.2,-2.55 L 12.68,36.74 9.83,34.83 8.86,33.58 6.55,33.24 6.3,31.21 5.51,31.08 4.77,29.67 3.34,29.36 v 0 l 1.06,-2.92 1.63,-1.36 0.56,-1.97 0.11,-3.07 0.99,-0.71 2.26,0.47 1.33,-1.03 -0.15,-0.86 0.48,-0.8 2.11,0.22 2.05,-1.02 1.13,-3.1 1.8,-1.4 v 0 l 2.17,0.41 2.6,2.46 0.99,0.37 2.19,-0.08 0.81,0.99 1.84,-2.36 1.39,-0.5 0.64,1.07 1.37,0.23 0.99,-0.66 2.61,1.19 5.85,-2.34 1.72,-1.37 -1.01,-0.4 0.65,-2.35 0.78,-0.41 0.62,0.1 0.5,-2.03 1.15,-0.25 1.47,-1.72 0.69,0.1 0.39,-1.29 0.82,0.76 0.92,-0.35 0.13,-0.78 2.46,-1.19 2.04,1.09 0.28,2.19 1.64,0.29 0.58,0.57 0.9,-0.18 0.23,0.24 -0.54,1.65 1.24,1.47 0.41,1.05 -0.24,1.17 0.4,3.18 0.56,0.92 1.98,1.79 1.09,2.4 0.68,0.6 0.42,-0.33 -1.01,-1.23 0.2,-2.34 0.42,-0.58 1.8,0.6 0.71,-0.17 1.39,0.31 -0.33,1.48 0.18,0.94 2.78,-0.43 1.09,0.78 0.82,1.73 0.72,-0.45 0.53,0.08 0.13999,-1.42 2.09,-1.48 3.07,0.95 3.58,-1.93 0.42,-1.63 1.82,-1.23 0.87,-1.66 1.24,-0.16 0.54,-0.43 L 94.15,5.59 94.01,4.84 96.8,4.9 l 2.64,-1.3 1.23,-0.06 0.7,-0.73 -0.05,-1.36 0.4,-0.61 1.16,-0.84 z"
     title="Offaly"
     id="IE-OY" />
</svg>
