<?xml version="1.0" encoding="UTF-8" standalone="no"?>
<!-- Created for MapSVG plugin: http://mapsvg.com -->

<svg
   mapsvg:geoViewBox="-10.617532 55.384216 -5.429631 51.419751"
   width="131.63"
   height="105.33"
   version="1.1"
   id="svg1"
   xmlns="http://www.w3.org/2000/svg"
   xmlns:svg="http://www.w3.org/2000/svg"
   xmlns:mapsvg="http://mapsvg.com">
  <defs
     id="defs1" />
  <path
     d="m 67.69,0 1.12,0.75 1.05,0.16 0.99,-0.65 1.95,2.57 2.45,0.49 0.26999,-0.27 v 0 l 1.27,0.41 0.36,1.17 1.69,0.81 0.93,1.54 0.58,-0.24 0.92,0.37 0.32,0.7 H 83.44 l 2.8,3.53 1.23,2.86 -0.72,1.6 0.54,1.42 0.22,0.25 0.83,-0.06 0.57,1.4 -0.17,1.19 0.31,0.25 -0.23001,0.6 0.28,1.81 0.56,0.79 h 2.21 l 0.45,0.47 -0.48,0.91 0.66,2.75 1.12,-0.09 0.84,0.51 0.37,1.12 1.48,0.63 5.48,-0.55 1.66,1.02 0.5,1.75 -1.18,1.09 -1.49,2.91 -0.8,0.94 h -0.36 l 0.06,0.85 0.5,0.08 0.29,0.77 0.66,0.21 0.92001,1.42 0.63,0.19 0.02,-0.35 1.07,0.02 0.52,-0.41 0.31,0.31 0.83,-0.1 -0.23,-0.76 0.99,-0.16 0.45,-0.93 0.91,-0.07 1.53,1.26 2.9,0.47 1.26,1.33 1.31,0.81 1.44,-0.02 2.38,-0.41 0.03,-1.89 0.29,-0.29 3.04,-0.75 2.7,-1.6 1.32,0.06 0.97,1.42 0.65,0.2 v 0 l 0.23,4.28 0.84,3.8 -0.16,0.9 0.48,0.83 0.18,1.31 1.27,2.38 0.92,3.92 v 0 l -1.91,0.95 -0.49,-0.2 -0.66,-1.04 -2.14,0.61 -1.05,1.53 -0.08,1.02 -0.49,0.82 0.03,3.32 -1.38,0.78 -0.45,0.92 -2.41,0.71 -1.18,1.84 -1.83,0.69 -0.27,-0.33 -1.19,-0.14 0.15,-1 -1.6,-1.14 -1.12,-0.65 -1.2,0.08 -1.17,-0.53 0.22,2 -1.08,0.14 -0.89,1.71 -1.43,-0.06 -0.74,0.98 -0.29,1.51 -0.43,0.27 -0.69,2.08 0.19,0.64 1.33,0.53 -0.18,0.71 1.78,2.31 2.05,0.33 2.86,1.82 -0.13,1.61 2.6,1.46 0.86,4.09 -1.34,1.33 -0.46,1.31 -0.27,1.12 0.25,2.46 -1.48,0.6 -1.4,0.14 -1.21,0.94 -2.75,-0.37 -0.74,1.07 0.23,0.94 -0.47,0.78 0.01,1.74 -2.38,2.5 0.02,0.76 -1.79,2.22 v 0 l -1.91,0.37 -1.28,-0.46 -1.38,1.21 -2.12,-1.33 -0.58,0.19 -0.74,-0.87 -1.37,-0.39 -1.74,-1.88 -0.92,0.7 -1.49,2.72 -7.12,-1.39 -1.94,-0.04 -4.5,-3.63 -7.04,-3.42 -3.06,0.9 -1.93,1.31 -2.55,4.02 -3.72,-0.91 -4.19,-2.15 -1.18,-2.48 -1.39,-0.63 -1.15,-1.38 -0.37,-2.09 -3.72,1.23 -1.9,-1.88 -1.48,0.53 -0.99,0.99 -1.04,0.22 -1.33,1.11 -0.9,2.11 -1.29,1 -1.08,2.07 -4.72,2.52 -0.51,0.7 -0.5,2.46 v 0 l -2.31,-0.24 -2.33,-1.44 -0.86,-0.92 -1.52,-0.08 0.1,-1.6 -1.46,-0.68 -1.41,-1.31 -1.18,-0.23 -1.61,-1.58 v 0 l -0.22,-1.94 3.86,-1.01 1.12,-2.23 3.61,0.74 3.34,-1.78 1.16,-1.62 2.11,-1.09 -0.48,-1.88 0.76,-1.27 -0.74,-1.9 1.8,-0.94 1,-0.12 0.97,-2.66 1.34,-1.64 0.01,-1.98 0.51,-2.31 -1.79,-1.92 -0.22,-0.92 0.48,-1.68 0.91,-1.53 0.77,-0.49 2.52,0.29 0.67,-0.21 -0.92,-1.69 0.18,-0.49 1.12,-0.69 0.51,-2.39 -0.85,-2.12 0.07,-0.78 1.25,-1.83 1.22,-0.43 0.55,-0.82 -0.25,-1.12 0.95,-1.91 -0.22,-0.59 0.27,-0.41 -0.52,-0.37 -0.58,0.27 -0.94,-0.51 -0.52,-1.06 0.28,-0.41 -1.44,-2.2 -1.51,-0.31 -0.89,2.23 -1.77,-0.74 -0.63,1.79 -0.91,0.66 -1.73,0.18 -0.98,1.71 -0.82,0.76 -2.35,-1.94 -1.26,-2.42 -0.9,-0.19 -1.44,-2.95 -1.81,2.01 -1.59,-2.13 -4.3,-1.39 -1.06,0.04 -1.16,-1.61 -1.06,0.39 -0.45,-1.34 -1.04,0.08 -0.53,-1.43 -0.88,-0.73 -0.16,-0.77 0.83,-3.19 L 12.02,35.99 11.03,34.45 9.21,33.53 6.32,27.88 3.31,26.3 3.12,25.52 1.1,25.61 0.41,25.22 0,23.49 v 0 l 3.98,-2.57 2.69,2.74 0.69,1.34 0.19,1.58 0.38,0.41 2.71,1.09 1.32,-0.52 1.52,1.26 1.43,0.04 -0.51,-0.47 0.78,-1.34 -0.08,-0.86 2.16,-1.8 0.94,0.93 1.24,-0.28 0.37,-0.75 1.82,-0.04 0.98,-1.39 2.39,2.32 1.1,-0.45 0.82,0.33 0.68,0.75 0.22,2.33 3.32,0.02 1.22,0.49 1.68,-0.1 1.07,-0.49 5.04,2.12 0.32,-3.03 0.45,-0.04 0.81,1.5 1.37,-1.62 -0.01,-0.63 1.47,-1.08 1.74,1.91 1.65,-0.75 -1.15,-0.85 0.54,-2.4 0.58,-0.37 1.12,0.47 1.07,-1.64 -0.6,-1.65 -1.4,-1.19 -0.45,-0.98 -2.04,-1.54 -0.36,-1.85 -0.71,0.21 -0.48,-0.41 -0.76,-2.09 0.64,-1.21 L 43.36,10.33 43.18,9.6 44.4,9.7 44.99,10.77 47.17,9.7 48.63,8.52 47.81,7.35 47.97,6.66 47.53,5.22 h 1.58 l 4.34,2.76 0.42,0.75 0.58,-0.39 1.53,0.29 2.1,-0.73 0.64,-0.79 -0.99,-0.94 1.69,-1.56 0.64,0.25 0.56,-1.14 1.53,0.29 -0.71,1.33 0.47,0.21 0.56,-0.33 0.76,0.45 0.04,0.5 0.67,0.21 0.77,-1.18 0.28,-1.19 -0.52,-0.69 0.73,-1.91 0.44,-0.75 0.4,0.69 0.86,0.33 0.49,-0.47 z"
     title="Meath"
     id="IE-MH" />
</svg>
