<?xml version="1.0" encoding="UTF-8" standalone="no"?>
<!-- Created for MapSVG plugin: http://mapsvg.com -->

<svg
   mapsvg:geoViewBox="-10.617532 55.384216 -5.429631 51.419751"
   width="174.92"
   height="169.61"
   version="1.1"
   id="svg1"
   xmlns="http://www.w3.org/2000/svg"
   xmlns:svg="http://www.w3.org/2000/svg"
   xmlns:mapsvg="http://mapsvg.com">
  <defs
     id="defs1" />
  <path
     d="m 43.53,161.01 h 0.55 l 0.22,0.38 -1.16,1.54 -1.97,-0.09 0.51,-1.32 1.12,-0.66 z m 11.09,-4.29 0.78,0.38 -0.37,0.79 -0.63,-0.15 -0.21,-0.79 z m 42.1,-13.7 -0.51,1.19 -2.03,1.13 -0.26,-0.36 0.43,-1.04 0.47,0.06 z m -71.54,-1.67 -0.15,0.6 -0.62,-0.04 -0.55,0.96 -0.43,0.02 0.71,-1.54 0.47,0.04 0.1,-0.58 0.71,0.32 z m 6.49,-17.23 0.94,0.17 0.73,0.68 1.21,-1.23 0.47,1.75 2.06,-0.68 1.29,0.21 -0.2,2.11 -2.01,1.79 -4.51,1.75 -0.98,1.17 -0.56,-0.26 -0.92,0.66 -0.77,-0.09 -0.79,0.45 -1.32,-1.02 -2.57,1.77 -0.65,0.25 -0.44,-0.26 -0.55,0.57 -0.13,-0.6 0.71,-0.79 0.16,-1.98 0.28,-0.28 0.49,0.23 0.13,-0.85 0.63,-0.45 -0.05,-1.28 1.7,-0.51 0.71,-0.02 0.26,0.32 1.12,-0.32 3.03,-2.13 -0.19,-1.77 z m 5.47,-1.25 1.1,-0.32 0.23,0.64 -0.9,-0.09 -0.85,0.96 -0.5,-0.66 -0.72,0.09 -0.29,-0.28 0.42,-0.92 0.77,-0.13 z m -36.16,-20.88 1.56,0.42 -0.07,0.72 -0.5,0.25 -1.21,-0.4 -0.18,-0.61 -0.58,-0.3 0.48,-0.57 z m -0.37,-0.93 0.02,-0.78 0.75,-1.06 0.53,-0.1 v 0.91 z m 11.33,-10.88 1.17,1.21 -0.97,1.65 -0.9,0.15 -0.36,0.74 -0.75,0.15 L 9.7200002,94.74 9.12,94.36 7.03,95.84 6.56,96.6 4.9,97.43 6.26,94.87 10.7,92.1 Z M 39.2,85.76 38.95,85.61 39.28,85.33 Z M 5.51,85.91 5.53,87.03 5.03,87.12 4.87,87.59 3.26,87.4 3.82,86.45 4.31,86.39 4.26,85.99 4.82,85.9 4.87,85.37 5.36,85.09 Z m 50.8,-20.97 -0.8,0.15 0.44,-0.46 z m 89.81,-63.2 0.91,1.15 v 0 l 0.4,1.22 0.96,0.25 0.56,-0.46 0.33,0.11 -0.37,1.27 -0.85,0.19 0.69,1.09 -0.72,1.49 1.18,0.54 0.8,1 0.22,1.24 1.01,-0.04 1.84,1.01 0.98,5.05 -2.17,0.44 -0.22,0.73 0.31,2.14 -0.71,1.17 -1.25,-0.02 -0.3,0.38 -0.09,-0.42 -0.27,0.31 -0.4,-0.13 0.45,1.8 0.77,1.09 -0.03,1.39 0.49,1.32 0.88,0.11 0.57,1.41 0.96,-0.06 0.19,0.42 -0.41,1.05 -2.12,0.84 -1.47,3 0.81,0.99 1.85,1.18 0.1,0.42 1.18,0.92 0.08,0.51 -1.12,2.02 -0.46,-0.02 -1.75,1.28 -0.91,0.08 -0.56,1.01 0.07,0.76 0.91,1.18 h 0.92 l 1.33,0.78 2.43,3.22 2.48,0.42 2.09,1.14 0.59,-0.23 1.53,1.03 1.24,2.95 1.27,1.29 v 0 l 0.83,1.5 0.02,0.8 -0.58,0.84 -0.85,-0.34 -2.92,0.8 0.17,2.42 -3.02,1.94 0.28,1.08 -0.58,3.8 1.31,1.14 0.56,1.92 0.79,0.65 0.79,5.05 0.63,0.91 0.97,0.51 -0.17,1.33 0.3,0.7 -0.83,3.38 0.37,0.78 -0.01,1.08 1.05,1.88 -0.38,1.25 0.96,1.72 1.07,1.06 0.13,2.24 0.7,-0.21 0.9,1 -0.13,0.59 0.77,0.51 1.05,0.13 -0.99,1.8 -1.94,0.66 -0.31,1.14 -0.94,1 -0.23,1.76 1.37,5.07 3.23,-0.68 0.55,1.89 1.52,2.36 3.2,0.04 0.75,-0.34 1.21,1.29 -0.26,0.7 -1.92,2.42 -2.25,-0.72 -1.56,0.6 -2.76,0.02 -2.17,1.46 -3.56,1.13 h -1.48 l -0.59,0.59 -0.28,1.38 -1.7,0.62 -2,1.62 -1.2,0.32 -0.28,0.83 0.58,1.74 -0.04,1.47 0.62,1.17 1.26,0.81 -0.7,1.92 1.53,0.77 0.51,0.85 -0.83,0.57 -0.79,1.7 -1.56,0.9 0.02,1.36 -0.8,0.96 -0.13,0.66 -1.83,1.13 -0.06,1.28 -0.49,0.72 -2.25,0.55 -1.33,1.49 -2.99,-0.24 -1.13,1.39 -1.06,0.6 -3.62,0.11 -1.38,3.76 0.18,0.81 -1.65,0.43 -0.17,0.75 -2.36,0.94 -4.83,0.45 -1.49,-0.06 -0.65,-0.73 -1.6,0.71 -1.2,-0.58 -1.52,1.09 -1.52,-0.09 -0.89,-0.45 -2.47,0.21 -3.59,4 -0.61,0.3 -1.27,2.9 -1.06,0.47 -0.9,-0.13 -0.93,0.79 -1.28,-0.56 -1.35,0.9 -1.07,0.17 -1.63,1.95 -1,0.28 -0.62,0.88 -1.040005,0.54 -0.25,0.83 0.29,0.58 -3.549995,3.51 -1.95,0.15 -1.69,0.73 -1.38,-1.07 0.64,-0.98 0.43,-3.3 -0.71,-0.77 -1.17,0.21 -0.42,-0.53 1.04,-1.07 0.13,-0.62 -1.61,-1.56 -0.92,-1.82 v 0 l 1.26,-1.22 -0.62,-0.02 -0.09,-1 -0.46,-0.4 0.65,-0.83 -0.44,-0.24 1,-1.17 0.61,0.21 -0.33,0.56 0.82,-0.09 0.14,0.51 -1.31,1.11 2.22,-0.21 1.75,-0.64 -0.35,0.68 -0.76,0.36 -0.04,0.39 0.62,-0.39 0.68,0.11 0.12,-0.39 1.05,-0.3 0.96,0.13 -1.11,0.62 -0.38,0.38 0.14,0.26 1.28,-0.43 0.46,-0.53 0.16,0.38 0.47,-0.36 0.41,0.23 0.33,-0.49 -0.47,0.21 -0.79,-1.03 0.83,-0.04 -0.06,-0.23 -1.65,-0.62 0.09,-0.28 -1.27,0.25 0.09,-0.53 -0.43,-0.4 -1.29,0.23 -0.6,-1.09 4.11,-2.52 0.15,0.28 0.58,-0.36 0.1,0.28 0.73,-0.23 v -0.4 l -0.52,-0.02 0.31,-1.28 0.36,0.06 -0.37,-0.47 3.81,-2.05 0.19,-0.53 0.42,-0.13 -0.25,-0.73 1.12,-1.24 0.28,0.21 1.53,-1.11 0.49,0.25 2.45,-0.7 h 2.58 l 0.43,-0.4 0.67,0.17 0.85,-0.41 1.07,-0.02 0.3,-0.36 -0.35,-0.34 1.14,-0.36 1.23,-1.49 1.03,-0.26 3.16,-1.92 1.08,-0.17 1.34,-0.77 0.57,0.15 1.77,-2.39 -1.13,0.73 -0.9,-0.02 -0.33,0.57 -0.71,0.04 -1.52,1.22 -1.85,-0.09 -0.38,0.57 -0.39,-0.21 -0.16,0.43 -2.31,0.51 -0.85,-0.89 -1.82,0.64 0.02,-0.64 -2.15,1.09 -0.81,0.02 -1.1,0.89 -1.22,0.13 -3.85,1.39 -1.21,0.9 -0.44,-0.79 -0.21,0.87 -0.64,0.6 -2.38,0.64 -1.56,1.43 -2.6,1 0.16,-0.47 -0.68,0.4 0.05,-0.24 -2.15,1.2 -1.33,1.19 0.19,0.32 -0.51,0.68 0.77,-0.51 -0.06,-0.73 1.31,-0.68 0.1,0.38 -0.58,1.15 -1.05,0.94 -1.52,0.55 -0.78,-0.3 0.22,-1.39 -1.12,0.51 -0.46,-0.35 -0.62,0.26 v -0.77 l -0.51,0.04 -0.93,0.55 -0.26,-0.19 -0.46,0.58 -0.47,-0.79 0.62,-1.24 -0.68,0.09 0.39,-0.88 -0.73,0.26 0.41,-1.36 -0.64,-0.21 -0.37,1.28 0.37,1.34 h 0.41 l -0.04,2.17 -0.75,0.81 -1.43,0.11 -0.82,-0.34 -1.17,0.94 -1.38,-0.17 -2.34,2.24 -0.54,0.09 -0.38,-0.34 -0.26,0.85 -0.15,-0.21 -0.72,0.24 -1.12,1.28 -0.75,0.26 -1.23,1.18 -0.92,-0.41 -1.39,-0.04 -0.43,-0.38 -0.55,0.3 -0.34,0.75 -0.73,-0.49 -0.3,0.7 -0.16,-0.45 -1.46,1.03 1.39,-0.23 -0.13,1.17 -1.21,0.43 -1.25,-0.28 -0.82,0.71 -1.77,-0.09 -0.58,0.85 0.36,0.58 -2.39,0.64 -0.94,1.33 -1.21,-0.7 3.09,-3.53 0.07,-0.6 -0.71,-0.04 -0.37,1.41 -0.61,-0.54 -1.91,0.19 -0.27,-0.92 -0.48,-0.41 -0.36,0.49 -1.13,0.34 -0.57,-1.02 -1.04,0.26 -0.56,-0.21 -2.03,-1.84 -1.74,0.45 -1.01,-0.81 -0.04,-0.77 2.59,0.19 0.63,-0.77 1.7,-0.41 0.44,-1 -0.27,-1.02 0.91,-1.3 -0.73,-0.7 0.7,-2.75 -0.2,-0.79 -0.52,-0.79 -1.82,-0.81 -1.33,-1.54 0.05,-0.51 -1.18,0.6 -1.94,-0.28 -0.66,0.58 -0.57,-0.34 -0.51,0.17 -0.71,0.94 -0.12,1.17 -2.12,1.83 -0.07,1.07 0.48,-0.68 0.06,0.34 -0.63,1.45 0.33,0.47 1.01,0.17 -2.01,0.17 -0.46,0.59 -0.5,0.09 0.27,-0.96 -0.4,-0.09 -0.65,1.11 -0.71,0.34 -0.83,1.13 -4.07,2.18 -0.13,-0.38 0.34,-0.45 -1.57,-1.94 2.31,-1.26 0.06,-0.75 -0.55,0.11 0.21,-0.43 -0.36,-0.54 0.3,-0.4 -0.28,-0.21 0.93,-1.07 -0.71,-0.51 0.17,-2.03 0.54,-0.71 -0.35,-1.15 -0.77,0.28 -1.14,-0.28 -0.91,0.21 0.26,-0.47 -2.17,1.05 -1.49,0.04 -0.21,-0.32 -0.81,-0.06 0.49,-0.43 -0.14,-0.38 0.67,-0.87 -0.19,-0.28 0.78,-1.09 -0.3,-0.23 0.19,-0.49 -0.73,0.08 0.55,-0.53 -0.34,-0.62 0.15,-0.62 -0.54,0.09 0.02,-1.04 -0.66,0.02 0.85,-1.58 0.7,0.49 2.04,-0.47 2.01,0.06 1.34,-1.11 1.69,0.11 1.57,-1.34 1.82,0.4 v -0.92 l 0.4,-0.28 0.99,0.04 -0.15,-1.04 0.58,-0.83 0.7,-0.34 0.81,0.02 1.95,2.64 -0.36,-1.91 0.43,-0.3 -1.02,-0.57 0.63,-1.04 -0.79,-0.89 -2.3,-1 3.46,-1.75 0.44,-0.98 0.77,-0.53 1.31,-0.19 1.69,-1.55 1.15,0.79 0.23,-0.92 2.22,-1.1 -0.42,-0.13 0.36,-0.23 -1.13,-0.25 -2.39,1.06 -1.92,1.91 -1.71,-0.04 -1.43,0.81 -0.68,-0.96 -0.14,1.51 -0.64,0.74 -0.44,0.04 -0.48,-0.02 0.25,-0.64 -0.94,-0.66 0.41,-0.98 -2.34,0.15 -0.04,-0.28 -2.31,-0.11 -0.13,-0.34 0.47,-0.7 0.54,-0.09 0.54,-0.74 1.73,-0.34 0.63,-0.77 0.43,0.09 0.34,-0.32 0.57,0.96 0.85,-0.4 0.46,0.38 -0.33,-1.55 0.13,-1.13 0.42,-0.36 0.56,-2 0.43,0.45 3.27,-1.38 1.46,1.49 0.31,-0.76 -0.08,-1 0.78,-0.98 2.61,-1.85 1.19,0.06 0.42,-0.42 0.65,0.02 0.64,-0.83 0.17,0.47 0.14,-0.66 0.79,-0.91 0.32,-0.08 0.2,0.4 0.24,-0.62 0.62,-0.4 0.79,-0.28 0.08,0.83 0.67,-0.36 0.61,0.04 0.09,0.28 0.38,-0.47 0.96,-0.3 0.04,0.74 0.73,0.08 0.03,-0.53 1,-0.87 2.9,-1.3 1.18,-0.17 1.7,0.7 1.7,-0.23 5.88,-3.16 0.4,-2.67 -0.2,-2.37 0.93,-1.61 1.14,-0.06 -0.48,0.15 -0.86,1.1 0.2,1.76 0.47,0.57 -0.76,0.13 -0.61,2.92 2.05,-1.85 0.49,-0.09 0.34,-1.34 0.29,0.09 1.46,-1.38 -0.16,1.31 0.51,0.87 0.77,0.15 0.29,-0.32 0.09,0.38 0.82,0.08 -0.49,-0.8 -0.72,-0.26 0.49,-0.74 -0.52,-0.23 -0.46,0.4 -0.09,-1.25 -0.56,-0.79 0.99,-1.76 1.62,-0.95 0.57,-1.8 0.47,-0.51 0.48,-1.63 -0.01,-3.47 0.61,0.53 -0.13,0.25 -0.44,-0.55 0.15,1.35 0.28,-0.63 0.54,0.25 -0.51,2.41 0.5,0.97 -0.68,0.78 0.25,0.25 1.46,-0.23 0.61,-0.47 0.12,0.21 1.45,-0.47 0.51,0.17 0.56,-0.63 0.8,0.87 -0.1,-0.36 h 0.55 l -0.61,-0.23 0.33,-0.82 -0.31,-0.17 1.41,-1.18 0.25,0.46 0.19,-0.4 0.38,0.55 0.28,-0.45 0.43,0.36 0.2,-0.23 0.35,0.59 -0.22,0.7 0.59,-0.08 -0.47,-1.29 0.29,-0.59 0.62,-0.02 -0.38,-0.25 0.37,-0.04 -0.12,-0.3 1.38,0.36 -0.02,0.34 0.82,-0.57 0.82,0.95 0.29,-0.42 -0.65,-1.36 -0.89,-0.25 -0.07,-1.21 0.71,-2.09 -0.71,-0.74 0.07,-0.8 -0.43,0.46 0.17,-0.83 -0.28,0.87 -1.21,1.21 -0.8,-0.28 0.31,-0.44 -0.58,-0.78 v 0.44 l -1.08,0.27 -1.21,0.21 -1.46,-0.38 -1.28,0.08 -0.73,0.57 -1.39,-0.09 -0.63,0.19 -0.14,0.42 -0.9,-0.11 -2.82,1.06 -3.52,0.23 -0.7,0.74 -0.63,0.13 -0.93,-0.21 1.4,1.46 1.05,0.32 -0.03,0.8 0.73,0.76 0.08,1.59 1.35,1 -0.7,1.14 -1.04,-0.19 -1.07,-1.04 -1.75,-3.64 -1.81,-2.31 -6.52,1.65 -0.75,-0.45 -0.19,0.57 L 65.4,86 64.01,86.93 H 62.9 l -1.63,1.08 -1.41,-0.59 -1.92,2.1 -0.73,0.25 -0.16,-0.27 -0.99,0.55 -0.29,-0.36 -0.7,0.23 0.82,-1.06 -1.55,-0.15 -0.02,-0.3 -0.35,0.21 -0.12,-0.44 -0.48,0.85 -3.7,1.97 -0.63,-0.28 0.71,-0.72 -1.24,0.02 0.23,-0.59 -0.25,-0.81 -0.66,-0.46 -0.99,-0.06 -0.5,1.04 -0.35,-0.59 -2.79,0.51 -0.07,-0.7 -1.33,-0.57 0.06,-0.61 -0.6,-1 -0.79,-0.3 0.05,-0.93 -1.2,-0.02 -0.48,-0.46 -0.1,0.89 -0.98,0.42 -0.49,-0.53 -1.46,1.65 0.82,-0.11 0.58,0.44 3.95,0.59 0.64,0.7 -0.58,1 -1.89,0.04 -1.18,0.61 -1.38,-0.81 -2.34,0.09 -0.36,-1.36 -0.98,0.17 -0.09,-0.66 -2.9,-1.33 -1.35,0.95 -0.68,1.5 0.23,-0.09 0.44,0.91 1.11,-0.02 0.48,0.7 1.11,0.19 0.18,0.32 -1.1,0.57 H 29.6 l -0.71,-0.57 -0.61,0.53 -1.17,-0.38 -0.33,0.3 -0.61,-0.13 -0.88,0.68 -0.79,-0.09 -1.66,0.97 -0.69,-0.44 -0.36,0.4 -2.27,0.28 -0.52,-0.19 0.1,-1.46 -0.37,-0.09 0.02,-0.28 -2.26,-0.23 0.33,-0.64 1.25,-0.36 0.63,-1.42 -0.19,-0.55 -0.26,0.08 0.01,-0.97 -0.3,0.19 0.03,-0.46 -0.56,-0.17 0.57,-2.43 -0.48,0.08 -0.27,-0.64 -0.71,-0.44 0.28,-0.47 0.82,0.19 0.7,-0.51 0.28,-0.49 -0.17,-0.23 -0.34,0.21 -0.09,-0.42 0.48,-0.42 -0.13,-0.34 0.7,-0.21 0.86,-1.5 0.76,0.06 0.23,-0.38 -0.58,-0.55 -1.49,0.66 0.58,-0.46 -0.06,-0.34 -0.3,0.11 0.13,-0.46 -1.89,0.3 -0.18,-0.61 2.82,-2.14 1.4,-0.42 0.22,-0.91 1.32,-1.25 0.97,0.47 0.76,-1.01 0.56,0.83 -1.24,1.77 -0.13,0.59 0.64,0.63 -0.62,0.32 0.01,0.59 1.12,0.72 1.88,0.11 0.33,-0.42 0.82,1.29 0.98,0.61 -0.26,-0.51 0.93,-2.3 -1.44,-0.87 -0.07,-1.29 2.62,-2.91 -0.35,-0.78 -1.47,0.13 -0.29,-0.55 0.13,-1.1 0.92,-1.58 0.84,-0.61 0.31,0.55 0.48,-0.11 0.44,0.32 0.36,-1.01 0.37,-0.11 0.47,0.59 1.17,-0.19 3.09,-1.81 0.7,-1.2 -0.23,-0.78 0.36,-0.34 2.82,-0.25 0.99,-2.02 0.98,-0.68 0.28,0.15 2.54,-0.97 0.85,0.27 0.57,0.74 h 0.6 l 0.31,-0.3 -0.15,-1.35 0.33,-0.36 3.56,-1.48 2.33,0.46 -0.4,1.66 0.49,0.76 -0.85,2.19 0.4,-0.29 1.17,0.76 -1.21,1.9 -0.05,0.78 -2.29,2.07 -0.19,1.14 0.65,0.3 -0.07,-0.55 0.43,-0.63 1.48,-0.57 1.62,-0.09 0.51,0.42 -0.09,0.38 0.37,-0.09 0.21,-0.74 0.73,-0.49 -0.29,-0.47 3.66,-0.15 2.05,-0.82 1.24,-0.74 1.18,-1.5 1.77,-1.5 1.62,-2.62 0.25,-1.1 -0.23,-1.39 -1.01,-1.31 -0.86,-0.06 -0.73,-0.84 0.02,-0.4 1.65,-0.32 0.52,0.32 0.43,-0.36 -0.04,0.95 1.12,0.42 1.03,-0.7 -0.24,-0.61 0.33,-0.88 1.08,1.24 -0.62,0.4 -0.48,0.93 0.19,3.41 -0.35,0.59 -0.78,0.32 0.18,2.26 2.81,3.08 -0.51,-0.42 0.18,0.47 2.23,0.91 1.19,1.43 1.81,1.22 h 2.18 l 1.49,-0.4 1.8,1.01 1.42,-0.08 3.85,-1.24 1.4,-1.16 1.59,-2.91 2.18,-0.59 0.88,0.25 -0.58,0.13 -0.43,0.55 -0.64,-0.11 -1.66,1.16 -0.01,0.34 1.4,0.3 0.15,0.65 2.55,-0.1 0.63,-0.67 2.01,-1.01 2.51,1.22 -0.180005,-0.93 0.850005,-0.19 0.61,0.87 -0.3,-1.37 0.45,-0.29 0.83,0.13 0.23,-0.57 -1.59,-0.44 -0.07,-0.27 0.44,0.02 -0.34,-0.91 -1.52,-0.32 -1.18,-1.06 -2.08,0.57 -2.24,0.02 -1.1,-0.82 -1.84,-0.08 -1.35,-0.76 -1.39,0.67 -0.37,0.55 -0.43,-0.47 -0.85,0.28 0.09,-1.84 -0.22,-0.44 -0.58,-0.15 -0.02,-0.91 -0.89,-0.86 0.51,-0.97 0.41,0.13 0.51,-0.4 0.1,0.72 0.65,0.7 0.36,-0.23 0.42,0.3 -0.05,0.78 -1.26,0.89 0.3,1.27 1.44,-0.84 0.09,-1.08 0.43,0.15 0.46,-0.36 1.61,-0.25 1.04,-1.69 -0.58,-0.13 -3.58,0.74 -0.54,-0.84 1.75,-1.22 h 0.45 l 0.39,0.44 0.58,-0.21 0.37,-1.14 0.5,-0.13 0.35,0.63 h 0.56 l 0.35,-1.85 -1.19,-0.82 -1.63,2.15 0.12,0.91 -0.35,-0.55 1.76,-4.99 -0.28,-3.87 0.68,-0.88 0.27,-1.31 -0.83,1.87 -0.15,-0.4 0.67,-1.87 -0.17,-2.02 -0.36,-0.9 -0.64,-0.4 -1.71,-0.48 -2.01,0.11 -3.31,-0.92 -1.4,0.17 -0.71,-0.78 -2.11,-0.69 -1.08,-1.47 0.59,-0.9 -0.28,-0.57 0.2,-0.55 0.72,-0.17 0.52,-0.82 0.39,0.32 1.22,-0.97 1.03,-0.08 0.14,-0.46 1.54,0.57 0.72,-0.38 0.65,0.63 0.97,-0.5 1.55,0.9 2.24,-1.22 1.94,-0.17 0.29,-0.46 L 94,28 l 0.63,-0.65 0.43,0.19 0.52,-0.33 0.31,-0.67 0.81,-0.31 0.48,0.34 0.78,-0.94 0.98,0.36 1.53,-1.64 0.61,-0.04 0.91,-2.21 0.83,-0.52 0.56,0.12 0.2,-0.76 1.53,-0.34 0.89,-0.92 1.2,0.31 1.1,-0.63 1.08,-2.85 -0.09,-2.1 0.56,-0.8 -0.52,-0.78 0.56,-0.33 -0.83,-0.9 1.07,-0.59 -0.89,-0.61 1.13,-0.27 -0.06,-1.01 0.43,-0.38 -0.37,-0.69 -0.78,-0.42 -0.04,-0.59 1.88,-1.55 0.01,-0.75 1.08,-0.49 0.63,-1 1.88,-1.25 1.75,-0.75 2.75,0.38 2.13,0.88 h 2.75 l 1.13,1.75 1.25,-1.75 2,-0.13 2.88,2.38 2.75,-0.25 0.38,-1.5 1.25,-1.38 h 6.51 l 1,-1.63 2.76,0.85 z"
     title="Kerry"
     id="IE-KY" />
</svg>
